<svg width="91" height="93" viewBox="0 0 91 93" fill="none" xmlns="http://www.w3.org/2000/svg">
<rect width="91" height="93" fill="white"/>
<path d="M62 43.5C62.8284 43.5 63.5 42.8284 63.5 42C63.5 41.1716 62.8284 40.5 62 40.5L62 43.5ZM27.9393 40.9393C27.3536 41.5251 27.3536 42.4749 27.9393 43.0607L37.4853 52.6066C38.0711 53.1924 39.0208 53.1924 39.6066 52.6066C40.1924 52.0208 40.1924 51.0711 39.6066 50.4853L31.1213 42L39.6066 33.5147C40.1924 32.9289 40.1924 31.9792 39.6066 31.3934C39.0208 30.8076 38.0711 30.8076 37.4853 31.3934L27.9393 40.9393ZM62 40.5L29 40.5L29 43.5L62 43.5L62 40.5Z" fill="#440909"/>
</svg>
