<?xml version="1.0" standalone="no"?>
<!DOCTYPE svg PUBLIC "-//W3C//DTD SVG 1.1//EN" "http://www.w3.org/Graphics/SVG/1.1/DTD/svg11.dtd" >
<svg xmlns="http://www.w3.org/2000/svg" xmlns:xlink="http://www.w3.org/1999/xlink" version="1.1">
<metadata>
Created by FontForge 20170731 at Wed Nov  8 23:35:07 2023
 By Aleksey,,,
Copyright 2021 The Urbanist Project Authors (https://github.com/coreyhu/Urbanist)
</metadata>
<defs>
<font id="Urbanist-ExtraBold" horiz-adv-x="1146" >
  <font-face 
    font-family="Urbanist ExtraBold"
    font-weight="800"
    font-stretch="normal"
    units-per-em="2048"
    panose-1="0 0 0 0 0 0 0 0 0 0"
    ascent="1638"
    descent="-410"
    x-height="1024"
    cap-height="1434"
    bbox="-298 -512 3012 2152"
    underline-thickness="51"
    underline-position="-153"
    unicode-range="U+000D-FFFD"
  />
<missing-glyph horiz-adv-x="1024" 
d="M102 -512v2458h820v-2458h-820zM205 -410h614v2253h-614v-2253z" />
    <glyph glyph-name=".notdef" horiz-adv-x="1024" 
d="M102 -512v2458h820v-2458h-820zM205 -410h614v2253h-614v-2253z" />
    <glyph glyph-name=".null" horiz-adv-x="1228" 
 />
    <glyph glyph-name=".null" horiz-adv-x="1228" 
 />
    <glyph glyph-name="nonmarkingreturn" unicode="&#xd;" horiz-adv-x="1228" 
 />
    <glyph glyph-name="nonmarkingreturn" unicode="&#xfeff;" horiz-adv-x="1228" 
 />
    <glyph glyph-name="space" unicode=" " horiz-adv-x="491" 
 />
    <glyph glyph-name="exclam" unicode="!" horiz-adv-x="488" 
d="M105 430v1004h237v-1004h-237zM225 -27q-61 0 -102 41.5t-41 103.5q0 59 41 100t102 41q59 0 100 -41t41 -100q0 -61 -41 -103t-100 -42z" />
    <glyph glyph-name="quotedbl" unicode="&#x22;" horiz-adv-x="624" 
d="M63 899v535h191v-535h-191zM371 899v535h190v-535h-190z" />
    <glyph glyph-name="numbersign" unicode="#" horiz-adv-x="1630" 
d="M1475 883h-160l-90 -332h161l-73 -272h-160l-75 -279h-282l74 279h-346l-72 -279h-283l73 279h-160l74 272h159l91 332h-162l73 273h160l75 278h283l-75 -278h346l73 278h282l-72 -278h159zM942 551l90 332h-344l-90 -332h344z" />
    <glyph glyph-name="dollar" unicode="$" horiz-adv-x="1246" 
d="M624 1175q-101 2 -179.5 -44.5t-78.5 -113.5q0 -18 3 -33t11 -28t14.5 -22.5t22.5 -18.5t24.5 -14.5t31 -12t33 -9.5t38.5 -8t38 -6.5t42 -6.5q113 -17 208 -51.5t170.5 -87.5t118 -130.5t42.5 -172.5q0 -114 -60 -208t-160 -151.5t-224 -75.5v-210h-191v210
q-157 21 -278.5 103t-167.5 207l265 98q19 -54 97.5 -93.5t179.5 -39.5q103 0 180 45.5t77 114.5q0 120 -257 159q-122 18 -216 49.5t-169.5 83.5t-115.5 130t-40 179q0 115 60 209.5t160 152t225 75.5v209h191v-209q156 -21 278.5 -104t166.5 -210l-265 -97
q-19 54 -96.5 93t-178.5 39z" />
    <glyph glyph-name="percent" unicode="%" horiz-adv-x="1615" 
d="M410 793q-135 0 -231.5 94.5t-96.5 230.5q0 138 97 232t231 94t229.5 -95t95.5 -231q0 -137 -96.5 -231t-228.5 -94zM231 0l828 1434h325l-827 -1434h-326zM410 983q56 0 95.5 39t39.5 96t-39.5 96t-95.5 39q-57 0 -97.5 -39t-40.5 -96t40.5 -96t97.5 -39zM1206 -12
q-135 0 -230 97.5t-95 227.5q0 138 96.5 233t228.5 95q138 0 233 -98t95 -230q0 -134 -96.5 -229.5t-231.5 -95.5zM1206 178q57 0 97 39.5t40 95.5q0 57 -40 97.5t-97 40.5q-56 0 -95.5 -40.5t-39.5 -97.5q0 -55 39.5 -95t95.5 -40z" />
    <glyph glyph-name="ampersand" unicode="&#x26;" horiz-adv-x="1469" 
d="M530 -27q-124 0 -227.5 62t-162 165t-58.5 222q0 53 8.5 94.5t22.5 76.5t48 78t69 81.5t101 104.5q-79 79 -109.5 138t-30.5 143q0 145 100.5 243t238.5 98q141 0 241 -99t100 -242q0 -84 -31 -143t-110 -138l236 -235l268 269v-399l-69 -70l223 -222l-200 -200l-222 222
q-108 -108 -167 -155.5t-121 -70.5t-148 -23zM530 1014q14 13 33.5 32t26 25.5t16 17t12 17t4.5 16t2 21.5q0 43 -29.5 68.5t-64.5 25.5q-37 0 -65 -27.5t-28 -66.5q0 -12 2.5 -22t5.5 -17t13 -18.5t16.5 -18t25 -24t30.5 -29.5zM530 256q16 0 29.5 2.5t24 5t25 12t23 15.5
t27 23.5t29 28t36.5 37t42 42.5l-236 235q-19 -19 -50 -49.5t-41 -41t-28 -30.5t-23 -29t-12.5 -24.5t-9 -29t-1.5 -31.5q0 -71 49.5 -118.5t115.5 -47.5z" />
    <glyph glyph-name="quotesingle" unicode="'" horiz-adv-x="317" 
d="M63 899v535h191v-535h-191z" />
    <glyph glyph-name="parenleft" unicode="(" horiz-adv-x="812" 
d="M427 -115q-159 158 -231.5 344.5t-72.5 429.5q0 124 39 289t112 308.5t153 177.5h283q-64 -38 -136 -176.5t-120 -307.5t-48 -291q1 -219 91.5 -426t212.5 -348h-283z" />
    <glyph glyph-name="parenright" unicode=")" horiz-adv-x="812" 
d="M102 -115q123 141 213.5 348t91.5 426q0 122 -48.5 291t-120.5 307.5t-136 176.5h283q80 -34 153 -177.5t112 -308.5t39 -289q0 -244 -72.5 -430t-231.5 -344h-283z" />
    <glyph glyph-name="asterisk" unicode="*" horiz-adv-x="747" 
d="M262 850l-153 113l95 130l-153 49l58 182l154 -50v160h191v-160l152 50l60 -182l-155 -49l95 -130l-154 -113l-94 131z" />
    <glyph glyph-name="plus" unicode="+" horiz-adv-x="1187" 
d="M453 102v371h-371v283h371v370h282v-370h371v-283h-371v-371h-282z" />
    <glyph glyph-name="comma" unicode="," horiz-adv-x="550" 
d="M82 -115l63 346h283l-158 -346h-188z" />
    <glyph glyph-name="hyphen" unicode="-" horiz-adv-x="901" 
d="M123 756h655v-283h-655v283z" />
    <glyph glyph-name="period" unicode="." horiz-adv-x="490" 
d="M224 -27q-60 0 -101 41.5t-41 102.5q0 59 41 100.5t101 41.5q59 0 101.5 -42t42.5 -100q0 -60 -42 -102t-102 -42z" />
    <glyph glyph-name="slash" unicode="/" horiz-adv-x="862" 
d="M780 1434l-415 -1549h-283l416 1549h282z" />
    <glyph glyph-name="zero" unicode="0" horiz-adv-x="1243" 
d="M623 -27q-161 0 -290.5 100.5t-200.5 270t-71 373.5t71 373.5t200.5 269.5t290.5 100t290 -100t199 -269.5t70 -373.5t-70 -373.5t-199 -270t-290 -100.5zM623 256q97 0 165.5 66.5t99 168.5t30.5 226q0 198 -77.5 329.5t-217.5 131.5q-98 0 -167 -67t-99.5 -168.5
t-30.5 -225.5q0 -91 18.5 -172.5t54 -146.5t93.5 -103.5t131 -38.5z" />
    <glyph glyph-name="one" unicode="1" horiz-adv-x="716" 
d="M270 0v1151h-188l76 283h395v-1434h-283z" />
    <glyph glyph-name="two" unicode="2" horiz-adv-x="1187" 
d="M82 0v252q67 46 151 111.5t181.5 151t177.5 166.5t133 160.5t53 130.5q0 85 -59.5 145.5t-144.5 60.5t-145 -60.5t-60 -145.5h-283q0 135 66.5 247.5t178.5 176.5t243 64q132 0 244 -65t177.5 -177.5t65.5 -245.5q0 -56 -14 -111t-45.5 -112t-66.5 -107t-94 -115
t-109.5 -116t-130.5 -128h464v-283h-983z" />
    <glyph glyph-name="three" unicode="3" horiz-adv-x="1059" 
d="M529 -27q-194 0 -331 136.5t-137 329.5h283q0 -75 54 -129t131 -54q75 0 131 54.5t56 128.5q0 100 -79.5 151.5t-216.5 51.5v216q121 0 188.5 43t67.5 126q0 62 -45.5 107.5t-107.5 45.5q-66 0 -121 -46t-55 -107h-282q0 178 136.5 306.5t318.5 128.5q178 0 308 -127.5
t130 -307.5q0 -82 -35.5 -158.5t-98.5 -107.5q82 -31 128 -124.5t46 -197.5q0 -94 -37.5 -180.5t-100.5 -149t-149.5 -99.5t-181.5 -37z" />
    <glyph glyph-name="four" unicode="4" horiz-adv-x="1207" 
d="M690 0v330h-608v283l544 821h347v-822h111v-282h-111v-330h-283zM409 613l281 -1l-1 440z" />
    <glyph glyph-name="five" unicode="5" horiz-adv-x="1189" 
d="M570 -27q-138 0 -253 68t-180 182t-65 247h282q0 -89 63 -151.5t153 -62.5q89 0 151.5 62.5t62.5 151.5q0 220 -267 220h-375l157 744h715v-283h-486l-36 -178l79 -2q217 -8 356.5 -151t139.5 -350q0 -134 -66.5 -248t-181 -181.5t-249.5 -67.5z" />
    <glyph glyph-name="six" unicode="6" horiz-adv-x="1131" 
d="M559 -27q-137 0 -254 68t-185.5 186t-68.5 256q0 136 69 256l400 695h328l-260 -450q98 -3 187 -44t153.5 -107.5t103 -158t38.5 -191.5q0 -103 -40.5 -197.5t-108.5 -163t-163 -109t-199 -40.5zM559 256q96 0 162 68t66 157q0 95 -65.5 162t-160.5 67
q-98 0 -162.5 -68.5t-64.5 -160.5q0 -95 67.5 -160t157.5 -65z" />
    <glyph glyph-name="seven" unicode="7" horiz-adv-x="1135" 
d="M103 0l664 1151h-726v283h1054v-283l-666 -1151h-326z" />
    <glyph glyph-name="eight" unicode="8" horiz-adv-x="1127" 
d="M563 -27q-132 0 -242.5 61t-174.5 166t-64 230q0 92 38 176.5t107 147.5q-115 120 -115 278q0 117 60.5 215.5t164 155.5t226.5 57t227 -57t164.5 -156t60.5 -215q0 -158 -117 -278q71 -62 109.5 -146.5t38.5 -177.5q0 -189 -141.5 -323t-341.5 -134zM563 888
q64 0 109 42.5t45 101.5q0 60 -45 103t-109 43t-108.5 -43t-44.5 -103q0 -59 44.5 -101.5t108.5 -42.5zM563 256q76 0 130.5 51t54.5 123t-54.5 123.5t-130.5 51.5t-130.5 -51.5t-54.5 -123.5t54.5 -123t130.5 -51z" />
    <glyph glyph-name="nine" unicode="9" horiz-adv-x="1136" 
d="M276 0l265 455q-131 4 -241 71t-174.5 180.5t-64.5 246.5q0 137 68 253.5t185 185t256 68.5q135 0 251.5 -68t185 -185t68.5 -254q0 -138 -68 -255l-403 -698h-328zM568 729q97 0 161 67t64 158q0 94 -67 159t-156 65q-96 0 -161 -68t-65 -156q0 -93 65 -159t159 -66z
" />
    <glyph glyph-name="colon" unicode=":" horiz-adv-x="490" 
d="M224 738q-60 0 -101 41.5t-41 102.5q0 59 41 100.5t101 41.5q59 0 101.5 -42t42.5 -100q0 -60 -42 -102t-102 -42zM224 -27q-60 0 -101 41.5t-41 102.5q0 59 41 100.5t101 41.5q59 0 101.5 -42t42.5 -100q0 -60 -42 -102t-102 -42z" />
    <glyph glyph-name="semicolon" unicode=";" horiz-adv-x="551" 
d="M287 738q-60 0 -102 41.5t-42 101.5q0 59 42 101t102 42q59 0 100.5 -42t41.5 -101q0 -60 -41.5 -101.5t-100.5 -41.5zM82 -115l63 346h283l-158 -346h-188z" />
    <glyph glyph-name="less" unicode="&#x3c;" horiz-adv-x="1187" 
d="M1106 86l-1024 291v473l1024 293v-295l-821 -234l821 -234v-294z" />
    <glyph glyph-name="equal" unicode="=" horiz-adv-x="1187" 
d="M82 697v283h1024v-283h-1024zM82 249v282h1024v-282h-1024z" />
    <glyph glyph-name="greater" unicode="&#x3e;" horiz-adv-x="1187" 
d="M82 97v294l821 223l-821 224v294l1024 -282v-473z" />
    <glyph glyph-name="question" unicode="?" horiz-adv-x="1167" 
d="M436 422q0 121 60.5 222t167.5 159q45 25 71.5 72.5t26.5 105.5q0 82 -58.5 139.5t-140.5 57.5q-83 0 -140.5 -57.5t-57.5 -139.5h-283q0 130 64.5 240.5t175.5 174.5t241 64t241 -64t175.5 -174.5t64.5 -240.5q0 -136 -66 -251t-181 -176q-37 -20 -57.5 -54.5
t-20.5 -77.5h-283zM591 -27q-60 0 -102 42t-42 103q0 59 42 100t102 41q59 0 100 -41t41 -100q0 -61 -41 -103t-100 -42z" />
    <glyph glyph-name="at" unicode="@" horiz-adv-x="1910" 
d="M955 -278q-179 0 -340 64t-278 174.5t-186 267.5t-69 335t69 340t186 279t278.5 186.5t339.5 69.5q179 0 341 -69.5t278.5 -187.5t185.5 -279.5t69 -338.5q0 -140 -43 -261.5t-132 -201.5t-206 -80q-64 0 -131 27.5t-117 75t-62 100.5q-83 -67 -203 -67
q-168 0 -287.5 119.5t-119.5 287.5q0 169 119.5 288.5t287.5 119.5q57 0 119.5 -15t97.5 -40v33l209 -46v-525q0 -35 18 -55t51 -20q30 0 53.5 27.5t36.5 69.5t19.5 84t6.5 79q0 161 -80 298t-216 215.5t-295 78.5q-119 0 -228.5 -46.5t-188.5 -125.5t-126 -189t-47 -231
q0 -160 79 -288.5t213.5 -199t297.5 -70.5v-283zM959 364q82 0 138.5 59t56.5 142q0 82 -56 140t-139 58t-141 -58t-58 -142q0 -83 58 -141t141 -58z" />
    <glyph glyph-name="A" unicode="A" horiz-adv-x="1525" 
d="M602 1434h322l520 -1434h-300l-86 238h-590l-86 -238h-300zM571 520h383l-192 526z" />
    <glyph glyph-name="B" unicode="B" horiz-adv-x="1220" 
d="M123 0v1434h533q178 0 296 -108t118 -283q0 -82 -33.5 -155t-104.5 -104q52 -13 90.5 -46t60 -73t35 -91.5t17.5 -93.5t4 -87q0 -165 -124.5 -279t-300.5 -114h-591zM406 889h218q69 0 116 44t47 113q0 68 -46.5 107t-116.5 39h-218v-303zM406 241h278q86 0 145 59.5
t59 150.5q0 78 -60.5 139.5t-143.5 61.5h-278v-411z" />
    <glyph glyph-name="C" unicode="C" horiz-adv-x="1452" 
d="M786 -27q-191 0 -353.5 100t-256.5 271t-94 373q0 152 55.5 289.5t150 237t225 158t273.5 58.5q170 0 317.5 -79t246.5 -216l-252 -136q-59 69 -140.5 109t-171.5 40q-115 0 -212 -62t-153 -168t-56 -231q0 -124 56.5 -230.5t153.5 -168.5t211 -62q91 0 172.5 40
t139.5 110l252 -138q-99 -137 -246.5 -216t-317.5 -79z" />
    <glyph glyph-name="D" unicode="D" horiz-adv-x="1376" 
d="M123 0v1434h475q145 0 278 -57t229 -153t153 -229t57 -278t-57 -278t-153 -229t-229 -153t-278 -57h-475zM406 283h192q178 0 306 127t128 307q0 179 -128 306.5t-306 127.5h-192v-868z" />
    <glyph glyph-name="E" unicode="E" horiz-adv-x="1132" 
d="M123 0v1434h907v-283h-624v-242h487v-282h-487v-344h624v-283h-907z" />
    <glyph glyph-name="F" unicode="F" horiz-adv-x="993" 
d="M123 0v1434h850v-283h-567v-242h468v-282h-468v-627h-283z" />
    <glyph glyph-name="G" unicode="G" horiz-adv-x="1573" 
d="M786 -27q-147 0 -278.5 59.5t-224 160t-147 238t-54.5 288.5q0 159 59.5 298.5t158 235t227.5 150.5t266 55q157 0 301.5 -73.5t255.5 -221.5l-252 -135q-131 150 -310 150q-170 0 -296.5 -133t-126.5 -332q0 -190 125 -323.5t301 -133.5q111 0 209.5 63.5t157.5 182.5
h-222v246h555q6 -156 -47.5 -299t-148 -247.5t-228 -166.5t-281.5 -62z" />
    <glyph glyph-name="H" unicode="H" horiz-adv-x="1355" 
d="M950 1434h283v-1434h-283v627h-544v-627h-283v1434h283v-525h544v525z" />
    <glyph glyph-name="I" unicode="I" horiz-adv-x="589" 
d="M154 0v1434h282v-1434h-282z" />
    <glyph glyph-name="J" unicode="J" horiz-adv-x="935" 
d="M342 -27q-173 0 -301 110l181 217q52 -44 120 -44q77 0 132.5 56.5t55.5 133.5v988h283v-988q0 -127 -63 -236t-171.5 -173t-236.5 -64z" />
    <glyph glyph-name="K" unicode="K" horiz-adv-x="1233" 
d="M1209 0h-368l-382 537l-53 -64v-473h-283v1434h283v-522l436 522h368l-567 -676z" />
    <glyph glyph-name="L" unicode="L" horiz-adv-x="1085" 
d="M123 0v1434h283v-1151h577v-283h-860z" />
    <glyph glyph-name="M" unicode="M" horiz-adv-x="1946" 
d="M123 0l278 1434h239l333 -878l334 878h238l279 -1434h-289l-159 822l-306 -808h-194l-306 808l-159 -822h-288z" />
    <glyph glyph-name="N" unicode="N" horiz-adv-x="1392" 
d="M123 0v1434h305l559 -923v923h283v-1434h-305l-559 923v-923h-283z" />
    <glyph glyph-name="O" unicode="O" horiz-adv-x="1576" 
d="M788 -27q-143 0 -274 59t-225.5 158.5t-150.5 237.5t-56 289t56 288.5t150.5 237t225.5 158.5t274 59q191 0 354 -99.5t258 -270.5t95 -373q0 -151 -56 -289t-151 -237.5t-226 -158.5t-274 -59zM788 256q115 0 212.5 62t154.5 168.5t57 230.5q0 190 -125 325.5
t-299 135.5q-115 0 -212.5 -62t-154 -168.5t-56.5 -230.5t57 -230.5t154.5 -168.5t211.5 -62z" />
    <glyph glyph-name="P" unicode="P" horiz-adv-x="1153" 
d="M123 0v1434h528q86 0 164 -35t134 -94t89 -139.5t33 -167.5q0 -180 -124.5 -307.5t-295.5 -127.5h-245v-563h-283zM406 846h214q70 0 119 50.5t49 122.5q0 71 -49 122t-119 51h-214v-346z" />
    <glyph glyph-name="Q" unicode="Q" horiz-adv-x="1616" 
d="M1335 -49l-156 154q-173 -124 -391 -124q-143 0 -274 58.5t-225.5 158t-150.5 237t-56 289.5q0 151 56 288.5t150.5 237t225.5 158.5t274 59q191 0 354 -99.5t258 -270.5t95 -373q0 -221 -120 -414l160 -159zM788 263q102 0 186 49l-106 106l200 199l96 -96q48 94 48 203
q0 190 -125 325.5t-299 135.5q-115 0 -212.5 -62t-154 -168.5t-56.5 -230.5q0 -191 124.5 -326t298.5 -135z" />
    <glyph glyph-name="R" unicode="R" horiz-adv-x="1272" 
d="M123 0v1434h569q175 0 296.5 -128t121.5 -308q0 -139 -71 -248t-192 -161l341 -589h-326l-326 563h-130v-563h-283zM406 846h252q70 0 119.5 50.5t49.5 122.5q0 71 -49.5 122t-119.5 51h-252v-346z" />
    <glyph glyph-name="S" unicode="S" horiz-adv-x="1287" 
d="M644 -27q-185 0 -336.5 86.5t-205.5 231.5l266 98q19 -54 97 -93.5t179 -39.5q103 0 180 45.5t77 114.5q0 120 -257 159q-122 18 -216 49.5t-169.5 83.5t-115.5 130t-40 179q0 129 75.5 231t198.5 156.5t267 54.5q185 0 336.5 -86t204.5 -233l-265 -97q-19 54 -97 93
t-179 39q-101 2 -179.5 -44.5t-78.5 -113.5q0 -18 3 -33t11 -28t14.5 -22.5t22.5 -18.5t24.5 -14.5t31 -12t33 -9.5t38.5 -8t38 -6.5t42 -6.5q113 -17 208 -51.5t171 -87.5t118.5 -130.5t42.5 -172.5q0 -129 -74.5 -231.5t-197.5 -157t-268 -54.5z" />
    <glyph glyph-name="T" unicode="T" horiz-adv-x="1290" 
d="M1208 1434v-283h-422v-1151h-282v1151h-422v283h1126z" />
    <glyph glyph-name="U" unicode="U" horiz-adv-x="1402" 
d="M702 -27q-168 0 -301.5 84t-205.5 226.5t-72 314.5v836h283v-836q0 -146 80 -244t216 -98q138 0 216.5 97.5t78.5 244.5v836h283v-836q0 -172 -72 -314.5t-205 -226.5t-301 -84z" />
    <glyph glyph-name="V" unicode="V" horiz-adv-x="1592" 
d="M614 0l-520 1434h300l403 -1107l402 1107h299l-520 -1434h-364z" />
    <glyph glyph-name="W" unicode="W" horiz-adv-x="1965" 
d="M461 0l-367 1434h292l234 -917l233 917h259l234 -917l233 917h292l-365 -1434h-319l-204 797l-203 -797h-319z" />
    <glyph glyph-name="X" unicode="X" horiz-adv-x="1521" 
d="M61 0l525 721l-518 713h348l345 -473l345 473h348l-518 -713l524 -721h-350l-349 479l-349 -479h-351z" />
    <glyph glyph-name="Y" unicode="Y" horiz-adv-x="1396" 
d="M1001 1434h334l-495 -788v-646h-283v646l-496 788h334l303 -481z" />
    <glyph glyph-name="Z" unicode="Z" horiz-adv-x="1323" 
d="M82 0v283l777 868h-777v283h1159v-283l-777 -868h777v-283h-1159z" />
    <glyph glyph-name="bracketleft" unicode="[" horiz-adv-x="688" 
d="M586 168v-283h-463v1549h463v-283h-180v-983h180z" />
    <glyph glyph-name="backslash" unicode="\" horiz-adv-x="860" 
d="M496 -115l-414 1549h283l413 -1549h-282z" />
    <glyph glyph-name="bracketright" unicode="]" horiz-adv-x="690" 
d="M102 -115v283h183v983h-183v283h465v-1549h-465z" />
    <glyph glyph-name="asciicircum" unicode="^" horiz-adv-x="1036" 
d="M82 1024l242 666h389l241 -666h-301l-135 372l-135 -372h-301z" />
    <glyph glyph-name="underscore" unicode="_" horiz-adv-x="1269" 
d="M123 168h1024v-283h-1024v283z" />
    <glyph glyph-name="grave" unicode="`" horiz-adv-x="1142" 
d="M315 1432h283l82 -295h-188z" />
    <glyph glyph-name="a" unicode="a" horiz-adv-x="1239" 
d="M874 1024h283v-1024h-284l-13 106q-88 -133 -249 -133q-150 0 -276.5 74t-200 201t-73.5 277q0 143 70 264.5t191 192.5t264 71q168 0 301 -142zM604 245q104 0 176 78t72 189t-71.5 189t-176.5 78q-106 0 -179.5 -78t-73.5 -189t74.5 -189t178.5 -78z" />
    <glyph glyph-name="b" unicode="b" horiz-adv-x="1281" 
d="M680 1053q147 0 271 -72.5t196.5 -196.5t72.5 -270q0 -147 -72.5 -271.5t-196.5 -197t-271 -72.5q-163 0 -274 138v-111h-283v1536h283v-621q111 138 274 138zM676 247q105 0 179.5 78t74.5 189q0 110 -74.5 188.5t-179.5 78.5q-103 0 -174.5 -78.5t-71.5 -188.5
q0 -111 71.5 -189t174.5 -78z" />
    <glyph glyph-name="c" unicode="c" horiz-adv-x="1044" 
d="M729 324l254 -138q-72 -99 -179 -156t-231 -57q-139 0 -257 72.5t-186.5 196.5t-68.5 270q0 147 68.5 271.5t186.5 197t257 72.5q124 0 231 -57.5t179 -157.5l-254 -138q-65 70 -156 70q-96 0 -162.5 -77t-66.5 -181q0 -103 66.5 -179.5t162.5 -76.5q88 0 156 68z" />
    <glyph glyph-name="d" unicode="d" horiz-adv-x="1281" 
d="M876 1536h282v-1536h-282v109q-110 -136 -276 -136q-146 0 -270 72.5t-196.5 196.5t-72.5 270t72.5 270t196.5 196.5t270 72.5q167 0 276 -136v621zM604 245q104 0 176 78t72 189t-71.5 189t-176.5 78q-106 0 -179.5 -78t-73.5 -189t74.5 -189t178.5 -78z" />
    <glyph glyph-name="e" unicode="e" 
d="M573 -27q-139 0 -257 72.5t-186.5 196.5t-68.5 271t68.5 271t186.5 196.5t257 72.5q119 0 222.5 -53.5t171.5 -140.5t99 -203.5t11 -237.5h-710q22 -72 74.5 -116.5t131.5 -45.5q106 -1 176 93l288 -66q-64 -139 -188.5 -224.5t-275.5 -85.5zM356 627h436q-21 78 -82 129
t-137 51q-75 0 -135.5 -51t-81.5 -129z" />
    <glyph glyph-name="f" unicode="f" horiz-adv-x="765" 
d="M436 1223v-199h272v-283h-272v-741h-282v741h-103v283h103v199q0 139 100 238.5t240 99.5q151 0 254 -116l-203 -200q-6 16 -21 24.5t-30 8.5q-24 0 -41 -16t-17 -39z" />
    <glyph glyph-name="g" unicode="g" horiz-adv-x="1271" 
d="M866 1024h283v-1038q0 -111 -46.5 -205.5t-125 -158t-182 -99t-217.5 -35.5q-161 0 -300 92.5t-204 239.5l258 118q31 -75 99 -120t147 -45q119 0 203.5 56.5t84.5 156.5v118q-104 -131 -269 -131q-145 0 -268.5 72.5t-195.5 196.5t-72 270t72 270t195.5 196.5
t268.5 72.5q165 0 269 -131v104zM601 245q104 0 175.5 78t71.5 189t-71.5 189t-175.5 78q-103 0 -176.5 -78t-73.5 -189t73.5 -189t176.5 -78z" />
    <glyph glyph-name="h" unicode="h" horiz-adv-x="1156" 
d="M1074 651v-651h-282v573q0 80 -57 136.5t-136 56.5q-80 0 -136 -56t-56 -137v-573h-283l-1 1536h283l1 -588q111 105 266 105q166 0 283.5 -117.5t117.5 -284.5z" />
    <glyph glyph-name="i" unicode="i" horiz-adv-x="528" 
d="M265 1142q-62 0 -103 40.5t-41 101.5q0 60 41.5 101t102.5 41q60 0 102 -41t42 -101q0 -61 -41 -101.5t-103 -40.5zM123 1024h283v-1024h-283v1024z" />
    <glyph glyph-name="j" unicode="j" horiz-adv-x="513" 
d="M250 1142q-62 0 -103.5 40.5t-41.5 101.5q0 60 42 101t103 41q60 0 101.5 -41t41.5 -101q0 -61 -40.5 -101.5t-102.5 -40.5zM-82 -512v283q78 0 134 55t56 133v1065h282v-1065q0 -195 -137.5 -333t-334.5 -138z" />
    <glyph glyph-name="k" unicode="k" horiz-adv-x="1124" 
d="M1073 0h-325l-218 374l-124 -149v-225h-283v1536h283v-871l301 359h368l-351 -421z" />
    <glyph glyph-name="l" unicode="l" horiz-adv-x="528" 
d="M123 0v1536h283v-1536h-283z" />
    <glyph glyph-name="m" unicode="m" horiz-adv-x="1819" 
d="M123 0v1024h283v-76q113 105 266 105q102 0 190 -47.5t143 -128.5q55 81 142 128.5t189 47.5q166 0 284 -117.5t118 -284.5v-651h-283v573q0 79 -56 136t-135 57q-80 0 -136.5 -56t-56.5 -137v-573h-283v573q0 81 -55.5 137t-135.5 56q-79 0 -135 -57t-56 -136v-573h-283
z" />
    <glyph glyph-name="n" unicode="n" horiz-adv-x="1156" 
d="M1074 651v-651h-282v573q0 80 -57 136.5t-136 56.5q-80 0 -136 -56t-56 -137v-573h-283l-1 1024h283l1 -76q111 105 266 105q166 0 283.5 -117.5t117.5 -284.5z" />
    <glyph glyph-name="o" unicode="o" 
d="M573 -27q-139 0 -257 72.5t-186.5 196.5t-68.5 270q0 147 68.5 271.5t186.5 197t257 72.5t257 -72.5t186.5 -197t68.5 -271.5q0 -146 -68.5 -270t-186.5 -196.5t-257 -72.5zM573 256q96 0 163 75.5t67 180.5q0 106 -68 182t-162 76q-96 0 -162.5 -76.5t-66.5 -181.5
q0 -107 67.5 -181.5t161.5 -74.5z" />
    <glyph glyph-name="p" unicode="p" horiz-adv-x="1280" 
d="M406 -512h-283v1536h283v-111q111 138 274 138q147 0 271 -72.5t196 -196.5t72 -270q0 -147 -72 -271.5t-196 -197t-271 -72.5q-163 0 -274 138v-621zM676 779q-103 0 -174.5 -78.5t-71.5 -188.5q0 -111 71 -189t175 -78q105 0 179.5 78t74.5 189q0 110 -74.5 188.5
t-179.5 78.5z" />
    <glyph glyph-name="q" unicode="q" horiz-adv-x="1280" 
d="M600 -29q-146 0 -270 72.5t-196.5 197t-72.5 271.5q0 146 72.5 270t196.5 196.5t270 72.5q163 0 274 -138v111h283v-1536h-283v621q-111 -138 -274 -138zM604 779q-105 0 -179 -78.5t-74 -188.5q0 -111 74 -189t179 -78q104 0 175 78t71 189t-71 189t-175 78z" />
    <glyph glyph-name="r" unicode="r" horiz-adv-x="805" 
d="M124 0l-1 1024h283l1 -76q111 105 266 105q51 0 112 -17l-111 -285q-34 15 -75 15q-80 0 -136 -56t-56 -137v-573h-283z" />
    <glyph glyph-name="s" unicode="s" horiz-adv-x="892" 
d="M421 -18q-123 9 -223.5 66t-146.5 153l238 102q23 -32 65 -57.5t99 -25.5q53 0 90.5 20t37.5 61q0 22 -11.5 38t-35.5 26t-40.5 14.5t-47.5 10.5q-7 1 -10 2q-99 17 -179 58t-133 112.5t-53 160.5q0 150 113 243t271 93q121 0 222.5 -50.5t164.5 -141.5l-224 -132
q-22 31 -60 55t-80 28q-65 5 -104 -16t-39 -72q0 -24 19.5 -40.5t40.5 -23t57.5 -15t49.5 -12.5q56 -18 104.5 -39.5t93.5 -52t76 -65.5t49 -80.5t16 -96.5q0 -98 -60 -176.5t-156.5 -117t-203.5 -29.5z" />
    <glyph glyph-name="t" unicode="t" horiz-adv-x="741" 
d="M680 741h-184v-741h-283v741h-141v283h141v322h283v-322h184v-283z" />
    <glyph glyph-name="u" unicode="u" horiz-adv-x="1115" 
d="M82 375v649h283v-571q0 -81 56.5 -137t135.5 -56q80 0 136.5 56t56.5 137v571h282l1 -1024h-282l-1 78q-113 -105 -267 -105q-166 0 -283.5 117.5t-117.5 284.5z" />
    <glyph glyph-name="v" unicode="v" horiz-adv-x="1233" 
d="M800 0h-366l-373 1024h301l254 -699l254 699h302z" />
    <glyph glyph-name="w" unicode="w" horiz-adv-x="1771" 
d="M682 0h-279l-342 1024h277l206 -613l204 613h276l204 -613l205 613h277l-343 -1024h-277l-204 614z" />
    <glyph glyph-name="x" unicode="x" horiz-adv-x="1261" 
d="M82 0l375 514l-371 510h348l196 -268l197 268h350l-372 -510l375 -514h-349l-201 274l-200 -274h-348z" />
    <glyph glyph-name="y" unicode="y" horiz-adv-x="1208" 
d="M825 1024h301l-561 -1536h-299l185 512l-369 1024h309l201 -638z" />
    <glyph glyph-name="z" unicode="z" horiz-adv-x="1038" 
d="M956 741l-466 -458h466v-283h-874v283l466 458h-466v283h874v-283z" />
    <glyph glyph-name="braceleft" unicode="{" horiz-adv-x="845" 
d="M623 -115q-149 0 -254 105t-105 254v250q0 23 -22.5 43t-48.5 33.5t-48 36.5t-22 52q0 27 22 50.5t48 38.5t48.5 35t22.5 40v252q0 148 105 253.5t254 105.5h120v-283h-120q-31 0 -53.5 -22.5t-22.5 -53.5v-261q-2 -36 -43.5 -83t-46.5 -72q6 -29 47 -73.5t43 -80.5v-261
q0 -32 22.5 -54t53.5 -22h120v-283h-120z" />
    <glyph glyph-name="bar" unicode="|" horiz-adv-x="569" 
d="M143 1434h283v-1743h-283v1743z" />
    <glyph glyph-name="braceright" unicode="}" horiz-adv-x="845" 
d="M102 -115v283h121q31 0 53.5 22t22.5 54v261q2 36 43 80.5t47 73.5q-5 25 -46.5 72t-43.5 83v261q0 31 -22.5 53.5t-53.5 22.5h-121v283h121q149 0 254 -105.5t105 -253.5v-252q0 -20 22.5 -40t48.5 -35t48 -38.5t22 -50.5q0 -29 -22 -52t-48 -36.5t-48.5 -33.5
t-22.5 -43v-250q0 -149 -105 -254t-254 -105h-121z" />
    <glyph glyph-name="asciitilde" unicode="~" horiz-adv-x="1361" 
d="M1005 399q-60 0 -145 26t-155.5 57t-148 57t-124.5 26q-40 0 -57 -29.5t-14 -71.5l-276 6q-13 92 26.5 175t117.5 133.5t173 50.5q60 0 137 -27t138 -59.5t131 -59.5t118 -27q40 0 57.5 29t15.5 76l278 -6q21 -145 -55 -250.5t-217 -105.5z" />
    <glyph glyph-name="uni00A0" unicode="&#xa0;" horiz-adv-x="491" 
 />
    <glyph glyph-name="exclamdown" unicode="&#xa1;" horiz-adv-x="484" 
d="M223 1051q60 0 101.5 -42t41.5 -103q0 -59 -41.5 -100t-101.5 -41q-59 0 -100 41t-41 100q0 61 41 103t100 42zM342 594v-1004h-237v1004h237z" />
    <glyph glyph-name="cent" unicode="&#xa2;" horiz-adv-x="1118" 
d="M501 0v212q-180 35 -299.5 177.5t-119.5 329.5q0 186 119.5 329t299.5 176v210h190v-210q108 -20 198 -83t147 -156l-244 -141q-32 49 -85 77.5t-111 28.5q-94 0 -162.5 -68t-68.5 -163q0 -97 68 -165.5t163 -68.5q58 0 111 29t85 78l244 -141q-57 -93 -147 -156
t-198 -83v-212h-190z" />
    <glyph glyph-name="sterling" unicode="&#xa3;" horiz-adv-x="1234" 
d="M106 0v283q68 0 134.5 20t106 61t18.5 92h-259v190h114q-138 157 -138 280q0 144 72 267t195 195t267 72q145 0 269 -71.5t196 -194.5t72 -268h-283q0 104 -74.5 178t-179.5 74q-103 0 -177 -74t-74 -178q0 -23 4.5 -45.5t9 -38.5t18 -38.5t19 -32.5t26 -34t25.5 -29.5
t30.5 -32t28.5 -29.5h375v-190h-256q10 -42 10 -79q0 -26 -9 -53.5t-18 -40.5h501v-283h-1023z" />
    <glyph glyph-name="currency" unicode="&#xa4;" horiz-adv-x="1064" 
d="M217 266l-135 135l134 135q-49 84 -48.5 181t50.5 181l-136 136l135 133l134 -134q82 48 182 48.5t183 -46.5l134 132l133 -133l-132 -132q52 -85 52 -185.5t-50 -185.5l130 -130l-133 -135l-130 130q-88 -50 -186.5 -49.5t-184.5 51.5zM536 538q73 2 124.5 53t51.5 125
q0 76 -52 125t-124 51q-75 1 -127 -52.5t-52 -123.5q0 -74 53 -126.5t126 -51.5z" />
    <glyph glyph-name="yen" unicode="&#xa5;" horiz-adv-x="1400" 
d="M559 0v137h-231v191h231v82h-231v190h231v46l-496 788h334l303 -481l304 481h333l-495 -788v-46h231v-190h-231v-82h231v-191h-231v-137h-283z" />
    <glyph glyph-name="brokenbar" unicode="&#xa6;" horiz-adv-x="528" 
d="M123 1434h283v-768h-283v768zM123 459h283v-768h-283v768z" />
    <glyph glyph-name="section" unicode="&#xa7;" horiz-adv-x="1136" 
d="M555 -372q-121 0 -222.5 50.5t-164.5 141.5l223 132q22 -31 60 -55t80 -28q65 -5 104.5 16t39.5 72q0 24 -16 41.5t-46 27t-51.5 14t-53.5 8.5q-106 13 -195.5 81.5t-139.5 170.5t-50 212q0 106 45 200t121 156q-91 75 -91 191q0 101 54 179t141 118t189 40
q121 0 222.5 -50.5t164.5 -141.5l-224 -132q-22 31 -60 55t-80 28q-65 5 -104 -16t-39 -72q0 -11 3 -20.5t10 -16.5t14 -13t19.5 -11t21 -8t24 -6.5t23.5 -5t25 -4.5t22 -4q174 -33 282 -160t108 -306q0 -106 -45 -199t-123 -156q93 -76 93 -192q0 -101 -54 -179t-141 -118
t-189 -40zM582 294q73 0 128.5 67t55.5 150q0 98 -59.5 158.5t-158.5 60.5q-66 0 -121.5 -69.5t-55.5 -148.5q0 -93 58.5 -155.5t152.5 -62.5z" />
    <glyph glyph-name="dieresis" unicode="&#xa8;" horiz-adv-x="1538" 
d="M555 1093q-62 0 -103.5 40.5t-41.5 101.5q0 60 42 101.5t103 41.5q60 0 101 -41.5t41 -101.5q0 -61 -41 -101.5t-101 -40.5zM986 1093q-62 0 -103.5 40.5t-41.5 101.5q0 60 42 101.5t103 41.5q60 0 101 -41.5t41 -101.5q0 -61 -41 -101.5t-101 -40.5z" />
    <glyph glyph-name="copyright" unicode="&#xa9;" horiz-adv-x="1984" 
d="M991 -358q-185 0 -353.5 71.5t-290 193t-193.5 290t-72 354.5q0 185 72 353.5t193.5 290t290 193.5t353.5 72q186 0 354.5 -71.5t291 -193t194.5 -290t72 -354.5q0 -149 -46 -288t-130.5 -250.5t-196.5 -195.5t-251 -129.5t-288 -45.5zM991 -76q174 0 319 85.5
t227.5 229.5t82.5 312q0 127 -49.5 242.5t-133.5 200t-200.5 134.5t-245.5 50q-173 0 -317.5 -85.5t-226.5 -229.5t-82 -312q0 -174 85.5 -318.5t229 -226.5t311.5 -82zM1148 362l254 -137q-72 -99 -179 -156t-231 -57q-139 0 -257 72.5t-186.5 196.5t-68.5 270
q0 147 68.5 271.5t186.5 197t257 72.5q124 0 231 -57.5t179 -157.5l-254 -138q-65 70 -156 70q-96 0 -162.5 -77t-66.5 -181q0 -103 67 -179.5t162 -76.5q91 0 156 67z" />
    <glyph glyph-name="ordfeminine" unicode="&#xaa;" horiz-adv-x="1239" 
d="M874 1024h283v-1024h-284l-13 106q-88 -133 -249 -133q-150 0 -276.5 74t-200 201t-73.5 277q0 143 70 264.5t191 192.5t264 71q168 0 301 -142zM604 245q104 0 176 78t72 189t-71.5 189t-176.5 78q-106 0 -179.5 -78t-73.5 -189t74.5 -189t178.5 -78z" />
    <glyph glyph-name="guillemotleft" unicode="&#xab;" horiz-adv-x="1253" 
d="M430 267l-307 348l307 347h285l-305 -347l305 -348h-285zM866 267l-307 348l307 347h285l-305 -347l305 -348h-285z" />
    <glyph glyph-name="logicalnot" unicode="&#xac;" horiz-adv-x="1062" 
d="M698 288v370h-616v283h899v-653h-283z" />
    <glyph glyph-name="uni00AD" unicode="&#xad;" horiz-adv-x="905" 
d="M127 756h655v-283h-655v283z" />
    <glyph glyph-name="registered" unicode="&#xae;" horiz-adv-x="1191" 
d="M595 388q-109 0 -207.5 42.5t-170 114t-114 171t-42.5 208.5q0 145 71.5 267.5t194.5 194t268 71.5q147 0 271 -73t194 -195.5t70 -264.5q0 -147 -72.5 -270.5t-195.5 -194.5t-267 -71zM595 588q139 0 237.5 98t98.5 238q0 138 -98.5 235.5t-237.5 97.5
q-138 0 -236 -97.5t-98 -235.5q0 -139 98 -237.5t236 -98.5zM450 717v444h174q57 0 96.5 -41.5t39.5 -100.5q0 -39 -19 -72.5t-51 -51.5l105 -178h-124l-94 160h-20v-160h-107zM557 984h67q11 0 19.5 10.5t8.5 24.5t-8.5 24.5t-19.5 10.5h-67v-70z" />
    <glyph glyph-name="macron" unicode="&#xaf;" horiz-adv-x="1228" 
d="M268 1372h693v-209h-693v209z" />
    <glyph glyph-name="degree" unicode="&#xb0;" horiz-adv-x="1001" 
d="M502 688q-87 0 -165.5 34.5t-134 91.5t-88 133.5t-32.5 158.5q0 171 123 294.5t297 123.5q117 0 214 -58.5t150.5 -154t53.5 -205.5q0 -177 -123.5 -297.5t-294.5 -120.5zM502 971q56 0 95.5 39t39.5 96t-39.5 96t-95.5 39q-57 0 -97 -39t-40 -96t40 -96t97 -39z" />
    <glyph glyph-name="plusminus" unicode="&#xb1;" horiz-adv-x="1187" 
d="M453 399v371h-371v283h371v370h282v-370h371v-283h-371v-371h-282zM82 0v283h1024v-283h-1024z" />
    <glyph glyph-name="uni00B2" unicode="&#xb2;" horiz-adv-x="738" 
d="M98 838v142q22 15 70.5 45.5t78.5 51.5t68.5 51.5t66.5 65.5t47 74q0 35 -24 59.5t-59 24.5t-60.5 -24.5t-25.5 -59.5h-162q0 101 72.5 168t175.5 67t174 -67t71 -168q0 -47 -31.5 -97.5t-58 -76t-89.5 -79.5q-12 -11 -18 -16h187v-161h-483z" />
    <glyph glyph-name="uni00B3" unicode="&#xb3;" horiz-adv-x="596" 
d="M300 817q-94 0 -160 61t-66 154h162q0 -27 18.5 -45t45.5 -18q26 0 43.5 18t17.5 45q0 35 -31 62.5t-86 27.5v105q54 0 77 23t23 54q0 20 -14.5 34t-34.5 14t-34 -14t-14 -34h-163q0 87 61 143t150 56t150 -56t61 -143q0 -72 -41 -125q58 -58 58 -147q0 -92 -65.5 -153.5
t-157.5 -61.5z" />
    <glyph glyph-name="acute" unicode="&#xb4;" horiz-adv-x="1142" 
d="M463 1137l82 295h282l-176 -295h-188z" />
    <glyph glyph-name="uni00B5" unicode="&#xb5;" horiz-adv-x="1185" 
d="M82 -442v1466h283v-517q0 -111 66.5 -186.5t170.5 -75.5q102 0 160.5 74.5t58.5 187.5v517h283v-1024h-283v105q-112 -134 -268 -134q-101 0 -188 51v-464h-283z" />
    <glyph glyph-name="paragraph" unicode="&#xb6;" 
d="M430 -309v1044q-145 0 -246.5 102t-101.5 248q0 145 101.5 247t246.5 102h283v-1743h-283zM782 -309v1743h283v-1743h-283z" />
    <glyph glyph-name="periodcentered" unicode="&#xb7;" horiz-adv-x="449" 
d="M224 472q-60 0 -101 41t-41 101q0 59 41.5 101.5t100.5 42.5t101.5 -42.5t42.5 -101.5q0 -60 -42 -101t-102 -41z" />
    <glyph glyph-name="cedilla" unicode="&#xb8;" horiz-adv-x="1327" 
d="M643 -388q-75 -20 -143 19t-88 114l139 38q5 -18 20.5 -27t34.5 -5q18 4 27 20.5t5 34.5q-10 34 -55 32l-142 -2l150 264l126 -73l-38 -65q77 -36 98 -119q20 -75 -19 -143t-115 -88z" />
    <glyph glyph-name="uni00B9" unicode="&#xb9;" horiz-adv-x="471" 
d="M161 838v484h-63l24 162h202v-646h-163z" />
    <glyph glyph-name="ordmasculine" unicode="&#xba;" 
d="M573 -27q-139 0 -257 72.5t-186.5 196.5t-68.5 270q0 147 68.5 271.5t186.5 197t257 72.5t257 -72.5t186.5 -197t68.5 -271.5q0 -146 -68.5 -270t-186.5 -196.5t-257 -72.5zM573 256q96 0 163 75.5t67 180.5q0 106 -68 182t-162 76q-96 0 -162.5 -76.5t-66.5 -181.5
q0 -107 67.5 -181.5t161.5 -74.5z" />
    <glyph glyph-name="guillemotright" unicode="&#xbb;" horiz-adv-x="1273" 
d="M539 267l305 348l-305 347h284l307 -347l-307 -348h-284zM102 267l306 348l-306 347h285l307 -347l-307 -348h-285z" />
    <glyph glyph-name="onequarter" unicode="&#xbc;" horiz-adv-x="1641" 
d="M161 838v484h-63l24 162h202v-646h-163zM172 0l827 1434h231l-828 -1434h-230zM1275 0v93h-245v196l226 357h182v-390h56v-163h-56v-93h-163zM1188 256h103v164z" />
    <glyph glyph-name="onehalf" unicode="&#xbd;" horiz-adv-x="1670" 
d="M161 838v484h-63l24 162h202v-646h-163zM172 0l827 1434h231l-828 -1434h-230zM1030 0v142q23 16 71 46.5t78 51.5t68 51.5t66 65.5t47 74q0 35 -24 59t-58 24q-36 0 -61 -24t-25 -59h-162q0 101 72.5 173.5t175.5 72.5q101 0 173 -72.5t72 -173.5q0 -18 -3 -34.5
t-12 -34.5t-15 -30.5t-23 -31.5t-23.5 -28t-29.5 -29.5t-28.5 -26t-33 -28.5t-30.5 -26h186v-162h-481z" />
    <glyph glyph-name="threequarters" unicode="&#xbe;" horiz-adv-x="1768" 
d="M300 817q-94 0 -160 61t-66 154h162q0 -27 18.5 -45t45.5 -18q26 0 43.5 18t17.5 45q0 35 -31 62.5t-86 27.5v105q54 0 77 23t23 54q0 20 -14.5 34t-34.5 14t-34 -14t-14 -34h-163q0 87 61 143t150 56t150 -56t61 -143q0 -72 -41 -125q58 -58 58 -147q0 -92 -65.5 -153.5
t-157.5 -61.5zM299 0l827 1434h231l-828 -1434h-230zM1402 0v93h-246v196l227 357h181v-390h57v-163h-57v-93h-162zM1315 256h102v164z" />
    <glyph glyph-name="questiondown" unicode="&#xbf;" horiz-adv-x="1163" 
d="M536 765q-59 0 -100.5 41t-41.5 100q0 61 41.5 103t100.5 42q60 0 101 -42t41 -103q0 -59 -41 -100t-101 -41zM563 -436q-130 0 -241 64t-175.5 174.5t-64.5 240.5q0 136 66.5 251t181.5 176q36 20 57 55t21 77h282q0 -120 -60.5 -221t-166.5 -160q-46 -25 -72 -72.5
t-26 -105.5q0 -82 57.5 -139.5t140.5 -57.5t141 57.5t58 139.5h282q0 -130 -64.5 -240.5t-175.5 -174.5t-241 -64z" />
    <glyph glyph-name="Agrave" unicode="&#xc0;" horiz-adv-x="1525" 
d="M474 1841h283l82 -295h-189zM602 1434h322l520 -1434h-300l-86 238h-590l-86 -238h-300zM571 520h383l-192 526z" />
    <glyph glyph-name="Aacute" unicode="&#xc1;" horiz-adv-x="1525" 
d="M688 1546l82 295h283l-176 -295h-189zM602 1434h322l520 -1434h-300l-86 238h-590l-86 -238h-300zM571 520h383l-192 526z" />
    <glyph glyph-name="Acircumflex" unicode="&#xc2;" horiz-adv-x="1525" 
d="M922 1841l198 -295h-188l-169 195l-167 -195h-188l194 295h320zM602 1434h322l520 -1434h-300l-86 238h-590l-86 -238h-300zM571 520h383l-192 526z" />
    <glyph glyph-name="Atilde" unicode="&#xc3;" horiz-adv-x="1525" 
d="M923 1533q-29 0 -73 19t-83.5 44t-81 48.5t-65 33.5t-34.5 -1q-15 -29 2 -87l-162 -44q-44 130 6 219t171 89q43 0 116 -36t133.5 -72.5t73.5 -36.5q14 0 20.5 7t4.5 22t-4.5 25t-9.5 30l164 53q44 -134 -9 -223.5t-169 -89.5zM602 1434h322l520 -1434h-300l-86 238h-590
l-86 -238h-300zM571 520h383l-192 526z" />
    <glyph glyph-name="Adieresis" unicode="&#xc4;" horiz-adv-x="1525" 
d="M548 1502q-62 0 -103.5 41t-41.5 102q0 60 42 101.5t103 41.5q60 0 101.5 -41.5t41.5 -101.5q0 -61 -41.5 -102t-101.5 -41zM979 1502q-62 0 -103 41t-41 102q0 60 41.5 101.5t102.5 41.5q60 0 101.5 -41.5t41.5 -101.5q0 -61 -41.5 -102t-101.5 -41zM602 1434h322
l520 -1434h-300l-86 238h-590l-86 -238h-300zM571 520h383l-192 526z" />
    <glyph glyph-name="Aring" unicode="&#xc5;" horiz-adv-x="1525" 
d="M763 1495q-82 0 -140.5 59t-58.5 142q0 81 58.5 138.5t140.5 57.5t140.5 -57.5t58.5 -138.5q0 -84 -58.5 -142.5t-140.5 -58.5zM763 1629q27 0 45.5 19t18.5 47q0 26 -18.5 44.5t-45.5 18.5t-46 -18.5t-19 -44.5q0 -28 19 -47t46 -19zM602 1434h322l520 -1434h-300
l-86 238h-590l-86 -238h-300zM571 520h383l-192 526z" />
    <glyph glyph-name="AE" unicode="&#xc6;" horiz-adv-x="1736" 
d="M82 0l520 1434h1032v-283h-481v-293h383v-283h-383v-292h481v-283h-764v238h-402l-86 -238h-300zM571 520h299v631h-69z" />
    <glyph glyph-name="Ccedilla" unicode="&#xc7;" horiz-adv-x="1452" 
d="M797 -388q-76 -20 -144 19t-89 114l141 38q4 -18 20 -27.5t34 -4.5q18 4 27.5 20.5t4.5 34.5q-8 34 -55 32l-142 -2l83 147q-254 42 -424.5 250t-170.5 484q0 152 55.5 289.5t150 237t225 158t273.5 58.5q170 0 317.5 -79t246.5 -216l-252 -136q-59 69 -140.5 109
t-171.5 40q-115 0 -212 -62t-153 -168t-56 -231q0 -124 56.5 -230.5t153.5 -168.5t211 -62q91 0 172.5 40t139.5 110l252 -138q-91 -126 -223.5 -203.5t-286.5 -89.5l-9 -13q77 -36 100 -119q20 -75 -19.5 -143t-114.5 -88z" />
    <glyph glyph-name="Egrave" unicode="&#xc8;" horiz-adv-x="1132" 
d="M278 1841h282l82 -295h-188zM123 0v1434h907v-283h-624v-242h487v-282h-487v-344h624v-283h-907z" />
    <glyph glyph-name="Eacute" unicode="&#xc9;" horiz-adv-x="1132" 
d="M492 1546l81 295h283l-176 -295h-188zM123 0v1434h907v-283h-624v-242h487v-282h-487v-344h624v-283h-907z" />
    <glyph glyph-name="Ecircumflex" unicode="&#xca;" horiz-adv-x="1132" 
d="M725 1841l199 -295h-189l-169 195l-167 -195h-188l195 295h319zM123 0v1434h907v-283h-624v-242h487v-282h-487v-344h624v-283h-907z" />
    <glyph glyph-name="Edieresis" unicode="&#xcb;" horiz-adv-x="1132" 
d="M351 1502q-62 0 -103 41t-41 102q0 60 41.5 101.5t102.5 41.5q60 0 102 -41.5t42 -101.5q0 -61 -42 -102t-102 -41zM783 1502q-62 0 -103.5 41t-41.5 102q0 60 42 101.5t103 41.5q60 0 101.5 -41.5t41.5 -101.5q0 -61 -41.5 -102t-101.5 -41zM123 0v1434h907v-283h-624
v-242h487v-282h-487v-344h624v-283h-907z" />
    <glyph glyph-name="Igrave" unicode="&#xcc;" horiz-adv-x="589" 
d="M6 1841h283l82 -295h-189zM154 0v1434h282v-1434h-282z" />
    <glyph glyph-name="Iacute" unicode="&#xcd;" horiz-adv-x="589" 
d="M220 1546l82 295h283l-176 -295h-189zM154 0v1434h282v-1434h-282z" />
    <glyph glyph-name="Icircumflex" unicode="&#xce;" horiz-adv-x="589" 
d="M454 1841l198 -295h-188l-169 195l-167 -195h-188l194 295h320zM154 0v1434h282v-1434h-282z" />
    <glyph glyph-name="Idieresis" unicode="&#xcf;" horiz-adv-x="589" 
d="M80 1502q-62 0 -103.5 41t-41.5 102q0 60 42 101.5t103 41.5q60 0 101.5 -41.5t41.5 -101.5q0 -61 -41.5 -102t-101.5 -41zM512 1502q-62 0 -103.5 41t-41.5 102q0 60 42 101.5t103 41.5q60 0 101 -41.5t41 -101.5q0 -61 -41 -102t-101 -41zM154 0v1434h282v-1434h-282z
" />
    <glyph glyph-name="Eth" unicode="&#xd0;" horiz-adv-x="1496" 
d="M245 0v627h-143v282h143v525h473q145 0 278 -57t229 -153t153 -229t57 -278t-57 -278t-153 -229t-229 -153t-278 -57h-473zM527 283h191q180 0 307 127.5t127 306.5q0 118 -58.5 218t-158.5 158t-217 58h-191v-242h260v-282h-260v-344z" />
    <glyph glyph-name="Ntilde" unicode="&#xd1;" horiz-adv-x="1392" 
d="M856 1533q-29 0 -73 19t-83.5 44t-81 48.5t-65 33.5t-34.5 -1q-15 -28 2 -87l-161 -44q-45 130 6 219t171 89q43 0 116 -36t133.5 -72.5t72.5 -36.5q14 0 20.5 7t5 21t-4.5 26t-10 30l164 53q44 -134 -9 -223.5t-169 -89.5zM123 0v1434h305l559 -923v923h283v-1434h-305
l-559 923v-923h-283z" />
    <glyph glyph-name="Ograve" unicode="&#xd2;" horiz-adv-x="1576" 
d="M500 1841h282l82 -295h-188zM788 -27q-143 0 -274 59t-225.5 158.5t-150.5 237.5t-56 289t56 288.5t150.5 237t225.5 158.5t274 59q191 0 354 -99.5t258 -270.5t95 -373q0 -151 -56 -289t-151 -237.5t-226 -158.5t-274 -59zM788 256q115 0 212.5 62t154.5 168.5t57 230.5
q0 190 -125 325.5t-299 135.5q-115 0 -212.5 -62t-154 -168.5t-56.5 -230.5t57 -230.5t154.5 -168.5t211.5 -62z" />
    <glyph glyph-name="Oacute" unicode="&#xd3;" horiz-adv-x="1576" 
d="M714 1546l82 295h282l-176 -295h-188zM788 -27q-143 0 -274 59t-225.5 158.5t-150.5 237.5t-56 289t56 288.5t150.5 237t225.5 158.5t274 59q191 0 354 -99.5t258 -270.5t95 -373q0 -151 -56 -289t-151 -237.5t-226 -158.5t-274 -59zM788 256q115 0 212.5 62t154.5 168.5
t57 230.5q0 190 -125 325.5t-299 135.5q-115 0 -212.5 -62t-154 -168.5t-56.5 -230.5t57 -230.5t154.5 -168.5t211.5 -62z" />
    <glyph glyph-name="Ocircumflex" unicode="&#xd4;" horiz-adv-x="1576" 
d="M947 1841l199 -295h-189l-169 195l-166 -195h-189l195 295h319zM788 -27q-143 0 -274 59t-225.5 158.5t-150.5 237.5t-56 289t56 288.5t150.5 237t225.5 158.5t274 59q191 0 354 -99.5t258 -270.5t95 -373q0 -151 -56 -289t-151 -237.5t-226 -158.5t-274 -59zM788 256
q115 0 212.5 62t154.5 168.5t57 230.5q0 190 -125 325.5t-299 135.5q-115 0 -212.5 -62t-154 -168.5t-56.5 -230.5t57 -230.5t154.5 -168.5t211.5 -62z" />
    <glyph glyph-name="Otilde" unicode="&#xd5;" horiz-adv-x="1576" 
d="M948 1533q-29 0 -73 19t-83.5 44t-81 48.5t-65 33.5t-34.5 -1q-15 -28 2 -87l-160 -44q-45 130 5.5 219t170.5 89q33 0 86.5 -22.5t98.5 -50t85.5 -50t51.5 -22.5q43 0 12 84l163 53q44 -134 -9 -223.5t-169 -89.5zM788 -27q-143 0 -274 59t-225.5 158.5t-150.5 237.5
t-56 289t56 288.5t150.5 237t225.5 158.5t274 59q191 0 354 -99.5t258 -270.5t95 -373q0 -151 -56 -289t-151 -237.5t-226 -158.5t-274 -59zM788 256q115 0 212.5 62t154.5 168.5t57 230.5q0 190 -125 325.5t-299 135.5q-115 0 -212.5 -62t-154 -168.5t-56.5 -230.5
t57 -230.5t154.5 -168.5t211.5 -62z" />
    <glyph glyph-name="Odieresis" unicode="&#xd6;" horiz-adv-x="1576" 
d="M573 1502q-62 0 -103 41t-41 102q0 60 41.5 101.5t102.5 41.5q60 0 102 -41.5t42 -101.5q0 -61 -42 -102t-102 -41zM1006 1502q-62 0 -104 41t-42 102q0 60 42.5 101.5t103.5 41.5q60 0 101 -41.5t41 -101.5q0 -61 -41 -102t-101 -41zM788 -27q-143 0 -274 59
t-225.5 158.5t-150.5 237.5t-56 289t56 288.5t150.5 237t225.5 158.5t274 59q191 0 354 -99.5t258 -270.5t95 -373q0 -151 -56 -289t-151 -237.5t-226 -158.5t-274 -59zM788 256q115 0 212.5 62t154.5 168.5t57 230.5q0 190 -125 325.5t-299 135.5q-115 0 -212.5 -62
t-154 -168.5t-56.5 -230.5t57 -230.5t154.5 -168.5t211.5 -62z" />
    <glyph glyph-name="multiply" unicode="&#xd7;" horiz-adv-x="1086" 
d="M282 153l-200 199l261 262l-261 263l200 199l261 -262l262 262l200 -199l-263 -263l263 -262l-200 -199l-262 262z" />
    <glyph glyph-name="Oslash" unicode="&#xd8;" horiz-adv-x="1576" 
d="M471 -119l-246 142l85 149q-106 104 -167 245.5t-61 299.5q0 151 56 288.5t150.5 237t225.5 158.5t274 59q123 0 241 -44l79 136l246 -141l-87 -147q107 -105 167.5 -246.5t60.5 -300.5q0 -151 -56 -289t-151 -237.5t-226 -158.5t-274 -59q-123 0 -238 46zM461 432
l423 731q-48 15 -96 15q-115 0 -212.5 -62t-154 -168.5t-56.5 -230.5q0 -160 96 -285zM788 256q115 0 212.5 62t154.5 168.5t57 230.5q0 161 -94 284l-423 -730q43 -15 93 -15z" />
    <glyph glyph-name="Ugrave" unicode="&#xd9;" horiz-adv-x="1402" 
d="M413 1841h282l82 -295h-188zM702 -27q-168 0 -301.5 84t-205.5 226.5t-72 314.5v836h283v-836q0 -146 80 -244t216 -98q138 0 216.5 97.5t78.5 244.5v836h283v-836q0 -172 -72 -314.5t-205 -226.5t-301 -84z" />
    <glyph glyph-name="Uacute" unicode="&#xda;" horiz-adv-x="1402" 
d="M627 1546l82 295h282l-176 -295h-188zM702 -27q-168 0 -301.5 84t-205.5 226.5t-72 314.5v836h283v-836q0 -146 80 -244t216 -98q138 0 216.5 97.5t78.5 244.5v836h283v-836q0 -172 -72 -314.5t-205 -226.5t-301 -84z" />
    <glyph glyph-name="Ucircumflex" unicode="&#xdb;" horiz-adv-x="1402" 
d="M860 1841l199 -295h-189l-169 195l-166 -195h-189l195 295h319zM702 -27q-168 0 -301.5 84t-205.5 226.5t-72 314.5v836h283v-836q0 -146 80 -244t216 -98q138 0 216.5 97.5t78.5 244.5v836h283v-836q0 -172 -72 -314.5t-205 -226.5t-301 -84z" />
    <glyph glyph-name="Udieresis" unicode="&#xdc;" horiz-adv-x="1402" 
d="M487 1502q-62 0 -103.5 41t-41.5 102q0 60 42 101.5t103 41.5q60 0 101.5 -41.5t41.5 -101.5q0 -61 -41.5 -102t-101.5 -41zM919 1502q-62 0 -104 41t-42 102q0 60 42.5 101.5t103.5 41.5q60 0 101 -41.5t41 -101.5q0 -61 -41 -102t-101 -41zM702 -27q-168 0 -301.5 84
t-205.5 226.5t-72 314.5v836h283v-836q0 -146 80 -244t216 -98q138 0 216.5 97.5t78.5 244.5v836h283v-836q0 -172 -72 -314.5t-205 -226.5t-301 -84z" />
    <glyph glyph-name="Yacute" unicode="&#xdd;" horiz-adv-x="1396" 
d="M624 1546l82 295h282l-176 -295h-188zM1001 1434h334l-495 -788v-646h-283v646l-496 788h334l303 -481z" />
    <glyph glyph-name="Thorn" unicode="&#xde;" horiz-adv-x="1132" 
d="M123 0v1434h283v-282h245q175 0 297.5 -128t122.5 -307q0 -118 -57.5 -218.5t-154 -158.5t-208.5 -58h-245v-282h-283zM406 564h214q70 0 119 50.5t49 122.5q0 71 -49 122t-119 51h-214v-346z" />
    <glyph glyph-name="germandbls" unicode="&#xdf;" horiz-adv-x="1196" 
d="M123 0v903q0 144 70.5 266t192.5 193.5t266 71.5q175 0 294.5 -118t119.5 -294q0 -84 -32.5 -161t-105.5 -112q207 -31 207 -341q0 -115 -57.5 -209t-155 -146.5t-212.5 -52.5h-76l-39 241h85q84 0 144 55t60 132q0 75 -59.5 129t-144.5 58l-85 3v230l25 4
q70 9 116.5 55.5t46.5 114.5q0 69 -48 119.5t-115 50.5q-89 0 -151.5 -62.5t-62.5 -152.5v-977h-283z" />
    <glyph glyph-name="agrave" unicode="&#xe0;" horiz-adv-x="1239" 
d="M345 1432h283l82 -295h-189zM874 1024h283v-1024h-284l-13 106q-88 -133 -249 -133q-150 0 -276.5 74t-200 201t-73.5 277q0 143 70 264.5t191 192.5t264 71q168 0 301 -142zM604 245q104 0 176 78t72 189t-71.5 189t-176.5 78q-106 0 -179.5 -78t-73.5 -189t74.5 -189
t178.5 -78z" />
    <glyph glyph-name="aacute" unicode="&#xe1;" horiz-adv-x="1239" 
d="M559 1137l82 295h283l-176 -295h-189zM874 1024h283v-1024h-284l-13 106q-88 -133 -249 -133q-150 0 -276.5 74t-200 201t-73.5 277q0 143 70 264.5t191 192.5t264 71q168 0 301 -142zM604 245q104 0 176 78t72 189t-71.5 189t-176.5 78q-106 0 -179.5 -78t-73.5 -189
t74.5 -189t178.5 -78z" />
    <glyph glyph-name="acircumflex" unicode="&#xe2;" horiz-adv-x="1239" 
d="M793 1432l198 -295h-188l-169 194l-167 -194h-188l194 295h320zM874 1024h283v-1024h-284l-13 106q-88 -133 -249 -133q-150 0 -276.5 74t-200 201t-73.5 277q0 143 70 264.5t191 192.5t264 71q168 0 301 -142zM604 245q104 0 176 78t72 189t-71.5 189t-176.5 78
q-106 0 -179.5 -78t-73.5 -189t74.5 -189t178.5 -78z" />
    <glyph glyph-name="atilde" unicode="&#xe3;" horiz-adv-x="1239" 
d="M794 1123q-29 0 -73 19t-83.5 44t-81 49t-65 34t-34.5 -1q-15 -29 2 -87l-161 -44q-45 130 5.5 219t170.5 89q43 0 116 -36.5t133.5 -73t73.5 -36.5q14 0 20.5 7t4.5 22t-4.5 25t-9.5 30l164 54q44 -134 -9 -224t-169 -90zM874 1024h283v-1024h-284l-13 106
q-88 -133 -249 -133q-150 0 -276.5 74t-200 201t-73.5 277q0 143 70 264.5t191 192.5t264 71q168 0 301 -142zM604 245q104 0 176 78t72 189t-71.5 189t-176.5 78q-106 0 -179.5 -78t-73.5 -189t74.5 -189t178.5 -78z" />
    <glyph glyph-name="adieresis" unicode="&#xe4;" horiz-adv-x="1239" 
d="M419 1093q-62 0 -103.5 40.5t-41.5 101.5q0 60 42 101.5t103 41.5q60 0 101.5 -41.5t41.5 -101.5q0 -61 -41.5 -101.5t-101.5 -40.5zM851 1093q-62 0 -103.5 40.5t-41.5 101.5q0 60 42 101.5t103 41.5q60 0 101 -41.5t41 -101.5q0 -61 -41 -101.5t-101 -40.5zM874 1024
h283v-1024h-284l-13 106q-88 -133 -249 -133q-150 0 -276.5 74t-200 201t-73.5 277q0 143 70 264.5t191 192.5t264 71q168 0 301 -142zM604 245q104 0 176 78t72 189t-71.5 189t-176.5 78q-106 0 -179.5 -78t-73.5 -189t74.5 -189t178.5 -78z" />
    <glyph glyph-name="aring" unicode="&#xe5;" horiz-adv-x="1239" 
d="M634 1085q-82 0 -140.5 59t-58.5 142q0 81 58.5 139t140.5 58t140.5 -58t58.5 -139q0 -84 -58 -142.5t-141 -58.5zM634 1220q27 0 45.5 18.5t18.5 46.5q0 26 -18.5 45t-45.5 19t-46 -19t-19 -45q0 -28 19 -46.5t46 -18.5zM874 1024h283v-1024h-284l-13 106
q-88 -133 -249 -133q-150 0 -276.5 74t-200 201t-73.5 277q0 143 70 264.5t191 192.5t264 71q168 0 301 -142zM604 245q104 0 176 78t72 189t-71.5 189t-176.5 78q-106 0 -179.5 -78t-73.5 -189t74.5 -189t178.5 -78z" />
    <glyph glyph-name="ae" unicode="&#xe6;" horiz-adv-x="1755" 
d="M373 -27q-145 0 -243.5 96.5t-98.5 230.5q0 133 98.5 230t243.5 97h286q-15 63 -63.5 103t-117.5 40q-79 0 -146 -41l-156 235q133 89 299 89q102 0 193.5 -41.5t156.5 -116.5q69 74 162 116t196 42q96 0 182.5 -34.5t151 -95.5t109 -140t60.5 -174t0 -191h-711
q22 -73 76 -117.5t134 -44.5q105 0 173 93l288 -66q-63 -139 -187.5 -224.5t-275.5 -85.5q-116 0 -217.5 52t-171.5 142q-60 -80 -176 -137t-245 -57zM965 627h435q-21 78 -81 129t-136 51t-136 -50.5t-82 -129.5zM373 219q129 0 215 94q41 41 70 105h-285q-40 0 -68.5 -28
t-28.5 -68t28.5 -71.5t68.5 -31.5z" />
    <glyph glyph-name="ccedilla" unicode="&#xe7;" horiz-adv-x="1044" 
d="M584 -388q-76 -20 -144 19t-89 114l141 38q4 -18 20 -27.5t34 -4.5q18 4 27.5 20.5t4.5 34.5q-8 34 -55 32l-142 -2l85 150q-175 39 -290 186.5t-115 339.5q0 147 68.5 271.5t186.5 197t257 72.5q124 0 231 -57.5t179 -157.5l-254 -138q-65 70 -156 70q-96 0 -162.5 -77
t-66.5 -181q0 -103 66.5 -179.5t162.5 -76.5q88 0 156 68l254 -138q-64 -88 -156.5 -143.5t-199.5 -66.5l-9 -14q77 -36 100 -119q20 -75 -19.5 -143t-114.5 -88z" />
    <glyph glyph-name="egrave" unicode="&#xe8;" 
d="M285 1432h282l82 -295h-188zM573 -27q-139 0 -257 72.5t-186.5 196.5t-68.5 271t68.5 271t186.5 196.5t257 72.5q119 0 222.5 -53.5t171.5 -140.5t99 -203.5t11 -237.5h-710q22 -72 74.5 -116.5t131.5 -45.5q106 -1 176 93l288 -66q-64 -139 -188.5 -224.5t-275.5 -85.5z
M356 627h436q-21 78 -82 129t-137 51q-75 0 -135.5 -51t-81.5 -129z" />
    <glyph glyph-name="eacute" unicode="&#xe9;" 
d="M499 1137l82 295h282l-176 -295h-188zM573 -27q-139 0 -257 72.5t-186.5 196.5t-68.5 271t68.5 271t186.5 196.5t257 72.5q119 0 222.5 -53.5t171.5 -140.5t99 -203.5t11 -237.5h-710q22 -72 74.5 -116.5t131.5 -45.5q106 -1 176 93l288 -66q-64 -139 -188.5 -224.5
t-275.5 -85.5zM356 627h436q-21 78 -82 129t-137 51q-75 0 -135.5 -51t-81.5 -129z" />
    <glyph glyph-name="ecircumflex" unicode="&#xea;" 
d="M732 1432l199 -295h-189l-169 194l-166 -194h-189l195 295h319zM573 -27q-139 0 -257 72.5t-186.5 196.5t-68.5 271t68.5 271t186.5 196.5t257 72.5q119 0 222.5 -53.5t171.5 -140.5t99 -203.5t11 -237.5h-710q22 -72 74.5 -116.5t131.5 -45.5q106 -1 176 93l288 -66
q-64 -139 -188.5 -224.5t-275.5 -85.5zM356 627h436q-21 78 -82 129t-137 51q-75 0 -135.5 -51t-81.5 -129z" />
    <glyph glyph-name="edieresis" unicode="&#xeb;" 
d="M358 1093q-62 0 -103 40.5t-41 101.5q0 60 41.5 101.5t102.5 41.5q60 0 102 -41.5t42 -101.5q0 -61 -41.5 -101.5t-102.5 -40.5zM790 1093q-62 0 -103.5 40.5t-41.5 101.5q0 60 42 101.5t103 41.5q60 0 101.5 -41.5t41.5 -101.5q0 -61 -41.5 -101.5t-101.5 -40.5z
M573 -27q-139 0 -257 72.5t-186.5 196.5t-68.5 271t68.5 271t186.5 196.5t257 72.5q119 0 222.5 -53.5t171.5 -140.5t99 -203.5t11 -237.5h-710q22 -72 74.5 -116.5t131.5 -45.5q106 -1 176 93l288 -66q-64 -139 -188.5 -224.5t-275.5 -85.5zM356 627h436q-21 78 -82 129
t-137 51q-75 0 -135.5 -51t-81.5 -129z" />
    <glyph glyph-name="igrave" unicode="&#xec;" horiz-adv-x="528" 
d="M-25 1432h283l82 -295h-188zM123 1024h283v-1024h-283v1024z" />
    <glyph glyph-name="iacute" unicode="&#xed;" horiz-adv-x="528" 
d="M189 1137l82 295h283l-176 -295h-189zM123 1024h283v-1024h-283v1024z" />
    <glyph glyph-name="icircumflex" unicode="&#xee;" horiz-adv-x="528" 
d="M423 1432l199 -295h-189l-169 194l-167 -194h-188l194 295h320zM123 1024h283v-1024h-283v1024z" />
    <glyph glyph-name="idieresis" unicode="&#xef;" horiz-adv-x="528" 
d="M49 1093q-62 0 -103 40.5t-41 101.5q0 60 41.5 101.5t102.5 41.5q60 0 102 -41.5t42 -101.5q0 -61 -41.5 -101.5t-102.5 -40.5zM481 1093q-62 0 -103.5 40.5t-41.5 101.5q0 60 42 101.5t103 41.5q60 0 101.5 -41.5t41.5 -101.5q0 -61 -41.5 -101.5t-101.5 -40.5z
M123 1024h283v-1024h-283v1024z" />
    <glyph glyph-name="eth" unicode="&#xf0;" horiz-adv-x="1153" 
d="M598 -27q-140 0 -259 69t-188 187.5t-69 257.5q0 140 69 259t188 188.5t259 69.5q63 0 117 -31q-21 50 -33 76.5t-37.5 68.5t-52.5 71l-142 -141l-136 135l102 100q-33 5 -66 5l-2 283q152 0 288 -71l127 125l133 -135l-104 -104q151 -145 235.5 -373.5t84.5 -487.5
q0 -242 -145 -397t-369 -155zM598 256q95 0 163 68t68 163q0 96 -68 165t-163 69q-96 0 -164.5 -69t-68.5 -165q0 -95 68.5 -163t164.5 -68z" />
    <glyph glyph-name="ntilde" unicode="&#xf1;" horiz-adv-x="1156" 
d="M777 1123q-29 0 -73 19t-83.5 44t-81 49t-65 34t-34.5 -1q-15 -29 2 -87l-160 -44q-45 130 5.5 219t170.5 89q43 0 115.5 -36.5t133 -73t73.5 -36.5q14 0 20.5 7t5 21.5t-4.5 25.5t-9 30l163 54q44 -134 -9 -224t-169 -90zM1074 651v-651h-282v573q0 80 -57 136.5
t-136 56.5q-80 0 -136 -56t-56 -137v-573h-283l-1 1024h283l1 -76q111 105 266 105q166 0 283.5 -117.5t117.5 -284.5z" />
    <glyph glyph-name="ograve" unicode="&#xf2;" 
d="M285 1432h282l82 -295h-188zM573 -27q-139 0 -257 72.5t-186.5 196.5t-68.5 270q0 147 68.5 271.5t186.5 197t257 72.5t257 -72.5t186.5 -197t68.5 -271.5q0 -146 -68.5 -270t-186.5 -196.5t-257 -72.5zM573 256q96 0 163 75.5t67 180.5q0 106 -68 182t-162 76
q-96 0 -162.5 -76.5t-66.5 -181.5q0 -107 67.5 -181.5t161.5 -74.5z" />
    <glyph glyph-name="oacute" unicode="&#xf3;" 
d="M499 1137l82 295h282l-176 -295h-188zM573 -27q-139 0 -257 72.5t-186.5 196.5t-68.5 270q0 147 68.5 271.5t186.5 197t257 72.5t257 -72.5t186.5 -197t68.5 -271.5q0 -146 -68.5 -270t-186.5 -196.5t-257 -72.5zM573 256q96 0 163 75.5t67 180.5q0 106 -68 182t-162 76
q-96 0 -162.5 -76.5t-66.5 -181.5q0 -107 67.5 -181.5t161.5 -74.5z" />
    <glyph glyph-name="ocircumflex" unicode="&#xf4;" 
d="M732 1432l199 -295h-189l-169 194l-166 -194h-189l195 295h319zM573 -27q-139 0 -257 72.5t-186.5 196.5t-68.5 270q0 147 68.5 271.5t186.5 197t257 72.5t257 -72.5t186.5 -197t68.5 -271.5q0 -146 -68.5 -270t-186.5 -196.5t-257 -72.5zM573 256q96 0 163 75.5
t67 180.5q0 106 -68 182t-162 76q-96 0 -162.5 -76.5t-66.5 -181.5q0 -107 67.5 -181.5t161.5 -74.5z" />
    <glyph glyph-name="otilde" unicode="&#xf5;" 
d="M733 1123q-29 0 -73 19t-83.5 44t-81 49t-65 34t-34.5 -1q-15 -28 2 -87l-160 -44q-45 130 5.5 219t170.5 89q43 0 116 -36.5t133.5 -73t72.5 -36.5q43 0 12 84l163 54q44 -134 -9 -224t-169 -90zM573 -27q-139 0 -257 72.5t-186.5 196.5t-68.5 270q0 147 68.5 271.5
t186.5 197t257 72.5t257 -72.5t186.5 -197t68.5 -271.5q0 -146 -68.5 -270t-186.5 -196.5t-257 -72.5zM573 256q96 0 163 75.5t67 180.5q0 106 -68 182t-162 76q-96 0 -162.5 -76.5t-66.5 -181.5q0 -107 67.5 -181.5t161.5 -74.5z" />
    <glyph glyph-name="odieresis" unicode="&#xf6;" 
d="M358 1093q-62 0 -103 40.5t-41 101.5q0 60 41.5 101.5t102.5 41.5q60 0 102 -41.5t42 -101.5q0 -61 -41.5 -101.5t-102.5 -40.5zM791 1093q-62 0 -104 40.5t-42 101.5q0 60 42.5 101.5t103.5 41.5q60 0 101 -41.5t41 -101.5q0 -61 -41 -101.5t-101 -40.5zM573 -27
q-139 0 -257 72.5t-186.5 196.5t-68.5 270q0 147 68.5 271.5t186.5 197t257 72.5t257 -72.5t186.5 -197t68.5 -271.5q0 -146 -68.5 -270t-186.5 -196.5t-257 -72.5zM573 256q96 0 163 75.5t67 180.5q0 106 -68 182t-162 76q-96 0 -162.5 -76.5t-66.5 -181.5
q0 -107 67.5 -181.5t161.5 -74.5z" />
    <glyph glyph-name="divide" unicode="&#xf7;" horiz-adv-x="1187" 
d="M594 1129q60 0 103 -43t43 -103t-43 -103t-103 -43q-61 0 -104 43t-43 103t43 103t104 43zM82 473v283h1024v-283h-1024zM594 392q60 0 103 -43.5t43 -103.5t-43 -103t-103 -43q-61 0 -104 43t-43 103t43 103.5t104 43.5z" />
    <glyph glyph-name="oslash" unicode="&#xf8;" 
d="M360 -83l-196 114l54 94q-74 75 -115.5 175.5t-41.5 211.5q0 147 68.5 271.5t186.5 197t257 72.5q87 0 162 -29l51 86l197 -114l-54 -95q74 -75 115 -175.5t41 -213.5q0 -146 -68.5 -270t-186.5 -196.5t-257 -72.5q-81 0 -163 29zM357 362l252 438q-115 10 -201 -82
t-86 -222q0 -76 35 -134zM538 226q118 -10 202.5 80.5t84.5 221.5q0 70 -35 136z" />
    <glyph glyph-name="ugrave" unicode="&#xf9;" horiz-adv-x="1115" 
d="M304 1434h283l82 -295h-189zM82 375v649h283v-571q0 -81 56.5 -137t135.5 -56q80 0 136.5 56t56.5 137v571h282l1 -1024h-282l-1 78q-113 -105 -267 -105q-166 0 -283.5 117.5t-117.5 284.5z" />
    <glyph glyph-name="uacute" unicode="&#xfa;" horiz-adv-x="1115" 
d="M518 1139l82 295h283l-176 -295h-189zM82 375v649h283v-571q0 -81 56.5 -137t135.5 -56q80 0 136.5 56t56.5 137v571h282l1 -1024h-282l-1 78q-113 -105 -267 -105q-166 0 -283.5 117.5t-117.5 284.5z" />
    <glyph glyph-name="ucircumflex" unicode="&#xfb;" horiz-adv-x="1115" 
d="M752 1434l198 -295h-188l-169 194l-167 -194h-188l194 295h320zM82 375v649h283v-571q0 -81 56.5 -137t135.5 -56q80 0 136.5 56t56.5 137v571h282l1 -1024h-282l-1 78q-113 -105 -267 -105q-166 0 -283.5 117.5t-117.5 284.5z" />
    <glyph glyph-name="udieresis" unicode="&#xfc;" horiz-adv-x="1115" 
d="M379 1094q-62 0 -104 41t-42 102q0 60 42 101t104 41q60 0 101 -41t41 -101q0 -61 -41 -102t-101 -41zM810 1094q-62 0 -103.5 41t-41.5 102q0 60 42 101t103 41q60 0 101 -41t41 -101q0 -61 -41 -102t-101 -41zM82 375v649h283v-571q0 -81 56.5 -137t135.5 -56
q80 0 136.5 56t56.5 137v571h282l1 -1024h-282l-1 78q-113 -105 -267 -105q-166 0 -283.5 117.5t-117.5 284.5z" />
    <glyph glyph-name="yacute" unicode="&#xfd;" horiz-adv-x="1208" 
d="M529 1137l82 295h283l-176 -295h-189zM825 1024h301l-561 -1536h-299l185 512l-369 1024h309l201 -638z" />
    <glyph glyph-name="thorn" unicode="&#xfe;" horiz-adv-x="1280" 
d="M123 -512v1946h283v-521q111 138 274 138q147 0 271 -72.5t196 -196.5t72 -270q0 -147 -72 -271.5t-196 -197t-271 -72.5q-163 0 -274 138v-621h-283zM676 245q105 0 179.5 78t74.5 189q0 110 -74.5 188.5t-179.5 78.5q-103 0 -174.5 -78.5t-71.5 -188.5q0 -111 71 -189
t175 -78z" />
    <glyph glyph-name="ydieresis" unicode="&#xff;" horiz-adv-x="1208" 
d="M389 1093q-62 0 -103 40.5t-41 101.5q0 60 41.5 101.5t102.5 41.5q60 0 101.5 -41.5t41.5 -101.5q0 -61 -41.5 -101.5t-101.5 -40.5zM821 1093q-62 0 -103.5 40.5t-41.5 101.5q0 60 42 101.5t103 41.5q60 0 101.5 -41.5t41.5 -101.5q0 -61 -41.5 -101.5t-101.5 -40.5z
M825 1024h301l-561 -1536h-299l185 512l-369 1024h309l201 -638z" />
    <glyph glyph-name="Amacron" unicode="&#x100;" horiz-adv-x="1525" 
d="M417 1782h692v-209h-692v209zM602 1434h322l520 -1434h-300l-86 238h-590l-86 -238h-300zM571 520h383l-192 526z" />
    <glyph glyph-name="amacron" unicode="&#x101;" horiz-adv-x="1239" 
d="M288 1372h692v-209h-692v209zM874 1024h283v-1024h-284l-13 106q-88 -133 -249 -133q-150 0 -276.5 74t-200 201t-73.5 277q0 143 70 264.5t191 192.5t264 71q168 0 301 -142zM604 245q104 0 176 78t72 189t-71.5 189t-176.5 78q-106 0 -179.5 -78t-73.5 -189t74.5 -189
t178.5 -78z" />
    <glyph glyph-name="Abreve" unicode="&#x102;" horiz-adv-x="1525" 
d="M763 1524q-139 0 -239.5 100t-100.5 240h172q0 -68 49.5 -118t118.5 -50t118.5 49t49.5 119h172q0 -142 -99.5 -241t-240.5 -99zM602 1434h322l520 -1434h-300l-86 238h-590l-86 -238h-300zM571 520h383l-192 526z" />
    <glyph glyph-name="abreve" unicode="&#x103;" horiz-adv-x="1239" 
d="M634 1114q-140 0 -240 100t-100 240h172q0 -68 49.5 -118t118.5 -50t118.5 49t49.5 119h172q0 -142 -99.5 -241t-240.5 -99zM874 1024h283v-1024h-284l-13 106q-88 -133 -249 -133q-150 0 -276.5 74t-200 201t-73.5 277q0 143 70 264.5t191 192.5t264 71q168 0 301 -142z
M604 245q104 0 176 78t72 189t-71.5 189t-176.5 78q-106 0 -179.5 -78t-73.5 -189t74.5 -189t178.5 -78z" />
    <glyph glyph-name="Aogonek" unicode="&#x104;" horiz-adv-x="1525" 
d="M1317 -476q-113 0 -184.5 77.5t-71.5 180.5q0 106 75 181l36 37h-28l-86 238h-590l-86 -238h-300l520 1434h322l520 -1434h-1q-13 -13 -49.5 -48t-50.5 -50.5t-36 -42t-30.5 -47t-8.5 -40.5q0 -25 16.5 -44t43.5 -19q39 0 67 28t28 68h176q0 -115 -81.5 -198t-200.5 -83z
M571 520h383l-192 526z" />
    <glyph glyph-name="aogonek" unicode="&#x105;" horiz-adv-x="1239" 
d="M1030 -476q-113 0 -185 77.5t-72 180.5q0 105 76 181l37 37h-13l-13 106q-88 -133 -249 -133q-150 0 -276.5 74t-200 201t-73.5 277q0 143 70 264.5t191 192.5t264 71q168 0 301 -142l-13 113h283v-1024h-1q-13 -13 -42 -41t-42.5 -41t-34.5 -36.5t-30.5 -39t-17.5 -34.5
t-8 -36q0 -25 16.5 -44t43.5 -19q39 0 67.5 28t28.5 68h175q0 -115 -81.5 -198t-200.5 -83zM604 245q104 0 176 78t72 189t-71.5 189t-176.5 78q-106 0 -179.5 -78t-73.5 -189t74.5 -189t178.5 -78z" />
    <glyph glyph-name="Cacute" unicode="&#x106;" horiz-adv-x="1452" 
d="M712 1546l82 295h282l-176 -295h-188zM786 -27q-191 0 -353.5 100t-256.5 271t-94 373q0 152 55.5 289.5t150 237t225 158t273.5 58.5q170 0 317.5 -79t246.5 -216l-252 -136q-59 69 -140.5 109t-171.5 40q-115 0 -212 -62t-153 -168t-56 -231q0 -124 56.5 -230.5
t153.5 -168.5t211 -62q91 0 172.5 40t139.5 110l252 -138q-99 -137 -246.5 -216t-317.5 -79z" />
    <glyph glyph-name="cacute" unicode="&#x107;" horiz-adv-x="1044" 
d="M499 1137l82 295h282l-176 -295h-188zM729 324l254 -138q-72 -99 -179 -156t-231 -57q-139 0 -257 72.5t-186.5 196.5t-68.5 270q0 147 68.5 271.5t186.5 197t257 72.5q124 0 231 -57.5t179 -157.5l-254 -138q-65 70 -156 70q-96 0 -162.5 -77t-66.5 -181
q0 -103 66.5 -179.5t162.5 -76.5q88 0 156 68z" />
    <glyph glyph-name="Ccircumflex" unicode="&#x108;" horiz-adv-x="1452" 
d="M945 1841l199 -295h-189l-169 195l-166 -195h-189l195 295h319zM786 -27q-191 0 -353.5 100t-256.5 271t-94 373q0 152 55.5 289.5t150 237t225 158t273.5 58.5q170 0 317.5 -79t246.5 -216l-252 -136q-59 69 -140.5 109t-171.5 40q-115 0 -212 -62t-153 -168t-56 -231
q0 -124 56.5 -230.5t153.5 -168.5t211 -62q91 0 172.5 40t139.5 110l252 -138q-99 -137 -246.5 -216t-317.5 -79z" />
    <glyph glyph-name="ccircumflex" unicode="&#x109;" horiz-adv-x="1044" 
d="M732 1432l199 -295h-189l-169 194l-166 -194h-189l195 295h319zM729 324l254 -138q-72 -99 -179 -156t-231 -57q-139 0 -257 72.5t-186.5 196.5t-68.5 270q0 147 68.5 271.5t186.5 197t257 72.5q124 0 231 -57.5t179 -157.5l-254 -138q-65 70 -156 70q-96 0 -162.5 -77
t-66.5 -181q0 -103 66.5 -179.5t162.5 -76.5q88 0 156 68z" />
    <glyph glyph-name="Cdotaccent" unicode="&#x10a;" horiz-adv-x="1452" 
d="M787 1551q-62 0 -103 41t-41 102q0 60 41.5 101t102.5 41q60 0 102 -41t42 -101q0 -61 -41 -102t-103 -41zM786 -27q-191 0 -353.5 100t-256.5 271t-94 373q0 152 55.5 289.5t150 237t225 158t273.5 58.5q170 0 317.5 -79t246.5 -216l-252 -136q-59 69 -140.5 109
t-171.5 40q-115 0 -212 -62t-153 -168t-56 -231q0 -124 56.5 -230.5t153.5 -168.5t211 -62q91 0 172.5 40t139.5 110l252 -138q-99 -137 -246.5 -216t-317.5 -79z" />
    <glyph glyph-name="cdotaccent" unicode="&#x10b;" horiz-adv-x="1044" 
d="M574 1142q-62 0 -103 40.5t-41 101.5q0 60 41.5 101t102.5 41q60 0 102 -41t42 -101q0 -61 -41 -101.5t-103 -40.5zM729 324l254 -138q-72 -99 -179 -156t-231 -57q-139 0 -257 72.5t-186.5 196.5t-68.5 270q0 147 68.5 271.5t186.5 197t257 72.5q124 0 231 -57.5
t179 -157.5l-254 -138q-65 70 -156 70q-96 0 -162.5 -77t-66.5 -181q0 -103 66.5 -179.5t162.5 -76.5q88 0 156 68z" />
    <glyph glyph-name="Ccaron" unicode="&#x10c;" horiz-adv-x="1452" 
d="M628 1546l-199 295h188l169 -194l167 194h189l-195 -295h-319zM786 -27q-191 0 -353.5 100t-256.5 271t-94 373q0 152 55.5 289.5t150 237t225 158t273.5 58.5q170 0 317.5 -79t246.5 -216l-252 -136q-59 69 -140.5 109t-171.5 40q-115 0 -212 -62t-153 -168t-56 -231
q0 -124 56.5 -230.5t153.5 -168.5t211 -62q91 0 172.5 40t139.5 110l252 -138q-99 -137 -246.5 -216t-317.5 -79z" />
    <glyph glyph-name="ccaron" unicode="&#x10d;" horiz-adv-x="1044" 
d="M415 1137l-199 295h188l169 -195l167 195h189l-195 -295h-319zM729 324l254 -138q-72 -99 -179 -156t-231 -57q-139 0 -257 72.5t-186.5 196.5t-68.5 270q0 147 68.5 271.5t186.5 197t257 72.5q124 0 231 -57.5t179 -157.5l-254 -138q-65 70 -156 70q-96 0 -162.5 -77
t-66.5 -181q0 -103 66.5 -179.5t162.5 -76.5q88 0 156 68z" />
    <glyph glyph-name="Dcaron" unicode="&#x10e;" horiz-adv-x="1376" 
d="M509 1546l-199 295h189l169 -194l167 194h188l-195 -295h-319zM123 0v1434h475q145 0 278 -57t229 -153t153 -229t57 -278t-57 -278t-153 -229t-229 -153t-278 -57h-475zM406 283h192q178 0 306 127t128 307q0 179 -128 306.5t-306 127.5h-192v-868z" />
    <glyph glyph-name="dcaron" unicode="&#x10f;" horiz-adv-x="1281" 
d="M876 1536h282v-1536h-282v109q-110 -136 -276 -136q-146 0 -270 72.5t-196.5 196.5t-72.5 270t72.5 270t196.5 196.5t270 72.5q167 0 276 -136v621zM1206 1241l82 295h283l-176 -295h-189zM604 245q104 0 176 78t72 189t-71.5 189t-176.5 78q-106 0 -179.5 -78
t-73.5 -189t74.5 -189t178.5 -78z" />
    <glyph glyph-name="Emacron" unicode="&#x112;" horiz-adv-x="1132" 
d="M220 1782h692v-209h-692v209zM123 0v1434h907v-283h-624v-242h487v-282h-487v-344h624v-283h-907z" />
    <glyph glyph-name="emacron" unicode="&#x113;" 
d="M227 1372h693v-209h-693v209zM573 -27q-139 0 -257 72.5t-186.5 196.5t-68.5 271t68.5 271t186.5 196.5t257 72.5q119 0 222.5 -53.5t171.5 -140.5t99 -203.5t11 -237.5h-710q22 -72 74.5 -116.5t131.5 -45.5q106 -1 176 93l288 -66q-64 -139 -188.5 -224.5t-275.5 -85.5
zM356 627h436q-21 78 -82 129t-137 51q-75 0 -135.5 -51t-81.5 -129z" />
    <glyph glyph-name="Edotaccent" unicode="&#x116;" horiz-adv-x="1132" 
d="M567 1551q-62 0 -103 41t-41 102q0 60 41.5 101t102.5 41q60 0 102 -41t42 -101q0 -61 -41 -102t-103 -41zM123 0v1434h907v-283h-624v-242h487v-282h-487v-344h624v-283h-907z" />
    <glyph glyph-name="edotaccent" unicode="&#x117;" 
d="M574 1142q-62 0 -103 40.5t-41 101.5q0 60 41.5 101t102.5 41q60 0 101.5 -41t41.5 -101q0 -61 -40.5 -101.5t-102.5 -40.5zM573 -27q-139 0 -257 72.5t-186.5 196.5t-68.5 271t68.5 271t186.5 196.5t257 72.5q119 0 222.5 -53.5t171.5 -140.5t99 -203.5t11 -237.5h-710
q22 -72 74.5 -116.5t131.5 -45.5q106 -1 176 93l288 -66q-64 -139 -188.5 -224.5t-275.5 -85.5zM356 627h436q-21 78 -82 129t-137 51q-75 0 -135.5 -51t-81.5 -129z" />
    <glyph glyph-name="Eogonek" unicode="&#x118;" horiz-adv-x="1132" 
d="M123 0v1434h907v-283h-624v-242h487v-282h-487v-344h624v-283h-108q-14 -14 -49.5 -48t-50.5 -50.5t-37 -42t-30.5 -46.5t-8.5 -41q0 -25 17.5 -44t44.5 -19q39 0 66.5 28t27.5 68h176q0 -115 -81.5 -198t-199.5 -83q-113 0 -185 77.5t-72 180.5q0 106 75 181l37 37h-529
z" />
    <glyph glyph-name="eogonek" unicode="&#x119;" 
d="M606 -476q-113 0 -185 77.5t-72 180.5q0 105 75 181l27 26q-169 44 -279.5 190t-110.5 334q0 147 68.5 271t186.5 196.5t257 72.5q119 0 222.5 -53.5t171.5 -140.5t99 -203.5t11 -237.5h-710q22 -72 74.5 -116.5t131.5 -45.5q106 -1 176 93l288 -66q-45 -100 -125 -175
t-181 -109q-14 -14 -49.5 -48t-50.5 -50t-36.5 -42t-30 -46.5t-8.5 -40.5q0 -25 16.5 -44t43.5 -19q39 0 67.5 28t28.5 68h176q0 -115 -81.5 -198t-200.5 -83zM356 627h436q-21 78 -82 129t-137 51q-75 0 -135.5 -51t-81.5 -129z" />
    <glyph glyph-name="Ecaron" unicode="&#x11a;" horiz-adv-x="1132" 
d="M408 1546l-199 295h188l169 -194l167 194h189l-195 -295h-319zM123 0v1434h907v-283h-624v-242h487v-282h-487v-344h624v-283h-907z" />
    <glyph glyph-name="ecaron" unicode="&#x11b;" 
d="M415 1137l-199 295h188l169 -195l167 195h189l-195 -295h-319zM573 -27q-139 0 -257 72.5t-186.5 196.5t-68.5 271t68.5 271t186.5 196.5t257 72.5q119 0 222.5 -53.5t171.5 -140.5t99 -203.5t11 -237.5h-710q22 -72 74.5 -116.5t131.5 -45.5q106 -1 176 93l288 -66
q-64 -139 -188.5 -224.5t-275.5 -85.5zM356 627h436q-21 78 -82 129t-137 51q-75 0 -135.5 -51t-81.5 -129z" />
    <glyph glyph-name="Gcircumflex" unicode="&#x11c;" horiz-adv-x="1573" 
d="M946 1841l199 -295h-189l-169 195l-166 -195h-189l195 295h319zM786 -27q-147 0 -278.5 59.5t-224 160t-147 238t-54.5 288.5q0 159 59.5 298.5t158 235t227.5 150.5t266 55q157 0 301.5 -73.5t255.5 -221.5l-252 -135q-131 150 -310 150q-170 0 -296.5 -133t-126.5 -332
q0 -190 125 -323.5t301 -133.5q111 0 209.5 63.5t157.5 182.5h-222v246h555q6 -156 -47.5 -299t-148 -247.5t-228 -166.5t-281.5 -62z" />
    <glyph glyph-name="gcircumflex" unicode="&#x11d;" horiz-adv-x="1271" 
d="M795 1432l198 -295h-188l-169 194l-167 -194h-188l194 295h320zM866 1024h283v-1038q0 -111 -46.5 -205.5t-125 -158t-182 -99t-217.5 -35.5q-161 0 -300 92.5t-204 239.5l258 118q31 -75 99 -120t147 -45q119 0 203.5 56.5t84.5 156.5v118q-104 -131 -269 -131
q-145 0 -268.5 72.5t-195.5 196.5t-72 270t72 270t195.5 196.5t268.5 72.5q165 0 269 -131v104zM601 245q104 0 175.5 78t71.5 189t-71.5 189t-175.5 78q-103 0 -176.5 -78t-73.5 -189t73.5 -189t176.5 -78z" />
    <glyph glyph-name="Gbreve" unicode="&#x11e;" horiz-adv-x="1573" 
d="M787 1524q-139 0 -239.5 100t-100.5 240h173q0 -69 49 -118.5t118 -49.5q70 0 119 49t49 119h172q0 -142 -99.5 -241t-240.5 -99zM786 -27q-147 0 -278.5 59.5t-224 160t-147 238t-54.5 288.5q0 159 59.5 298.5t158 235t227.5 150.5t266 55q157 0 301.5 -73.5
t255.5 -221.5l-252 -135q-131 150 -310 150q-170 0 -296.5 -133t-126.5 -332q0 -190 125 -323.5t301 -133.5q111 0 209.5 63.5t157.5 182.5h-222v246h555q6 -156 -47.5 -299t-148 -247.5t-228 -166.5t-281.5 -62z" />
    <glyph glyph-name="gbreve" unicode="&#x11f;" horiz-adv-x="1271" 
d="M636 1114q-140 0 -240 100t-100 240h172q0 -68 49.5 -118t118.5 -50q70 0 119 49t49 119h172q0 -142 -99.5 -241t-240.5 -99zM866 1024h283v-1038q0 -111 -46.5 -205.5t-125 -158t-182 -99t-217.5 -35.5q-161 0 -300 92.5t-204 239.5l258 118q31 -75 99 -120t147 -45
q119 0 203.5 56.5t84.5 156.5v118q-104 -131 -269 -131q-145 0 -268.5 72.5t-195.5 196.5t-72 270t72 270t195.5 196.5t268.5 72.5q165 0 269 -131v104zM601 245q104 0 175.5 78t71.5 189t-71.5 189t-175.5 78q-103 0 -176.5 -78t-73.5 -189t73.5 -189t176.5 -78z" />
    <glyph glyph-name="Gdotaccent" unicode="&#x120;" horiz-adv-x="1573" 
d="M788 1551q-62 0 -103 41t-41 102q0 60 41.5 101t102.5 41q60 0 102 -41t42 -101q0 -61 -41 -102t-103 -41zM786 -27q-147 0 -278.5 59.5t-224 160t-147 238t-54.5 288.5q0 159 59.5 298.5t158 235t227.5 150.5t266 55q157 0 301.5 -73.5t255.5 -221.5l-252 -135
q-131 150 -310 150q-170 0 -296.5 -133t-126.5 -332q0 -190 125 -323.5t301 -133.5q111 0 209.5 63.5t157.5 182.5h-222v246h555q6 -156 -47.5 -299t-148 -247.5t-228 -166.5t-281.5 -62z" />
    <glyph glyph-name="gdotaccent" unicode="&#x121;" horiz-adv-x="1271" 
d="M637 1142q-62 0 -103 40.5t-41 101.5q0 60 41.5 101t102.5 41q60 0 101.5 -41t41.5 -101q0 -61 -40.5 -101.5t-102.5 -40.5zM866 1024h283v-1038q0 -111 -46.5 -205.5t-125 -158t-182 -99t-217.5 -35.5q-161 0 -300 92.5t-204 239.5l258 118q31 -75 99 -120t147 -45
q119 0 203.5 56.5t84.5 156.5v118q-104 -131 -269 -131q-145 0 -268.5 72.5t-195.5 196.5t-72 270t72 270t195.5 196.5t268.5 72.5q165 0 269 -131v104zM601 245q104 0 175.5 78t71.5 189t-71.5 189t-175.5 78q-103 0 -176.5 -78t-73.5 -189t73.5 -189t176.5 -78z" />
    <glyph glyph-name="uni0122" unicode="&#x122;" horiz-adv-x="1573" 
d="M786 -27q-147 0 -278.5 59.5t-224 160t-147 238t-54.5 288.5q0 159 59.5 298.5t158 235t227.5 150.5t266 55q157 0 301.5 -73.5t255.5 -221.5l-252 -135q-131 150 -310 150q-170 0 -296.5 -133t-126.5 -332q0 -190 125 -323.5t301 -133.5q111 0 209.5 63.5t157.5 182.5
h-222v246h555q6 -156 -47.5 -299t-148 -247.5t-228 -166.5t-281.5 -62zM583 -452l63 347h283l-158 -347h-188z" />
    <glyph glyph-name="Hcircumflex" unicode="&#x124;" horiz-adv-x="1355" 
d="M837 1841l198 -295h-188l-169 195l-167 -195h-188l194 295h320zM950 1434h283v-1434h-283v627h-544v-627h-283v1434h283v-525h544v525z" />
    <glyph glyph-name="hcircumflex" unicode="&#x125;" horiz-adv-x="1156" 
d="M795 1867l198 -295h-188l-169 194l-167 -194h-188l194 295h320zM1074 651v-651h-282v573q0 80 -57 136.5t-136 56.5q-80 0 -136 -56t-56 -137v-573h-283l-1 1536h283l1 -588q111 105 266 105q166 0 283.5 -117.5t117.5 -284.5z" />
    <glyph glyph-name="Itilde" unicode="&#x128;" horiz-adv-x="589" 
d="M455 1533q-29 0 -73 19t-83.5 44t-81 48.5t-65 33.5t-34.5 -1q-15 -28 2 -87l-161 -44q-45 130 5.5 219t170.5 89q43 0 116 -36t134 -72.5t73 -36.5q14 0 20.5 7t5 21t-4.5 26t-10 30l164 53q44 -134 -9 -223.5t-169 -89.5zM154 0v1434h282v-1434h-282z" />
    <glyph glyph-name="itilde" unicode="&#x129;" horiz-adv-x="528" 
d="M390 1104q-34 0 -98 36.5t-112 64.5t-56 14q-12 -22 1 -69l-127 -36q-35 104 4.5 175.5t135.5 71.5q34 0 91.5 -29.5t105.5 -58.5t58 -29q11 0 16 5.5t3.5 17t-4 21t-7.5 24.5l130 43q35 -108 -7 -179.5t-134 -71.5zM123 1024h283v-1024h-283v1024z" />
    <glyph glyph-name="Imacron" unicode="&#x12a;" horiz-adv-x="589" 
d="M-51 1782h692v-209h-692v209zM154 0v1434h282v-1434h-282z" />
    <glyph glyph-name="imacron" unicode="&#x12b;" horiz-adv-x="528" 
d="M0 1372h528v-209h-528v209zM123 1024h283v-1024h-283v1024z" />
    <glyph glyph-name="Iogonek" unicode="&#x12e;" horiz-adv-x="589" 
d="M154 0v1434h282v-1434h-1q-13 -13 -49.5 -48t-50.5 -50.5t-36 -42t-30.5 -47t-8.5 -40.5q0 -25 17 -44t44 -19q39 0 67 28t28 68h176q0 -115 -82 -198t-201 -83q-113 0 -184.5 77.5t-71.5 180.5q0 105 75 181l37 37h-11z" />
    <glyph glyph-name="iogonek" unicode="&#x12f;" horiz-adv-x="528" 
d="M265 1142q-62 0 -103 40.5t-41 101.5q0 60 41.5 101t102.5 41q60 0 102 -41t42 -101q0 -61 -41 -101.5t-103 -40.5zM279 -476q-113 0 -184.5 77.5t-71.5 180.5q0 106 74 181l37 37h-11v1024h283v-1024h-2q-13 -13 -49.5 -48t-50.5 -50.5t-36 -42t-30.5 -47t-8.5 -40.5
q0 -25 17 -44t44 -19q39 0 67 28t28 68h176q0 -115 -81.5 -198t-200.5 -83z" />
    <glyph glyph-name="Idotaccent" unicode="&#x130;" horiz-adv-x="589" 
d="M296 1551q-62 0 -103 41t-41 102q0 60 41.5 101t102.5 41q60 0 101.5 -41t41.5 -101q0 -62 -40.5 -102.5t-102.5 -40.5zM154 0v1434h282v-1434h-282z" />
    <glyph glyph-name="dotlessi" unicode="&#x131;" horiz-adv-x="528" 
d="M123 1024h283v-1024h-283v1024z" />
    <glyph glyph-name="IJ" unicode="&#x132;" horiz-adv-x="1525" 
d="M154 0v1434h282v-1434h-282zM932 -27q-173 0 -301 110l181 217q52 -44 120 -44q77 0 132.5 56.5t55.5 133.5v988h283v-988q0 -127 -63 -236t-171.5 -173t-236.5 -64z" />
    <glyph glyph-name="ij" unicode="&#x133;" horiz-adv-x="1051" 
d="M265 1142q-62 0 -103 40.5t-41 101.5q0 60 41.5 101t102.5 41q60 0 102 -41t42 -101q0 -61 -41 -101.5t-103 -40.5zM788 1142q-62 0 -103 40.5t-41 101.5q0 60 41.5 101t102.5 41q60 0 102 -41t42 -101q0 -61 -41 -101.5t-103 -40.5zM123 1024h283v-1024h-283v1024z
M457 -512v283q78 0 133.5 55t55.5 133v1065h283v-1065q0 -195 -137.5 -333t-334.5 -138z" />
    <glyph glyph-name="Jcircumflex" unicode="&#x134;" horiz-adv-x="935" 
d="M831 1841l198 -295h-188l-169 195l-167 -195h-189l196 295h319zM342 -27q-173 0 -301 110l181 217q52 -44 120 -44q77 0 132.5 56.5t55.5 133.5v988h283v-988q0 -127 -63 -236t-171.5 -173t-236.5 -64z" />
    <glyph glyph-name="jcircumflex" unicode="&#x135;" horiz-adv-x="513" 
d="M409 1432l197 -295h-188l-169 194l-167 -194h-188l195 295h320zM-82 -512v283q78 0 134 55t56 133v1065h282v-1065q0 -195 -137.5 -333t-334.5 -138z" />
    <glyph glyph-name="uni0136" unicode="&#x136;" horiz-adv-x="1233" 
d="M1209 0h-368l-382 537l-53 -64v-473h-283v1434h283v-522l436 522h368l-567 -676zM413 -452l63 347h283l-158 -347h-188z" />
    <glyph glyph-name="uni0137" unicode="&#x137;" horiz-adv-x="1124" 
d="M1073 0h-325l-218 374l-124 -149v-225h-283v1536h283v-871l301 359h368l-351 -421zM355 -452l64 347h282l-157 -347h-189z" />
    <glyph glyph-name="Lacute" unicode="&#x139;" horiz-adv-x="1085" 
d="M189 1546l82 295h283l-176 -295h-189zM123 0v1434h283v-1151h577v-283h-860z" />
    <glyph glyph-name="lacute" unicode="&#x13a;" horiz-adv-x="528" 
d="M189 1649l82 295h283l-176 -295h-189zM123 0v1536h283v-1536h-283z" />
    <glyph glyph-name="uni013B" unicode="&#x13b;" horiz-adv-x="1085" 
d="M123 0v1434h283v-1151h577v-283h-860zM348 -452l64 347h282l-157 -347h-189z" />
    <glyph glyph-name="uni013C" unicode="&#x13c;" horiz-adv-x="528" 
d="M123 0v1536h283v-1536h-283zM59 -452l64 347h283l-158 -347h-189z" />
    <glyph glyph-name="Lcaron" unicode="&#x13d;" horiz-adv-x="1085" 
d="M603 1241l82 295h283l-176 -295h-189zM123 0v1434h283v-1151h577v-283h-860z" />
    <glyph glyph-name="lcaron" unicode="&#x13e;" horiz-adv-x="528" 
d="M123 0v1536h283v-1536h-283zM453 1241l82 295h282l-176 -295h-188z" />
    <glyph glyph-name="Nacute" unicode="&#x143;" horiz-adv-x="1392" 
d="M622 1546l81 295h283l-176 -295h-188zM123 0v1434h305l559 -923v923h283v-1434h-305l-559 923v-923h-283z" />
    <glyph glyph-name="nacute" unicode="&#x144;" horiz-adv-x="1156" 
d="M543 1137l82 295h282l-176 -295h-188zM1074 651v-651h-282v573q0 80 -57 136.5t-136 56.5q-80 0 -136 -56t-56 -137v-573h-283l-1 1024h283l1 -76q111 105 266 105q166 0 283.5 -117.5t117.5 -284.5z" />
    <glyph glyph-name="uni0145" unicode="&#x145;" horiz-adv-x="1392" 
d="M123 0v1434h305l559 -923v923h283v-1434h-305l-559 923v-923h-283zM492 -452l63 347h283l-158 -347h-188z" />
    <glyph glyph-name="uni0146" unicode="&#x146;" horiz-adv-x="1156" 
d="M1074 651v-651h-282v573q0 80 -57 136.5t-136 56.5q-80 0 -136 -56t-56 -137v-573h-283l-1 1024h283l1 -76q111 105 266 105q166 0 283.5 -117.5t117.5 -284.5zM394 -452l64 347h282l-157 -347h-189z" />
    <glyph glyph-name="Ncaron" unicode="&#x147;" horiz-adv-x="1392" 
d="M538 1546l-199 295h188l169 -194l167 194h189l-195 -295h-319zM123 0v1434h305l559 -923v923h283v-1434h-305l-559 923v-923h-283z" />
    <glyph glyph-name="ncaron" unicode="&#x148;" horiz-adv-x="1156" 
d="M459 1137l-199 295h189l168 -195l167 195h189l-195 -295h-319zM1074 651v-651h-282v573q0 80 -57 136.5t-136 56.5q-80 0 -136 -56t-56 -137v-573h-283l-1 1024h283l1 -76q111 105 266 105q166 0 283.5 -117.5t117.5 -284.5z" />
    <glyph glyph-name="Omacron" unicode="&#x14c;" horiz-adv-x="1576" 
d="M442 1782h693v-209h-693v209zM788 -27q-143 0 -274 59t-225.5 158.5t-150.5 237.5t-56 289t56 288.5t150.5 237t225.5 158.5t274 59q191 0 354 -99.5t258 -270.5t95 -373q0 -151 -56 -289t-151 -237.5t-226 -158.5t-274 -59zM788 256q115 0 212.5 62t154.5 168.5
t57 230.5q0 190 -125 325.5t-299 135.5q-115 0 -212.5 -62t-154 -168.5t-56.5 -230.5t57 -230.5t154.5 -168.5t211.5 -62z" />
    <glyph glyph-name="omacron" unicode="&#x14d;" 
d="M227 1372h693v-209h-693v209zM573 -27q-139 0 -257 72.5t-186.5 196.5t-68.5 270q0 147 68.5 271.5t186.5 197t257 72.5t257 -72.5t186.5 -197t68.5 -271.5q0 -146 -68.5 -270t-186.5 -196.5t-257 -72.5zM573 256q96 0 163 75.5t67 180.5q0 106 -68 182t-162 76
q-96 0 -162.5 -76.5t-66.5 -181.5q0 -107 67.5 -181.5t161.5 -74.5z" />
    <glyph glyph-name="Ohungarumlaut" unicode="&#x150;" horiz-adv-x="1576" 
d="M906 1546l82 295h283l-176 -295h-189zM544 1546l82 295h282l-176 -295h-188zM788 -27q-143 0 -274 59t-225.5 158.5t-150.5 237.5t-56 289t56 288.5t150.5 237t225.5 158.5t274 59q191 0 354 -99.5t258 -270.5t95 -373q0 -151 -56 -289t-151 -237.5t-226 -158.5t-274 -59
zM788 256q115 0 212.5 62t154.5 168.5t57 230.5q0 190 -125 325.5t-299 135.5q-115 0 -212.5 -62t-154 -168.5t-56.5 -230.5t57 -230.5t154.5 -168.5t211.5 -62z" />
    <glyph glyph-name="ohungarumlaut" unicode="&#x151;" 
d="M691 1137l82 295h283l-176 -295h-189zM329 1137l82 295h282l-176 -295h-188zM573 -27q-139 0 -257 72.5t-186.5 196.5t-68.5 270q0 147 68.5 271.5t186.5 197t257 72.5t257 -72.5t186.5 -197t68.5 -271.5q0 -146 -68.5 -270t-186.5 -196.5t-257 -72.5zM573 256
q96 0 163 75.5t67 180.5q0 106 -68 182t-162 76q-96 0 -162.5 -76.5t-66.5 -181.5q0 -107 67.5 -181.5t161.5 -74.5z" />
    <glyph glyph-name="OE" unicode="&#x152;" horiz-adv-x="2157" 
d="M788 -27q-143 0 -274 59t-225.5 158.5t-150.5 237.5t-56 289t56 288.5t150.5 237t225.5 158.5t274 59q242 0 429 -164v138h838v-283h-556v-293h458v-283h-458v-292h556v-283h-838v137q-187 -164 -429 -164zM788 256q115 0 212.5 62t154.5 168.5t57 230.5
q0 190 -125 325.5t-299 135.5q-115 0 -212.5 -62t-154 -168.5t-56.5 -230.5t57 -230.5t154.5 -168.5t211.5 -62z" />
    <glyph glyph-name="oe" unicode="&#x153;" horiz-adv-x="1887" 
d="M573 -27q-139 0 -257 72.5t-186.5 196.5t-68.5 270q0 147 68.5 271.5t186.5 197t257 72.5q108 0 205 -46.5t166 -127.5q69 81 166 127.5t205 46.5q118 0 222 -53t171.5 -140t98.5 -203.5t11 -237.5h-710q22 -73 74.5 -117.5t132.5 -45.5q107 0 175 94l288 -67
q-63 -139 -187.5 -224.5t-275.5 -85.5q-108 0 -205 46.5t-166 127.5q-69 -81 -166 -127.5t-205 -46.5zM1097 628h434q-21 78 -80.5 128.5t-135.5 50.5t-136.5 -50.5t-81.5 -128.5zM573 256q96 0 163 75.5t67 180.5q0 106 -68 182t-162 76q-96 0 -162.5 -76.5t-66.5 -181.5
q0 -107 67.5 -181.5t161.5 -74.5z" />
    <glyph glyph-name="Racute" unicode="&#x154;" horiz-adv-x="1272" 
d="M449 1546l81 295h283l-176 -295h-188zM123 0v1434h569q175 0 296.5 -128t121.5 -308q0 -139 -71 -248t-192 -161l341 -589h-326l-326 563h-130v-563h-283zM406 846h252q70 0 119.5 50.5t49.5 122.5q0 71 -49.5 122t-119.5 51h-252v-346z" />
    <glyph glyph-name="racute" unicode="&#x155;" horiz-adv-x="805" 
d="M390 1137l82 295h283l-175 -295h-190zM124 0l-1 1024h283l1 -76q111 105 266 105q51 0 112 -17l-111 -285q-34 15 -75 15q-80 0 -136 -56t-56 -137v-573h-283z" />
    <glyph glyph-name="uni0156" unicode="&#x156;" horiz-adv-x="1272" 
d="M123 0v1434h569q175 0 296.5 -128t121.5 -308q0 -139 -71 -248t-192 -161l341 -589h-326l-326 563h-130v-563h-283zM406 846h252q70 0 119.5 50.5t49.5 122.5q0 71 -49.5 122t-119.5 51h-252v-346zM430 -452l64 347h282l-158 -347h-188z" />
    <glyph glyph-name="uni0157" unicode="&#x157;" horiz-adv-x="805" 
d="M124 0l-1 1024h283l1 -76q111 105 266 105q51 0 112 -17l-111 -285q-34 15 -75 15q-80 0 -136 -56t-56 -137v-573h-283zM60 -452l64 347h283l-158 -347h-189z" />
    <glyph glyph-name="Rcaron" unicode="&#x158;" horiz-adv-x="1272" 
d="M365 1546l-199 295h188l169 -194l167 194h189l-195 -295h-319zM123 0v1434h569q175 0 296.5 -128t121.5 -308q0 -139 -71 -248t-192 -161l341 -589h-326l-326 563h-130v-563h-283zM406 846h252q70 0 119.5 50.5t49.5 122.5q0 71 -49.5 122t-119.5 51h-252v-346z" />
    <glyph glyph-name="rcaron" unicode="&#x159;" horiz-adv-x="805" 
d="M306 1137l-198 295h188l170 -195l166 195h188l-194 -295h-320zM124 0l-1 1024h283l1 -76q111 105 266 105q51 0 112 -17l-111 -285q-34 15 -75 15q-80 0 -136 -56t-56 -137v-573h-283z" />
    <glyph glyph-name="Sacute" unicode="&#x15a;" horiz-adv-x="1287" 
d="M569 1546l82 295h283l-176 -295h-189zM644 -27q-185 0 -336.5 86.5t-205.5 231.5l266 98q19 -54 97 -93.5t179 -39.5q103 0 180 45.5t77 114.5q0 120 -257 159q-122 18 -216 49.5t-169.5 83.5t-115.5 130t-40 179q0 129 75.5 231t198.5 156.5t267 54.5q185 0 336.5 -86
t204.5 -233l-265 -97q-19 54 -97 93t-179 39q-101 2 -179.5 -44.5t-78.5 -113.5q0 -18 3 -33t11 -28t14.5 -22.5t22.5 -18.5t24.5 -14.5t31 -12t33 -9.5t38.5 -8t38 -6.5t42 -6.5q113 -17 208 -51.5t171 -87.5t118.5 -130.5t42.5 -172.5q0 -129 -74.5 -231.5t-197.5 -157
t-268 -54.5z" />
    <glyph glyph-name="sacute" unicode="&#x15b;" horiz-adv-x="892" 
d="M372 1137l82 295h282l-176 -295h-188zM421 -18q-123 9 -223.5 66t-146.5 153l238 102q23 -32 65 -57.5t99 -25.5q53 0 90.5 20t37.5 61q0 22 -11.5 38t-35.5 26t-40.5 14.5t-47.5 10.5q-7 1 -10 2q-99 17 -179 58t-133 112.5t-53 160.5q0 150 113 243t271 93
q121 0 222.5 -50.5t164.5 -141.5l-224 -132q-22 31 -60 55t-80 28q-65 5 -104 -16t-39 -72q0 -24 19.5 -40.5t40.5 -23t57.5 -15t49.5 -12.5q56 -18 104.5 -39.5t93.5 -52t76 -65.5t49 -80.5t16 -96.5q0 -98 -60 -176.5t-156.5 -117t-203.5 -29.5z" />
    <glyph glyph-name="Scircumflex" unicode="&#x15c;" horiz-adv-x="1287" 
d="M803 1841l198 -295h-188l-169 195l-167 -195h-188l194 295h320zM644 -27q-185 0 -336.5 86.5t-205.5 231.5l266 98q19 -54 97 -93.5t179 -39.5q103 0 180 45.5t77 114.5q0 120 -257 159q-122 18 -216 49.5t-169.5 83.5t-115.5 130t-40 179q0 129 75.5 231t198.5 156.5
t267 54.5q185 0 336.5 -86t204.5 -233l-265 -97q-19 54 -97 93t-179 39q-101 2 -179.5 -44.5t-78.5 -113.5q0 -18 3 -33t11 -28t14.5 -22.5t22.5 -18.5t24.5 -14.5t31 -12t33 -9.5t38.5 -8t38 -6.5t42 -6.5q113 -17 208 -51.5t171 -87.5t118.5 -130.5t42.5 -172.5
q0 -129 -74.5 -231.5t-197.5 -157t-268 -54.5z" />
    <glyph glyph-name="scircumflex" unicode="&#x15d;" horiz-adv-x="892" 
d="M605 1432l199 -295h-189l-169 194l-166 -194h-189l195 295h319zM421 -18q-123 9 -223.5 66t-146.5 153l238 102q23 -32 65 -57.5t99 -25.5q53 0 90.5 20t37.5 61q0 22 -11.5 38t-35.5 26t-40.5 14.5t-47.5 10.5q-7 1 -10 2q-99 17 -179 58t-133 112.5t-53 160.5
q0 150 113 243t271 93q121 0 222.5 -50.5t164.5 -141.5l-224 -132q-22 31 -60 55t-80 28q-65 5 -104 -16t-39 -72q0 -24 19.5 -40.5t40.5 -23t57.5 -15t49.5 -12.5q56 -18 104.5 -39.5t93.5 -52t76 -65.5t49 -80.5t16 -96.5q0 -98 -60 -176.5t-156.5 -117t-203.5 -29.5z" />
    <glyph glyph-name="Scedilla" unicode="&#x15e;" horiz-adv-x="1287" 
d="M736 -388q-75 -20 -143 19t-88 114l139 38q5 -18 20.5 -27t34.5 -5q18 4 27.5 20.5t4.5 34.5q-10 34 -55 32l-141 -2l77 138q-175 7 -317 92.5t-193 224.5l266 98q19 -54 97 -93.5t179 -39.5q103 0 180 45.5t77 114.5q0 120 -257 159q-122 18 -216 49.5t-169.5 83.5
t-115.5 130t-40 179q0 129 75.5 231t198.5 156.5t267 54.5q185 0 336.5 -86t204.5 -233l-265 -97q-19 54 -97 93t-179 39q-101 2 -179.5 -44.5t-78.5 -113.5q0 -18 3 -33t11 -28t14.5 -22.5t22.5 -18.5t24.5 -14.5t31 -12t33 -9.5t38.5 -8t38 -6.5t42 -6.5
q113 -17 208 -51.5t171 -87.5t118.5 -130.5t42.5 -172.5q0 -160 -111.5 -275.5t-285.5 -151.5l-15 -27q77 -36 98 -119q21 -75 -18.5 -143t-115.5 -88z" />
    <glyph glyph-name="scedilla" unicode="&#x15f;" horiz-adv-x="892" 
d="M515 -388q-75 -20 -143 19t-88 114l139 38q4 -18 20 -27.5t34 -4.5q18 4 27.5 20.5t5.5 34.5q-10 34 -55 32l-142 -2l83 148q-116 14 -208.5 70t-136.5 147l238 102q23 -32 65 -57.5t99 -25.5q53 0 90.5 20t37.5 61q0 22 -11.5 38t-35.5 26t-40.5 14.5t-47.5 10.5
q-7 1 -10 2q-99 17 -179 58t-133 112.5t-53 160.5q0 150 113 243t271 93q121 0 222.5 -50.5t164.5 -141.5l-224 -132q-22 31 -60 55t-80 28q-65 5 -104 -16t-39 -72q0 -24 19.5 -40.5t40.5 -23t57.5 -15t49.5 -12.5q56 -18 104.5 -39.5t93.5 -52t76 -65.5t49 -80.5t16 -96.5
q0 -113 -77 -197t-195 -114l-18 -32q77 -36 98 -119q20 -75 -19 -143t-115 -88z" />
    <glyph glyph-name="Scaron" unicode="&#x160;" horiz-adv-x="1287" 
d="M485 1546l-198 295h188l169 -194l167 194h188l-195 -295h-319zM644 -27q-185 0 -336.5 86.5t-205.5 231.5l266 98q19 -54 97 -93.5t179 -39.5q103 0 180 45.5t77 114.5q0 120 -257 159q-122 18 -216 49.5t-169.5 83.5t-115.5 130t-40 179q0 129 75.5 231t198.5 156.5
t267 54.5q185 0 336.5 -86t204.5 -233l-265 -97q-19 54 -97 93t-179 39q-101 2 -179.5 -44.5t-78.5 -113.5q0 -18 3 -33t11 -28t14.5 -22.5t22.5 -18.5t24.5 -14.5t31 -12t33 -9.5t38.5 -8t38 -6.5t42 -6.5q113 -17 208 -51.5t171 -87.5t118.5 -130.5t42.5 -172.5
q0 -129 -74.5 -231.5t-197.5 -157t-268 -54.5z" />
    <glyph glyph-name="scaron" unicode="&#x161;" horiz-adv-x="892" 
d="M288 1137l-199 295h189l168 -195l167 195h189l-195 -295h-319zM421 -18q-123 9 -223.5 66t-146.5 153l238 102q23 -32 65 -57.5t99 -25.5q53 0 90.5 20t37.5 61q0 22 -11.5 38t-35.5 26t-40.5 14.5t-47.5 10.5q-7 1 -10 2q-99 17 -179 58t-133 112.5t-53 160.5
q0 150 113 243t271 93q121 0 222.5 -50.5t164.5 -141.5l-224 -132q-22 31 -60 55t-80 28q-65 5 -104 -16t-39 -72q0 -24 19.5 -40.5t40.5 -23t57.5 -15t49.5 -12.5q56 -18 104.5 -39.5t93.5 -52t76 -65.5t49 -80.5t16 -96.5q0 -98 -60 -176.5t-156.5 -117t-203.5 -29.5z" />
    <glyph glyph-name="uni0162" unicode="&#x162;" horiz-adv-x="1290" 
d="M655 -388q-76 -20 -144 19t-88 114l140 38q4 -18 20 -27.5t34 -4.5q18 4 27.5 20.5t4.5 34.5q-10 34 -54 32l-142 -2l93 164h-42v1151h-422v283h1126v-283h-422v-1151h-73l-23 -38q77 -36 98 -119q21 -75 -18.5 -143t-114.5 -88z" />
    <glyph glyph-name="uni0163" unicode="&#x163;" horiz-adv-x="741" 
d="M364 -388q-75 -20 -143.5 19t-88.5 114l139 38q4 -18 20.5 -27.5t35.5 -4.5q18 4 27 20.5t4 34.5q-10 34 -55 32l-141 -2l93 164h-42v741h-141v283h141v322h283v-322h184v-283h-184v-741h-74l-23 -38q78 -37 99 -119q21 -75 -18.5 -143t-115.5 -88z" />
    <glyph glyph-name="Tcaron" unicode="&#x164;" horiz-adv-x="1290" 
d="M486 1546l-198 295h188l169 -194l167 194h188l-194 -295h-320zM1208 1434v-283h-422v-1151h-282v1151h-422v283h1126z" />
    <glyph glyph-name="tcaron" unicode="&#x165;" horiz-adv-x="741" 
d="M548 1241l82 295h282l-176 -295h-188zM680 741h-184v-741h-283v741h-141v283h141v322h283v-322h184v-283z" />
    <glyph glyph-name="Utilde" unicode="&#x168;" horiz-adv-x="1402" 
d="M861 1533q-29 0 -73 19t-83.5 44t-81 48.5t-65 33.5t-34.5 -1q-15 -28 2 -87l-160 -44q-45 130 5.5 219t170.5 89q43 0 116 -36t133.5 -72.5t72.5 -36.5q43 0 12 84l163 53q44 -134 -9 -223.5t-169 -89.5zM702 -27q-168 0 -301.5 84t-205.5 226.5t-72 314.5v836h283v-836
q0 -146 80 -244t216 -98q138 0 216.5 97.5t78.5 244.5v836h283v-836q0 -172 -72 -314.5t-205 -226.5t-301 -84z" />
    <glyph glyph-name="utilde" unicode="&#x169;" horiz-adv-x="1115" 
d="M753 1125q-43 0 -124 46t-142 81t-71 17q-15 -27 2 -86l-161 -44q-45 130 5.5 219t170.5 89q43 0 116 -36.5t134 -73.5t73 -37q14 0 20.5 7.5t5 21.5t-4.5 26t-10 30l164 54q44 -134 -9 -224t-169 -90zM82 375v649h283v-571q0 -81 56.5 -137t135.5 -56q80 0 136.5 56
t56.5 137v571h282l1 -1024h-282l-1 78q-113 -105 -267 -105q-166 0 -283.5 117.5t-117.5 284.5z" />
    <glyph glyph-name="Umacron" unicode="&#x16a;" horiz-adv-x="1402" 
d="M355 1782h693v-209h-693v209zM702 -27q-168 0 -301.5 84t-205.5 226.5t-72 314.5v836h283v-836q0 -146 80 -244t216 -98q138 0 216.5 97.5t78.5 244.5v836h283v-836q0 -172 -72 -314.5t-205 -226.5t-301 -84z" />
    <glyph glyph-name="umacron" unicode="&#x16b;" horiz-adv-x="1115" 
d="M247 1374h692v-209h-692v209zM82 375v649h283v-571q0 -81 56.5 -137t135.5 -56q80 0 136.5 56t56.5 137v571h282l1 -1024h-282l-1 78q-113 -105 -267 -105q-166 0 -283.5 117.5t-117.5 284.5z" />
    <glyph glyph-name="Ubreve" unicode="&#x16c;" horiz-adv-x="1402" 
d="M701 1524q-139 0 -239.5 100t-100.5 240h173q0 -69 49 -118.5t118 -49.5q70 0 119 49t49 119h172q0 -142 -99.5 -241t-240.5 -99zM702 -27q-168 0 -301.5 84t-205.5 226.5t-72 314.5v836h283v-836q0 -146 80 -244t216 -98q138 0 216.5 97.5t78.5 244.5v836h283v-836
q0 -172 -72 -314.5t-205 -226.5t-301 -84z" />
    <glyph glyph-name="ubreve" unicode="&#x16d;" horiz-adv-x="1115" 
d="M593 1116q-139 0 -239.5 100t-100.5 240h172q0 -68 49.5 -118t118.5 -50q70 0 119 48.5t49 119.5h172q0 -142 -99.5 -241t-240.5 -99zM82 375v649h283v-571q0 -81 56.5 -137t135.5 -56q80 0 136.5 56t56.5 137v571h282l1 -1024h-282l-1 78q-113 -105 -267 -105
q-166 0 -283.5 117.5t-117.5 284.5z" />
    <glyph glyph-name="Uring" unicode="&#x16e;" horiz-adv-x="1402" 
d="M701 1495q-82 0 -140 59t-58 142q0 81 58 138.5t140 57.5t140.5 -57.5t58.5 -138.5q0 -84 -58 -142.5t-141 -58.5zM701 1629q27 0 46 19t19 47q0 26 -19 44.5t-46 18.5t-45.5 -18.5t-18.5 -44.5q0 -28 18.5 -47t45.5 -19zM702 -27q-168 0 -301.5 84t-205.5 226.5
t-72 314.5v836h283v-836q0 -146 80 -244t216 -98q138 0 216.5 97.5t78.5 244.5v836h283v-836q0 -172 -72 -314.5t-205 -226.5t-301 -84z" />
    <glyph glyph-name="uring" unicode="&#x16f;" horiz-adv-x="1115" 
d="M593 1087q-82 0 -140.5 59t-58.5 142q0 80 58.5 138.5t140.5 58.5t140.5 -58.5t58.5 -138.5q0 -84 -58 -142.5t-141 -58.5zM593 1222q27 0 45.5 18.5t18.5 46.5q0 26 -18.5 45t-45.5 19t-46 -19t-19 -45q0 -28 19 -46.5t46 -18.5zM82 375v649h283v-571q0 -81 56.5 -137
t135.5 -56q80 0 136.5 56t56.5 137v571h282l1 -1024h-282l-1 78q-113 -105 -267 -105q-166 0 -283.5 117.5t-117.5 284.5z" />
    <glyph glyph-name="Uhungarumlaut" unicode="&#x170;" horiz-adv-x="1402" 
d="M819 1546l82 295h283l-176 -295h-189zM457 1546l82 295h282l-176 -295h-188zM702 -27q-168 0 -301.5 84t-205.5 226.5t-72 314.5v836h283v-836q0 -146 80 -244t216 -98q138 0 216.5 97.5t78.5 244.5v836h283v-836q0 -172 -72 -314.5t-205 -226.5t-301 -84z" />
    <glyph glyph-name="uhungarumlaut" unicode="&#x171;" horiz-adv-x="1115" 
d="M711 1139l82 295h282l-176 -295h-188zM348 1139l82 295h283l-176 -295h-189zM82 375v649h283v-571q0 -81 56.5 -137t135.5 -56q80 0 136.5 56t56.5 137v571h282l1 -1024h-282l-1 78q-113 -105 -267 -105q-166 0 -283.5 117.5t-117.5 284.5z" />
    <glyph glyph-name="Uogonek" unicode="&#x172;" horiz-adv-x="1402" 
d="M743 -478q-113 0 -185 77.5t-72 181.5q0 105 76 180l24 24q-208 41 -335.5 211.5t-127.5 401.5v836h283v-836q0 -146 80 -244t216 -98q138 0 216.5 97.5t78.5 244.5v836h283v-836q0 -217 -112.5 -382t-300.5 -220q-9 -9 -48.5 -47t-51.5 -51t-34.5 -40.5t-30.5 -47.5
t-8 -40q0 -25 17 -43.5t44 -19.5q39 0 67 28t28 68h175q0 -115 -81.5 -198t-200.5 -83z" />
    <glyph glyph-name="uogonek" unicode="&#x173;" horiz-adv-x="1115" 
d="M82 375v649h283v-571q0 -81 56.5 -137t135.5 -56q80 0 136.5 56t56.5 137v571h282l1 -1024h-3q-13 -13 -49 -48t-50 -50t-36 -41t-30 -47t-8 -41q0 -24 17 -43t44 -19q39 0 67 28t28 67h176q0 -114 -82 -197.5t-201 -83.5q-113 1 -184.5 78.5t-71.5 180.5q0 105 75 181
l35 35h-9l-1 78q-113 -105 -267 -105q-166 0 -283.5 117.5t-117.5 284.5z" />
    <glyph glyph-name="Wcircumflex" unicode="&#x174;" horiz-adv-x="1965" 
d="M1142 1841l198 -295h-188l-169 195l-167 -195h-188l194 295h320zM461 0l-367 1434h292l234 -917l233 917h259l234 -917l233 917h292l-365 -1434h-319l-204 797l-203 -797h-319z" />
    <glyph glyph-name="wcircumflex" unicode="&#x175;" horiz-adv-x="1771" 
d="M1044 1432l199 -295h-188l-169 194l-167 -194h-189l195 295h319zM682 0h-279l-342 1024h277l206 -613l204 613h276l204 -613l205 613h277l-343 -1024h-277l-204 614z" />
    <glyph glyph-name="Ycircumflex" unicode="&#x176;" horiz-adv-x="1396" 
d="M857 1841l199 -295h-189l-169 195l-167 -195h-188l195 295h319zM1001 1434h334l-495 -788v-646h-283v646l-496 788h334l303 -481z" />
    <glyph glyph-name="ycircumflex" unicode="&#x177;" horiz-adv-x="1208" 
d="M763 1432l199 -295h-189l-169 194l-167 -194h-188l194 295h320zM825 1024h301l-561 -1536h-299l185 512l-369 1024h309l201 -638z" />
    <glyph glyph-name="Ydieresis" unicode="&#x178;" horiz-adv-x="1396" 
d="M483 1502q-62 0 -103 41t-41 102q0 60 41.5 101.5t102.5 41.5q60 0 102 -41.5t42 -101.5q0 -61 -42 -102t-102 -41zM914 1502q-62 0 -103 41t-41 102q0 60 41.5 101.5t102.5 41.5q60 0 102 -41.5t42 -101.5q0 -61 -42 -102t-102 -41zM1001 1434h334l-495 -788v-646h-283
v646l-496 788h334l303 -481z" />
    <glyph glyph-name="Zacute" unicode="&#x179;" horiz-adv-x="1323" 
d="M587 1546l82 295h282l-176 -295h-188zM82 0v283l777 868h-777v283h1159v-283l-777 -868h777v-283h-1159z" />
    <glyph glyph-name="zacute" unicode="&#x17a;" horiz-adv-x="1038" 
d="M444 1137l82 295h283l-176 -295h-189zM956 741l-466 -458h466v-283h-874v283l466 458h-466v283h874v-283z" />
    <glyph glyph-name="Zdotaccent" unicode="&#x17b;" horiz-adv-x="1323" 
d="M663 1551q-62 0 -103.5 41t-41.5 102q0 60 42 101t103 41q60 0 101.5 -41t41.5 -101q0 -62 -41 -102.5t-102 -40.5zM82 0v283l777 868h-777v283h1159v-283l-777 -868h777v-283h-1159z" />
    <glyph glyph-name="zdotaccent" unicode="&#x17c;" horiz-adv-x="1038" 
d="M520 1142q-62 0 -103 40.5t-41 101.5q0 60 41.5 101t102.5 41q60 0 102 -41t42 -101q0 -61 -41 -101.5t-103 -40.5zM956 741l-466 -458h466v-283h-874v283l466 458h-466v283h874v-283z" />
    <glyph glyph-name="Zcaron" unicode="&#x17d;" horiz-adv-x="1323" 
d="M503 1546l-199 295h189l169 -194l166 194h189l-195 -295h-319zM82 0v283l777 868h-777v283h1159v-283l-777 -868h777v-283h-1159z" />
    <glyph glyph-name="zcaron" unicode="&#x17e;" horiz-adv-x="1038" 
d="M360 1137l-198 295h188l169 -195l167 195h188l-194 -295h-320zM956 741l-466 -458h466v-283h-874v283l466 458h-466v283h874v-283z" />
    <glyph glyph-name="uni01CD" unicode="&#x1cd;" horiz-adv-x="1525" 
d="M604 1546l-198 295h188l169 -194l167 194h188l-194 -295h-320zM602 1434h322l520 -1434h-300l-86 238h-590l-86 -238h-300zM571 520h383l-192 526z" />
    <glyph glyph-name="uni01CE" unicode="&#x1ce;" horiz-adv-x="1239" 
d="M475 1137l-199 295h189l169 -195l167 195h188l-194 -295h-320zM874 1024h283v-1024h-284l-13 106q-88 -133 -249 -133q-150 0 -276.5 74t-200 201t-73.5 277q0 143 70 264.5t191 192.5t264 71q168 0 301 -142zM604 245q104 0 176 78t72 189t-71.5 189t-176.5 78
q-106 0 -179.5 -78t-73.5 -189t74.5 -189t178.5 -78z" />
    <glyph glyph-name="uni01CF" unicode="&#x1cf;" horiz-adv-x="589" 
d="M136 1546l-198 295h188l169 -194l167 194h188l-194 -295h-320zM154 0v1434h282v-1434h-282z" />
    <glyph glyph-name="uni01D0" unicode="&#x1d0;" horiz-adv-x="528" 
d="M105 1137l-198 295h188l169 -195l167 195h189l-195 -295h-320zM123 1024h283v-1024h-283v1024z" />
    <glyph glyph-name="uni01D1" unicode="&#x1d1;" horiz-adv-x="1576" 
d="M630 1546l-199 295h189l168 -194l167 194h189l-195 -295h-319zM788 -27q-143 0 -274 59t-225.5 158.5t-150.5 237.5t-56 289t56 288.5t150.5 237t225.5 158.5t274 59q191 0 354 -99.5t258 -270.5t95 -373q0 -151 -56 -289t-151 -237.5t-226 -158.5t-274 -59zM788 256
q115 0 212.5 62t154.5 168.5t57 230.5q0 190 -125 325.5t-299 135.5q-115 0 -212.5 -62t-154 -168.5t-56.5 -230.5t57 -230.5t154.5 -168.5t211.5 -62z" />
    <glyph glyph-name="uni01D2" unicode="&#x1d2;" 
d="M415 1137l-199 295h188l169 -195l167 195h189l-195 -295h-319zM573 -27q-139 0 -257 72.5t-186.5 196.5t-68.5 270q0 147 68.5 271.5t186.5 197t257 72.5t257 -72.5t186.5 -197t68.5 -271.5q0 -146 -68.5 -270t-186.5 -196.5t-257 -72.5zM573 256q96 0 163 75.5t67 180.5
q0 106 -68 182t-162 76q-96 0 -162.5 -76.5t-66.5 -181.5q0 -107 67.5 -181.5t161.5 -74.5z" />
    <glyph glyph-name="uni01D3" unicode="&#x1d3;" horiz-adv-x="1402" 
d="M543 1546l-199 295h188l169 -194l167 194h189l-195 -295h-319zM702 -27q-168 0 -301.5 84t-205.5 226.5t-72 314.5v836h283v-836q0 -146 80 -244t216 -98q138 0 216.5 97.5t78.5 244.5v836h283v-836q0 -172 -72 -314.5t-205 -226.5t-301 -84z" />
    <glyph glyph-name="uni01D4" unicode="&#x1d4;" horiz-adv-x="1115" 
d="M434 1139l-198 295h188l169 -195l167 195h188l-194 -295h-320zM82 375v649h283v-571q0 -81 56.5 -137t135.5 -56q80 0 136.5 56t56.5 137v571h282l1 -1024h-282l-1 78q-113 -105 -267 -105q-166 0 -283.5 117.5t-117.5 284.5z" />
    <glyph glyph-name="uni01D5" unicode="&#x1d5;" horiz-adv-x="1402" 
d="M355 2093h693v-209h-693v209zM487 1502q-62 0 -103.5 41t-41.5 102q0 60 42 101.5t103 41.5q60 0 101.5 -41.5t41.5 -101.5q0 -61 -41.5 -102t-101.5 -41zM919 1502q-62 0 -104 41t-42 102q0 60 42.5 101.5t103.5 41.5q60 0 101 -41.5t41 -101.5q0 -61 -41 -102t-101 -41
zM702 -27q-168 0 -301.5 84t-205.5 226.5t-72 314.5v836h283v-836q0 -146 80 -244t216 -98q138 0 216.5 97.5t78.5 244.5v836h283v-836q0 -172 -72 -314.5t-205 -226.5t-301 -84z" />
    <glyph glyph-name="uni01D6" unicode="&#x1d6;" horiz-adv-x="1115" 
d="M247 1686h692v-209h-692v209zM379 1094q-62 0 -104 41t-42 102q0 60 42 101t104 41q60 0 101 -41t41 -101q0 -61 -41 -102t-101 -41zM810 1094q-62 0 -103.5 41t-41.5 102q0 60 42 101t103 41q60 0 101 -41t41 -101q0 -61 -41 -102t-101 -41zM82 375v649h283v-571
q0 -81 56.5 -137t135.5 -56q80 0 136.5 56t56.5 137v571h282l1 -1024h-282l-1 78q-113 -105 -267 -105q-166 0 -283.5 117.5t-117.5 284.5z" />
    <glyph glyph-name="uni01D7" unicode="&#x1d7;" horiz-adv-x="1402" 
d="M627 1858l82 294h282l-176 -294h-188zM487 1502q-62 0 -103.5 41t-41.5 102q0 60 42 101.5t103 41.5q60 0 101.5 -41.5t41.5 -101.5q0 -61 -41.5 -102t-101.5 -41zM919 1502q-62 0 -104 41t-42 102q0 60 42.5 101.5t103.5 41.5q60 0 101 -41.5t41 -101.5q0 -61 -41 -102
t-101 -41zM702 -27q-168 0 -301.5 84t-205.5 226.5t-72 314.5v836h283v-836q0 -146 80 -244t216 -98q138 0 216.5 97.5t78.5 244.5v836h283v-836q0 -172 -72 -314.5t-205 -226.5t-301 -84z" />
    <glyph glyph-name="uni01D8" unicode="&#x1d8;" horiz-adv-x="1115" 
d="M518 1450l82 295h283l-176 -295h-189zM379 1094q-62 0 -104 41t-42 102q0 60 42 101t104 41q60 0 101 -41t41 -101q0 -61 -41 -102t-101 -41zM810 1094q-62 0 -103.5 41t-41.5 102q0 60 42 101t103 41q60 0 101 -41t41 -101q0 -61 -41 -102t-101 -41zM82 375v649h283
v-571q0 -81 56.5 -137t135.5 -56q80 0 136.5 56t56.5 137v571h282l1 -1024h-282l-1 78q-113 -105 -267 -105q-166 0 -283.5 117.5t-117.5 284.5z" />
    <glyph glyph-name="uni01D9" unicode="&#x1d9;" horiz-adv-x="1402" 
d="M543 1858l-199 294h188l169 -194l167 194h189l-195 -294h-319zM487 1502q-62 0 -103.5 41t-41.5 102q0 60 42 101.5t103 41.5q60 0 101.5 -41.5t41.5 -101.5q0 -61 -41.5 -102t-101.5 -41zM919 1502q-62 0 -104 41t-42 102q0 60 42.5 101.5t103.5 41.5q60 0 101 -41.5
t41 -101.5q0 -61 -41 -102t-101 -41zM702 -27q-168 0 -301.5 84t-205.5 226.5t-72 314.5v836h283v-836q0 -146 80 -244t216 -98q138 0 216.5 97.5t78.5 244.5v836h283v-836q0 -172 -72 -314.5t-205 -226.5t-301 -84z" />
    <glyph glyph-name="uni01DA" unicode="&#x1da;" horiz-adv-x="1115" 
d="M434 1450l-198 295h188l169 -195l167 195h188l-194 -295h-320zM379 1094q-62 0 -104 41t-42 102q0 60 42 101t104 41q60 0 101 -41t41 -101q0 -61 -41 -102t-101 -41zM810 1094q-62 0 -103.5 41t-41.5 102q0 60 42 101t103 41q60 0 101 -41t41 -101q0 -61 -41 -102
t-101 -41zM82 375v649h283v-571q0 -81 56.5 -137t135.5 -56q80 0 136.5 56t56.5 137v571h282l1 -1024h-282l-1 78q-113 -105 -267 -105q-166 0 -283.5 117.5t-117.5 284.5z" />
    <glyph glyph-name="uni01DB" unicode="&#x1db;" horiz-adv-x="1402" 
d="M413 2152h282l82 -294h-188zM487 1502q-62 0 -103.5 41t-41.5 102q0 60 42 101.5t103 41.5q60 0 101.5 -41.5t41.5 -101.5q0 -61 -41.5 -102t-101.5 -41zM919 1502q-62 0 -104 41t-42 102q0 60 42.5 101.5t103.5 41.5q60 0 101 -41.5t41 -101.5q0 -61 -41 -102t-101 -41z
M702 -27q-168 0 -301.5 84t-205.5 226.5t-72 314.5v836h283v-836q0 -146 80 -244t216 -98q138 0 216.5 97.5t78.5 244.5v836h283v-836q0 -172 -72 -314.5t-205 -226.5t-301 -84z" />
    <glyph glyph-name="uni01DC" unicode="&#x1dc;" horiz-adv-x="1115" 
d="M304 1745h283l82 -295h-189zM379 1094q-62 0 -104 41t-42 102q0 60 42 101t104 41q60 0 101 -41t41 -101q0 -61 -41 -102t-101 -41zM810 1094q-62 0 -103.5 41t-41.5 102q0 60 42 101t103 41q60 0 101 -41t41 -101q0 -61 -41 -102t-101 -41zM82 375v649h283v-571
q0 -81 56.5 -137t135.5 -56q80 0 136.5 56t56.5 137v571h282l1 -1024h-282l-1 78q-113 -105 -267 -105q-166 0 -283.5 117.5t-117.5 284.5z" />
    <glyph glyph-name="uni01DE" unicode="&#x1de;" horiz-adv-x="1525" 
d="M417 2093h692v-209h-692v209zM548 1502q-62 0 -103.5 41t-41.5 102q0 60 42 101.5t103 41.5q60 0 101.5 -41.5t41.5 -101.5q0 -61 -41.5 -102t-101.5 -41zM979 1502q-62 0 -103 41t-41 102q0 60 41.5 101.5t102.5 41.5q60 0 101.5 -41.5t41.5 -101.5q0 -61 -41.5 -102
t-101.5 -41zM602 1434h322l520 -1434h-300l-86 238h-590l-86 -238h-300zM571 520h383l-192 526z" />
    <glyph glyph-name="uni01DF" unicode="&#x1df;" horiz-adv-x="1239" 
d="M288 1683h692v-208h-692v208zM419 1093q-62 0 -103.5 40.5t-41.5 101.5q0 60 42 101.5t103 41.5q60 0 101.5 -41.5t41.5 -101.5q0 -61 -41.5 -101.5t-101.5 -40.5zM851 1093q-62 0 -103.5 40.5t-41.5 101.5q0 60 42 101.5t103 41.5q60 0 101 -41.5t41 -101.5
q0 -61 -41 -101.5t-101 -40.5zM874 1024h283v-1024h-284l-13 106q-88 -133 -249 -133q-150 0 -276.5 74t-200 201t-73.5 277q0 143 70 264.5t191 192.5t264 71q168 0 301 -142zM604 245q104 0 176 78t72 189t-71.5 189t-176.5 78q-106 0 -179.5 -78t-73.5 -189t74.5 -189
t178.5 -78z" />
    <glyph glyph-name="uni01E2" unicode="&#x1e2;" horiz-adv-x="1736" 
d="M772 1782h692v-209h-692v209zM82 0l520 1434h1032v-283h-481v-293h383v-283h-383v-292h481v-283h-764v238h-402l-86 -238h-300zM571 520h299v631h-69z" />
    <glyph glyph-name="uni01E3" unicode="&#x1e3;" horiz-adv-x="1755" 
d="M479 1374h692v-209h-692v209zM373 -27q-145 0 -243.5 96.5t-98.5 230.5q0 133 98.5 230t243.5 97h286q-15 63 -63.5 103t-117.5 40q-79 0 -146 -41l-156 235q133 89 299 89q102 0 193.5 -41.5t156.5 -116.5q69 74 162 116t196 42q96 0 182.5 -34.5t151 -95.5t109 -140
t60.5 -174t0 -191h-711q22 -73 76 -117.5t134 -44.5q105 0 173 93l288 -66q-63 -139 -187.5 -224.5t-275.5 -85.5q-116 0 -217.5 52t-171.5 142q-60 -80 -176 -137t-245 -57zM965 627h435q-21 78 -81 129t-136 51t-136 -50.5t-82 -129.5zM373 219q129 0 215 94q41 41 70 105
h-285q-40 0 -68.5 -28t-28.5 -68t28.5 -71.5t68.5 -31.5z" />
    <glyph glyph-name="Gcaron" unicode="&#x1e6;" horiz-adv-x="1573" 
d="M629 1546l-199 295h188l169 -194l167 194h189l-195 -295h-319zM786 -27q-147 0 -278.5 59.5t-224 160t-147 238t-54.5 288.5q0 159 59.5 298.5t158 235t227.5 150.5t266 55q157 0 301.5 -73.5t255.5 -221.5l-252 -135q-131 150 -310 150q-170 0 -296.5 -133t-126.5 -332
q0 -190 125 -323.5t301 -133.5q111 0 209.5 63.5t157.5 182.5h-222v246h555q6 -156 -47.5 -299t-148 -247.5t-228 -166.5t-281.5 -62z" />
    <glyph glyph-name="gcaron" unicode="&#x1e7;" horiz-adv-x="1271" 
d="M477 1137l-198 295h188l169 -195l167 195h188l-194 -295h-320zM866 1024h283v-1038q0 -111 -46.5 -205.5t-125 -158t-182 -99t-217.5 -35.5q-161 0 -300 92.5t-204 239.5l258 118q31 -75 99 -120t147 -45q119 0 203.5 56.5t84.5 156.5v118q-104 -131 -269 -131
q-145 0 -268.5 72.5t-195.5 196.5t-72 270t72 270t195.5 196.5t268.5 72.5q165 0 269 -131v104zM601 245q104 0 175.5 78t71.5 189t-71.5 189t-175.5 78q-103 0 -176.5 -78t-73.5 -189t73.5 -189t176.5 -78z" />
    <glyph glyph-name="uni01E8" unicode="&#x1e8;" horiz-adv-x="1233" 
d="M459 1546l-199 295h189l168 -194l167 194h189l-196 -295h-318zM1209 0h-368l-382 537l-53 -64v-473h-283v1434h283v-522l436 522h368l-567 -676z" />
    <glyph glyph-name="uni01E9" unicode="&#x1e9;" horiz-adv-x="1124" 
d="M524 1546l-197 295h188l169 -194l166 194h189l-195 -295h-320zM1073 0h-325l-218 374l-124 -149v-225h-283v1536h283v-871l301 359h368l-351 -421z" />
    <glyph glyph-name="uni0218" unicode="&#x218;" horiz-adv-x="1287" 
d="M644 -27q-185 0 -336.5 86.5t-205.5 231.5l266 98q19 -54 97 -93.5t179 -39.5q103 0 180 45.5t77 114.5q0 120 -257 159q-122 18 -216 49.5t-169.5 83.5t-115.5 130t-40 179q0 129 75.5 231t198.5 156.5t267 54.5q185 0 336.5 -86t204.5 -233l-265 -97q-19 54 -97 93
t-179 39q-101 2 -179.5 -44.5t-78.5 -113.5q0 -18 3 -33t11 -28t14.5 -22.5t22.5 -18.5t24.5 -14.5t31 -12t33 -9.5t38.5 -8t38 -6.5t42 -6.5q113 -17 208 -51.5t171 -87.5t118.5 -130.5t42.5 -172.5q0 -129 -74.5 -231.5t-197.5 -157t-268 -54.5zM522 -452l64 347h282
l-157 -347h-189z" />
    <glyph glyph-name="uni0219" unicode="&#x219;" horiz-adv-x="892" 
d="M421 -18q-123 9 -223.5 66t-146.5 153l238 102q23 -32 65 -57.5t99 -25.5q53 0 90.5 20t37.5 61q0 22 -11.5 38t-35.5 26t-40.5 14.5t-47.5 10.5q-7 1 -10 2q-99 17 -179 58t-133 112.5t-53 160.5q0 150 113 243t271 93q121 0 222.5 -50.5t164.5 -141.5l-224 -132
q-22 31 -60 55t-80 28q-65 5 -104 -16t-39 -72q0 -24 19.5 -40.5t40.5 -23t57.5 -15t49.5 -12.5q56 -18 104.5 -39.5t93.5 -52t76 -65.5t49 -80.5t16 -96.5q0 -98 -60 -176.5t-156.5 -117t-203.5 -29.5zM300 -452l64 347h282l-158 -347h-188z" />
    <glyph glyph-name="uni021A" unicode="&#x21a;" horiz-adv-x="1290" 
d="M1208 1434v-283h-422v-1151h-282v1151h-422v283h1126zM440 -452l64 347h282l-157 -347h-189z" />
    <glyph glyph-name="uni021B" unicode="&#x21b;" horiz-adv-x="741" 
d="M680 741h-184v-741h-283v741h-141v283h141v322h283v-322h184v-283zM150 -452l63 347h283l-158 -347h-188z" />
    <glyph glyph-name="uni022A" unicode="&#x22a;" horiz-adv-x="1576" 
d="M442 2093h693v-209h-693v209zM573 1502q-62 0 -103 41t-41 102q0 60 41.5 101.5t102.5 41.5q60 0 102 -41.5t42 -101.5q0 -61 -42 -102t-102 -41zM1006 1502q-62 0 -104 41t-42 102q0 60 42.5 101.5t103.5 41.5q60 0 101 -41.5t41 -101.5q0 -61 -41 -102t-101 -41z
M788 -27q-143 0 -274 59t-225.5 158.5t-150.5 237.5t-56 289t56 288.5t150.5 237t225.5 158.5t274 59q191 0 354 -99.5t258 -270.5t95 -373q0 -151 -56 -289t-151 -237.5t-226 -158.5t-274 -59zM788 256q115 0 212.5 62t154.5 168.5t57 230.5q0 190 -125 325.5t-299 135.5
q-115 0 -212.5 -62t-154 -168.5t-56.5 -230.5t57 -230.5t154.5 -168.5t211.5 -62z" />
    <glyph glyph-name="uni022B" unicode="&#x22b;" 
d="M227 1683h693v-208h-693v208zM358 1093q-62 0 -103 40.5t-41 101.5q0 60 41.5 101.5t102.5 41.5q60 0 102 -41.5t42 -101.5q0 -61 -41.5 -101.5t-102.5 -40.5zM791 1093q-62 0 -104 40.5t-42 101.5q0 60 42.5 101.5t103.5 41.5q60 0 101 -41.5t41 -101.5
q0 -61 -41 -101.5t-101 -40.5zM573 -27q-139 0 -257 72.5t-186.5 196.5t-68.5 270q0 147 68.5 271.5t186.5 197t257 72.5t257 -72.5t186.5 -197t68.5 -271.5q0 -146 -68.5 -270t-186.5 -196.5t-257 -72.5zM573 256q96 0 163 75.5t67 180.5q0 106 -68 182t-162 76
q-96 0 -162.5 -76.5t-66.5 -181.5q0 -107 67.5 -181.5t161.5 -74.5z" />
    <glyph glyph-name="uni0232" unicode="&#x232;" horiz-adv-x="1396" 
d="M352 1782h692v-209h-692v209zM1001 1434h334l-495 -788v-646h-283v646l-496 788h334l303 -481z" />
    <glyph glyph-name="uni0233" unicode="&#x233;" horiz-adv-x="1208" 
d="M258 1372h692v-209h-692v209zM825 1024h301l-561 -1536h-299l185 512l-369 1024h309l201 -638z" />
    <glyph glyph-name="uni0237" unicode="&#x237;" horiz-adv-x="513" 
d="M-82 -512v283q78 0 134 55t56 133v1065h282v-1065q0 -195 -137.5 -333t-334.5 -138z" />
    <glyph glyph-name="quoteleft" unicode="&#x2bb;" horiz-adv-x="448" 
d="M61 899l158 535h189l-64 -535h-283z" />
    <glyph glyph-name="quoteleft" unicode="&#x2018;" horiz-adv-x="448" 
d="M61 899l158 535h189l-64 -535h-283z" />
    <glyph glyph-name="uni02BC" unicode="&#x2bc;" horiz-adv-x="585" 
d="M41 899l63 535h283l-158 -535h-188z" />
    <glyph glyph-name="circumflex" unicode="&#x2c6;" horiz-adv-x="744" 
d="M530 1432l199 -295h-188l-169 194l-167 -194h-189l195 295h319z" />
    <glyph glyph-name="caron" unicode="&#x2c7;" horiz-adv-x="704" 
d="M195 1137l-199 295h188l169 -195l167 195h189l-195 -295h-319z" />
    <glyph glyph-name="breve" unicode="&#x2d8;" horiz-adv-x="1171" 
d="M586 1114q-140 0 -240 100t-100 240h172q0 -68 49.5 -118t118.5 -50t118.5 49t49.5 119h172q0 -142 -99.5 -241t-240.5 -99z" />
    <glyph glyph-name="dotaccent" unicode="&#x2d9;" horiz-adv-x="1106" 
d="M554 1142q-62 0 -103 40.5t-41 101.5q0 60 41.5 101t102.5 41q60 0 101.5 -41t41.5 -101q0 -61 -40.5 -101.5t-102.5 -40.5z" />
    <glyph glyph-name="ring" unicode="&#x2da;" horiz-adv-x="1216" 
d="M608 1085q-82 0 -140 59t-58 142q0 81 58 139t140 58t140.5 -58t58.5 -139q0 -84 -58.5 -142.5t-140.5 -58.5zM608 1220q27 0 46 18.5t19 46.5q0 26 -19 45t-46 19t-45.5 -19t-18.5 -45q0 -28 18.5 -46.5t45.5 -18.5z" />
    <glyph glyph-name="ogonek" unicode="&#x2db;" horiz-adv-x="1153" 
d="M564 -476q-113 0 -185 77.5t-72 180.5q0 105 76 181l172 172l135 -135q-11 -11 -49.5 -47.5t-51.5 -51t-36 -41.5t-31 -47.5t-8 -40.5q0 -25 17 -44t44 -19q39 0 67 28t28 68h176q0 -115 -81.5 -198t-200.5 -83z" />
    <glyph glyph-name="tilde" unicode="&#x2dc;" horiz-adv-x="1297" 
d="M822 1125q-43 0 -124 46t-142 81t-71 17q-15 -28 1 -86l-160 -44q-45 130 5.5 219t171.5 89q43 0 115.5 -36.5t133 -73.5t73.5 -37q14 0 20.5 7.5t5 21.5t-4.5 26t-10 30l164 54q44 -135 -9 -224.5t-169 -89.5z" />
    <glyph glyph-name="hungarumlaut" unicode="&#x2dd;" horiz-adv-x="1135" 
d="M567 1137l82 295h283l-176 -295h-189zM205 1137l82 295h282l-176 -295h-188z" />
    <glyph glyph-name="gravecomb" unicode="&#x300;" horiz-adv-x="0" 
d="M315 1432h283l82 -295h-188z" />
    <glyph glyph-name="acutecomb" unicode="&#x301;" horiz-adv-x="0" 
d="M463 1137l82 295h282l-176 -295h-188z" />
    <glyph glyph-name="uni0302" unicode="&#x302;" horiz-adv-x="0" 
d="M530 1432l199 -295h-188l-169 194l-167 -194h-189l195 295h319z" />
    <glyph glyph-name="tildecomb" unicode="&#x303;" horiz-adv-x="0" 
d="M824 1123q-29 0 -73 19t-83.5 44t-81 49t-65 34t-34.5 -1q-15 -29 1 -87l-160 -44q-44 130 6 219t171 89q43 0 115.5 -36.5t133 -73t73.5 -36.5q14 0 20.5 7t5 21t-4.5 26t-10 30l164 54q44 -134 -9 -224t-169 -90z" />
    <glyph glyph-name="uni0304" unicode="&#x304;" horiz-adv-x="0" 
d="M268 1372h693v-209h-693v209z" />
    <glyph glyph-name="uni0306" unicode="&#x306;" horiz-adv-x="0" 
d="M586 1114q-140 0 -240 100t-100 240h172q0 -68 49.5 -118t118.5 -50t118.5 49t49.5 119h172q0 -142 -99.5 -241t-240.5 -99z" />
    <glyph glyph-name="uni0307" unicode="&#x307;" horiz-adv-x="0" 
d="M554 1142q-62 0 -103 40.5t-41 101.5q0 60 41.5 101t102.5 41q60 0 101.5 -41t41.5 -101q0 -61 -40.5 -101.5t-102.5 -40.5z" />
    <glyph glyph-name="uni0308" unicode="&#x308;" horiz-adv-x="0" 
d="M555 1093q-62 0 -103.5 40.5t-41.5 101.5q0 60 42 101.5t103 41.5q60 0 101 -41.5t41 -101.5q0 -61 -41 -101.5t-101 -40.5zM986 1093q-62 0 -103.5 40.5t-41.5 101.5q0 60 42 101.5t103 41.5q60 0 101 -41.5t41 -101.5q0 -61 -41 -101.5t-101 -40.5z" />
    <glyph glyph-name="uni030A" unicode="&#x30a;" horiz-adv-x="0" 
d="M608 1085q-82 0 -140 59t-58 142q0 81 58 139t140 58t140.5 -58t58.5 -139q0 -84 -58.5 -142.5t-140.5 -58.5zM608 1220q27 0 46 18.5t19 46.5q0 26 -19 45t-46 19t-45.5 -19t-18.5 -45q0 -28 18.5 -46.5t45.5 -18.5z" />
    <glyph glyph-name="uni030B" unicode="&#x30b;" horiz-adv-x="0" 
d="M567 1137l82 295h283l-176 -295h-189zM205 1137l82 295h282l-176 -295h-188z" />
    <glyph glyph-name="uni030C" unicode="&#x30c;" horiz-adv-x="0" 
d="M195 1137l-199 295h188l169 -195l167 195h189l-195 -295h-319z" />
    <glyph glyph-name="dotbelowcomb" unicode="&#x323;" horiz-adv-x="0" 
d="M554 -465q-62 0 -103 40.5t-41 101.5q0 60 41.5 101.5t102.5 41.5q60 0 101.5 -41.5t41.5 -101.5q0 -61 -40.5 -101.5t-102.5 -40.5z" />
    <glyph glyph-name="uni0326" unicode="&#x326;" horiz-adv-x="0" 
d="M410 -452l63 347h283l-158 -347h-188z" />
    <glyph glyph-name="uni0327" unicode="&#x327;" horiz-adv-x="0" 
d="M643 -388q-75 -20 -143 19t-88 114l139 38q5 -18 20.5 -27t34.5 -5q18 4 27 20.5t5 34.5q-10 34 -55 32l-142 -2l150 264l126 -73l-38 -65q77 -36 98 -119q20 -75 -19 -143t-115 -88z" />
    <glyph glyph-name="uni0328" unicode="&#x328;" horiz-adv-x="0" 
d="M564 -476q-113 0 -185 77.5t-72 180.5q0 105 76 181l172 172l135 -135q-11 -11 -49.5 -47.5t-51.5 -51t-36 -41.5t-31 -47.5t-8 -40.5q0 -25 17 -44t44 -19q39 0 67 28t28 68h176q0 -115 -81.5 -198t-200.5 -83z" />
    <glyph glyph-name="uni03BC" unicode="&#x3bc;" horiz-adv-x="1185" 
d="M82 -442v1466h283v-517q0 -111 66.5 -186.5t170.5 -75.5q102 0 160.5 74.5t58.5 187.5v517h283v-1024h-283v105q-112 -134 -268 -134q-101 0 -188 51v-464h-283z" />
    <glyph glyph-name="uni1E04" unicode="&#x1e04;" horiz-adv-x="1220" 
d="M123 0v1434h533q178 0 296 -108t118 -283q0 -82 -33.5 -155t-104.5 -104q52 -13 90.5 -46t60 -73t35 -91.5t17.5 -93.5t4 -87q0 -165 -124.5 -279t-300.5 -114h-591zM406 889h218q69 0 116 44t47 113q0 68 -46.5 107t-116.5 39h-218v-303zM406 241h278q86 0 145 59.5
t59 150.5q0 78 -60.5 139.5t-143.5 61.5h-278v-411zM611 -465q-62 0 -103 40.5t-41 101.5q0 60 41.5 101.5t102.5 41.5q60 0 102 -41.5t42 -101.5q0 -61 -41 -101.5t-103 -40.5z" />
    <glyph glyph-name="uni1E05" unicode="&#x1e05;" horiz-adv-x="1281" 
d="M680 1053q147 0 271 -72.5t196.5 -196.5t72.5 -270q0 -147 -72.5 -271.5t-196.5 -197t-271 -72.5q-163 0 -274 138v-111h-283v1536h283v-621q111 138 274 138zM676 247q105 0 179.5 78t74.5 189q0 110 -74.5 188.5t-179.5 78.5q-103 0 -174.5 -78.5t-71.5 -188.5
q0 -111 71.5 -189t174.5 -78zM642 -465q-62 0 -103.5 40.5t-41.5 101.5q0 60 42 101.5t103 41.5q60 0 101 -41.5t41 -101.5q0 -61 -40 -101.5t-102 -40.5z" />
    <glyph glyph-name="uni1E0C" unicode="&#x1e0c;" horiz-adv-x="1376" 
d="M123 0v1434h475q145 0 278 -57t229 -153t153 -229t57 -278t-57 -278t-153 -229t-229 -153t-278 -57h-475zM406 283h192q178 0 306 127t128 307q0 179 -128 306.5t-306 127.5h-192v-868zM671 -465q-62 0 -103.5 40.5t-41.5 101.5q0 60 42 101.5t103 41.5q60 0 101 -41.5
t41 -101.5q0 -61 -40.5 -101.5t-101.5 -40.5z" />
    <glyph glyph-name="uni1E0D" unicode="&#x1e0d;" horiz-adv-x="1281" 
d="M876 1536h282v-1536h-282v109q-110 -136 -276 -136q-146 0 -270 72.5t-196.5 196.5t-72.5 270t72.5 270t196.5 196.5t270 72.5q167 0 276 -136v621zM604 245q104 0 176 78t72 189t-71.5 189t-176.5 78q-106 0 -179.5 -78t-73.5 -189t74.5 -189t178.5 -78zM634 -465
q-62 0 -103.5 40.5t-41.5 101.5q0 60 42 101.5t103 41.5q60 0 101.5 -41.5t41.5 -101.5q0 -61 -40.5 -101.5t-102.5 -40.5z" />
    <glyph glyph-name="uni1E20" unicode="&#x1e20;" horiz-adv-x="1573" 
d="M441 1782h693v-209h-693v209zM786 -27q-147 0 -278.5 59.5t-224 160t-147 238t-54.5 288.5q0 159 59.5 298.5t158 235t227.5 150.5t266 55q157 0 301.5 -73.5t255.5 -221.5l-252 -135q-131 150 -310 150q-170 0 -296.5 -133t-126.5 -332q0 -190 125 -323.5t301 -133.5
q111 0 209.5 63.5t157.5 182.5h-222v246h555q6 -156 -47.5 -299t-148 -247.5t-228 -166.5t-281.5 -62z" />
    <glyph glyph-name="uni1E21" unicode="&#x1e21;" horiz-adv-x="1271" 
d="M290 1372h692v-209h-692v209zM866 1024h283v-1038q0 -111 -46.5 -205.5t-125 -158t-182 -99t-217.5 -35.5q-161 0 -300 92.5t-204 239.5l258 118q31 -75 99 -120t147 -45q119 0 203.5 56.5t84.5 156.5v118q-104 -131 -269 -131q-145 0 -268.5 72.5t-195.5 196.5t-72 270
t72 270t195.5 196.5t268.5 72.5q165 0 269 -131v104zM601 245q104 0 175.5 78t71.5 189t-71.5 189t-175.5 78q-103 0 -176.5 -78t-73.5 -189t73.5 -189t176.5 -78z" />
    <glyph glyph-name="uni1E24" unicode="&#x1e24;" horiz-adv-x="1355" 
d="M950 1434h283v-1434h-283v627h-544v-627h-283v1434h283v-525h544v525zM679 -465q-62 0 -103 40.5t-41 101.5q0 60 41.5 101.5t102.5 41.5q60 0 101 -41.5t41 -101.5q0 -61 -40.5 -101.5t-101.5 -40.5z" />
    <glyph glyph-name="uni1E25" unicode="&#x1e25;" horiz-adv-x="1156" 
d="M1074 651v-651h-282v573q0 80 -57 136.5t-136 56.5q-80 0 -136 -56t-56 -137v-573h-283l-1 1536h283l1 -588q111 105 266 105q166 0 283.5 -117.5t117.5 -284.5zM637 -465q-62 0 -103 40.5t-41 101.5q0 60 41.5 101.5t102.5 41.5q60 0 101 -41.5t41 -101.5
q0 -61 -40.5 -101.5t-101.5 -40.5z" />
    <glyph glyph-name="uni1E2E" unicode="&#x1e2e;" horiz-adv-x="589" 
d="M220 1858l82 294h283l-176 -294h-189zM80 1502q-62 0 -103.5 41t-41.5 102q0 60 42 101.5t103 41.5q60 0 101.5 -41.5t41.5 -101.5q0 -61 -41.5 -102t-101.5 -41zM512 1502q-62 0 -103.5 41t-41.5 102q0 60 42 101.5t103 41.5q60 0 101 -41.5t41 -101.5q0 -61 -41 -102
t-101 -41zM154 0v1434h282v-1434h-282z" />
    <glyph glyph-name="uni1E2F" unicode="&#x1e2f;" horiz-adv-x="528" 
d="M189 1448l82 295h283l-176 -295h-189zM49 1093q-62 0 -103 40.5t-41 101.5q0 60 41.5 101.5t102.5 41.5q60 0 102 -41.5t42 -101.5q0 -61 -41.5 -101.5t-102.5 -40.5zM481 1093q-62 0 -103.5 40.5t-41.5 101.5q0 60 42 101.5t103 41.5q60 0 101.5 -41.5t41.5 -101.5
q0 -61 -41.5 -101.5t-101.5 -40.5zM123 1024h283v-1024h-283v1024z" />
    <glyph glyph-name="uni1E36" unicode="&#x1e36;" horiz-adv-x="1085" 
d="M123 0v1434h283v-1151h577v-283h-860zM554 -465q-62 0 -103 40.5t-41 101.5q0 60 41.5 101.5t102.5 41.5q60 0 101.5 -41.5t41.5 -101.5q0 -61 -40.5 -101.5t-102.5 -40.5z" />
    <glyph glyph-name="uni1E37" unicode="&#x1e37;" horiz-adv-x="528" 
d="M123 0v1536h283v-1536h-283zM265 -465q-62 0 -103 40.5t-41 101.5q0 60 41.5 101.5t102.5 41.5q60 0 102 -41.5t42 -101.5q0 -61 -41 -101.5t-103 -40.5z" />
    <glyph glyph-name="uni1E3E" unicode="&#x1e3e;" horiz-adv-x="1946" 
d="M898 1546l82 295h283l-177 -295h-188zM123 0l278 1434h239l333 -878l334 878h238l279 -1434h-289l-159 822l-306 -808h-194l-306 808l-159 -822h-288z" />
    <glyph glyph-name="uni1E3F" unicode="&#x1e3f;" horiz-adv-x="1819" 
d="M930 1137l82 295h282l-176 -295h-188zM123 0v1024h283v-76q113 105 266 105q102 0 190 -47.5t143 -128.5q55 81 142 128.5t189 47.5q166 0 284 -117.5t118 -284.5v-651h-283v573q0 79 -56 136t-135 57q-80 0 -136.5 -56t-56.5 -137v-573h-283v573q0 81 -55.5 137
t-135.5 56q-79 0 -135 -57t-56 -136v-573h-283z" />
    <glyph glyph-name="uni1E40" unicode="&#x1e40;" horiz-adv-x="1946" 
d="M974 1551q-62 0 -103.5 41t-41.5 102q0 60 42 101t103 41q60 0 101.5 -41t41.5 -101q0 -62 -40.5 -102.5t-102.5 -40.5zM123 0l278 1434h239l333 -878l334 878h238l279 -1434h-289l-159 822l-306 -808h-194l-306 808l-159 -822h-288z" />
    <glyph glyph-name="uni1E41" unicode="&#x1e41;" horiz-adv-x="1819" 
d="M1006 1142q-62 0 -103.5 40.5t-41.5 101.5q0 60 42 101t103 41q60 0 101.5 -41t41.5 -101q0 -61 -40.5 -101.5t-102.5 -40.5zM123 0v1024h283v-76q113 105 266 105q102 0 190 -47.5t143 -128.5q55 81 142 128.5t189 47.5q166 0 284 -117.5t118 -284.5v-651h-283v573
q0 79 -56 136t-135 57q-80 0 -136.5 -56t-56.5 -137v-573h-283v573q0 81 -55.5 137t-135.5 56q-79 0 -135 -57t-56 -136v-573h-283z" />
    <glyph glyph-name="uni1E42" unicode="&#x1e42;" horiz-adv-x="1946" 
d="M123 0l278 1434h239l333 -878l334 878h238l279 -1434h-289l-159 822l-306 -808h-194l-306 808l-159 -822h-288zM974 -465q-62 0 -103.5 40.5t-41.5 101.5q0 60 42 101.5t103 41.5q60 0 101.5 -41.5t41.5 -101.5q0 -61 -40.5 -101.5t-102.5 -40.5z" />
    <glyph glyph-name="uni1E43" unicode="&#x1e43;" horiz-adv-x="1819" 
d="M123 0v1024h283v-76q113 105 266 105q102 0 190 -47.5t143 -128.5q55 81 142 128.5t189 47.5q166 0 284 -117.5t118 -284.5v-651h-283v573q0 79 -56 136t-135 57q-80 0 -136.5 -56t-56.5 -137v-573h-283v573q0 81 -55.5 137t-135.5 56q-79 0 -135 -57t-56 -136v-573h-283
zM931 -465q-62 0 -103.5 40.5t-41.5 101.5q0 60 42 101.5t103 41.5q60 0 101.5 -41.5t41.5 -101.5q0 -61 -40.5 -101.5t-102.5 -40.5z" />
    <glyph glyph-name="uni1E44" unicode="&#x1e44;" horiz-adv-x="1392" 
d="M697 1551q-62 0 -103 41t-41 102q0 60 41.5 101t102.5 41q60 0 102 -41t42 -101q0 -61 -41 -102t-103 -41zM123 0v1434h305l559 -923v923h283v-1434h-305l-559 923v-923h-283z" />
    <glyph glyph-name="uni1E45" unicode="&#x1e45;" horiz-adv-x="1156" 
d="M618 1142q-62 0 -103 40.5t-41 101.5q0 60 41.5 101t102.5 41q60 0 101.5 -41t41.5 -101q0 -61 -40.5 -101.5t-102.5 -40.5zM1074 651v-651h-282v573q0 80 -57 136.5t-136 56.5q-80 0 -136 -56t-56 -137v-573h-283l-1 1024h283l1 -76q111 105 266 105q166 0 283.5 -117.5
t117.5 -284.5z" />
    <glyph glyph-name="uni1E46" unicode="&#x1e46;" horiz-adv-x="1392" 
d="M123 0v1434h305l559 -923v923h283v-1434h-305l-559 923v-923h-283zM697 -465q-62 0 -103 40.5t-41 101.5q0 60 41.5 101.5t102.5 41.5q60 0 102 -41.5t42 -101.5q0 -61 -41 -101.5t-103 -40.5z" />
    <glyph glyph-name="uni1E47" unicode="&#x1e47;" horiz-adv-x="1156" 
d="M1074 651v-651h-282v573q0 80 -57 136.5t-136 56.5q-80 0 -136 -56t-56 -137v-573h-283l-1 1024h283l1 -76q111 105 266 105q166 0 283.5 -117.5t117.5 -284.5zM600 -465q-62 0 -103 40.5t-41 101.5q0 60 41.5 101.5t102.5 41.5q60 0 101 -41.5t41 -101.5
q0 -61 -40 -101.5t-102 -40.5z" />
    <glyph glyph-name="uni1E62" unicode="&#x1e62;" horiz-adv-x="1287" 
d="M644 -27q-185 0 -336.5 86.5t-205.5 231.5l266 98q19 -54 97 -93.5t179 -39.5q103 0 180 45.5t77 114.5q0 120 -257 159q-122 18 -216 49.5t-169.5 83.5t-115.5 130t-40 179q0 129 75.5 231t198.5 156.5t267 54.5q185 0 336.5 -86t204.5 -233l-265 -97q-19 54 -97 93
t-179 39q-101 2 -179.5 -44.5t-78.5 -113.5q0 -18 3 -33t11 -28t14.5 -22.5t22.5 -18.5t24.5 -14.5t31 -12t33 -9.5t38.5 -8t38 -6.5t42 -6.5q113 -17 208 -51.5t171 -87.5t118.5 -130.5t42.5 -172.5q0 -129 -74.5 -231.5t-197.5 -157t-268 -54.5zM728 -465
q-62 0 -103.5 40.5t-41.5 101.5q0 60 42 101.5t103 41.5q60 0 101 -41.5t41 -101.5q0 -61 -40 -101.5t-102 -40.5z" />
    <glyph glyph-name="uni1E63" unicode="&#x1e63;" horiz-adv-x="892" 
d="M421 -18q-123 9 -223.5 66t-146.5 153l238 102q23 -32 65 -57.5t99 -25.5q53 0 90.5 20t37.5 61q0 22 -11.5 38t-35.5 26t-40.5 14.5t-47.5 10.5q-7 1 -10 2q-99 17 -179 58t-133 112.5t-53 160.5q0 150 113 243t271 93q121 0 222.5 -50.5t164.5 -141.5l-224 -132
q-22 31 -60 55t-80 28q-65 5 -104 -16t-39 -72q0 -24 19.5 -40.5t40.5 -23t57.5 -15t49.5 -12.5q56 -18 104.5 -39.5t93.5 -52t76 -65.5t49 -80.5t16 -96.5q0 -98 -60 -176.5t-156.5 -117t-203.5 -29.5zM506 -465q-62 0 -103.5 40.5t-41.5 101.5q0 60 42 101.5t103 41.5
q60 0 101.5 -41.5t41.5 -101.5q0 -61 -40.5 -101.5t-102.5 -40.5z" />
    <glyph glyph-name="uni1E6C" unicode="&#x1e6c;" horiz-adv-x="1290" 
d="M1208 1434v-283h-422v-1151h-282v1151h-422v283h1126zM646 -465q-62 0 -103 40.5t-41 101.5q0 60 41.5 101.5t102.5 41.5q60 0 101 -41.5t41 -101.5q0 -61 -40 -101.5t-102 -40.5z" />
    <glyph glyph-name="uni1E6D" unicode="&#x1e6d;" horiz-adv-x="741" 
d="M680 741h-184v-741h-283v741h-141v283h141v322h283v-322h184v-283zM355 -465q-62 0 -103.5 40.5t-41.5 101.5q0 60 42 101.5t103 41.5q60 0 101.5 -41.5t41.5 -101.5q0 -61 -40.5 -101.5t-102.5 -40.5z" />
    <glyph glyph-name="Wgrave" unicode="&#x1e80;" horiz-adv-x="1965" 
d="M693 1841h283l82 -295h-189zM461 0l-367 1434h292l234 -917l233 917h259l234 -917l233 917h292l-365 -1434h-319l-204 797l-203 -797h-319z" />
    <glyph glyph-name="wgrave" unicode="&#x1e81;" horiz-adv-x="1771" 
d="M597 1432h283l82 -295h-189zM682 0h-279l-342 1024h277l206 -613l204 613h276l204 -613l205 613h277l-343 -1024h-277l-204 614z" />
    <glyph glyph-name="Wacute" unicode="&#x1e82;" horiz-adv-x="1965" 
d="M908 1546l82 295h283l-176 -295h-189zM461 0l-367 1434h292l234 -917l233 917h259l234 -917l233 917h292l-365 -1434h-319l-204 797l-203 -797h-319z" />
    <glyph glyph-name="wacute" unicode="&#x1e83;" horiz-adv-x="1771" 
d="M811 1137l82 295h283l-177 -295h-188zM682 0h-279l-342 1024h277l206 -613l204 613h276l204 -613l205 613h277l-343 -1024h-277l-204 614z" />
    <glyph glyph-name="Wdieresis" unicode="&#x1e84;" horiz-adv-x="1965" 
d="M768 1502q-62 0 -103.5 41t-41.5 102q0 60 42 101.5t103 41.5q60 0 101.5 -41.5t41.5 -101.5q0 -61 -41.5 -102t-101.5 -41zM1199 1502q-62 0 -103 41t-41 102q0 60 41.5 101.5t102.5 41.5q60 0 101.5 -41.5t41.5 -101.5q0 -61 -41.5 -102t-101.5 -41zM461 0l-367 1434
h292l234 -917l233 917h259l234 -917l233 917h292l-365 -1434h-319l-204 797l-203 -797h-319z" />
    <glyph glyph-name="wdieresis" unicode="&#x1e85;" horiz-adv-x="1771" 
d="M671 1093q-62 0 -103.5 40.5t-41.5 101.5q0 60 42 101.5t103 41.5q60 0 101.5 -41.5t41.5 -101.5q0 -61 -41.5 -101.5t-101.5 -40.5zM1102 1093q-62 0 -103.5 40.5t-41.5 101.5q0 60 42 101.5t103 41.5q60 0 101.5 -41.5t41.5 -101.5q0 -61 -41.5 -101.5t-101.5 -40.5z
M682 0h-279l-342 1024h277l206 -613l204 613h276l204 -613l205 613h277l-343 -1024h-277l-204 614z" />
    <glyph glyph-name="uni1E92" unicode="&#x1e92;" horiz-adv-x="1323" 
d="M82 0v283l777 868h-777v283h1159v-283l-777 -868h777v-283h-1159zM663 -465q-62 0 -103.5 40.5t-41.5 101.5q0 60 42 101.5t103 41.5q60 0 101.5 -41.5t41.5 -101.5q0 -61 -40.5 -101.5t-102.5 -40.5z" />
    <glyph glyph-name="uni1E93" unicode="&#x1e93;" horiz-adv-x="1038" 
d="M956 741l-466 -458h466v-283h-874v283l466 458h-466v283h874v-283zM520 -465q-62 0 -103 40.5t-41 101.5q0 60 41.5 101.5t102.5 41.5q60 0 102 -41.5t42 -101.5q0 -61 -41 -101.5t-103 -40.5z" />
    <glyph glyph-name="uni1E97" unicode="&#x1e97;" horiz-adv-x="741" 
d="M139 1414q-62 0 -103.5 40.5t-41.5 101.5q0 60 42 102t103 42q60 0 102 -42t42 -102q0 -61 -41.5 -101.5t-102.5 -40.5zM570 1414q-62 0 -103 40.5t-41 101.5q0 60 41.5 102t102.5 42q60 0 102 -42t42 -102q0 -61 -41.5 -101.5t-102.5 -40.5zM680 741h-184v-741h-283v741
h-141v283h141v322h283v-322h184v-283z" />
    <glyph glyph-name="uni1E9E" unicode="&#x1e9e;" horiz-adv-x="1257" 
d="M123 0v903q0 144 71 266t193 193.5t266 71.5q105 0 199.5 -44.5t153.5 -121.5t59 -166q0 -28 -8.5 -54t-32.5 -59.5t-45.5 -59.5t-69 -81t-81.5 -97q89 17 175.5 -29t139.5 -128t53 -168q0 -99 -43 -182t-113 -135t-155.5 -80.5t-174.5 -28.5h-58l-57 241h85
q46 0 89.5 9.5t84.5 30t66 58.5t25 89t-25 89t-65.5 58.5t-84.5 30t-90 9.5h-83v105q0 50 28.5 116.5t63 117t63.5 95.5t29 59q0 20 -6 34.5t-20 23t-28 14t-38 8t-41.5 3t-46.5 0.5q-76 0 -135.5 -63t-59.5 -151v-977h-283z" />
    <glyph glyph-name="uni1EA0" unicode="&#x1ea0;" horiz-adv-x="1525" 
d="M602 1434h322l520 -1434h-300l-86 238h-590l-86 -238h-300zM571 520h383l-192 526zM764 -465q-62 0 -103 40.5t-41 101.5q0 60 41.5 101.5t102.5 41.5q60 0 101 -41.5t41 -101.5q0 -61 -40 -101.5t-102 -40.5z" />
    <glyph glyph-name="uni1EA1" unicode="&#x1ea1;" horiz-adv-x="1239" 
d="M874 1024h283v-1024h-284l-13 106q-88 -133 -249 -133q-150 0 -276.5 74t-200 201t-73.5 277q0 143 70 264.5t191 192.5t264 71q168 0 301 -142zM604 245q104 0 176 78t72 189t-71.5 189t-176.5 78q-106 0 -179.5 -78t-73.5 -189t74.5 -189t178.5 -78zM635 -465
q-62 0 -103.5 40.5t-41.5 101.5q0 60 42 101.5t103 41.5q60 0 101 -41.5t41 -101.5q0 -61 -40.5 -101.5t-101.5 -40.5z" />
    <glyph glyph-name="uni1EAC" unicode="&#x1eac;" horiz-adv-x="1525" 
d="M922 1841l198 -295h-188l-169 195l-167 -195h-188l194 295h320zM602 1434h322l520 -1434h-300l-86 238h-590l-86 -238h-300zM571 520h383l-192 526zM764 -465q-62 0 -103 40.5t-41 101.5q0 60 41.5 101.5t102.5 41.5q60 0 101 -41.5t41 -101.5q0 -61 -40 -101.5
t-102 -40.5z" />
    <glyph glyph-name="uni1EAD" unicode="&#x1ead;" horiz-adv-x="1239" 
d="M793 1432l198 -295h-188l-169 194l-167 -194h-188l194 295h320zM874 1024h283v-1024h-284l-13 106q-88 -133 -249 -133q-150 0 -276.5 74t-200 201t-73.5 277q0 143 70 264.5t191 192.5t264 71q168 0 301 -142zM604 245q104 0 176 78t72 189t-71.5 189t-176.5 78
q-106 0 -179.5 -78t-73.5 -189t74.5 -189t178.5 -78zM635 -465q-62 0 -103.5 40.5t-41.5 101.5q0 60 42 101.5t103 41.5q60 0 101 -41.5t41 -101.5q0 -61 -40.5 -101.5t-101.5 -40.5z" />
    <glyph glyph-name="uni1EB6" unicode="&#x1eb6;" horiz-adv-x="1525" 
d="M763 1524q-139 0 -239.5 100t-100.5 240h172q0 -68 49.5 -118t118.5 -50t118.5 49t49.5 119h172q0 -142 -99.5 -241t-240.5 -99zM602 1434h322l520 -1434h-300l-86 238h-590l-86 -238h-300zM571 520h383l-192 526zM764 -465q-62 0 -103 40.5t-41 101.5q0 60 41.5 101.5
t102.5 41.5q60 0 101 -41.5t41 -101.5q0 -61 -40 -101.5t-102 -40.5z" />
    <glyph glyph-name="uni1EB7" unicode="&#x1eb7;" horiz-adv-x="1239" 
d="M634 1114q-140 0 -240 100t-100 240h172q0 -68 49.5 -118t118.5 -50t118.5 49t49.5 119h172q0 -142 -99.5 -241t-240.5 -99zM874 1024h283v-1024h-284l-13 106q-88 -133 -249 -133q-150 0 -276.5 74t-200 201t-73.5 277q0 143 70 264.5t191 192.5t264 71q168 0 301 -142z
M604 245q104 0 176 78t72 189t-71.5 189t-176.5 78q-106 0 -179.5 -78t-73.5 -189t74.5 -189t178.5 -78zM635 -465q-62 0 -103.5 40.5t-41.5 101.5q0 60 42 101.5t103 41.5q60 0 101 -41.5t41 -101.5q0 -61 -40.5 -101.5t-101.5 -40.5z" />
    <glyph glyph-name="uni1EB8" unicode="&#x1eb8;" horiz-adv-x="1132" 
d="M123 0v1434h907v-283h-624v-242h487v-282h-487v-344h624v-283h-907zM567 -465q-62 0 -103 40.5t-41 101.5q0 60 41.5 101.5t102.5 41.5q60 0 102 -41.5t42 -101.5q0 -61 -41 -101.5t-103 -40.5z" />
    <glyph glyph-name="uni1EB9" unicode="&#x1eb9;" 
d="M573 -27q-139 0 -257 72.5t-186.5 196.5t-68.5 271t68.5 271t186.5 196.5t257 72.5q119 0 222.5 -53.5t171.5 -140.5t99 -203.5t11 -237.5h-710q22 -72 74.5 -116.5t131.5 -45.5q106 -1 176 93l288 -66q-64 -139 -188.5 -224.5t-275.5 -85.5zM356 627h436q-21 78 -82 129
t-137 51q-75 0 -135.5 -51t-81.5 -129zM574 -465q-62 0 -103 40.5t-41 101.5q0 60 41.5 101.5t102.5 41.5q60 0 101.5 -41.5t41.5 -101.5q0 -61 -40.5 -101.5t-102.5 -40.5z" />
    <glyph glyph-name="uni1EBC" unicode="&#x1ebc;" horiz-adv-x="1132" 
d="M726 1533q-29 0 -73 19t-83.5 44t-81 48.5t-65 33.5t-34.5 -1q-15 -28 2 -87l-161 -44q-45 130 6 219t171 89q33 0 86.5 -22.5t98.5 -50t85.5 -50t51.5 -22.5q14 0 20.5 7t5 21t-4.5 26t-10 30l164 53q44 -134 -9 -223.5t-169 -89.5zM123 0v1434h907v-283h-624v-242h487
v-282h-487v-344h624v-283h-907z" />
    <glyph glyph-name="uni1EBD" unicode="&#x1ebd;" 
d="M733 1123q-29 0 -73 19t-83.5 44t-81 49t-65 34t-34.5 -1q-15 -29 2 -87l-161 -44q-44 130 6 219t171 89q43 0 115.5 -36.5t133 -73t73.5 -36.5q14 0 20.5 7t5 21.5t-4.5 25.5t-9 30l163 54q44 -134 -9 -224t-169 -90zM573 -27q-139 0 -257 72.5t-186.5 196.5t-68.5 271
t68.5 271t186.5 196.5t257 72.5q119 0 222.5 -53.5t171.5 -140.5t99 -203.5t11 -237.5h-710q22 -72 74.5 -116.5t131.5 -45.5q106 -1 176 93l288 -66q-64 -139 -188.5 -224.5t-275.5 -85.5zM356 627h436q-21 78 -82 129t-137 51q-75 0 -135.5 -51t-81.5 -129z" />
    <glyph glyph-name="uni1EC6" unicode="&#x1ec6;" horiz-adv-x="1132" 
d="M725 1841l199 -295h-189l-169 195l-167 -195h-188l195 295h319zM123 0v1434h907v-283h-624v-242h487v-282h-487v-344h624v-283h-907zM567 -465q-62 0 -103 40.5t-41 101.5q0 60 41.5 101.5t102.5 41.5q60 0 102 -41.5t42 -101.5q0 -61 -41 -101.5t-103 -40.5z" />
    <glyph glyph-name="uni1EC7" unicode="&#x1ec7;" 
d="M732 1432l199 -295h-189l-169 194l-166 -194h-189l195 295h319zM573 -27q-139 0 -257 72.5t-186.5 196.5t-68.5 271t68.5 271t186.5 196.5t257 72.5q119 0 222.5 -53.5t171.5 -140.5t99 -203.5t11 -237.5h-710q22 -72 74.5 -116.5t131.5 -45.5q106 -1 176 93l288 -66
q-64 -139 -188.5 -224.5t-275.5 -85.5zM356 627h436q-21 78 -82 129t-137 51q-75 0 -135.5 -51t-81.5 -129zM574 -465q-62 0 -103 40.5t-41 101.5q0 60 41.5 101.5t102.5 41.5q60 0 101.5 -41.5t41.5 -101.5q0 -61 -40.5 -101.5t-102.5 -40.5z" />
    <glyph glyph-name="uni1ECA" unicode="&#x1eca;" horiz-adv-x="589" 
d="M154 0v1434h282v-1434h-282zM296 -465q-62 0 -103 40.5t-41 101.5q0 60 41.5 101.5t102.5 41.5q60 0 101.5 -41.5t41.5 -101.5q0 -61 -40.5 -101.5t-102.5 -40.5z" />
    <glyph glyph-name="uni1ECB" unicode="&#x1ecb;" horiz-adv-x="528" 
d="M265 1142q-62 0 -103 40.5t-41 101.5q0 60 41.5 101t102.5 41q60 0 102 -41t42 -101q0 -61 -41 -101.5t-103 -40.5zM123 1024h283v-1024h-283v1024zM266 -465q-62 0 -103 40.5t-41 101.5q0 60 41.5 101.5t102.5 41.5q60 0 101.5 -41.5t41.5 -101.5q0 -61 -40.5 -101.5
t-102.5 -40.5z" />
    <glyph glyph-name="uni1ECC" unicode="&#x1ecc;" horiz-adv-x="1576" 
d="M788 -27q-143 0 -274 59t-225.5 158.5t-150.5 237.5t-56 289t56 288.5t150.5 237t225.5 158.5t274 59q191 0 354 -99.5t258 -270.5t95 -373q0 -151 -56 -289t-151 -237.5t-226 -158.5t-274 -59zM788 256q115 0 212.5 62t154.5 168.5t57 230.5q0 190 -125 325.5
t-299 135.5q-115 0 -212.5 -62t-154 -168.5t-56.5 -230.5t57 -230.5t154.5 -168.5t211.5 -62zM790 -465q-62 0 -103.5 40.5t-41.5 101.5q0 60 42 101.5t103 41.5q60 0 101.5 -41.5t41.5 -101.5q0 -61 -40.5 -101.5t-102.5 -40.5z" />
    <glyph glyph-name="uni1ECD" unicode="&#x1ecd;" 
d="M573 -27q-139 0 -257 72.5t-186.5 196.5t-68.5 270q0 147 68.5 271.5t186.5 197t257 72.5t257 -72.5t186.5 -197t68.5 -271.5q0 -146 -68.5 -270t-186.5 -196.5t-257 -72.5zM573 256q96 0 163 75.5t67 180.5q0 106 -68 182t-162 76q-96 0 -162.5 -76.5t-66.5 -181.5
q0 -107 67.5 -181.5t161.5 -74.5zM574 -465q-62 0 -103 40.5t-41 101.5q0 60 41.5 101.5t102.5 41.5q60 0 102 -41.5t42 -101.5q0 -61 -41 -101.5t-103 -40.5z" />
    <glyph glyph-name="uni1ED8" unicode="&#x1ed8;" horiz-adv-x="1576" 
d="M947 1841l199 -295h-189l-169 195l-166 -195h-189l195 295h319zM788 -27q-143 0 -274 59t-225.5 158.5t-150.5 237.5t-56 289t56 288.5t150.5 237t225.5 158.5t274 59q191 0 354 -99.5t258 -270.5t95 -373q0 -151 -56 -289t-151 -237.5t-226 -158.5t-274 -59zM788 256
q115 0 212.5 62t154.5 168.5t57 230.5q0 190 -125 325.5t-299 135.5q-115 0 -212.5 -62t-154 -168.5t-56.5 -230.5t57 -230.5t154.5 -168.5t211.5 -62zM790 -465q-62 0 -103.5 40.5t-41.5 101.5q0 60 42 101.5t103 41.5q60 0 101.5 -41.5t41.5 -101.5q0 -61 -40.5 -101.5
t-102.5 -40.5z" />
    <glyph glyph-name="uni1ED9" unicode="&#x1ed9;" 
d="M732 1432l199 -295h-189l-169 194l-166 -194h-189l195 295h319zM573 -27q-139 0 -257 72.5t-186.5 196.5t-68.5 270q0 147 68.5 271.5t186.5 197t257 72.5t257 -72.5t186.5 -197t68.5 -271.5q0 -146 -68.5 -270t-186.5 -196.5t-257 -72.5zM573 256q96 0 163 75.5
t67 180.5q0 106 -68 182t-162 76q-96 0 -162.5 -76.5t-66.5 -181.5q0 -107 67.5 -181.5t161.5 -74.5zM574 -465q-62 0 -103 40.5t-41 101.5q0 60 41.5 101.5t102.5 41.5q60 0 102 -41.5t42 -101.5q0 -61 -41 -101.5t-103 -40.5z" />
    <glyph glyph-name="uni1EE4" unicode="&#x1ee4;" horiz-adv-x="1402" 
d="M702 -27q-168 0 -301.5 84t-205.5 226.5t-72 314.5v836h283v-836q0 -146 80 -244t216 -98q138 0 216.5 97.5t78.5 244.5v836h283v-836q0 -172 -72 -314.5t-205 -226.5t-301 -84zM702 -465q-62 0 -103 40.5t-41 101.5q0 60 41.5 101.5t102.5 41.5q60 0 102 -41.5
t42 -101.5q0 -61 -41 -101.5t-103 -40.5z" />
    <glyph glyph-name="uni1EE5" unicode="&#x1ee5;" horiz-adv-x="1115" 
d="M82 375v649h283v-571q0 -81 56.5 -137t135.5 -56q80 0 136.5 56t56.5 137v571h282l1 -1024h-282l-1 78q-113 -105 -267 -105q-166 0 -283.5 117.5t-117.5 284.5zM594 -463q-62 0 -103 40.5t-41 101.5q0 60 41.5 101.5t102.5 41.5q60 0 101.5 -41.5t41.5 -101.5
q0 -61 -40.5 -101.5t-102.5 -40.5z" />
    <glyph glyph-name="Ygrave" unicode="&#x1ef2;" horiz-adv-x="1396" 
d="M410 1841h282l82 -295h-188zM1001 1434h334l-495 -788v-646h-283v646l-496 788h334l303 -481z" />
    <glyph glyph-name="ygrave" unicode="&#x1ef3;" horiz-adv-x="1208" 
d="M315 1432h283l82 -295h-188zM825 1024h301l-561 -1536h-299l185 512l-369 1024h309l201 -638z" />
    <glyph glyph-name="uni1EF4" unicode="&#x1ef4;" horiz-adv-x="1396" 
d="M1001 1434h334l-495 -788v-646h-283v646l-496 788h334l303 -481zM699 -465q-62 0 -103.5 40.5t-41.5 101.5q0 60 42 101.5t103 41.5q60 0 101.5 -41.5t41.5 -101.5q0 -61 -40.5 -101.5t-102.5 -40.5z" />
    <glyph glyph-name="uni1EF5" unicode="&#x1ef5;" horiz-adv-x="1208" 
d="M825 1024h301l-561 -1536h-299l185 512l-369 1024h309l201 -638zM862 -465q-62 0 -103 40.5t-41 101.5q0 60 41.5 101.5t102.5 41.5q60 0 102 -41.5t42 -101.5q0 -61 -41 -101.5t-103 -40.5z" />
    <glyph glyph-name="uni1EF8" unicode="&#x1ef8;" horiz-adv-x="1396" 
d="M858 1533q-29 0 -73 19t-83.5 44t-81 48.5t-65 33.5t-34.5 -1q-15 -29 1 -87l-161 -44q-44 130 6.5 219t171.5 89q43 0 115.5 -36t133 -72.5t73.5 -36.5q14 0 20.5 7t4.5 21.5t-5 25.5t-10 30l165 53q44 -134 -9 -223.5t-169 -89.5zM1001 1434h334l-495 -788v-646h-283
v646l-496 788h334l303 -481z" />
    <glyph glyph-name="uni1EF9" unicode="&#x1ef9;" horiz-adv-x="1208" 
d="M764 1123q-29 0 -73 19t-83.5 44t-81 49t-65 34t-34.5 -1q-15 -29 2 -87l-161 -44q-45 130 5.5 219t170.5 89q43 0 116 -36.5t133.5 -73t73.5 -36.5q14 0 20.5 7t4.5 22t-4.5 25t-9.5 30l164 54q44 -134 -9 -224t-169 -90zM825 1024h301l-561 -1536h-299l185 512
l-369 1024h309l201 -638z" />
    <glyph glyph-name="uni2002" unicode="&#x2002;" horiz-adv-x="1024" 
 />
    <glyph glyph-name="uni2009" unicode="&#x2009;" horiz-adv-x="409" 
 />
    <glyph glyph-name="uni200B" unicode="&#x200b;" horiz-adv-x="0" 
 />
    <glyph glyph-name="endash" unicode="&#x2013;" horiz-adv-x="1269" 
d="M123 756h1024v-283h-1024v283z" />
    <glyph glyph-name="emdash" unicode="&#x2014;" horiz-adv-x="2088" 
d="M123 756h1843v-283h-1843v283z" />
    <glyph glyph-name="quoteright" unicode="&#x2019;" horiz-adv-x="448" 
d="M41 899l63 535h283l-158 -535h-188z" />
    <glyph glyph-name="quoteright" unicode="&#x2032;" horiz-adv-x="448" 
d="M41 899l63 535h283l-158 -535h-188z" />
    <glyph glyph-name="quotesinglbase" unicode="&#x201a;" horiz-adv-x="505" 
d="M78 -115l63 346h283l-158 -346h-188z" />
    <glyph glyph-name="quotedblleft" unicode="&#x201c;" horiz-adv-x="872" 
d="M485 903l158 535h188l-63 -535h-283zM123 899l158 535h188l-63 -535h-283z" />
    <glyph glyph-name="quotedblright" unicode="&#x201d;" horiz-adv-x="872" 
d="M41 899l63 535h283l-158 -535h-188zM403 899l64 535h283l-158 -535h-189z" />
    <glyph glyph-name="quotedblright" unicode="&#x2033;" horiz-adv-x="872" 
d="M41 899l63 535h283l-158 -535h-188zM403 899l64 535h283l-158 -535h-189z" />
    <glyph glyph-name="quotedblbase" unicode="&#x201e;" horiz-adv-x="913" 
d="M78 -115l63 346h283l-158 -346h-188zM485 -115l64 346h282l-157 -346h-189z" />
    <glyph glyph-name="dagger" unicode="&#x2020;" horiz-adv-x="901" 
d="M82 1038v283h227v215h283v-215h227v-283h-227v-460h-283v460h-227z" />
    <glyph glyph-name="daggerdbl" unicode="&#x2021;" horiz-adv-x="901" 
d="M82 731v281h227v118h-227v283h227v123h283v-123h227v-283h-227v-118h227v-281h-227v-158h-283v158h-227z" />
    <glyph glyph-name="bullet" unicode="&#x2022;" horiz-adv-x="544" 
d="M272 424q-80 0 -135 55t-55 135q0 78 55.5 134.5t134.5 56.5q78 0 134.5 -56.5t56.5 -134.5q0 -79 -56.5 -134.5t-134.5 -55.5z" />
    <glyph glyph-name="ellipsis" unicode="&#x2026;" horiz-adv-x="1358" 
d="M224 -27q-60 0 -101 41.5t-41 102.5q0 59 41 100.5t101 41.5q59 0 101.5 -42t42.5 -100q0 -60 -42 -102t-102 -42zM658 -27q-60 0 -101 41.5t-41 102.5q0 59 41 100.5t101 41.5q59 0 101.5 -42t42.5 -100q0 -60 -42 -102t-102 -42zM1093 -27q-60 0 -101.5 41.5
t-41.5 102.5q0 59 41.5 100.5t101.5 41.5q59 0 101 -41.5t42 -100.5q0 -61 -42 -102.5t-101 -41.5z" />
    <glyph glyph-name="perthousand" unicode="&#x2030;" horiz-adv-x="2321" 
d="M410 793q-135 0 -231.5 94.5t-96.5 230.5q0 138 97 232t231 94t229.5 -95.5t95.5 -230.5q0 -137 -96.5 -231t-228.5 -94zM231 0l828 1434h325l-827 -1434h-326zM410 983q56 0 95.5 39t39.5 96t-39.5 96t-95.5 39q-57 0 -97.5 -39t-40.5 -96t40.5 -96t97.5 -39zM1200 -12
q-135 0 -230.5 97.5t-95.5 227.5q0 137 97 232.5t229 95.5q138 0 233 -98t95 -230q0 -134 -96.5 -229.5t-231.5 -95.5zM1912 -12q-135 0 -230.5 97.5t-95.5 227.5q0 137 97 232.5t229 95.5q138 0 232.5 -98t94.5 -230q0 -134 -96 -229.5t-231 -95.5zM1200 178q57 0 97 39.5
t40 95.5q0 57 -40 97.5t-97 40.5q-56 0 -95.5 -40.5t-39.5 -97.5q0 -55 39.5 -95t95.5 -40zM1912 178q57 0 97 39.5t40 95.5q0 57 -40 97.5t-97 40.5q-56 0 -95.5 -40.5t-39.5 -97.5q0 -55 39.5 -95t95.5 -40z" />
    <glyph glyph-name="uni2035" unicode="&#x2035;" horiz-adv-x="591" 
d="M281 899l-158 535h283l63 -535h-188z" />
    <glyph glyph-name="guilsinglleft" unicode="&#x2039;" horiz-adv-x="817" 
d="M430 267l-307 348l307 347h285l-305 -347l305 -348h-285z" />
    <glyph glyph-name="guilsinglright" unicode="&#x203a;" horiz-adv-x="817" 
d="M102 267l306 348l-306 347h285l307 -347l-307 -348h-285z" />
    <glyph glyph-name="fraction" unicode="&#x2044;" horiz-adv-x="460" 
d="M-298 0l827 1434h230l-828 -1434h-229z" />
    <glyph glyph-name="fraction" unicode="&#x2215;" horiz-adv-x="460" 
d="M-298 0l827 1434h230l-828 -1434h-229z" />
    <glyph glyph-name="uni2070" unicode="&#x2070;" horiz-adv-x="663" 
d="M332 817q-108 0 -183 99t-75 245q0 145 75.5 243.5t182.5 98.5t182.5 -98.5t75.5 -243.5q0 -146 -75 -245t-183 -99zM332 969q42 0 69 64t27 128q0 68 -27.5 129.5t-68.5 61.5q-31 0 -54 -32.5t-32.5 -74.5t-9.5 -84q0 -72 26.5 -132t69.5 -60z" />
    <glyph glyph-name="uni2074" unicode="&#x2074;" horiz-adv-x="710" 
d="M344 838v93h-246v195l228 358h180v-390h57v-163h-57v-93h-162zM256 1094h103v163z" />
    <glyph glyph-name="uni2075" unicode="&#x2075;" horiz-adv-x="718" 
d="M328 817q-101 0 -171.5 65.5t-70.5 164.5h162q0 -32 23.5 -55t56.5 -23q34 0 58 23t24 55t-23.5 53.5t-58.5 25.5q-78 8 -209 -11l35 369h349v-141h-202l-1 -55q124 1 197.5 -65.5t73.5 -175.5q0 -99 -70.5 -164.5t-172.5 -65.5z" />
    <glyph glyph-name="uni2076" unicode="&#x2076;" horiz-adv-x="722" 
d="M337 817q-102 0 -170.5 63.5t-68.5 162.5q0 48 23 97t132 236q38 66 61 105h189l-121 -206q92 -24 142.5 -86.5t50.5 -147.5q0 -98 -69 -161t-169 -63zM337 969q35 0 58 27t16 62q-4 27 -25 43.5t-49 16.5q-40 0 -61 -28.5t-14 -61.5q5 -30 26.5 -44.5t48.5 -14.5z" />
    <glyph glyph-name="uni2077" unicode="&#x2077;" horiz-adv-x="695" 
d="M158 838l276 481h-311v162h499v-158l-279 -485h-185z" />
    <glyph glyph-name="uni2078" unicode="&#x2078;" horiz-adv-x="647" 
d="M323 817q-95 0 -160 59t-65 151q0 84 56 150q-43 54 -43 126q0 87 61.5 144.5t150.5 57.5t151 -57.5t62 -144.5q0 -73 -42 -126q55 -65 55 -150q0 -92 -65 -151t-161 -59zM323 1253q21 0 36 14.5t15 35.5t-14.5 35t-36.5 14q-21 0 -35.5 -14t-14.5 -35q0 -20 15 -35
t35 -15zM323 967q27 0 45 17t18 43q0 27 -18 45.5t-45 18.5q-26 0 -44.5 -18.5t-18.5 -45.5q0 -25 18.5 -42.5t44.5 -17.5z" />
    <glyph glyph-name="uni2079" unicode="&#x2079;" horiz-adv-x="673" 
d="M144 838l120 209q-89 13 -142 84.5t-45 157.5q4 92 71 153t164 61q105 0 174 -70t62 -168q0 -50 -30 -107l-186 -320h-188zM312 1200q33 0 55.5 25.5t20.5 58.5q-1 26 -25 47t-51 21q-36 0 -56.5 -25t-18.5 -56q1 -35 25 -53t50 -18z" />
    <glyph glyph-name="uni2080" unicode="&#x2080;" horiz-adv-x="663" 
d="M332 -32q-107 0 -182.5 104t-75.5 251q0 146 75.5 249t182.5 103t182.5 -103t75.5 -249q0 -147 -75.5 -251t-182.5 -104zM332 130q29 0 52 33.5t33.5 77t10.5 82.5q0 68 -27 129t-69 61q-31 0 -54 -32t-32.5 -74t-9.5 -84q0 -71 26.5 -132t69.5 -61z" />
    <glyph glyph-name="uni2081" unicode="&#x2081;" horiz-adv-x="471" 
d="M161 0v484h-63l24 162h202v-646h-163z" />
    <glyph glyph-name="uni2082" unicode="&#x2082;" horiz-adv-x="738" 
d="M98 0v142q23 16 71 46.5t78 51.5t68 51.5t66.5 65.5t47.5 74q0 35 -24 59t-59 24q-36 0 -61 -24t-25 -59h-162q0 101 73 173.5t175 72.5t173.5 -72t71.5 -174q0 -18 -3 -35t-11.5 -34.5t-15.5 -30.5t-22.5 -31t-24 -28t-29.5 -29.5t-28.5 -26.5t-32 -28t-30.5 -26h187
v-162h-483z" />
    <glyph glyph-name="uni2083" unicode="&#x2083;" horiz-adv-x="596" 
d="M300 -32q-93 0 -159.5 66.5t-66.5 158.5h162q0 -26 18.5 -44.5t45.5 -18.5q25 0 43 18.5t18 44.5q0 36 -31 63.5t-86 27.5v104q54 0 77 23.5t23 54.5q0 19 -14.5 33t-34.5 14t-34 -14t-14 -33h-163q0 88 61.5 148.5t149.5 60.5t149.5 -60.5t61.5 -148.5q0 -72 -41 -125
q58 -59 58 -148q0 -92 -66 -158.5t-157 -66.5z" />
    <glyph glyph-name="uni2084" unicode="&#x2084;" horiz-adv-x="710" 
d="M344 0v93h-246v196l228 357h180v-390h57v-163h-57v-93h-162zM256 256h103v164z" />
    <glyph glyph-name="uni2085" unicode="&#x2085;" horiz-adv-x="718" 
d="M328 -32q-100 0 -171 70t-71 170h162q0 -32 23.5 -55t56.5 -23q34 0 58 23t24 55q0 33 -24 56.5t-58 23.5l-211 -4l37 361h349v-142h-202l-1 -54l32 1q113 0 176 -67.5t63 -174.5q0 -100 -71 -170t-172 -70z" />
    <glyph glyph-name="uni2086" unicode="&#x2086;" horiz-adv-x="698" 
d="M337 -32q-101 0 -170 69t-69 169q0 48 23 97t127 227q14 23 21.5 36t20.5 35t24 42h189l-121 -207q92 -24 142.5 -85.5t50.5 -147.5q0 -99 -70 -167t-168 -68zM337 130q35 0 58 27t16 61q-4 28 -25 45t-49 17q-39 0 -59.5 -29t-15.5 -62q5 -30 26.5 -44.5t48.5 -14.5z
" />
    <glyph glyph-name="uni2087" unicode="&#x2087;" horiz-adv-x="695" 
d="M155 0l279 484h-311v162h499v-158l-282 -488h-185z" />
    <glyph glyph-name="uni2088" unicode="&#x2088;" horiz-adv-x="647" 
d="M323 -32q-94 0 -159.5 63.5t-65.5 156.5q0 86 56 150q-43 56 -43 126q0 89 62 150.5t150 61.5t150.5 -61.5t62.5 -150.5q0 -72 -42 -126q55 -63 55 -150q0 -93 -65.5 -156.5t-160.5 -63.5zM323 414q21 0 36 15t15 35q0 21 -14.5 35t-36.5 14q-21 0 -35.5 -14t-14.5 -35
q0 -20 15 -35t35 -15zM323 128q27 0 45 17t18 43q0 27 -18 45.5t-45 18.5q-26 0 -44.5 -18.5t-18.5 -45.5q0 -25 18.5 -42.5t44.5 -17.5z" />
    <glyph glyph-name="uni2089" unicode="&#x2089;" horiz-adv-x="673" 
d="M144 0l120 209q-89 13 -142 85.5t-45 158.5q4 94 72 159t163 65q66 0 121.5 -32.5t83.5 -84t32.5 -114.5t-31.5 -124l-186 -322h-188zM312 364q33 0 55.5 24.5t20.5 57.5q-1 26 -25 47t-51 21q-36 0 -56.5 -25t-18.5 -56q1 -35 24.5 -52t50.5 -17z" />
    <glyph glyph-name="Euro" unicode="&#x20ac;" horiz-adv-x="1133" 
d="M1052 -16q-179 -29 -342.5 26.5t-280.5 179.5t-171 294h-176v191h142v80h-142v190h176q79 263 301 406t493 99v-292q-152 44 -284.5 -17t-202.5 -196h258v-190h-316l2 -80h314v-191h-256q73 -136 205 -194t280 -15v-291z" />
    <glyph glyph-name="trademark" unicode="&#x2122;" horiz-adv-x="3134" 
d="M1208 1434v-283h-422v-1151h-282v1151h-422v283h1126zM1311 0l278 1434h239l333 -878l333 878h239l279 -1434h-289l-159 822l-306 -808h-195l-306 808l-159 -822h-287z" />
    <glyph glyph-name="oneeighth" unicode="&#x215b;" horiz-adv-x="1577" 
d="M161 838v484h-63l24 162h202v-646h-163zM172 0l827 1434h231l-828 -1434h-230zM1253 -32q-93 0 -158 63.5t-65 156.5q0 88 54 150q-42 57 -42 126q0 89 62 150.5t149 61.5q88 0 151 -61.5t63 -150.5q0 -70 -43 -126q56 -62 56 -150q0 -93 -66 -156.5t-161 -63.5z
M1253 414q21 0 36.5 15t15.5 35q0 21 -15 35t-37 14q-20 0 -34.5 -14t-14.5 -35q0 -20 15 -35t34 -15zM1253 128q28 0 46.5 17t18.5 43q0 27 -18.5 45.5t-46.5 18.5q-26 0 -43.5 -18.5t-17.5 -45.5q0 -25 17.5 -42.5t43.5 -17.5z" />
    <glyph glyph-name="threeeighths" unicode="&#x215c;" horiz-adv-x="1704" 
d="M300 817q-94 0 -160 61t-66 154h162q0 -27 18.5 -45t45.5 -18q26 0 43.5 18t17.5 45q0 35 -31 62.5t-86 27.5v105q54 0 77 23t23 54q0 20 -14.5 34t-34.5 14t-34 -14t-14 -34h-163q0 87 61 143t150 56t150 -56t61 -143q0 -72 -41 -125q58 -58 58 -147q0 -92 -65.5 -153.5
t-157.5 -61.5zM299 0l827 1434h231l-828 -1434h-230zM1380 -32q-94 0 -159 63.5t-65 156.5q0 87 55 150q-42 54 -42 126q0 89 61.5 150.5t149.5 61.5t150.5 -61.5t62.5 -150.5q0 -72 -42 -126q56 -64 56 -150q0 -93 -66 -156.5t-161 -63.5zM1380 414q21 0 36.5 15t15.5 35
q0 21 -15 35t-37 14q-20 0 -34.5 -14t-14.5 -35q0 -20 14.5 -35t34.5 -15zM1380 128q27 0 45.5 17.5t18.5 42.5q0 27 -18.5 45.5t-45.5 18.5q-26 0 -43.5 -18.5t-17.5 -45.5q0 -25 17.5 -42.5t43.5 -17.5z" />
    <glyph glyph-name="fiveeighths" unicode="&#x215d;" horiz-adv-x="1826" 
d="M328 817q-101 0 -171.5 65.5t-70.5 164.5h162q0 -32 23.5 -55t56.5 -23q34 0 58 23t24 55t-23.5 53.5t-58.5 25.5q-78 8 -209 -11l35 369h349v-141h-202l-1 -55q124 1 197.5 -65.5t73.5 -175.5q0 -99 -70.5 -164.5t-172.5 -65.5zM421 0l827 1434h231l-828 -1434h-230z
M1502 -32q-93 0 -158.5 63.5t-65.5 156.5q0 87 55 150q-42 54 -42 126q0 89 62 150.5t149 61.5q88 0 151 -61.5t63 -150.5q0 -70 -43 -126q56 -64 56 -150q0 -93 -66 -156.5t-161 -63.5zM1502 414q21 0 36 15t15 35q0 21 -14.5 35t-36.5 14q-20 0 -34.5 -14t-14.5 -35
q0 -20 14.5 -35t34.5 -15zM1502 128q27 0 46 17.5t19 42.5q0 27 -19 45.5t-46 18.5q-26 0 -43.5 -18.5t-17.5 -45.5q0 -25 17.5 -42.5t43.5 -17.5z" />
    <glyph glyph-name="seveneighths" unicode="&#x215e;" horiz-adv-x="1802" 
d="M158 838l276 481h-311v162h499v-158l-279 -485h-185zM396 0l828 1434h230l-827 -1434h-231zM1478 -32q-93 0 -158.5 63.5t-65.5 156.5q0 88 56 150q-43 56 -43 126q0 89 62 150.5t149 61.5q88 0 151 -61.5t63 -150.5q0 -70 -43 -126q55 -61 55 -150q0 -93 -65.5 -156.5
t-160.5 -63.5zM1478 414q21 0 36 15t15 35q0 21 -14.5 35t-36.5 14q-20 0 -34 -14t-14 -35q0 -20 14.5 -35t33.5 -15zM1478 128q28 0 46 17t18 43q0 27 -18 45.5t-46 18.5q-25 0 -43.5 -18.5t-18.5 -45.5q0 -25 18.5 -42.5t43.5 -17.5z" />
    <glyph glyph-name="arrowleft" unicode="&#x2190;" horiz-adv-x="1452" 
d="M638 212l-556 556l556 556l200 -200l-215 -215h747v-282h-747l215 -215z" />
    <glyph glyph-name="arrowup" unicode="&#x2191;" horiz-adv-x="1276" 
d="M498 123v747l-216 -214l-200 200l557 557l556 -557l-200 -200l-215 214v-747h-282z" />
    <glyph glyph-name="arrowright" unicode="&#x2192;" horiz-adv-x="1453" 
d="M815 212l-200 200l213 215h-746v282h746l-213 215l200 200l556 -556z" />
    <glyph glyph-name="arrowdown" unicode="&#x2193;" horiz-adv-x="1274" 
d="M637 123l-555 557l200 200l214 -214v747h282v-747l215 214l200 -200z" />
    <glyph glyph-name="arrowboth" unicode="&#x2194;" horiz-adv-x="1936" 
d="M638 212l-556 556l556 556l200 -200l-215 -215h689l-213 215l199 200l556 -556l-556 -556l-199 200l213 215h-689l215 -215z" />
    <glyph glyph-name="arrowupdn" unicode="&#x2195;" horiz-adv-x="1276" 
d="M638 -119l-556 557l200 200l215 -214v688l-215 -214l-200 200l556 557l557 -557l-200 -200l-216 214v-688l216 214l200 -200z" />
    <glyph glyph-name="uni2196" unicode="&#x2196;" horiz-adv-x="1175" 
d="M894 262l-529 530v-305h-283v787h786v-283h-304l530 -529z" />
    <glyph glyph-name="uni2197" unicode="&#x2197;" horiz-adv-x="1174" 
d="M282 263l-200 200l528 527h-305v283h788v-787h-283v305z" />
    <glyph glyph-name="uni2198" unicode="&#x2198;" horiz-adv-x="1174" 
d="M306 263v283h304l-528 527l200 200l528 -528v305h283v-787h-787z" />
    <glyph glyph-name="uni2199" unicode="&#x2199;" horiz-adv-x="1174" 
d="M82 263v787h283v-305l528 528l200 -200l-529 -527h304v-283h-786z" />
    <glyph glyph-name="partialdiff" unicode="&#x2202;" horiz-adv-x="1193" 
d="M598 -27q-140 0 -259 69t-188 187.5t-69 257.5q0 140 69 259t188 188.5t259 69.5q63 0 117 -31q-17 40 -26 60.5t-29.5 59.5t-38 61t-47 51t-60 44.5t-73 27t-91.5 11.5l-2 283q137 0 258.5 -56t212.5 -155t157.5 -230.5t101 -286t34.5 -318.5q0 -242 -145 -397
t-369 -155zM598 256q95 0 163 68t68 163q0 96 -68 165t-163 69q-96 0 -164.5 -69t-68.5 -165q0 -95 68.5 -163t164.5 -68z" />
    <glyph glyph-name="emptyset" unicode="&#x2205;" horiz-adv-x="1187" 
d="M381 -83l-197 114l55 94q-74 75 -115.5 175.5t-41.5 211.5q0 147 68.5 271.5t186.5 197t257 72.5q87 0 162 -29l51 86l197 -114l-55 -95q74 -75 115.5 -175.5t41.5 -213.5q0 -146 -68.5 -270t-186.5 -196.5t-257 -72.5q-82 0 -164 29zM378 362l252 438
q-115 10 -201.5 -82t-86.5 -222q0 -75 36 -134zM558 226q118 -10 203 80.5t85 221.5q0 68 -36 136z" />
    <glyph glyph-name="product" unicode="&#x220f;" horiz-adv-x="1310" 
d="M82 1434h1147v-283h-125v-1151h-283v1151h-332v-1151h-282v1151h-125v283z" />
    <glyph glyph-name="summation" unicode="&#x2211;" horiz-adv-x="934" 
d="M82 0v283l221 432l-221 432v283h791v-283h-473l220 -432l-220 -432h473v-283h-791z" />
    <glyph glyph-name="minus" unicode="&#x2212;" horiz-adv-x="1187" 
d="M82 473v283h1024v-283h-1024z" />
    <glyph glyph-name="radical" unicode="&#x221a;" horiz-adv-x="1396" 
d="M933 1434h382v-283h-185l-420 -1151h-364l-264 725h300l146 -398z" />
    <glyph glyph-name="infinity" unicode="&#x221e;" horiz-adv-x="1573" 
d="M465 245q-177 15 -280 122t-103 264q0 164 107.5 274t275.5 111q96 0 173.5 -42t147.5 -127q144 169 322 169q177 -1 280.5 -112.5t103.5 -272.5q0 -165 -106 -275t-275 -111q-97 0 -174 41t-151 126q-74 -89 -151 -131.5t-170 -35.5zM1114 502q57 2 90.5 39.5t33.5 89.5
q0 51 -33 89.5t-83 39.5q-50 0 -92.5 -35.5t-85.5 -93.5q95 -131 170 -129zM462 502q79 0 170 129q-95 130 -170 127q-57 -2 -91 -40t-34 -87q0 -55 35 -91.5t90 -37.5z" />
    <glyph glyph-name="integral" unicode="&#x222b;" horiz-adv-x="1161" 
d="M391 -27q-138 0 -227 91.5t-82 229.5l176 -13q7 -55 16 -68q13 -15 36 -16q34 0 56.5 17.5t26.5 49.5l99 972q8 61 52.5 113t108.5 81.5t130 29.5q129 -1 217.5 -98.5t77.5 -223.5l-158 15q-6 47 -31 66.5t-60 13.5q-25 -2 -42.5 -21t-21.5 -50l-96 -966
q-26 -113 -102 -168t-176 -55z" />
    <glyph glyph-name="approxequal" unicode="&#x2248;" horiz-adv-x="1361" 
d="M964 683q-60 0 -145 26t-155.5 57.5t-148 57.5t-124.5 26q-40 0 -56.5 -29t-13.5 -72l-277 6q-13 92 26.5 175t117.5 133.5t173 50.5q60 0 137 -27t138 -60t131 -60t118 -27q40 0 57.5 29t15.5 75l278 -5q21 -145 -55 -250.5t-217 -105.5zM964 122q-60 0 -145 26
t-155.5 57.5t-148 57.5t-124.5 26q-39 0 -56 -29.5t-14 -72.5l-277 7q-13 92 26.5 175t117.5 133.5t173 50.5q60 0 137 -27t138 -60t131 -60t118 -27q40 0 57.5 29t15.5 75l278 -5q21 -145 -55 -250.5t-217 -105.5z" />
    <glyph glyph-name="notequal" unicode="&#x2260;" horiz-adv-x="1187" 
d="M914 1210l-67 -230h259v-283h-342l-48 -166h390v-282h-473l-68 -231h-294l68 231h-257v282h340l48 166h-388v283h471l68 230h293z" />
    <glyph glyph-name="lessequal" unicode="&#x2264;" horiz-adv-x="1187" 
d="M1106 338l-1024 291v472l1024 293v-294l-821 -234l821 -234v-294zM82 0v283h1024v-283h-1024z" />
    <glyph glyph-name="greaterequal" unicode="&#x2265;" horiz-adv-x="1187" 
d="M82 360v294l821 223l-821 223v294l1024 -282v-472zM82 0v283h1024v-283h-1024z" />
    <glyph glyph-name="lozenge" unicode="&#x25ca;" horiz-adv-x="1177" 
d="M336 0l-275 719l273 715h510l272 -715l-274 -719h-506zM589 137l231 582l-231 581l-230 -581z" />
    <glyph glyph-name="uniFFFD" unicode="&#xfffd;" horiz-adv-x="1669" 
d="M836 -27q-121 0 -205 84l-424 424q-84 84 -84 205q0 119 84 203l424 424q84 84 205 84q118 0 202 -84l424 -424q84 -84 84 -203q0 -121 -84 -205l-424 -424q-84 -84 -202 -84zM739 525h191v2q0 31 26 45q63 36 100.5 99t37.5 137q0 110 -79 188.5t-189 78.5t-188.5 -78.5
t-78.5 -188.5h191q0 32 22 54.5t54 22.5t54.5 -22.5t22.5 -54.5q0 -50 -37 -69q-60 -30 -93.5 -87t-33.5 -125v-2zM840 248q40 0 67.5 28t27.5 69q0 39 -27.5 66t-67.5 27t-68 -27.5t-28 -65.5q0 -41 28 -69t68 -28z" />
    <glyph glyph-name="uni004A0301" horiz-adv-x="935" 
d="M597 1546l82 295h283l-177 -295h-188zM342 -27q-173 0 -301 110l181 217q52 -44 120 -44q77 0 132.5 56.5t55.5 133.5v988h283v-988q0 -127 -63 -236t-171.5 -173t-236.5 -64z" />
    <glyph glyph-name="uni013B.loclMAH" horiz-adv-x="1085" 
d="M123 0v1434h283v-1151h577v-283h-860zM348 -452l64 347h282l-157 -347h-189z" />
    <glyph glyph-name="uni0145.loclMAH" horiz-adv-x="1392" 
d="M123 0v1434h305l559 -923v923h283v-1434h-305l-559 923v-923h-283zM492 -452l63 347h283l-158 -347h-188z" />
    <glyph glyph-name="i.loclTRK" horiz-adv-x="528" 
d="M265 1142q-62 0 -103 40.5t-41 101.5q0 60 41.5 101t102.5 41q60 0 102 -41t42 -101q0 -61 -41 -101.5t-103 -40.5zM123 1024h283v-1024h-283v1024z" />
    <glyph glyph-name="uni006A0301" horiz-adv-x="513" 
d="M174 1137l82 295h283l-177 -295h-188zM-82 -512v283q78 0 134 55t56 133v1065h282v-1065q0 -195 -137.5 -333t-334.5 -138z" />
    <glyph glyph-name="uni013C.loclMAH" horiz-adv-x="528" 
d="M123 0v1536h283v-1536h-283zM59 -452l64 347h283l-158 -347h-189z" />
    <glyph glyph-name="uni0146.loclMAH" horiz-adv-x="1156" 
d="M1074 651v-651h-282v573q0 80 -57 136.5t-136 56.5q-80 0 -136 -56t-56 -137v-573h-283l-1 1024h283l1 -76q111 105 266 105q166 0 283.5 -117.5t117.5 -284.5zM394 -452l64 347h282l-157 -347h-189z" />
    <glyph glyph-name="uni030C.alt" horiz-adv-x="0" 
d="M463 1137l82 295h282l-176 -295h-188z" />
    <glyph glyph-name="uni0326.loclMAH" horiz-adv-x="0" 
d="M410 -452l63 347h283l-158 -347h-188z" />
    </font>
</defs>
</svg>
