<?xml version="1.0" standalone="no"?>
<!DOCTYPE svg PUBLIC "-//W3C//DTD SVG 1.1//EN" "http://www.w3.org/Graphics/SVG/1.1/DTD/svg11.dtd" >
<svg xmlns="http://www.w3.org/2000/svg" xmlns:xlink="http://www.w3.org/1999/xlink" version="1.1">
<metadata>
Created by FontForge 20170731 at Wed Nov  8 23:35:06 2023
 By Aleksey,,,
Copyright 2021 The Urbanist Project Authors (https://github.com/coreyhu/Urbanist)
</metadata>
<defs>
<font id="Urbanist-MediumItalic" horiz-adv-x="417" >
  <font-face 
    font-family="Urbanist Medium"
    font-weight="500"
    font-style="italic"
    font-stretch="normal"
    units-per-em="2048"
    panose-1="0 0 0 0 0 0 0 0 0 0"
    ascent="1638"
    descent="-410"
    x-height="1024"
    cap-height="1434"
    bbox="-359 -512 2803 2079"
    underline-thickness="51"
    underline-position="-153"
    slope="-8"
    unicode-range="U+000D-FFFD"
  />
<missing-glyph horiz-adv-x="1024" 
d="M102 -512v2458h820v-2458h-820zM205 -410h614v2253h-614v-2253z" />
    <glyph glyph-name=".notdef" horiz-adv-x="1024" 
d="M102 -512v2458h820v-2458h-820zM205 -410h614v2253h-614v-2253z" />
    <glyph glyph-name=".null" horiz-adv-x="1228" 
 />
    <glyph glyph-name=".null" horiz-adv-x="1228" 
 />
    <glyph glyph-name="nonmarkingreturn" unicode="&#xd;" horiz-adv-x="1228" 
 />
    <glyph glyph-name="nonmarkingreturn" unicode="&#xfeff;" horiz-adv-x="1228" 
 />
    <glyph glyph-name="space" unicode=" " horiz-adv-x="491" 
 />
    <glyph glyph-name="exclam" unicode="!" horiz-adv-x="393" 
d="M62 430l141 1004h148l-140 -1004h-149zM73 -27q-40 0 -63.5 27.5t-18.5 68.5q6 39 37 66.5t71 27.5q38 0 61.5 -27.5t17.5 -66.5q-5 -40 -36 -68t-69 -28z" />
    <glyph glyph-name="quotedbl" unicode="&#x22;" horiz-adv-x="550" 
d="M98 899l75 535h126l-75 -535h-126zM378 899l75 535h126l-75 -535h-126z" />
    <glyph glyph-name="numbersign" unicode="#" horiz-adv-x="1564" 
d="M1468 937h-195l-181 -439h198l-68 -166h-197l-136 -332h-172l136 332h-456l-135 -332h-172l135 332h-197l68 166h197l181 439h-200l69 166h198l134 331h172l-134 -331h455l134 331h172l-134 -331h197zM920 498l181 439h-455l-181 -439h455z" />
    <glyph glyph-name="dollar" unicode="$" horiz-adv-x="1216" 
d="M687 1283q-141 1 -254 -67.5t-128 -173.5q-7 -50 7 -87.5t37 -60.5t72.5 -41.5t88.5 -27.5t110 -22q106 -18 192 -50.5t153 -82t98.5 -122t18.5 -161.5q-16 -112 -91 -202.5t-185.5 -143t-238.5 -64.5l-28 -206h-126l29 206q-160 12 -277.5 92t-144.5 205l169 61
q19 -85 116 -137.5t222 -52.5q142 0 255 68t128 174q7 53 -16 95t-71.5 70t-103 46t-124.5 31q-92 16 -163 36t-134.5 53.5t-102 76.5t-56 106t-6.5 141q16 112 91.5 202.5t186 143t238.5 64.5l30 211h126l-30 -211q156 -13 274 -92.5t147 -206.5l-171 -59q-19 85 -116 137
t-222 52z" />
    <glyph glyph-name="percent" unicode="%" horiz-adv-x="1375" 
d="M74 0l1028 1434h198l-1028 -1434h-198zM364 857q-108 0 -174.5 76.5t-51.5 184.5q15 110 103.5 186t195.5 76q108 0 174 -77t51 -185q-15 -109 -103.5 -185t-194.5 -76zM382 983q56 0 101.5 39.5t52.5 95.5q8 57 -26 96.5t-90 39.5q-57 0 -103 -39.5t-53 -96.5
q-8 -56 26.5 -95.5t91.5 -39.5zM938 52q-108 0 -174 78.5t-51 183.5q15 109 104 186t195 77q110 0 174.5 -78t50.5 -185q-15 -107 -103 -184.5t-196 -77.5zM955 178q56 0 102.5 40t53.5 96q8 56 -27 96.5t-91 40.5t-101 -40.5t-53 -96.5t26 -96t90 -40z" />
    <glyph glyph-name="ampersand" unicode="&#x26;" horiz-adv-x="1454" 
d="M399 -27q-119 0 -208.5 59.5t-129 156.5t-24.5 207q17 122 76.5 196t270.5 260q13 12 20 18q-67 78 -93.5 117.5t-37.5 82t-3 100.5q18 125 118 212t221 87q124 0 200 -87t58 -212q-12 -84 -52.5 -137t-166.5 -163l302 -353l268 235l-33 -243l-131 -115l234 -272
l-137 -122l-235 271q-67 -59 -96 -84t-77 -65t-68 -54t-55 -37t-54.5 -29.5t-49.5 -15.5t-56.5 -11t-60.5 -2zM540 970q21 19 51.5 44.5t42 35.5t29 26.5t23 24t13 20.5t10.5 24t5 27q8 62 -29.5 104t-95.5 42q-60 0 -108 -43.5t-56 -102.5q-2 -14 -2 -25t1.5 -20.5t7 -20.5
t10.5 -19t16.5 -22t21 -25t27.5 -32t33 -38zM424 145q21 0 37.5 1t35.5 7.5t31 10.5t34 19t34 23t42 34t46.5 40.5t59 53t68.5 61.5l-303 354q-29 -25 -72 -62.5t-60.5 -53t-46.5 -41.5t-39 -37t-27.5 -31t-22.5 -31t-13.5 -28.5t-11.5 -33.5t-6 -37q-15 -105 48 -177
t166 -72z" />
    <glyph glyph-name="quotesingle" unicode="'" horiz-adv-x="271" 
d="M98 899l75 535h126l-75 -535h-126z" />
    <glyph glyph-name="parenleft" unicode="(" horiz-adv-x="690" 
d="M299 -115q-254 278 -184 774q20 138 74.5 290t142.5 288.5t184 196.5h172q-136 -109 -250.5 -333.5t-150.5 -441.5q-27 -233 23.5 -432t160.5 -342h-172z" />
    <glyph glyph-name="parenright" unicode=")" horiz-adv-x="690" 
d="M-14 -115q150 143 256.5 342t144.5 432q25 218 -26.5 442.5t-157.5 332.5h172q61 -45 105.5 -136.5t64 -198t25.5 -224.5t-11 -216q-70 -496 -401 -774h-172z" />
    <glyph glyph-name="asterisk" unicode="*" horiz-adv-x="727" 
d="M248 868l-91 75l143 166l-184 62l53 120l188 -62l28 205h127l-30 -205l204 62l23 -120l-205 -62l98 -166l-114 -75l-95 167z" />
    <glyph glyph-name="plus" unicode="+" horiz-adv-x="1187" 
d="M422 102l59 426h-426l25 172h426l59 426h172l-59 -426h426l-25 -172h-426l-59 -426h-172z" />
    <glyph glyph-name="comma" unicode="," horiz-adv-x="440" 
d="M-35 -115l112 346h172l-169 -346h-115z" />
    <glyph glyph-name="hyphen" unicode="-" horiz-adv-x="901" 
d="M121 700h655l-24 -172h-656z" />
    <glyph glyph-name="period" unicode="." horiz-adv-x="394" 
d="M71 -27q-39 0 -62 27.5t-18 68.5q6 39 37 66.5t70 27.5t63 -28t18 -66q-5 -40 -36.5 -68t-71.5 -28z" />
    <glyph glyph-name="slash" unicode="/" horiz-adv-x="750" 
d="M769 1434l-632 -1549h-172l632 1549h172z" />
    <glyph glyph-name="zero" unicode="0" horiz-adv-x="1224" 
d="M509 -27q-100 0 -182.5 38t-138.5 106t-92 161t-43 204t8 235q29 206 118.5 374t231 268.5t307.5 100.5q124 0 220.5 -58.5t150.5 -159t76 -236t-2 -289.5q-29 -206 -118 -374t-230 -269t-306 -101zM532 145q94 0 175 46t139.5 125.5t98 182t55.5 218.5q23 163 -3 290.5
t-104 204t-200 76.5q-126 0 -227.5 -81t-160.5 -207.5t-81 -282.5q-19 -115 -6 -218.5t48 -182t104 -125t162 -46.5z" />
    <glyph glyph-name="one" unicode="1" horiz-adv-x="578" 
d="M142 0l177 1262h-160l71 172h285l-201 -1434h-172z" />
    <glyph glyph-name="two" unicode="2" horiz-adv-x="1130" 
d="M-18 0l21 153q88 69 142 111t151.5 122t161 136.5t143.5 133t129 134t86 117.5t43 104q15 115 -53.5 196t-181.5 81q-114 0 -206.5 -81.5t-109.5 -195.5h-172q27 188 177 318.5t335 130.5q184 0 296.5 -131.5t86.5 -317.5q-10 -70 -59 -155.5t-116 -167t-164 -177.5
t-183.5 -173t-193.5 -166h616l-24 -172h-925z" />
    <glyph glyph-name="three" unicode="3" horiz-adv-x="1016" 
d="M403 -27q-193 0 -302 126.5t-83 310.5h172q-15 -112 50 -188.5t188 -76.5q109 0 203 78.5t110 186.5q18 133 -71 203t-254 70l19 138q149 0 244 62t111 177q13 93 -49.5 161t-157.5 68q-99 0 -186.5 -68.5t-100.5 -160.5h-172q24 164 168 282.5t312 118.5
q108 0 196 -53.5t132.5 -146.5t29.5 -201q-14 -102 -76.5 -185t-153.5 -116q104 -38 150.5 -133.5t30.5 -215.5q-26 -179 -177.5 -308t-332.5 -129z" />
    <glyph glyph-name="four" unicode="4" horiz-adv-x="1135" 
d="M598 0l54 387h-616l24 174l696 873h215l-123 -875h143l-24 -172h-143l-54 -387h-172zM262 561l414 -2l87 633z" />
    <glyph glyph-name="five" unicode="5" horiz-adv-x="1144" 
d="M443 -27q-131 0 -231.5 64.5t-148 174t-29.5 237.5h172q-18 -126 58.5 -215t202.5 -89q125 0 226.5 89.5t118.5 214.5q19 130 -57 217.5t-229 87.5h-354l235 680h679l-23 -172h-541l-114 -336l149 -1q144 -3 248 -64.5t151 -169t28 -242.5q-18 -128 -97 -238t-197.5 -174
t-246.5 -64z" />
    <glyph glyph-name="six" unicode="6" horiz-adv-x="1108" 
d="M443 -27q-134 0 -239 67t-156 182t-32 250q10 72 35 129t74 129l504 704h199l-360 -503q92 24 178 18.5t158.5 -46.5t124 -102t74.5 -147t10 -182q-19 -135 -102.5 -250t-208 -182t-259.5 -67zM467 145q138 0 246.5 98t127.5 229q19 134 -63 230t-217 96q-138 0 -246 -97
t-127 -229q-19 -137 64.5 -232t214.5 -95z" />
    <glyph glyph-name="seven" unicode="7" horiz-adv-x="1102" 
d="M36 0l903 1262h-821l23 172h1021l-23 -172l-907 -1262h-196z" />
    <glyph glyph-name="eight" unicode="8" horiz-adv-x="1088" 
d="M439 -27q-192 0 -309 126t-92 305q15 108 85.5 201.5t174.5 149.5q-73 51 -109.5 132t-23.5 175q15 108 85 200t176 145t222 53q115 0 206 -53t136 -145t29 -200q-12 -94 -72 -175t-148 -132q90 -56 134.5 -149t29.5 -202q-26 -179 -179 -305t-345 -126zM560 836
q102 0 183 66t94 160t-49 160t-163 66q-102 0 -183.5 -66t-94.5 -160q-12 -94 50 -160t163 -66zM463 145q117 0 209.5 76t107.5 183q14 108 -56.5 184t-186.5 76t-209.5 -76t-107.5 -184q-15 -107 56.5 -183t186.5 -76z" />
    <glyph glyph-name="nine" unicode="9" horiz-adv-x="1090" 
d="M243 0l380 528q-74 -23 -144.5 -18.5t-133 26t-113 65.5t-84.5 99t-47.5 126.5t-2.5 148.5q28 200 190 342.5t362 142.5q130 0 232.5 -65t152 -177t31.5 -243q-10 -68 -34.5 -123.5t-72.5 -126.5l-518 -725h-198zM537 663q133 0 236 92.5t122 219.5q18 132 -61.5 223
t-206.5 91q-134 0 -238 -93.5t-122 -220.5q-18 -129 60.5 -220.5t209.5 -91.5z" />
    <glyph glyph-name="colon" unicode=":" horiz-adv-x="394" 
d="M193 836q-39 0 -63 27.5t-18 67.5q5 38 36 65.5t70 27.5q40 0 64 -27.5t19 -65.5q-6 -40 -37.5 -67.5t-70.5 -27.5zM71 -27q-39 0 -62 27.5t-18 68.5q6 39 37 66.5t70 27.5t63 -28t18 -66q-5 -40 -36.5 -68t-71.5 -28z" />
    <glyph glyph-name="semicolon" unicode=";" horiz-adv-x="447" 
d="M248 836q-41 0 -65 27t-18 66q5 39 36.5 67t71.5 28q38 0 62 -28t19 -67q-6 -39 -37 -66t-69 -27zM-35 -115l112 346h172l-169 -346h-115z" />
    <glyph glyph-name="less" unicode="&#x3c;" horiz-adv-x="1187" 
d="M1031 180l-983 291l39 285l1065 293l-25 -181l-930 -254l859 -256z" />
    <glyph glyph-name="equal" unicode="=" horiz-adv-x="1187" 
d="M85 739l24 172h1024l-24 -172h-1024zM27 318l23 172h1024l-23 -172h-1024z" />
    <glyph glyph-name="greater" unicode="&#x3e;" horiz-adv-x="1187" 
d="M7 186l26 179l930 249l-861 249l26 179l983 -286l-39 -285z" />
    <glyph glyph-name="question" unicode="?" horiz-adv-x="1055" 
d="M401 478q14 105 79.5 193.5t166.5 139.5q63 32 105.5 92t52.5 133q15 105 -49 179t-169 74q-104 0 -189 -74t-99 -179h-172q25 176 167 300.5t317 124.5q116 0 206.5 -57t133.5 -155t26 -213q-16 -120 -88.5 -221t-181.5 -157q-55 -27 -90.5 -74.5t-43.5 -105.5h-172z
M417 -27q-39 0 -63 28.5t-19 67.5q6 39 37 66.5t70 27.5q40 0 63 -27.5t18 -66.5t-36.5 -67.5t-69.5 -28.5z" />
    <glyph glyph-name="at" unicode="@" horiz-adv-x="1801" 
d="M770 -208q-168 0 -310 57.5t-238.5 158.5t-140.5 245.5t-21 310.5q31 222 167 410.5t340 298t427 109.5q224 0 397 -110t255.5 -298t51.5 -410q-18 -121 -70 -230t-139 -183t-186 -74q-93 0 -166.5 60.5t-70.5 145.5q-110 -126 -273 -126q-168 0 -271 119.5t-79 287.5
t160 287.5t304 119.5q81 0 147.5 -32.5t98.5 -87.5l14 99l131 -23l-79 -572q-6 -46 23.5 -76t75.5 -30q54 0 100 51.5t72 121t36 142.5q25 175 -41.5 324t-203 235.5t-311.5 86.5q-131 0 -257.5 -51t-226 -137.5t-168 -206t-86.5 -251.5q-18 -131 17 -244t111.5 -190.5
t189 -121.5t245.5 -44zM824 291q109 0 190.5 85.5t96.5 197.5q15 109 -41 185.5t-170 76.5t-204.5 -79t-105.5 -193q-16 -114 53.5 -193.5t180.5 -79.5z" />
    <glyph glyph-name="A" unicode="A" horiz-adv-x="1414" 
d="M703 1434h208l321 -1434h-182l-67 293h-671l-147 -293h-183zM399 465h545l-168 748z" />
    <glyph glyph-name="B" unicode="B" horiz-adv-x="1158" 
d="M23 0l200 1434h495q166 0 262 -100t71 -269q-12 -93 -70.5 -173t-129.5 -102q59 -16 101 -58.5t60 -96t24.5 -115.5t-4.5 -118q-25 -176 -155.5 -289t-296.5 -113h-557zM314 854h306q98 0 172 57.5t87 154.5q14 104 -42.5 160t-156.5 56h-305zM215 152h370q107 0 193 80
t102 199q15 108 -48.5 191.5t-168.5 83.5h-370z" />
    <glyph glyph-name="C" unicode="C" horiz-adv-x="1452" 
d="M682 -27q-143 0 -265 59t-202.5 158.5t-117 237.5t-15.5 289q28 202 146.5 373t295 270.5t367.5 99.5q170 0 306 -79.5t215 -216.5l-164 -82q-59 95 -160 150.5t-221 55.5q-109 0 -214.5 -46t-187.5 -123t-138.5 -182.5t-72.5 -219.5q-22 -154 30.5 -286t164.5 -209
t257 -77q122 0 238 55.5t202 150.5l140 -83q-118 -137 -276 -216t-328 -79z" />
    <glyph glyph-name="D" unicode="D" horiz-adv-x="1375" 
d="M23 0l200 1434h474q146 0 271 -57t207.5 -153t120.5 -228.5t18 -278.5t-95.5 -278.5t-185 -228.5t-250 -153t-286.5 -57h-474zM218 172h302q148 0 283.5 72.5t226.5 198.5t112 274t-35 273.5t-171 198.5t-263 73h-301z" />
    <glyph glyph-name="E" unicode="E" horiz-adv-x="1104" 
d="M23 0l200 1434h880l-24 -172h-707l-58 -408h580l-24 -172h-580l-72 -510h708l-24 -172h-879z" />
    <glyph glyph-name="F" unicode="F" horiz-adv-x="984" 
d="M23 0l200 1434h841l-25 -172h-667l-58 -408h570l-24 -172h-570l-95 -682h-172z" />
    <glyph glyph-name="G" unicode="G" horiz-adv-x="1572" 
d="M683 -27q-145 0 -268 59.5t-202.5 159.5t-115.5 237.5t-15 288.5q29 206 151 377.5t298 267.5t364 96q162 0 297.5 -76.5t221.5 -218.5l-166 -83q-65 100 -164.5 153.5t-214.5 53.5q-144 0 -277.5 -75.5t-224.5 -208t-113 -289.5q-22 -154 31.5 -285.5t166 -208
t257.5 -76.5q173 0 328.5 113.5t228.5 290.5h-353l22 153h555q-22 -147 -98 -282t-184 -233t-245.5 -156t-279.5 -58z" />
    <glyph glyph-name="H" unicode="H" horiz-adv-x="1299" 
d="M1105 1434h172l-201 -1434h-172l95 682h-709l-95 -682h-172l200 1434h172l-81 -580h709z" />
    <glyph glyph-name="I" unicode="I" horiz-adv-x="479" 
d="M53 0l201 1434h172l-201 -1434h-172z" />
    <glyph glyph-name="J" unicode="J" horiz-adv-x="845" 
d="M202 -27q-154 0 -252 97l129 133q58 -58 146 -58q100 0 183.5 77t97.5 178l145 1034h172l-144 -1034q-25 -173 -165.5 -300t-311.5 -127z" />
    <glyph glyph-name="K" unicode="K" horiz-adv-x="1121" 
d="M977 0h-222l-366 622l-126 -129l-68 -493h-172l200 1434h172l-95 -673l659 673h225l-663 -677z" />
    <glyph glyph-name="L" unicode="L" horiz-adv-x="1039" 
d="M23 0l200 1434h172l-177 -1262h643l-24 -172h-814z" />
    <glyph glyph-name="M" unicode="M" horiz-adv-x="1839" 
d="M23 0l478 1434h132l245 -1018l528 1018h132l78 -1434h-175l-56 1040l-499 -962h-113l-229 962l-346 -1040h-175z" />
    <glyph glyph-name="N" unicode="N" horiz-adv-x="1319" 
d="M23 0l200 1434h187l559 -1123l156 1123h172l-200 -1434h-186l-559 1122l-157 -1122h-172z" />
    <glyph glyph-name="O" unicode="O" horiz-adv-x="1576" 
d="M684 -27q-143 0 -265.5 59t-203 158.5t-117.5 237.5t-16 289q28 202 147 373t296 270.5t368 99.5q143 0 265.5 -59t203 -158.5t117.5 -237t16 -288.5t-96.5 -289t-184 -237.5t-248 -158.5t-282.5 -59zM708 145q146 0 280 78t223.5 209.5t111.5 284.5q22 154 -31.5 285.5
t-166 208.5t-256.5 77q-146 0 -280 -77.5t-223.5 -209t-111.5 -284.5q-22 -154 31.5 -286t165.5 -209t257 -77z" />
    <glyph glyph-name="P" unicode="P" horiz-adv-x="1088" 
d="M23 0l200 1434h473q172 0 274.5 -123.5t77.5 -298.5q-25 -178 -163 -300.5t-307 -122.5h-302l-81 -589h-172zM301 761h285q105 0 191 75.5t100 184.5q16 110 -48.5 185.5t-169.5 75.5h-284z" />
    <glyph glyph-name="Q" unicode="Q" horiz-adv-x="1596" 
d="M1285 -30l-144 168q-210 -161 -457 -161q-144 0 -266.5 59t-203 158.5t-117 237.5t-15.5 289t96.5 288.5t184 237t247.5 158.5t283 59q191 0 339.5 -99.5t219 -270.5t42.5 -373q-37 -260 -217 -460l147 -169zM709 150q178 0 324 113l-163 190l140 122l157 -186
q131 148 155 332q22 154 -31.5 285.5t-165.5 208.5t-256 77q-146 0 -280 -78t-223.5 -209.5t-111.5 -283.5q-16 -116 11.5 -222t88.5 -182t154 -121.5t201 -45.5z" />
    <glyph glyph-name="R" unicode="R" horiz-adv-x="1169" 
d="M23 0l200 1434h504q172 0 273.5 -122.5t76.5 -299.5q-21 -153 -125 -265t-247 -144l265 -603h-199l-259 589h-236l-81 -589h-172zM301 761h314q106 0 191 75t101 185t-48.5 185.5t-169.5 75.5h-314z" />
    <glyph glyph-name="S" unicode="S" horiz-adv-x="1257" 
d="M523 -27q-178 0 -315 82t-167 219l169 61q19 -85 116 -137.5t222 -52.5q142 0 255 68t128 174q7 53 -16.5 95t-72 70t-103 46t-124.5 31q-92 16 -163 36t-134 53.5t-101.5 76.5t-56 106t-6.5 141q26 182 195.5 298t382.5 116q176 0 314 -81.5t171 -221.5l-171 -59
q-19 85 -116 137t-222 52q-141 1 -254 -67.5t-128 -173.5q-7 -50 6.5 -87.5t37 -60.5t72.5 -41.5t88 -27.5t110 -22q106 -18 192 -50.5t153.5 -82t99 -122t18.5 -161.5q-17 -121 -103 -217t-211.5 -146.5t-265.5 -50.5z" />
    <glyph glyph-name="T" unicode="T" horiz-adv-x="1289" 
d="M1308 1434l-25 -172h-477l-176 -1262h-172l176 1262h-475l23 172h1126z" />
    <glyph glyph-name="U" unicode="U" horiz-adv-x="1367" 
d="M580 -27q-168 0 -285.5 84.5t-165.5 226t-23 314.5l117 836h172l-116 -836q-18 -126 12 -227.5t110.5 -163.5t202.5 -62q182 0 303 130t149 323l116 836h173l-117 -836q-25 -174 -112 -315t-227.5 -225.5t-308.5 -84.5z" />
    <glyph glyph-name="V" unicode="V" horiz-adv-x="1369" 
d="M477 0l-319 1434h182l273 -1224l617 1224h181l-721 -1434h-213z" />
    <glyph glyph-name="W" unicode="W" horiz-adv-x="1777" 
d="M324 0l-166 1434h177l131 -1132l446 1132h154l131 -1132l445 1132h178l-566 -1434h-200l-120 1038l-411 -1038h-199z" />
    <glyph glyph-name="X" unicode="X" horiz-adv-x="1385" 
d="M-39 0l627 721l-420 713h212l334 -568l492 568h212l-617 -713l423 -721h-213l-338 573l-498 -573h-214z" />
    <glyph glyph-name="Y" unicode="Y" horiz-adv-x="1265" 
d="M1102 1434h203l-596 -786l-91 -648h-172l91 648l-375 786h203l284 -597z" />
    <glyph glyph-name="Z" unicode="Z" horiz-adv-x="1323" 
d="M-18 0l23 172l1081 1090h-927l23 172h1159l-23 -172l-1081 -1090h927l-23 -172h-1159z" />
    <glyph glyph-name="bracketleft" unicode="[" horiz-adv-x="579" 
d="M385 57l-25 -172h-354l217 1549h355l-24 -172h-182l-170 -1205h183z" />
    <glyph glyph-name="backslash" unicode="\" horiz-adv-x="750" 
d="M380 -115l-198 1549h172l198 -1549h-172z" />
    <glyph glyph-name="bracketright" unicode="]" horiz-adv-x="580" 
d="M-14 -115l23 172h185l168 1205h-183l24 172h355l-217 -1549h-355z" />
    <glyph glyph-name="asciicircum" unicode="^" horiz-adv-x="851" 
d="M125 1024l336 666h205l147 -666h-183l-99 443l-224 -443h-182z" />
    <glyph glyph-name="underscore" unicode="_" horiz-adv-x="1269" 
d="M30 57h1024l-24 -172h-1024z" />
    <glyph glyph-name="grave" unicode="`" horiz-adv-x="847" 
d="M360 1432h172l41 -295h-114z" />
    <glyph glyph-name="a" unicode="a" horiz-adv-x="1199" 
d="M989 1024h172l-143 -1024h-172l17 173q-63 -93 -156 -146.5t-206 -53.5q-111 0 -205.5 43.5t-157 116.5t-91.5 174t-13 212q31 221 208.5 377.5t397.5 156.5q117 0 202 -54.5t130 -149.5zM520 140q149 0 255 107t129 265q22 160 -54.5 266.5t-223.5 106.5
q-152 0 -273.5 -109t-143.5 -264t70 -263.5t241 -108.5z" />
    <glyph glyph-name="b" unicode="b" horiz-adv-x="1243" 
d="M689 1053q147 0 261 -72.5t169 -196.5t34 -271t-110.5 -271t-223.5 -196.5t-281 -72.5q-115 0 -196 54t-122 148l-24 -175h-172l215 1536h172l-97 -685q67 94 163.5 148t211.5 54zM559 141q152 0 274 109t144 263q22 156 -70 264.5t-242 108.5q-148 0 -254.5 -108
t-128.5 -265q-22 -159 54 -265.5t223 -106.5z" />
    <glyph glyph-name="c" unicode="c" horiz-adv-x="1043" 
d="M766 270l141 -83q-86 -100 -200.5 -157t-237.5 -57q-139 0 -247 72.5t-159 196.5t-30 270q32 224 204 382.5t384 158.5q123 0 222 -57.5t156 -157.5l-165 -83q-40 60 -103 93t-134 33q-143 0 -256.5 -109t-135.5 -260q-22 -150 62.5 -258.5t225.5 -108.5q74 0 146 34
t127 91z" />
    <glyph glyph-name="d" unicode="d" horiz-adv-x="1242" 
d="M1062 1536h172l-215 -1536h-172l24 174q-68 -94 -164 -147.5t-211 -53.5q-146 0 -260 72.5t-169 196.5t-34 270q21 147 110.5 271t223.5 196.5t280 72.5q116 0 197.5 -54t121.5 -147zM520 140q149 0 255 107t129 265q22 160 -54.5 266.5t-223.5 106.5q-151 0 -273 -109
t-144 -264t70 -263.5t241 -108.5z" />
    <glyph glyph-name="e" unicode="e" horiz-adv-x="1143" 
d="M469 -27q-139 0 -247 72.5t-159 196.5t-30 270q32 224 204 382.5t384 158.5q151 0 260.5 -80.5t152.5 -219t8 -303.5h-834q-1 -131 78 -217.5t207 -87.5q91 0 173 47t140 132l169 -41q-83 -139 -219 -224.5t-287 -85.5zM221 585h667q5 130 -78 222t-210 92
q-128 0 -235.5 -90.5t-143.5 -223.5z" />
    <glyph glyph-name="f" unicode="f" horiz-adv-x="700" 
d="M434 1277l-36 -253h300l-23 -172h-300l-120 -852h-172l120 852h-132l23 172h132l36 253q17 118 112 201t213 83q122 0 194 -92l-140 -121q-23 41 -78 41q-46 0 -84 -33t-45 -79z" />
    <glyph glyph-name="g" unicode="g" horiz-adv-x="1217" 
d="M966 1024h172l-149 -1057q-18 -132 -108 -243t-219.5 -173.5t-265.5 -62.5q-159 0 -282.5 101.5t-153.5 250.5l168 72q13 -106 99 -178.5t194 -72.5q138 0 258 90t138 216l29 204q-67 -92 -161 -145t-204 -53q-143 0 -253.5 72.5t-163 196.5t-31.5 270q21 147 108.5 271
t218 196.5t273.5 72.5q110 0 189 -53t120 -145zM506 140q144 0 250 108.5t128 263.5q22 156 -54 264.5t-219 108.5q-146 0 -263 -109t-139 -264q-22 -154 65.5 -263t231.5 -109z" />
    <glyph glyph-name="h" unicode="h" horiz-adv-x="1110" 
d="M1017 638l-88 -638h-172l83 599q16 116 -54.5 198t-186.5 82t-209 -82t-110 -198l-84 -599h-172l215 1536h172l-89 -640q65 73 154 115t184 42q113 0 201 -55.5t130 -151t26 -208.5z" />
    <glyph glyph-name="i" unicode="i" 
d="M276 1191q-41 0 -64 26.5t-17 66.5q5 40 36 66.5t72 26.5q39 0 62.5 -26.5t18.5 -66.5q-6 -40 -37 -66.5t-71 -26.5zM166 1024h172l-143 -1024h-172z" />
    <glyph glyph-name="j" unicode="j" horiz-adv-x="463" 
d="M324 1191q-41 0 -65 26.5t-18 66.5t37 66.5t71 26.5q39 0 63 -27t19 -66q-6 -40 -36.5 -66.5t-70.5 -26.5zM-255 -512l25 172q107 0 189 70.5t96 173.5l157 1120h172l-157 -1120q-25 -174 -164 -295t-318 -121z" />
    <glyph glyph-name="k" unicode="k" horiz-adv-x="1031" 
d="M854 0h-198l-206 470l-221 -225l-33 -245h-172l215 1536h172l-145 -1023l502 511h224l-405 -415z" />
    <glyph glyph-name="l" unicode="l" 
d="M24 0l215 1536h172l-215 -1536h-172z" />
    <glyph glyph-name="m" unicode="m" horiz-adv-x="1818" 
d="M23 0l143 1024h172l-17 -128q66 73 154 115t183 42q113 0 200 -54.5t128 -147.5q69 93 170.5 147.5t213.5 54.5q113 0 200.5 -55.5t129.5 -151t26 -208.5l-89 -638h-172l84 596q17 115 -52.5 199t-182.5 84q-115 0 -206 -81t-109 -202l-83 -596h-172l83 596
q18 121 -51 202t-184 81q-113 0 -204.5 -84t-108.5 -199l-84 -596h-172z" />
    <glyph glyph-name="n" unicode="n" horiz-adv-x="1108" 
d="M1016 638l-88 -638h-172l83 599q16 116 -54.5 198t-186.5 82t-209 -82t-110 -198l-84 -599h-172l143 1024h172l-17 -128q65 73 154 115t184 42q113 0 201 -55.5t130 -151t26 -208.5z" />
    <glyph glyph-name="o" unicode="o" horiz-adv-x="1146" 
d="M469 -27q-139 0 -247 72.5t-159 196.5t-30 270q32 224 204 382.5t384 158.5q139 0 247 -72.5t159 -197t30 -271.5q-21 -146 -107 -270t-214 -196.5t-267 -72.5zM493 145q143 0 257 108.5t135 258.5q21 151 -63 260t-225 109q-143 0 -257 -109t-135 -260q-22 -153 63 -260
t225 -107z" />
    <glyph glyph-name="p" unicode="p" horiz-adv-x="1241" 
d="M122 -512h-172l216 1536h172l-25 -175q67 94 163.5 148t211.5 54q147 0 261 -72.5t168.5 -196.5t33.5 -270q-32 -224 -211.5 -382.5t-402.5 -158.5q-115 0 -196.5 54.5t-121.5 147.5zM663 884q-147 0 -253.5 -106.5t-128.5 -265.5q-22 -158 53.5 -265.5t222.5 -107.5
q150 0 273.5 108.5t145.5 264.5q22 153 -70 262.5t-243 109.5z" />
    <glyph glyph-name="q" unicode="q" horiz-adv-x="1241" 
d="M496 -29q-146 0 -260 72.5t-169 197t-34 271.5q21 146 110.5 270t223.5 196.5t280 72.5q115 0 196 -54t122 -148l24 175h172l-216 -1536h-172l97 685q-68 -94 -163.5 -148t-210.5 -54zM626 884q-152 0 -273.5 -109t-143.5 -263q-22 -156 69.5 -264.5t241.5 -108.5
q148 0 254 107.5t129 265.5q22 159 -54 265.5t-223 106.5z" />
    <glyph glyph-name="r" unicode="r" horiz-adv-x="747" 
d="M23 0l143 1024h172l-17 -128q65 73 154 115t184 42q55 0 113 -16l-94 -172q-42 14 -80 14q-116 0 -209 -82t-110 -198l-84 -599h-172z" />
    <glyph glyph-name="s" unicode="s" horiz-adv-x="882" 
d="M332 -19q-126 5 -227 66t-127 154l157 63q15 -54 84.5 -93.5t150.5 -39.5q88 0 158 41.5t79 110.5q5 34 -7.5 58.5t-43 42t-57 27.5t-71.5 23q-5 1 -8 2l-7.5 2.5t-8.5 2.5q-83 22 -141.5 46t-105.5 60t-66 86.5t-10 115.5q20 138 143 224t277 86q124 0 218.5 -53.5
t132.5 -144.5l-150 -81q-18 55 -78 90t-132 37q-95 2 -166 -39t-82 -116q-3 -25 4 -45t17.5 -32t36.5 -25t43 -19t56 -18t58 -18q59 -20 103.5 -38.5t89.5 -46t71.5 -58.5t40 -74t5.5 -93q-14 -91 -80 -163t-161 -108.5t-196 -32.5z" />
    <glyph glyph-name="t" unicode="t" horiz-adv-x="713" 
d="M673 852h-233l-121 -852h-172l121 852h-176l24 172h176l44 322h172l-44 -322h232z" />
    <glyph glyph-name="u" unicode="u" horiz-adv-x="1068" 
d="M36 389l89 635h172l-84 -597q-16 -116 54.5 -198t186.5 -82q117 0 209.5 82t109.5 198l84 597h172l-142 -1024h-172l16 130q-65 -73 -154 -115t-184 -42q-173 0 -277.5 122t-79.5 294z" />
    <glyph glyph-name="v" unicode="v" horiz-adv-x="1090" 
d="M555 0h-220l-230 1026h184l184 -825l415 825h184z" />
    <glyph glyph-name="w" unicode="w" horiz-adv-x="1686" 
d="M478 0h-174l-200 1024h168l155 -781l371 781h177l152 -781l371 781h170l-486 -1024h-175l-154 788z" />
    <glyph glyph-name="x" unicode="x" horiz-adv-x="1125" 
d="M-18 0l446 514l-301 512h213l214 -364l318 364h213l-445 -512l303 -514h-212l-217 369l-320 -369h-212z" />
    <glyph glyph-name="y" unicode="y" horiz-adv-x="1088" 
d="M867 1024h183l-777 -1536h-182l258 512l-224 1024h188l155 -787z" />
    <glyph glyph-name="z" unicode="z" horiz-adv-x="1038" 
d="M976 852l-726 -680h630l-24 -172h-874l23 172l726 680h-630l24 172h874z" />
    <glyph glyph-name="braceleft" unicode="{" horiz-adv-x="827" 
d="M523 -116q-149 0 -239 105t-69 254l35 251q3 29 -19 50t-49.5 32t-49 32t-17.5 50t31.5 50.5t58.5 33.5t59 33t33 48l35 252q21 148 140 253.5t268 105.5h85l-23 -172h-85q-77 0 -140 -55t-73 -132l-37 -258q-5 -27 -19 -49.5t-26.5 -34.5t-44 -36.5t-48.5 -38.5
q15 -18 38 -41t33.5 -34.5t18 -33t5.5 -49.5l-37 -257q-11 -77 36.5 -132t123.5 -55h86l-25 -172h-85z" />
    <glyph glyph-name="bar" unicode="|" horiz-adv-x="458" 
d="M244 1434h172l-245 -1743h-172z" />
    <glyph glyph-name="braceright" unicode="}" horiz-adv-x="827" 
d="M-14 -116l23 172h85q77 0 139.5 55t73.5 132l36 257q5 28 18.5 49.5t27 33t43.5 34.5t50 41q-13 15 -37 39t-34 36t-17.5 34.5t-5.5 49.5l36 258q11 77 -36.5 132t-123.5 55h-85l24 172h85q149 0 239 -105.5t69 -253.5l-35 -252q-3 -27 19 -48t50 -33t49 -33.5t17 -50.5
t-31.5 -50t-58.5 -32t-59 -32t-33 -50l-35 -251q-21 -149 -140 -254t-268 -105h-85z" />
    <glyph glyph-name="asciitilde" unicode="~" horiz-adv-x="1275" 
d="M895 426q-58 0 -136.5 33.5t-142.5 73t-136 72.5t-118 33q-61 1 -102 -48t-38 -112l-169 -4q-8 124 90.5 226.5t229.5 102.5q46 0 101.5 -22t107 -54t102 -64t103 -54t93.5 -22q63 0 104.5 47.5t38.5 110.5l168 7q10 -129 -79 -227.5t-217 -98.5z" />
    <glyph glyph-name="uni00A0" unicode="&#xa0;" horiz-adv-x="491" 
 />
    <glyph glyph-name="exclamdown" unicode="&#xa1;" horiz-adv-x="370" 
d="M222 1051q40 0 63.5 -28t17.5 -68q-4 -39 -35.5 -66t-71.5 -27q-38 0 -62 27t-19 66q6 40 37 68t70 28zM232 594l-141 -1004h-149l141 1004h149z" />
    <glyph glyph-name="cent" unicode="&#xa2;" horiz-adv-x="1118" 
d="M430 0l29 209q-187 24 -296 169.5t-81 340.5t177.5 340t342.5 168l29 207h127l-30 -207q117 -12 208 -76.5t138 -165.5l-161 -86q-36 74 -109 118t-160 44q-139 0 -254 -101t-136 -241q-20 -143 67.5 -243.5t226.5 -100.5q87 0 172.5 44t141.5 118l136 -86
q-75 -101 -183.5 -165.5t-228.5 -76.5l-29 -209h-127z" />
    <glyph glyph-name="sterling" unicode="&#xa3;" horiz-adv-x="1198" 
d="M6 0l24 172q78 0 152 25.5t121.5 76t42.5 112.5q0 40 -9 73h-266l17 126h176q-10 11 -26.5 30t-27 31.5t-25.5 31t-24 34t-20 36t-17 41.5t-10.5 45t-4 52t4.5 58q20 140 105.5 258.5t214 188t268.5 69.5q141 0 250.5 -69t162.5 -188t34 -259h-172q20 142 -67.5 243
t-230.5 101q-142 0 -257 -101t-136 -243q-3 -46 -3.5 -78t11.5 -63.5t23.5 -52.5t31.5 -45t36.5 -40t38 -39t36.5 -41h402l-18 -126h-327q10 -53 1 -117q-8 -53 -47.5 -101t-83.5 -69h640l-23 -172h-998z" />
    <glyph glyph-name="currency" unicode="&#xa4;" horiz-adv-x="1018" 
d="M111 289l-77 89l146 129q-53 93 -36.5 209t98.5 209l-112 132l101 88l112 -130q101 66 218.5 66.5t200.5 -64.5l147 128l76 -88l-145 -129q56 -94 39.5 -211.5t-98.5 -211.5l108 -127l-102 -89l-107 126q-106 -68 -222 -68t-202 70zM477 472q100 2 181.5 72.5t95.5 170.5
q13 102 -47.5 171t-160.5 70q-102 0 -182.5 -71t-94.5 -170q-14 -101 48 -172.5t160 -70.5z" />
    <glyph glyph-name="yen" unicode="&#xa5;" horiz-adv-x="1288" 
d="M458 0l25 185h-286l17 125h287l20 148h-287l19 125h287l8 65l-375 786h203l284 -597l453 597h203l-596 -786l-8 -65h286l-18 -125h-287l-20 -148h286l-17 -125h-287l-25 -185h-172z" />
    <glyph glyph-name="brokenbar" unicode="&#xa6;" 
d="M223 1434h172l-107 -768h-172zM87 459h172l-108 -768h-173z" />
    <glyph glyph-name="section" unicode="&#xa7;" horiz-adv-x="1108" 
d="M400 -402q-125 0 -219.5 52.5t-132.5 143.5l151 81q18 -54 78 -89.5t132 -37.5q95 -2 166 40t81 116q4 30 -6 53.5t-26.5 38.5t-49.5 28t-60 20t-73 17q-180 32 -275.5 153.5t-71.5 296.5q17 125 100.5 229t200.5 149q-187 55 -163 227q20 138 142.5 224t276.5 86
q125 0 220 -52.5t133 -143.5l-151 -81q-18 54 -78.5 89.5t-132.5 37.5q-95 2 -166 -40t-81 -116q-4 -30 5.5 -53t25 -37.5t49 -27.5t59 -19.5t73.5 -17.5q188 -40 282 -155.5t68 -298.5q-18 -124 -102 -227.5t-200 -148.5q187 -56 165 -227q-14 -92 -77 -164t-153.5 -109
t-189.5 -37zM493 227q110 0 201.5 84t108.5 197q18 129 -55 209t-192 80q-107 0 -199 -85.5t-108 -200.5q-18 -119 55 -201.5t189 -82.5z" />
    <glyph glyph-name="dieresis" unicode="&#xa8;" horiz-adv-x="1355" 
d="M561 1104q-41 0 -65.5 26.5t-18.5 66.5q5 39 37.5 67.5t72.5 28.5q39 0 63.5 -28.5t19.5 -67.5q-6 -40 -37.5 -66.5t-71.5 -26.5zM906 1104q-41 0 -65.5 26.5t-19.5 66.5q5 39 38 67.5t73 28.5q39 0 63 -28.5t19 -67.5q-5 -40 -36.5 -66.5t-71.5 -26.5z" />
    <glyph glyph-name="copyright" unicode="&#xa9;" horiz-adv-x="1874" 
d="M801 -250q-174 0 -323 67.5t-247 182t-143.5 273t-20.5 332.5t114.5 332.5t220 273t298 182t341.5 67.5t323.5 -67.5t248 -182t144.5 -273t21 -332.5t-115 -332.5t-221 -273t-299 -182t-342 -67.5zM825 -78q188 0 359.5 93t283.5 250t138 340q26 186 -44 343.5t-215 249
t-329 90.5q-187 -1 -357.5 -93.5t-283 -249t-138.5 -340.5q-20 -141 17 -268.5t116.5 -218t197.5 -143.5t255 -53zM1136 365l142 -84q-87 -100 -201.5 -157t-237.5 -57q-139 0 -247 72t-159.5 196t-30.5 270q32 224 204 382.5t384 158.5q124 0 223 -57.5t157 -157.5
l-167 -83q-39 60 -102 93t-134 33q-143 0 -257 -109t-136 -260q-21 -150 63 -258t225 -108q75 0 147 34t127 92z" />
    <glyph glyph-name="ordfeminine" unicode="&#xaa;" horiz-adv-x="1199" 
d="M989 1024h172l-143 -1024h-172l17 173q-63 -93 -156 -146.5t-206 -53.5q-111 0 -205.5 43.5t-157 116.5t-91.5 174t-13 212q31 221 208.5 377.5t397.5 156.5q117 0 202 -54.5t130 -149.5zM520 140q149 0 255 107t129 265q22 160 -54.5 266.5t-223.5 106.5
q-152 0 -273.5 -109t-143.5 -264t70 -263.5t241 -108.5z" />
    <glyph glyph-name="guillemotleft" unicode="&#xab;" horiz-adv-x="1087" 
d="M367 267l-258 348l356 347h183l-355 -347l257 -348h-183zM738 267l-258 348l357 347h183l-355 -347l257 -348h-184z" />
    <glyph glyph-name="logicalnot" unicode="&#xac;" horiz-adv-x="1009" 
d="M699 315l61 426h-675l25 172h846l-85 -598h-172z" />
    <glyph glyph-name="uni00AD" unicode="&#xad;" horiz-adv-x="923" 
d="M143 700h656l-25 -172h-655z" />
    <glyph glyph-name="registered" unicode="&#xae;" horiz-adv-x="1054" 
d="M490 457q-193 1 -309.5 138t-90.5 328q27 191 183 328.5t349 137.5q128 0 227 -64.5t144.5 -171.5t28.5 -230q-27 -192 -183 -328.5t-349 -137.5zM508 587q139 0 251 98.5t132 237.5q20 138 -64.5 236t-224.5 98q-138 0 -249.5 -98t-131.5 -236q-19 -139 65 -237.5
t222 -98.5zM399 724l59 417h157q51 0 81.5 -37.5t22.5 -90.5q-6 -40 -32 -72t-61 -44l76 -173h-97l-73 163h-25l-24 -163h-84zM517 971h75q14 0 27 12.5t15 29.5q2 19 -7 31t-24 12h-73z" />
    <glyph glyph-name="macron" unicode="&#xaf;" horiz-adv-x="1228" 
d="M354 1326h693l-20 -135h-692z" />
    <glyph glyph-name="degree" unicode="&#xb0;" horiz-adv-x="779" 
d="M401 799q-128 0 -205 91t-60 216q18 127 120.5 217t230.5 90q129 0 205.5 -91t59.5 -216q-18 -129 -121 -218t-230 -89zM426 971q57 0 102 39t52 96q8 57 -26 96t-90 39q-57 0 -102.5 -39t-53.5 -96q-7 -57 27 -96t91 -39z" />
    <glyph glyph-name="plusminus" unicode="&#xb1;" horiz-adv-x="1187" 
d="M458 353l59 426h-426l24 172h426l60 426h172l-60 -426h426l-24 -172h-426l-59 -426h-172zM-18 0l23 172h1024l-23 -172h-1024z" />
    <glyph glyph-name="uni00B2" unicode="&#xb2;" horiz-adv-x="712" 
d="M116 838l14 108q173 107 241 161q124 96 155 174q6 47 -22.5 78.5t-75.5 31.5q-49 0 -87.5 -31.5t-44.5 -78.5h-119q13 96 90.5 159t175.5 63q97 0 155.5 -63t45.5 -159q-19 -136 -302 -326h251l-16 -117h-461z" />
    <glyph glyph-name="uni00B3" unicode="&#xb3;" horiz-adv-x="575" 
d="M303 817q-91 0 -145 57.5t-41 146.5h117q-6 -40 18.5 -65.5t65.5 -25.5q40 0 71 25.5t37 65.5q6 48 -27 79.5t-100 31.5l12 89q62 0 97 26t41 68q5 32 -16 53.5t-55 21.5q-33 0 -59.5 -21.5t-30.5 -53.5h-119q11 82 76 134.5t149 52.5q85 0 134.5 -52.5t37.5 -134.5
q-5 -40 -26 -77t-50 -59q67 -66 54 -158q-12 -88 -82 -146t-159 -58z" />
    <glyph glyph-name="acute" unicode="&#xb4;" horiz-adv-x="847" 
d="M393 1137l123 295h172l-180 -295h-115z" />
    <glyph glyph-name="uni00B5" unicode="&#xb5;" horiz-adv-x="1103" 
d="M-81 -442l206 1466h172l-76 -539q-20 -144 53 -244.5t201 -100.5q127 0 224.5 100t118.5 245l75 539h172l-143 -1024h-172l22 159q-70 -88 -158 -137.5t-186 -49.5q-85 0 -151.5 39.5t-106.5 106.5l-79 -560h-172z" />
    <glyph glyph-name="paragraph" unicode="&#xb6;" horiz-adv-x="932" 
d="M286 -309l147 1044q-145 0 -232.5 102t-67.5 247q21 145 137 247.5t260 102.5h172l-244 -1743h-172zM535 -309l244 1743h172l-244 -1743h-172z" />
    <glyph glyph-name="periodcentered" unicode="&#xb7;" horiz-adv-x="353" 
d="M148 520q-39 0 -62.5 27.5t-17.5 67.5q5 39 36 66.5t70 27.5t63.5 -27.5t19.5 -66.5q-6 -40 -38 -67.5t-71 -27.5z" />
    <glyph glyph-name="cedilla" unicode="&#xb8;" horiz-adv-x="1264" 
d="M462 -378q-69 -19 -125 16t-64 102l103 27q4 -26 25.5 -39.5t48.5 -6.5q28 7 44.5 30.5t13.5 49.5q-4 26 -25 39t-50 8l-107 -11l162 229l82 -53l-51 -72q36 -11 61.5 -41.5t30.5 -71.5q8 -68 -35.5 -128.5t-113.5 -77.5z" />
    <glyph glyph-name="uni00B9" unicode="&#xb9;" horiz-adv-x="440" 
d="M193 838l73 528h-77l34 118h178l-90 -646h-118z" />
    <glyph glyph-name="ordmasculine" unicode="&#xba;" horiz-adv-x="1146" 
d="M469 -27q-139 0 -247 72.5t-159 196.5t-30 270q32 224 204 382.5t384 158.5q139 0 247 -72.5t159 -197t30 -271.5q-21 -146 -107 -270t-214 -196.5t-267 -72.5zM493 145q143 0 257 108.5t135 258.5q21 151 -63 260t-225 109q-143 0 -257 -109t-135 -260q-22 -153 63 -260
t225 -107z" />
    <glyph glyph-name="guillemotright" unicode="&#xbb;" horiz-adv-x="1107" 
d="M411 267l355 348l-257 347h183l258 -347l-356 -348h-183zM39 267l355 348l-257 347h184l258 -347l-357 -348h-183z" />
    <glyph glyph-name="onequarter" unicode="&#xbc;" horiz-adv-x="1601" 
d="M193 838l73 528h-77l34 118h178l-90 -646h-118zM82 0l1028 1434h152l-1030 -1434h-150zM1167 0l17 118h-268l20 142l299 386h140l-57 -410h68l-16 -118h-68l-17 -118h-118zM1051 236h157l35 248z" />
    <glyph glyph-name="onehalf" unicode="&#xbd;" horiz-adv-x="1613" 
d="M193 838l73 528h-77l34 118h178l-90 -646h-118zM82 0l1028 1434h152l-1030 -1434h-150zM900 0l14 109q2 1 42.5 26t51 32t49.5 32.5t55.5 38t49.5 37t50.5 42.5t40 40.5t36 44t21.5 42.5q7 47 -22 78t-77 31t-86.5 -31t-45.5 -78h-117q13 96 90.5 161.5t175.5 65.5
q97 0 155 -65.5t45 -161.5q-18 -131 -302 -326h250l-15 -118h-461z" />
    <glyph glyph-name="threequarters" unicode="&#xbe;" horiz-adv-x="1735" 
d="M303 817q-91 0 -145 57.5t-41 146.5h117q-6 -40 18.5 -65.5t65.5 -25.5q40 0 71 25.5t37 65.5q6 48 -27 79.5t-100 31.5l12 89q62 0 97 26t41 68q5 32 -16 53.5t-55 21.5q-33 0 -59.5 -21.5t-30.5 -53.5h-119q11 82 76 134.5t149 52.5q85 0 134.5 -52.5t37.5 -134.5
q-5 -40 -26 -77t-50 -59q67 -66 54 -158q-12 -88 -82 -146t-159 -58zM216 0l1028 1434h152l-1028 -1434h-152zM1302 0l16 118h-267l19 142l299 386h140l-57 -410h69l-17 -118h-68l-17 -118h-117zM1185 236h157l35 248z" />
    <glyph glyph-name="questiondown" unicode="&#xbf;" horiz-adv-x="1034" 
d="M514 862q-38 0 -62 27t-19 66q6 40 37.5 68t71.5 28q39 0 62 -28t17 -68q-4 -39 -36 -66t-71 -27zM345 -437q-116 0 -206 57t-132.5 155t-26.5 213q17 120 89.5 222t180.5 156q55 27 91 75t43 106h172q-15 -104 -80.5 -192.5t-165.5 -140.5q-63 -32 -105.5 -93
t-52.5 -133q-14 -104 50 -178.5t168 -74.5t189.5 74.5t99.5 178.5h172q-25 -176 -167 -300.5t-319 -124.5z" />
    <glyph glyph-name="Agrave" unicode="&#xc0;" horiz-adv-x="1414" 
d="M648 1841h172l41 -295h-115zM703 1434h208l321 -1434h-182l-67 293h-671l-147 -293h-183zM399 465h545l-168 748z" />
    <glyph glyph-name="Aacute" unicode="&#xc1;" horiz-adv-x="1414" 
d="M780 1546l123 295h172l-179 -295h-116zM703 1434h208l321 -1434h-182l-67 293h-671l-147 -293h-183zM399 465h545l-168 748z" />
    <glyph glyph-name="Acircumflex" unicode="&#xc2;" horiz-adv-x="1414" 
d="M959 1841l157 -295h-115l-149 205l-205 -205h-113l236 295h189zM703 1434h208l321 -1434h-182l-67 293h-671l-147 -293h-183zM399 465h545l-168 748z" />
    <glyph glyph-name="Atilde" unicode="&#xc3;" horiz-adv-x="1414" 
d="M983 1561q-34 0 -82 26t-87.5 55.5t-79 50.5t-60.5 14q-26 -8 -40.5 -34.5t-10.5 -62.5l-114 -30q-21 96 37.5 171.5t154.5 75.5q34 0 82.5 -23t88 -51t79.5 -51t60 -23q31 0 45.5 33t8.5 64l115 35q19 -100 -41 -175t-156 -75zM703 1434h208l321 -1434h-182l-67 293
h-671l-147 -293h-183zM399 465h545l-168 748z" />
    <glyph glyph-name="Adieresis" unicode="&#xc4;" horiz-adv-x="1414" 
d="M647 1513q-41 0 -65.5 27t-18.5 67q5 39 37.5 67.5t72.5 28.5q39 0 63.5 -28.5t19.5 -67.5q-6 -40 -38 -67t-71 -27zM992 1513q-41 0 -65.5 27t-19.5 67q5 39 38 67.5t73 28.5q39 0 63.5 -28.5t19.5 -67.5q-6 -40 -38 -67t-71 -27zM703 1434h208l321 -1434h-182l-67 293
h-671l-147 -293h-183zM399 465h545l-168 748z" />
    <glyph glyph-name="Aring" unicode="&#xc5;" horiz-adv-x="1414" 
d="M819 1524q-70 0 -112.5 50.5t-32.5 120.5q10 69 66.5 119t126.5 50t113 -50t34 -119q-10 -71 -67.5 -121t-127.5 -50zM833 1615q32 0 58.5 23t31.5 57q4 32 -16 54.5t-53 22.5q-32 0 -58 -22.5t-30 -54.5q-5 -33 14.5 -56.5t52.5 -23.5zM703 1434h208l321 -1434h-182
l-67 293h-671l-147 -293h-183zM399 465h545l-168 748z" />
    <glyph glyph-name="AE" unicode="&#xc6;" horiz-adv-x="1674" 
d="M-18 0l721 1434h969l-23 -172h-565l-64 -459h466l-24 -172h-466l-64 -459h564l-25 -172h-736l41 293h-464l-147 -293h-183zM399 465h402l111 797h-111z" />
    <glyph glyph-name="Ccedilla" unicode="&#xc7;" horiz-adv-x="1452" 
d="M636 -378q-69 -19 -125 16t-65 102l104 27q3 -26 25 -39.5t49 -6.5q28 7 44.5 30.5t12.5 49.5q-3 26 -24.5 39t-49.5 8l-107 -11l100 141q-127 16 -233 80.5t-175 162t-99.5 227t-10.5 269.5q28 202 146.5 373t295 270.5t367.5 99.5q170 0 306 -79.5t215 -216.5l-164 -82
q-59 95 -160 150.5t-221 55.5q-109 0 -214.5 -46t-187.5 -123t-138.5 -182.5t-72.5 -219.5q-22 -154 30.5 -286t164.5 -209t257 -77q122 0 238 55.5t202 150.5l140 -83q-112 -130 -260.5 -208.5t-308.5 -85.5l-25 -33q37 -11 62.5 -41t30.5 -72q8 -68 -35.5 -128.5
t-113.5 -77.5z" />
    <glyph glyph-name="Egrave" unicode="&#xc8;" horiz-adv-x="1104" 
d="M494 1841h172l41 -295h-115zM23 0l200 1434h880l-24 -172h-707l-58 -408h580l-24 -172h-580l-72 -510h708l-24 -172h-879z" />
    <glyph glyph-name="Eacute" unicode="&#xc9;" horiz-adv-x="1104" 
d="M626 1546l123 295h172l-180 -295h-115zM23 0l200 1434h880l-24 -172h-707l-58 -408h580l-24 -172h-580l-72 -510h708l-24 -172h-879z" />
    <glyph glyph-name="Ecircumflex" unicode="&#xca;" horiz-adv-x="1104" 
d="M806 1841l157 -295h-116l-150 205l-203 -205h-115l236 295h191zM23 0l200 1434h880l-24 -172h-707l-58 -408h580l-24 -172h-580l-72 -510h708l-24 -172h-879z" />
    <glyph glyph-name="Edieresis" unicode="&#xcb;" horiz-adv-x="1104" 
d="M493 1513q-41 0 -65 27t-18 67q5 39 37 67.5t72 28.5q39 0 63 -28.5t19 -67.5q-6 -40 -37.5 -67t-70.5 -27zM838 1513q-41 0 -65 27t-19 67q5 39 37.5 67.5t72.5 28.5q39 0 63 -28.5t19 -67.5q-6 -40 -37.5 -67t-70.5 -27zM23 0l200 1434h880l-24 -172h-707l-58 -408h580
l-24 -172h-580l-72 -510h708l-24 -172h-879z" />
    <glyph glyph-name="Igrave" unicode="&#xcc;" horiz-adv-x="479" 
d="M181 1841h172l41 -295h-114zM53 0l201 1434h172l-201 -1434h-172z" />
    <glyph glyph-name="Iacute" unicode="&#xcd;" horiz-adv-x="479" 
d="M313 1546l123 295h172l-179 -295h-116zM53 0l201 1434h172l-201 -1434h-172z" />
    <glyph glyph-name="Icircumflex" unicode="&#xce;" horiz-adv-x="479" 
d="M493 1841l156 -295h-114l-150 205l-205 -205h-113l235 295h191zM53 0l201 1434h172l-201 -1434h-172z" />
    <glyph glyph-name="Idieresis" unicode="&#xcf;" horiz-adv-x="479" 
d="M180 1513q-41 0 -65.5 27t-18.5 67q5 39 37.5 67.5t72.5 28.5q39 0 63.5 -28.5t18.5 -67.5q-5 -40 -36.5 -67t-71.5 -27zM525 1513q-41 0 -65.5 27t-19.5 67q5 39 38 67.5t73 28.5q39 0 63 -28.5t19 -67.5q-6 -40 -37.5 -67t-70.5 -27zM53 0l201 1434h172l-201 -1434
h-172z" />
    <glyph glyph-name="Eth" unicode="&#xd0;" horiz-adv-x="1490" 
d="M138 0l95 682h-136l25 172h136l81 580h474q145 0 270 -57t207.5 -153t121 -229t18.5 -278t-95.5 -278t-185.5 -229t-251 -153t-286 -57h-474zM334 172h303q112 0 219 44t189.5 117.5t139 174t72.5 209.5q22 149 -34.5 275t-171.5 198t-261 72h-303l-57 -408h334l-24 -172
h-334z" />
    <glyph glyph-name="Ntilde" unicode="&#xd1;" horiz-adv-x="1319" 
d="M937 1561q-43 0 -108 41.5t-120.5 77.5t-81.5 27q-26 -8 -41 -34.5t-11 -62.5l-113 -30q-20 96 38 171.5t154 75.5q44 0 108.5 -37t121 -74t80.5 -37q31 0 45.5 33t8.5 64l115 35q20 -100 -40 -175t-156 -75zM23 0l200 1434h187l559 -1123l156 1123h172l-200 -1434h-186
l-559 1122l-157 -1122h-172z" />
    <glyph glyph-name="Ograve" unicode="&#xd2;" horiz-adv-x="1576" 
d="M730 1841h172l41 -295h-115zM684 -27q-143 0 -265.5 59t-203 158.5t-117.5 237.5t-16 289q28 202 147 373t296 270.5t368 99.5q143 0 265.5 -59t203 -158.5t117.5 -237t16 -288.5t-96.5 -289t-184 -237.5t-248 -158.5t-282.5 -59zM708 145q146 0 280 78t223.5 209.5
t111.5 284.5q22 154 -31.5 285.5t-166 208.5t-256.5 77q-146 0 -280 -77.5t-223.5 -209t-111.5 -284.5q-22 -154 31.5 -286t165.5 -209t257 -77z" />
    <glyph glyph-name="Oacute" unicode="&#xd3;" horiz-adv-x="1576" 
d="M862 1546l123 295h172l-179 -295h-116zM684 -27q-143 0 -265.5 59t-203 158.5t-117.5 237.5t-16 289q28 202 147 373t296 270.5t368 99.5q143 0 265.5 -59t203 -158.5t117.5 -237t16 -288.5t-96.5 -289t-184 -237.5t-248 -158.5t-282.5 -59zM708 145q146 0 280 78
t223.5 209.5t111.5 284.5q22 154 -31.5 285.5t-166 208.5t-256.5 77q-146 0 -280 -77.5t-223.5 -209t-111.5 -284.5q-22 -154 31.5 -286t165.5 -209t257 -77z" />
    <glyph glyph-name="Ocircumflex" unicode="&#xd4;" horiz-adv-x="1576" 
d="M1041 1841l157 -295h-115l-149 205l-205 -205h-114l236 295h190zM684 -27q-143 0 -265.5 59t-203 158.5t-117.5 237.5t-16 289q28 202 147 373t296 270.5t368 99.5q143 0 265.5 -59t203 -158.5t117.5 -237t16 -288.5t-96.5 -289t-184 -237.5t-248 -158.5t-282.5 -59z
M708 145q146 0 280 78t223.5 209.5t111.5 284.5q22 154 -31.5 285.5t-166 208.5t-256.5 77q-146 0 -280 -77.5t-223.5 -209t-111.5 -284.5q-22 -154 31.5 -286t165.5 -209t257 -77z" />
    <glyph glyph-name="Otilde" unicode="&#xd5;" horiz-adv-x="1576" 
d="M1065 1561q-34 0 -82 26t-87.5 55.5t-79 50.5t-60.5 14q-26 -8 -40.5 -34.5t-10.5 -62.5l-114 -30q-21 96 37 171.5t155 75.5q34 0 82.5 -23t88 -51t79.5 -51t60 -23q30 0 45 33.5t9 63.5l115 35q19 -100 -41 -175t-156 -75zM684 -27q-143 0 -265.5 59t-203 158.5
t-117.5 237.5t-16 289q28 202 147 373t296 270.5t368 99.5q143 0 265.5 -59t203 -158.5t117.5 -237t16 -288.5t-96.5 -289t-184 -237.5t-248 -158.5t-282.5 -59zM708 145q146 0 280 78t223.5 209.5t111.5 284.5q22 154 -31.5 285.5t-166 208.5t-256.5 77q-146 0 -280 -77.5
t-223.5 -209t-111.5 -284.5q-22 -154 31.5 -286t165.5 -209t257 -77z" />
    <glyph glyph-name="Odieresis" unicode="&#xd6;" horiz-adv-x="1576" 
d="M729 1513q-41 0 -65.5 27t-18.5 67q5 39 37.5 67.5t72.5 28.5q39 0 63.5 -28.5t18.5 -67.5q-5 -40 -36.5 -67t-71.5 -27zM1074 1513q-41 0 -65.5 27t-19.5 67q5 39 38 67.5t73 28.5q39 0 63 -28.5t19 -67.5q-6 -40 -37.5 -67t-70.5 -27zM684 -27q-143 0 -265.5 59
t-203 158.5t-117.5 237.5t-16 289q28 202 147 373t296 270.5t368 99.5q143 0 265.5 -59t203 -158.5t117.5 -237t16 -288.5t-96.5 -289t-184 -237.5t-248 -158.5t-282.5 -59zM708 145q146 0 280 78t223.5 209.5t111.5 284.5q22 154 -31.5 285.5t-166 208.5t-256.5 77
q-146 0 -280 -77.5t-223.5 -209t-111.5 -284.5q-22 -154 31.5 -286t165.5 -209t257 -77z" />
    <glyph glyph-name="multiply" unicode="&#xd7;" horiz-adv-x="1009" 
d="M129 191l-104 122l343 301l-257 301l138 122l258 -301l343 301l105 -122l-344 -301l259 -301l-139 -122l-259 302z" />
    <glyph glyph-name="Oslash" unicode="&#xd8;" horiz-adv-x="1576" 
d="M309 -91l-137 86l99 140q-110 104 -161.5 256.5t-27.5 325.5q28 202 147 373t296 270.5t368 99.5q155 0 282 -68l95 133l137 -86l-101 -140q111 -104 162 -255.5t27 -326.5q-21 -151 -96.5 -289t-184 -237.5t-248 -158.5t-282.5 -59q-147 0 -280 69zM385 293l680 946
q-89 49 -196 49q-146 0 -280 -77.5t-223.5 -209t-111.5 -284.5q-18 -125 17.5 -236.5t113.5 -187.5zM708 145q146 0 280 78t223.5 209.5t111.5 284.5q18 125 -17 236.5t-111 188.5l-681 -947q90 -50 194 -50z" />
    <glyph glyph-name="Ugrave" unicode="&#xd9;" horiz-adv-x="1367" 
d="M625 1841h172l41 -295h-115zM580 -27q-168 0 -285.5 84.5t-165.5 226t-23 314.5l117 836h172l-116 -836q-18 -126 12 -227.5t110.5 -163.5t202.5 -62q182 0 303 130t149 323l116 836h173l-117 -836q-25 -174 -112 -315t-227.5 -225.5t-308.5 -84.5z" />
    <glyph glyph-name="Uacute" unicode="&#xda;" horiz-adv-x="1367" 
d="M758 1546l123 295h172l-181 -295h-114zM580 -27q-168 0 -285.5 84.5t-165.5 226t-23 314.5l117 836h172l-116 -836q-18 -126 12 -227.5t110.5 -163.5t202.5 -62q182 0 303 130t149 323l116 836h173l-117 -836q-25 -174 -112 -315t-227.5 -225.5t-308.5 -84.5z" />
    <glyph glyph-name="Ucircumflex" unicode="&#xdb;" horiz-adv-x="1367" 
d="M937 1841l157 -295h-116l-150 205l-203 -205h-115l236 295h191zM580 -27q-168 0 -285.5 84.5t-165.5 226t-23 314.5l117 836h172l-116 -836q-18 -126 12 -227.5t110.5 -163.5t202.5 -62q182 0 303 130t149 323l116 836h173l-117 -836q-25 -174 -112 -315t-227.5 -225.5
t-308.5 -84.5z" />
    <glyph glyph-name="Udieresis" unicode="&#xdc;" horiz-adv-x="1367" 
d="M624 1513q-41 0 -65 27t-18 67q5 39 37 67.5t72 28.5q39 0 63 -28.5t19 -67.5q-6 -40 -37.5 -67t-70.5 -27zM969 1513q-41 0 -65 27t-19 67q5 39 37.5 67.5t72.5 28.5q39 0 63 -28.5t19 -67.5q-6 -40 -37.5 -67t-70.5 -27zM580 -27q-168 0 -285.5 84.5t-165.5 226
t-23 314.5l117 836h172l-116 -836q-18 -126 12 -227.5t110.5 -163.5t202.5 -62q182 0 303 130t149 323l116 836h173l-117 -836q-25 -174 -112 -315t-227.5 -225.5t-308.5 -84.5z" />
    <glyph glyph-name="Yacute" unicode="&#xdd;" horiz-adv-x="1265" 
d="M707 1546l122 295h172l-180 -295h-114zM1102 1434h203l-596 -786l-91 -648h-172l91 648l-375 786h203l284 -597z" />
    <glyph glyph-name="Thorn" unicode="&#xde;" horiz-adv-x="1068" 
d="M23 0l200 1434h172l-41 -295h301q172 0 274.5 -122.5t77.5 -299.5q-17 -117 -86.5 -214.5t-171.5 -152.5t-212 -55h-301l-41 -295h-172zM260 467h285q106 0 191 75t101 185q15 109 -49.5 184.5t-169.5 75.5h-285z" />
    <glyph glyph-name="germandbls" unicode="&#xdf;" horiz-adv-x="1115" 
d="M23 0l134 961q28 196 185 334.5t353 138.5q161 0 257 -115.5t72 -280.5q-13 -94 -66.5 -177.5t-136.5 -123.5q77 -18 124.5 -73.5t61 -125.5t1.5 -149q-23 -163 -155.5 -276t-296.5 -113h-76l-9 152h91q106 0 191.5 72.5t99.5 174.5q13 102 -51 173.5t-170 73.5l-90 2
l20 146l27 2q97 5 173.5 74t89.5 168q14 100 -43.5 172t-151.5 72q-117 0 -211.5 -83.5t-111.5 -201.5l-139 -997h-172z" />
    <glyph glyph-name="agrave" unicode="&#xe0;" horiz-adv-x="1199" 
d="M499 1432h172l41 -295h-114zM989 1024h172l-143 -1024h-172l17 173q-63 -93 -156 -146.5t-206 -53.5q-111 0 -205.5 43.5t-157 116.5t-91.5 174t-13 212q31 221 208.5 377.5t397.5 156.5q117 0 202 -54.5t130 -149.5zM520 140q149 0 255 107t129 265q22 160 -54.5 266.5
t-223.5 106.5q-152 0 -273.5 -109t-143.5 -264t70 -263.5t241 -108.5z" />
    <glyph glyph-name="aacute" unicode="&#xe1;" horiz-adv-x="1199" 
d="M632 1137l123 295h172l-181 -295h-114zM989 1024h172l-143 -1024h-172l17 173q-63 -93 -156 -146.5t-206 -53.5q-111 0 -205.5 43.5t-157 116.5t-91.5 174t-13 212q31 221 208.5 377.5t397.5 156.5q117 0 202 -54.5t130 -149.5zM520 140q149 0 255 107t129 265
q22 160 -54.5 266.5t-223.5 106.5q-152 0 -273.5 -109t-143.5 -264t70 -263.5t241 -108.5z" />
    <glyph glyph-name="acircumflex" unicode="&#xe2;" horiz-adv-x="1199" 
d="M811 1432l157 -295h-116l-150 204l-203 -204h-115l237 295h190zM989 1024h172l-143 -1024h-172l17 173q-63 -93 -156 -146.5t-206 -53.5q-111 0 -205.5 43.5t-157 116.5t-91.5 174t-13 212q31 221 208.5 377.5t397.5 156.5q117 0 202 -54.5t130 -149.5zM520 140
q149 0 255 107t129 265q22 160 -54.5 266.5t-223.5 106.5q-152 0 -273.5 -109t-143.5 -264t70 -263.5t241 -108.5z" />
    <glyph glyph-name="atilde" unicode="&#xe3;" horiz-adv-x="1199" 
d="M835 1151q-34 0 -82.5 26t-88 55.5t-79.5 50.5t-61 14q-25 -8 -39.5 -34.5t-10.5 -62.5l-115 -30q-20 96 38.5 171.5t155.5 75.5q34 0 82 -23t87.5 -50.5t79 -50.5t59.5 -23q31 0 46 33t8 63l116 36q19 -100 -40.5 -175.5t-155.5 -75.5zM989 1024h172l-143 -1024h-172
l17 173q-63 -93 -156 -146.5t-206 -53.5q-111 0 -205.5 43.5t-157 116.5t-91.5 174t-13 212q31 221 208.5 377.5t397.5 156.5q117 0 202 -54.5t130 -149.5zM520 140q149 0 255 107t129 265q22 160 -54.5 266.5t-223.5 106.5q-152 0 -273.5 -109t-143.5 -264t70 -263.5
t241 -108.5z" />
    <glyph glyph-name="adieresis" unicode="&#xe4;" horiz-adv-x="1199" 
d="M498 1104q-41 0 -65 26.5t-18 66.5q5 39 37 67.5t72 28.5q39 0 63 -28.5t19 -67.5q-6 -40 -37.5 -66.5t-70.5 -26.5zM843 1104q-41 0 -65 26.5t-19 66.5q5 39 37.5 67.5t72.5 28.5q39 0 63 -28.5t19 -67.5q-6 -40 -37.5 -66.5t-70.5 -26.5zM989 1024h172l-143 -1024h-172
l17 173q-63 -93 -156 -146.5t-206 -53.5q-111 0 -205.5 43.5t-157 116.5t-91.5 174t-13 212q31 221 208.5 377.5t397.5 156.5q117 0 202 -54.5t130 -149.5zM520 140q149 0 255 107t129 265q22 160 -54.5 266.5t-223.5 106.5q-152 0 -273.5 -109t-143.5 -264t70 -263.5
t241 -108.5z" />
    <glyph glyph-name="aring" unicode="&#xe5;" horiz-adv-x="1199" 
d="M671 1114q-70 0 -113 50.5t-33 120.5q9 69 66.5 119t127.5 50t112.5 -50t32.5 -119q-10 -71 -66.5 -121t-126.5 -50zM683 1205q33 0 59.5 23.5t30.5 56.5q5 32 -15 54.5t-53 22.5q-32 0 -58 -22.5t-31 -54.5q-4 -34 15.5 -57t51.5 -23zM989 1024h172l-143 -1024h-172
l17 173q-63 -93 -156 -146.5t-206 -53.5q-111 0 -205.5 43.5t-157 116.5t-91.5 174t-13 212q31 221 208.5 377.5t397.5 156.5q117 0 202 -54.5t130 -149.5zM520 140q149 0 255 107t129 265q22 160 -54.5 266.5t-223.5 106.5q-152 0 -273.5 -109t-143.5 -264t70 -263.5
t241 -108.5z" />
    <glyph glyph-name="ae" unicode="&#xe6;" horiz-adv-x="1805" 
d="M243 -26q-136 0 -214.5 87.5t-59.5 217.5q18 126 118.5 216.5t237.5 90.5h375q12 125 -58 210t-200 85q-76 0 -151 -35l-75 144q123 63 249 63q127 0 226 -65t146 -175q80 109 198.5 174.5t247.5 65.5q152 0 261.5 -80.5t152.5 -219t8 -303.5h-837q0 -132 80 -218.5
t208 -86.5q90 0 172 47.5t140 131.5l169 -41q-83 -139 -218.5 -224.5t-286.5 -85.5q-140 0 -247 75.5t-151 199.5q-78 -120 -212 -197t-279 -77zM883 585h667q5 130 -78 222t-211 92t-235 -90.5t-143 -223.5zM266 128q101 0 191.5 52t149.5 137q48 62 72 134h-373
q-70 0 -121.5 -46.5t-59.5 -115.5q-10 -67 28 -114t113 -47z" />
    <glyph glyph-name="ccedilla" unicode="&#xe7;" horiz-adv-x="1043" 
d="M423 -378q-69 -19 -125 16t-65 102l104 27q3 -26 25 -39.5t49 -6.5q28 7 44.5 30.5t12.5 49.5q-3 26 -24.5 39t-49.5 8l-107 -11l101 144q-180 31 -281.5 181t-73.5 350q32 224 204 382.5t384 158.5q123 0 222 -57.5t156 -157.5l-165 -83q-40 60 -103 93t-134 33
q-143 0 -256.5 -109t-135.5 -260q-22 -150 62.5 -258.5t225.5 -108.5q74 0 146 34t127 91l141 -83q-79 -92 -183.5 -148.5t-219.5 -64.5l-25 -33q37 -11 62.5 -41t30.5 -72q8 -68 -35.5 -128.5t-113.5 -77.5z" />
    <glyph glyph-name="egrave" unicode="&#xe8;" horiz-adv-x="1143" 
d="M457 1432h172l41 -295h-115zM469 -27q-139 0 -247 72.5t-159 196.5t-30 270q32 224 204 382.5t384 158.5q151 0 260.5 -80.5t152.5 -219t8 -303.5h-834q-1 -131 78 -217.5t207 -87.5q91 0 173 47t140 132l169 -41q-83 -139 -219 -224.5t-287 -85.5zM221 585h667
q5 130 -78 222t-210 92q-128 0 -235.5 -90.5t-143.5 -223.5z" />
    <glyph glyph-name="eacute" unicode="&#xe9;" horiz-adv-x="1143" 
d="M589 1137l123 295h172l-179 -295h-116zM469 -27q-139 0 -247 72.5t-159 196.5t-30 270q32 224 204 382.5t384 158.5q151 0 260.5 -80.5t152.5 -219t8 -303.5h-834q-1 -131 78 -217.5t207 -87.5q91 0 173 47t140 132l169 -41q-83 -139 -219 -224.5t-287 -85.5zM221 585
h667q5 130 -78 222t-210 92q-128 0 -235.5 -90.5t-143.5 -223.5z" />
    <glyph glyph-name="ecircumflex" unicode="&#xea;" horiz-adv-x="1143" 
d="M768 1432l157 -295h-115l-150 204l-204 -204h-114l237 295h189zM469 -27q-139 0 -247 72.5t-159 196.5t-30 270q32 224 204 382.5t384 158.5q151 0 260.5 -80.5t152.5 -219t8 -303.5h-834q-1 -131 78 -217.5t207 -87.5q91 0 173 47t140 132l169 -41q-83 -139 -219 -224.5
t-287 -85.5zM221 585h667q5 130 -78 222t-210 92q-128 0 -235.5 -90.5t-143.5 -223.5z" />
    <glyph glyph-name="edieresis" unicode="&#xeb;" horiz-adv-x="1143" 
d="M456 1104q-41 0 -65.5 26.5t-18.5 66.5q5 39 37 67.5t72 28.5q39 0 63.5 -28.5t19.5 -67.5q-6 -40 -37.5 -66.5t-70.5 -26.5zM801 1104q-41 0 -65.5 26.5t-19.5 66.5q5 39 37.5 67.5t72.5 28.5q39 0 63.5 -28.5t19.5 -67.5q-6 -40 -37.5 -66.5t-70.5 -26.5zM469 -27
q-139 0 -247 72.5t-159 196.5t-30 270q32 224 204 382.5t384 158.5q151 0 260.5 -80.5t152.5 -219t8 -303.5h-834q-1 -131 78 -217.5t207 -87.5q91 0 173 47t140 132l169 -41q-83 -139 -219 -224.5t-287 -85.5zM221 585h667q5 130 -78 222t-210 92q-128 0 -235.5 -90.5
t-143.5 -223.5z" />
    <glyph glyph-name="igrave" unicode="&#xec;" 
d="M93 1432h172l41 -295h-115zM166 1024h172l-143 -1024h-172z" />
    <glyph glyph-name="iacute" unicode="&#xed;" 
d="M225 1137l123 295h172l-179 -295h-116zM166 1024h172l-143 -1024h-172z" />
    <glyph glyph-name="icircumflex" unicode="&#xee;" 
d="M404 1432l157 -295h-115l-149 204l-205 -204h-114l236 295h190zM166 1024h172l-143 -1024h-172z" />
    <glyph glyph-name="idieresis" unicode="&#xef;" 
d="M92 1104q-41 0 -65.5 26.5t-18.5 66.5q5 39 37.5 67.5t72.5 28.5q39 0 63.5 -28.5t18.5 -67.5q-5 -40 -36.5 -66.5t-71.5 -26.5zM437 1104q-41 0 -65.5 26.5t-19.5 66.5q5 39 38 67.5t73 28.5q39 0 63 -28.5t19 -67.5q-6 -40 -37.5 -66.5t-70.5 -26.5zM166 1024h172
l-143 -1024h-172z" />
    <glyph glyph-name="eth" unicode="&#xf0;" horiz-adv-x="1152" 
d="M493 -27q-140 0 -249 68.5t-161.5 187t-32.5 258.5t105.5 258.5t213.5 187.5t268 69q83 0 149.5 -35t106.5 -97q-13 118 -56.5 223.5t-116.5 174.5l-225 -196l-78 89l201 175q-74 34 -166 34l22 172q161 0 290 -81l164 142l74 -91l-144 -124q141 -137 201.5 -365.5
t24.5 -492.5q-23 -162 -105.5 -289t-209.5 -197.5t-276 -70.5zM516 145q144 0 257.5 101.5t134.5 240.5q20 141 -67 242t-229 101q-143 0 -256.5 -101.5t-133.5 -241.5t66.5 -241t227.5 -101z" />
    <glyph glyph-name="ntilde" unicode="&#xf1;" horiz-adv-x="1110" 
d="M805 1151q-43 0 -108 41.5t-120.5 77.5t-81.5 27q-26 -8 -41 -34.5t-11 -62.5l-113 -30q-20 96 38 171.5t154 75.5q34 0 82.5 -23t88 -50.5t79 -50.5t59.5 -23q31 0 46 33t9 63l114 36q19 -100 -40.5 -175.5t-154.5 -75.5zM1016 638l-88 -638h-172l83 599
q16 116 -54.5 198t-186.5 82t-209 -82t-110 -198l-84 -599h-172l143 1024h172l-17 -128q65 73 154 115t184 42q113 0 201 -55.5t130 -151t26 -208.5z" />
    <glyph glyph-name="ograve" unicode="&#xf2;" horiz-adv-x="1146" 
d="M458 1432h172l41 -295h-115zM469 -27q-139 0 -247 72.5t-159 196.5t-30 270q32 224 204 382.5t384 158.5q139 0 247 -72.5t159 -197t30 -271.5q-21 -146 -107 -270t-214 -196.5t-267 -72.5zM493 145q143 0 257 108.5t135 258.5q21 151 -63 260t-225 109q-143 0 -257 -109
t-135 -260q-22 -153 63 -260t225 -107z" />
    <glyph glyph-name="oacute" unicode="&#xf3;" horiz-adv-x="1146" 
d="M590 1137l123 295h172l-179 -295h-116zM469 -27q-139 0 -247 72.5t-159 196.5t-30 270q32 224 204 382.5t384 158.5q139 0 247 -72.5t159 -197t30 -271.5q-21 -146 -107 -270t-214 -196.5t-267 -72.5zM493 145q143 0 257 108.5t135 258.5q21 151 -63 260t-225 109
q-143 0 -257 -109t-135 -260q-22 -153 63 -260t225 -107z" />
    <glyph glyph-name="ocircumflex" unicode="&#xf4;" horiz-adv-x="1146" 
d="M769 1432l157 -295h-115l-149 204l-205 -204h-114l236 295h190zM469 -27q-139 0 -247 72.5t-159 196.5t-30 270q32 224 204 382.5t384 158.5q139 0 247 -72.5t159 -197t30 -271.5q-21 -146 -107 -270t-214 -196.5t-267 -72.5zM493 145q143 0 257 108.5t135 258.5
q21 151 -63 260t-225 109q-143 0 -257 -109t-135 -260q-22 -153 63 -260t225 -107z" />
    <glyph glyph-name="otilde" unicode="&#xf5;" horiz-adv-x="1146" 
d="M793 1151q-34 0 -82 26t-87.5 55.5t-79.5 50.5t-61 14q-26 -8 -40.5 -34.5t-10.5 -62.5l-114 -30q-21 96 37.5 171.5t155.5 75.5q34 0 82.5 -23t87.5 -50.5t79 -50.5t60 -23q30 0 45 33t9 63l115 36q19 -100 -40.5 -175.5t-155.5 -75.5zM469 -27q-139 0 -247 72.5
t-159 196.5t-30 270q32 224 204 382.5t384 158.5q139 0 247 -72.5t159 -197t30 -271.5q-21 -146 -107 -270t-214 -196.5t-267 -72.5zM493 145q143 0 257 108.5t135 258.5q21 151 -63 260t-225 109q-143 0 -257 -109t-135 -260q-22 -153 63 -260t225 -107z" />
    <glyph glyph-name="odieresis" unicode="&#xf6;" horiz-adv-x="1146" 
d="M457 1104q-41 0 -65.5 26.5t-18.5 66.5q5 39 37 67.5t72 28.5q39 0 63.5 -28.5t18.5 -67.5q-5 -40 -36 -66.5t-71 -26.5zM802 1104q-41 0 -65.5 26.5t-19.5 66.5q5 39 37.5 67.5t72.5 28.5q39 0 63 -28.5t19 -67.5q-6 -40 -37 -66.5t-70 -26.5zM469 -27q-139 0 -247 72.5
t-159 196.5t-30 270q32 224 204 382.5t384 158.5q139 0 247 -72.5t159 -197t30 -271.5q-21 -146 -107 -270t-214 -196.5t-267 -72.5zM493 145q143 0 257 108.5t135 258.5q21 151 -63 260t-225 109q-143 0 -257 -109t-135 -260q-22 -153 63 -260t225 -107z" />
    <glyph glyph-name="divide" unicode="&#xf7;" horiz-adv-x="1187" 
d="M647 1100q46 0 74.5 -35t22.5 -81t-44.5 -80t-84.5 -34q-49 0 -76.5 33.5t-20.5 80.5q5 46 43 81t86 35zM55 528l25 172h1024l-25 -172h-1024zM543 358q46 0 76 -35t24 -80q-7 -47 -46 -80.5t-85 -33.5q-49 0 -77.5 33t-20.5 81q6 46 43.5 80.5t85.5 34.5z" />
    <glyph glyph-name="oslash" unicode="&#xf8;" horiz-adv-x="1146" 
d="M215 -61l-115 71l64 87q-77 75 -112.5 183.5t-18.5 231.5q32 224 204 382.5t384 158.5q111 0 195 -45l60 82l114 -72l-62 -88q77 -75 111.5 -184t17.5 -234q-21 -146 -107 -270t-214 -196.5t-267 -72.5q-102 0 -196 46zM269 244l448 625q-66 24 -133 22t-132.5 -35.5
t-119 -83t-91 -120.5t-48.5 -148q-10 -77 10.5 -144.5t65.5 -115.5zM373 158q68 -25 136 -22.5t133.5 35.5t118 83t89 120t47.5 146q10 77 -10 146t-65 117z" />
    <glyph glyph-name="ugrave" unicode="&#xf9;" horiz-adv-x="1069" 
d="M436 1433h172l41 -295h-114zM36 389l89 635h172l-84 -597q-16 -116 54.5 -198t186.5 -82q117 0 209.5 82t109.5 198l84 597h172l-142 -1024h-172l16 130q-65 -73 -154 -115t-184 -42q-173 0 -277.5 122t-79.5 294z" />
    <glyph glyph-name="uacute" unicode="&#xfa;" horiz-adv-x="1069" 
d="M568 1138l123 295h172l-179 -295h-116zM36 389l89 635h172l-84 -597q-16 -116 54.5 -198t186.5 -82q117 0 209.5 82t109.5 198l84 597h172l-142 -1024h-172l16 130q-65 -73 -154 -115t-184 -42q-173 0 -277.5 122t-79.5 294z" />
    <glyph glyph-name="ucircumflex" unicode="&#xfb;" horiz-adv-x="1069" 
d="M748 1433l157 -295h-115l-150 205l-204 -205h-114l236 295h190zM36 389l89 635h172l-84 -597q-16 -116 54.5 -198t186.5 -82q117 0 209.5 82t109.5 198l84 597h172l-142 -1024h-172l16 130q-65 -73 -154 -115t-184 -42q-173 0 -277.5 122t-79.5 294z" />
    <glyph glyph-name="udieresis" unicode="&#xfc;" horiz-adv-x="1069" 
d="M435 1105q-41 0 -65 27t-19 67q6 39 38 67t72 28q39 0 63.5 -28t19.5 -67q-6 -40 -38 -67t-71 -27zM780 1105q-41 0 -65.5 27t-18.5 67q5 39 37.5 67t72.5 28q39 0 63.5 -28t19.5 -67q-6 -40 -38 -67t-71 -27zM36 389l89 635h172l-84 -597q-16 -116 54.5 -198t186.5 -82
q117 0 209.5 82t109.5 198l84 597h172l-142 -1024h-172l16 130q-65 -73 -154 -115t-184 -42q-173 0 -277.5 122t-79.5 294z" />
    <glyph glyph-name="yacute" unicode="&#xfd;" horiz-adv-x="1088" 
d="M560 1137l123 295h172l-179 -295h-116zM867 1024h183l-777 -1536h-182l258 512l-224 1024h188l155 -787z" />
    <glyph glyph-name="thorn" unicode="&#xfe;" horiz-adv-x="1241" 
d="M-50 -512l273 1946h172l-82 -585q67 94 163.5 148t211.5 54q147 0 261 -72.5t168.5 -196.5t33.5 -270q-32 -224 -211.5 -382.5t-402.5 -158.5q-115 0 -196.5 54.5t-121.5 147.5l-97 -685h-172zM557 139q150 0 273.5 108.5t145.5 264.5q22 153 -70 262.5t-243 109.5
q-147 0 -253.5 -106.5t-128.5 -265.5q-22 -158 53.5 -265.5t222.5 -107.5z" />
    <glyph glyph-name="ydieresis" unicode="&#xff;" horiz-adv-x="1088" 
d="M427 1104q-41 0 -65.5 26.5t-18.5 66.5q5 39 37.5 67.5t72.5 28.5q39 0 63.5 -28.5t19.5 -67.5q-6 -40 -37.5 -66.5t-71.5 -26.5zM772 1104q-41 0 -65.5 26.5t-19.5 66.5q5 39 38 67.5t73 28.5q39 0 63.5 -28.5t19.5 -67.5q-6 -40 -37.5 -66.5t-71.5 -26.5zM867 1024h183
l-777 -1536h-182l258 512l-224 1024h188l155 -787z" />
    <glyph glyph-name="Amacron" unicode="&#x100;" horiz-adv-x="1414" 
d="M504 1736h692l-19 -135h-693zM703 1434h208l321 -1434h-182l-67 293h-671l-147 -293h-183zM399 465h545l-168 748z" />
    <glyph glyph-name="amacron" unicode="&#x101;" horiz-adv-x="1199" 
d="M354 1326h693l-19 -135h-692zM989 1024h172l-143 -1024h-172l17 173q-63 -93 -156 -146.5t-206 -53.5q-111 0 -205.5 43.5t-157 116.5t-91.5 174t-13 212q31 221 208.5 377.5t397.5 156.5q117 0 202 -54.5t130 -149.5zM520 140q149 0 255 107t129 265q22 160 -54.5 266.5
t-223.5 106.5q-152 0 -273.5 -109t-143.5 -264t70 -263.5t241 -108.5z" />
    <glyph glyph-name="Abreve" unicode="&#x102;" horiz-adv-x="1414" 
d="M820 1524q-140 0 -226 100.5t-67 239.5h117q-13 -93 45 -158.5t148 -65.5q92 0 166.5 65.5t87.5 158.5h116q-20 -142 -134 -241t-253 -99zM703 1434h208l321 -1434h-182l-67 293h-671l-147 -293h-183zM399 465h545l-168 748z" />
    <glyph glyph-name="abreve" unicode="&#x103;" horiz-adv-x="1199" 
d="M672 1114q-140 0 -226 100.5t-67 239.5h117q-13 -93 44 -158t148 -65t166 65.5t88 157.5h117q-20 -142 -134 -241t-253 -99zM989 1024h172l-143 -1024h-172l17 173q-63 -93 -156 -146.5t-206 -53.5q-111 0 -205.5 43.5t-157 116.5t-91.5 174t-13 212q31 221 208.5 377.5
t397.5 156.5q117 0 202 -54.5t130 -149.5zM520 140q149 0 255 107t129 265q22 160 -54.5 266.5t-223.5 106.5q-152 0 -273.5 -109t-143.5 -264t70 -263.5t241 -108.5z" />
    <glyph glyph-name="Aogonek" unicode="&#x104;" horiz-adv-x="1414" 
d="M1051 -428q-87 1 -134.5 62t-36.5 141q12 83 78 142l96 83h-4l-67 293h-671l-147 -293h-183l721 1434h208l321 -1434q-22 -19 -49 -42t-42 -36.5t-34 -30t-29 -26t-22 -22t-18 -20.5t-12 -17.5t-8.5 -18t-3.5 -17.5q-5 -29 11.5 -51t48.5 -23q41 0 76 29t42 73h119
q-13 -94 -89 -160t-171 -66zM399 465h545l-168 748z" />
    <glyph glyph-name="aogonek" unicode="&#x105;" horiz-adv-x="1199" 
d="M837 -428q-87 1 -135 62t-36 141q12 83 78 142l102 89l17 167q-63 -93 -156 -146.5t-206 -53.5q-111 0 -205.5 43.5t-157 116.5t-91.5 174t-13 212q31 221 208.5 377.5t397.5 156.5q117 0 202 -54.5t130 -149.5l17 175h172l-143 -1024q-23 -20 -54 -46.5t-46.5 -40
t-36 -32t-30 -28t-21 -22.5t-17 -22t-9.5 -19t-5 -20q-4 -29 12.5 -51t48.5 -23q41 0 76 29t42 73h119q-14 -95 -89.5 -160.5t-170.5 -65.5zM520 140q149 0 255 107t129 265q22 160 -54.5 266.5t-223.5 106.5q-152 0 -273.5 -109t-143.5 -264t70 -263.5t241 -108.5z" />
    <glyph glyph-name="Cacute" unicode="&#x106;" horiz-adv-x="1452" 
d="M860 1546l123 295h172l-179 -295h-116zM682 -27q-143 0 -265 59t-202.5 158.5t-117 237.5t-15.5 289q28 202 146.5 373t295 270.5t367.5 99.5q170 0 306 -79.5t215 -216.5l-164 -82q-59 95 -160 150.5t-221 55.5q-109 0 -214.5 -46t-187.5 -123t-138.5 -182.5
t-72.5 -219.5q-22 -154 30.5 -286t164.5 -209t257 -77q122 0 238 55.5t202 150.5l140 -83q-118 -137 -276 -216t-328 -79z" />
    <glyph glyph-name="cacute" unicode="&#x107;" horiz-adv-x="1043" 
d="M590 1137l123 295h172l-179 -295h-116zM766 270l141 -83q-86 -100 -200.5 -157t-237.5 -57q-139 0 -247 72.5t-159 196.5t-30 270q32 224 204 382.5t384 158.5q123 0 222 -57.5t156 -157.5l-165 -83q-40 60 -103 93t-134 33q-143 0 -256.5 -109t-135.5 -260
q-22 -150 62.5 -258.5t225.5 -108.5q74 0 146 34t127 91z" />
    <glyph glyph-name="Ccircumflex" unicode="&#x108;" horiz-adv-x="1452" 
d="M1039 1841l157 -295h-115l-149 205l-205 -205h-114l236 295h190zM682 -27q-143 0 -265 59t-202.5 158.5t-117 237.5t-15.5 289q28 202 146.5 373t295 270.5t367.5 99.5q170 0 306 -79.5t215 -216.5l-164 -82q-59 95 -160 150.5t-221 55.5q-109 0 -214.5 -46t-187.5 -123
t-138.5 -182.5t-72.5 -219.5q-22 -154 30.5 -286t164.5 -209t257 -77q122 0 238 55.5t202 150.5l140 -83q-118 -137 -276 -216t-328 -79z" />
    <glyph glyph-name="ccircumflex" unicode="&#x109;" horiz-adv-x="1043" 
d="M769 1432l157 -295h-115l-149 204l-205 -204h-114l236 295h190zM766 270l141 -83q-86 -100 -200.5 -157t-237.5 -57q-139 0 -247 72.5t-159 196.5t-30 270q32 224 204 382.5t384 158.5q123 0 222 -57.5t156 -157.5l-165 -83q-40 60 -103 93t-134 33q-143 0 -256.5 -109
t-135.5 -260q-22 -150 62.5 -258.5t225.5 -108.5q74 0 146 34t127 91z" />
    <glyph glyph-name="Cdotaccent" unicode="&#x10a;" horiz-adv-x="1452" 
d="M911 1601q-41 0 -64.5 26.5t-17.5 66.5q5 40 36.5 66.5t72.5 26.5q39 0 62.5 -26.5t18.5 -66.5q-6 -40 -37 -66.5t-71 -26.5zM682 -27q-143 0 -265 59t-202.5 158.5t-117 237.5t-15.5 289q28 202 146.5 373t295 270.5t367.5 99.5q170 0 306 -79.5t215 -216.5l-164 -82
q-59 95 -160 150.5t-221 55.5q-109 0 -214.5 -46t-187.5 -123t-138.5 -182.5t-72.5 -219.5q-22 -154 30.5 -286t164.5 -209t257 -77q122 0 238 55.5t202 150.5l140 -83q-118 -137 -276 -216t-328 -79z" />
    <glyph glyph-name="cdotaccent" unicode="&#x10b;" horiz-adv-x="1043" 
d="M641 1191q-41 0 -64.5 26.5t-17.5 66.5q5 40 36.5 66.5t72.5 26.5q39 0 62.5 -26.5t18.5 -66.5q-6 -40 -37 -66.5t-71 -26.5zM766 270l141 -83q-86 -100 -200.5 -157t-237.5 -57q-139 0 -247 72.5t-159 196.5t-30 270q32 224 204 382.5t384 158.5q123 0 222 -57.5
t156 -157.5l-165 -83q-40 60 -103 93t-134 33q-143 0 -256.5 -109t-135.5 -260q-22 -150 62.5 -258.5t225.5 -108.5q74 0 146 34t127 91z" />
    <glyph glyph-name="Ccaron" unicode="&#x10c;" horiz-adv-x="1452" 
d="M808 1546l-157 295h114l150 -205l204 205h115l-236 -295h-190zM682 -27q-143 0 -265 59t-202.5 158.5t-117 237.5t-15.5 289q28 202 146.5 373t295 270.5t367.5 99.5q170 0 306 -79.5t215 -216.5l-164 -82q-59 95 -160 150.5t-221 55.5q-109 0 -214.5 -46t-187.5 -123
t-138.5 -182.5t-72.5 -219.5q-22 -154 30.5 -286t164.5 -209t257 -77q122 0 238 55.5t202 150.5l140 -83q-118 -137 -276 -216t-328 -79z" />
    <glyph glyph-name="ccaron" unicode="&#x10d;" horiz-adv-x="1043" 
d="M538 1137l-157 295h114l150 -205l204 205h115l-236 -295h-190zM766 270l141 -83q-86 -100 -200.5 -157t-237.5 -57q-139 0 -247 72.5t-159 196.5t-30 270q32 224 204 382.5t384 158.5q123 0 222 -57.5t156 -157.5l-165 -83q-40 60 -103 93t-134 33q-143 0 -256.5 -109
t-135.5 -260q-22 -150 62.5 -258.5t225.5 -108.5q74 0 146 34t127 91z" />
    <glyph glyph-name="Dcaron" unicode="&#x10e;" horiz-adv-x="1375" 
d="M689 1546l-157 295h114l151 -205l203 205h115l-235 -295h-191zM23 0l200 1434h474q146 0 271 -57t207.5 -153t120.5 -228.5t18 -278.5t-95.5 -278.5t-185 -228.5t-250 -153t-286.5 -57h-474zM218 172h302q148 0 283.5 72.5t226.5 198.5t112 274t-35 273.5t-171 198.5
t-263 73h-301z" />
    <glyph glyph-name="dcaron" unicode="&#x10f;" horiz-adv-x="1242" 
d="M1062 1536h172l-215 -1536h-172l24 174q-68 -94 -164 -147.5t-211 -53.5q-146 0 -260 72.5t-169 196.5t-34 270q21 147 110.5 271t223.5 196.5t280 72.5q116 0 197.5 -54t121.5 -147zM1273 1241l123 295h172l-180 -295h-115zM520 140q149 0 255 107t129 265
q22 160 -54.5 266.5t-223.5 106.5q-151 0 -273 -109t-144 -264t70 -263.5t241 -108.5z" />
    <glyph glyph-name="Emacron" unicode="&#x112;" horiz-adv-x="1104" 
d="M349 1736h692l-19 -135h-692zM23 0l200 1434h880l-24 -172h-707l-58 -408h580l-24 -172h-580l-72 -510h708l-24 -172h-879z" />
    <glyph glyph-name="emacron" unicode="&#x113;" horiz-adv-x="1143" 
d="M312 1326h693l-20 -135h-692zM469 -27q-139 0 -247 72.5t-159 196.5t-30 270q32 224 204 382.5t384 158.5q151 0 260.5 -80.5t152.5 -219t8 -303.5h-834q-1 -131 78 -217.5t207 -87.5q91 0 173 47t140 132l169 -41q-83 -139 -219 -224.5t-287 -85.5zM221 585h667
q5 130 -78 222t-210 92q-128 0 -235.5 -90.5t-143.5 -223.5z" />
    <glyph glyph-name="Edotaccent" unicode="&#x116;" horiz-adv-x="1104" 
d="M678 1601q-41 0 -65 26.5t-18 66.5t37 66.5t71 26.5q39 0 63 -27t19 -66q-6 -40 -36.5 -66.5t-70.5 -26.5zM23 0l200 1434h880l-24 -172h-707l-58 -408h580l-24 -172h-580l-72 -510h708l-24 -172h-879z" />
    <glyph glyph-name="edotaccent" unicode="&#x117;" horiz-adv-x="1143" 
d="M640 1191q-41 0 -64.5 26.5t-17.5 66.5t37 66.5t72 26.5q39 0 62.5 -26.5t18.5 -66.5t-36 -66.5t-72 -26.5zM469 -27q-139 0 -247 72.5t-159 196.5t-30 270q32 224 204 382.5t384 158.5q151 0 260.5 -80.5t152.5 -219t8 -303.5h-834q-1 -131 78 -217.5t207 -87.5
q91 0 173 47t140 132l169 -41q-83 -139 -219 -224.5t-287 -85.5zM221 585h667q5 130 -78 222t-210 92q-128 0 -235.5 -90.5t-143.5 -223.5z" />
    <glyph glyph-name="Eogonek" unicode="&#x118;" horiz-adv-x="1104" 
d="M23 0l200 1434h880l-24 -172h-707l-58 -408h580l-24 -172h-580l-72 -510h708l-24 -172h-120q-22 -19 -49 -42t-42 -36.5t-34 -30t-29 -26t-22 -22t-18 -20.5t-12 -17.5t-8.5 -18t-3.5 -17.5q-5 -29 12 -51t49 -23q41 0 75.5 29t41.5 73h119q-13 -94 -89 -160t-171 -66
q-87 1 -134.5 62t-36.5 141q11 82 79 142l95 83h-581z" />
    <glyph glyph-name="eogonek" unicode="&#x119;" horiz-adv-x="1143" 
d="M452 -428q-87 1 -135 62t-36 141q12 83 78 142l67 58q-128 11 -225 85t-142.5 193.5t-25.5 258.5q32 224 204 382.5t384 158.5q151 0 260.5 -80.5t152.5 -219t8 -303.5h-834q-1 -131 78 -217.5t207 -87.5q91 0 173 47t140 132l169 -41q-59 -100 -148.5 -174t-194.5 -109
h1q-23 -20 -54 -46.5t-46.5 -40t-36 -32t-30 -28t-21 -22.5t-17 -22t-9.5 -19t-5 -20q-4 -29 12.5 -51t48.5 -23q41 0 76 29t42 73h119q-14 -95 -89.5 -160.5t-170.5 -65.5zM221 585h667q5 130 -78 222t-210 92q-128 0 -235.5 -90.5t-143.5 -223.5z" />
    <glyph glyph-name="Ecaron" unicode="&#x11a;" horiz-adv-x="1104" 
d="M573 1546l-156 295h114l151 -205l203 205h115l-236 -295h-191zM23 0l200 1434h880l-24 -172h-707l-58 -408h580l-24 -172h-580l-72 -510h708l-24 -172h-879z" />
    <glyph glyph-name="ecaron" unicode="&#x11b;" horiz-adv-x="1143" 
d="M537 1137l-157 295h115l150 -205l203 205h116l-237 -295h-190zM469 -27q-139 0 -247 72.5t-159 196.5t-30 270q32 224 204 382.5t384 158.5q151 0 260.5 -80.5t152.5 -219t8 -303.5h-834q-1 -131 78 -217.5t207 -87.5q91 0 173 47t140 132l169 -41q-83 -139 -219 -224.5
t-287 -85.5zM221 585h667q5 130 -78 222t-210 92q-128 0 -235.5 -90.5t-143.5 -223.5z" />
    <glyph glyph-name="Gcircumflex" unicode="&#x11c;" horiz-adv-x="1572" 
d="M1041 1841l157 -295h-115l-150 205l-204 -205h-115l237 295h190zM683 -27q-145 0 -268 59.5t-202.5 159.5t-115.5 237.5t-15 288.5q29 206 151 377.5t298 267.5t364 96q162 0 297.5 -76.5t221.5 -218.5l-166 -83q-65 100 -164.5 153.5t-214.5 53.5q-144 0 -277.5 -75.5
t-224.5 -208t-113 -289.5q-22 -154 31.5 -285.5t166 -208t257.5 -76.5q173 0 328.5 113.5t228.5 290.5h-353l22 153h555q-22 -147 -98 -282t-184 -233t-245.5 -156t-279.5 -58z" />
    <glyph glyph-name="gcircumflex" unicode="&#x11d;" horiz-adv-x="1217" 
d="M805 1432l157 -295h-115l-151 204l-203 -204h-115l236 295h191zM966 1024h172l-149 -1057q-18 -132 -108 -243t-219.5 -173.5t-265.5 -62.5q-159 0 -282.5 101.5t-153.5 250.5l168 72q13 -106 99 -178.5t194 -72.5q138 0 258 90t138 216l29 204q-67 -92 -161 -145
t-204 -53q-143 0 -253.5 72.5t-163 196.5t-31.5 270q21 147 108.5 271t218 196.5t273.5 72.5q110 0 189 -53t120 -145zM506 140q144 0 250 108.5t128 263.5q22 156 -54 264.5t-219 108.5q-146 0 -263 -109t-139 -264q-22 -154 65.5 -263t231.5 -109z" />
    <glyph glyph-name="Gbreve" unicode="&#x11e;" horiz-adv-x="1572" 
d="M902 1524q-140 0 -226 100.5t-67 239.5h117q-13 -93 45 -158.5t148 -65.5q91 0 165.5 65.5t87.5 158.5h117q-20 -142 -134 -241t-253 -99zM683 -27q-145 0 -268 59.5t-202.5 159.5t-115.5 237.5t-15 288.5q29 206 151 377.5t298 267.5t364 96q162 0 297.5 -76.5
t221.5 -218.5l-166 -83q-65 100 -164.5 153.5t-214.5 53.5q-144 0 -277.5 -75.5t-224.5 -208t-113 -289.5q-22 -154 31.5 -285.5t166 -208t257.5 -76.5q173 0 328.5 113.5t228.5 290.5h-353l22 153h555q-22 -147 -98 -282t-184 -233t-245.5 -156t-279.5 -58z" />
    <glyph glyph-name="gbreve" unicode="&#x11f;" horiz-adv-x="1217" 
d="M666 1114q-140 0 -226 100.5t-67 239.5h116q-13 -93 45 -158t148 -65q91 0 166 65.5t88 157.5h117q-20 -142 -134 -241t-253 -99zM966 1024h172l-149 -1057q-18 -132 -108 -243t-219.5 -173.5t-265.5 -62.5q-159 0 -282.5 101.5t-153.5 250.5l168 72q13 -106 99 -178.5
t194 -72.5q138 0 258 90t138 216l29 204q-67 -92 -161 -145t-204 -53q-143 0 -253.5 72.5t-163 196.5t-31.5 270q21 147 108.5 271t218 196.5t273.5 72.5q110 0 189 -53t120 -145zM506 140q144 0 250 108.5t128 263.5q22 156 -54 264.5t-219 108.5q-146 0 -263 -109
t-139 -264q-22 -154 65.5 -263t231.5 -109z" />
    <glyph glyph-name="Gdotaccent" unicode="&#x120;" horiz-adv-x="1572" 
d="M913 1601q-41 0 -64.5 26.5t-18.5 66.5q6 40 37.5 66.5t72.5 26.5q39 0 62.5 -26.5t18.5 -66.5q-6 -40 -37 -66.5t-71 -26.5zM683 -27q-145 0 -268 59.5t-202.5 159.5t-115.5 237.5t-15 288.5q29 206 151 377.5t298 267.5t364 96q162 0 297.5 -76.5t221.5 -218.5
l-166 -83q-65 100 -164.5 153.5t-214.5 53.5q-144 0 -277.5 -75.5t-224.5 -208t-113 -289.5q-22 -154 31.5 -285.5t166 -208t257.5 -76.5q173 0 328.5 113.5t228.5 290.5h-353l22 153h555q-22 -147 -98 -282t-184 -233t-245.5 -156t-279.5 -58z" />
    <glyph glyph-name="gdotaccent" unicode="&#x121;" horiz-adv-x="1217" 
d="M677 1191q-41 0 -64.5 26.5t-18.5 66.5q6 40 37 66.5t72 26.5q39 0 62.5 -26.5t18.5 -66.5q-6 -40 -36.5 -66.5t-70.5 -26.5zM966 1024h172l-149 -1057q-18 -132 -108 -243t-219.5 -173.5t-265.5 -62.5q-159 0 -282.5 101.5t-153.5 250.5l168 72q13 -106 99 -178.5
t194 -72.5q138 0 258 90t138 216l29 204q-67 -92 -161 -145t-204 -53q-143 0 -253.5 72.5t-163 196.5t-31.5 270q21 147 108.5 271t218 196.5t273.5 72.5q110 0 189 -53t120 -145zM506 140q144 0 250 108.5t128 263.5q22 156 -54 264.5t-219 108.5q-146 0 -263 -109
t-139 -264q-22 -154 65.5 -263t231.5 -109z" />
    <glyph glyph-name="uni0122" unicode="&#x122;" horiz-adv-x="1572" 
d="M683 -27q-145 0 -268 59.5t-202.5 159.5t-115.5 237.5t-15 288.5q29 206 151 377.5t298 267.5t364 96q162 0 297.5 -76.5t221.5 -218.5l-166 -83q-65 100 -164.5 153.5t-214.5 53.5q-144 0 -277.5 -75.5t-224.5 -208t-113 -289.5q-22 -154 31.5 -285.5t166 -208
t257.5 -76.5q173 0 328.5 113.5t228.5 290.5h-353l22 153h555q-22 -147 -98 -282t-184 -233t-245.5 -156t-279.5 -58zM473 -452l112 347h172l-169 -347h-115z" />
    <glyph glyph-name="Hcircumflex" unicode="&#x124;" horiz-adv-x="1299" 
d="M902 1841l157 -295h-115l-149 205l-205 -205h-114l237 295h189zM1105 1434h172l-201 -1434h-172l95 682h-709l-95 -682h-172l200 1434h172l-81 -580h709z" />
    <glyph glyph-name="hcircumflex" unicode="&#x125;" horiz-adv-x="1111" 
d="M852 1867l157 -295h-116l-150 205l-203 -205h-115l237 295h190zM1017 638l-88 -638h-172l83 599q16 116 -54.5 198t-186.5 82t-209 -82t-110 -198l-84 -599h-172l215 1536h172l-89 -640q65 73 154 115t184 42q113 0 201 -55.5t130 -151t26 -208.5z" />
    <glyph glyph-name="Itilde" unicode="&#x128;" horiz-adv-x="479" 
d="M516 1561q-34 0 -82 26t-87.5 55.5t-79 50.5t-60.5 14q-26 -8 -40.5 -34.5t-10.5 -62.5l-114 -30q-21 96 37 171.5t155 75.5q34 0 82.5 -23t88 -51t79.5 -51t60 -23q30 0 45 33.5t9 63.5l115 35q19 -100 -41 -175t-156 -75zM53 0l201 1434h172l-201 -1434h-172z" />
    <glyph glyph-name="itilde" unicode="&#x129;" 
d="M383 1125q-25 0 -61 20.5t-65.5 44.5t-59 41t-45.5 12q-19 -7 -30 -28t-8 -50l-85 -24q-14 77 29 137t115 60q33 0 80.5 -29t89 -58.5t59.5 -29.5q23 0 34 26t7 51l86 28q13 -81 -31 -141t-115 -60zM166 1024h172l-143 -1024h-172z" />
    <glyph glyph-name="Imacron" unicode="&#x12a;" horiz-adv-x="479" 
d="M37 1736h692l-19 -135h-693zM53 0l201 1434h172l-201 -1434h-172z" />
    <glyph glyph-name="imacron" unicode="&#x12b;" 
d="M69 1326h417l-11 -135h-418zM166 1024h172l-143 -1024h-172z" />
    <glyph glyph-name="Iogonek" unicode="&#x12e;" horiz-adv-x="479" 
d="M44 -428q-87 1 -135 62t-36 141q11 82 79 142l102 89l200 1428h172l-201 -1434q-23 -20 -54 -46.5t-46.5 -40t-36 -32t-30 -28t-21 -22.5t-17 -22t-9.5 -19t-5 -20q-4 -29 13 -51t49 -23q41 0 75.5 29t41.5 73h119q-13 -94 -89 -160t-171 -66z" />
    <glyph glyph-name="iogonek" unicode="&#x12f;" 
d="M276 1191q-41 0 -64 26.5t-17 66.5q5 40 36 66.5t72 26.5q39 0 62.5 -26.5t18.5 -66.5q-6 -40 -37 -66.5t-71 -26.5zM13 -428q-87 1 -135 62t-36 141q11 82 79 142l103 89l142 1018h172l-143 -1024q-26 -23 -61 -53t-51 -44t-38 -33.5t-31 -30t-19.5 -23.5t-14 -23.5
t-5.5 -22.5q-4 -29 13 -51t49 -23q41 0 76 29t42 73h118q-13 -94 -89 -160t-171 -66z" />
    <glyph glyph-name="Idotaccent" unicode="&#x130;" horiz-adv-x="479" 
d="M365 1601q-41 0 -64.5 26.5t-17.5 66.5q5 40 36 66.5t72 26.5q39 0 62.5 -26.5t18.5 -66.5q-6 -40 -36.5 -66.5t-70.5 -26.5zM53 0l201 1434h172l-201 -1434h-172z" />
    <glyph glyph-name="dotlessi" unicode="&#x131;" 
d="M166 1024h172l-143 -1024h-172z" />
    <glyph glyph-name="IJ" unicode="&#x132;" horiz-adv-x="1325" 
d="M53 0l201 1434h172l-201 -1434h-172zM681 -27q-154 0 -252 97l129 133q58 -58 147 -58q100 0 183.5 76.5t97.5 178.5l144 1034h173l-145 -1034q-25 -173 -165.5 -300t-311.5 -127z" />
    <glyph glyph-name="ij" unicode="&#x133;" horiz-adv-x="845" 
d="M276 1191q-41 0 -64 26.5t-17 66.5q5 40 36 66.5t72 26.5q39 0 62.5 -26.5t18.5 -66.5q-6 -40 -37 -66.5t-71 -26.5zM705 1191q-41 0 -64.5 26.5t-17.5 66.5t37 66.5t71 26.5q39 0 62.5 -26.5t18.5 -66.5t-35.5 -66.5t-71.5 -26.5zM166 1024h172l-143 -1024h-172z
M127 -512l25 172q106 0 188 70t97 174l157 1120h172l-157 -1120q-25 -174 -164 -295t-318 -121z" />
    <glyph glyph-name="Jcircumflex" unicode="&#x134;" horiz-adv-x="845" 
d="M890 1841l157 -295h-115l-150 205l-204 -205h-115l236 295h191zM202 -27q-154 0 -252 97l129 133q58 -58 146 -58q100 0 183.5 77t97.5 178l145 1034h172l-144 -1034q-25 -173 -165.5 -300t-311.5 -127z" />
    <glyph glyph-name="jcircumflex" unicode="&#x135;" horiz-adv-x="463" 
d="M452 1432l156 -295h-115l-150 204l-204 -204h-114l236 295h191zM-255 -512l25 172q107 0 189 70.5t96 173.5l157 1120h172l-157 -1120q-25 -174 -164 -295t-318 -121z" />
    <glyph glyph-name="uni0136" unicode="&#x136;" horiz-adv-x="1121" 
d="M977 0h-222l-366 622l-126 -129l-68 -493h-172l200 1434h172l-95 -673l659 673h225l-663 -677zM247 -452l111 347h172l-169 -347h-114z" />
    <glyph glyph-name="uni0137" unicode="&#x137;" horiz-adv-x="1031" 
d="M854 0h-198l-206 470l-221 -225l-33 -245h-172l215 1536h172l-145 -1023l502 511h224l-405 -415zM195 -452l111 347h172l-170 -347h-113z" />
    <glyph glyph-name="Lacute" unicode="&#x139;" horiz-adv-x="1039" 
d="M283 1546l123 295h172l-180 -295h-115zM23 0l200 1434h172l-177 -1262h643l-24 -172h-814z" />
    <glyph glyph-name="lacute" unicode="&#x13a;" 
d="M298 1649l123 295h172l-179 -295h-116zM24 0l215 1536h172l-215 -1536h-172z" />
    <glyph glyph-name="uni013B" unicode="&#x13b;" horiz-adv-x="1039" 
d="M23 0l200 1434h172l-177 -1262h643l-24 -172h-814zM217 -452l112 347h172l-169 -347h-115z" />
    <glyph glyph-name="uni013C" unicode="&#x13c;" 
d="M24 0l215 1536h172l-215 -1536h-172zM-103 -452l111 347h172l-169 -347h-114z" />
    <glyph glyph-name="Lcaron" unicode="&#x13d;" horiz-adv-x="1039" 
d="M653 1241l123 295h172l-179 -295h-116zM23 0l200 1434h172l-177 -1262h643l-24 -172h-814z" />
    <glyph glyph-name="lcaron" unicode="&#x13e;" 
d="M24 0l215 1536h172l-215 -1536h-172zM444 1241l123 295h172l-179 -295h-116z" />
    <glyph glyph-name="Nacute" unicode="&#x143;" horiz-adv-x="1319" 
d="M733 1546l123 295h172l-179 -295h-116zM23 0l200 1434h187l559 -1123l156 1123h172l-200 -1434h-186l-559 1122l-157 -1122h-172z" />
    <glyph glyph-name="nacute" unicode="&#x144;" horiz-adv-x="1110" 
d="M601 1137l123 295h172l-179 -295h-116zM1016 638l-88 -638h-172l83 599q16 116 -54.5 198t-186.5 82t-209 -82t-110 -198l-84 -599h-172l143 1024h172l-17 -128q65 73 154 115t184 42q113 0 201 -55.5t130 -151t26 -208.5z" />
    <glyph glyph-name="uni0145" unicode="&#x145;" horiz-adv-x="1319" 
d="M23 0l200 1434h187l559 -1123l156 1123h172l-200 -1434h-186l-559 1122l-157 -1122h-172zM346 -452l112 347h172l-169 -347h-115z" />
    <glyph glyph-name="uni0146" unicode="&#x146;" horiz-adv-x="1110" 
d="M1016 638l-88 -638h-172l83 599q16 116 -54.5 198t-186.5 82t-209 -82t-110 -198l-84 -599h-172l143 1024h172l-17 -128q65 73 154 115t184 42q113 0 201 -55.5t130 -151t26 -208.5zM262 -452l112 347h172l-169 -347h-115z" />
    <glyph glyph-name="Ncaron" unicode="&#x147;" horiz-adv-x="1319" 
d="M681 1546l-157 295h115l151 -205l202 205h116l-237 -295h-190zM23 0l200 1434h187l559 -1123l156 1123h172l-200 -1434h-186l-559 1122l-157 -1122h-172z" />
    <glyph glyph-name="ncaron" unicode="&#x148;" horiz-adv-x="1110" 
d="M549 1137l-157 295h115l150 -205l203 205h116l-237 -295h-190zM1016 638l-88 -638h-172l83 599q16 116 -54.5 198t-186.5 82t-209 -82t-110 -198l-84 -599h-172l143 1024h172l-17 -128q65 73 154 115t184 42q113 0 201 -55.5t130 -151t26 -208.5z" />
    <glyph glyph-name="Omacron" unicode="&#x14c;" horiz-adv-x="1576" 
d="M586 1736h692l-20 -135h-692zM684 -27q-143 0 -265.5 59t-203 158.5t-117.5 237.5t-16 289q28 202 147 373t296 270.5t368 99.5q143 0 265.5 -59t203 -158.5t117.5 -237t16 -288.5t-96.5 -289t-184 -237.5t-248 -158.5t-282.5 -59zM708 145q146 0 280 78t223.5 209.5
t111.5 284.5q22 154 -31.5 285.5t-166 208.5t-256.5 77q-146 0 -280 -77.5t-223.5 -209t-111.5 -284.5q-22 -154 31.5 -286t165.5 -209t257 -77z" />
    <glyph glyph-name="omacron" unicode="&#x14d;" horiz-adv-x="1146" 
d="M313 1326h693l-20 -135h-692zM469 -27q-139 0 -247 72.5t-159 196.5t-30 270q32 224 204 382.5t384 158.5q139 0 247 -72.5t159 -197t30 -271.5q-21 -146 -107 -270t-214 -196.5t-267 -72.5zM493 145q143 0 257 108.5t135 258.5q21 151 -63 260t-225 109
q-143 0 -257 -109t-135 -260q-22 -153 63 -260t225 -107z" />
    <glyph glyph-name="Ohungarumlaut" unicode="&#x150;" horiz-adv-x="1576" 
d="M1021 1546l123 295h172l-180 -295h-115zM723 1546l123 295h172l-179 -295h-116zM684 -27q-143 0 -265.5 59t-203 158.5t-117.5 237.5t-16 289q28 202 147 373t296 270.5t368 99.5q143 0 265.5 -59t203 -158.5t117.5 -237t16 -288.5t-96.5 -289t-184 -237.5t-248 -158.5
t-282.5 -59zM708 145q146 0 280 78t223.5 209.5t111.5 284.5q22 154 -31.5 285.5t-166 208.5t-256.5 77q-146 0 -280 -77.5t-223.5 -209t-111.5 -284.5q-22 -154 31.5 -286t165.5 -209t257 -77z" />
    <glyph glyph-name="ohungarumlaut" unicode="&#x151;" horiz-adv-x="1146" 
d="M749 1137l122 295h172l-180 -295h-114zM451 1137l122 295h172l-179 -295h-115zM469 -27q-139 0 -247 72.5t-159 196.5t-30 270q32 224 204 382.5t384 158.5q139 0 247 -72.5t159 -197t30 -271.5q-21 -146 -107 -270t-214 -196.5t-267 -72.5zM493 145q143 0 257 108.5
t135 258.5q21 151 -63 260t-225 109q-143 0 -257 -109t-135 -260q-22 -153 63 -260t225 -107z" />
    <glyph glyph-name="OE" unicode="&#x152;" horiz-adv-x="2207" 
d="M684 -27q-143 0 -265.5 59t-203 158.5t-117.5 237.5t-16 289q28 202 147 373t296 270.5t368 99.5q165 0 295.5 -82.5t197.5 -219.5l39 276h781l-24 -172h-608l-66 -459h511l-23 -172h-511l-65 -459h610l-25 -172h-780l38 275q-105 -137 -259.5 -219.5t-319.5 -82.5z
M708 145q146 0 280 78t223.5 209.5t111.5 284.5q22 154 -31.5 285.5t-166 208.5t-256.5 77q-146 0 -280 -77.5t-223.5 -209t-111.5 -284.5q-22 -154 31.5 -286t165.5 -209t257 -77z" />
    <glyph glyph-name="oe" unicode="&#x153;" horiz-adv-x="1995" 
d="M469 -27q-139 0 -247 72.5t-159 196.5t-30 270q32 224 204 382.5t384 158.5q136 0 240 -73t148 -193q79 121 203.5 193.5t260.5 72.5q151 0 260.5 -80t152.5 -218.5t8 -304.5h-834q-1 -131 78 -217.5t207 -87.5q91 0 173 47t140 132l169 -41q-83 -139 -219 -224.5
t-287 -85.5q-136 0 -240 72.5t-148 192.5q-79 -120 -203.5 -192.5t-260.5 -72.5zM1072 586h667q5 130 -77 221.5t-210 91.5q-129 0 -236.5 -90t-143.5 -223zM493 145q143 0 257 108.5t135 258.5q21 151 -63 260t-225 109q-143 0 -257 -109t-135 -260q-22 -153 63 -260
t225 -107z" />
    <glyph glyph-name="Racute" unicode="&#x154;" horiz-adv-x="1168" 
d="M537 1546l122 295h172l-179 -295h-115zM23 0l200 1434h504q172 0 273.5 -122.5t76.5 -299.5q-21 -153 -125 -265t-247 -144l265 -603h-199l-259 589h-236l-81 -589h-172zM301 761h314q106 0 191 75t101 185t-48.5 185.5t-169.5 75.5h-314z" />
    <glyph glyph-name="racute" unicode="&#x155;" horiz-adv-x="747" 
d="M433 1137l123 295h172l-179 -295h-116zM23 0l143 1024h172l-17 -128q65 73 154 115t184 42q55 0 113 -16l-94 -172q-42 14 -80 14q-116 0 -209 -82t-110 -198l-84 -599h-172z" />
    <glyph glyph-name="uni0156" unicode="&#x156;" horiz-adv-x="1168" 
d="M23 0l200 1434h504q172 0 273.5 -122.5t76.5 -299.5q-21 -153 -125 -265t-247 -144l265 -603h-199l-259 589h-236l-81 -589h-172zM301 761h314q106 0 191 75t101 185t-48.5 185.5t-169.5 75.5h-314zM263 -452l112 347h172l-169 -347h-115z" />
    <glyph glyph-name="uni0157" unicode="&#x157;" horiz-adv-x="747" 
d="M23 0l143 1024h172l-17 -128q65 73 154 115t184 42q55 0 113 -16l-94 -172q-42 14 -80 14q-116 0 -209 -82t-110 -198l-84 -599h-172zM-104 -452l111 347h172l-169 -347h-114z" />
    <glyph glyph-name="Rcaron" unicode="&#x158;" horiz-adv-x="1168" 
d="M484 1546l-156 295h114l151 -205l203 205h115l-236 -295h-191zM23 0l200 1434h504q172 0 273.5 -122.5t76.5 -299.5q-21 -153 -125 -265t-247 -144l265 -603h-199l-259 589h-236l-81 -589h-172zM301 761h314q106 0 191 75t101 185t-48.5 185.5t-169.5 75.5h-314z" />
    <glyph glyph-name="rcaron" unicode="&#x159;" horiz-adv-x="747" 
d="M381 1137l-157 295h115l150 -205l203 205h116l-237 -295h-190zM23 0l143 1024h172l-17 -128q65 73 154 115t184 42q55 0 113 -16l-94 -172q-42 14 -80 14q-116 0 -209 -82t-110 -198l-84 -599h-172z" />
    <glyph glyph-name="Sacute" unicode="&#x15a;" horiz-adv-x="1257" 
d="M702 1546l123 295h172l-180 -295h-115zM523 -27q-178 0 -315 82t-167 219l169 61q19 -85 116 -137.5t222 -52.5q142 0 255 68t128 174q7 53 -16.5 95t-72 70t-103 46t-124.5 31q-92 16 -163 36t-134 53.5t-101.5 76.5t-56 106t-6.5 141q26 182 195.5 298t382.5 116
q176 0 314 -81.5t171 -221.5l-171 -59q-19 85 -116 137t-222 52q-141 1 -254 -67.5t-128 -173.5q-7 -50 6.5 -87.5t37 -60.5t72.5 -41.5t88 -27.5t110 -22q106 -18 192 -50.5t153.5 -82t99 -122t18.5 -161.5q-17 -121 -103 -217t-211.5 -146.5t-265.5 -50.5z" />
    <glyph glyph-name="sacute" unicode="&#x15b;" horiz-adv-x="882" 
d="M458 1137l123 295h172l-180 -295h-115zM332 -19q-126 5 -227 66t-127 154l157 63q15 -54 84.5 -93.5t150.5 -39.5q88 0 158 41.5t79 110.5q5 34 -7.5 58.5t-43 42t-57 27.5t-71.5 23q-5 1 -8 2l-7.5 2.5t-8.5 2.5q-83 22 -141.5 46t-105.5 60t-66 86.5t-10 115.5
q20 138 143 224t277 86q124 0 218.5 -53.5t132.5 -144.5l-150 -81q-18 55 -78 90t-132 37q-95 2 -166 -39t-82 -116q-3 -25 4 -45t17.5 -32t36.5 -25t43 -19t56 -18t58 -18q59 -20 103.5 -38.5t89.5 -46t71.5 -58.5t40 -74t5.5 -93q-14 -91 -80 -163t-161 -108.5t-196 -32.5
z" />
    <glyph glyph-name="Scircumflex" unicode="&#x15c;" horiz-adv-x="1257" 
d="M882 1841l156 -295h-114l-150 205l-205 -205h-114l236 295h191zM523 -27q-178 0 -315 82t-167 219l169 61q19 -85 116 -137.5t222 -52.5q142 0 255 68t128 174q7 53 -16.5 95t-72 70t-103 46t-124.5 31q-92 16 -163 36t-134 53.5t-101.5 76.5t-56 106t-6.5 141
q26 182 195.5 298t382.5 116q176 0 314 -81.5t171 -221.5l-171 -59q-19 85 -116 137t-222 52q-141 1 -254 -67.5t-128 -173.5q-7 -50 6.5 -87.5t37 -60.5t72.5 -41.5t88 -27.5t110 -22q106 -18 192 -50.5t153.5 -82t99 -122t18.5 -161.5q-17 -121 -103 -217t-211.5 -146.5
t-265.5 -50.5z" />
    <glyph glyph-name="scircumflex" unicode="&#x15d;" horiz-adv-x="882" 
d="M637 1432l158 -295h-116l-150 204l-203 -204h-115l236 295h190zM332 -19q-126 5 -227 66t-127 154l157 63q15 -54 84.5 -93.5t150.5 -39.5q88 0 158 41.5t79 110.5q5 34 -7.5 58.5t-43 42t-57 27.5t-71.5 23q-5 1 -8 2l-7.5 2.5t-8.5 2.5q-83 22 -141.5 46t-105.5 60
t-66 86.5t-10 115.5q20 138 143 224t277 86q124 0 218.5 -53.5t132.5 -144.5l-150 -81q-18 55 -78 90t-132 37q-95 2 -166 -39t-82 -116q-3 -25 4 -45t17.5 -32t36.5 -25t43 -19t56 -18t58 -18q59 -20 103.5 -38.5t89.5 -46t71.5 -58.5t40 -74t5.5 -93q-14 -91 -80 -163
t-161 -108.5t-196 -32.5z" />
    <glyph glyph-name="Scedilla" unicode="&#x15e;" horiz-adv-x="1257" 
d="M552 -378q-69 -19 -125 16t-65 102l104 27q3 -26 25 -39.5t49 -6.5q28 7 44.5 30.5t12.5 49.5q-3 26 -24 39t-50 8l-107 -11l97 136q-175 2 -309 84t-163 217l169 61q19 -85 116 -137.5t222 -52.5q142 0 255 68t128 174q7 53 -16.5 95t-72 70t-103 46t-124.5 31
q-92 16 -163 36t-134 53.5t-101.5 76.5t-56 106t-6.5 141q26 182 195.5 298t382.5 116q176 0 314 -81.5t171 -221.5l-171 -59q-19 85 -116 137t-222 52q-141 1 -254 -67.5t-128 -173.5q-7 -50 6.5 -87.5t37 -60.5t72.5 -41.5t88 -27.5t110 -22q106 -18 192 -50.5t153.5 -82
t99 -122t18.5 -161.5q-23 -156 -153.5 -265t-310.5 -139l-30 -42q36 -11 61.5 -41.5t30.5 -71.5q8 -68 -35.5 -128.5t-113.5 -77.5z" />
    <glyph glyph-name="scedilla" unicode="&#x15f;" horiz-adv-x="882" 
d="M352 -378q-69 -19 -125 16t-64 102l102 27q4 -26 26 -39.5t49 -6.5t43.5 30t13.5 50q-4 26 -24.5 39t-48.5 8l-109 -11l103 145q-123 8 -219 68t-121 151l157 63q15 -54 84.5 -93.5t150.5 -39.5q88 0 158 41.5t79 110.5q5 34 -7.5 58.5t-43 42t-57 27.5t-71.5 23
q-5 1 -8 2l-7.5 2.5t-8.5 2.5q-83 22 -141.5 46t-105.5 60t-66 86.5t-10 115.5q20 138 143 224t277 86q124 0 218.5 -53.5t132.5 -144.5l-150 -81q-18 55 -78 90t-132 37q-95 2 -166 -39t-82 -116q-3 -25 4 -45t17.5 -32t36.5 -25t43 -19t56 -18t58 -18q59 -20 103.5 -38.5
t89.5 -46t71.5 -58.5t40 -74t5.5 -93q-17 -112 -109 -192t-218 -104l-33 -48q37 -11 62 -41t30 -72q8 -68 -35.5 -128.5t-113.5 -77.5z" />
    <glyph glyph-name="Scaron" unicode="&#x160;" horiz-adv-x="1257" 
d="M650 1546l-156 295h113l151 -205l204 205h114l-236 -295h-190zM523 -27q-178 0 -315 82t-167 219l169 61q19 -85 116 -137.5t222 -52.5q142 0 255 68t128 174q7 53 -16.5 95t-72 70t-103 46t-124.5 31q-92 16 -163 36t-134 53.5t-101.5 76.5t-56 106t-6.5 141
q26 182 195.5 298t382.5 116q176 0 314 -81.5t171 -221.5l-171 -59q-19 85 -116 137t-222 52q-141 1 -254 -67.5t-128 -173.5q-7 -50 6.5 -87.5t37 -60.5t72.5 -41.5t88 -27.5t110 -22q106 -18 192 -50.5t153.5 -82t99 -122t18.5 -161.5q-17 -121 -103 -217t-211.5 -146.5
t-265.5 -50.5z" />
    <glyph glyph-name="scaron" unicode="&#x161;" horiz-adv-x="882" 
d="M406 1137l-157 295h115l150 -205l203 205h116l-237 -295h-190zM332 -19q-126 5 -227 66t-127 154l157 63q15 -54 84.5 -93.5t150.5 -39.5q88 0 158 41.5t79 110.5q5 34 -7.5 58.5t-43 42t-57 27.5t-71.5 23q-5 1 -8 2l-7.5 2.5t-8.5 2.5q-83 22 -141.5 46t-105.5 60
t-66 86.5t-10 115.5q20 138 143 224t277 86q124 0 218.5 -53.5t132.5 -144.5l-150 -81q-18 55 -78 90t-132 37q-95 2 -166 -39t-82 -116q-3 -25 4 -45t17.5 -32t36.5 -25t43 -19t56 -18t58 -18q59 -20 103.5 -38.5t89.5 -46t71.5 -58.5t40 -74t5.5 -93q-14 -91 -80 -163
t-161 -108.5t-196 -32.5z" />
    <glyph glyph-name="uni0162" unicode="&#x162;" horiz-adv-x="1289" 
d="M494 -378q-69 -19 -125 16t-65 102l104 27q3 -26 24.5 -39.5t48.5 -6.5q28 7 45 30.5t13 49.5q-3 26 -24 39t-50 8l-108 -11l116 163h-15l176 1262h-475l23 172h1126l-25 -172h-477l-176 -1262h-37l-42 -59q36 -11 61.5 -41.5t30.5 -71.5q8 -68 -35.5 -128.5
t-113.5 -77.5z" />
    <glyph glyph-name="uni0163" unicode="&#x163;" horiz-adv-x="713" 
d="M183 -378q-69 -19 -124.5 16t-64.5 102l103 27q3 -26 25 -39.5t49 -6.5q28 7 44.5 30.5t12.5 49.5q-3 26 -23.5 39t-49.5 8l-108 -11l116 163h-16l121 852h-176l24 172h176l44 322h172l-44 -322h232l-23 -172h-233l-121 -852h-36l-43 -59q37 -11 62.5 -41t30.5 -72
q8 -68 -36 -128.5t-114 -77.5z" />
    <glyph glyph-name="Tcaron" unicode="&#x164;" horiz-adv-x="1289" 
d="M666 1546l-157 295h115l150 -205l203 205h116l-237 -295h-190zM1308 1434l-25 -172h-477l-176 -1262h-172l176 1262h-475l23 172h1126z" />
    <glyph glyph-name="tcaron" unicode="&#x165;" horiz-adv-x="713" 
d="M607 1241l123 295h172l-180 -295h-115zM673 852h-233l-121 -852h-172l121 852h-176l24 172h176l44 322h172l-44 -322h232z" />
    <glyph glyph-name="Utilde" unicode="&#x168;" horiz-adv-x="1367" 
d="M961 1561q-34 0 -82.5 26t-88 55.5t-79.5 50.5t-61 14q-26 -8 -40.5 -34.5t-10.5 -62.5l-114 -30q-20 96 38.5 171.5t155.5 75.5q43 0 107.5 -37t120.5 -74t80 -37q31 0 46 33.5t8 63.5l116 35q19 -100 -41 -175t-155 -75zM580 -27q-168 0 -285.5 84.5t-165.5 226
t-23 314.5l117 836h172l-116 -836q-18 -126 12 -227.5t110.5 -163.5t202.5 -62q182 0 303 130t149 323l116 836h173l-117 -836q-25 -174 -112 -315t-227.5 -225.5t-308.5 -84.5z" />
    <glyph glyph-name="utilde" unicode="&#x169;" horiz-adv-x="1069" 
d="M772 1152q-43 0 -108 41.5t-120.5 77.5t-81.5 27q-26 -8 -40.5 -34.5t-10.5 -62.5l-114 -30q-20 97 38 172t155 75q43 0 107.5 -37t121 -73.5t80.5 -36.5q31 0 45.5 33t8.5 64l115 35q20 -100 -40 -175.5t-156 -75.5zM36 389l89 635h172l-84 -597q-16 -116 54.5 -198
t186.5 -82q117 0 209.5 82t109.5 198l84 597h172l-142 -1024h-172l16 130q-65 -73 -154 -115t-184 -42q-173 0 -277.5 122t-79.5 294z" />
    <glyph glyph-name="Umacron" unicode="&#x16a;" horiz-adv-x="1367" 
d="M480 1736h692l-18 -135h-692zM580 -27q-168 0 -285.5 84.5t-165.5 226t-23 314.5l117 836h172l-116 -836q-18 -126 12 -227.5t110.5 -163.5t202.5 -62q182 0 303 130t149 323l116 836h173l-117 -836q-25 -174 -112 -315t-227.5 -225.5t-308.5 -84.5z" />
    <glyph glyph-name="umacron" unicode="&#x16b;" horiz-adv-x="1069" 
d="M292 1327h692l-19 -135h-693zM36 389l89 635h172l-84 -597q-16 -116 54.5 -198t186.5 -82q117 0 209.5 82t109.5 198l84 597h172l-142 -1024h-172l16 130q-65 -73 -154 -115t-184 -42q-173 0 -277.5 122t-79.5 294z" />
    <glyph glyph-name="Ubreve" unicode="&#x16c;" horiz-adv-x="1367" 
d="M798 1524q-140 0 -226 100.5t-67 239.5h117q-13 -93 44 -158.5t147 -65.5q92 0 167 65.5t88 158.5h117q-20 -142 -134 -241t-253 -99zM580 -27q-168 0 -285.5 84.5t-165.5 226t-23 314.5l117 836h172l-116 -836q-18 -126 12 -227.5t110.5 -163.5t202.5 -62q182 0 303 130
t149 323l116 836h173l-117 -836q-25 -174 -112 -315t-227.5 -225.5t-308.5 -84.5z" />
    <glyph glyph-name="ubreve" unicode="&#x16d;" horiz-adv-x="1069" 
d="M608 1115q-140 0 -226 100.5t-67 239.5h117q-12 -92 45.5 -157.5t147.5 -65.5q92 0 166.5 65t87.5 158h116q-20 -142 -134 -241t-253 -99zM36 389l89 635h172l-84 -597q-16 -116 54.5 -198t186.5 -82q117 0 209.5 82t109.5 198l84 597h172l-142 -1024h-172l16 130
q-65 -73 -154 -115t-184 -42q-173 0 -277.5 122t-79.5 294z" />
    <glyph glyph-name="Uring" unicode="&#x16e;" horiz-adv-x="1367" 
d="M797 1524q-70 0 -113 50.5t-34 120.5q10 69 67.5 119t127.5 50q69 0 111.5 -50t33.5 -119q-10 -71 -66.5 -121t-126.5 -50zM809 1615q32 0 58.5 23t31.5 57q5 32 -15.5 54.5t-53.5 22.5q-32 0 -57.5 -22.5t-30.5 -54.5q-5 -33 14.5 -56.5t52.5 -23.5zM580 -27
q-168 0 -285.5 84.5t-165.5 226t-23 314.5l117 836h172l-116 -836q-18 -126 12 -227.5t110.5 -163.5t202.5 -62q182 0 303 130t149 323l116 836h173l-117 -836q-25 -174 -112 -315t-227.5 -225.5t-308.5 -84.5z" />
    <glyph glyph-name="uring" unicode="&#x16f;" horiz-adv-x="1069" 
d="M607 1115q-69 0 -111.5 50.5t-33.5 120.5q10 69 66.5 119t126.5 50t113 -50t34 -119q-10 -71 -67.5 -121t-127.5 -50zM621 1206q32 0 58.5 23t31.5 57q4 32 -16 54.5t-53 22.5q-32 0 -58 -22.5t-30 -54.5q-5 -33 14.5 -56.5t52.5 -23.5zM36 389l89 635h172l-84 -597
q-16 -116 54.5 -198t186.5 -82q117 0 209.5 82t109.5 198l84 597h172l-142 -1024h-172l16 130q-65 -73 -154 -115t-184 -42q-173 0 -277.5 122t-79.5 294z" />
    <glyph glyph-name="Uhungarumlaut" unicode="&#x170;" horiz-adv-x="1367" 
d="M915 1546l123 295h172l-179 -295h-116zM618 1546l123 295h172l-180 -295h-115zM580 -27q-168 0 -285.5 84.5t-165.5 226t-23 314.5l117 836h172l-116 -836q-18 -126 12 -227.5t110.5 -163.5t202.5 -62q182 0 303 130t149 323l116 836h173l-117 -836q-25 -174 -112 -315
t-227.5 -225.5t-308.5 -84.5z" />
    <glyph glyph-name="uhungarumlaut" unicode="&#x171;" horiz-adv-x="1069" 
d="M727 1138l123 295h172l-180 -295h-115zM429 1138l123 295h172l-179 -295h-116zM36 389l89 635h172l-84 -597q-16 -116 54.5 -198t186.5 -82q117 0 209.5 82t109.5 198l84 597h172l-142 -1024h-172l16 130q-65 -73 -154 -115t-184 -42q-173 0 -277.5 122t-79.5 294z" />
    <glyph glyph-name="Uogonek" unicode="&#x172;" horiz-adv-x="1367" 
d="M530 -437q-88 1 -135.5 62t-35.5 141q10 82 79 142l79 68q-223 24 -334.5 198.5t-76.5 423.5l117 836h172l-116 -836q-18 -126 12 -227.5t110.5 -163.5t202.5 -62q182 0 303 130t149 323l116 836h173l-117 -836q-33 -230 -174 -399t-347 -212q-21 -18 -47.5 -41t-41 -36
t-33.5 -29.5t-28.5 -26l-21.5 -21.5t-18 -20t-12 -18t-8.5 -18.5t-3.5 -17.5q-4 -29 12.5 -50.5t48.5 -22.5q41 0 76 29.5t42 73.5h119q-13 -94 -89.5 -160t-171.5 -66z" />
    <glyph glyph-name="uogonek" unicode="&#x173;" horiz-adv-x="1069" 
d="M36 389l89 635h172l-84 -597q-16 -116 54.5 -198t186.5 -82q117 0 209.5 82t109.5 198l84 597h172l-142 -1024h-2q-21 -18 -48 -41.5t-42 -36.5t-34 -30t-29 -26t-22 -21.5t-18 -20.5t-12 -17.5t-8.5 -18t-3.5 -17.5q-4 -29 12.5 -51t48.5 -23q41 0 76 29t42 73h119
q-14 -94 -89.5 -160t-170.5 -66q-88 1 -135.5 62t-35.5 141q12 84 78 142l103 89l15 123q-65 -73 -154 -115t-184 -42q-173 0 -277.5 122t-79.5 294z" />
    <glyph glyph-name="Wcircumflex" unicode="&#x174;" horiz-adv-x="1777" 
d="M1142 1841l156 -295h-114l-151 205l-204 -205h-114l236 295h191zM324 0l-166 1434h177l131 -1132l446 1132h154l131 -1132l445 1132h178l-566 -1434h-200l-120 1038l-411 -1038h-199z" />
    <glyph glyph-name="wcircumflex" unicode="&#x175;" horiz-adv-x="1686" 
d="M1039 1432l157 -295h-116l-149 204l-204 -204h-115l237 295h190zM478 0h-174l-200 1024h168l155 -781l371 781h177l152 -781l371 781h170l-486 -1024h-175l-154 788z" />
    <glyph glyph-name="Ycircumflex" unicode="&#x176;" horiz-adv-x="1265" 
d="M886 1841l156 -295h-115l-150 205l-204 -205h-114l236 295h191zM1102 1434h203l-596 -786l-91 -648h-172l91 648l-375 786h203l284 -597z" />
    <glyph glyph-name="ycircumflex" unicode="&#x177;" horiz-adv-x="1088" 
d="M739 1432l158 -295h-116l-149 204l-204 -204h-115l237 295h189zM867 1024h183l-777 -1536h-182l258 512l-224 1024h188l155 -787z" />
    <glyph glyph-name="Ydieresis" unicode="&#x178;" horiz-adv-x="1265" 
d="M572 1513q-41 0 -65 27t-18 67q5 39 37.5 67.5t72.5 28.5q39 0 63 -28.5t19 -67.5q-6 -40 -38 -67t-71 -27zM918 1513q-41 0 -65 27t-19 67q5 39 37.5 67.5t72.5 28.5q39 0 63 -28.5t19 -67.5q-6 -40 -37.5 -67t-70.5 -27zM1102 1434h203l-596 -786l-91 -648h-172l91 648
l-375 786h203l284 -597z" />
    <glyph glyph-name="Zacute" unicode="&#x179;" horiz-adv-x="1323" 
d="M735 1546l123 295h172l-179 -295h-116zM-18 0l23 172l1081 1090h-927l23 172h1159l-23 -172l-1081 -1090h927l-23 -172h-1159z" />
    <glyph glyph-name="zacute" unicode="&#x17a;" horiz-adv-x="1038" 
d="M536 1137l122 295h172l-179 -295h-115zM976 852l-726 -680h630l-24 -172h-874l23 172l726 680h-630l24 172h874z" />
    <glyph glyph-name="Zdotaccent" unicode="&#x17b;" horiz-adv-x="1323" 
d="M786 1601q-41 0 -64 26.5t-17 66.5q5 40 36 66.5t72 26.5q39 0 62.5 -26.5t18.5 -66.5q-6 -40 -37 -66.5t-71 -26.5zM-18 0l23 172l1081 1090h-927l23 172h1159l-23 -172l-1081 -1090h927l-23 -172h-1159z" />
    <glyph glyph-name="zdotaccent" unicode="&#x17c;" horiz-adv-x="1038" 
d="M587 1191q-41 0 -64.5 26.5t-17.5 66.5q5 40 36 66.5t72 26.5q39 0 62.5 -26.5t18.5 -66.5q-6 -40 -36.5 -66.5t-70.5 -26.5zM976 852l-726 -680h630l-24 -172h-874l23 172l726 680h-630l24 172h874z" />
    <glyph glyph-name="Zcaron" unicode="&#x17d;" horiz-adv-x="1323" 
d="M683 1546l-157 295h114l151 -205l203 205h115l-236 -295h-190zM-18 0l23 172l1081 1090h-927l23 172h1159l-23 -172l-1081 -1090h927l-23 -172h-1159z" />
    <glyph glyph-name="zcaron" unicode="&#x17e;" horiz-adv-x="1038" 
d="M483 1137l-156 295h113l151 -205l204 205h114l-235 -295h-191zM976 852l-726 -680h630l-24 -172h-874l23 172l726 680h-630l24 172h874z" />
    <glyph glyph-name="uni01CD" unicode="&#x1cd;" horiz-adv-x="1414" 
d="M728 1546l-157 295h115l151 -205l202 205h116l-236 -295h-191zM703 1434h208l321 -1434h-182l-67 293h-671l-147 -293h-183zM399 465h545l-168 748z" />
    <glyph glyph-name="uni01CE" unicode="&#x1ce;" horiz-adv-x="1199" 
d="M580 1137l-158 295h115l150 -205l204 205h115l-237 -295h-189zM989 1024h172l-143 -1024h-172l17 173q-63 -93 -156 -146.5t-206 -53.5q-111 0 -205.5 43.5t-157 116.5t-91.5 174t-13 212q31 221 208.5 377.5t397.5 156.5q117 0 202 -54.5t130 -149.5zM520 140
q149 0 255 107t129 265q22 160 -54.5 266.5t-223.5 106.5q-152 0 -273.5 -109t-143.5 -264t70 -263.5t241 -108.5z" />
    <glyph glyph-name="uni01CF" unicode="&#x1cf;" horiz-adv-x="479" 
d="M261 1546l-157 295h114l151 -205l203 205h115l-235 -295h-191zM53 0l201 1434h172l-201 -1434h-172z" />
    <glyph glyph-name="uni01D0" unicode="&#x1d0;" 
d="M173 1137l-157 295h114l151 -205l203 205h115l-235 -295h-191zM166 1024h172l-143 -1024h-172z" />
    <glyph glyph-name="uni01D1" unicode="&#x1d1;" horiz-adv-x="1576" 
d="M810 1546l-157 295h114l151 -205l203 205h115l-236 -295h-190zM684 -27q-143 0 -265.5 59t-203 158.5t-117.5 237.5t-16 289q28 202 147 373t296 270.5t368 99.5q143 0 265.5 -59t203 -158.5t117.5 -237t16 -288.5t-96.5 -289t-184 -237.5t-248 -158.5t-282.5 -59z
M708 145q146 0 280 78t223.5 209.5t111.5 284.5q22 154 -31.5 285.5t-166 208.5t-256.5 77q-146 0 -280 -77.5t-223.5 -209t-111.5 -284.5q-22 -154 31.5 -286t165.5 -209t257 -77z" />
    <glyph glyph-name="uni01D2" unicode="&#x1d2;" horiz-adv-x="1146" 
d="M538 1137l-157 295h114l150 -205l204 205h115l-236 -295h-190zM469 -27q-139 0 -247 72.5t-159 196.5t-30 270q32 224 204 382.5t384 158.5q139 0 247 -72.5t159 -197t30 -271.5q-21 -146 -107 -270t-214 -196.5t-267 -72.5zM493 145q143 0 257 108.5t135 258.5
q21 151 -63 260t-225 109q-143 0 -257 -109t-135 -260q-22 -153 63 -260t225 -107z" />
    <glyph glyph-name="uni01D3" unicode="&#x1d3;" horiz-adv-x="1367" 
d="M705 1546l-157 295h115l150 -205l203 205h116l-237 -295h-190zM580 -27q-168 0 -285.5 84.5t-165.5 226t-23 314.5l117 836h172l-116 -836q-18 -126 12 -227.5t110.5 -163.5t202.5 -62q182 0 303 130t149 323l116 836h173l-117 -836q-25 -174 -112 -315t-227.5 -225.5
t-308.5 -84.5z" />
    <glyph glyph-name="uni01D4" unicode="&#x1d4;" horiz-adv-x="1069" 
d="M516 1138l-157 295h115l151 -205l202 205h116l-236 -295h-191zM36 389l89 635h172l-84 -597q-16 -116 54.5 -198t186.5 -82q117 0 209.5 82t109.5 198l84 597h172l-142 -1024h-172l16 130q-65 -73 -154 -115t-184 -42q-173 0 -277.5 122t-79.5 294z" />
    <glyph glyph-name="uni01D5" unicode="&#x1d5;" horiz-adv-x="1367" 
d="M514 1972h692l-19 -134h-692zM624 1513q-41 0 -65 27t-18 67q5 39 37 67.5t72 28.5q39 0 63 -28.5t19 -67.5q-6 -40 -37.5 -67t-70.5 -27zM969 1513q-41 0 -65 27t-19 67q5 39 37.5 67.5t72.5 28.5q39 0 63 -28.5t19 -67.5q-6 -40 -37.5 -67t-70.5 -27zM580 -27
q-168 0 -285.5 84.5t-165.5 226t-23 314.5l117 836h172l-116 -836q-18 -126 12 -227.5t110.5 -163.5t202.5 -62q182 0 303 130t149 323l116 836h173l-117 -836q-25 -174 -112 -315t-227.5 -225.5t-308.5 -84.5z" />
    <glyph glyph-name="uni01D6" unicode="&#x1d6;" horiz-adv-x="1069" 
d="M326 1565h692l-20 -135h-692zM435 1105q-41 0 -65 27t-19 67q6 39 38 67t72 28q39 0 63.5 -28t19.5 -67q-6 -40 -38 -67t-71 -27zM780 1105q-41 0 -65.5 27t-18.5 67q5 39 37.5 67t72.5 28q39 0 63.5 -28t19.5 -67q-6 -40 -38 -67t-71 -27zM36 389l89 635h172l-84 -597
q-16 -116 54.5 -198t186.5 -82q117 0 209.5 82t109.5 198l84 597h172l-142 -1024h-172l16 130q-65 -73 -154 -115t-184 -42q-173 0 -277.5 122t-79.5 294z" />
    <glyph glyph-name="uni01D7" unicode="&#x1d7;" horiz-adv-x="1367" 
d="M791 1784l122 295h172l-179 -295h-115zM624 1513q-41 0 -65 27t-18 67q5 39 37 67.5t72 28.5q39 0 63 -28.5t19 -67.5q-6 -40 -37.5 -67t-70.5 -27zM969 1513q-41 0 -65 27t-19 67q5 39 37.5 67.5t72.5 28.5q39 0 63 -28.5t19 -67.5q-6 -40 -37.5 -67t-70.5 -27zM580 -27
q-168 0 -285.5 84.5t-165.5 226t-23 314.5l117 836h172l-116 -836q-18 -126 12 -227.5t110.5 -163.5t202.5 -62q182 0 303 130t149 323l116 836h173l-117 -836q-25 -174 -112 -315t-227.5 -225.5t-308.5 -84.5z" />
    <glyph glyph-name="uni01D8" unicode="&#x1d8;" horiz-adv-x="1069" 
d="M602 1375l123 295h172l-180 -295h-115zM435 1105q-41 0 -65 27t-19 67q6 39 38 67t72 28q39 0 63.5 -28t19.5 -67q-6 -40 -38 -67t-71 -27zM780 1105q-41 0 -65.5 27t-18.5 67q5 39 37.5 67t72.5 28q39 0 63.5 -28t19.5 -67q-6 -40 -38 -67t-71 -27zM36 389l89 635h172
l-84 -597q-16 -116 54.5 -198t186.5 -82q117 0 209.5 82t109.5 198l84 597h172l-142 -1024h-172l16 130q-65 -73 -154 -115t-184 -42q-173 0 -277.5 122t-79.5 294z" />
    <glyph glyph-name="uni01D9" unicode="&#x1d9;" horiz-adv-x="1367" 
d="M738 1784l-156 295h114l151 -206l203 206h115l-236 -295h-191zM624 1513q-41 0 -65 27t-18 67q5 39 37 67.5t72 28.5q39 0 63 -28.5t19 -67.5q-6 -40 -37.5 -67t-70.5 -27zM969 1513q-41 0 -65 27t-19 67q5 39 37.5 67.5t72.5 28.5q39 0 63 -28.5t19 -67.5
q-6 -40 -37.5 -67t-70.5 -27zM580 -27q-168 0 -285.5 84.5t-165.5 226t-23 314.5l117 836h172l-116 -836q-18 -126 12 -227.5t110.5 -163.5t202.5 -62q182 0 303 130t149 323l116 836h173l-117 -836q-25 -174 -112 -315t-227.5 -225.5t-308.5 -84.5z" />
    <glyph glyph-name="uni01DA" unicode="&#x1da;" horiz-adv-x="1069" 
d="M550 1375l-157 295h114l150 -205l204 205h115l-236 -295h-190zM435 1105q-41 0 -65 27t-19 67q6 39 38 67t72 28q39 0 63.5 -28t19.5 -67q-6 -40 -38 -67t-71 -27zM780 1105q-41 0 -65.5 27t-18.5 67q5 39 37.5 67t72.5 28q39 0 63.5 -28t19.5 -67q-6 -40 -38 -67
t-71 -27zM36 389l89 635h172l-84 -597q-16 -116 54.5 -198t186.5 -82q117 0 209.5 82t109.5 198l84 597h172l-142 -1024h-172l16 130q-65 -73 -154 -115t-184 -42q-173 0 -277.5 122t-79.5 294z" />
    <glyph glyph-name="uni01DB" unicode="&#x1db;" horiz-adv-x="1367" 
d="M658 2079h172l41 -295h-114zM624 1513q-41 0 -65 27t-18 67q5 39 37 67.5t72 28.5q39 0 63 -28.5t19 -67.5q-6 -40 -37.5 -67t-70.5 -27zM969 1513q-41 0 -65 27t-19 67q5 39 37.5 67.5t72.5 28.5q39 0 63 -28.5t19 -67.5q-6 -40 -37.5 -67t-70.5 -27zM580 -27
q-168 0 -285.5 84.5t-165.5 226t-23 314.5l117 836h172l-116 -836q-18 -126 12 -227.5t110.5 -163.5t202.5 -62q182 0 303 130t149 323l116 836h173l-117 -836q-25 -174 -112 -315t-227.5 -225.5t-308.5 -84.5z" />
    <glyph glyph-name="uni01DC" unicode="&#x1dc;" horiz-adv-x="1069" 
d="M470 1670h172l41 -295h-115zM435 1105q-41 0 -65 27t-19 67q6 39 38 67t72 28q39 0 63.5 -28t19.5 -67q-6 -40 -38 -67t-71 -27zM780 1105q-41 0 -65.5 27t-18.5 67q5 39 37.5 67t72.5 28q39 0 63.5 -28t19.5 -67q-6 -40 -38 -67t-71 -27zM36 389l89 635h172l-84 -597
q-16 -116 54.5 -198t186.5 -82q117 0 209.5 82t109.5 198l84 597h172l-142 -1024h-172l16 130q-65 -73 -154 -115t-184 -42q-173 0 -277.5 122t-79.5 294z" />
    <glyph glyph-name="uni01DE" unicode="&#x1de;" horiz-adv-x="1414" 
d="M537 1972h692l-19 -134h-692zM647 1513q-41 0 -65.5 27t-18.5 67q5 39 37.5 67.5t72.5 28.5q39 0 63.5 -28.5t19.5 -67.5q-6 -40 -38 -67t-71 -27zM992 1513q-41 0 -65.5 27t-19.5 67q5 39 38 67.5t73 28.5q39 0 63.5 -28.5t19.5 -67.5q-6 -40 -38 -67t-71 -27zM703 1434
h208l321 -1434h-182l-67 293h-671l-147 -293h-183zM399 465h545l-168 748z" />
    <glyph glyph-name="uni01DF" unicode="&#x1df;" horiz-adv-x="1199" 
d="M388 1563h692l-19 -135h-692zM498 1104q-41 0 -65 26.5t-18 66.5q5 39 37 67.5t72 28.5q39 0 63 -28.5t19 -67.5q-6 -40 -37.5 -66.5t-70.5 -26.5zM843 1104q-41 0 -65 26.5t-19 66.5q5 39 37.5 67.5t72.5 28.5q39 0 63 -28.5t19 -67.5q-6 -40 -37.5 -66.5t-70.5 -26.5z
M989 1024h172l-143 -1024h-172l17 173q-63 -93 -156 -146.5t-206 -53.5q-111 0 -205.5 43.5t-157 116.5t-91.5 174t-13 212q31 221 208.5 377.5t397.5 156.5q117 0 202 -54.5t130 -149.5zM520 140q149 0 255 107t129 265q22 160 -54.5 266.5t-223.5 106.5
q-152 0 -273.5 -109t-143.5 -264t70 -263.5t241 -108.5z" />
    <glyph glyph-name="uni01E2" unicode="&#x1e2;" horiz-adv-x="1674" 
d="M884 1736h692l-18 -135h-693zM-18 0l721 1434h969l-23 -172h-565l-64 -459h466l-24 -172h-466l-64 -459h564l-25 -172h-736l41 293h-464l-147 -293h-183zM399 465h402l111 797h-111z" />
    <glyph glyph-name="uni01E3" unicode="&#x1e3;" horiz-adv-x="1805" 
d="M562 1327h692l-18 -135h-692zM243 -26q-136 0 -214.5 87.5t-59.5 217.5q18 126 118.5 216.5t237.5 90.5h375q12 125 -58 210t-200 85q-76 0 -151 -35l-75 144q123 63 249 63q127 0 226 -65t146 -175q80 109 198.5 174.5t247.5 65.5q152 0 261.5 -80.5t152.5 -219
t8 -303.5h-837q0 -132 80 -218.5t208 -86.5q90 0 172 47.5t140 131.5l169 -41q-83 -139 -218.5 -224.5t-286.5 -85.5q-140 0 -247 75.5t-151 199.5q-78 -120 -212 -197t-279 -77zM883 585h667q5 130 -78 222t-211 92t-235 -90.5t-143 -223.5zM266 128q101 0 191.5 52
t149.5 137q48 62 72 134h-373q-70 0 -121.5 -46.5t-59.5 -115.5q-10 -67 28 -114t113 -47z" />
    <glyph glyph-name="Gcaron" unicode="&#x1e6;" horiz-adv-x="1572" 
d="M810 1546l-157 295h114l151 -205l203 205h115l-237 -295h-189zM683 -27q-145 0 -268 59.5t-202.5 159.5t-115.5 237.5t-15 288.5q29 206 151 377.5t298 267.5t364 96q162 0 297.5 -76.5t221.5 -218.5l-166 -83q-65 100 -164.5 153.5t-214.5 53.5q-144 0 -277.5 -75.5
t-224.5 -208t-113 -289.5q-22 -154 31.5 -285.5t166 -208t257.5 -76.5q173 0 328.5 113.5t228.5 290.5h-353l22 153h555q-22 -147 -98 -282t-184 -233t-245.5 -156t-279.5 -58z" />
    <glyph glyph-name="gcaron" unicode="&#x1e7;" horiz-adv-x="1217" 
d="M573 1137l-156 295h113l151 -205l204 205h114l-236 -295h-190zM966 1024h172l-149 -1057q-18 -132 -108 -243t-219.5 -173.5t-265.5 -62.5q-159 0 -282.5 101.5t-153.5 250.5l168 72q13 -106 99 -178.5t194 -72.5q138 0 258 90t138 216l29 204q-67 -92 -161 -145
t-204 -53q-143 0 -253.5 72.5t-163 196.5t-31.5 270q21 147 108.5 271t218 196.5t273.5 72.5q110 0 189 -53t120 -145zM506 140q144 0 250 108.5t128 263.5q22 156 -54 264.5t-219 108.5q-146 0 -263 -109t-139 -264q-22 -154 65.5 -263t231.5 -109z" />
    <glyph glyph-name="uni01E8" unicode="&#x1e8;" horiz-adv-x="1121" 
d="M582 1546l-157 295h115l150 -205l203 205h116l-237 -295h-190zM977 0h-222l-366 622l-126 -129l-68 -493h-172l200 1434h172l-95 -673l659 673h225l-663 -677z" />
    <glyph glyph-name="uni01E9" unicode="&#x1e9;" horiz-adv-x="1031" 
d="M603 1546l-157 295h115l150 -205l203 205h116l-236 -295h-191zM854 0h-198l-206 470l-221 -225l-33 -245h-172l215 1536h172l-145 -1023l502 511h224l-405 -415z" />
    <glyph glyph-name="uni0218" unicode="&#x218;" horiz-adv-x="1257" 
d="M523 -27q-178 0 -315 82t-167 219l169 61q19 -85 116 -137.5t222 -52.5q142 0 255 68t128 174q7 53 -16.5 95t-72 70t-103 46t-124.5 31q-92 16 -163 36t-134 53.5t-101.5 76.5t-56 106t-6.5 141q26 182 195.5 298t382.5 116q176 0 314 -81.5t171 -221.5l-171 -59
q-19 85 -116 137t-222 52q-141 1 -254 -67.5t-128 -173.5q-7 -50 6.5 -87.5t37 -60.5t72.5 -41.5t88 -27.5t110 -22q106 -18 192 -50.5t153.5 -82t99 -122t18.5 -161.5q-17 -121 -103 -217t-211.5 -146.5t-265.5 -50.5zM389 -452l112 347h172l-169 -347h-115z" />
    <glyph glyph-name="uni0219" unicode="&#x219;" horiz-adv-x="882" 
d="M332 -19q-126 5 -227 66t-127 154l157 63q15 -54 84.5 -93.5t150.5 -39.5q88 0 158 41.5t79 110.5q5 34 -7.5 58.5t-43 42t-57 27.5t-71.5 23q-5 1 -8 2l-7.5 2.5t-8.5 2.5q-83 22 -141.5 46t-105.5 60t-66 86.5t-10 115.5q20 138 143 224t277 86q124 0 218.5 -53.5
t132.5 -144.5l-150 -81q-18 55 -78 90t-132 37q-95 2 -166 -39t-82 -116q-3 -25 4 -45t17.5 -32t36.5 -25t43 -19t56 -18t58 -18q59 -20 103.5 -38.5t89.5 -46t71.5 -58.5t40 -74t5.5 -93q-14 -91 -80 -163t-161 -108.5t-196 -32.5zM189 -452l112 347h172l-170 -347h-114z
" />
    <glyph glyph-name="uni021A" unicode="&#x21a;" horiz-adv-x="1289" 
d="M1308 1434l-25 -172h-477l-176 -1262h-172l176 1262h-475l23 172h1126zM331 -452l111 347h172l-169 -347h-114z" />
    <glyph glyph-name="uni021B" unicode="&#x21b;" horiz-adv-x="713" 
d="M673 852h-233l-121 -852h-172l121 852h-176l24 172h176l44 322h172l-44 -322h232zM20 -452l112 347h172l-169 -347h-115z" />
    <glyph glyph-name="uni022A" unicode="&#x22a;" horiz-adv-x="1576" 
d="M618 1972h693l-19 -134h-692zM729 1513q-41 0 -65.5 27t-18.5 67q5 39 37.5 67.5t72.5 28.5q39 0 63.5 -28.5t18.5 -67.5q-5 -40 -36.5 -67t-71.5 -27zM1074 1513q-41 0 -65.5 27t-19.5 67q5 39 38 67.5t73 28.5q39 0 63 -28.5t19 -67.5q-6 -40 -37.5 -67t-70.5 -27z
M684 -27q-143 0 -265.5 59t-203 158.5t-117.5 237.5t-16 289q28 202 147 373t296 270.5t368 99.5q143 0 265.5 -59t203 -158.5t117.5 -237t16 -288.5t-96.5 -289t-184 -237.5t-248 -158.5t-282.5 -59zM708 145q146 0 280 78t223.5 209.5t111.5 284.5q22 154 -31.5 285.5
t-166 208.5t-256.5 77q-146 0 -280 -77.5t-223.5 -209t-111.5 -284.5q-22 -154 31.5 -286t165.5 -209t257 -77z" />
    <glyph glyph-name="uni022B" unicode="&#x22b;" horiz-adv-x="1146" 
d="M346 1563h692l-18 -135h-692zM457 1104q-41 0 -65.5 26.5t-18.5 66.5q5 39 37 67.5t72 28.5q39 0 63.5 -28.5t18.5 -67.5q-5 -40 -36 -66.5t-71 -26.5zM802 1104q-41 0 -65.5 26.5t-19.5 66.5q5 39 37.5 67.5t72.5 28.5q39 0 63 -28.5t19 -67.5q-6 -40 -37 -66.5
t-70 -26.5zM469 -27q-139 0 -247 72.5t-159 196.5t-30 270q32 224 204 382.5t384 158.5q139 0 247 -72.5t159 -197t30 -271.5q-21 -146 -107 -270t-214 -196.5t-267 -72.5zM493 145q143 0 257 108.5t135 258.5q21 151 -63 260t-225 109q-143 0 -257 -109t-135 -260
q-22 -153 63 -260t225 -107z" />
    <glyph glyph-name="uni0232" unicode="&#x232;" horiz-adv-x="1265" 
d="M429 1736h692l-18 -135h-692zM1102 1434h203l-596 -786l-91 -648h-172l91 648l-375 786h203l284 -597z" />
    <glyph glyph-name="uni0233" unicode="&#x233;" horiz-adv-x="1088" 
d="M284 1326h692l-20 -135h-692zM867 1024h183l-777 -1536h-182l258 512l-224 1024h188l155 -787z" />
    <glyph glyph-name="uni0237" unicode="&#x237;" horiz-adv-x="464" 
d="M-255 -512l25 172q107 0 189 70.5t96 173.5l157 1120h172l-157 -1120q-25 -174 -164 -295t-318 -121z" />
    <glyph glyph-name="quoteleft" unicode="&#x2bb;" horiz-adv-x="337" 
d="M87 899l196 535h114l-138 -535h-172z" />
    <glyph glyph-name="quoteleft" unicode="&#x2018;" horiz-adv-x="337" 
d="M87 899l196 535h114l-138 -535h-172z" />
    <glyph glyph-name="uni02BC" unicode="&#x2bc;" horiz-adv-x="447" 
d="M67 899l138 535h172l-196 -535h-114z" />
    <glyph glyph-name="circumflex" unicode="&#x2c6;" horiz-adv-x="612" 
d="M501 1432l156 -295h-114l-151 204l-204 -204h-114l236 295h191z" />
    <glyph glyph-name="caron" unicode="&#x2c7;" horiz-adv-x="574" 
d="M253 1137l-157 295h115l150 -205l203 205h116l-237 -295h-190z" />
    <glyph glyph-name="breve" unicode="&#x2d8;" horiz-adv-x="1171" 
d="M642 1114q-140 0 -226 100.5t-67 239.5h117q-13 -93 44.5 -158t147.5 -65q92 0 166.5 65t87.5 158h117q-20 -142 -134 -241t-253 -99z" />
    <glyph glyph-name="dotaccent" unicode="&#x2d9;" horiz-adv-x="1008" 
d="M572 1191q-41 0 -65 26.5t-18 66.5t37 66.5t72 26.5q39 0 63 -27t19 -66q-6 -40 -37 -66.5t-71 -26.5z" />
    <glyph glyph-name="ring" unicode="&#x2da;" horiz-adv-x="1159" 
d="M635 1114q-70 0 -113 50.5t-33 120.5q10 69 67 119t127 50q69 0 112 -50t34 -119q-10 -71 -67 -121t-127 -50zM648 1205q32 0 58.5 23t31.5 57q4 32 -15.5 54.5t-52.5 22.5q-32 0 -58 -23t-30 -54q-5 -34 14.5 -57t51.5 -23z" />
    <glyph glyph-name="ogonek" unicode="&#x2db;" horiz-adv-x="1042" 
d="M346 -428q-87 1 -135 62t-36 141q11 82 79 142l197 172l76 -89q-23 -20 -54 -46.5t-46.5 -40t-36 -32t-30 -28t-21 -22.5t-17 -22t-9.5 -19t-5 -20q-4 -29 13 -51t49 -23q41 0 75.5 29t41.5 73h119q-14 -95 -89.5 -160.5t-170.5 -65.5z" />
    <glyph glyph-name="tilde" unicode="&#x2dc;" horiz-adv-x="1240" 
d="M849 1161q-34 0 -82.5 26t-88 56t-79 51t-60.5 14q-26 -9 -41 -35.5t-11 -62.5l-113 -29q-20 96 38 171t155 75q43 0 107.5 -37t121 -74t80.5 -37q31 0 45.5 33t8.5 64l114 36q20 -100 -39.5 -175.5t-155.5 -75.5z" />
    <glyph glyph-name="hungarumlaut" unicode="&#x2dd;" horiz-adv-x="960" 
d="M561 1137l123 295h172l-179 -295h-116zM264 1137l123 295h172l-179 -295h-116z" />
    <glyph glyph-name="gravecomb" unicode="&#x300;" horiz-adv-x="0" 
d="M360 1432h172l41 -295h-114z" />
    <glyph glyph-name="acutecomb" unicode="&#x301;" horiz-adv-x="0" 
d="M393 1137l123 295h172l-180 -295h-115z" />
    <glyph glyph-name="uni0302" unicode="&#x302;" horiz-adv-x="0" 
d="M501 1432l156 -295h-114l-151 204l-204 -204h-114l236 295h191z" />
    <glyph glyph-name="tildecomb" unicode="&#x303;" horiz-adv-x="0" 
d="M859 1151q-34 0 -82 26t-87.5 55.5t-79 50.5t-60.5 14q-26 -8 -40.5 -34.5t-10.5 -62.5l-114 -30q-21 96 37.5 171.5t155.5 75.5q34 0 82.5 -23t87.5 -50.5t79 -50.5t60 -23q31 0 45.5 32.5t8.5 63.5l115 36q19 -100 -41 -175.5t-156 -75.5z" />
    <glyph glyph-name="uni0304" unicode="&#x304;" horiz-adv-x="0" 
d="M354 1326h693l-20 -135h-692z" />
    <glyph glyph-name="uni0306" unicode="&#x306;" horiz-adv-x="0" 
d="M642 1114q-140 0 -226 100.5t-67 239.5h117q-13 -93 44.5 -158t147.5 -65q92 0 166.5 65t87.5 158h117q-20 -142 -134 -241t-253 -99z" />
    <glyph glyph-name="uni0307" unicode="&#x307;" horiz-adv-x="0" 
d="M572 1191q-41 0 -65 26.5t-18 66.5t37 66.5t72 26.5q39 0 63 -27t19 -66q-6 -40 -37 -66.5t-71 -26.5z" />
    <glyph glyph-name="uni0308" unicode="&#x308;" horiz-adv-x="0" 
d="M561 1104q-41 0 -65.5 26.5t-18.5 66.5q5 39 37.5 67.5t72.5 28.5q39 0 63.5 -28.5t19.5 -67.5q-6 -40 -37.5 -66.5t-71.5 -26.5zM906 1104q-41 0 -65.5 26.5t-19.5 66.5q5 39 38 67.5t73 28.5q39 0 63 -28.5t19 -67.5q-5 -40 -36.5 -66.5t-71.5 -26.5z" />
    <glyph glyph-name="uni030A" unicode="&#x30a;" horiz-adv-x="0" 
d="M635 1114q-70 0 -113 50.5t-33 120.5q10 69 67 119t127 50q69 0 112 -50t34 -119q-10 -71 -67 -121t-127 -50zM648 1205q32 0 58.5 23t31.5 57q4 32 -15.5 54.5t-52.5 22.5q-32 0 -58 -23t-30 -54q-5 -34 14.5 -57t51.5 -23z" />
    <glyph glyph-name="uni030B" unicode="&#x30b;" horiz-adv-x="0" 
d="M561 1137l123 295h172l-179 -295h-116zM264 1137l123 295h172l-179 -295h-116z" />
    <glyph glyph-name="uni030C" unicode="&#x30c;" horiz-adv-x="0" 
d="M253 1137l-157 295h115l150 -205l203 205h116l-237 -295h-190z" />
    <glyph glyph-name="dotbelowcomb" unicode="&#x323;" horiz-adv-x="0" 
d="M572 -416q-41 0 -65 26.5t-18 66.5t37.5 67t71.5 27q39 0 63 -27t19 -67q-6 -40 -37 -66.5t-71 -26.5z" />
    <glyph glyph-name="uni0326" unicode="&#x326;" horiz-adv-x="0" 
d="M246 -452l111 347h172l-169 -347h-114z" />
    <glyph glyph-name="uni0327" unicode="&#x327;" horiz-adv-x="0" 
d="M462 -378q-69 -19 -125 16t-64 102l103 27q4 -26 25.5 -39.5t48.5 -6.5q28 7 44.5 30.5t13.5 49.5q-4 26 -25 39t-50 8l-107 -11l162 229l82 -53l-51 -72q36 -11 61.5 -41.5t30.5 -71.5q8 -68 -35.5 -128.5t-113.5 -77.5z" />
    <glyph glyph-name="uni0328" unicode="&#x328;" horiz-adv-x="0" 
d="M346 -428q-87 1 -135 62t-36 141q11 82 79 142l197 172l76 -89q-23 -20 -54 -46.5t-46.5 -40t-36 -32t-30 -28t-21 -22.5t-17 -22t-9.5 -19t-5 -20q-4 -29 13 -51t49 -23q41 0 75.5 29t41.5 73h119q-14 -95 -89.5 -160.5t-170.5 -65.5z" />
    <glyph glyph-name="uni03BC" unicode="&#x3bc;" horiz-adv-x="1103" 
d="M-81 -442l206 1466h172l-76 -539q-20 -144 53 -244.5t201 -100.5q127 0 224.5 100t118.5 245l75 539h172l-143 -1024h-172l22 159q-70 -88 -158 -137.5t-186 -49.5q-85 0 -151.5 39.5t-106.5 106.5l-79 -560h-172z" />
    <glyph glyph-name="uni1E04" unicode="&#x1e04;" horiz-adv-x="1158" 
d="M23 0l200 1434h495q166 0 262 -100t71 -269q-12 -93 -70.5 -173t-129.5 -102q59 -16 101 -58.5t60 -96t24.5 -115.5t-4.5 -118q-25 -176 -155.5 -289t-296.5 -113h-557zM314 854h306q98 0 172 57.5t87 154.5q14 104 -42.5 160t-156.5 56h-305zM215 152h370q107 0 193 80
t102 199q15 108 -48.5 191.5t-168.5 83.5h-370zM428 -416q-41 0 -65 26.5t-18 66.5t37.5 67t71.5 27q39 0 63 -27t19 -67q-6 -40 -37 -66.5t-71 -26.5z" />
    <glyph glyph-name="uni1E05" unicode="&#x1e05;" horiz-adv-x="1243" 
d="M689 1053q147 0 261 -72.5t169 -196.5t34 -271t-110.5 -271t-223.5 -196.5t-281 -72.5q-115 0 -196 54t-122 148l-24 -175h-172l215 1536h172l-97 -685q67 94 163.5 148t211.5 54zM559 141q152 0 274 109t144 263q22 156 -70 264.5t-242 108.5q-148 0 -254.5 -108
t-128.5 -265q-22 -159 54 -265.5t223 -106.5zM470 -416q-41 0 -65 26.5t-18 66.5t37.5 67t71.5 27q39 0 63 -27t19 -67q-6 -40 -37 -66.5t-71 -26.5z" />
    <glyph glyph-name="uni1E0C" unicode="&#x1e0c;" horiz-adv-x="1375" 
d="M23 0l200 1434h474q146 0 271 -57t207.5 -153t120.5 -228.5t18 -278.5t-95.5 -278.5t-185 -228.5t-250 -153t-286.5 -57h-474zM218 172h302q148 0 283.5 72.5t226.5 198.5t112 274t-35 273.5t-171 198.5t-263 73h-301zM526 -416q-41 0 -64.5 26.5t-17.5 66.5t37.5 67
t71.5 27q39 0 62.5 -27t18.5 -67t-36 -66.5t-72 -26.5z" />
    <glyph glyph-name="uni1E0D" unicode="&#x1e0d;" horiz-adv-x="1242" 
d="M1062 1536h172l-215 -1536h-172l24 174q-68 -94 -164 -147.5t-211 -53.5q-146 0 -260 72.5t-169 196.5t-34 270q21 147 110.5 271t223.5 196.5t280 72.5q116 0 197.5 -54t121.5 -147zM520 140q149 0 255 107t129 265q22 160 -54.5 266.5t-223.5 106.5q-151 0 -273 -109
t-144 -264t70 -263.5t241 -108.5zM473 -416q-41 0 -65 26.5t-18 66.5t37.5 67t71.5 27q39 0 63 -27t19 -67q-6 -40 -37 -66.5t-71 -26.5z" />
    <glyph glyph-name="uni1E20" unicode="&#x1e20;" horiz-adv-x="1572" 
d="M585 1736h692l-19 -135h-692zM683 -27q-145 0 -268 59.5t-202.5 159.5t-115.5 237.5t-15 288.5q29 206 151 377.5t298 267.5t364 96q162 0 297.5 -76.5t221.5 -218.5l-166 -83q-65 100 -164.5 153.5t-214.5 53.5q-144 0 -277.5 -75.5t-224.5 -208t-113 -289.5
q-22 -154 31.5 -285.5t166 -208t257.5 -76.5q173 0 328.5 113.5t228.5 290.5h-353l22 153h555q-22 -147 -98 -282t-184 -233t-245.5 -156t-279.5 -58z" />
    <glyph glyph-name="uni1E21" unicode="&#x1e21;" horiz-adv-x="1217" 
d="M348 1326h692l-18 -135h-692zM966 1024h172l-149 -1057q-18 -132 -108 -243t-219.5 -173.5t-265.5 -62.5q-159 0 -282.5 101.5t-153.5 250.5l168 72q13 -106 99 -178.5t194 -72.5q138 0 258 90t138 216l29 204q-67 -92 -161 -145t-204 -53q-143 0 -253.5 72.5t-163 196.5
t-31.5 270q21 147 108.5 271t218 196.5t273.5 72.5q110 0 189 -53t120 -145zM506 140q144 0 250 108.5t128 263.5q22 156 -54 264.5t-219 108.5q-146 0 -263 -109t-139 -264q-22 -154 65.5 -263t231.5 -109z" />
    <glyph glyph-name="uni1E24" unicode="&#x1e24;" horiz-adv-x="1299" 
d="M1105 1434h172l-201 -1434h-172l95 682h-709l-95 -682h-172l200 1434h172l-81 -580h709zM498 -416q-41 0 -65 26.5t-18 66.5t37 67t71 27q39 0 63 -27t19 -67q-6 -40 -36.5 -66.5t-70.5 -26.5z" />
    <glyph glyph-name="uni1E25" unicode="&#x1e25;" horiz-adv-x="1111" 
d="M1017 638l-88 -638h-172l83 599q16 116 -54.5 198t-186.5 82t-209 -82t-110 -198l-84 -599h-172l215 1536h172l-89 -640q65 73 154 115t184 42q113 0 201 -55.5t130 -151t26 -208.5zM442 -416q-41 0 -64.5 26.5t-17.5 66.5t37.5 67t71.5 27q39 0 62.5 -27t18.5 -67
q-6 -40 -36.5 -66.5t-71.5 -26.5z" />
    <glyph glyph-name="uni1E2E" unicode="&#x1e2e;" horiz-adv-x="479" 
d="M347 1784l123 295h172l-180 -295h-115zM180 1513q-41 0 -65.5 27t-18.5 67q5 39 37.5 67.5t72.5 28.5q39 0 63.5 -28.5t18.5 -67.5q-5 -40 -36.5 -67t-71.5 -27zM525 1513q-41 0 -65.5 27t-19.5 67q5 39 38 67.5t73 28.5q39 0 63 -28.5t19 -67.5q-6 -40 -37.5 -67
t-70.5 -27zM53 0l201 1434h172l-201 -1434h-172z" />
    <glyph glyph-name="uni1E2F" unicode="&#x1e2f;" 
d="M259 1374l123 295h172l-180 -295h-115zM92 1104q-41 0 -65.5 26.5t-18.5 66.5q5 39 37.5 67.5t72.5 28.5q39 0 63.5 -28.5t18.5 -67.5q-5 -40 -36.5 -66.5t-71.5 -26.5zM437 1104q-41 0 -65.5 26.5t-19.5 66.5q5 39 38 67.5t73 28.5q39 0 63 -28.5t19 -67.5
q-6 -40 -37.5 -66.5t-70.5 -26.5zM166 1024h172l-143 -1024h-172z" />
    <glyph glyph-name="uni1E36" unicode="&#x1e36;" horiz-adv-x="1039" 
d="M23 0l200 1434h172l-177 -1262h643l-24 -172h-814zM378 -416q-41 0 -64.5 26.5t-17.5 66.5t37 67t71 27q39 0 62.5 -27t18.5 -67t-35.5 -66.5t-71.5 -26.5z" />
    <glyph glyph-name="uni1E37" unicode="&#x1e37;" 
d="M24 0l215 1536h172l-215 -1536h-172zM58 -416q-41 0 -65 26.5t-18 66.5t37.5 67t71.5 27q39 0 63 -27t19 -67q-6 -40 -37 -66.5t-71 -26.5z" />
    <glyph glyph-name="uni1E3E" unicode="&#x1e3e;" horiz-adv-x="1839" 
d="M993 1546l123 295h172l-179 -295h-116zM23 0l478 1434h132l245 -1018l528 1018h132l78 -1434h-175l-56 1040l-499 -962h-113l-229 962l-346 -1040h-175z" />
    <glyph glyph-name="uni1E3F" unicode="&#x1e3f;" horiz-adv-x="1818" 
d="M984 1137l123 295h172l-179 -295h-116zM23 0l143 1024h172l-17 -128q66 73 154 115t183 42q113 0 200 -54.5t128 -147.5q69 93 170.5 147.5t213.5 54.5q113 0 200.5 -55.5t129.5 -151t26 -208.5l-89 -638h-172l84 596q17 115 -52.5 199t-182.5 84q-115 0 -206 -81
t-109 -202l-83 -596h-172l83 596q18 121 -51 202t-184 81q-113 0 -204.5 -84t-108.5 -199l-84 -596h-172z" />
    <glyph glyph-name="uni1E40" unicode="&#x1e40;" horiz-adv-x="1839" 
d="M1046 1601q-41 0 -65 26.5t-18 66.5t37 66.5t71 26.5q39 0 63 -27t19 -66q-6 -40 -36.5 -66.5t-70.5 -26.5zM23 0l478 1434h132l245 -1018l528 1018h132l78 -1434h-175l-56 1040l-499 -962h-113l-229 962l-346 -1040h-175z" />
    <glyph glyph-name="uni1E41" unicode="&#x1e41;" horiz-adv-x="1818" 
d="M1036 1191q-41 0 -65 26.5t-18 66.5t37 66.5t72 26.5q39 0 63 -27t19 -66q-6 -40 -37 -66.5t-71 -26.5zM23 0l143 1024h172l-17 -128q66 73 154 115t183 42q113 0 200 -54.5t128 -147.5q69 93 170.5 147.5t213.5 54.5q113 0 200.5 -55.5t129.5 -151t26 -208.5l-89 -638
h-172l84 596q17 115 -52.5 199t-182.5 84q-115 0 -206 -81t-109 -202l-83 -596h-172l83 596q18 121 -51 202t-184 81q-113 0 -204.5 -84t-108.5 -199l-84 -596h-172z" />
    <glyph glyph-name="uni1E42" unicode="&#x1e42;" horiz-adv-x="1839" 
d="M23 0l478 1434h132l245 -1018l528 1018h132l78 -1434h-175l-56 1040l-499 -962h-113l-229 962l-346 -1040h-175zM768 -416q-41 0 -64.5 26.5t-18.5 66.5q6 40 37.5 67t72.5 27q39 0 62.5 -27t18.5 -67q-6 -40 -37 -66.5t-71 -26.5z" />
    <glyph glyph-name="uni1E43" unicode="&#x1e43;" horiz-adv-x="1818" 
d="M23 0l143 1024h172l-17 -128q66 73 154 115t183 42q113 0 200 -54.5t128 -147.5q69 93 170.5 147.5t213.5 54.5q113 0 200.5 -55.5t129.5 -151t26 -208.5l-89 -638h-172l84 596q17 115 -52.5 199t-182.5 84q-115 0 -206 -81t-109 -202l-83 -596h-172l83 596
q18 121 -51 202t-184 81q-113 0 -204.5 -84t-108.5 -199l-84 -596h-172zM779 -416q-41 0 -65 26.5t-18 66.5t37.5 67t71.5 27q39 0 63 -27t19 -67q-6 -40 -37 -66.5t-71 -26.5z" />
    <glyph glyph-name="uni1E44" unicode="&#x1e44;" horiz-adv-x="1319" 
d="M785 1601q-41 0 -65 26.5t-18 66.5t37 66.5t72 26.5q39 0 63 -27t19 -66q-6 -40 -37 -66.5t-71 -26.5zM23 0l200 1434h187l559 -1123l156 1123h172l-200 -1434h-186l-559 1122l-157 -1122h-172z" />
    <glyph glyph-name="uni1E45" unicode="&#x1e45;" horiz-adv-x="1110" 
d="M652 1191q-41 0 -64.5 26.5t-17.5 66.5t37 66.5t72 26.5q39 0 63 -27t18 -66q-5 -40 -36 -66.5t-72 -26.5zM1016 638l-88 -638h-172l83 599q16 116 -54.5 198t-186.5 82t-209 -82t-110 -198l-84 -599h-172l143 1024h172l-17 -128q65 73 154 115t184 42q113 0 201 -55.5
t130 -151t26 -208.5z" />
    <glyph glyph-name="uni1E46" unicode="&#x1e46;" horiz-adv-x="1319" 
d="M23 0l200 1434h187l559 -1123l156 1123h172l-200 -1434h-186l-559 1122l-157 -1122h-172zM508 -416q-41 0 -65 26.5t-18 66.5t37.5 67t71.5 27q39 0 62.5 -27t18.5 -67q-6 -40 -36.5 -66.5t-70.5 -26.5z" />
    <glyph glyph-name="uni1E47" unicode="&#x1e47;" horiz-adv-x="1110" 
d="M1016 638l-88 -638h-172l83 599q16 116 -54.5 198t-186.5 82t-209 -82t-110 -198l-84 -599h-172l143 1024h172l-17 -128q65 73 154 115t184 42q113 0 201 -55.5t130 -151t26 -208.5zM424 -416q-41 0 -65 26.5t-18 66.5t37.5 67t71.5 27q39 0 62.5 -27t18.5 -67
q-6 -40 -36.5 -66.5t-70.5 -26.5z" />
    <glyph glyph-name="uni1E62" unicode="&#x1e62;" horiz-adv-x="1257" 
d="M523 -27q-178 0 -315 82t-167 219l169 61q19 -85 116 -137.5t222 -52.5q142 0 255 68t128 174q7 53 -16.5 95t-72 70t-103 46t-124.5 31q-92 16 -163 36t-134 53.5t-101.5 76.5t-56 106t-6.5 141q26 182 195.5 298t382.5 116q176 0 314 -81.5t171 -221.5l-171 -59
q-19 85 -116 137t-222 52q-141 1 -254 -67.5t-128 -173.5q-7 -50 6.5 -87.5t37 -60.5t72.5 -41.5t88 -27.5t110 -22q106 -18 192 -50.5t153.5 -82t99 -122t18.5 -161.5q-17 -121 -103 -217t-211.5 -146.5t-265.5 -50.5zM551 -416q-41 0 -65 26.5t-18 66.5t37.5 67t71.5 27
q39 0 62.5 -27t18.5 -67q-6 -40 -36.5 -66.5t-70.5 -26.5z" />
    <glyph glyph-name="uni1E63" unicode="&#x1e63;" horiz-adv-x="882" 
d="M332 -19q-126 5 -227 66t-127 154l157 63q15 -54 84.5 -93.5t150.5 -39.5q88 0 158 41.5t79 110.5q5 34 -7.5 58.5t-43 42t-57 27.5t-71.5 23q-5 1 -8 2l-7.5 2.5t-8.5 2.5q-83 22 -141.5 46t-105.5 60t-66 86.5t-10 115.5q20 138 143 224t277 86q124 0 218.5 -53.5
t132.5 -144.5l-150 -81q-18 55 -78 90t-132 37q-95 2 -166 -39t-82 -116q-3 -25 4 -45t17.5 -32t36.5 -25t43 -19t56 -18t58 -18q59 -20 103.5 -38.5t89.5 -46t71.5 -58.5t40 -74t5.5 -93q-14 -91 -80 -163t-161 -108.5t-196 -32.5zM350 -416q-41 0 -64.5 26.5t-17.5 66.5
t37.5 67t71.5 27q39 0 62.5 -27t18.5 -67t-36 -66.5t-72 -26.5z" />
    <glyph glyph-name="uni1E6C" unicode="&#x1e6c;" horiz-adv-x="1289" 
d="M1308 1434l-25 -172h-477l-176 -1262h-172l176 1262h-475l23 172h1126zM493 -416q-41 0 -65 26.5t-18 66.5t37 67t71 27q39 0 63 -27t19 -67q-6 -40 -36.5 -66.5t-70.5 -26.5z" />
    <glyph glyph-name="uni1E6D" unicode="&#x1e6d;" horiz-adv-x="713" 
d="M673 852h-233l-121 -852h-172l121 852h-176l24 172h176l44 322h172l-44 -322h232zM182 -416q-41 0 -65 26.5t-18 66.5t37.5 67t71.5 27q39 0 63 -27t19 -67q-6 -40 -37 -66.5t-71 -26.5z" />
    <glyph glyph-name="Wgrave" unicode="&#x1e80;" horiz-adv-x="1777" 
d="M829 1841h172l41 -295h-113zM324 0l-166 1434h177l131 -1132l446 1132h154l131 -1132l445 1132h178l-566 -1434h-200l-120 1038l-411 -1038h-199z" />
    <glyph glyph-name="wgrave" unicode="&#x1e81;" horiz-adv-x="1686" 
d="M727 1432h172l41 -295h-114zM478 0h-174l-200 1024h168l155 -781l371 781h177l152 -781l371 781h170l-486 -1024h-175l-154 788z" />
    <glyph glyph-name="Wacute" unicode="&#x1e82;" horiz-adv-x="1777" 
d="M963 1546l122 295h172l-180 -295h-114zM324 0l-166 1434h177l131 -1132l446 1132h154l131 -1132l445 1132h178l-566 -1434h-200l-120 1038l-411 -1038h-199z" />
    <glyph glyph-name="wacute" unicode="&#x1e83;" horiz-adv-x="1686" 
d="M860 1137l123 295h172l-180 -295h-115zM478 0h-174l-200 1024h168l155 -781l371 781h177l152 -781l371 781h170l-486 -1024h-175l-154 788z" />
    <glyph glyph-name="Wdieresis" unicode="&#x1e84;" horiz-adv-x="1777" 
d="M828 1513q-41 0 -65 27t-18 67q5 39 37.5 67.5t72.5 28.5q39 0 63 -28.5t19 -67.5q-6 -40 -38 -67t-71 -27zM1174 1513q-41 0 -65 27t-19 67q5 39 37.5 67.5t72.5 28.5q39 0 63 -28.5t19 -67.5q-6 -40 -37.5 -67t-70.5 -27zM324 0l-166 1434h177l131 -1132l446 1132h154
l131 -1132l445 1132h178l-566 -1434h-200l-120 1038l-411 -1038h-199z" />
    <glyph glyph-name="wdieresis" unicode="&#x1e85;" horiz-adv-x="1686" 
d="M726 1104q-41 0 -65 26.5t-18 66.5q5 39 37.5 67.5t72.5 28.5q39 0 63 -28.5t19 -67.5q-6 -40 -37.5 -66.5t-71.5 -26.5zM1071 1104q-41 0 -65 26.5t-19 66.5q5 39 38 67.5t73 28.5q39 0 63 -28.5t19 -67.5q-6 -40 -37.5 -66.5t-71.5 -26.5zM478 0h-174l-200 1024h168
l155 -781l371 781h177l152 -781l371 781h170l-486 -1024h-175l-154 788z" />
    <glyph glyph-name="uni1E92" unicode="&#x1e92;" horiz-adv-x="1323" 
d="M-18 0l23 172l1081 1090h-927l23 172h1159l-23 -172l-1081 -1090h927l-23 -172h-1159zM510 -416q-41 0 -65 26.5t-18 66.5t37.5 67t71.5 27q39 0 62.5 -27t18.5 -67q-6 -40 -36.5 -66.5t-70.5 -26.5z" />
    <glyph glyph-name="uni1E93" unicode="&#x1e93;" horiz-adv-x="1038" 
d="M976 852l-726 -680h630l-24 -172h-874l23 172l726 680h-630l24 172h874zM368 -416q-41 0 -65 26.5t-18 66.5t37 67t71 27q39 0 63 -27t19 -67q-6 -40 -36.5 -66.5t-70.5 -26.5z" />
    <glyph glyph-name="uni1E97" unicode="&#x1e97;" horiz-adv-x="713" 
d="M262 1425q-41 0 -65.5 27t-18.5 67q5 39 37.5 67.5t72.5 28.5q39 0 63.5 -28.5t19.5 -67.5q-6 -40 -38 -67t-71 -27zM607 1425q-41 0 -65.5 27t-19.5 67q5 39 38 67.5t73 28.5q39 0 63 -28.5t19 -67.5q-5 -40 -36.5 -67t-71.5 -27zM673 852h-233l-121 -852h-172l121 852
h-176l24 172h176l44 322h172l-44 -322h232z" />
    <glyph glyph-name="uni1E9E" unicode="&#x1e9e;" horiz-adv-x="1176" 
d="M23 0l134 959q18 128 96.5 237.5t196.5 173t246 63.5q158 0 260 -81.5t85 -210.5q-4 -26 -15.5 -51t-42.5 -63t-57 -67t-90 -97t-110 -119q73 10 141.5 -14t116.5 -72t72.5 -117t14.5 -143q-13 -94 -65 -171.5t-125 -126t-157.5 -74.5t-167.5 -26h-66l-19 152h91
q76 0 148.5 23.5t132 82t71.5 142.5q9 63 -13.5 112t-66 77.5t-95.5 42.5t-107 14h-76l8 69q3 35 49 99.5t100 123.5t100.5 119t49.5 87q5 38 -10 65.5t-47 42.5t-71 21.5t-88 6.5q-111 0 -203.5 -83t-109.5 -200l-139 -997h-172z" />
    <glyph glyph-name="uni1EA0" unicode="&#x1ea0;" horiz-adv-x="1414" 
d="M703 1434h208l321 -1434h-182l-67 293h-671l-147 -293h-183zM399 465h545l-168 748zM555 -416q-41 0 -65 26.5t-18 66.5t37.5 67t71.5 27q39 0 63 -27t19 -67q-6 -40 -37 -66.5t-71 -26.5z" />
    <glyph glyph-name="uni1EA1" unicode="&#x1ea1;" horiz-adv-x="1199" 
d="M989 1024h172l-143 -1024h-172l17 173q-63 -93 -156 -146.5t-206 -53.5q-111 0 -205.5 43.5t-157 116.5t-91.5 174t-13 212q31 221 208.5 377.5t397.5 156.5q117 0 202 -54.5t130 -149.5zM520 140q149 0 255 107t129 265q22 160 -54.5 266.5t-223.5 106.5
q-152 0 -273.5 -109t-143.5 -264t70 -263.5t241 -108.5zM463 -416q-41 0 -64.5 26.5t-17.5 66.5t37 67t71 27q39 0 62.5 -27t18.5 -67t-35.5 -66.5t-71.5 -26.5z" />
    <glyph glyph-name="uni1EAC" unicode="&#x1eac;" horiz-adv-x="1414" 
d="M959 1841l157 -295h-115l-149 205l-205 -205h-113l236 295h189zM703 1434h208l321 -1434h-182l-67 293h-671l-147 -293h-183zM399 465h545l-168 748zM555 -416q-41 0 -65 26.5t-18 66.5t37.5 67t71.5 27q39 0 63 -27t19 -67q-6 -40 -37 -66.5t-71 -26.5z" />
    <glyph glyph-name="uni1EAD" unicode="&#x1ead;" horiz-adv-x="1199" 
d="M811 1432l157 -295h-116l-150 204l-203 -204h-115l237 295h190zM989 1024h172l-143 -1024h-172l17 173q-63 -93 -156 -146.5t-206 -53.5q-111 0 -205.5 43.5t-157 116.5t-91.5 174t-13 212q31 221 208.5 377.5t397.5 156.5q117 0 202 -54.5t130 -149.5zM520 140
q149 0 255 107t129 265q22 160 -54.5 266.5t-223.5 106.5q-152 0 -273.5 -109t-143.5 -264t70 -263.5t241 -108.5zM463 -416q-41 0 -64.5 26.5t-17.5 66.5t37 67t71 27q39 0 62.5 -27t18.5 -67t-35.5 -66.5t-71.5 -26.5z" />
    <glyph glyph-name="uni1EB6" unicode="&#x1eb6;" horiz-adv-x="1414" 
d="M820 1524q-140 0 -226 100.5t-67 239.5h117q-13 -93 45 -158.5t148 -65.5q92 0 166.5 65.5t87.5 158.5h116q-20 -142 -134 -241t-253 -99zM703 1434h208l321 -1434h-182l-67 293h-671l-147 -293h-183zM399 465h545l-168 748zM555 -416q-41 0 -65 26.5t-18 66.5t37.5 67
t71.5 27q39 0 63 -27t19 -67q-6 -40 -37 -66.5t-71 -26.5z" />
    <glyph glyph-name="uni1EB7" unicode="&#x1eb7;" horiz-adv-x="1199" 
d="M672 1114q-140 0 -226 100.5t-67 239.5h117q-13 -93 44 -158t148 -65t166 65.5t88 157.5h117q-20 -142 -134 -241t-253 -99zM989 1024h172l-143 -1024h-172l17 173q-63 -93 -156 -146.5t-206 -53.5q-111 0 -205.5 43.5t-157 116.5t-91.5 174t-13 212q31 221 208.5 377.5
t397.5 156.5q117 0 202 -54.5t130 -149.5zM520 140q149 0 255 107t129 265q22 160 -54.5 266.5t-223.5 106.5q-152 0 -273.5 -109t-143.5 -264t70 -263.5t241 -108.5zM463 -416q-41 0 -64.5 26.5t-17.5 66.5t37 67t71 27q39 0 62.5 -27t18.5 -67t-35.5 -66.5t-71.5 -26.5z
" />
    <glyph glyph-name="uni1EB8" unicode="&#x1eb8;" horiz-adv-x="1104" 
d="M23 0l200 1434h880l-24 -172h-707l-58 -408h580l-24 -172h-580l-72 -510h708l-24 -172h-879zM400 -416q-41 0 -64.5 26.5t-17.5 66.5q5 40 36.5 67t72.5 27q39 0 62.5 -27t18.5 -67q-6 -40 -37 -66.5t-71 -26.5z" />
    <glyph glyph-name="uni1EB9" unicode="&#x1eb9;" horiz-adv-x="1143" 
d="M469 -27q-139 0 -247 72.5t-159 196.5t-30 270q32 224 204 382.5t384 158.5q151 0 260.5 -80.5t152.5 -219t8 -303.5h-834q-1 -131 78 -217.5t207 -87.5q91 0 173 47t140 132l169 -41q-83 -139 -219 -224.5t-287 -85.5zM221 585h667q5 130 -78 222t-210 92
q-128 0 -235.5 -90.5t-143.5 -223.5zM421 -416q-41 0 -65 26.5t-18 66.5t37 67t71 27q39 0 63 -27t19 -67q-6 -40 -36.5 -66.5t-70.5 -26.5z" />
    <glyph glyph-name="uni1EBC" unicode="&#x1ebc;" horiz-adv-x="1104" 
d="M829 1561q-43 0 -108 41.5t-120.5 77.5t-81.5 27q-26 -8 -40.5 -34.5t-10.5 -62.5l-114 -30q-20 96 38.5 171.5t155.5 75.5q43 0 107.5 -37t120.5 -74t80 -37q31 0 45.5 33t8.5 64l115 35q20 -100 -40 -175t-156 -75zM23 0l200 1434h880l-24 -172h-707l-58 -408h580
l-24 -172h-580l-72 -510h708l-24 -172h-879z" />
    <glyph glyph-name="uni1EBD" unicode="&#x1ebd;" horiz-adv-x="1143" 
d="M792 1151q-34 0 -82 26t-87.5 55.5t-79.5 50.5t-61 14q-26 -8 -40.5 -34.5t-10.5 -62.5l-114 -30q-21 96 37.5 171.5t155.5 75.5q34 0 82.5 -23t87.5 -50.5t79 -50.5t60 -23q31 0 45.5 32.5t8.5 63.5l115 36q19 -100 -40.5 -175.5t-155.5 -75.5zM469 -27
q-139 0 -247 72.5t-159 196.5t-30 270q32 224 204 382.5t384 158.5q151 0 260.5 -80.5t152.5 -219t8 -303.5h-834q-1 -131 78 -217.5t207 -87.5q91 0 173 47t140 132l169 -41q-83 -139 -219 -224.5t-287 -85.5zM221 585h667q5 130 -78 222t-210 92q-128 0 -235.5 -90.5
t-143.5 -223.5z" />
    <glyph glyph-name="uni1EC6" unicode="&#x1ec6;" horiz-adv-x="1104" 
d="M806 1841l157 -295h-116l-150 205l-203 -205h-115l236 295h191zM23 0l200 1434h880l-24 -172h-707l-58 -408h580l-24 -172h-580l-72 -510h708l-24 -172h-879zM400 -416q-41 0 -64.5 26.5t-17.5 66.5q5 40 36.5 67t72.5 27q39 0 62.5 -27t18.5 -67q-6 -40 -37 -66.5
t-71 -26.5z" />
    <glyph glyph-name="uni1EC7" unicode="&#x1ec7;" horiz-adv-x="1143" 
d="M768 1432l157 -295h-115l-150 204l-204 -204h-114l237 295h189zM469 -27q-139 0 -247 72.5t-159 196.5t-30 270q32 224 204 382.5t384 158.5q151 0 260.5 -80.5t152.5 -219t8 -303.5h-834q-1 -131 78 -217.5t207 -87.5q91 0 173 47t140 132l169 -41q-83 -139 -219 -224.5
t-287 -85.5zM221 585h667q5 130 -78 222t-210 92q-128 0 -235.5 -90.5t-143.5 -223.5zM421 -416q-41 0 -65 26.5t-18 66.5t37 67t71 27q39 0 63 -27t19 -67q-6 -40 -36.5 -66.5t-70.5 -26.5z" />
    <glyph glyph-name="uni1ECA" unicode="&#x1eca;" horiz-adv-x="479" 
d="M53 0l201 1434h172l-201 -1434h-172zM88 -416q-41 0 -65 26.5t-18 66.5t37.5 67t71.5 27q39 0 63 -27t19 -67q-6 -40 -37 -66.5t-71 -26.5z" />
    <glyph glyph-name="uni1ECB" unicode="&#x1ecb;" 
d="M276 1191q-41 0 -64 26.5t-17 66.5q5 40 36 66.5t72 26.5q39 0 62.5 -26.5t18.5 -66.5q-6 -40 -37 -66.5t-71 -26.5zM166 1024h172l-143 -1024h-172zM57 -416q-41 0 -65 26.5t-18 66.5t37.5 67t71.5 27q39 0 63 -27t19 -67q-6 -40 -37 -66.5t-71 -26.5z" />
    <glyph glyph-name="uni1ECC" unicode="&#x1ecc;" horiz-adv-x="1576" 
d="M684 -27q-143 0 -265.5 59t-203 158.5t-117.5 237.5t-16 289q28 202 147 373t296 270.5t368 99.5q143 0 265.5 -59t203 -158.5t117.5 -237t16 -288.5t-96.5 -289t-184 -237.5t-248 -158.5t-282.5 -59zM708 145q146 0 280 78t223.5 209.5t111.5 284.5q22 154 -31.5 285.5
t-166 208.5t-256.5 77q-146 0 -280 -77.5t-223.5 -209t-111.5 -284.5q-22 -154 31.5 -286t165.5 -209t257 -77zM637 -416q-41 0 -65 26.5t-18 66.5t37.5 67t71.5 27q39 0 62.5 -27t18.5 -67q-6 -40 -36.5 -66.5t-70.5 -26.5z" />
    <glyph glyph-name="uni1ECD" unicode="&#x1ecd;" horiz-adv-x="1146" 
d="M469 -27q-139 0 -247 72.5t-159 196.5t-30 270q32 224 204 382.5t384 158.5q139 0 247 -72.5t159 -197t30 -271.5q-21 -146 -107 -270t-214 -196.5t-267 -72.5zM493 145q143 0 257 108.5t135 258.5q21 151 -63 260t-225 109q-143 0 -257 -109t-135 -260q-22 -153 63 -260
t225 -107zM422 -416q-41 0 -65 26.5t-18 66.5t37 67t71 27q39 0 63 -27t19 -67q-6 -40 -36.5 -66.5t-70.5 -26.5z" />
    <glyph glyph-name="uni1ED8" unicode="&#x1ed8;" horiz-adv-x="1576" 
d="M1041 1841l157 -295h-115l-149 205l-205 -205h-114l236 295h190zM684 -27q-143 0 -265.5 59t-203 158.5t-117.5 237.5t-16 289q28 202 147 373t296 270.5t368 99.5q143 0 265.5 -59t203 -158.5t117.5 -237t16 -288.5t-96.5 -289t-184 -237.5t-248 -158.5t-282.5 -59z
M708 145q146 0 280 78t223.5 209.5t111.5 284.5q22 154 -31.5 285.5t-166 208.5t-256.5 77q-146 0 -280 -77.5t-223.5 -209t-111.5 -284.5q-22 -154 31.5 -286t165.5 -209t257 -77zM637 -416q-41 0 -65 26.5t-18 66.5t37.5 67t71.5 27q39 0 62.5 -27t18.5 -67
q-6 -40 -36.5 -66.5t-70.5 -26.5z" />
    <glyph glyph-name="uni1ED9" unicode="&#x1ed9;" horiz-adv-x="1146" 
d="M769 1432l157 -295h-115l-149 204l-205 -204h-114l236 295h190zM469 -27q-139 0 -247 72.5t-159 196.5t-30 270q32 224 204 382.5t384 158.5q139 0 247 -72.5t159 -197t30 -271.5q-21 -146 -107 -270t-214 -196.5t-267 -72.5zM493 145q143 0 257 108.5t135 258.5
q21 151 -63 260t-225 109q-143 0 -257 -109t-135 -260q-22 -153 63 -260t225 -107zM422 -416q-41 0 -65 26.5t-18 66.5t37 67t71 27q39 0 63 -27t19 -67q-6 -40 -36.5 -66.5t-70.5 -26.5z" />
    <glyph glyph-name="uni1EE4" unicode="&#x1ee4;" horiz-adv-x="1367" 
d="M580 -27q-168 0 -285.5 84.5t-165.5 226t-23 314.5l117 836h172l-116 -836q-18 -126 12 -227.5t110.5 -163.5t202.5 -62q182 0 303 130t149 323l116 836h173l-117 -836q-25 -174 -112 -315t-227.5 -225.5t-308.5 -84.5zM531 -416q-41 0 -64 26.5t-17 66.5q5 40 36.5 67
t71.5 27q39 0 62.5 -27t18.5 -67q-6 -40 -37 -66.5t-71 -26.5z" />
    <glyph glyph-name="uni1EE5" unicode="&#x1ee5;" horiz-adv-x="1069" 
d="M36 389l89 635h172l-84 -597q-16 -116 54.5 -198t186.5 -82q117 0 209.5 82t109.5 198l84 597h172l-142 -1024h-172l16 130q-65 -73 -154 -115t-184 -42q-173 0 -277.5 122t-79.5 294zM400 -415q-41 0 -65 26.5t-18 66.5t38 67.5t72 27.5q39 0 62.5 -27.5t18.5 -67.5
q-6 -40 -37 -66.5t-71 -26.5z" />
    <glyph glyph-name="Ygrave" unicode="&#x1ef2;" horiz-adv-x="1265" 
d="M573 1841h172l41 -295h-113zM1102 1434h203l-596 -786l-91 -648h-172l91 648l-375 786h203l284 -597z" />
    <glyph glyph-name="ygrave" unicode="&#x1ef3;" horiz-adv-x="1088" 
d="M428 1432h172l41 -295h-115zM867 1024h183l-777 -1536h-182l258 512l-224 1024h188l155 -787z" />
    <glyph glyph-name="uni1EF4" unicode="&#x1ef4;" horiz-adv-x="1265" 
d="M1102 1434h203l-596 -786l-91 -648h-172l91 648l-375 786h203l284 -597zM480 -416q-41 0 -64.5 26.5t-17.5 66.5t37.5 67t71.5 27q39 0 62.5 -27t18.5 -67q-6 -40 -37 -66.5t-71 -26.5z" />
    <glyph glyph-name="uni1EF5" unicode="&#x1ef5;" horiz-adv-x="1088" 
d="M867 1024h183l-777 -1536h-182l258 512l-224 1024h188l155 -787zM601 -416q-41 0 -64.5 26.5t-18.5 66.5q6 40 37.5 67t72.5 27q39 0 62.5 -27t18.5 -67q-6 -40 -37 -66.5t-71 -26.5z" />
    <glyph glyph-name="uni1EF8" unicode="&#x1ef8;" horiz-adv-x="1265" 
d="M909 1561q-43 0 -108 41.5t-120.5 77.5t-81.5 27q-25 -8 -39.5 -34.5t-10.5 -62.5l-115 -30q-20 96 38.5 171.5t155.5 75.5q43 0 107.5 -37t120.5 -74t80 -37q31 0 46 33.5t8 63.5l116 35q19 -100 -41 -175t-156 -75zM1102 1434h203l-596 -786l-91 -648h-172l91 648
l-375 786h203l284 -597z" />
    <glyph glyph-name="uni1EF9" unicode="&#x1ef9;" horiz-adv-x="1088" 
d="M764 1151q-43 0 -108 41.5t-120.5 77.5t-81.5 27q-26 -8 -41 -34.5t-11 -62.5l-113 -30q-20 96 38 171.5t154 75.5q34 0 82.5 -23t88 -50.5t79.5 -50.5t60 -23q31 0 45.5 32.5t8.5 63.5l114 36q19 -100 -40.5 -175.5t-154.5 -75.5zM867 1024h183l-777 -1536h-182l258 512
l-224 1024h188l155 -787z" />
    <glyph glyph-name="uni2002" unicode="&#x2002;" horiz-adv-x="1024" 
 />
    <glyph glyph-name="uni2009" unicode="&#x2009;" horiz-adv-x="409" 
 />
    <glyph glyph-name="uni200B" unicode="&#x200b;" horiz-adv-x="0" 
 />
    <glyph glyph-name="endash" unicode="&#x2013;" horiz-adv-x="1269" 
d="M121 700h1024l-25 -172h-1024z" />
    <glyph glyph-name="emdash" unicode="&#x2014;" horiz-adv-x="2088" 
d="M121 700h1843l-25 -172h-1843z" />
    <glyph glyph-name="quoteright" unicode="&#x2019;" horiz-adv-x="337" 
d="M67 899l138 535h172l-196 -535h-114z" />
    <glyph glyph-name="quoteright" unicode="&#x2032;" horiz-adv-x="337" 
d="M67 899l138 535h172l-196 -535h-114z" />
    <glyph glyph-name="quotesinglbase" unicode="&#x201a;" horiz-adv-x="376" 
d="M-57 -115l111 346h172l-170 -346h-113z" />
    <glyph glyph-name="quotedblleft" unicode="&#x201c;" horiz-adv-x="706" 
d="M456 903l195 535h115l-138 -535h-172zM148 899l196 535h115l-138 -535h-173z" />
    <glyph glyph-name="quotedblright" unicode="&#x201d;" horiz-adv-x="706" 
d="M67 899l138 535h172l-196 -535h-114zM374 899l138 535h172l-196 -535h-114z" />
    <glyph glyph-name="quotedblright" unicode="&#x2033;" horiz-adv-x="706" 
d="M67 899l138 535h172l-196 -535h-114zM374 899l138 535h172l-196 -535h-114z" />
    <glyph glyph-name="quotedblbase" unicode="&#x201e;" horiz-adv-x="683" 
d="M-57 -115l111 346h172l-170 -346h-113zM249 -115l111 346h172l-168 -346h-115z" />
    <glyph glyph-name="dagger" unicode="&#x2020;" horiz-adv-x="827" 
d="M136 1103l25 172h245l36 261h172l-36 -261h245l-23 -172h-246l-71 -507h-172l71 507h-246z" />
    <glyph glyph-name="daggerdbl" unicode="&#x2021;" horiz-adv-x="827" 
d="M91 786l25 170h244l29 193h-247l24 172h247l29 215h172l-29 -215h245l-24 -172h-245l-29 -193h247l-23 -170h-247l-30 -213h-172l30 213h-246z" />
    <glyph glyph-name="bullet" unicode="&#x2022;" horiz-adv-x="415" 
d="M175 488q-53 0 -83.5 36.5t-23.5 90.5q7 52 48.5 88.5t93.5 36.5q53 0 85 -36.5t24 -88.5q-7 -54 -49 -90.5t-95 -36.5z" />
    <glyph glyph-name="ellipsis" unicode="&#x2026;" horiz-adv-x="1115" 
d="M71 -27q-39 0 -62 27.5t-18 68.5q6 39 37 66.5t70 27.5t63 -28t18 -66q-5 -40 -36.5 -68t-71.5 -28zM431 -27q-39 0 -62.5 28t-18.5 68q6 38 37.5 66t70.5 28q40 0 64 -28t18 -66q-5 -40 -37 -68t-72 -28zM793 -27q-39 0 -62.5 28t-18.5 68q6 39 37 66.5t70 27.5
t63 -27.5t19 -66.5q-6 -40 -37.5 -68t-70.5 -28z" />
    <glyph glyph-name="perthousand" unicode="&#x2030;" horiz-adv-x="1937" 
d="M74 0l1028 1434h198l-1028 -1434h-198zM364 857q-108 0 -174.5 76.5t-51.5 184.5q15 110 103.5 186t195.5 76t173.5 -77t51.5 -185q-15 -109 -103.5 -185t-194.5 -76zM382 983q56 0 101.5 39.5t52.5 95.5q8 57 -26 96.5t-90 39.5q-57 0 -103 -39.5t-53 -96.5
q-8 -56 26.5 -95.5t91.5 -39.5zM904 52q-108 0 -174 78.5t-51 183.5q15 109 104 186t195 77q110 0 174.5 -78t50.5 -185q-15 -107 -103 -184.5t-196 -77.5zM1500 52q-107 0 -173 78.5t-52 183.5q16 109 104.5 186t195.5 77q109 0 173.5 -78t50.5 -185t-102.5 -184.5
t-196.5 -77.5zM922 178q56 0 102 40t53 96q8 56 -27 96.5t-91 40.5t-101 -40.5t-53 -96.5t26.5 -96t90.5 -40zM1519 178q56 0 102 40t53 96q8 56 -27 96.5t-91 40.5t-101 -40.5t-53 -96.5t26.5 -96t90.5 -40z" />
    <glyph glyph-name="uni2035" unicode="&#x2035;" horiz-adv-x="481" 
d="M269 899l-46 535h172l-11 -535h-115z" />
    <glyph glyph-name="guilsinglleft" unicode="&#x2039;" horiz-adv-x="715" 
d="M367 267l-258 348l356 347h183l-355 -347l257 -348h-183z" />
    <glyph glyph-name="guilsinglright" unicode="&#x203a;" horiz-adv-x="715" 
d="M39 267l355 348l-257 347h184l258 -347l-357 -348h-183z" />
    <glyph glyph-name="fraction" unicode="&#x2044;" horiz-adv-x="460" 
d="M-359 0l1028 1434h151l-1028 -1434h-151z" />
    <glyph glyph-name="fraction" unicode="&#x2215;" horiz-adv-x="460" 
d="M-359 0l1028 1434h151l-1028 -1434h-151z" />
    <glyph glyph-name="uni2070" unicode="&#x2070;" horiz-adv-x="663" 
d="M346 817q-108 0 -169.5 98.5t-40.5 244.5t110 244.5t196 98.5q108 0 169.5 -98.5t40.5 -244.5t-109.5 -244.5t-196.5 -98.5zM361 930q62 0 112 73.5t62 156.5q8 57 -2 109.5t-38 87t-68 34.5q-63 0 -112 -72.5t-61 -158.5q-12 -89 17 -159.5t90 -70.5z" />
    <glyph glyph-name="uni2074" unicode="&#x2074;" horiz-adv-x="700" 
d="M383 838l17 117h-268l20 142l299 387h141l-58 -411h68l-15 -118h-69l-16 -117h-119zM267 1073h157l35 249z" />
    <glyph glyph-name="uni2075" unicode="&#x2075;" horiz-adv-x="702" 
d="M335 817q-99 0 -158 63t-46 159h119q-7 -47 22 -78t78 -31t87.5 31t44.5 78q7 47 -22.5 80t-77.5 35q-88 3 -200 -22l82 352h352l-14 -107h-246l-21 -109q134 11 208 -51.5t58 -177.5q-14 -96 -91 -159t-175 -63z" />
    <glyph glyph-name="uni2076" unicode="&#x2076;" horiz-adv-x="722" 
d="M351 817q-103 0 -162 64.5t-45 161.5q7 50 40 103.5t172 244.5q13 18 21 29t20.5 28.5t23.5 32.5h137l-147 -206q103 2 163.5 -67t47.5 -166q-14 -99 -93 -162t-178 -63zM367 930q53 0 93 34.5t44 86.5q4 50 -27.5 81t-77.5 31q-55 0 -94.5 -38.5t-42.5 -90.5
q-4 -48 26.5 -76t78.5 -28z" />
    <glyph glyph-name="uni2077" unicode="&#x2077;" horiz-adv-x="660" 
d="M166 838l375 526h-328l17 119h465l-17 -116l-376 -529h-136z" />
    <glyph glyph-name="uni2078" unicode="&#x2078;" horiz-adv-x="626" 
d="M327 817q-90 0 -144.5 56.5t-42.5 144.5q13 94 96 160q-49 57 -38 136q11 83 76 136.5t149 53.5q85 0 135 -53t40 -137q-12 -79 -78 -136q64 -64 50 -160q-11 -88 -81 -144.5t-162 -56.5zM384 1233q35 0 63 24t33 57q4 34 -16.5 55.5t-56.5 21.5q-33 0 -60.5 -21.5
t-31.5 -55.5q-4 -33 16.5 -57t52.5 -24zM342 929q41 0 73.5 25.5t37.5 63.5q6 40 -18.5 68.5t-65.5 28.5q-40 0 -72.5 -28.5t-37.5 -68.5q-6 -38 18.5 -63.5t64.5 -25.5z" />
    <glyph glyph-name="uni2079" unicode="&#x2079;" horiz-adv-x="674" 
d="M214 838l150 209q-48 -5 -90 10t-69.5 45t-42 68.5t-10.5 83.5t27 88q29 74 97 117.5t148 43.5q59 0 106 -25.5t71 -66.5t27 -93.5t-25 -106.5q-6 -30 -24 -58l-229 -315h-136zM375 1156q56 0 98 44.5t40 101.5q-3 41 -33.5 65t-71.5 24q-58 0 -99 -41.5t-39 -96.5
q1 -46 33 -71.5t72 -25.5z" />
    <glyph glyph-name="uni2080" unicode="&#x2080;" horiz-adv-x="663" 
d="M226 -32q-107 0 -168.5 100t-40.5 247q21 146 111 247.5t197 101.5t168.5 -101.5t40.5 -247.5q-21 -147 -111 -247t-197 -100zM244 86q61 0 111 73t61 156q12 89 -18 160t-90 71q-63 0 -112 -72t-61 -159q-13 -89 17.5 -159t91.5 -70z" />
    <glyph glyph-name="uni2081" unicode="&#x2081;" horiz-adv-x="440" 
d="M75 0l73 528h-76l33 118h179l-90 -646h-119z" />
    <glyph glyph-name="uni2082" unicode="&#x2082;" horiz-adv-x="712" 
d="M-2 0l14 109q6 4 38 23.5t45 27.5t45 29t49 33t46.5 33.5t46.5 36.5t40.5 36.5t38 39t28 37.5t20.5 39q7 47 -22 78t-77 31q-49 0 -87 -31t-45 -78h-119q13 95 91.5 161t176.5 66q96 0 154 -65.5t45 -161.5q-18 -133 -302 -326h251l-16 -118h-461z" />
    <glyph glyph-name="uni2083" unicode="&#x2083;" horiz-adv-x="575" 
d="M183 -32q-90 0 -143.5 60t-40.5 148h118q-7 -39 17 -64.5t66 -25.5q40 0 71 25.5t37 64.5q6 48 -27.5 79.5t-100.5 31.5l14 89q62 0 96 26.5t40 69.5q5 32 -16 53t-54 21q-34 0 -60.5 -21t-30.5 -53h-119q12 81 77.5 136.5t147.5 55.5q84 0 134.5 -55.5t39.5 -136.5
q-13 -88 -77 -137q35 -34 48 -71t6 -88q-13 -88 -84 -148t-159 -60z" />
    <glyph glyph-name="uni2084" unicode="&#x2084;" horiz-adv-x="700" 
d="M265 0l18 118h-269l20 142l299 386h141l-58 -410h68l-15 -118h-69l-16 -118h-119zM150 236h156l35 248z" />
    <glyph glyph-name="uni2085" unicode="&#x2085;" horiz-adv-x="702" 
d="M215 -32q-98 0 -157 65t-45 162h118q-7 -46 22.5 -77.5t77.5 -31.5q49 0 88 31t46 78q6 47 -24 80.5t-79 33.5l-199 -19l81 349h355l-16 -109h-245l-22 -107l65 5q104 0 159.5 -67t41.5 -166q-13 -97 -91 -162t-176 -65z" />
    <glyph glyph-name="uni2086" unicode="&#x2086;" horiz-adv-x="698" 
d="M231 -32q-102 0 -160.5 67t-44.5 165q6 49 38 100.5t160 228.5q50 68 79 109h137l-149 -208q103 3 164 -65t48 -166q-14 -100 -94 -165.5t-178 -65.5zM249 86q52 0 92 35t43 86q5 50 -25.5 80.5t-76.5 30.5q-54 0 -94 -38t-45 -90q-4 -48 26.5 -76t79.5 -28z" />
    <glyph glyph-name="uni2087" unicode="&#x2087;" horiz-adv-x="660" 
d="M45 0l379 528h-328l17 118h465l-18 -116l-379 -530h-136z" />
    <glyph glyph-name="uni2088" unicode="&#x2088;" horiz-adv-x="626" 
d="M207 -32q-89 0 -143 59t-41 147q12 95 95 160q-51 58 -39 136q11 84 76.5 139.5t149.5 55.5t135 -55.5t38 -139.5q-9 -79 -76 -136q63 -63 51 -160q-13 -88 -84 -147t-162 -59zM266 388q35 0 62.5 24.5t31.5 57.5q5 34 -15.5 55.5t-56.5 21.5q-33 0 -59.5 -21.5
t-31.5 -55.5q-5 -33 15.5 -57.5t53.5 -24.5zM223 85q42 0 74.5 25t37.5 64q5 40 -20 68t-65 28q-39 0 -72 -28.5t-38 -67.5q-6 -39 18.5 -64t64.5 -25z" />
    <glyph glyph-name="uni2089" unicode="&#x2089;" horiz-adv-x="674" 
d="M96 0l150 209q-60 -6 -109.5 19t-74 68.5t-28.5 99t27 110.5q29 74 97.5 119.5t147.5 45.5q53 0 97 -20.5t70 -56.5t37 -80t-0.5 -94.5t-45.5 -97.5l-232 -322h-136zM257 319q56 0 98 44t40 101q-3 41 -33.5 65t-71.5 24q-58 0 -98.5 -41t-38.5 -96q1 -46 32.5 -71.5
t71.5 -25.5z" />
    <glyph glyph-name="Euro" unicode="&#x20ac;" horiz-adv-x="1181" 
d="M997 -15q-186 -33 -346 27t-260 193.5t-122 312.5h-215l18 126h192l21 144h-193l18 126h215q73 181 212 315.5t315.5 194t351.5 26.5l-25 -176q-197 48 -385.5 -57.5t-283.5 -302.5h323l-18 -126h-357l-20 -144h357l-18 -126h-322q41 -200 200 -302t367 -54z" />
    <glyph glyph-name="trademark" unicode="&#x2122;" horiz-adv-x="3025" 
d="M1308 1434l-25 -172h-477l-176 -1262h-172l176 1262h-475l23 172h1126zM1209 0l479 1434h132l244 -1018l529 1018h132l78 -1434h-175l-56 1040l-499 -962h-113l-228 962l-348 -1040h-175z" />
    <glyph glyph-name="oneeighth" unicode="&#x215b;" horiz-adv-x="1528" 
d="M193 838l73 528h-77l34 118h178l-90 -646h-118zM82 0l1028 1434h152l-1030 -1434h-150zM1108 -32q-89 0 -142.5 58.5t-41.5 147.5q13 95 95 160q-50 57 -38 136q11 84 76.5 139.5t149.5 55.5t134.5 -55.5t38.5 -139.5q-11 -81 -76 -136q63 -62 51 -160q-13 -88 -84 -147
t-163 -59zM1168 388q34 0 62 24.5t33 57.5q4 34 -17 55.5t-56 21.5q-34 0 -60.5 -21.5t-30.5 -55.5q-5 -33 15.5 -57.5t53.5 -24.5zM1125 85q41 0 73.5 25t38.5 64q5 40 -20 68t-66 28q-39 0 -71.5 -28t-38.5 -68q-5 -39 19.5 -64t64.5 -25z" />
    <glyph glyph-name="threeeighths" unicode="&#x215c;" horiz-adv-x="1662" 
d="M303 817q-91 0 -145 57.5t-41 146.5h117q-6 -40 18.5 -65.5t65.5 -25.5q40 0 71 25.5t37 65.5q6 48 -27 79.5t-100 31.5l12 89q62 0 97 26t41 68q5 32 -16 53.5t-55 21.5q-33 0 -59.5 -21.5t-30.5 -53.5h-119q11 82 76 134.5t149 52.5q85 0 134.5 -52.5t37.5 -134.5
q-5 -40 -26 -77t-50 -59q67 -66 54 -158q-12 -88 -82 -146t-159 -58zM216 0l1028 1434h152l-1028 -1434h-152zM1242 -32q-89 0 -142.5 58.5t-41.5 147.5q13 95 95 160q-50 57 -38 136q11 84 76.5 139.5t149.5 55.5t134.5 -55.5t38.5 -139.5q-11 -81 -76 -136q63 -62 51 -160
q-13 -88 -84 -147t-163 -59zM1303 388q34 0 61.5 24.5t32.5 57.5q4 34 -17 55.5t-56 21.5q-34 0 -60.5 -21.5t-30.5 -55.5q-5 -33 16 -57.5t54 -24.5zM1260 85q41 0 73.5 25t37.5 64q5 40 -20 68t-65 28t-72 -28t-38 -68q-5 -39 19.5 -64t64.5 -25z" />
    <glyph glyph-name="fiveeighths" unicode="&#x215d;" horiz-adv-x="1789" 
d="M335 817q-99 0 -158 63t-46 159h119q-7 -47 22 -78t78 -31t87.5 31t44.5 78q7 47 -22.5 80t-77.5 35q-88 3 -200 -22l82 352h352l-14 -107h-246l-21 -109q134 11 208 -51.5t58 -177.5q-14 -96 -91 -159t-175 -63zM343 0l1028 1434h152l-1028 -1434h-152zM1370 -32
q-89 0 -142.5 58.5t-41.5 147.5q13 97 95 160q-50 56 -39 136q12 84 77.5 139.5t148.5 55.5q85 0 135.5 -55.5t38.5 -139.5q-11 -81 -76 -136q63 -63 51 -160q-13 -88 -84.5 -147t-162.5 -59zM1431 388q34 0 61.5 24.5t31.5 57.5q5 34 -16 55.5t-56 21.5q-34 0 -60.5 -21.5
t-30.5 -55.5q-5 -32 15.5 -57t54.5 -25zM1386 85q42 0 74.5 25t37.5 64q5 40 -20 68t-65 28q-39 0 -71.5 -28t-37.5 -68q-5 -39 18.5 -64t63.5 -25z" />
    <glyph glyph-name="seveneighths" unicode="&#x215e;" horiz-adv-x="1748" 
d="M166 838l375 526h-328l17 119h465l-17 -116l-376 -529h-136zM302 0l1028 1434h152l-1028 -1434h-152zM1328 -32q-89 0 -142.5 58.5t-41.5 147.5q13 95 95 160q-50 57 -38 136q11 84 76.5 139.5t149.5 55.5t135 -55.5t39 -139.5q-11 -80 -77 -136q63 -62 51 -160
q-13 -88 -84 -147t-163 -59zM1389 388q34 0 61.5 24.5t32.5 57.5q4 34 -17 55.5t-56 21.5q-34 0 -60.5 -21.5t-30.5 -55.5q-5 -33 16 -57.5t54 -24.5zM1346 85q41 0 73.5 25t37.5 64q5 40 -20 68t-65 28t-72 -28t-38 -68q-5 -39 19.5 -64t64.5 -25z" />
    <glyph glyph-name="arrowleft" unicode="&#x2190;" horiz-adv-x="1413" 
d="M534 251l-445 517l590 517l104 -122l-353 -309h921l-25 -172h-919l264 -309z" />
    <glyph glyph-name="arrowup" unicode="&#x2191;" horiz-adv-x="1199" 
d="M433 142l129 922l-352 -310l-106 123l591 517l445 -517l-139 -123l-267 310l-129 -922h-172z" />
    <glyph glyph-name="arrowright" unicode="&#x2192;" horiz-adv-x="1414" 
d="M749 251l-105 122l352 309h-919l24 172h919l-264 309l139 122l444 -517z" />
    <glyph glyph-name="arrowdown" unicode="&#x2193;" horiz-adv-x="1198" 
d="M517 143l-442 517l137 122l266 -309l129 920h172l-129 -920l354 309l104 -122z" />
    <glyph glyph-name="arrowboth" unicode="&#x2194;" horiz-adv-x="1768" 
d="M534 251l-445 517l590 517l104 -122l-353 -309h944l-264 309l138 122l446 -517l-591 -517l-105 122l353 309h-944l264 -309z" />
    <glyph glyph-name="arrowupdn" unicode="&#x2195;" horiz-adv-x="1199" 
d="M493 -35l-445 518l139 122l267 -310l132 946l-353 -309l-103 122l589 517l445 -517l-140 -122l-266 309l-132 -946l352 310l105 -122z" />
    <glyph glyph-name="uni2196" unicode="&#x2196;" horiz-adv-x="1108" 
d="M847 296l-561 651l-62 -438h-172l103 731h731l-24 -172h-436l558 -651z" />
    <glyph glyph-name="uni2197" unicode="&#x2197;" horiz-adv-x="1107" 
d="M144 297l-103 121l740 649h-438l24 172h732l-103 -731h-172l62 438z" />
    <glyph glyph-name="uni2198" unicode="&#x2198;" horiz-adv-x="1107" 
d="M236 297l24 172h437l-559 649l138 121l561 -649l61 438h172l-103 -731h-731z" />
    <glyph glyph-name="uni2199" unicode="&#x2199;" horiz-adv-x="1107" 
d="M24 297l102 731h172l-61 -438l740 649l105 -121l-741 -649h437l-23 -172h-731z" />
    <glyph glyph-name="partialdiff" unicode="&#x2202;" horiz-adv-x="1192" 
d="M493 -27q-140 0 -249 68.5t-161.5 187t-32.5 258.5t105.5 258.5t213.5 187.5t268 69q83 0 149.5 -35t106.5 -97q-9 76 -29 145.5t-56 135t-84.5 113.5t-118.5 77t-153 29l22 172q160 0 290 -82t208.5 -220t109 -323t2.5 -387q-23 -162 -105.5 -289t-209.5 -197.5
t-276 -70.5zM516 145q144 0 257.5 101.5t134.5 240.5q20 141 -67 242t-229 101q-143 0 -256.5 -101.5t-133.5 -241.5t66.5 -241t227.5 -101z" />
    <glyph glyph-name="emptyset" unicode="&#x2205;" horiz-adv-x="1187" 
d="M236 -61l-115 71l63 87q-77 75 -112.5 183.5t-18.5 231.5q32 224 204 382.5t384 158.5q112 0 196 -45l59 82l115 -72l-63 -88q77 -75 111.5 -184t17.5 -234q-21 -146 -107 -270t-214 -196.5t-267 -72.5q-105 0 -195 46zM290 244l447 625q-66 24 -133 22t-132.5 -35.5
t-119 -83t-91 -120.5t-48.5 -148q-10 -77 11 -144.5t66 -115.5zM393 158q68 -25 136 -22.5t133.5 35.5t118.5 83t89.5 120t47.5 146q10 77 -10 146t-65 117z" />
    <glyph glyph-name="product" unicode="&#x220f;" horiz-adv-x="1310" 
d="M182 1434h1147l-23 -172h-182l-176 -1262h-172l176 1262h-442l-176 -1262h-172l176 1262h-179z" />
    <glyph glyph-name="summation" unicode="&#x2211;" horiz-adv-x="969" 
d="M-18 0l23 172l354 543l-201 542l24 173h826l-24 -173h-632l201 -542l-353 -543h631l-24 -172h-825z" />
    <glyph glyph-name="minus" unicode="&#x2212;" horiz-adv-x="1187" 
d="M55 528l25 172h1024l-25 -172h-1024z" />
    <glyph glyph-name="radical" unicode="&#x221a;" horiz-adv-x="1333" 
d="M999 1434h353l-24 -172h-233l-637 -1262h-212l-163 725h183l115 -512z" />
    <glyph glyph-name="infinity" unicode="&#x221e;" horiz-adv-x="1520" 
d="M350 297q-146 15 -222 111.5t-57 230.5q21 141 126.5 239t248.5 103q108 0 176.5 -48.5t145.5 -162.5q107 111 189.5 161t177.5 50q158 -5 235.5 -102.5t56.5 -239.5q-20 -140 -125 -237.5t-247 -104.5q-108 0 -175.5 46t-148.5 163q-114 -118 -195 -165.5t-186 -43.5z
M1075 456q76 6 131.5 59t64.5 124q11 74 -30.5 125.5t-121.5 57.5q-24 0 -44.5 -4t-45.5 -19t-38.5 -23.5t-45 -38.5t-43.5 -42t-54 -56q40 -59 60.5 -86t48.5 -53.5t55 -35t63 -8.5zM374 456q49 0 94 22.5t77 52.5t93 93q9 10 14 15q-31 47 -45.5 67t-38.5 48.5t-42 39
t-44 19t-57 8.5q-76 -7 -131.5 -59.5t-65.5 -122.5q-10 -74 32.5 -125.5t113.5 -57.5z" />
    <glyph glyph-name="integral" unicode="&#x222b;" horiz-adv-x="952" 
d="M194 -27q-96 1 -150.5 68.5t-32.5 164.5l117 -9q-9 -75 48 -81q31 -2 56 16.5t33 49.5l258 1106q20 75 93 124.5t150 47.5q92 -2 144 -72t32 -161l-107 10q3 39 -16.5 60t-51.5 19q-29 1 -52 -19t-30 -50l-256 -1101q-29 -86 -91.5 -129t-143.5 -44z" />
    <glyph glyph-name="approxequal" unicode="&#x2248;" horiz-adv-x="1275" 
d="M854 727q-58 0 -136.5 33.5t-142.5 73t-135.5 72.5t-117.5 33q-61 1 -102.5 -48t-38.5 -112l-169 -4q-8 124 90.5 226.5t229.5 102.5q56 0 128.5 -34t131 -74.5t128 -74.5t119.5 -34q63 0 104.5 48t38.5 112l168 6q10 -129 -79 -227.5t-217 -98.5zM854 166
q-58 0 -136.5 33.5t-142.5 73t-135.5 72.5t-117.5 33q-61 1 -102.5 -48t-38.5 -112l-169 -4q-8 124 90.5 226.5t229.5 102.5q56 0 128.5 -34t131 -74.5t128 -74.5t119.5 -34q63 0 104.5 48t38.5 111l168 7q10 -129 -79 -227.5t-217 -98.5z" />
    <glyph glyph-name="notequal" unicode="&#x2260;" horiz-adv-x="1187" 
d="M927 1210l-130 -299h336l-24 -172h-387l-108 -249h460l-23 -172h-510l-131 -300h-180l131 300h-334l23 172h385l109 249h-459l24 172h509l130 299h179z" />
    <glyph glyph-name="lessequal" unicode="&#x2264;" horiz-adv-x="1187" 
d="M1055 347l-984 291l40 284l1065 292l-25 -179l-931 -254l859 -255zM-18 0l23 172h1024l-23 -172h-1024z" />
    <glyph glyph-name="greaterequal" unicode="&#x2265;" horiz-adv-x="1187" 
d="M32 358l24 180l931 248l-860 249l25 179l984 -286l-40 -285zM-18 0l23 172h1024l-23 -172h-1024z" />
    <glyph glyph-name="lozenge" unicode="&#x25ca;" horiz-adv-x="945" 
d="M236 0l-175 719l373 715h278l172 -715l-375 -719h-273zM390 137l313 582l-149 581l-311 -581z" />
    <glyph glyph-name="uniFFFD" unicode="&#xfffd;" horiz-adv-x="1669" 
d="M731 -27q-119 0 -193 84l-364 424q-71 83 -55 205q16 119 112 203l484 424q97 84 216 84t191 -84l365 -424q71 -83 55 -203q-17 -123 -112 -205l-485 -424q-95 -84 -214 -84zM750 528h124v2q4 23 19 43t37 30q60 32 99.5 87t49.5 121q13 97 -45.5 166t-155.5 69
q-98 0 -176.5 -68.5t-92.5 -166.5h126q6 45 43 77t82 32q44 0 71.5 -31.5t21.5 -77.5q-5 -32 -23 -58t-44 -39q-56 -27 -92 -76.5t-44 -107.5v-2zM784 303q27 0 47.5 18.5t24.5 45.5q4 26 -12 44t-42 18q-27 0 -48 -18t-24 -44q-4 -26 12 -45t42 -19z" />
    <glyph glyph-name="uni004A0301" horiz-adv-x="845" 
d="M711 1546l123 295h172l-181 -295h-114zM202 -27q-154 0 -252 97l129 133q58 -58 146 -58q100 0 183.5 77t97.5 178l145 1034h172l-144 -1034q-25 -173 -165.5 -300t-311.5 -127z" />
    <glyph glyph-name="uni013B.loclMAH" horiz-adv-x="1039" 
d="M23 0l200 1434h172l-177 -1262h643l-24 -172h-814zM217 -452l112 347h172l-169 -347h-115z" />
    <glyph glyph-name="uni0145.loclMAH" horiz-adv-x="1319" 
d="M23 0l200 1434h187l559 -1123l156 1123h172l-200 -1434h-186l-559 1122l-157 -1122h-172zM346 -452l112 347h172l-169 -347h-115z" />
    <glyph glyph-name="i.loclTRK" 
d="M276 1191q-41 0 -64 26.5t-17 66.5q5 40 36 66.5t72 26.5q39 0 62.5 -26.5t18.5 -66.5q-6 -40 -37 -66.5t-71 -26.5zM166 1024h172l-143 -1024h-172z" />
    <glyph glyph-name="uni006A0301" horiz-adv-x="463" 
d="M271 1137l123 295h172l-179 -295h-116zM-255 -512l25 172q107 0 189 70.5t96 173.5l157 1120h172l-157 -1120q-25 -174 -164 -295t-318 -121z" />
    <glyph glyph-name="uni013C.loclMAH" 
d="M24 0l215 1536h172l-215 -1536h-172zM-103 -452l111 347h172l-169 -347h-114z" />
    <glyph glyph-name="uni0146.loclMAH" horiz-adv-x="1110" 
d="M1016 638l-88 -638h-172l83 599q16 116 -54.5 198t-186.5 82t-209 -82t-110 -198l-84 -599h-172l143 1024h172l-17 -128q65 73 154 115t184 42q113 0 201 -55.5t130 -151t26 -208.5zM262 -452l112 347h172l-169 -347h-115z" />
    <glyph glyph-name="uni030C.alt" horiz-adv-x="0" 
d="M393 1137l123 295h172l-180 -295h-115z" />
    <glyph glyph-name="uni0326.loclMAH" horiz-adv-x="0" 
d="M246 -452l111 347h172l-169 -347h-114z" />
    </font>
</defs>
</svg>
