<?xml version="1.0" standalone="no"?>
<!DOCTYPE svg PUBLIC "-//W3C//DTD SVG 1.1//EN" "http://www.w3.org/Graphics/SVG/1.1/DTD/svg11.dtd" >
<svg xmlns="http://www.w3.org/2000/svg" xmlns:xlink="http://www.w3.org/1999/xlink" version="1.1">
<metadata>
Created by FontForge 20170731 at Wed Oct 27 17:11:03 2021
 By Aleksey,,,
Copyright 2021 The Urbanist Project Authors (https://github.com/coreyhu/Urbanist)
</metadata>
<defs>
<font id="Urbanist-BoldItalic" horiz-adv-x="0" >
  <font-face 
    font-family="Urbanist"
    font-weight="700"
    font-style="italic"
    font-stretch="normal"
    units-per-em="2000"
    panose-1="0 0 0 0 0 0 0 0 0 0"
    ascent="1600"
    descent="-400"
    x-height="1000"
    cap-height="1400"
    bbox="-378 -500 2812 2081"
    underline-thickness="50"
    underline-position="-175"
    slope="-8"
    unicode-range="U+000D-FFFD"
  />
<missing-glyph horiz-adv-x="1000" 
d="M100 -500v2400h800v-2400h-800zM200 -400h600v2200h-600v-2200z" />
    <glyph glyph-name=".notdef" horiz-adv-x="1000" 
d="M100 -500v2400h800v-2400h-800zM200 -400h600v2200h-600v-2200z" />
    <glyph glyph-name=".null" horiz-adv-x="1200" 
 />
    <glyph glyph-name=".null" horiz-adv-x="1200" 
 />
    <glyph glyph-name="nonmarkingreturn" unicode="&#xd;" horiz-adv-x="1200" 
 />
    <glyph glyph-name="nonmarkingreturn" unicode="&#xfeff;" horiz-adv-x="1200" 
 />
    <glyph glyph-name="space" unicode=" " horiz-adv-x="480" 
 />
    <glyph glyph-name="exclam" unicode="!" horiz-adv-x="449" 
d="M63 420l137 980h206l-137 -980h-206zM104 -26q-53 0 -84.5 36.5t-23.5 90.5q7 52 48.5 88t94.5 36q51 0 82.5 -36t23.5 -88q-8 -54 -49 -90.5t-92 -36.5z" />
    <glyph glyph-name="quotedbl" unicode="&#x22;" horiz-adv-x="589" 
d="M90 878l73 522h167l-73 -522h-167zM382 878l73 522h167l-73 -522h-167z" />
    <glyph glyph-name="numbersign" unicode="#" horiz-adv-x="1573" 
d="M1454 878h-166l-147 -355h169l-97 -236h-167l-117 -287h-244l117 287h-369l-116 -287h-244l116 287h-167l97 236h166l147 355h-169l97 235h167l117 287h244l-117 -287h369l116 287h244l-116 -287h167zM897 523l147 355h-368l-147 -355h368z" />
    <glyph glyph-name="dollar" unicode="$" horiz-adv-x="1209" 
d="M672 1179q-71 0 -138 -22.5t-112.5 -63t-53.5 -92.5q-9 -67 23.5 -101t93.5 -50t136 -28q137 -22 249 -74t172 -138.5t42 -211.5q-16 -114 -88 -202.5t-179 -144.5t-230 -71l-29 -204h-167l29 204q-148 18 -259.5 96t-139.5 204l241 84q13 -60 90.5 -103t183.5 -43
q73 0 139.5 22.5t111.5 63t53 94.5q7 55 -29 90.5t-96.5 56.5t-127.5 32q-146 23 -257 71t-167.5 133t-38.5 220q17 114 88.5 203t179 144.5t230.5 70.5l29 205h167l-29 -205q97 -12 180.5 -51t141.5 -102.5t77 -148.5l-242 -83q-13 61 -90.5 103t-183.5 42z" />
    <glyph glyph-name="percent" unicode="%" horiz-adv-x="1508" 
d="M111 0l1004 1400h282l-1004 -1400h-282zM394 793q-83 0 -145.5 40t-94 107.5t-19.5 151.5q12 86 63.5 154t125.5 107t154 39q82 0 144.5 -40t93.5 -108t19 -152q-12 -85 -63 -153t-125 -107t-153 -39zM418 960q54 0 98 38.5t52 93.5q7 56 -26 94t-87 38q-56 0 -100.5 -38
t-52.5 -94q-7 -55 26.5 -93.5t89.5 -38.5zM1030 7q-84 0 -146 42t-92.5 110t-18.5 147q11 86 62.5 154t125.5 107.5t154 39.5q86 0 148 -41.5t91.5 -110.5t18.5 -149q-12 -82 -62 -150t-124 -108.5t-157 -40.5zM1053 174q55 0 100 39t53 93q7 56 -27 95t-89 39
q-54 0 -98.5 -39t-51.5 -95q-8 -54 25.5 -93t87.5 -39z" />
    <glyph glyph-name="ampersand" unicode="&#x26;" horiz-adv-x="1431" 
d="M408 -26q-123 0 -211.5 60t-131.5 158.5t-27 212.5q9 64 28 112t54.5 93.5t93 100t144.5 130.5q-48 55 -74 97t-33.5 84t0.5 98q13 92 67 165t132.5 114.5t164.5 41.5q88 0 155 -42.5t100 -115.5t21 -163q-8 -57 -29 -99.5t-59 -84t-100 -95.5l226 -264l288 253l-47 -345
l-93 -81l199 -232l-196 -172l-199 231q-88 -77 -150 -127t-111.5 -78.5t-99 -40t-112.5 -11.5zM550 978q49 43 75.5 65t37 38.5t14.5 43.5q6 49 -24 77.5t-68 28.5q-42 0 -78 -31t-42 -75q-6 -41 13.5 -64.5t71.5 -82.5zM443 218q46 0 80.5 16.5t80.5 57t128 112.5l-226 264
q-86 -75 -132 -116t-65.5 -71.5t-25.5 -76.5q-12 -81 37 -133.5t123 -52.5z" />
    <glyph glyph-name="quotesingle" unicode="'" horiz-adv-x="297" 
d="M90 878l73 522h167l-73 -522h-167z" />
    <glyph glyph-name="parenleft" unicode="(" horiz-adv-x="758" 
d="M300 -112q-134 152 -177.5 338t-10.5 418q10 73 37 162.5t66 183t87 177t101.5 145.5t108.5 88h244q-57 -36 -120.5 -122t-121.5 -197t-100.5 -226t-57.5 -211q-21 -157 2.5 -299t74 -259t111.5 -198h-244z" />
    <glyph glyph-name="parenright" unicode=")" horiz-adv-x="758" 
d="M-14 -112q84 81 167 198t146.5 259t86.5 299q13 96 3 211t-37.5 226t-67 197t-86.5 122h244q60 -32 101.5 -119t65 -200.5t29 -229.5t-7.5 -207q-33 -232 -128.5 -418t-271.5 -338h-244z" />
    <glyph glyph-name="asterisk" unicode="*" horiz-adv-x="724" 
d="M265 835l-122 99l120 138l-154 51l73 161l156 -53l23 169h168l-24 -169l169 53l29 -161l-170 -51l81 -138l-149 -99l-79 139z" />
    <glyph glyph-name="plus" unicode="+" horiz-adv-x="1160" 
d="M374 100l53 378h-378l34 244h378l53 378h244l-53 -378h378l-34 -244h-378l-53 -378h-244z" />
    <glyph glyph-name="comma" unicode="," horiz-adv-x="506" 
d="M-34 -112l109 338h244l-190 -338h-163z" />
    <glyph glyph-name="hyphen" unicode="-" horiz-adv-x="880" 
d="M123 722h640l-34 -244h-640z" />
    <glyph glyph-name="period" unicode="." horiz-adv-x="451" 
d="M103 -26q-52 0 -83.5 36.5t-23.5 89.5q7 51 48.5 88t94.5 37q51 0 83 -37t25 -88q-8 -53 -50 -89.5t-94 -36.5z" />
    <glyph glyph-name="slash" unicode="/" horiz-adv-x="810" 
d="M828 1400l-618 -1512h-244l618 1512h244z" />
    <glyph glyph-name="zero" unicode="0" horiz-adv-x="1209" 
d="M503 -26q-122 0 -214 56.5t-150.5 156.5t-79 231.5t0.5 281.5t78.5 281.5t144 231.5t194.5 156.5t230 56.5t214 -56.5t150 -156.5t78.5 -231.5t-0.5 -281.5t-78.5 -281.5t-143.5 -231.5t-194 -156.5t-230 -56.5zM537 218q107 0 186.5 68t129 178t67.5 236
q19 133 -1.5 242.5t-81.5 174.5t-164 65q-108 0 -187.5 -68.5t-129.5 -178.5t-67 -235q-18 -126 1.5 -236t80 -178t166.5 -68z" />
    <glyph glyph-name="one" unicode="1" horiz-adv-x="660" 
d="M158 0l162 1156h-176l100 244h354l-196 -1400h-244z" />
    <glyph glyph-name="two" unicode="2" horiz-adv-x="1143" 
d="M-18 0l30 218q72 49 171.5 121.5t205 156.5t198 169.5t153 162t68.5 132.5q13 91 -42 156.5t-146 65.5q-61 0 -115.5 -30t-91.5 -80.5t-46 -111.5h-244q19 131 97.5 237t193 167.5t240.5 61.5q128 0 224.5 -62.5t144.5 -168.5t29 -235q-16 -114 -98.5 -229.5
t-210.5 -236.5t-281 -250h497l-34 -244h-943z" />
    <glyph glyph-name="three" unicode="3" horiz-adv-x="1023" 
d="M409 -26q-127 0 -220.5 60t-139.5 161.5t-28 225.5h244q-12 -83 38 -143t140 -60q56 0 107 27.5t86.5 73.5t43.5 102q15 109 -63 163.5t-215 54.5l27 188q123 0 202 47t92 138q10 70 -35 121t-115 51q-48 0 -96 -23.5t-82 -62.5t-41 -86h-244q16 115 90.5 209
t181.5 150.5t222 56.5q113 0 201 -56t133 -150t29 -210q-12 -82 -60.5 -159.5t-124.5 -109.5q59 -23 93 -74t46 -116.5t3 -131.5q-18 -123 -94 -224.5t-187 -162t-234 -60.5z" />
    <glyph glyph-name="four" unicode="4" horiz-adv-x="1158" 
d="M578 0l47 339h-596l35 245l653 816h301l-115 -817h118l-34 -244h-118l-47 -339h-244zM347 584l312 -1l68 484z" />
    <glyph glyph-name="five" unicode="5" horiz-adv-x="1149" 
d="M448 -26q-135 0 -234.5 65.5t-148 174.5t-30.5 239h244q-13 -98 46 -166.5t157 -68.5q65 0 123 31.5t97 85t49 118.5q13 97 -41 168t-205 71h-360l247 708h688l-34 -244h-490l-76 -220l98 -1q142 -5 242 -69.5t146.5 -171.5t28.5 -241q-19 -131 -99 -240t-197.5 -174
t-250.5 -65z" />
    <glyph glyph-name="six" unicode="6" horiz-adv-x="1098" 
d="M440 -26q-134 0 -236.5 67t-154 179t-32.5 248q19 132 103 251l488 681h283l-326 -455q135 11 242 -50.5t163 -173t36 -253.5q-14 -101 -65.5 -190.5t-129 -158t-173 -107t-198.5 -38.5zM474 218q73 0 135 35.5t103 92.5t50 121q9 69 -16 126t-77 91t-122 34
q-74 0 -135 -35t-101 -92.5t-50 -123.5q-10 -71 17 -127.5t79 -89t117 -32.5z" />
    <glyph glyph-name="seven" unicode="7" horiz-adv-x="1100" 
d="M12 0l828 1156h-736l34 244h1020l-34 -244l-831 -1156h-281z" />
    <glyph glyph-name="eight" unicode="8" horiz-adv-x="1090" 
d="M442 -26q-129 0 -226 59t-145.5 158.5t-31.5 221.5q14 96 69 180.5t138 142.5q-52 53 -77.5 125.5t-13.5 155.5q15 113 87 206t178.5 148t225.5 55q120 0 210.5 -55t136 -148t29.5 -206q-11 -83 -57.5 -155.5t-112.5 -125.5q68 -58 99.5 -142.5t17.5 -180.5
q-17 -121 -93.5 -221t-190.5 -159t-243 -59zM565 852q74 0 132 48.5t68 116.5q9 68 -35.5 116.5t-117.5 48.5t-131.5 -48.5t-68.5 -116.5q-9 -68 35.5 -116.5t117.5 -48.5zM476 218q87 0 156 57t80 138t-41.5 138t-139.5 57q-85 0 -154.5 -57t-80.5 -138q-12 -81 41.5 -138
t138.5 -57z" />
    <glyph glyph-name="nine" unicode="9" horiz-adv-x="1097" 
d="M192 0l334 465q-133 -9 -238.5 52t-159.5 171t-34 249q14 101 64 189.5t127 156t171 105.5t196 38q133 0 234.5 -66t152 -177t31.5 -246q-18 -128 -102 -247l-494 -690h-282zM547 692q72 0 132 35t99 91t49 120q9 70 -17.5 125.5t-77.5 87t-114 31.5q-71 0 -132 -34.5
t-101 -90.5t-49 -119q-9 -67 15.5 -123t75.5 -89.5t120 -33.5z" />
    <glyph glyph-name="colon" unicode=":" horiz-adv-x="451" 
d="M212 749q-52 0 -83.5 36.5t-23.5 89.5q7 51 48.5 88t93.5 37t84 -37t25 -88q-8 -53 -50 -89.5t-94 -36.5zM103 -26q-52 0 -83.5 36.5t-23.5 89.5q7 51 48.5 88t94.5 37q51 0 83 -37t25 -88q-8 -53 -50 -89.5t-94 -36.5z" />
    <glyph glyph-name="semicolon" unicode=";" horiz-adv-x="509" 
d="M271 749q-53 0 -84.5 36.5t-24.5 88.5q8 52 49.5 89t94.5 37q51 0 83 -37t24 -89q-7 -52 -49 -88.5t-93 -36.5zM-34 -112l109 338h244l-190 -338h-163z" />
    <glyph glyph-name="less" unicode="&#x3c;" horiz-adv-x="1160" 
d="M998 112l-960 284l56 406l1040 286l-35 -254l-856 -234l790 -235z" />
    <glyph glyph-name="equal" unicode="=" horiz-adv-x="1160" 
d="M79 693l34 244h1000l-34 -244h-1000zM19 263l34 244h1000l-34 -244h-1000z" />
    <glyph glyph-name="greater" unicode="&#x3e;" horiz-adv-x="1160" 
d="M-2 121l36 253l855 226l-791 225l36 254l960 -277l-56 -406z" />
    <glyph glyph-name="question" unicode="?" horiz-adv-x="1108" 
d="M388 428q15 113 85.5 208.5t178.5 149.5q52 26 86.5 76.5t43.5 111.5q12 87 -41 147.5t-140 60.5q-86 0 -156 -60.5t-82 -147.5h-244q17 124 93 227t187.5 164t236.5 61t219.5 -61t141.5 -164t29 -227q-18 -128 -95.5 -236.5t-194.5 -166.5q-91 -45 -104 -143h-244z
M455 -26q-53 0 -84.5 37t-23.5 90q7 52 48.5 88t94.5 36q51 0 82.5 -36t23.5 -88q-7 -53 -48.5 -90t-92.5 -37z" />
    <glyph glyph-name="at" unicode="@" horiz-adv-x="1834" 
d="M783 -251q-173 0 -316.5 59.5t-243.5 167.5t-144 254.5t-20 319.5q24 174 110.5 326t218 267t292.5 180t334 65q175 0 317.5 -65.5t241 -181t142 -267t18.5 -324.5q-13 -95 -49.5 -187t-92.5 -165.5t-128 -117.5t-158 -44q-62 0 -121 27t-99 72.5t-43 99.5
q-44 -39 -101 -61t-123 -22q-110 0 -192.5 54t-123.5 144.5t-25 199.5q15 110 81.5 200.5t164 144t207.5 53.5q60 0 121.5 -19.5t92.5 -52.5l8 51l177 -38l-74 -527q-5 -37 14 -59.5t55 -22.5q45 0 79.5 46.5t56.5 110t29 113.5q18 124 -13.5 231.5t-102 189t-171.5 127.5
t-223 46t-235.5 -46t-207 -127.5t-155 -189t-78.5 -231.5q-23 -164 39 -289.5t187 -196.5t289 -71zM864 334q59 0 110 31t84.5 81.5t41.5 108.5q12 86 -36 148.5t-140 62.5q-60 0 -113 -29t-89 -78t-44 -109q-13 -89 42 -152.5t144 -63.5z" />
    <glyph glyph-name="A" unicode="A" horiz-adv-x="1458" 
d="M686 1400h281l313 -1400h-259l-56 248h-599l-125 -248h-259zM490 492h420l-130 577z" />
    <glyph glyph-name="B" unicode="B" horiz-adv-x="1174" 
d="M22 0l196 1400h510q111 0 194 -45.5t124 -130t25 -199.5q-10 -77 -55 -152.5t-123 -105.5q63 -16 98.5 -58t50 -98t15 -115t-6.5 -109q-15 -111 -82.5 -198.5t-167 -138t-211.5 -50.5h-567zM387 858h238q73 0 132 46t70 123q11 80 -36 121.5t-120 41.5h-238zM295 209h298
q89 0 161 64t85 161q8 56 -14 106t-66.5 81t-103.5 31h-298z" />
    <glyph glyph-name="C" unicode="C" horiz-adv-x="1418" 
d="M666 -26q-142 0 -259 56.5t-197.5 156.5t-115.5 231.5t-14 281.5q21 151 93 282.5t180.5 231t241.5 156t275 56.5q170 0 301.5 -79t208.5 -209l-235 -117q-49 73 -130 117t-179 44q-123 0 -233 -65.5t-185.5 -175t-93.5 -241.5q-19 -133 25.5 -242t136.5 -174.5
t214 -65.5q100 0 192.5 44.5t163.5 117.5l200 -118q-112 -131 -266 -209.5t-324 -78.5z" />
    <glyph glyph-name="D" unicode="D" horiz-adv-x="1344" 
d="M22 0l196 1400h464q145 0 264 -54.5t202 -151t119.5 -223t16.5 -271.5q-21 -145 -93 -271.5t-181.5 -223t-244 -151t-279.5 -54.5h-464zM300 244h220q124 0 236 61.5t189 165t95 229.5q17 126 -30.5 229.5t-142.5 165t-220 61.5h-219z" />
    <glyph glyph-name="E" unicode="E" horiz-adv-x="1098" 
d="M22 0l196 1400h878l-34 -244h-634l-40 -284h503l-34 -244h-503l-54 -384h634l-34 -244h-878z" />
    <glyph glyph-name="F" unicode="F" horiz-adv-x="967" 
d="M22 0l196 1400h827l-34 -244h-583l-40 -284h487l-34 -244h-487l-88 -628h-244z" />
    <glyph glyph-name="G" unicode="G" horiz-adv-x="1537" 
d="M666 -26q-146 0 -263 57t-196.5 157.5t-113.5 232t-13 281.5q22 158 97.5 290t186.5 229t243 150t268 53q151 0 283.5 -70.5t221.5 -217.5l-235 -117q-56 82 -136.5 122.5t-170.5 40.5q-118 0 -228.5 -63t-188.5 -172.5t-98 -249.5q-18 -133 27 -241.5t137.5 -173
t216.5 -64.5q125 0 244 76t193 210h-254l30 213h542q-18 -152 -89 -286.5t-180 -237.5t-243.5 -161t-280.5 -58z" />
    <glyph glyph-name="H" unicode="H" horiz-adv-x="1308" 
d="M1042 1400h244l-196 -1400h-244l88 628h-580l-88 -628h-244l196 1400h244l-74 -528h579z" />
    <glyph glyph-name="I" unicode="I" horiz-adv-x="544" 
d="M52 0l196 1400h244l-196 -1400h-244z" />
    <glyph glyph-name="J" unicode="J" horiz-adv-x="888" 
d="M222 -26q-78 0 -147.5 26t-122.5 77l183 188q19 -19 49 -33t72 -14q55 0 104.5 28.5t83 75t41.5 101.5l137 977h244l-137 -977q-17 -123 -91.5 -225t-184 -163t-231.5 -61z" />
    <glyph glyph-name="K" unicode="K" horiz-adv-x="1173" 
d="M1045 0h-318l-316 549l-80 -81l-65 -468h-244l196 1400h244l-78 -553l541 553h319l-647 -660z" />
    <glyph glyph-name="L" unicode="L" horiz-adv-x="1047" 
d="M22 0l196 1400h244l-162 -1156h583l-34 -244h-827z" />
    <glyph glyph-name="M" unicode="M" horiz-adv-x="1870" 
d="M22 0l468 1400h202l215 -897l467 897h202l76 -1400h-249l-46 866l-433 -834h-166l-199 834l-288 -866h-249z" />
    <glyph glyph-name="N" unicode="N" horiz-adv-x="1339" 
d="M22 0l196 1400h264l457 -959l134 959h244l-196 -1400h-263l-458 959l-134 -959h-244z" />
    <glyph glyph-name="O" unicode="O" horiz-adv-x="1540" 
d="M668 -26q-142 0 -259.5 56.5t-198 156.5t-116 231.5t-14.5 281.5t93 281.5t181.5 231.5t242.5 156.5t275 56.5q143 0 260 -56.5t197.5 -156.5t116 -231.5t14.5 -281.5t-93 -281.5t-181.5 -231.5t-242 -156.5t-275.5 -56.5zM702 218q123 0 233.5 65.5t186 175t94.5 241.5
t-26 241.5t-137 175t-215 65.5t-233.5 -65.5t-186 -175t-94.5 -241.5t26 -241.5t137 -175t215 -65.5z" />
    <glyph glyph-name="P" unicode="P" horiz-adv-x="1107" 
d="M22 0l196 1400h500q114 0 198.5 -57t125.5 -153t24 -211q-16 -118 -85.5 -213.5t-170 -152t-210.5 -56.5h-256l-78 -557h-244zM378 801h230q78 0 142 56.5t74 137.5q12 82 -36 138.5t-126 56.5h-229z" />
    <glyph glyph-name="Q" unicode="Q" horiz-adv-x="1573" 
d="M1215 -42l-134 154q-91 -62 -196.5 -97t-215.5 -35q-143 0 -260 56.5t-198 156t-116 231.5t-14 282t93 281.5t181 231.5t242 156.5t276 56.5q142 0 259 -56.5t198 -156.5t116 -231.5t14 -281.5q-16 -117 -64.5 -222.5t-120.5 -194.5l137 -159zM703 224q119 0 226 67
l-109 127l197 173l102 -120q80 107 97 235q19 133 -26 242.5t-137 174.5t-214 65q-123 0 -233.5 -65.5t-186.5 -175t-94 -241.5q-19 -133 26 -242.5t137.5 -174.5t214.5 -65z" />
    <glyph glyph-name="R" unicode="R" horiz-adv-x="1213" 
d="M22 0l196 1400h537q114 0 198 -57t124.5 -152.5t24.5 -211.5q-20 -142 -111 -249t-218 -151l255 -579h-281l-246 557h-157l-78 -557h-244zM378 801h265q78 0 142 56.5t75 137.5q12 82 -36 138.5t-126 56.5h-265z" />
    <glyph glyph-name="S" unicode="S" horiz-adv-x="1249" 
d="M522 -26q-116 0 -217.5 36.5t-172 105t-91.5 164.5l241 84q13 -60 90.5 -103t183.5 -43q73 0 139.5 22.5t111.5 63t53 94.5q7 55 -29 90.5t-96.5 56.5t-127.5 32q-146 23 -257 71t-167.5 133t-38.5 220q18 127 104.5 222.5t213 148t264.5 52.5q115 0 216.5 -36.5
t172.5 -105t93 -165.5l-242 -83q-13 61 -90.5 103t-183.5 42q-71 0 -138 -22.5t-112.5 -63t-53.5 -92.5q-9 -67 23.5 -101t93.5 -50t136 -28q137 -22 249 -74t172 -138.5t42 -211.5q-18 -128 -103.5 -223t-212 -148t-266.5 -53z" />
    <glyph glyph-name="T" unicode="T" horiz-adv-x="1260" 
d="M1278 1400l-35 -244h-428l-161 -1156h-244l161 1156h-427l34 244h1100z" />
    <glyph glyph-name="U" unicode="U" horiz-adv-x="1360" 
d="M579 -26q-168 0 -283 82t-165.5 220.5t-26.5 307.5l114 816h244l-114 -816q-14 -100 11.5 -183.5t89 -133t164.5 -49.5q102 0 179 49.5t125.5 132.5t62.5 184l114 816h244l-114 -816q-24 -169 -113.5 -307.5t-226.5 -220.5t-305 -82z" />
    <glyph glyph-name="V" unicode="V" horiz-adv-x="1491" 
d="M491 0l-312 1400h259l249 -1115l562 1115h258l-704 -1400h-312z" />
    <glyph glyph-name="W" unicode="W" horiz-adv-x="1865" 
d="M341 0l-162 1400h252l110 -957l378 957h223l110 -957l377 957h252l-552 -1400h-277l-98 848l-335 -848h-278z" />
    <glyph glyph-name="X" unicode="X" horiz-adv-x="1447" 
d="M-38 0l611 704l-409 696h301l288 -490l425 490h301l-603 -696l413 -704h-303l-291 496l-430 -496h-303z" />
    <glyph glyph-name="Y" unicode="Y" horiz-adv-x="1326" 
d="M1076 1400h288l-589 -769l-88 -631h-244l88 631l-373 769h288l244 -503z" />
    <glyph glyph-name="Z" unicode="Z" horiz-adv-x="1292" 
d="M-18 0l34 244l930 912h-802l34 244h1132l-34 -244l-930 -912h802l-34 -244h-1132z" />
    <glyph glyph-name="bracketleft" unicode="[" horiz-adv-x="641" 
d="M461 132l-34 -244h-421l212 1512h421l-34 -244h-177l-144 -1024h177z" />
    <glyph glyph-name="backslash" unicode="\" horiz-adv-x="808" 
d="M370 -112l-192 1512h244l192 -1512h-244z" />
    <glyph glyph-name="bracketright" unicode="]" horiz-adv-x="642" 
d="M-14 -112l34 244h179l143 1024h-178l34 244h422l-212 -1512h-422z" />
    <glyph glyph-name="asciicircum" unicode="^" horiz-adv-x="959" 
d="M122 1000l328 650h327l144 -650h-261l-85 384l-193 -384h-260z" />
    <glyph glyph-name="underscore" unicode="_" horiz-adv-x="1240" 
d="M40 132h1000l-34 -244h-1000z" />
    <glyph glyph-name="grave" unicode="`" horiz-adv-x="1031" 
d="M390 1398h244l40 -288h-163z" />
    <glyph glyph-name="a" unicode="a" horiz-adv-x="1198" 
d="M916 1000h244l-140 -1000h-244l6 124q-51 -68 -124 -109t-165 -41q-148 0 -259.5 72.5t-166.5 194.5t-33 270q14 107 67 200.5t133.5 165t179.5 111.5t206 40q100 0 172 -44t118 -112zM520 209q77 0 142.5 39t109.5 105t55 147t-14 147t-79.5 105.5t-131.5 39.5
q-78 0 -147 -39.5t-115.5 -105.5t-57.5 -147t17.5 -147t86.5 -105t134 -39z" />
    <glyph glyph-name="b" unicode="b" horiz-adv-x="1241" 
d="M699 1028q146 0 256 -71t164.5 -190.5t33.5 -264.5q-15 -110 -69.5 -205.5t-137 -168t-184 -113.5t-211.5 -41q-95 0 -161.5 42.5t-104.5 110.5l-18 -127h-244l210 1500h244l-88 -625q58 68 136.5 110.5t173.5 42.5zM582 210q77 0 146.5 39.5t116.5 105.5t58 147
q11 80 -17.5 146.5t-86.5 105.5t-135 39t-142.5 -39.5t-109 -106t-54.5 -145.5q-11 -81 14 -147t79 -105.5t131 -39.5z" />
    <glyph glyph-name="c" unicode="c" horiz-adv-x="1020" 
d="M685 301l202 -119q-83 -94 -194.5 -151t-234.5 -57q-138 0 -241.5 71t-154 190.5t-30.5 264.5q15 110 67.5 205.5t131.5 168t175.5 113.5t199.5 41q123 0 219 -57t152 -153l-237 -118q-62 84 -168 84q-73 0 -136.5 -39.5t-106 -104t-53.5 -140.5q-11 -75 14 -139.5
t77.5 -103.5t124.5 -39q52 0 102.5 22.5t90.5 60.5z" />
    <glyph glyph-name="d" unicode="d" horiz-adv-x="1240" 
d="M988 1500h244l-210 -1500h-244l18 125q-58 -67 -137 -109t-175 -42q-145 0 -254.5 71t-163.5 190.5t-34 264.5q15 109 69.5 204.5t137 167.5t183.5 113t210 41q96 0 163 -41.5t106 -109.5zM520 209q77 0 142.5 39t109.5 105t55 147t-14 147t-79.5 105.5t-131.5 39.5
q-78 0 -147 -39.5t-115.5 -105.5t-57.5 -147t17.5 -147t86.5 -105t134 -39z" />
    <glyph glyph-name="e" unicode="e" horiz-adv-x="1119" 
d="M458 -26q-138 0 -241.5 71t-154 190.5t-30.5 265.5q15 109 67.5 204.5t131.5 168t175.5 113.5t199.5 41q117 0 207.5 -49.5t146.5 -135t71.5 -195.5t-18.5 -231h-730q8 -84 61.5 -141t147.5 -58q63 0 120.5 31t99.5 85l241 -58q-80 -133 -212.5 -217.5t-282.5 -84.5z
M300 600h492q-5 90 -65 152.5t-150 62.5q-91 0 -168 -62t-109 -153z" />
    <glyph glyph-name="f" unicode="f" horiz-adv-x="729" 
d="M475 1210l-30 -210h273l-34 -244h-273l-106 -756h-244l106 756h-109l34 244h109l30 210q12 86 64.5 157.5t130.5 114t165 42.5q63 0 121 -26t98 -80l-199 -172q-14 34 -54 34q-30 0 -54 -20.5t-28 -49.5z" />
    <glyph glyph-name="g" unicode="g" horiz-adv-x="1226" 
d="M904 1000h244l-143 -1019q-15 -108 -71.5 -196.5t-141.5 -152t-188 -98t-211 -34.5q-106 0 -196.5 43t-154.5 117.5t-90 169.5l238 101q18 -83 85.5 -134t152.5 -51q77 0 149.5 28t123 80.5t60.5 126.5l20 141q-57 -66 -133.5 -107t-169.5 -41q-143 0 -251.5 71
t-161.5 190.5t-33 264.5q15 109 69 204.5t136 167.5t181.5 113t207.5 41q93 0 158 -40.5t104 -106.5zM514 209q76 0 141 39.5t108.5 106t55.5 145.5q11 80 -14 146.5t-79 106t-130 39.5t-143.5 -39.5t-113.5 -105.5t-57 -147t16.5 -147t84 -105t131.5 -39z" />
    <glyph glyph-name="h" unicode="h" horiz-adv-x="1116" 
d="M1027 632l-88 -632h-244l79 568q12 88 -42 150.5t-142 62.5q-59 0 -111.5 -28.5t-87.5 -77t-44 -107.5l-79 -568h-244l209 1500h244l-82 -589q59 54 134.5 85.5t157.5 31.5q109 0 191.5 -53.5t123 -143.5t25.5 -199z" />
    <glyph glyph-name="i" unicode="i" horiz-adv-x="484" 
d="M162 1000h244l-140 -1000h-244zM304 1129q-54 0 -86 35.5t-24 89.5q8 53 49.5 89t95.5 36q52 0 83.5 -36t24.5 -89q-8 -54 -49 -89.5t-94 -35.5z" />
    <glyph glyph-name="j" unicode="j" horiz-adv-x="487" 
d="M-249 -500l35 244q85 0 152 58t79 142l148 1056h244l-148 -1056q-17 -122 -91 -223t-184 -161t-235 -60zM307 1129q-54 0 -86 35.5t-24 89.5q8 53 49.5 89t95.5 36q52 0 83.5 -36t24.5 -89q-8 -54 -49 -89.5t-94 -35.5z" />
    <glyph glyph-name="k" unicode="k" horiz-adv-x="1071" 
d="M916 0h-281l-173 393l-164 -167l-31 -226h-244l210 1500h244l-126 -895l387 395h319l-400 -409z" />
    <glyph glyph-name="l" unicode="l" horiz-adv-x="485" 
d="M23 0l210 1500h244l-210 -1500h-244z" />
    <glyph glyph-name="m" unicode="m" horiz-adv-x="1777" 
d="M22 0l140 1000h244l-12 -89q59 54 134 85.5t157 31.5q104 0 184.5 -49t121.5 -131q64 82 158 131t198 49q109 0 191.5 -53.5t123.5 -143.5t25 -199l-88 -632h-244l80 567q12 87 -41.5 150.5t-140.5 63.5q-88 0 -158 -62t-83 -152l-80 -567h-244l80 567q13 90 -40.5 152
t-141.5 62q-58 0 -110 -29.5t-87 -78t-43 -106.5l-80 -567h-244z" />
    <glyph glyph-name="n" unicode="n" horiz-adv-x="1115" 
d="M1026 632l-88 -632h-244l79 568q12 88 -42 150.5t-142 62.5q-59 0 -111.5 -28.5t-87.5 -77t-44 -107.5l-79 -568h-244l139 1000h244l-12 -89q59 54 134.5 85.5t157.5 31.5q109 0 191.5 -53.5t123 -143.5t25.5 -199z" />
    <glyph glyph-name="o" unicode="o" horiz-adv-x="1120" 
d="M458 -26q-138 0 -241.5 71t-154 190.5t-30.5 264.5q15 110 67.5 205.5t131.5 168t175.5 113.5t199.5 41q138 0 241.5 -71t154.5 -191t30 -266q-15 -109 -67.5 -204t-131.5 -167.5t-175 -113.5t-200 -41zM492 218q73 0 136.5 39t106 103t53.5 140q11 78 -14.5 142.5
t-78.5 103t-123 38.5q-72 0 -135.5 -39t-106.5 -104t-54 -141q-11 -79 15 -143t79 -101.5t122 -37.5z" />
    <glyph glyph-name="p" unicode="p" horiz-adv-x="1238" 
d="M195 -500h-244l211 1500h244l-18 -127q58 68 136 110.5t174 42.5q146 0 255.5 -71t163.5 -190.5t33 -264.5q-15 -109 -69 -205t-136.5 -168.5t-183.5 -113.5t-211 -41q-96 0 -162 42.5t-104 110.5zM662 791q-77 0 -142 -39.5t-108.5 -105.5t-54.5 -146q-12 -81 13 -147
t79 -105.5t131 -39.5q76 0 145.5 39t117 105.5t59.5 147.5q11 80 -17.5 146t-87 105.5t-135.5 39.5z" />
    <glyph glyph-name="q" unicode="q" horiz-adv-x="1238" 
d="M484 -28q-145 0 -254.5 71t-163.5 191t-34 266q15 109 69.5 204t137 167.5t183.5 113.5t210 41q96 0 162 -42.5t105 -110.5l17 127h244l-211 -1500h-244l89 625q-58 -68 -136 -110.5t-174 -42.5zM602 791q-78 0 -147 -39.5t-115.5 -105.5t-57.5 -146q-11 -81 17 -147.5
t86 -105.5t135 -39t142.5 39.5t108.5 105.5t55 147q11 80 -14 146t-79 105.5t-131 39.5z" />
    <glyph glyph-name="r" unicode="r" horiz-adv-x="770" 
d="M23 0l139 1000h244l-12 -89q59 54 134.5 85.5t157.5 31.5q54 0 108 -16l-131 -246q-35 15 -74 15q-59 0 -111.5 -28.5t-87.5 -77t-44 -107.5l-79 -568h-244z" />
    <glyph glyph-name="s" unicode="s" horiz-adv-x="869" 
d="M314 -18q-116 8 -210 63t-125 151l219 88q13 -31 59 -63t113 -32q57 0 107 24t58 76q5 37 -18 57.5t-59.5 31t-72.5 19.5q-92 19 -168 59t-116.5 103.5t-27.5 153.5q14 99 76 171t152.5 111t188.5 39q119 0 211.5 -50t137.5 -139l-209 -114q-16 36 -57 63.5t-92 30.5
q-68 4 -119 -21.5t-60 -84.5q-5 -38 22 -56.5t68 -28.5t79 -22q83 -29 154.5 -71t110.5 -103t25 -146q-14 -97 -82 -169.5t-165.5 -110.5t-199.5 -30z" />
    <glyph glyph-name="t" unicode="t" horiz-adv-x="716" 
d="M664 756h-194l-106 -756h-244l106 756h-148l34 244h148l44 314h244l-44 -314h194z" />
    <glyph glyph-name="u" unicode="u" horiz-adv-x="1075" 
d="M34 370l88 630h244l-80 -566q-12 -88 42 -150.5t142 -62.5q59 0 111.5 28.5t88 77t43.5 107.5l80 566h244l-139 -1000h-244l11 91q-59 -54 -134.5 -85.5t-156.5 -31.5q-109 0 -191.5 53.5t-123.5 143.5t-25 199z" />
    <glyph glyph-name="v" unicode="v" horiz-adv-x="1164" 
d="M641 0h-315l-224 1001h261l160 -720l362 720h261z" />
    <glyph glyph-name="w" unicode="w" horiz-adv-x="1705" 
d="M538 0h-242l-194 1000h239l127 -647l306 647h241l125 -647l308 647h239l-474 -1000h-242l-125 650z" />
    <glyph glyph-name="x" unicode="x" horiz-adv-x="1193" 
d="M-18 0l436 502l-293 499h301l171 -291l254 291h301l-433 -499l296 -502h-301l-175 296l-256 -296h-301z" />
    <glyph glyph-name="y" unicode="y" horiz-adv-x="1145" 
d="M848 1000h259l-758 -1500h-259l252 500l-220 1000h267l121 -666z" />
    <glyph glyph-name="z" unicode="z" horiz-adv-x="1014" 
d="M942 756l-575 -512h503l-34 -244h-854l34 244l575 512h-503l34 244h854z" />
    <glyph glyph-name="braceleft" unicode="{" horiz-adv-x="821" 
d="M499 -112q-97 0 -170 47t-109 126.5t-22 176.5l34 244q3 27 -16 44.5t-45 32t-44.5 34t-14.5 51.5q4 29 28.5 49t54.5 36t54.5 33.5t28.5 41.5l34 246q13 96 71.5 175.5t144.5 127t183 47.5h108l-34 -244h-108q-44 0 -79.5 -31t-41.5 -75l-36 -254q-7 -34 -28.5 -57.5
t-46 -45t-42.5 -49.5q10 -31 29 -52t34 -43.5t12 -56.5l-36 -254q-6 -44 20.5 -75t70.5 -31h108l-34 -244h-108z" />
    <glyph glyph-name="bar" unicode="|" horiz-adv-x="524" 
d="M238 1400h244l-239 -1702h-244z" />
    <glyph glyph-name="braceright" unicode="}" horiz-adv-x="821" 
d="M-14 -112l34 244h108q44 0 79 31t42 75l35 254q7 34 28.5 56.5t46.5 43.5t42 52q-8 28 -27.5 49.5t-34.5 45t-12 57.5l36 254q6 44 -21 75t-70 31h-108l34 244h108q97 0 169.5 -47.5t108.5 -127t23 -175.5l-34 -246q-3 -24 16 -41.5t45 -33.5t44.5 -36t14.5 -49
q-5 -32 -29 -51.5t-54.5 -34t-54.5 -32t-28 -44.5l-34 -244q-14 -97 -72 -176.5t-144 -126.5t-183 -47h-108z" />
    <glyph glyph-name="asciitilde" unicode="~" horiz-adv-x="1305" 
d="M919 398q-65 0 -137 26.5t-143 61t-135.5 61t-116.5 26.5q-48 0 -72.5 -36t-25.5 -80l-239 3q-2 88 46 166.5t127.5 127t171.5 48.5q65 0 129 -27.5t126.5 -63t121.5 -63t113 -27.5q48 0 74 35t28 82l238 -2q2 -89 -37 -166.5t-108.5 -124.5t-160.5 -47z" />
    <glyph glyph-name="uni00A0" unicode="&#xa0;" horiz-adv-x="480" 
 />
    <glyph glyph-name="exclamdown" unicode="&#xa1;" horiz-adv-x="440" 
d="M250 1026q53 0 84 -36.5t23 -90.5q-7 -52 -48.5 -88t-93.5 -36t-83 36t-24 88q8 54 49 90.5t93 36.5zM290 580l-138 -980h-205l138 980h205z" />
    <glyph glyph-name="cent" unicode="&#xa2;" horiz-adv-x="1092" 
d="M399 0l29 206q-115 21 -199.5 91t-125 175t-23.5 230q18 124 88 229t174 175t225 90l28 204h168l-29 -204q108 -18 189.5 -80t125.5 -154l-228 -122q-28 55 -82.5 87.5t-119.5 32.5q-71 0 -134.5 -35t-107 -93.5t-53.5 -129.5q-10 -72 17.5 -131t81 -94t123.5 -35
q65 0 128.5 32.5t106.5 87.5l194 -122q-69 -92 -168 -154t-211 -80l-29 -206h-168z" />
    <glyph glyph-name="sterling" unicode="&#xa3;" horiz-adv-x="1195" 
d="M6 0l34 244q51 0 105.5 13t99.5 37.5t68 59t10 78.5q-1 7 -3 14h-252l24 167h128q-48 61 -86 131.5t-25 164.5q15 107 69 200.5t135 164.5t180 111.5t206 40.5q142 0 250 -70t162 -187t34 -260h-244q11 75 -17.5 137t-86 99t-132.5 37t-142 -37t-113 -99t-57 -137
q-10 -70 10 -120.5t55 -91.5t69 -84h375l-24 -167h-270q5 -41 -1 -88q-5 -36 -26.5 -68.5t-39.5 -45.5h530l-34 -244h-991z" />
    <glyph glyph-name="currency" unicode="&#xa4;" horiz-adv-x="1027" 
d="M137 267l-102 118l148 130q-41 84 -26.5 184.5t80.5 185.5l-112 132l135 116l111 -129q90 52 192.5 52.5t179.5 -50.5l148 127l100 -116l-145 -129q43 -85 29 -188t-81 -189l108 -126l-134 -118l-108 125q-96 -53 -196.5 -53t-179.5 55zM489 506q79 1 142.5 56.5
t75.5 136.5q12 84 -38 136.5t-126 54.5q-83 1 -146 -57.5t-73 -133.5q-12 -81 37 -137.5t128 -55.5z" />
    <glyph glyph-name="yen" unicode="&#xa5;" horiz-adv-x="1335" 
d="M448 0l20 148h-242l23 167h242l14 99h-242l24 167h242l7 50l-373 769h287l245 -503l386 503h287l-588 -769l-7 -50h242l-24 -167h-242l-14 -99h242l-23 -167h-242l-20 -148h-244z" />
    <glyph glyph-name="brokenbar" unicode="&#xa6;" horiz-adv-x="484" 
d="M218 1400h244l-105 -750h-244zM85 448h244l-106 -750h-244z" />
    <glyph glyph-name="section" unicode="&#xa7;" horiz-adv-x="1102" 
d="M393 -372q-119 0 -211.5 50t-138.5 139l209 114q16 -35 57 -63t92 -31q68 -4 119.5 21.5t59.5 84.5q6 38 -20.5 59t-67.5 31.5t-80 17.5q-108 15 -185.5 80t-114 162t-20.5 207q15 110 79.5 204.5t155.5 149.5q-109 66 -91 197q14 99 76.5 171t153 111t187.5 39
q119 0 211.5 -50t138.5 -139l-210 -114q-15 35 -56 63t-93 31q-68 4 -119 -21.5t-59 -84.5q-6 -37 19 -57t64.5 -30.5t79.5 -18.5q168 -33 259 -152.5t66 -298.5q-16 -111 -80.5 -204.5t-156.5 -148.5q110 -68 93 -198q-14 -99 -76.5 -171t-153 -111t-187.5 -39zM501 268
q55 0 106.5 33t87.5 85.5t44 111.5q15 106 -42 170t-158 64q-52 0 -102 -34t-86 -87t-44 -111q-14 -98 41 -165t153 -67z" />
    <glyph glyph-name="dieresis" unicode="&#xa8;" horiz-adv-x="1450" 
d="M580 1070q-54 0 -86 35.5t-24 89.5q7 53 49 89.5t96 36.5q52 0 83.5 -36.5t24.5 -89.5q-8 -54 -49.5 -89.5t-93.5 -35.5zM976 1070q-54 0 -86 35.5t-25 89.5q8 53 50 89.5t96 36.5q52 0 84 -36.5t24 -89.5q-8 -54 -49.5 -89.5t-93.5 -35.5z" />
    <glyph glyph-name="copyright" unicode="&#xa9;" horiz-adv-x="1906" 
d="M809 -319q-181 0 -329.5 67.5t-251.5 187.5t-148.5 278.5t-19.5 339.5q25 181 115 339t226.5 278t304 187.5t348.5 67.5t330 -67.5t252.5 -187t149.5 -278t20 -339.5q-25 -181 -115.5 -339.5t-227.5 -278.5t-305 -187.5t-349 -67.5zM843 -75q133 0 255 50t220 137
t162 200.5t82 241.5q18 129 -14.5 243t-107 200.5t-182 135.5t-238.5 49q-132 0 -253.5 -50t-219.5 -137t-161.5 -200.5t-81.5 -240.5q-19 -134 14.5 -248t109 -200t182 -133.5t233.5 -47.5zM1080 355l202 -119q-82 -95 -194 -151.5t-235 -56.5q-138 0 -241.5 71t-154 190.5
t-30.5 264.5q16 109 68 205t131 168.5t175.5 113.5t199.5 41q123 0 219.5 -57t151.5 -153l-237 -119q-62 85 -168 85q-73 0 -136 -39.5t-106 -104.5t-54 -140q-11 -76 14 -140t77.5 -103t124.5 -39q52 0 102.5 22.5t90.5 60.5z" />
    <glyph glyph-name="ordfeminine" unicode="&#xaa;" horiz-adv-x="1198" 
d="M916 1000h244l-140 -1000h-244l6 124q-51 -68 -124 -109t-165 -41q-148 0 -259.5 72.5t-166.5 194.5t-33 270q14 107 67 200.5t133.5 165t179.5 111.5t206 40q100 0 172 -44t118 -112zM520 209q77 0 142.5 39t109.5 105t55 147t-14 147t-79.5 105.5t-131.5 39.5
q-78 0 -147 -39.5t-115.5 -105.5t-57.5 -147t17.5 -147t86.5 -105t134 -39z" />
    <glyph glyph-name="guillemotleft" unicode="&#xab;" horiz-adv-x="1176" 
d="M358 261l-252 340l348 338h249l-347 -338l251 -340h-249zM765 261l-252 340l348 338h249l-347 -338l251 -340h-249z" />
    <glyph glyph-name="logicalnot" unicode="&#xac;" horiz-adv-x="1023" 
d="M641 289l53 378h-619l35 244h863l-88 -622h-244z" />
    <glyph glyph-name="uni00AD" unicode="&#xad;" horiz-adv-x="889" 
d="M132 722h640l-34 -244h-640z" />
    <glyph glyph-name="registered" unicode="&#xae;" horiz-adv-x="1124" 
d="M519 399q-139 0 -243 68t-155.5 182t-32.5 253q15 103 66.5 194t130.5 160t175.5 108t199.5 39q142 0 246 -69t154.5 -183.5t31.5 -248.5q-14 -105 -66.5 -196.5t-131.5 -160.5t-175.5 -107.5t-199.5 -38.5zM543 574q91 0 172 44t135.5 118.5t66.5 165.5q13 90 -20.5 164
t-102 118t-159.5 44q-90 0 -170 -44t-134.5 -118t-67.5 -164q-12 -91 21.5 -165.5t101 -118.5t157.5 -44zM424 702l60 426h166q54 0 85.5 -39.5t24.5 -95.5q-13 -84 -87 -118l76 -173h-113l-70 157h-21l-22 -157h-99zM558 957h68q29 0 35 36q4 36 -25 36h-67z" />
    <glyph glyph-name="macron" unicode="&#xaf;" horiz-adv-x="1200" 
d="M350 1327h676l-26 -183h-676z" />
    <glyph glyph-name="degree" unicode="&#xb0;" horiz-adv-x="914" 
d="M458 704q-106 0 -184.5 52.5t-116.5 138t-24 185.5q14 102 77 187.5t156 137t198 51.5q107 0 184.5 -52.5t115 -138t23.5 -185.5q-15 -107 -78.5 -192t-156 -134.5t-194.5 -49.5zM493 948q54 0 98 38.5t52 93.5q8 56 -25.5 94t-87.5 38q-56 0 -100.5 -38t-52.5 -94
q-7 -55 26.5 -93.5t89.5 -38.5z" />
    <glyph glyph-name="plusminus" unicode="&#xb1;" horiz-adv-x="1160" 
d="M413 377l53 378h-378l34 244h378l53 378h244l-53 -378h378l-34 -244h-378l-53 -378h-244zM-18 0l34 244h1000l-34 -244h-1000z" />
    <glyph glyph-name="uni00B2" unicode="&#xb2;" horiz-adv-x="714" 
d="M113 818l18 129q60 38 132 81t136 95.5t101 118.5q5 38 -17.5 64t-59.5 26q-38 0 -69 -26t-36 -64h-146q9 65 48.5 116t98 80.5t123.5 29.5q98 0 157.5 -64t46.5 -162q-8 -54 -47 -103t-94 -93t-108 -82h200l-19 -146h-465z" />
    <glyph glyph-name="uni00B3" unicode="&#xb3;" horiz-adv-x="577" 
d="M303 798q-89 0 -145 58t-43 148h146q-5 -30 13 -50t49 -20q28 0 51.5 20t27.5 50q5 36 -22 65.5t-87 29.5l13 97q60 0 86.5 25.5t30.5 55.5q3 23 -12 38.5t-38 15.5q-22 0 -41.5 -15.5t-22.5 -38.5h-146q12 83 79 137t150 54q85 0 136.5 -54t39.5 -137q-10 -74 -62 -126
q54 -60 42 -147q-13 -90 -85 -148t-160 -58z" />
    <glyph glyph-name="acute" unicode="&#xb4;" horiz-adv-x="1031" 
d="M473 1110l120 288h244l-202 -288h-162z" />
    <glyph glyph-name="uni00B5" unicode="&#xb5;" horiz-adv-x="1134" 
d="M-79 -432l201 1432h244l-72 -511q-16 -116 42.5 -198t169.5 -82q109 0 183.5 82t91.5 198l71 511h244l-140 -1000h-244l17 119q-59 -66 -134 -106.5t-163 -40.5q-62 0 -112.5 21t-86.5 56l-68 -481h-244z" />
    <glyph glyph-name="paragraph" unicode="&#xb6;" horiz-adv-x="1058" 
d="M279 -302l144 1020q-94 0 -165 46t-106 123.5t-21 172.5q13 94 69.5 171t140 123t177.5 46h244l-239 -1702h-244zM593 -302l239 1702h244l-239 -1702h-244z" />
    <glyph glyph-name="periodcentered" unicode="&#xb7;" horiz-adv-x="411" 
d="M174 475q-53 0 -84.5 36t-23.5 89q7 52 48.5 89t94.5 37q51 0 83 -37t25 -89q-8 -53 -50 -89t-93 -36z" />
    <glyph glyph-name="cedilla" unicode="&#xb8;" horiz-adv-x="1278" 
d="M469 -376q-74 -19 -133 18t-68 108l129 33q2 -19 19 -29.5t37 -4.5q21 5 33.5 23t10.5 38q-3 20 -18.5 28.5t-37.5 6.5l-129 -5l175 248l104 -66l-47 -65q72 -32 83 -115q8 -71 -37.5 -135t-120.5 -83z" />
    <glyph glyph-name="uni00B9" unicode="&#xb9;" horiz-adv-x="451" 
d="M178 818l68 485h-65l41 146h190l-88 -631h-146z" />
    <glyph glyph-name="ordmasculine" unicode="&#xba;" horiz-adv-x="1120" 
d="M458 -26q-138 0 -241.5 71t-154 190.5t-30.5 264.5q15 110 67.5 205.5t131.5 168t175.5 113.5t199.5 41q138 0 241.5 -71t154.5 -191t30 -266q-15 -109 -67.5 -204t-131.5 -167.5t-175 -113.5t-200 -41zM492 218q73 0 136.5 39t106 103t53.5 140q11 78 -14.5 142.5
t-78.5 103t-123 38.5q-72 0 -135.5 -39t-106.5 -104t-54 -141q-11 -79 15 -143t79 -101.5t122 -37.5z" />
    <glyph glyph-name="guillemotright" unicode="&#xbb;" horiz-adv-x="1196" 
d="M445 261l346 340l-250 338h249l252 -338l-348 -340h-249zM38 261l346 340l-250 338h249l252 -338l-348 -340h-249z" />
    <glyph glyph-name="onequarter" unicode="&#xbc;" horiz-adv-x="1592" 
d="M178 818l68 485h-65l41 146h190l-88 -631h-146zM73 0l1004 1400h202l-1004 -1400h-202zM1145 0l14 98h-246l24 176l277 357h165l-55 -387h59l-19 -146h-59l-14 -98h-146zM1076 244h116l26 185z" />
    <glyph glyph-name="onehalf" unicode="&#xbd;" horiz-adv-x="1615" 
d="M178 818l68 485h-65l41 146h190l-88 -631h-146zM73 0l1004 1400h202l-1004 -1400h-202zM899 0l18 129q60 38 132 81.5t136 96t101 118.5q6 38 -17 63.5t-60 25.5q-38 0 -69 -25.5t-36 -63.5h-146q9 65 49 118t98.5 84.5t124.5 31.5q98 0 156.5 -68.5t45.5 -165.5
q-8 -54 -47 -103t-94 -93t-108 -83h200l-19 -146h-465z" />
    <glyph glyph-name="threequarters" unicode="&#xbe;" horiz-adv-x="1718" 
d="M303 798q-89 0 -145 58t-43 148h146q-5 -30 13 -50t49 -20q28 0 51.5 20t27.5 50q5 36 -22 65.5t-87 29.5l13 97q60 0 86.5 25.5t30.5 55.5q3 23 -12 38.5t-38 15.5q-22 0 -41.5 -15.5t-22.5 -38.5h-146q12 83 79 137t150 54q85 0 136.5 -54t39.5 -137q-10 -74 -62 -126
q54 -60 42 -147q-13 -90 -85 -148t-160 -58zM199 0l1004 1400h202l-1004 -1400h-202zM1271 0l14 98h-246l24 176l277 357h165l-55 -387h59l-19 -146h-59l-14 -98h-146zM1202 244h116l26 185z" />
    <glyph glyph-name="questiondown" unicode="&#xbf;" horiz-adv-x="1099" 
d="M522 775q-52 0 -83.5 36t-24.5 88q8 54 49.5 90.5t93.5 36.5q53 0 84 -36.5t23 -90.5q-7 -52 -48.5 -88t-93.5 -36zM376 -426q-126 0 -220.5 61t-141 164t-29.5 227q18 128 95.5 236.5t194.5 166.5q92 45 105 143h244q-16 -113 -86 -208t-178 -150q-52 -26 -87 -76.5
t-44 -111.5q-12 -87 41 -147.5t140 -60.5q58 0 109.5 28t86.5 75t43 105h244q-17 -124 -93 -227t-187.5 -164t-236.5 -61z" />
    <glyph glyph-name="Agrave" unicode="&#xc0;" horiz-adv-x="1458" 
d="M686 1400h281l313 -1400h-259l-56 248h-599l-125 -248h-259zM490 492h420l-130 577zM621 1798h244l40 -288h-163z" />
    <glyph glyph-name="Aacute" unicode="&#xc1;" horiz-adv-x="1458" 
d="M686 1400h281l313 -1400h-259l-56 248h-599l-125 -248h-259zM490 492h420l-130 577zM779 1510l120 288h244l-202 -288h-162z" />
    <glyph glyph-name="Acircumflex" unicode="&#xc2;" horiz-adv-x="1458" 
d="M686 1400h281l313 -1400h-259l-56 248h-599l-125 -248h-259zM490 492h420l-130 577zM1019 1798l154 -288h-163l-141 193l-192 -193h-163l231 288h274z" />
    <glyph glyph-name="Atilde" unicode="&#xc3;" horiz-adv-x="1458" 
d="M686 1400h281l313 -1400h-259l-56 248h-599l-125 -248h-259zM490 492h420l-130 577zM997 1505q-38 0 -84.5 26t-92 58t-80.5 51.5t-50 5.5q-30 -27 -22 -87l-147 -39q-17 78 5.5 142t74.5 102.5t126 38.5q37 0 81.5 -21.5t88.5 -50t78 -50t49 -21.5q31 0 34.5 29.5
t-2.5 56.5l151 47q16 -82 -8.5 -147t-77.5 -103t-124 -38z" />
    <glyph glyph-name="Adieresis" unicode="&#xc4;" horiz-adv-x="1458" 
d="M686 1400h281l313 -1400h-259l-56 248h-599l-125 -248h-259zM490 492h420l-130 577zM640 1470q-54 0 -86 35.5t-24 89.5q7 53 49 89.5t96 36.5q52 0 83.5 -36.5t24.5 -89.5q-8 -54 -49.5 -89.5t-93.5 -35.5zM1036 1470q-54 0 -86 35.5t-25 89.5q8 53 50 89.5t96 36.5
q52 0 84 -36.5t24 -89.5q-8 -54 -49.5 -89.5t-93.5 -35.5z" />
    <glyph glyph-name="Aring" unicode="&#xc5;" horiz-adv-x="1458" 
d="M686 1400h281l313 -1400h-259l-56 248h-599l-125 -248h-259zM490 492h420l-130 577zM836 1468q-76 0 -122.5 55.5t-36.5 132.5q10 75 72.5 129.5t139.5 54.5q76 0 122.5 -54.5t36.5 -129.5q-11 -78 -73 -133t-139 -55zM853 1587q27 0 49.5 19.5t27.5 48.5q3 27 -14 46.5
t-45 19.5q-27 0 -49.5 -19.5t-25.5 -46.5q-5 -29 12 -48.5t45 -19.5z" />
    <glyph glyph-name="AE" unicode="&#xc6;" horiz-adv-x="1678" 
d="M-18 0l704 1400h990l-34 -244h-494l-47 -334h398l-34 -244h-398l-47 -334h494l-34 -244h-738l35 248h-411l-125 -248h-259zM490 492h321l93 664h-80z" />
    <glyph glyph-name="Ccedilla" unicode="&#xc7;" horiz-adv-x="1418" 
d="M666 -26q-142 0 -259 56.5t-197.5 156.5t-115.5 231.5t-14 281.5q21 151 93 282.5t180.5 231t241.5 156t275 56.5q170 0 301.5 -79t208.5 -209l-235 -117q-49 73 -130 117t-179 44q-123 0 -233 -65.5t-185.5 -175t-93.5 -241.5q-19 -133 25.5 -242t136.5 -174.5
t214 -65.5q100 0 192.5 44.5t163.5 117.5l200 -118q-112 -131 -266 -209.5t-324 -78.5zM625 -376q-74 -19 -133 18t-68 108l129 33q2 -19 19 -29.5t37 -4.5q21 5 33.5 23t10.5 38q-3 20 -18.5 28.5t-37.5 6.5l-129 -5l175 248l104 -66l-47 -65q72 -32 83 -115
q8 -71 -37.5 -135t-120.5 -83z" />
    <glyph glyph-name="Egrave" unicode="&#xc8;" horiz-adv-x="1098" 
d="M22 0l196 1400h878l-34 -244h-634l-40 -284h503l-34 -244h-503l-54 -384h634l-34 -244h-878zM442 1798h244l40 -288h-163z" />
    <glyph glyph-name="Eacute" unicode="&#xc9;" horiz-adv-x="1098" 
d="M22 0l196 1400h878l-34 -244h-634l-40 -284h503l-34 -244h-503l-54 -384h634l-34 -244h-878zM600 1510l120 288h244l-202 -288h-162z" />
    <glyph glyph-name="Ecircumflex" unicode="&#xca;" horiz-adv-x="1098" 
d="M22 0l196 1400h878l-34 -244h-634l-40 -284h503l-34 -244h-503l-54 -384h634l-34 -244h-878zM840 1798l154 -288h-163l-141 193l-192 -193h-163l231 288h274z" />
    <glyph glyph-name="Edieresis" unicode="&#xcb;" horiz-adv-x="1098" 
d="M22 0l196 1400h878l-34 -244h-634l-40 -284h503l-34 -244h-503l-54 -384h634l-34 -244h-878zM460 1470q-54 0 -86 35.5t-24 89.5q7 53 49 89.5t96 36.5q52 0 83.5 -36.5t24.5 -89.5q-8 -54 -49.5 -89.5t-93.5 -35.5zM856 1470q-54 0 -86 35.5t-25 89.5q8 53 50 89.5
t96 36.5q52 0 84 -36.5t24 -89.5q-8 -54 -49.5 -89.5t-93.5 -35.5z" />
    <glyph glyph-name="Igrave" unicode="&#xcc;" horiz-adv-x="544" 
d="M52 0l196 1400h244l-196 -1400h-244zM165 1798h244l40 -288h-163z" />
    <glyph glyph-name="Iacute" unicode="&#xcd;" horiz-adv-x="544" 
d="M52 0l196 1400h244l-196 -1400h-244zM323 1510l120 288h244l-202 -288h-162z" />
    <glyph glyph-name="Icircumflex" unicode="&#xce;" horiz-adv-x="544" 
d="M52 0l196 1400h244l-196 -1400h-244zM563 1798l154 -288h-163l-141 193l-192 -193h-163l231 288h274z" />
    <glyph glyph-name="Idieresis" unicode="&#xcf;" horiz-adv-x="544" 
d="M52 0l196 1400h244l-196 -1400h-244zM183 1470q-54 0 -86 35.5t-24 89.5q7 53 49 89.5t96 36.5q52 0 83.5 -36.5t24.5 -89.5q-8 -54 -49.5 -89.5t-93.5 -35.5zM579 1470q-54 0 -86 35.5t-25 89.5q8 53 50 89.5t96 36.5q52 0 84 -36.5t24 -89.5q-8 -54 -49.5 -89.5
t-93.5 -35.5z" />
    <glyph glyph-name="Eth" unicode="&#xd0;" horiz-adv-x="1460" 
d="M139 0l88 628h-137l34 244h137l74 528h463q144 0 263.5 -54.5t202 -151t119.5 -223t17 -271.5q-21 -145 -93 -271.5t-182 -223t-244.5 -151t-278.5 -54.5h-463zM417 244h219q126 0 238 62t188 165.5t94 228.5q18 126 -30 229.5t-143 165t-219 61.5h-219l-40 -284h275
l-33 -244h-276z" />
    <glyph glyph-name="Ntilde" unicode="&#xd1;" horiz-adv-x="1339" 
d="M22 0l196 1400h264l457 -959l134 959h244l-196 -1400h-263l-458 959l-134 -959h-244zM938 1505q-38 0 -84.5 26t-92 58t-80.5 51.5t-50 5.5q-30 -27 -22 -87l-147 -39q-17 78 5.5 142t74.5 102.5t126 38.5q37 0 81.5 -21.5t88.5 -50t78 -50t49 -21.5q31 0 34.5 29.5
t-2.5 56.5l151 47q16 -82 -8.5 -147t-77.5 -103t-124 -38z" />
    <glyph glyph-name="Ograve" unicode="&#xd2;" horiz-adv-x="1540" 
d="M668 -26q-142 0 -259.5 56.5t-198 156.5t-116 231.5t-14.5 281.5t93 281.5t181.5 231.5t242.5 156.5t275 56.5q143 0 260 -56.5t197.5 -156.5t116 -231.5t14.5 -281.5t-93 -281.5t-181.5 -231.5t-242 -156.5t-275.5 -56.5zM702 218q123 0 233.5 65.5t186 175t94.5 241.5
t-26 241.5t-137 175t-215 65.5t-233.5 -65.5t-186 -175t-94.5 -241.5t26 -241.5t137 -175t215 -65.5zM663 1798h244l40 -288h-163z" />
    <glyph glyph-name="Oacute" unicode="&#xd3;" horiz-adv-x="1540" 
d="M668 -26q-142 0 -259.5 56.5t-198 156.5t-116 231.5t-14.5 281.5t93 281.5t181.5 231.5t242.5 156.5t275 56.5q143 0 260 -56.5t197.5 -156.5t116 -231.5t14.5 -281.5t-93 -281.5t-181.5 -231.5t-242 -156.5t-275.5 -56.5zM702 218q123 0 233.5 65.5t186 175t94.5 241.5
t-26 241.5t-137 175t-215 65.5t-233.5 -65.5t-186 -175t-94.5 -241.5t26 -241.5t137 -175t215 -65.5zM821 1510l120 288h244l-202 -288h-162z" />
    <glyph glyph-name="Ocircumflex" unicode="&#xd4;" horiz-adv-x="1540" 
d="M668 -26q-142 0 -259.5 56.5t-198 156.5t-116 231.5t-14.5 281.5t93 281.5t181.5 231.5t242.5 156.5t275 56.5q143 0 260 -56.5t197.5 -156.5t116 -231.5t14.5 -281.5t-93 -281.5t-181.5 -231.5t-242 -156.5t-275.5 -56.5zM702 218q123 0 233.5 65.5t186 175t94.5 241.5
t-26 241.5t-137 175t-215 65.5t-233.5 -65.5t-186 -175t-94.5 -241.5t26 -241.5t137 -175t215 -65.5zM1061 1798l154 -288h-163l-141 193l-192 -193h-163l231 288h274z" />
    <glyph glyph-name="Otilde" unicode="&#xd5;" horiz-adv-x="1540" 
d="M668 -26q-142 0 -259.5 56.5t-198 156.5t-116 231.5t-14.5 281.5t93 281.5t181.5 231.5t242.5 156.5t275 56.5q143 0 260 -56.5t197.5 -156.5t116 -231.5t14.5 -281.5t-93 -281.5t-181.5 -231.5t-242 -156.5t-275.5 -56.5zM702 218q123 0 233.5 65.5t186 175t94.5 241.5
t-26 241.5t-137 175t-215 65.5t-233.5 -65.5t-186 -175t-94.5 -241.5t26 -241.5t137 -175t215 -65.5zM1038 1505q-38 0 -84.5 26t-92 58t-80.5 51.5t-50 5.5q-30 -27 -22 -87l-147 -39q-17 78 5.5 142t74.5 102.5t126 38.5q37 0 81.5 -21.5t88.5 -50t78 -50t49 -21.5
q31 0 34.5 29.5t-2.5 56.5l151 47q16 -82 -8.5 -147t-77.5 -103t-124 -38z" />
    <glyph glyph-name="Odieresis" unicode="&#xd6;" horiz-adv-x="1540" 
d="M668 -26q-142 0 -259.5 56.5t-198 156.5t-116 231.5t-14.5 281.5t93 281.5t181.5 231.5t242.5 156.5t275 56.5q143 0 260 -56.5t197.5 -156.5t116 -231.5t14.5 -281.5t-93 -281.5t-181.5 -231.5t-242 -156.5t-275.5 -56.5zM702 218q123 0 233.5 65.5t186 175t94.5 241.5
t-26 241.5t-137 175t-215 65.5t-233.5 -65.5t-186 -175t-94.5 -241.5t26 -241.5t137 -175t215 -65.5zM681 1470q-54 0 -86 35.5t-24 89.5q7 53 49 89.5t96 36.5q52 0 83.5 -36.5t24.5 -89.5q-8 -54 -49.5 -89.5t-93.5 -35.5zM1077 1470q-54 0 -86 35.5t-25 89.5
q8 53 50 89.5t96 36.5q52 0 84 -36.5t24 -89.5q-8 -54 -49.5 -89.5t-93.5 -35.5z" />
    <glyph glyph-name="multiply" unicode="&#xd7;" horiz-adv-x="1039" 
d="M176 160l-148 172l304 268l-228 268l197 172l228 -268l305 268l149 -172l-306 -268l230 -268l-197 -172l-230 268z" />
    <glyph glyph-name="Oslash" unicode="&#xd8;" horiz-adv-x="1540" 
d="M332 -108l-194 122l101 143q-92 99 -137 240t-22 303q21 150 93 281.5t181.5 231.5t242.5 156.5t275 56.5q67 0 127.5 -13t115.5 -37l95 132l194 -122l-103 -142q94 -100 138 -240.5t21 -303.5q-21 -150 -93 -281.5t-181.5 -231.5t-242 -156.5t-275.5 -56.5
q-66 0 -126 13.5t-114 38.5zM401 382l558 776q-56 24 -121 24q-123 0 -233.5 -65.5t-186 -175t-94.5 -241.5q-13 -93 8.5 -175t68.5 -143zM702 218q123 0 233.5 65.5t186 175t94.5 241.5q13 93 -7.5 175t-66.5 144l-559 -776q54 -25 119 -25z" />
    <glyph glyph-name="Ugrave" unicode="&#xd9;" horiz-adv-x="1360" 
d="M579 -26q-168 0 -283 82t-165.5 220.5t-26.5 307.5l114 816h244l-114 -816q-14 -100 11.5 -183.5t89 -133t164.5 -49.5q102 0 179 49.5t125.5 132.5t62.5 184l114 816h244l-114 -816q-24 -169 -113.5 -307.5t-226.5 -220.5t-305 -82zM573 1798h244l40 -288h-163z" />
    <glyph glyph-name="Uacute" unicode="&#xda;" horiz-adv-x="1360" 
d="M579 -26q-168 0 -283 82t-165.5 220.5t-26.5 307.5l114 816h244l-114 -816q-14 -100 11.5 -183.5t89 -133t164.5 -49.5q102 0 179 49.5t125.5 132.5t62.5 184l114 816h244l-114 -816q-24 -169 -113.5 -307.5t-226.5 -220.5t-305 -82zM730 1510l120 288h244l-202 -288
h-162z" />
    <glyph glyph-name="Ucircumflex" unicode="&#xdb;" horiz-adv-x="1360" 
d="M579 -26q-168 0 -283 82t-165.5 220.5t-26.5 307.5l114 816h244l-114 -816q-14 -100 11.5 -183.5t89 -133t164.5 -49.5q102 0 179 49.5t125.5 132.5t62.5 184l114 816h244l-114 -816q-24 -169 -113.5 -307.5t-226.5 -220.5t-305 -82zM971 1798l154 -288h-163l-141 193
l-192 -193h-163l231 288h274z" />
    <glyph glyph-name="Udieresis" unicode="&#xdc;" horiz-adv-x="1360" 
d="M579 -26q-168 0 -283 82t-165.5 220.5t-26.5 307.5l114 816h244l-114 -816q-14 -100 11.5 -183.5t89 -133t164.5 -49.5q102 0 179 49.5t125.5 132.5t62.5 184l114 816h244l-114 -816q-24 -169 -113.5 -307.5t-226.5 -220.5t-305 -82zM591 1470q-54 0 -86 35.5t-24 89.5
q7 53 49 89.5t96 36.5q52 0 83.5 -36.5t24.5 -89.5q-8 -54 -49.5 -89.5t-93.5 -35.5zM987 1470q-54 0 -86 35.5t-25 89.5q8 53 50 89.5t96 36.5q52 0 84 -36.5t24 -89.5q-8 -54 -49.5 -89.5t-93.5 -35.5z" />
    <glyph glyph-name="Yacute" unicode="&#xdd;" horiz-adv-x="1326" 
d="M1076 1400h288l-589 -769l-88 -631h-244l88 631l-373 769h288l244 -503zM713 1510l120 288h244l-202 -288h-162z" />
    <glyph glyph-name="Thorn" unicode="&#xde;" horiz-adv-x="1087" 
d="M22 0l196 1400h244l-39 -279h256q114 0 198.5 -57t125.5 -153t24 -211q-16 -117 -85.5 -212.5t-170 -152t-210.5 -56.5h-256l-39 -279h-244zM339 523h230q78 0 141.5 56t75.5 138q11 81 -36.5 137.5t-125.5 56.5h-230z" />
    <glyph glyph-name="germandbls" unicode="&#xdf;" horiz-adv-x="1145" 
d="M22 0l126 899q14 103 65.5 194t130 160t175 108t200.5 39q110 0 192.5 -52t122.5 -142t24 -204q-10 -74 -53 -155t-126 -119q83 -14 121 -69t44.5 -127.5t-2.5 -138.5q-16 -113 -83.5 -201.5t-167.5 -140t-212 -51.5h-74l-6 209h84q60 0 112.5 27.5t87.5 73t43 100.5
q11 82 -43.5 139.5t-142.5 60.5l-84 3l28 199l25 4q75 7 135 58t70 128q11 77 -34 132.5t-118 55.5q-64 0 -120.5 -31t-94.5 -83t-47 -116l-134 -960h-244z" />
    <glyph glyph-name="agrave" unicode="&#xe0;" horiz-adv-x="1198" 
d="M916 1000h244l-140 -1000h-244l6 124q-51 -68 -124 -109t-165 -41q-148 0 -259.5 72.5t-166.5 194.5t-33 270q14 107 67 200.5t133.5 165t179.5 111.5t206 40q100 0 172 -44t118 -112zM520 209q77 0 142.5 39t109.5 105t55 147t-14 147t-79.5 105.5t-131.5 39.5
q-78 0 -147 -39.5t-115.5 -105.5t-57.5 -147t17.5 -147t86.5 -105t134 -39zM450 1398h244l40 -288h-163z" />
    <glyph glyph-name="aacute" unicode="&#xe1;" horiz-adv-x="1198" 
d="M916 1000h244l-140 -1000h-244l6 124q-51 -68 -124 -109t-165 -41q-148 0 -259.5 72.5t-166.5 194.5t-33 270q14 107 67 200.5t133.5 165t179.5 111.5t206 40q100 0 172 -44t118 -112zM520 209q77 0 142.5 39t109.5 105t55 147t-14 147t-79.5 105.5t-131.5 39.5
q-78 0 -147 -39.5t-115.5 -105.5t-57.5 -147t17.5 -147t86.5 -105t134 -39zM608 1110l120 288h244l-202 -288h-162z" />
    <glyph glyph-name="acircumflex" unicode="&#xe2;" horiz-adv-x="1198" 
d="M916 1000h244l-140 -1000h-244l6 124q-51 -68 -124 -109t-165 -41q-148 0 -259.5 72.5t-166.5 194.5t-33 270q14 107 67 200.5t133.5 165t179.5 111.5t206 40q100 0 172 -44t118 -112zM520 209q77 0 142.5 39t109.5 105t55 147t-14 147t-79.5 105.5t-131.5 39.5
q-78 0 -147 -39.5t-115.5 -105.5t-57.5 -147t17.5 -147t86.5 -105t134 -39zM848 1398l154 -288h-163l-141 193l-192 -193h-163l231 288h274z" />
    <glyph glyph-name="atilde" unicode="&#xe3;" horiz-adv-x="1198" 
d="M916 1000h244l-140 -1000h-244l6 124q-51 -68 -124 -109t-165 -41q-148 0 -259.5 72.5t-166.5 194.5t-33 270q14 107 67 200.5t133.5 165t179.5 111.5t206 40q100 0 172 -44t118 -112zM520 209q77 0 142.5 39t109.5 105t55 147t-14 147t-79.5 105.5t-131.5 39.5
q-78 0 -147 -39.5t-115.5 -105.5t-57.5 -147t17.5 -147t86.5 -105t134 -39zM826 1105q-38 0 -84.5 26t-92 58t-80.5 51.5t-50 5.5q-30 -27 -22 -87l-147 -39q-17 78 5.5 142t74.5 102.5t126 38.5q37 0 81.5 -21.5t88.5 -50t78 -50t49 -21.5q31 0 34.5 29.5t-2.5 56.5l151 47
q16 -82 -8.5 -147t-77.5 -103t-124 -38z" />
    <glyph glyph-name="adieresis" unicode="&#xe4;" horiz-adv-x="1198" 
d="M916 1000h244l-140 -1000h-244l6 124q-51 -68 -124 -109t-165 -41q-148 0 -259.5 72.5t-166.5 194.5t-33 270q14 107 67 200.5t133.5 165t179.5 111.5t206 40q100 0 172 -44t118 -112zM520 209q77 0 142.5 39t109.5 105t55 147t-14 147t-79.5 105.5t-131.5 39.5
q-78 0 -147 -39.5t-115.5 -105.5t-57.5 -147t17.5 -147t86.5 -105t134 -39zM469 1070q-54 0 -86 35.5t-24 89.5q7 53 49 89.5t96 36.5q52 0 83.5 -36.5t24.5 -89.5q-8 -54 -49.5 -89.5t-93.5 -35.5zM865 1070q-54 0 -86 35.5t-25 89.5q8 53 50 89.5t96 36.5q52 0 84 -36.5
t24 -89.5q-8 -54 -49.5 -89.5t-93.5 -35.5z" />
    <glyph glyph-name="aring" unicode="&#xe5;" horiz-adv-x="1198" 
d="M916 1000h244l-140 -1000h-244l6 124q-51 -68 -124 -109t-165 -41q-148 0 -259.5 72.5t-166.5 194.5t-33 270q14 107 67 200.5t133.5 165t179.5 111.5t206 40q100 0 172 -44t118 -112zM520 209q77 0 142.5 39t109.5 105t55 147t-14 147t-79.5 105.5t-131.5 39.5
q-78 0 -147 -39.5t-115.5 -105.5t-57.5 -147t17.5 -147t86.5 -105t134 -39zM665 1068q-76 0 -122.5 55.5t-36.5 132.5q10 75 72.5 129.5t139.5 54.5q76 0 122.5 -54.5t36.5 -129.5q-11 -78 -73 -133t-139 -55zM682 1187q27 0 49.5 19.5t27.5 48.5q3 27 -14 46.5t-45 19.5
q-27 0 -49.5 -19.5t-25.5 -46.5q-5 -29 12 -48.5t45 -19.5z" />
    <glyph glyph-name="ae" unicode="&#xe6;" horiz-adv-x="1729" 
d="M255 -26q-94 0 -162 42.5t-100.5 113.5t-20.5 157q12 83 64 154.5t131.5 115t173.5 43.5h306q-1 76 -49 130t-136 54q-78 0 -149 -38l-106 203q136 79 286 79q108 0 195.5 -47t138.5 -131q76 81 177.5 129.5t211.5 48.5q118 0 208 -49.5t146 -135.5t71 -196t-18 -230
h-731q8 -85 62.5 -142t149.5 -57q63 0 119.5 31t98.5 85l241 -58q-80 -133 -212.5 -217.5t-282.5 -84.5q-122 0 -217 58t-146 154q-45 -56 -116 -104.5t-157 -78t-177 -29.5zM910 600h492q-5 90 -65 152.5t-151 62.5q-90 0 -167 -62t-109 -153zM286 188q75 0 141 33t114 86
q47 47 79 110h-304q-49 0 -85.5 -32.5t-42.5 -79.5q-6 -46 20 -81.5t78 -35.5z" />
    <glyph glyph-name="ccedilla" unicode="&#xe7;" horiz-adv-x="1020" 
d="M685 301l202 -119q-83 -94 -194.5 -151t-234.5 -57q-138 0 -241.5 71t-154 190.5t-30.5 264.5q15 110 67.5 205.5t131.5 168t175.5 113.5t199.5 41q123 0 219 -57t152 -153l-237 -118q-62 84 -168 84q-73 0 -136.5 -39.5t-106 -104t-53.5 -140.5q-11 -75 14 -139.5
t77.5 -103.5t124.5 -39q52 0 102.5 22.5t90.5 60.5zM417 -376q-74 -19 -133 18t-68 108l129 33q2 -19 19 -29.5t37 -4.5q21 5 33.5 23t10.5 38q-3 20 -18.5 28.5t-37.5 6.5l-129 -5l175 248l104 -66l-47 -65q72 -32 83 -115q8 -71 -37.5 -135t-120.5 -83z" />
    <glyph glyph-name="egrave" unicode="&#xe8;" horiz-adv-x="1119" 
d="M458 -26q-138 0 -241.5 71t-154 190.5t-30.5 265.5q15 109 67.5 204.5t131.5 168t175.5 113.5t199.5 41q117 0 207.5 -49.5t146.5 -135t71.5 -195.5t-18.5 -231h-730q8 -84 61.5 -141t147.5 -58q63 0 120.5 31t99.5 85l241 -58q-80 -133 -212.5 -217.5t-282.5 -84.5z
M300 600h492q-5 90 -65 152.5t-150 62.5q-91 0 -168 -62t-109 -153zM396 1398h244l40 -288h-163z" />
    <glyph glyph-name="eacute" unicode="&#xe9;" horiz-adv-x="1119" 
d="M458 -26q-138 0 -241.5 71t-154 190.5t-30.5 265.5q15 109 67.5 204.5t131.5 168t175.5 113.5t199.5 41q117 0 207.5 -49.5t146.5 -135t71.5 -195.5t-18.5 -231h-730q8 -84 61.5 -141t147.5 -58q63 0 120.5 31t99.5 85l241 -58q-80 -133 -212.5 -217.5t-282.5 -84.5z
M300 600h492q-5 90 -65 152.5t-150 62.5q-91 0 -168 -62t-109 -153zM554 1110l120 288h244l-202 -288h-162z" />
    <glyph glyph-name="ecircumflex" unicode="&#xea;" horiz-adv-x="1119" 
d="M458 -26q-138 0 -241.5 71t-154 190.5t-30.5 265.5q15 109 67.5 204.5t131.5 168t175.5 113.5t199.5 41q117 0 207.5 -49.5t146.5 -135t71.5 -195.5t-18.5 -231h-730q8 -84 61.5 -141t147.5 -58q63 0 120.5 31t99.5 85l241 -58q-80 -133 -212.5 -217.5t-282.5 -84.5z
M300 600h492q-5 90 -65 152.5t-150 62.5q-91 0 -168 -62t-109 -153zM794 1398l154 -288h-163l-141 193l-192 -193h-163l231 288h274z" />
    <glyph glyph-name="edieresis" unicode="&#xeb;" horiz-adv-x="1119" 
d="M458 -26q-138 0 -241.5 71t-154 190.5t-30.5 265.5q15 109 67.5 204.5t131.5 168t175.5 113.5t199.5 41q117 0 207.5 -49.5t146.5 -135t71.5 -195.5t-18.5 -231h-730q8 -84 61.5 -141t147.5 -58q63 0 120.5 31t99.5 85l241 -58q-80 -133 -212.5 -217.5t-282.5 -84.5z
M300 600h492q-5 90 -65 152.5t-150 62.5q-91 0 -168 -62t-109 -153zM415 1070q-54 0 -86 35.5t-24 89.5q7 53 49 89.5t96 36.5q52 0 83.5 -36.5t24.5 -89.5q-8 -54 -49.5 -89.5t-93.5 -35.5zM811 1070q-54 0 -86 35.5t-25 89.5q8 53 50 89.5t96 36.5q52 0 84 -36.5t24 -89.5
q-8 -54 -49.5 -89.5t-93.5 -35.5z" />
    <glyph glyph-name="igrave" unicode="&#xec;" horiz-adv-x="484" 
d="M162 1000h244l-140 -1000h-244zM79 1398h244l40 -288h-163z" />
    <glyph glyph-name="iacute" unicode="&#xed;" horiz-adv-x="484" 
d="M162 1000h244l-140 -1000h-244zM237 1110l120 288h244l-202 -288h-162z" />
    <glyph glyph-name="icircumflex" unicode="&#xee;" horiz-adv-x="484" 
d="M162 1000h244l-140 -1000h-244zM477 1398l154 -288h-163l-141 193l-192 -193h-163l231 288h274z" />
    <glyph glyph-name="idieresis" unicode="&#xef;" horiz-adv-x="484" 
d="M162 1000h244l-140 -1000h-244zM97 1070q-54 0 -86 35.5t-24 89.5q7 53 49 89.5t96 36.5q52 0 83.5 -36.5t24.5 -89.5q-8 -54 -49.5 -89.5t-93.5 -35.5zM493 1070q-54 0 -86 35.5t-25 89.5q8 53 50 89.5t96 36.5q52 0 84 -36.5t24 -89.5q-8 -54 -49.5 -89.5t-93.5 -35.5z
" />
    <glyph glyph-name="eth" unicode="&#xf0;" horiz-adv-x="1126" 
d="M482 -26q-139 0 -244 68t-157 182t-32 252q15 104 66.5 195.5t130.5 160.5t176 108.5t201 39.5q93 0 151 -60q-14 68 -39 139t-74 125l-177 -154l-102 119l139 121q-43 12 -94 12l32 244q78 0 146.5 -19t128.5 -53l146 126l100 -118l-123 -107q88 -93 141 -225t69 -289
t-7 -327q-23 -158 -104.5 -280t-204.5 -191t-269 -69zM516 218q71 0 135 35.5t107 94t53 128.5q10 71 -17 130t-81 94.5t-125 35.5q-72 0 -135.5 -35.5t-106.5 -94.5t-53 -130q-10 -70 16.5 -129t80.5 -94t126 -35z" />
    <glyph glyph-name="ntilde" unicode="&#xf1;" horiz-adv-x="1116" 
d="M1026 632l-88 -632h-244l79 568q12 88 -42 150.5t-142 62.5q-59 0 -111.5 -28.5t-87.5 -77t-44 -107.5l-79 -568h-244l139 1000h244l-12 -89q59 54 134.5 85.5t157.5 31.5q109 0 191.5 -53.5t123 -143.5t25.5 -199zM806 1105q-38 0 -84.5 26t-92 58t-80.5 51.5t-50 5.5
q-30 -27 -22 -87l-147 -39q-17 78 5.5 142t74.5 102.5t126 38.5q37 0 81.5 -21.5t88.5 -50t78 -50t49 -21.5q31 0 34.5 29.5t-2.5 56.5l151 47q16 -82 -8.5 -147t-77.5 -103t-124 -38z" />
    <glyph glyph-name="ograve" unicode="&#xf2;" horiz-adv-x="1120" 
d="M458 -26q-138 0 -241.5 71t-154 190.5t-30.5 264.5q15 110 67.5 205.5t131.5 168t175.5 113.5t199.5 41q138 0 241.5 -71t154.5 -191t30 -266q-15 -109 -67.5 -204t-131.5 -167.5t-175 -113.5t-200 -41zM492 218q73 0 136.5 39t106 103t53.5 140q11 78 -14.5 142.5
t-78.5 103t-123 38.5q-72 0 -135.5 -39t-106.5 -104t-54 -141q-11 -79 15 -143t79 -101.5t122 -37.5zM397 1398h244l40 -288h-163z" />
    <glyph glyph-name="oacute" unicode="&#xf3;" horiz-adv-x="1120" 
d="M458 -26q-138 0 -241.5 71t-154 190.5t-30.5 264.5q15 110 67.5 205.5t131.5 168t175.5 113.5t199.5 41q138 0 241.5 -71t154.5 -191t30 -266q-15 -109 -67.5 -204t-131.5 -167.5t-175 -113.5t-200 -41zM492 218q73 0 136.5 39t106 103t53.5 140q11 78 -14.5 142.5
t-78.5 103t-123 38.5q-72 0 -135.5 -39t-106.5 -104t-54 -141q-11 -79 15 -143t79 -101.5t122 -37.5zM555 1110l120 288h244l-202 -288h-162z" />
    <glyph glyph-name="ocircumflex" unicode="&#xf4;" horiz-adv-x="1120" 
d="M458 -26q-138 0 -241.5 71t-154 190.5t-30.5 264.5q15 110 67.5 205.5t131.5 168t175.5 113.5t199.5 41q138 0 241.5 -71t154.5 -191t30 -266q-15 -109 -67.5 -204t-131.5 -167.5t-175 -113.5t-200 -41zM492 218q73 0 136.5 39t106 103t53.5 140q11 78 -14.5 142.5
t-78.5 103t-123 38.5q-72 0 -135.5 -39t-106.5 -104t-54 -141q-11 -79 15 -143t79 -101.5t122 -37.5zM795 1398l154 -288h-163l-141 193l-192 -193h-163l231 288h274z" />
    <glyph glyph-name="otilde" unicode="&#xf5;" horiz-adv-x="1120" 
d="M458 -26q-138 0 -241.5 71t-154 190.5t-30.5 264.5q15 110 67.5 205.5t131.5 168t175.5 113.5t199.5 41q138 0 241.5 -71t154.5 -191t30 -266q-15 -109 -67.5 -204t-131.5 -167.5t-175 -113.5t-200 -41zM492 218q73 0 136.5 39t106 103t53.5 140q11 78 -14.5 142.5
t-78.5 103t-123 38.5q-72 0 -135.5 -39t-106.5 -104t-54 -141q-11 -79 15 -143t79 -101.5t122 -37.5zM772 1105q-38 0 -84.5 26t-92 58t-80.5 51.5t-50 5.5q-30 -27 -22 -87l-147 -39q-17 78 5.5 142t74.5 102.5t126 38.5q37 0 81.5 -21.5t88.5 -50t78 -50t49 -21.5
q31 0 34.5 29.5t-2.5 56.5l151 47q16 -82 -8.5 -147t-77.5 -103t-124 -38z" />
    <glyph glyph-name="odieresis" unicode="&#xf6;" horiz-adv-x="1120" 
d="M458 -26q-138 0 -241.5 71t-154 190.5t-30.5 264.5q15 110 67.5 205.5t131.5 168t175.5 113.5t199.5 41q138 0 241.5 -71t154.5 -191t30 -266q-15 -109 -67.5 -204t-131.5 -167.5t-175 -113.5t-200 -41zM492 218q73 0 136.5 39t106 103t53.5 140q11 78 -14.5 142.5
t-78.5 103t-123 38.5q-72 0 -135.5 -39t-106.5 -104t-54 -141q-11 -79 15 -143t79 -101.5t122 -37.5zM415 1070q-54 0 -86 35.5t-24 89.5q7 53 49 89.5t96 36.5q52 0 83.5 -36.5t24.5 -89.5q-8 -54 -49.5 -89.5t-93.5 -35.5zM811 1070q-54 0 -86 35.5t-25 89.5q8 53 50 89.5
t96 36.5q52 0 84 -36.5t24 -89.5q-8 -54 -49.5 -89.5t-93.5 -35.5z" />
    <glyph glyph-name="divide" unicode="&#xf7;" horiz-adv-x="1160" 
d="M636 1095q54 0 87.5 -40t26.5 -95q-8 -54 -53 -93.5t-100 -39.5q-56 0 -88.5 39.5t-25.5 93.5q8 55 52 95t101 40zM49 478l34 244h1000l-34 -244h-1000zM534 373q54 0 88.5 -40t26.5 -94q-7 -55 -52.5 -94.5t-100.5 -39.5q-56 0 -89 39.5t-26 94.5q8 54 52 94t101 40z
" />
    <glyph glyph-name="oslash" unicode="&#xf8;" horiz-adv-x="1120" 
d="M233 -75l-158 99l65 90q-64 72 -94 172t-14 214q15 110 67.5 205.5t131.5 168t175.5 113.5t199.5 41q92 0 166 -32l60 82l158 -99l-66 -91q65 -72 94.5 -172t13.5 -216q-15 -109 -67.5 -204t-131.5 -167.5t-175 -113.5t-200 -41q-46 0 -87.5 8.5t-79.5 24.5zM289 320
l345 481q-83 18 -165 -21.5t-141 -117.5t-73 -176q-6 -49 3.5 -91t30.5 -75zM430 201q86 -18 167.5 21.5t139 117t71.5 174.5q7 49 -2.5 92t-30.5 77z" />
    <glyph glyph-name="ugrave" unicode="&#xf9;" horiz-adv-x="1076" 
d="M34 370l88 630h244l-80 -566q-12 -88 42 -150.5t142 -62.5q59 0 111.5 28.5t88 77t43.5 107.5l80 566h244l-139 -1000h-244l11 91q-59 -54 -134.5 -85.5t-156.5 -31.5q-109 0 -191.5 53.5t-123.5 143.5t-25 199zM404 1400h244l40 -288h-163z" />
    <glyph glyph-name="uacute" unicode="&#xfa;" horiz-adv-x="1076" 
d="M34 370l88 630h244l-80 -566q-12 -88 42 -150.5t142 -62.5q59 0 111.5 28.5t88 77t43.5 107.5l80 566h244l-139 -1000h-244l11 91q-59 -54 -134.5 -85.5t-156.5 -31.5q-109 0 -191.5 53.5t-123.5 143.5t-25 199zM562 1112l120 288h244l-202 -288h-162z" />
    <glyph glyph-name="ucircumflex" unicode="&#xfb;" horiz-adv-x="1076" 
d="M34 370l88 630h244l-80 -566q-12 -88 42 -150.5t142 -62.5q59 0 111.5 28.5t88 77t43.5 107.5l80 566h244l-139 -1000h-244l11 91q-59 -54 -134.5 -85.5t-156.5 -31.5q-109 0 -191.5 53.5t-123.5 143.5t-25 199zM802 1400l154 -288h-163l-141 193l-192 -193h-163l231 288
h274z" />
    <glyph glyph-name="udieresis" unicode="&#xfc;" horiz-adv-x="1076" 
d="M34 370l88 630h244l-80 -566q-12 -88 42 -150.5t142 -62.5q59 0 111.5 28.5t88 77t43.5 107.5l80 566h244l-139 -1000h-244l11 91q-59 -54 -134.5 -85.5t-156.5 -31.5q-109 0 -191.5 53.5t-123.5 143.5t-25 199zM423 1072q-54 0 -86 35.5t-24 89.5q7 53 49 89.5t96 36.5
q52 0 83.5 -36.5t24.5 -89.5q-8 -54 -49.5 -89.5t-93.5 -35.5zM819 1072q-54 0 -86 35.5t-25 89.5q8 53 50 89.5t96 36.5q52 0 84 -36.5t24 -89.5q-8 -54 -49.5 -89.5t-93.5 -35.5z" />
    <glyph glyph-name="yacute" unicode="&#xfd;" horiz-adv-x="1145" 
d="M848 1000h259l-758 -1500h-259l252 500l-220 1000h267l121 -666zM567 1110l120 288h244l-202 -288h-162z" />
    <glyph glyph-name="thorn" unicode="&#xfe;" horiz-adv-x="1238" 
d="M-49 -500l267 1900h244l-74 -527q58 68 136 110.5t174 42.5q146 0 255.5 -71t163.5 -190.5t33 -264.5q-15 -109 -69 -205t-136.5 -168.5t-183.5 -113.5t-211 -41q-96 0 -162 42.5t-104 110.5l-89 -625h-244zM580 208q76 0 145.5 39t117 105.5t59.5 147.5q11 80 -17.5 146
t-87 105.5t-135.5 39.5t-142 -39.5t-108.5 -105.5t-54.5 -146q-12 -81 13 -147t79 -105.5t131 -39.5z" />
    <glyph glyph-name="ydieresis" unicode="&#xff;" horiz-adv-x="1145" 
d="M848 1000h259l-758 -1500h-259l252 500l-220 1000h267l121 -666zM428 1070q-54 0 -86 35.5t-24 89.5q7 53 49 89.5t96 36.5q52 0 83.5 -36.5t24.5 -89.5q-8 -54 -49.5 -89.5t-93.5 -35.5zM824 1070q-54 0 -86 35.5t-25 89.5q8 53 50 89.5t96 36.5q52 0 84 -36.5t24 -89.5
q-8 -54 -49.5 -89.5t-93.5 -35.5z" />
    <glyph glyph-name="Amacron" unicode="&#x100;" horiz-adv-x="1458" 
d="M686 1400h281l313 -1400h-259l-56 248h-599l-125 -248h-259zM490 492h420l-130 577zM535 1727h676l-26 -183h-676z" />
    <glyph glyph-name="amacron" unicode="&#x101;" horiz-adv-x="1198" 
d="M916 1000h244l-140 -1000h-244l6 124q-51 -68 -124 -109t-165 -41q-148 0 -259.5 72.5t-166.5 194.5t-33 270q14 107 67 200.5t133.5 165t179.5 111.5t206 40q100 0 172 -44t118 -112zM520 209q77 0 142.5 39t109.5 105t55 147t-14 147t-79.5 105.5t-131.5 39.5
q-78 0 -147 -39.5t-115.5 -105.5t-57.5 -147t17.5 -147t86.5 -105t134 -39zM364 1327h676l-26 -183h-676z" />
    <glyph glyph-name="Abreve" unicode="&#x102;" horiz-adv-x="1458" 
d="M686 1400h281l313 -1400h-259l-56 248h-599l-125 -248h-259zM490 492h420l-130 577zM840 1488q-91 0 -160 45t-103.5 120.5t-22.5 166.5h152q-10 -74 36 -127t119 -53q74 0 134 52t71 128h152q-13 -93 -68.5 -168.5t-137 -119.5t-172.5 -44z" />
    <glyph glyph-name="abreve" unicode="&#x103;" horiz-adv-x="1198" 
d="M916 1000h244l-140 -1000h-244l6 124q-51 -68 -124 -109t-165 -41q-148 0 -259.5 72.5t-166.5 194.5t-33 270q14 107 67 200.5t133.5 165t179.5 111.5t206 40q100 0 172 -44t118 -112zM520 209q77 0 142.5 39t109.5 105t55 147t-14 147t-79.5 105.5t-131.5 39.5
q-78 0 -147 -39.5t-115.5 -105.5t-57.5 -147t17.5 -147t86.5 -105t134 -39zM669 1088q-91 0 -160 45t-103.5 120.5t-22.5 166.5h152q-10 -74 36 -127t119 -53q74 0 134 52t71 128h152q-13 -93 -68.5 -168.5t-137 -119.5t-172.5 -44z" />
    <glyph glyph-name="Aogonek" unicode="&#x104;" horiz-adv-x="1458" 
d="M686 1400h281l313 -1400h-259l-56 248h-599l-125 -248h-259zM490 492h420l-130 577zM1094 -451q-70 0 -118 34t-69.5 88t-12.5 114q6 44 28.5 87t62.5 79l192 168l103 -119q-85 -74 -142.5 -125t-64.5 -99q-3 -24 11 -43.5t43 -20.5q38 0 70.5 27t37.5 69h156
q-10 -70 -52.5 -129t-106.5 -94.5t-138 -35.5z" />
    <glyph glyph-name="aogonek" unicode="&#x105;" horiz-adv-x="1198" 
d="M916 1000h244l-140 -1000h-244l6 124q-51 -68 -124 -109t-165 -41q-148 0 -259.5 72.5t-166.5 194.5t-33 270q14 107 67 200.5t133.5 165t179.5 111.5t206 40q100 0 172 -44t118 -112zM520 209q77 0 142.5 39t109.5 105t55 147t-14 147t-79.5 105.5t-131.5 39.5
q-78 0 -147 -39.5t-115.5 -105.5t-57.5 -147t17.5 -147t86.5 -105t134 -39zM834 -451q-70 0 -118 34t-69.5 88t-12.5 114q6 44 28.5 87t62.5 79l192 168l103 -119q-85 -74 -142.5 -125t-64.5 -99q-3 -24 11 -43.5t43 -20.5q38 0 70.5 27t37.5 69h156q-10 -70 -52.5 -129
t-106.5 -94.5t-138 -35.5z" />
    <glyph glyph-name="Cacute" unicode="&#x106;" horiz-adv-x="1418" 
d="M666 -26q-142 0 -259 56.5t-197.5 156.5t-115.5 231.5t-14 281.5q21 151 93 282.5t180.5 231t241.5 156t275 56.5q170 0 301.5 -79t208.5 -209l-235 -117q-49 73 -130 117t-179 44q-123 0 -233 -65.5t-185.5 -175t-93.5 -241.5q-19 -133 25.5 -242t136.5 -174.5
t214 -65.5q100 0 192.5 44.5t163.5 117.5l200 -118q-112 -131 -266 -209.5t-324 -78.5zM819 1510l120 288h244l-202 -288h-162z" />
    <glyph glyph-name="cacute" unicode="&#x107;" horiz-adv-x="1020" 
d="M685 301l202 -119q-83 -94 -194.5 -151t-234.5 -57q-138 0 -241.5 71t-154 190.5t-30.5 264.5q15 110 67.5 205.5t131.5 168t175.5 113.5t199.5 41q123 0 219 -57t152 -153l-237 -118q-62 84 -168 84q-73 0 -136.5 -39.5t-106 -104t-53.5 -140.5q-11 -75 14 -139.5
t77.5 -103.5t124.5 -39q52 0 102.5 22.5t90.5 60.5zM555 1110l120 288h244l-202 -288h-162z" />
    <glyph glyph-name="Ccircumflex" unicode="&#x108;" horiz-adv-x="1418" 
d="M666 -26q-142 0 -259 56.5t-197.5 156.5t-115.5 231.5t-14 281.5q21 151 93 282.5t180.5 231t241.5 156t275 56.5q170 0 301.5 -79t208.5 -209l-235 -117q-49 73 -130 117t-179 44q-123 0 -233 -65.5t-185.5 -175t-93.5 -241.5q-19 -133 25.5 -242t136.5 -174.5
t214 -65.5q100 0 192.5 44.5t163.5 117.5l200 -118q-112 -131 -266 -209.5t-324 -78.5zM1059 1798l154 -288h-163l-141 193l-192 -193h-163l231 288h274z" />
    <glyph glyph-name="ccircumflex" unicode="&#x109;" horiz-adv-x="1020" 
d="M685 301l202 -119q-83 -94 -194.5 -151t-234.5 -57q-138 0 -241.5 71t-154 190.5t-30.5 264.5q15 110 67.5 205.5t131.5 168t175.5 113.5t199.5 41q123 0 219 -57t152 -153l-237 -118q-62 84 -168 84q-73 0 -136.5 -39.5t-106 -104t-53.5 -140.5q-11 -75 14 -139.5
t77.5 -103.5t124.5 -39q52 0 102.5 22.5t90.5 60.5zM795 1398l154 -288h-163l-141 193l-192 -193h-163l231 288h274z" />
    <glyph glyph-name="Cdotaccent" unicode="&#x10a;" horiz-adv-x="1418" 
d="M666 -26q-142 0 -259 56.5t-197.5 156.5t-115.5 231.5t-14 281.5q21 151 93 282.5t180.5 231t241.5 156t275 56.5q170 0 301.5 -79t208.5 -209l-235 -117q-49 73 -130 117t-179 44q-123 0 -233 -65.5t-185.5 -175t-93.5 -241.5q-19 -133 25.5 -242t136.5 -174.5
t214 -65.5q100 0 192.5 44.5t163.5 117.5l200 -118q-112 -131 -266 -209.5t-324 -78.5zM886 1529q-54 0 -86 35.5t-24 89.5q8 53 49.5 89t95.5 36q52 0 83.5 -36t24.5 -89q-8 -54 -49 -89.5t-94 -35.5z" />
    <glyph glyph-name="cdotaccent" unicode="&#x10b;" horiz-adv-x="1020" 
d="M685 301l202 -119q-83 -94 -194.5 -151t-234.5 -57q-138 0 -241.5 71t-154 190.5t-30.5 264.5q15 110 67.5 205.5t131.5 168t175.5 113.5t199.5 41q123 0 219 -57t152 -153l-237 -118q-62 84 -168 84q-73 0 -136.5 -39.5t-106 -104t-53.5 -140.5q-11 -75 14 -139.5
t77.5 -103.5t124.5 -39q52 0 102.5 22.5t90.5 60.5zM622 1129q-54 0 -86 35.5t-24 89.5q8 53 49.5 89t95.5 36q52 0 83.5 -36t24.5 -89q-8 -54 -49 -89.5t-94 -35.5z" />
    <glyph glyph-name="Ccaron" unicode="&#x10c;" horiz-adv-x="1418" 
d="M666 -26q-142 0 -259 56.5t-197.5 156.5t-115.5 231.5t-14 281.5q21 151 93 282.5t180.5 231t241.5 156t275 56.5q170 0 301.5 -79t208.5 -209l-235 -117q-49 73 -130 117t-179 44q-123 0 -233 -65.5t-185.5 -175t-93.5 -241.5q-19 -133 25.5 -242t136.5 -174.5
t214 -65.5q100 0 192.5 44.5t163.5 117.5l200 -118q-112 -131 -266 -209.5t-324 -78.5zM746 1510l-154 288h163l141 -193l192 193h163l-231 -288h-274z" />
    <glyph glyph-name="ccaron" unicode="&#x10d;" horiz-adv-x="1020" 
d="M685 301l202 -119q-83 -94 -194.5 -151t-234.5 -57q-138 0 -241.5 71t-154 190.5t-30.5 264.5q15 110 67.5 205.5t131.5 168t175.5 113.5t199.5 41q123 0 219 -57t152 -153l-237 -118q-62 84 -168 84q-73 0 -136.5 -39.5t-106 -104t-53.5 -140.5q-11 -75 14 -139.5
t77.5 -103.5t124.5 -39q52 0 102.5 22.5t90.5 60.5zM482 1110l-154 288h163l141 -193l192 193h163l-231 -288h-274z" />
    <glyph glyph-name="Dcaron" unicode="&#x10e;" horiz-adv-x="1344" 
d="M22 0l196 1400h464q145 0 264 -54.5t202 -151t119.5 -223t16.5 -271.5q-21 -145 -93 -271.5t-181.5 -223t-244 -151t-279.5 -54.5h-464zM300 244h220q124 0 236 61.5t189 165t95 229.5q17 126 -30.5 229.5t-142.5 165t-220 61.5h-219zM630 1510l-154 288h163l141 -193
l192 193h163l-231 -288h-274z" />
    <glyph glyph-name="dcaron" unicode="&#x10f;" horiz-adv-x="1240" 
d="M988 1500h244l-210 -1500h-244l18 125q-58 -67 -137 -109t-175 -42q-145 0 -254.5 71t-163.5 190.5t-34 264.5q15 109 69.5 204.5t137 167.5t183.5 113t210 41q96 0 163 -41.5t106 -109.5zM520 209q77 0 142.5 39t109.5 105t55 147t-14 147t-79.5 105.5t-131.5 39.5
q-78 0 -147 -39.5t-115.5 -105.5t-57.5 -147t17.5 -147t86.5 -105t134 -39zM1249 1212l120 288h244l-202 -288h-162z" />
    <glyph glyph-name="Emacron" unicode="&#x112;" horiz-adv-x="1098" 
d="M22 0l196 1400h878l-34 -244h-634l-40 -284h503l-34 -244h-503l-54 -384h634l-34 -244h-878zM355 1727h676l-26 -183h-676z" />
    <glyph glyph-name="emacron" unicode="&#x113;" horiz-adv-x="1119" 
d="M458 -26q-138 0 -241.5 71t-154 190.5t-30.5 265.5q15 109 67.5 204.5t131.5 168t175.5 113.5t199.5 41q117 0 207.5 -49.5t146.5 -135t71.5 -195.5t-18.5 -231h-730q8 -84 61.5 -141t147.5 -58q63 0 120.5 31t99.5 85l241 -58q-80 -133 -212.5 -217.5t-282.5 -84.5z
M300 600h492q-5 90 -65 152.5t-150 62.5q-91 0 -168 -62t-109 -153zM310 1327h676l-26 -183h-676z" />
    <glyph glyph-name="Edotaccent" unicode="&#x116;" horiz-adv-x="1098" 
d="M22 0l196 1400h878l-34 -244h-634l-40 -284h503l-34 -244h-503l-54 -384h634l-34 -244h-878zM667 1529q-54 0 -86 35.5t-24 89.5q8 53 49.5 89t95.5 36q52 0 83.5 -36t24.5 -89q-8 -54 -49 -89.5t-94 -35.5z" />
    <glyph glyph-name="edotaccent" unicode="&#x117;" horiz-adv-x="1119" 
d="M458 -26q-138 0 -241.5 71t-154 190.5t-30.5 265.5q15 109 67.5 204.5t131.5 168t175.5 113.5t199.5 41q117 0 207.5 -49.5t146.5 -135t71.5 -195.5t-18.5 -231h-730q8 -84 61.5 -141t147.5 -58q63 0 120.5 31t99.5 85l241 -58q-80 -133 -212.5 -217.5t-282.5 -84.5z
M300 600h492q-5 90 -65 152.5t-150 62.5q-91 0 -168 -62t-109 -153zM622 1129q-54 0 -86 35.5t-24 89.5q8 53 49.5 89t95.5 36q52 0 83.5 -36t24.5 -89q-8 -54 -49 -89.5t-94 -35.5z" />
    <glyph glyph-name="Eogonek" unicode="&#x118;" horiz-adv-x="1098" 
d="M22 0l196 1400h878l-34 -244h-634l-40 -284h503l-34 -244h-503l-54 -384h634l-34 -244h-878zM606 -451q-70 0 -118 34t-69.5 88t-12.5 114q6 44 28.5 87t62.5 79l192 168l103 -119q-85 -74 -142.5 -125t-64.5 -99q-3 -24 11 -43.5t43 -20.5q38 0 70.5 27t37.5 69h156
q-10 -70 -52.5 -129t-106.5 -94.5t-138 -35.5z" />
    <glyph glyph-name="eogonek" unicode="&#x119;" horiz-adv-x="1119" 
d="M458 -26q-138 0 -241.5 71t-154 190.5t-30.5 265.5q15 109 67.5 204.5t131.5 168t175.5 113.5t199.5 41q117 0 207.5 -49.5t146.5 -135t71.5 -195.5t-18.5 -231h-730q8 -84 61.5 -141t147.5 -58q63 0 120.5 31t99.5 85l241 -58q-80 -133 -212.5 -217.5t-282.5 -84.5z
M300 600h492q-5 90 -65 152.5t-150 62.5q-91 0 -168 -62t-109 -153zM431 -451q-70 0 -118 34t-69.5 88t-12.5 114q6 44 28.5 87t62.5 79l192 168l103 -119q-85 -74 -142.5 -125t-64.5 -99q-3 -24 11 -43.5t43 -20.5q38 0 70.5 27t37.5 69h156q-10 -70 -52.5 -129
t-106.5 -94.5t-138 -35.5z" />
    <glyph glyph-name="Ecaron" unicode="&#x11a;" horiz-adv-x="1098" 
d="M22 0l196 1400h878l-34 -244h-634l-40 -284h503l-34 -244h-503l-54 -384h634l-34 -244h-878zM527 1510l-154 288h163l141 -193l192 193h163l-231 -288h-274z" />
    <glyph glyph-name="ecaron" unicode="&#x11b;" horiz-adv-x="1119" 
d="M458 -26q-138 0 -241.5 71t-154 190.5t-30.5 265.5q15 109 67.5 204.5t131.5 168t175.5 113.5t199.5 41q117 0 207.5 -49.5t146.5 -135t71.5 -195.5t-18.5 -231h-730q8 -84 61.5 -141t147.5 -58q63 0 120.5 31t99.5 85l241 -58q-80 -133 -212.5 -217.5t-282.5 -84.5z
M300 600h492q-5 90 -65 152.5t-150 62.5q-91 0 -168 -62t-109 -153zM481 1110l-154 288h163l141 -193l192 193h163l-231 -288h-274z" />
    <glyph glyph-name="Gcircumflex" unicode="&#x11c;" horiz-adv-x="1537" 
d="M666 -26q-146 0 -263 57t-196.5 157.5t-113.5 232t-13 281.5q22 158 97.5 290t186.5 229t243 150t268 53q151 0 283.5 -70.5t221.5 -217.5l-235 -117q-56 82 -136.5 122.5t-170.5 40.5q-118 0 -228.5 -63t-188.5 -172.5t-98 -249.5q-18 -133 27 -241.5t137.5 -173
t216.5 -64.5q125 0 244 76t193 210h-254l30 213h542q-18 -152 -89 -286.5t-180 -237.5t-243.5 -161t-280.5 -58zM1060 1798l154 -288h-163l-141 193l-192 -193h-163l231 288h274z" />
    <glyph glyph-name="gcircumflex" unicode="&#x11d;" horiz-adv-x="1226" 
d="M904 1000h244l-143 -1019q-15 -108 -71.5 -196.5t-141.5 -152t-188 -98t-211 -34.5q-106 0 -196.5 43t-154.5 117.5t-90 169.5l238 101q18 -83 85.5 -134t152.5 -51q77 0 149.5 28t123 80.5t60.5 126.5l20 141q-57 -66 -133.5 -107t-169.5 -41q-143 0 -251.5 71
t-161.5 190.5t-33 264.5q15 109 69 204.5t136 167.5t181.5 113t207.5 41q93 0 158 -40.5t104 -106.5zM514 209q76 0 141 39.5t108.5 106t55.5 145.5q11 80 -14 146.5t-79 106t-130 39.5t-143.5 -39.5t-113.5 -105.5t-57 -147t16.5 -147t84 -105t131.5 -39zM848 1398
l154 -288h-163l-141 193l-192 -193h-163l231 288h274z" />
    <glyph glyph-name="Gbreve" unicode="&#x11e;" horiz-adv-x="1537" 
d="M666 -26q-146 0 -263 57t-196.5 157.5t-113.5 232t-13 281.5q22 158 97.5 290t186.5 229t243 150t268 53q151 0 283.5 -70.5t221.5 -217.5l-235 -117q-56 82 -136.5 122.5t-170.5 40.5q-118 0 -228.5 -63t-188.5 -172.5t-98 -249.5q-18 -133 27 -241.5t137.5 -173
t216.5 -64.5q125 0 244 76t193 210h-254l30 213h542q-18 -152 -89 -286.5t-180 -237.5t-243.5 -161t-280.5 -58zM880 1488q-91 0 -160 45t-103.5 120.5t-22.5 166.5h152q-10 -74 36 -127t119 -53q74 0 134 52t71 128h152q-13 -93 -68.5 -168.5t-137 -119.5t-172.5 -44z" />
    <glyph glyph-name="gbreve" unicode="&#x11f;" horiz-adv-x="1226" 
d="M904 1000h244l-143 -1019q-15 -108 -71.5 -196.5t-141.5 -152t-188 -98t-211 -34.5q-106 0 -196.5 43t-154.5 117.5t-90 169.5l238 101q18 -83 85.5 -134t152.5 -51q77 0 149.5 28t123 80.5t60.5 126.5l20 141q-57 -66 -133.5 -107t-169.5 -41q-143 0 -251.5 71
t-161.5 190.5t-33 264.5q15 109 69 204.5t136 167.5t181.5 113t207.5 41q93 0 158 -40.5t104 -106.5zM514 209q76 0 141 39.5t108.5 106t55.5 145.5q11 80 -14 146.5t-79 106t-130 39.5t-143.5 -39.5t-113.5 -105.5t-57 -147t16.5 -147t84 -105t131.5 -39zM668 1088
q-91 0 -160 45t-103.5 120.5t-22.5 166.5h152q-10 -74 36 -127t119 -53q74 0 134 52t71 128h152q-13 -93 -68.5 -168.5t-137 -119.5t-172.5 -44z" />
    <glyph glyph-name="Gdotaccent" unicode="&#x120;" horiz-adv-x="1537" 
d="M666 -26q-146 0 -263 57t-196.5 157.5t-113.5 232t-13 281.5q22 158 97.5 290t186.5 229t243 150t268 53q151 0 283.5 -70.5t221.5 -217.5l-235 -117q-56 82 -136.5 122.5t-170.5 40.5q-118 0 -228.5 -63t-188.5 -172.5t-98 -249.5q-18 -133 27 -241.5t137.5 -173
t216.5 -64.5q125 0 244 76t193 210h-254l30 213h542q-18 -152 -89 -286.5t-180 -237.5t-243.5 -161t-280.5 -58zM887 1529q-54 0 -86 35.5t-24 89.5q8 53 49.5 89t95.5 36q52 0 83.5 -36t24.5 -89q-8 -54 -49 -89.5t-94 -35.5z" />
    <glyph glyph-name="gdotaccent" unicode="&#x121;" horiz-adv-x="1226" 
d="M904 1000h244l-143 -1019q-15 -108 -71.5 -196.5t-141.5 -152t-188 -98t-211 -34.5q-106 0 -196.5 43t-154.5 117.5t-90 169.5l238 101q18 -83 85.5 -134t152.5 -51q77 0 149.5 28t123 80.5t60.5 126.5l20 141q-57 -66 -133.5 -107t-169.5 -41q-143 0 -251.5 71
t-161.5 190.5t-33 264.5q15 109 69 204.5t136 167.5t181.5 113t207.5 41q93 0 158 -40.5t104 -106.5zM514 209q76 0 141 39.5t108.5 106t55.5 145.5q11 80 -14 146.5t-79 106t-130 39.5t-143.5 -39.5t-113.5 -105.5t-57 -147t16.5 -147t84 -105t131.5 -39zM675 1129
q-54 0 -86 35.5t-24 89.5q8 53 49.5 89t95.5 36q52 0 83.5 -36t24.5 -89q-8 -54 -49 -89.5t-94 -35.5z" />
    <glyph glyph-name="uni0122" unicode="&#x122;" horiz-adv-x="1537" 
d="M666 -26q-146 0 -263 57t-196.5 157.5t-113.5 232t-13 281.5q22 158 97.5 290t186.5 229t243 150t268 53q151 0 283.5 -70.5t221.5 -217.5l-235 -117q-56 82 -136.5 122.5t-170.5 40.5q-118 0 -228.5 -63t-188.5 -172.5t-98 -249.5q-18 -133 27 -241.5t137.5 -173
t216.5 -64.5q125 0 244 76t193 210h-254l30 213h542q-18 -152 -89 -286.5t-180 -237.5t-243.5 -161t-280.5 -58zM425 -441l109 338h244l-190 -338h-163z" />
    <glyph glyph-name="Hcircumflex" unicode="&#x124;" horiz-adv-x="1308" 
d="M1042 1400h244l-196 -1400h-244l88 628h-580l-88 -628h-244l196 1400h244l-74 -528h579zM944 1798l154 -288h-163l-141 193l-192 -193h-163l231 288h274z" />
    <glyph glyph-name="hcircumflex" unicode="&#x125;" horiz-adv-x="1117" 
d="M1027 632l-88 -632h-244l79 568q12 88 -42 150.5t-142 62.5q-59 0 -111.5 -28.5t-87.5 -77t-44 -107.5l-79 -568h-244l209 1500h244l-82 -589q59 54 134.5 85.5t157.5 31.5q109 0 191.5 -53.5t123 -143.5t25.5 -199zM904 1823l154 -288h-163l-141 193l-192 -193h-163
l231 288h274z" />
    <glyph glyph-name="Itilde" unicode="&#x128;" horiz-adv-x="544" 
d="M52 0l196 1400h244l-196 -1400h-244zM540 1505q-38 0 -84.5 26t-92 58t-80.5 51.5t-50 5.5q-30 -27 -22 -87l-147 -39q-17 78 5.5 142t74.5 102.5t126 38.5q37 0 81.5 -21.5t88.5 -50t78 -50t49 -21.5q31 0 34.5 29.5t-2.5 56.5l151 47q16 -82 -8.5 -147t-77.5 -103
t-124 -38z" />
    <glyph glyph-name="itilde" unicode="&#x129;" horiz-adv-x="484" 
d="M416 1084q-30 0 -66 21t-71.5 46.5t-63 41t-38.5 4.5q-23 -22 -17 -70l-115 -31q-18 93 28.5 159.5t132.5 66.5q28 0 63 -17t69 -39.5t60.5 -40t38.5 -17.5q23 0 26 23.5t-2 45.5l117 38q19 -99 -30.5 -165t-131.5 -66zM162 1000h244l-140 -1000h-244z" />
    <glyph glyph-name="Imacron" unicode="&#x12a;" horiz-adv-x="544" 
d="M52 0l196 1400h244l-196 -1400h-244zM78 1727h676l-26 -183h-676z" />
    <glyph glyph-name="imacron" unicode="&#x12b;" horiz-adv-x="484" 
d="M75 1327h484l-18 -183h-485zM162 1000h244l-140 -1000h-244z" />
    <glyph glyph-name="Iogonek" unicode="&#x12e;" horiz-adv-x="544" 
d="M52 0l196 1400h244l-196 -1400h-244zM110 -451q-70 0 -118 34t-69.5 88t-12.5 114q6 44 28.5 87t62.5 79l192 168l103 -119q-85 -74 -142.5 -125t-64.5 -99q-3 -24 11 -43.5t43 -20.5q38 0 70.5 27t37.5 69h156q-10 -70 -52.5 -129t-106.5 -94.5t-138 -35.5z" />
    <glyph glyph-name="iogonek" unicode="&#x12f;" horiz-adv-x="484" 
d="M162 1000h244l-140 -1000h-244zM304 1129q-54 0 -86 35.5t-24 89.5q8 53 49.5 89t95.5 36q52 0 83.5 -36t24.5 -89q-8 -54 -49 -89.5t-94 -35.5zM80 -451q-70 0 -118 34t-69.5 88t-12.5 114q6 44 28.5 87t62.5 79l192 168l103 -119q-85 -74 -142.5 -125t-64.5 -99
q-3 -24 11 -43.5t43 -20.5q38 0 70.5 27t37.5 69h156q-10 -70 -52.5 -129t-106.5 -94.5t-138 -35.5z" />
    <glyph glyph-name="Idotaccent" unicode="&#x130;" horiz-adv-x="544" 
d="M52 0l196 1400h244l-196 -1400h-244zM390 1529q-54 0 -86 35.5t-24 89.5q8 53 49.5 89t95.5 36q52 0 83.5 -36t24.5 -89q-8 -54 -49 -89.5t-94 -35.5z" />
    <glyph glyph-name="dotlessi" unicode="&#x131;" horiz-adv-x="484" 
d="M162 1000h244l-140 -1000h-244z" />
    <glyph glyph-name="IJ" unicode="&#x132;" horiz-adv-x="1432" 
d="M52 0l196 1400h244l-196 -1400h-244zM766 -26q-78 0 -147.5 26t-122.5 77l183 188q19 -19 49 -33t72 -14q55 0 104.5 28.5t83 75t41.5 101.5l137 977h244l-137 -977q-17 -123 -91.5 -225t-184 -163t-231.5 -61z" />
    <glyph glyph-name="ij" unicode="&#x133;" horiz-adv-x="968" 
d="M162 1000h244l-140 -1000h-244zM304 1129q-54 0 -86 35.5t-24 89.5q8 53 49.5 89t95.5 36q52 0 83.5 -36t24.5 -89q-8 -54 -49 -89.5t-94 -35.5zM232 -500l35 244q85 0 152 58t79 142l148 1056h244l-148 -1056q-17 -122 -91 -223t-184 -161t-235 -60zM788 1129
q-54 0 -86 35.5t-24 89.5q8 53 49.5 89t95.5 36q52 0 83.5 -36t24.5 -89q-8 -54 -49 -89.5t-94 -35.5z" />
    <glyph glyph-name="Jcircumflex" unicode="&#x134;" horiz-adv-x="888" 
d="M222 -26q-78 0 -147.5 26t-122.5 77l183 188q19 -19 49 -33t72 -14q55 0 104.5 28.5t83 75t41.5 101.5l137 977h244l-137 -977q-17 -123 -91.5 -225t-184 -163t-231.5 -61zM937 1798l154 -288h-163l-141 193l-192 -193h-163l231 288h274z" />
    <glyph glyph-name="jcircumflex" unicode="&#x135;" horiz-adv-x="487" 
d="M-249 -500l35 244q85 0 152 58t79 142l148 1056h244l-148 -1056q-17 -122 -91 -223t-184 -161t-235 -60zM480 1398l154 -288h-163l-141 193l-192 -193h-163l231 288h274z" />
    <glyph glyph-name="uni0136" unicode="&#x136;" horiz-adv-x="1173" 
d="M1045 0h-318l-316 549l-80 -81l-65 -468h-244l196 1400h244l-78 -553l541 553h319l-647 -660zM242 -441l109 338h244l-190 -338h-163z" />
    <glyph glyph-name="uni0137" unicode="&#x137;" horiz-adv-x="1071" 
d="M916 0h-281l-173 393l-164 -167l-31 -226h-244l210 1500h244l-126 -895l387 395h319l-400 -409zM189 -441l109 338h244l-190 -338h-163z" />
    <glyph glyph-name="Lacute" unicode="&#x139;" horiz-adv-x="1047" 
d="M22 0l196 1400h244l-162 -1156h583l-34 -244h-827zM293 1510l120 288h244l-202 -288h-162z" />
    <glyph glyph-name="lacute" unicode="&#x13a;" horiz-adv-x="485" 
d="M23 0l210 1500h244l-210 -1500h-244zM308 1610l120 288h244l-202 -288h-162z" />
    <glyph glyph-name="uni013B" unicode="&#x13b;" horiz-adv-x="1047" 
d="M22 0l196 1400h244l-162 -1156h583l-34 -244h-827zM189 -441l109 338h244l-190 -338h-163z" />
    <glyph glyph-name="uni013C" unicode="&#x13c;" horiz-adv-x="485" 
d="M23 0l210 1500h244l-210 -1500h-244zM-101 -441l109 338h244l-190 -338h-163z" />
    <glyph glyph-name="Lcaron" unicode="&#x13d;" horiz-adv-x="1047" 
d="M22 0l196 1400h244l-162 -1156h583l-34 -244h-827zM655 1212l120 288h244l-202 -288h-162z" />
    <glyph glyph-name="lcaron" unicode="&#x13e;" horiz-adv-x="485" 
d="M23 0l210 1500h244l-210 -1500h-244zM491 1212l120 288h244l-202 -288h-162z" />
    <glyph glyph-name="Nacute" unicode="&#x143;" horiz-adv-x="1339" 
d="M22 0l196 1400h264l457 -959l134 959h244l-196 -1400h-263l-458 959l-134 -959h-244zM720 1510l120 288h244l-202 -288h-162z" />
    <glyph glyph-name="nacute" unicode="&#x144;" horiz-adv-x="1116" 
d="M1026 632l-88 -632h-244l79 568q12 88 -42 150.5t-142 62.5q-59 0 -111.5 -28.5t-87.5 -77t-44 -107.5l-79 -568h-244l139 1000h244l-12 -89q59 54 134.5 85.5t157.5 31.5q109 0 191.5 -53.5t123 -143.5t25.5 -199zM588 1110l120 288h244l-202 -288h-162z" />
    <glyph glyph-name="uni0145" unicode="&#x145;" horiz-adv-x="1339" 
d="M22 0l196 1400h264l457 -959l134 959h244l-196 -1400h-263l-458 959l-134 -959h-244zM325 -441l109 338h244l-190 -338h-163z" />
    <glyph glyph-name="uni0146" unicode="&#x146;" horiz-adv-x="1116" 
d="M1026 632l-88 -632h-244l79 568q12 88 -42 150.5t-142 62.5q-59 0 -111.5 -28.5t-87.5 -77t-44 -107.5l-79 -568h-244l139 1000h244l-12 -89q59 54 134.5 85.5t157.5 31.5q109 0 191.5 -53.5t123 -143.5t25.5 -199zM234 -441l109 338h244l-190 -338h-163z" />
    <glyph glyph-name="Ncaron" unicode="&#x147;" horiz-adv-x="1339" 
d="M22 0l196 1400h264l457 -959l134 959h244l-196 -1400h-263l-458 959l-134 -959h-244zM647 1510l-154 288h163l141 -193l192 193h163l-231 -288h-274z" />
    <glyph glyph-name="ncaron" unicode="&#x148;" horiz-adv-x="1116" 
d="M1026 632l-88 -632h-244l79 568q12 88 -42 150.5t-142 62.5q-59 0 -111.5 -28.5t-87.5 -77t-44 -107.5l-79 -568h-244l139 1000h244l-12 -89q59 54 134.5 85.5t157.5 31.5q109 0 191.5 -53.5t123 -143.5t25.5 -199zM515 1110l-154 288h163l141 -193l192 193h163
l-231 -288h-274z" />
    <glyph glyph-name="Omacron" unicode="&#x14c;" horiz-adv-x="1540" 
d="M668 -26q-142 0 -259.5 56.5t-198 156.5t-116 231.5t-14.5 281.5t93 281.5t181.5 231.5t242.5 156.5t275 56.5q143 0 260 -56.5t197.5 -156.5t116 -231.5t14.5 -281.5t-93 -281.5t-181.5 -231.5t-242 -156.5t-275.5 -56.5zM702 218q123 0 233.5 65.5t186 175t94.5 241.5
t-26 241.5t-137 175t-215 65.5t-233.5 -65.5t-186 -175t-94.5 -241.5t26 -241.5t137 -175t215 -65.5zM576 1727h676l-26 -183h-676z" />
    <glyph glyph-name="omacron" unicode="&#x14d;" horiz-adv-x="1120" 
d="M458 -26q-138 0 -241.5 71t-154 190.5t-30.5 264.5q15 110 67.5 205.5t131.5 168t175.5 113.5t199.5 41q138 0 241.5 -71t154.5 -191t30 -266q-15 -109 -67.5 -204t-131.5 -167.5t-175 -113.5t-200 -41zM492 218q73 0 136.5 39t106 103t53.5 140q11 78 -14.5 142.5
t-78.5 103t-123 38.5q-72 0 -135.5 -39t-106.5 -104t-54 -141q-11 -79 15 -143t79 -101.5t122 -37.5zM310 1327h676l-26 -183h-676z" />
    <glyph glyph-name="Ohungarumlaut" unicode="&#x150;" horiz-adv-x="1540" 
d="M668 -26q-142 0 -259.5 56.5t-198 156.5t-116 231.5t-14.5 281.5t93 281.5t181.5 231.5t242.5 156.5t275 56.5q143 0 260 -56.5t197.5 -156.5t116 -231.5t14.5 -281.5t-93 -281.5t-181.5 -231.5t-242 -156.5t-275.5 -56.5zM702 218q123 0 233.5 65.5t186 175t94.5 241.5
t-26 241.5t-137 175t-215 65.5t-233.5 -65.5t-186 -175t-94.5 -241.5t26 -241.5t137 -175t215 -65.5zM998 1510l120 288h244l-202 -288h-162zM663 1510l120 288h244l-202 -288h-162z" />
    <glyph glyph-name="ohungarumlaut" unicode="&#x151;" horiz-adv-x="1120" 
d="M458 -26q-138 0 -241.5 71t-154 190.5t-30.5 264.5q15 110 67.5 205.5t131.5 168t175.5 113.5t199.5 41q138 0 241.5 -71t154.5 -191t30 -266q-15 -109 -67.5 -204t-131.5 -167.5t-175 -113.5t-200 -41zM492 218q73 0 136.5 39t106 103t53.5 140q11 78 -14.5 142.5
t-78.5 103t-123 38.5q-72 0 -135.5 -39t-106.5 -104t-54 -141q-11 -79 15 -143t79 -101.5t122 -37.5zM732 1110l120 288h244l-202 -288h-162zM397 1110l120 288h244l-202 -288h-162z" />
    <glyph glyph-name="OE" unicode="&#x152;" horiz-adv-x="2122" 
d="M668 -26q-142 0 -259.5 56.5t-198 156.5t-116 231.5t-14.5 281.5t93 281.5t181.5 231.5t242.5 156.5t275 56.5q133 0 241.5 -54.5t179.5 -145.5l24 174h803l-34 -244h-559l-47 -334h463l-34 -244h-463l-47 -334h559l-34 -244h-803l24 174q-96 -91 -220 -145.5t-257 -54.5
zM702 218q123 0 233.5 65.5t186 175t94.5 241.5t-26 241.5t-137 175t-215 65.5t-233.5 -65.5t-186 -175t-94.5 -241.5t26 -241.5t137 -175t215 -65.5z" />
    <glyph glyph-name="oe" unicode="&#x153;" horiz-adv-x="1874" 
d="M458 -26q-138 0 -241.5 71t-154 190.5t-30.5 264.5q15 110 67.5 205.5t131.5 168t175.5 113.5t199.5 41q116 0 207.5 -54t142.5 -142q77 88 183.5 142t222.5 54t206.5 -49t147 -134.5t71.5 -195.5t-19 -231h-729q8 -85 61.5 -142t147.5 -58q63 0 120.5 31t99.5 85
l240 -58q-79 -133 -211.5 -217.5t-282.5 -84.5q-116 0 -207.5 53.5t-142.5 142.5q-77 -89 -183.5 -142.5t-222.5 -53.5zM1055 601h492q-5 90 -64.5 152t-149.5 62q-92 0 -169 -61.5t-109 -152.5zM492 218q73 0 136.5 39t106 103t53.5 140q11 78 -14.5 142.5t-78.5 103
t-123 38.5q-72 0 -135.5 -39t-106.5 -104t-54 -141q-11 -79 15 -143t79 -101.5t122 -37.5z" />
    <glyph glyph-name="Racute" unicode="&#x154;" horiz-adv-x="1213" 
d="M22 0l196 1400h537q114 0 198 -57t124.5 -152.5t24.5 -211.5q-20 -142 -111 -249t-218 -151l255 -579h-281l-246 557h-157l-78 -557h-244zM378 801h265q78 0 142 56.5t75 137.5q12 82 -36 138.5t-126 56.5h-265zM544 1510l120 288h244l-202 -288h-162z" />
    <glyph glyph-name="racute" unicode="&#x155;" horiz-adv-x="770" 
d="M23 0l139 1000h244l-12 -89q59 54 134.5 85.5t157.5 31.5q54 0 108 -16l-131 -246q-35 15 -74 15q-59 0 -111.5 -28.5t-87.5 -77t-44 -107.5l-79 -568h-244zM435 1110l120 288h244l-202 -288h-162z" />
    <glyph glyph-name="uni0156" unicode="&#x156;" horiz-adv-x="1213" 
d="M22 0l196 1400h537q114 0 198 -57t124.5 -152.5t24.5 -211.5q-20 -142 -111 -249t-218 -151l255 -579h-281l-246 557h-157l-78 -557h-244zM378 801h265q78 0 142 56.5t75 137.5q12 82 -36 138.5t-126 56.5h-265zM259 -441l109 338h244l-190 -338h-163z" />
    <glyph glyph-name="uni0157" unicode="&#x157;" horiz-adv-x="770" 
d="M23 0l139 1000h244l-12 -89q59 54 134.5 85.5t157.5 31.5q54 0 108 -16l-131 -246q-35 15 -74 15q-59 0 -111.5 -28.5t-87.5 -77t-44 -107.5l-79 -568h-244zM-101 -441l109 338h244l-190 -338h-163z" />
    <glyph glyph-name="Rcaron" unicode="&#x158;" horiz-adv-x="1213" 
d="M22 0l196 1400h537q114 0 198 -57t124.5 -152.5t24.5 -211.5q-20 -142 -111 -249t-218 -151l255 -579h-281l-246 557h-157l-78 -557h-244zM378 801h265q78 0 142 56.5t75 137.5q12 82 -36 138.5t-126 56.5h-265zM471 1510l-154 288h163l141 -193l192 193h163l-231 -288
h-274z" />
    <glyph glyph-name="rcaron" unicode="&#x159;" horiz-adv-x="770" 
d="M23 0l139 1000h244l-12 -89q59 54 134.5 85.5t157.5 31.5q54 0 108 -16l-131 -246q-35 15 -74 15q-59 0 -111.5 -28.5t-87.5 -77t-44 -107.5l-79 -568h-244zM362 1110l-154 288h163l141 -193l192 193h163l-231 -288h-274z" />
    <glyph glyph-name="Sacute" unicode="&#x15a;" horiz-adv-x="1249" 
d="M522 -26q-116 0 -217.5 36.5t-172 105t-91.5 164.5l241 84q13 -60 90.5 -103t183.5 -43q73 0 139.5 22.5t111.5 63t53 94.5q7 55 -29 90.5t-96.5 56.5t-127.5 32q-146 23 -257 71t-167.5 133t-38.5 220q18 127 104.5 222.5t213 148t264.5 52.5q115 0 216.5 -36.5
t172.5 -105t93 -165.5l-242 -83q-13 61 -90.5 103t-183.5 42q-71 0 -138 -22.5t-112.5 -63t-53.5 -92.5q-9 -67 23.5 -101t93.5 -50t136 -28q137 -22 249 -74t172 -138.5t42 -211.5q-18 -128 -103.5 -223t-212 -148t-266.5 -53zM675 1510l120 288h244l-202 -288h-162z" />
    <glyph glyph-name="sacute" unicode="&#x15b;" horiz-adv-x="869" 
d="M314 -18q-116 8 -210 63t-125 151l219 88q13 -31 59 -63t113 -32q57 0 107 24t58 76q5 37 -18 57.5t-59.5 31t-72.5 19.5q-92 19 -168 59t-116.5 103.5t-27.5 153.5q14 99 76 171t152.5 111t188.5 39q119 0 211.5 -50t137.5 -139l-209 -114q-16 36 -57 63.5t-92 30.5
q-68 4 -119 -21.5t-60 -84.5q-5 -38 22 -56.5t68 -28.5t79 -22q83 -29 154.5 -71t110.5 -103t25 -146q-14 -97 -82 -169.5t-165.5 -110.5t-199.5 -30zM429 1110l120 288h244l-202 -288h-162z" />
    <glyph glyph-name="Scircumflex" unicode="&#x15c;" horiz-adv-x="1249" 
d="M522 -26q-116 0 -217.5 36.5t-172 105t-91.5 164.5l241 84q13 -60 90.5 -103t183.5 -43q73 0 139.5 22.5t111.5 63t53 94.5q7 55 -29 90.5t-96.5 56.5t-127.5 32q-146 23 -257 71t-167.5 133t-38.5 220q18 127 104.5 222.5t213 148t264.5 52.5q115 0 216.5 -36.5
t172.5 -105t93 -165.5l-242 -83q-13 61 -90.5 103t-183.5 42q-71 0 -138 -22.5t-112.5 -63t-53.5 -92.5q-9 -67 23.5 -101t93.5 -50t136 -28q137 -22 249 -74t172 -138.5t42 -211.5q-18 -128 -103.5 -223t-212 -148t-266.5 -53zM915 1798l154 -288h-163l-141 193l-192 -193
h-163l231 288h274z" />
    <glyph glyph-name="scircumflex" unicode="&#x15d;" horiz-adv-x="869" 
d="M314 -18q-116 8 -210 63t-125 151l219 88q13 -31 59 -63t113 -32q57 0 107 24t58 76q5 37 -18 57.5t-59.5 31t-72.5 19.5q-92 19 -168 59t-116.5 103.5t-27.5 153.5q14 99 76 171t152.5 111t188.5 39q119 0 211.5 -50t137.5 -139l-209 -114q-16 36 -57 63.5t-92 30.5
q-68 4 -119 -21.5t-60 -84.5q-5 -38 22 -56.5t68 -28.5t79 -22q83 -29 154.5 -71t110.5 -103t25 -146q-14 -97 -82 -169.5t-165.5 -110.5t-199.5 -30zM669 1398l154 -288h-163l-141 193l-192 -193h-163l231 288h274z" />
    <glyph glyph-name="Scedilla" unicode="&#x15e;" horiz-adv-x="1249" 
d="M522 -26q-116 0 -217.5 36.5t-172 105t-91.5 164.5l241 84q13 -60 90.5 -103t183.5 -43q73 0 139.5 22.5t111.5 63t53 94.5q7 55 -29 90.5t-96.5 56.5t-127.5 32q-146 23 -257 71t-167.5 133t-38.5 220q18 127 104.5 222.5t213 148t264.5 52.5q115 0 216.5 -36.5
t172.5 -105t93 -165.5l-242 -83q-13 61 -90.5 103t-183.5 42q-71 0 -138 -22.5t-112.5 -63t-53.5 -92.5q-9 -67 23.5 -101t93.5 -50t136 -28q137 -22 249 -74t172 -138.5t42 -211.5q-18 -128 -103.5 -223t-212 -148t-266.5 -53zM559 -376q-74 -19 -133 18t-68 108l129 33
q2 -19 19 -29.5t37 -4.5q21 5 33.5 23t10.5 38q-3 20 -18.5 28.5t-37.5 6.5l-129 -5l175 248l104 -66l-47 -65q72 -32 83 -115q8 -71 -37.5 -135t-120.5 -83z" />
    <glyph glyph-name="scedilla" unicode="&#x15f;" horiz-adv-x="869" 
d="M314 -18q-116 8 -210 63t-125 151l219 88q13 -31 59 -63t113 -32q57 0 107 24t58 76q5 37 -18 57.5t-59.5 31t-72.5 19.5q-92 19 -168 59t-116.5 103.5t-27.5 153.5q14 99 76 171t152.5 111t188.5 39q119 0 211.5 -50t137.5 -139l-209 -114q-16 36 -57 63.5t-92 30.5
q-68 4 -119 -21.5t-60 -84.5q-5 -38 22 -56.5t68 -28.5t79 -22q83 -29 154.5 -71t110.5 -103t25 -146q-14 -97 -82 -169.5t-165.5 -110.5t-199.5 -30zM349 -376q-74 -19 -133 18t-68 108l129 33q2 -19 19 -29.5t37 -4.5q21 5 33.5 23t10.5 38q-3 20 -18.5 28.5t-37.5 6.5
l-129 -5l175 248l104 -66l-47 -65q72 -32 83 -115q8 -71 -37.5 -135t-120.5 -83z" />
    <glyph glyph-name="Scaron" unicode="&#x160;" horiz-adv-x="1249" 
d="M522 -26q-116 0 -217.5 36.5t-172 105t-91.5 164.5l241 84q13 -60 90.5 -103t183.5 -43q73 0 139.5 22.5t111.5 63t53 94.5q7 55 -29 90.5t-96.5 56.5t-127.5 32q-146 23 -257 71t-167.5 133t-38.5 220q18 127 104.5 222.5t213 148t264.5 52.5q115 0 216.5 -36.5
t172.5 -105t93 -165.5l-242 -83q-13 61 -90.5 103t-183.5 42q-71 0 -138 -22.5t-112.5 -63t-53.5 -92.5q-9 -67 23.5 -101t93.5 -50t136 -28q137 -22 249 -74t172 -138.5t42 -211.5q-18 -128 -103.5 -223t-212 -148t-266.5 -53zM602 1510l-154 288h163l141 -193l192 193h163
l-231 -288h-274z" />
    <glyph glyph-name="scaron" unicode="&#x161;" horiz-adv-x="869" 
d="M314 -18q-116 8 -210 63t-125 151l219 88q13 -31 59 -63t113 -32q57 0 107 24t58 76q5 37 -18 57.5t-59.5 31t-72.5 19.5q-92 19 -168 59t-116.5 103.5t-27.5 153.5q14 99 76 171t152.5 111t188.5 39q119 0 211.5 -50t137.5 -139l-209 -114q-16 36 -57 63.5t-92 30.5
q-68 4 -119 -21.5t-60 -84.5q-5 -38 22 -56.5t68 -28.5t79 -22q83 -29 154.5 -71t110.5 -103t25 -146q-14 -97 -82 -169.5t-165.5 -110.5t-199.5 -30zM356 1110l-154 288h163l141 -193l192 193h163l-231 -288h-274z" />
    <glyph glyph-name="uni0162" unicode="&#x162;" horiz-adv-x="1260" 
d="M1278 1400l-35 -244h-428l-161 -1156h-244l161 1156h-427l34 244h1100zM486 -376q-74 -19 -133 18t-68 108l129 33q2 -19 19 -29.5t37 -4.5q21 5 33.5 23t10.5 38q-3 20 -18.5 28.5t-37.5 6.5l-129 -5l175 248l104 -66l-47 -65q72 -32 83 -115q8 -71 -37.5 -135
t-120.5 -83z" />
    <glyph glyph-name="uni0163" unicode="&#x163;" horiz-adv-x="716" 
d="M664 756h-194l-106 -756h-244l106 756h-148l34 244h148l44 314h244l-44 -314h194zM196 -376q-74 -19 -133 18t-68 108l129 33q2 -19 19 -29.5t37 -4.5q21 5 33.5 23t10.5 38q-3 20 -18.5 28.5t-37.5 6.5l-129 -5l175 248l104 -66l-47 -65q72 -32 83 -115
q8 -71 -37.5 -135t-120.5 -83z" />
    <glyph glyph-name="Tcaron" unicode="&#x164;" horiz-adv-x="1260" 
d="M1278 1400l-35 -244h-428l-161 -1156h-244l161 1156h-427l34 244h1100zM607 1510l-154 288h163l141 -193l192 193h163l-231 -288h-274z" />
    <glyph glyph-name="tcaron" unicode="&#x165;" horiz-adv-x="716" 
d="M664 756h-194l-106 -756h-244l106 756h-148l34 244h148l44 314h244l-44 -314h194zM603 1212l120 288h244l-202 -288h-162z" />
    <glyph glyph-name="Utilde" unicode="&#x168;" horiz-adv-x="1360" 
d="M579 -26q-168 0 -283 82t-165.5 220.5t-26.5 307.5l114 816h244l-114 -816q-14 -100 11.5 -183.5t89 -133t164.5 -49.5q102 0 179 49.5t125.5 132.5t62.5 184l114 816h244l-114 -816q-24 -169 -113.5 -307.5t-226.5 -220.5t-305 -82zM948 1505q-38 0 -84.5 26t-92 58
t-80.5 51.5t-50 5.5q-30 -27 -22 -87l-147 -39q-17 78 5.5 142t74.5 102.5t126 38.5q37 0 81.5 -21.5t88.5 -50t78 -50t49 -21.5q31 0 34.5 29.5t-2.5 56.5l151 47q16 -82 -8.5 -147t-77.5 -103t-124 -38z" />
    <glyph glyph-name="utilde" unicode="&#x169;" horiz-adv-x="1076" 
d="M34 370l88 630h244l-80 -566q-12 -88 42 -150.5t142 -62.5q59 0 111.5 28.5t88 77t43.5 107.5l80 566h244l-139 -1000h-244l11 91q-59 -54 -134.5 -85.5t-156.5 -31.5q-109 0 -191.5 53.5t-123.5 143.5t-25 199zM780 1107q-38 0 -84.5 26t-92 58t-80.5 51.5t-50 5.5
q-30 -27 -22 -87l-147 -39q-17 78 5.5 142t74.5 102.5t126 38.5q37 0 81.5 -21.5t88.5 -50t78 -50t49 -21.5q31 0 34.5 29.5t-2.5 56.5l151 47q16 -82 -8.5 -147t-77.5 -103t-124 -38z" />
    <glyph glyph-name="Umacron" unicode="&#x16a;" horiz-adv-x="1360" 
d="M579 -26q-168 0 -283 82t-165.5 220.5t-26.5 307.5l114 816h244l-114 -816q-14 -100 11.5 -183.5t89 -133t164.5 -49.5q102 0 179 49.5t125.5 132.5t62.5 184l114 816h244l-114 -816q-24 -169 -113.5 -307.5t-226.5 -220.5t-305 -82zM486 1727h676l-26 -183h-676z" />
    <glyph glyph-name="umacron" unicode="&#x16b;" horiz-adv-x="1076" 
d="M34 370l88 630h244l-80 -566q-12 -88 42 -150.5t142 -62.5q59 0 111.5 28.5t88 77t43.5 107.5l80 566h244l-139 -1000h-244l11 91q-59 -54 -134.5 -85.5t-156.5 -31.5q-109 0 -191.5 53.5t-123.5 143.5t-25 199zM317 1329h676l-26 -183h-676z" />
    <glyph glyph-name="Ubreve" unicode="&#x16c;" horiz-adv-x="1360" 
d="M579 -26q-168 0 -283 82t-165.5 220.5t-26.5 307.5l114 816h244l-114 -816q-14 -100 11.5 -183.5t89 -133t164.5 -49.5q102 0 179 49.5t125.5 132.5t62.5 184l114 816h244l-114 -816q-24 -169 -113.5 -307.5t-226.5 -220.5t-305 -82zM791 1488q-91 0 -160 45
t-103.5 120.5t-22.5 166.5h152q-10 -74 36 -127t119 -53q74 0 134 52t71 128h152q-13 -93 -68.5 -168.5t-137 -119.5t-172.5 -44z" />
    <glyph glyph-name="ubreve" unicode="&#x16d;" horiz-adv-x="1076" 
d="M34 370l88 630h244l-80 -566q-12 -88 42 -150.5t142 -62.5q59 0 111.5 28.5t88 77t43.5 107.5l80 566h244l-139 -1000h-244l11 91q-59 -54 -134.5 -85.5t-156.5 -31.5q-109 0 -191.5 53.5t-123.5 143.5t-25 199zM622 1090q-91 0 -160 45t-103.5 120.5t-22.5 166.5h152
q-10 -74 36 -127t119 -53q74 0 134 52t71 128h152q-13 -93 -68.5 -168.5t-137 -119.5t-172.5 -44z" />
    <glyph glyph-name="Uring" unicode="&#x16e;" horiz-adv-x="1360" 
d="M579 -26q-168 0 -283 82t-165.5 220.5t-26.5 307.5l114 816h244l-114 -816q-14 -100 11.5 -183.5t89 -133t164.5 -49.5q102 0 179 49.5t125.5 132.5t62.5 184l114 816h244l-114 -816q-24 -169 -113.5 -307.5t-226.5 -220.5t-305 -82zM787 1468q-76 0 -122.5 55.5
t-36.5 132.5q10 75 72.5 129.5t139.5 54.5q76 0 122.5 -54.5t36.5 -129.5q-11 -78 -73 -133t-139 -55zM804 1587q27 0 49.5 19.5t27.5 48.5q3 27 -14 46.5t-45 19.5q-27 0 -49.5 -19.5t-25.5 -46.5q-5 -29 12 -48.5t45 -19.5z" />
    <glyph glyph-name="uring" unicode="&#x16f;" horiz-adv-x="1076" 
d="M34 370l88 630h244l-80 -566q-12 -88 42 -150.5t142 -62.5q59 0 111.5 28.5t88 77t43.5 107.5l80 566h244l-139 -1000h-244l11 91q-59 -54 -134.5 -85.5t-156.5 -31.5q-109 0 -191.5 53.5t-123.5 143.5t-25 199zM619 1070q-76 0 -122.5 55.5t-36.5 132.5
q10 75 72.5 129.5t139.5 54.5q76 0 122.5 -54.5t36.5 -129.5q-11 -78 -73 -133t-139 -55zM636 1189q27 0 49.5 19.5t27.5 48.5q3 27 -14 46.5t-45 19.5q-27 0 -49.5 -19.5t-25.5 -46.5q-5 -29 12 -48.5t45 -19.5z" />
    <glyph glyph-name="Uhungarumlaut" unicode="&#x170;" horiz-adv-x="1360" 
d="M579 -26q-168 0 -283 82t-165.5 220.5t-26.5 307.5l114 816h244l-114 -816q-14 -100 11.5 -183.5t89 -133t164.5 -49.5q102 0 179 49.5t125.5 132.5t62.5 184l114 816h244l-114 -816q-24 -169 -113.5 -307.5t-226.5 -220.5t-305 -82zM908 1510l120 288h244l-202 -288
h-162zM573 1510l120 288h244l-202 -288h-162z" />
    <glyph glyph-name="uhungarumlaut" unicode="&#x171;" horiz-adv-x="1076" 
d="M34 370l88 630h244l-80 -566q-12 -88 42 -150.5t142 -62.5q59 0 111.5 28.5t88 77t43.5 107.5l80 566h244l-139 -1000h-244l11 91q-59 -54 -134.5 -85.5t-156.5 -31.5q-109 0 -191.5 53.5t-123.5 143.5t-25 199zM740 1112l120 288h244l-202 -288h-162zM405 1112l120 288
h244l-202 -288h-162z" />
    <glyph glyph-name="Uogonek" unicode="&#x172;" horiz-adv-x="1360" 
d="M579 -26q-168 0 -283 82t-165.5 220.5t-26.5 307.5l114 816h244l-114 -816q-14 -100 11.5 -183.5t89 -133t164.5 -49.5q102 0 179 49.5t125.5 132.5t62.5 184l114 816h244l-114 -816q-24 -169 -113.5 -307.5t-226.5 -220.5t-305 -82zM548 -455q-70 0 -118 34t-69.5 88
t-12.5 114q6 44 28.5 87t62.5 79l192 168l103 -119q-85 -74 -142.5 -125t-64.5 -99q-3 -24 11 -43.5t43 -20.5q38 0 70.5 27t37.5 69h156q-10 -70 -52.5 -129t-106.5 -94.5t-138 -35.5z" />
    <glyph glyph-name="uogonek" unicode="&#x173;" horiz-adv-x="1076" 
d="M34 370l88 630h244l-80 -566q-12 -88 42 -150.5t142 -62.5q59 0 111.5 28.5t88 77t43.5 107.5l80 566h244l-139 -1000h-244l11 91q-59 -54 -134.5 -85.5t-156.5 -31.5q-109 0 -191.5 53.5t-123.5 143.5t-25 199zM711 -449q-70 0 -118 34t-69.5 88t-12.5 114q6 44 28.5 87
t62.5 79l192 168l103 -119q-85 -74 -142.5 -125t-64.5 -99q-3 -24 11 -43.5t43 -20.5q38 0 70.5 27t37.5 69h156q-10 -70 -52.5 -129t-106.5 -94.5t-138 -35.5z" />
    <glyph glyph-name="Wcircumflex" unicode="&#x174;" horiz-adv-x="1865" 
d="M341 0l-162 1400h252l110 -957l378 957h223l110 -957l377 957h252l-552 -1400h-277l-98 848l-335 -848h-278zM1223 1798l154 -288h-163l-141 193l-192 -193h-163l231 288h274z" />
    <glyph glyph-name="wcircumflex" unicode="&#x175;" horiz-adv-x="1705" 
d="M538 0h-242l-194 1000h239l127 -647l306 647h241l125 -647l308 647h239l-474 -1000h-242l-125 650zM1087 1398l154 -288h-163l-141 193l-192 -193h-163l231 288h274z" />
    <glyph glyph-name="Ycircumflex" unicode="&#x176;" horiz-adv-x="1326" 
d="M1076 1400h288l-589 -769l-88 -631h-244l88 631l-373 769h288l244 -503zM953 1798l154 -288h-163l-141 193l-192 -193h-163l231 288h274z" />
    <glyph glyph-name="ycircumflex" unicode="&#x177;" horiz-adv-x="1145" 
d="M848 1000h259l-758 -1500h-259l252 500l-220 1000h267l121 -666zM807 1398l154 -288h-163l-141 193l-192 -193h-163l231 288h274z" />
    <glyph glyph-name="Ydieresis" unicode="&#x178;" horiz-adv-x="1326" 
d="M1076 1400h288l-589 -769l-88 -631h-244l88 631l-373 769h288l244 -503zM574 1470q-54 0 -86 35.5t-24 89.5q7 53 49 89.5t96 36.5q52 0 83.5 -36.5t24.5 -89.5q-8 -54 -49.5 -89.5t-93.5 -35.5zM970 1470q-54 0 -86 35.5t-25 89.5q8 53 50 89.5t96 36.5q52 0 84 -36.5
t24 -89.5q-8 -54 -49.5 -89.5t-93.5 -35.5z" />
    <glyph glyph-name="Zacute" unicode="&#x179;" horiz-adv-x="1292" 
d="M-18 0l34 244l930 912h-802l34 244h1132l-34 -244l-930 -912h802l-34 -244h-1132zM697 1510l120 288h244l-202 -288h-162z" />
    <glyph glyph-name="zacute" unicode="&#x17a;" horiz-adv-x="1014" 
d="M942 756l-575 -512h503l-34 -244h-854l34 244l575 512h-503l34 244h854zM502 1110l120 288h244l-202 -288h-162z" />
    <glyph glyph-name="Zdotaccent" unicode="&#x17b;" horiz-adv-x="1292" 
d="M-18 0l34 244l930 912h-802l34 244h1132l-34 -244l-930 -912h802l-34 -244h-1132zM764 1529q-54 0 -86 35.5t-24 89.5q8 53 49.5 89t95.5 36q52 0 83.5 -36t24.5 -89q-8 -54 -49 -89.5t-94 -35.5z" />
    <glyph glyph-name="zdotaccent" unicode="&#x17c;" horiz-adv-x="1014" 
d="M942 756l-575 -512h503l-34 -244h-854l34 244l575 512h-503l34 244h854zM569 1129q-54 0 -86 35.5t-24 89.5q8 53 49.5 89t95.5 36q52 0 83.5 -36t24.5 -89q-8 -54 -49 -89.5t-94 -35.5z" />
    <glyph glyph-name="Zcaron" unicode="&#x17d;" horiz-adv-x="1292" 
d="M-18 0l34 244l930 912h-802l34 244h1132l-34 -244l-930 -912h802l-34 -244h-1132zM624 1510l-154 288h163l141 -193l192 193h163l-231 -288h-274z" />
    <glyph glyph-name="zcaron" unicode="&#x17e;" horiz-adv-x="1014" 
d="M942 756l-575 -512h503l-34 -244h-854l34 244l575 512h-503l34 244h854zM429 1110l-154 288h163l141 -193l192 193h163l-231 -288h-274z" />
    <glyph glyph-name="uni01CD" unicode="&#x1cd;" horiz-adv-x="1458" 
d="M686 1400h281l313 -1400h-259l-56 248h-599l-125 -248h-259zM490 492h420l-130 577zM706 1510l-154 288h163l141 -193l192 193h163l-231 -288h-274z" />
    <glyph glyph-name="uni01CE" unicode="&#x1ce;" horiz-adv-x="1198" 
d="M916 1000h244l-140 -1000h-244l6 124q-51 -68 -124 -109t-165 -41q-148 0 -259.5 72.5t-166.5 194.5t-33 270q14 107 67 200.5t133.5 165t179.5 111.5t206 40q100 0 172 -44t118 -112zM520 209q77 0 142.5 39t109.5 105t55 147t-14 147t-79.5 105.5t-131.5 39.5
q-78 0 -147 -39.5t-115.5 -105.5t-57.5 -147t17.5 -147t86.5 -105t134 -39zM535 1110l-154 288h163l141 -193l192 193h163l-231 -288h-274z" />
    <glyph glyph-name="uni01CF" unicode="&#x1cf;" horiz-adv-x="544" 
d="M52 0l196 1400h244l-196 -1400h-244zM250 1510l-154 288h163l141 -193l192 193h163l-231 -288h-274z" />
    <glyph glyph-name="uni01D0" unicode="&#x1d0;" horiz-adv-x="484" 
d="M162 1000h244l-140 -1000h-244zM164 1110l-154 288h163l141 -193l192 193h163l-231 -288h-274z" />
    <glyph glyph-name="uni01D1" unicode="&#x1d1;" horiz-adv-x="1540" 
d="M668 -26q-142 0 -259.5 56.5t-198 156.5t-116 231.5t-14.5 281.5t93 281.5t181.5 231.5t242.5 156.5t275 56.5q143 0 260 -56.5t197.5 -156.5t116 -231.5t14.5 -281.5t-93 -281.5t-181.5 -231.5t-242 -156.5t-275.5 -56.5zM702 218q123 0 233.5 65.5t186 175t94.5 241.5
t-26 241.5t-137 175t-215 65.5t-233.5 -65.5t-186 -175t-94.5 -241.5t26 -241.5t137 -175t215 -65.5zM748 1510l-154 288h163l141 -193l192 193h163l-231 -288h-274z" />
    <glyph glyph-name="uni01D2" unicode="&#x1d2;" horiz-adv-x="1120" 
d="M458 -26q-138 0 -241.5 71t-154 190.5t-30.5 264.5q15 110 67.5 205.5t131.5 168t175.5 113.5t199.5 41q138 0 241.5 -71t154.5 -191t30 -266q-15 -109 -67.5 -204t-131.5 -167.5t-175 -113.5t-200 -41zM492 218q73 0 136.5 39t106 103t53.5 140q11 78 -14.5 142.5
t-78.5 103t-123 38.5q-72 0 -135.5 -39t-106.5 -104t-54 -141q-11 -79 15 -143t79 -101.5t122 -37.5zM482 1110l-154 288h163l141 -193l192 193h163l-231 -288h-274z" />
    <glyph glyph-name="uni01D3" unicode="&#x1d3;" horiz-adv-x="1360" 
d="M579 -26q-168 0 -283 82t-165.5 220.5t-26.5 307.5l114 816h244l-114 -816q-14 -100 11.5 -183.5t89 -133t164.5 -49.5q102 0 179 49.5t125.5 132.5t62.5 184l114 816h244l-114 -816q-24 -169 -113.5 -307.5t-226.5 -220.5t-305 -82zM657 1510l-154 288h163l141 -193
l192 193h163l-231 -288h-274z" />
    <glyph glyph-name="uni01D4" unicode="&#x1d4;" horiz-adv-x="1076" 
d="M34 370l88 630h244l-80 -566q-12 -88 42 -150.5t142 -62.5q59 0 111.5 28.5t88 77t43.5 107.5l80 566h244l-139 -1000h-244l11 91q-59 -54 -134.5 -85.5t-156.5 -31.5q-109 0 -191.5 53.5t-123.5 143.5t-25 199zM489 1112l-154 288h163l141 -193l192 193h163l-231 -288
h-274z" />
    <glyph glyph-name="uni01D5" unicode="&#x1d5;" horiz-adv-x="1360" 
d="M579 -26q-168 0 -283 82t-165.5 220.5t-26.5 307.5l114 816h244l-114 -816q-14 -100 11.5 -183.5t89 -133t164.5 -49.5q102 0 179 49.5t125.5 132.5t62.5 184l114 816h244l-114 -816q-24 -169 -113.5 -307.5t-226.5 -220.5t-305 -82zM591 1470q-54 0 -86 35.5t-24 89.5
q7 53 49 89.5t96 36.5q52 0 83.5 -36.5t24.5 -89.5q-8 -54 -49.5 -89.5t-93.5 -35.5zM987 1470q-54 0 -86 35.5t-25 89.5q8 53 50 89.5t96 36.5q52 0 84 -36.5t24 -89.5q-8 -54 -49.5 -89.5t-93.5 -35.5zM526 2010h676l-26 -183h-676z" />
    <glyph glyph-name="uni01D6" unicode="&#x1d6;" horiz-adv-x="1076" 
d="M34 370l88 630h244l-80 -566q-12 -88 42 -150.5t142 -62.5q59 0 111.5 28.5t88 77t43.5 107.5l80 566h244l-139 -1000h-244l11 91q-59 -54 -134.5 -85.5t-156.5 -31.5q-109 0 -191.5 53.5t-123.5 143.5t-25 199zM423 1072q-54 0 -86 35.5t-24 89.5q7 53 49 89.5t96 36.5
q52 0 83.5 -36.5t24.5 -89.5q-8 -54 -49.5 -89.5t-93.5 -35.5zM819 1072q-54 0 -86 35.5t-25 89.5q8 53 50 89.5t96 36.5q52 0 84 -36.5t24 -89.5q-8 -54 -49.5 -89.5t-93.5 -35.5zM357 1611h676l-26 -183h-676z" />
    <glyph glyph-name="uni01D7" unicode="&#x1d7;" horiz-adv-x="1360" 
d="M579 -26q-168 0 -283 82t-165.5 220.5t-26.5 307.5l114 816h244l-114 -816q-14 -100 11.5 -183.5t89 -133t164.5 -49.5q102 0 179 49.5t125.5 132.5t62.5 184l114 816h244l-114 -816q-24 -169 -113.5 -307.5t-226.5 -220.5t-305 -82zM591 1470q-54 0 -86 35.5t-24 89.5
q7 53 49 89.5t96 36.5q52 0 83.5 -36.5t24.5 -89.5q-8 -54 -49.5 -89.5t-93.5 -35.5zM987 1470q-54 0 -86 35.5t-25 89.5q8 53 50 89.5t96 36.5q52 0 84 -36.5t24 -89.5q-8 -54 -49.5 -89.5t-93.5 -35.5zM770 1793l120 288h244l-202 -288h-162z" />
    <glyph glyph-name="uni01D8" unicode="&#x1d8;" horiz-adv-x="1076" 
d="M34 370l88 630h244l-80 -566q-12 -88 42 -150.5t142 -62.5q59 0 111.5 28.5t88 77t43.5 107.5l80 566h244l-139 -1000h-244l11 91q-59 -54 -134.5 -85.5t-156.5 -31.5q-109 0 -191.5 53.5t-123.5 143.5t-25 199zM423 1072q-54 0 -86 35.5t-24 89.5q7 53 49 89.5t96 36.5
q52 0 83.5 -36.5t24.5 -89.5q-8 -54 -49.5 -89.5t-93.5 -35.5zM819 1072q-54 0 -86 35.5t-25 89.5q8 53 50 89.5t96 36.5q52 0 84 -36.5t24 -89.5q-8 -54 -49.5 -89.5t-93.5 -35.5zM602 1394l120 288h244l-202 -288h-162z" />
    <glyph glyph-name="uni01D9" unicode="&#x1d9;" horiz-adv-x="1360" 
d="M579 -26q-168 0 -283 82t-165.5 220.5t-26.5 307.5l114 816h244l-114 -816q-14 -100 11.5 -183.5t89 -133t164.5 -49.5q102 0 179 49.5t125.5 132.5t62.5 184l114 816h244l-114 -816q-24 -169 -113.5 -307.5t-226.5 -220.5t-305 -82zM591 1470q-54 0 -86 35.5t-24 89.5
q7 53 49 89.5t96 36.5q52 0 83.5 -36.5t24.5 -89.5q-8 -54 -49.5 -89.5t-93.5 -35.5zM987 1470q-54 0 -86 35.5t-25 89.5q8 53 50 89.5t96 36.5q52 0 84 -36.5t24 -89.5q-8 -54 -49.5 -89.5t-93.5 -35.5zM697 1793l-154 288h163l141 -193l192 193h163l-231 -288h-274z" />
    <glyph glyph-name="uni01DA" unicode="&#x1da;" horiz-adv-x="1076" 
d="M34 370l88 630h244l-80 -566q-12 -88 42 -150.5t142 -62.5q59 0 111.5 28.5t88 77t43.5 107.5l80 566h244l-139 -1000h-244l11 91q-59 -54 -134.5 -85.5t-156.5 -31.5q-109 0 -191.5 53.5t-123.5 143.5t-25 199zM423 1072q-54 0 -86 35.5t-24 89.5q7 53 49 89.5t96 36.5
q52 0 83.5 -36.5t24.5 -89.5q-8 -54 -49.5 -89.5t-93.5 -35.5zM819 1072q-54 0 -86 35.5t-25 89.5q8 53 50 89.5t96 36.5q52 0 84 -36.5t24 -89.5q-8 -54 -49.5 -89.5t-93.5 -35.5zM529 1394l-154 288h163l141 -193l192 193h163l-231 -288h-274z" />
    <glyph glyph-name="uni01DB" unicode="&#x1db;" horiz-adv-x="1360" 
d="M579 -26q-168 0 -283 82t-165.5 220.5t-26.5 307.5l114 816h244l-114 -816q-14 -100 11.5 -183.5t89 -133t164.5 -49.5q102 0 179 49.5t125.5 132.5t62.5 184l114 816h244l-114 -816q-24 -169 -113.5 -307.5t-226.5 -220.5t-305 -82zM591 1470q-54 0 -86 35.5t-24 89.5
q7 53 49 89.5t96 36.5q52 0 83.5 -36.5t24.5 -89.5q-8 -54 -49.5 -89.5t-93.5 -35.5zM987 1470q-54 0 -86 35.5t-25 89.5q8 53 50 89.5t96 36.5q52 0 84 -36.5t24 -89.5q-8 -54 -49.5 -89.5t-93.5 -35.5zM612 2081h244l40 -288h-163z" />
    <glyph glyph-name="uni01DC" unicode="&#x1dc;" horiz-adv-x="1076" 
d="M34 370l88 630h244l-80 -566q-12 -88 42 -150.5t142 -62.5q59 0 111.5 28.5t88 77t43.5 107.5l80 566h244l-139 -1000h-244l11 91q-59 -54 -134.5 -85.5t-156.5 -31.5q-109 0 -191.5 53.5t-123.5 143.5t-25 199zM423 1072q-54 0 -86 35.5t-24 89.5q7 53 49 89.5t96 36.5
q52 0 83.5 -36.5t24.5 -89.5q-8 -54 -49.5 -89.5t-93.5 -35.5zM819 1072q-54 0 -86 35.5t-25 89.5q8 53 50 89.5t96 36.5q52 0 84 -36.5t24 -89.5q-8 -54 -49.5 -89.5t-93.5 -35.5zM444 1682h244l40 -288h-163z" />
    <glyph glyph-name="uni01DE" unicode="&#x1de;" horiz-adv-x="1458" 
d="M686 1400h281l313 -1400h-259l-56 248h-599l-125 -248h-259zM490 492h420l-130 577zM640 1470q-54 0 -86 35.5t-24 89.5q7 53 49 89.5t96 36.5q52 0 83.5 -36.5t24.5 -89.5q-8 -54 -49.5 -89.5t-93.5 -35.5zM1036 1470q-54 0 -86 35.5t-25 89.5q8 53 50 89.5t96 36.5
q52 0 84 -36.5t24 -89.5q-8 -54 -49.5 -89.5t-93.5 -35.5zM574 2010h676l-26 -183h-676z" />
    <glyph glyph-name="uni01DF" unicode="&#x1df;" horiz-adv-x="1198" 
d="M916 1000h244l-140 -1000h-244l6 124q-51 -68 -124 -109t-165 -41q-148 0 -259.5 72.5t-166.5 194.5t-33 270q14 107 67 200.5t133.5 165t179.5 111.5t206 40q100 0 172 -44t118 -112zM520 209q77 0 142.5 39t109.5 105t55 147t-14 147t-79.5 105.5t-131.5 39.5
q-78 0 -147 -39.5t-115.5 -105.5t-57.5 -147t17.5 -147t86.5 -105t134 -39zM469 1070q-54 0 -86 35.5t-24 89.5q7 53 49 89.5t96 36.5q52 0 83.5 -36.5t24.5 -89.5q-8 -54 -49.5 -89.5t-93.5 -35.5zM865 1070q-54 0 -86 35.5t-25 89.5q8 53 50 89.5t96 36.5q52 0 84 -36.5
t24 -89.5q-8 -54 -49.5 -89.5t-93.5 -35.5zM403 1610h676l-26 -183h-676z" />
    <glyph glyph-name="uni01E2" unicode="&#x1e2;" horiz-adv-x="1678" 
d="M-18 0l704 1400h990l-34 -244h-494l-47 -334h398l-34 -244h-398l-47 -334h494l-34 -244h-738l35 248h-411l-125 -248h-259zM490 492h321l93 664h-80zM889 1727h676l-26 -183h-676z" />
    <glyph glyph-name="uni01E3" unicode="&#x1e3;" horiz-adv-x="1729" 
d="M255 -26q-94 0 -162 42.5t-100.5 113.5t-20.5 157q12 83 64 154.5t131.5 115t173.5 43.5h306q-1 76 -49 130t-136 54q-78 0 -149 -38l-106 203q136 79 286 79q108 0 195.5 -47t138.5 -131q76 81 177.5 129.5t211.5 48.5q118 0 208 -49.5t146 -135.5t71 -196t-18 -230
h-731q8 -85 62.5 -142t149.5 -57q63 0 119.5 31t98.5 85l241 -58q-80 -133 -212.5 -217.5t-282.5 -84.5q-122 0 -217 58t-146 154q-45 -56 -116 -104.5t-157 -78t-177 -29.5zM910 600h492q-5 90 -65 152.5t-151 62.5q-90 0 -167 -62t-109 -153zM286 188q75 0 141 33t114 86
q47 47 79 110h-304q-49 0 -85.5 -32.5t-42.5 -79.5q-6 -46 20 -81.5t78 -35.5zM556 1329h676l-26 -183h-676z" />
    <glyph glyph-name="Gcaron" unicode="&#x1e6;" horiz-adv-x="1537" 
d="M666 -26q-146 0 -263 57t-196.5 157.5t-113.5 232t-13 281.5q22 158 97.5 290t186.5 229t243 150t268 53q151 0 283.5 -70.5t221.5 -217.5l-235 -117q-56 82 -136.5 122.5t-170.5 40.5q-118 0 -228.5 -63t-188.5 -172.5t-98 -249.5q-18 -133 27 -241.5t137.5 -173
t216.5 -64.5q125 0 244 76t193 210h-254l30 213h542q-18 -152 -89 -286.5t-180 -237.5t-243.5 -161t-280.5 -58zM747 1510l-154 288h163l141 -193l192 193h163l-231 -288h-274z" />
    <glyph glyph-name="gcaron" unicode="&#x1e7;" horiz-adv-x="1226" 
d="M904 1000h244l-143 -1019q-15 -108 -71.5 -196.5t-141.5 -152t-188 -98t-211 -34.5q-106 0 -196.5 43t-154.5 117.5t-90 169.5l238 101q18 -83 85.5 -134t152.5 -51q77 0 149.5 28t123 80.5t60.5 126.5l20 141q-57 -66 -133.5 -107t-169.5 -41q-143 0 -251.5 71
t-161.5 190.5t-33 264.5q15 109 69 204.5t136 167.5t181.5 113t207.5 41q93 0 158 -40.5t104 -106.5zM514 209q76 0 141 39.5t108.5 106t55.5 145.5q11 80 -14 146.5t-79 106t-130 39.5t-143.5 -39.5t-113.5 -105.5t-57 -147t16.5 -147t84 -105t131.5 -39zM535 1110
l-154 288h163l141 -193l192 193h163l-231 -288h-274z" />
    <glyph glyph-name="uni01E8" unicode="&#x1e8;" horiz-adv-x="1173" 
d="M1045 0h-318l-316 549l-80 -81l-65 -468h-244l196 1400h244l-78 -553l541 553h319l-647 -660zM564 1510l-154 288h163l141 -193l192 193h163l-231 -288h-274z" />
    <glyph glyph-name="uni01E9" unicode="&#x1e9;" horiz-adv-x="1071" 
d="M916 0h-281l-173 393l-164 -167l-31 -226h-244l210 1500h244l-126 -895l387 395h319l-400 -409zM616 1510l-154 288h163l141 -193l192 193h163l-231 -288h-274z" />
    <glyph glyph-name="uni0218" unicode="&#x218;" horiz-adv-x="1249" 
d="M522 -26q-116 0 -217.5 36.5t-172 105t-91.5 164.5l241 84q13 -60 90.5 -103t183.5 -43q73 0 139.5 22.5t111.5 63t53 94.5q7 55 -29 90.5t-96.5 56.5t-127.5 32q-146 23 -257 71t-167.5 133t-38.5 220q18 127 104.5 222.5t213 148t264.5 52.5q115 0 216.5 -36.5
t172.5 -105t93 -165.5l-242 -83q-13 61 -90.5 103t-183.5 42q-71 0 -138 -22.5t-112.5 -63t-53.5 -92.5q-9 -67 23.5 -101t93.5 -50t136 -28q137 -22 249 -74t172 -138.5t42 -211.5q-18 -128 -103.5 -223t-212 -148t-266.5 -53zM359 -441l109 338h244l-190 -338h-163z" />
    <glyph glyph-name="uni0219" unicode="&#x219;" horiz-adv-x="869" 
d="M314 -18q-116 8 -210 63t-125 151l219 88q13 -31 59 -63t113 -32q57 0 107 24t58 76q5 37 -18 57.5t-59.5 31t-72.5 19.5q-92 19 -168 59t-116.5 103.5t-27.5 153.5q14 99 76 171t152.5 111t188.5 39q119 0 211.5 -50t137.5 -139l-209 -114q-16 36 -57 63.5t-92 30.5
q-68 4 -119 -21.5t-60 -84.5q-5 -38 22 -56.5t68 -28.5t79 -22q83 -29 154.5 -71t110.5 -103t25 -146q-14 -97 -82 -169.5t-165.5 -110.5t-199.5 -30zM149 -441l109 338h244l-190 -338h-163z" />
    <glyph glyph-name="uni021A" unicode="&#x21a;" horiz-adv-x="1260" 
d="M1278 1400l-35 -244h-428l-161 -1156h-244l161 1156h-427l34 244h1100zM286 -441l109 338h244l-190 -338h-163z" />
    <glyph glyph-name="uni021B" unicode="&#x21b;" horiz-adv-x="716" 
d="M664 756h-194l-106 -756h-244l106 756h-148l34 244h148l44 314h244l-44 -314h194zM-4 -441l109 338h244l-190 -338h-163z" />
    <glyph glyph-name="uni022A" unicode="&#x22a;" horiz-adv-x="1540" 
d="M668 -26q-142 0 -259.5 56.5t-198 156.5t-116 231.5t-14.5 281.5t93 281.5t181.5 231.5t242.5 156.5t275 56.5q143 0 260 -56.5t197.5 -156.5t116 -231.5t14.5 -281.5t-93 -281.5t-181.5 -231.5t-242 -156.5t-275.5 -56.5zM702 218q123 0 233.5 65.5t186 175t94.5 241.5
t-26 241.5t-137 175t-215 65.5t-233.5 -65.5t-186 -175t-94.5 -241.5t26 -241.5t137 -175t215 -65.5zM681 1470q-54 0 -86 35.5t-24 89.5q7 53 49 89.5t96 36.5q52 0 83.5 -36.5t24.5 -89.5q-8 -54 -49.5 -89.5t-93.5 -35.5zM1077 1470q-54 0 -86 35.5t-25 89.5
q8 53 50 89.5t96 36.5q52 0 84 -36.5t24 -89.5q-8 -54 -49.5 -89.5t-93.5 -35.5zM616 2010h676l-26 -183h-676z" />
    <glyph glyph-name="uni022B" unicode="&#x22b;" horiz-adv-x="1120" 
d="M458 -26q-138 0 -241.5 71t-154 190.5t-30.5 264.5q15 110 67.5 205.5t131.5 168t175.5 113.5t199.5 41q138 0 241.5 -71t154.5 -191t30 -266q-15 -109 -67.5 -204t-131.5 -167.5t-175 -113.5t-200 -41zM492 218q73 0 136.5 39t106 103t53.5 140q11 78 -14.5 142.5
t-78.5 103t-123 38.5q-72 0 -135.5 -39t-106.5 -104t-54 -141q-11 -79 15 -143t79 -101.5t122 -37.5zM415 1070q-54 0 -86 35.5t-24 89.5q7 53 49 89.5t96 36.5q52 0 83.5 -36.5t24.5 -89.5q-8 -54 -49.5 -89.5t-93.5 -35.5zM811 1070q-54 0 -86 35.5t-25 89.5q8 53 50 89.5
t96 36.5q52 0 84 -36.5t24 -89.5q-8 -54 -49.5 -89.5t-93.5 -35.5zM350 1610h676l-26 -183h-676z" />
    <glyph glyph-name="uni0232" unicode="&#x232;" horiz-adv-x="1326" 
d="M1076 1400h288l-589 -769l-88 -631h-244l88 631l-373 769h288l244 -503zM469 1727h676l-26 -183h-676z" />
    <glyph glyph-name="uni0233" unicode="&#x233;" horiz-adv-x="1145" 
d="M848 1000h259l-758 -1500h-259l252 500l-220 1000h267l121 -666zM323 1327h676l-26 -183h-676z" />
    <glyph glyph-name="uni0237" unicode="&#x237;" horiz-adv-x="487" 
d="M-249 -500l35 244q85 0 152 58t79 142l148 1056h244l-148 -1056q-17 -122 -91 -223t-184 -161t-235 -60z" />
    <glyph glyph-name="quoteleft" unicode="&#x2bb;" horiz-adv-x="406" 
d="M85 878l216 522h163l-135 -522h-244z" />
    <glyph glyph-name="quoteleft" unicode="&#x2018;" horiz-adv-x="406" 
d="M85 878l216 522h163l-135 -522h-244z" />
    <glyph glyph-name="uni02BC" unicode="&#x2bc;" horiz-adv-x="532" 
d="M65 878l135 522h244l-216 -522h-163z" />
    <glyph glyph-name="circumflex" unicode="&#x2c6;" horiz-adv-x="689" 
d="M578 1398l154 -288h-163l-141 193l-192 -193h-163l231 288h274z" />
    <glyph glyph-name="caron" unicode="&#x2c7;" horiz-adv-x="650" 
d="M248 1110l-154 288h163l141 -193l192 193h163l-231 -288h-274z" />
    <glyph glyph-name="breve" unicode="&#x2d8;" horiz-adv-x="1144" 
d="M627 1088q-91 0 -160 45t-103.5 120.5t-22.5 166.5h152q-10 -74 36 -127t119 -53q74 0 134 52t71 128h152q-13 -93 -68.5 -168.5t-137 -119.5t-172.5 -44z" />
    <glyph glyph-name="dotaccent" unicode="&#x2d9;" horiz-adv-x="1053" 
d="M588 1129q-54 0 -86 35.5t-24 89.5q8 53 49.5 89t95.5 36q52 0 83.5 -36t24.5 -89q-8 -54 -49 -89.5t-94 -35.5z" />
    <glyph glyph-name="ring" unicode="&#x2da;" horiz-adv-x="1171" 
d="M637 1068q-76 0 -122.5 55.5t-36.5 132.5q10 75 72.5 129.5t139.5 54.5q76 0 122.5 -54.5t36.5 -129.5q-11 -78 -73 -133t-139 -55zM654 1187q27 0 49.5 19.5t27.5 48.5q3 27 -14 46.5t-45 19.5q-27 0 -49.5 -19.5t-25.5 -46.5q-5 -29 12 -48.5t45 -19.5z" />
    <glyph glyph-name="ogonek" unicode="&#x2db;" horiz-adv-x="1094" 
d="M372 -451q-70 0 -118 34t-69.5 88t-12.5 114q6 44 28.5 87t62.5 79l192 168l103 -119q-85 -74 -142.5 -125t-64.5 -99q-3 -24 11 -43.5t43 -20.5q38 0 70.5 27t37.5 69h156q-10 -70 -52.5 -129t-106.5 -94.5t-138 -35.5z" />
    <glyph glyph-name="tilde" unicode="&#x2dc;" horiz-adv-x="1251" 
d="M849 1109q-38 0 -84.5 26t-92 58t-80.5 51.5t-50 5.5q-30 -27 -22 -87l-147 -39q-17 78 5.5 142t74.5 102.5t126 38.5q37 0 81.5 -21.5t88.5 -50t78 -50t49 -21.5q31 0 34.5 29.5t-2.5 56.5l151 47q16 -82 -8.5 -147t-77.5 -103t-124 -38z" />
    <glyph glyph-name="hungarumlaut" unicode="&#x2dd;" horiz-adv-x="1058" 
d="M594 1110l120 288h244l-202 -288h-162zM258 1110l120 288h244l-202 -288h-162z" />
    <glyph glyph-name="gravecomb" unicode="&#x300;" 
d="M390 1398h244l40 -288h-163z" />
    <glyph glyph-name="acutecomb" unicode="&#x301;" 
d="M473 1110l120 288h244l-202 -288h-162z" />
    <glyph glyph-name="uni0302" unicode="&#x302;" 
d="M578 1398l154 -288h-163l-141 193l-192 -193h-163l231 288h274z" />
    <glyph glyph-name="tildecomb" unicode="&#x303;" 
d="M854 1105q-38 0 -84.5 26t-92 58t-80.5 51.5t-50 5.5q-30 -27 -22 -87l-147 -39q-17 78 5.5 142t74.5 102.5t126 38.5q37 0 81.5 -21.5t88.5 -50t78 -50t49 -21.5q31 0 34.5 29.5t-2.5 56.5l151 47q16 -82 -8.5 -147t-77.5 -103t-124 -38z" />
    <glyph glyph-name="uni0304" unicode="&#x304;" 
d="M350 1327h676l-26 -183h-676z" />
    <glyph glyph-name="uni0306" unicode="&#x306;" 
d="M627 1088q-91 0 -160 45t-103.5 120.5t-22.5 166.5h152q-10 -74 36 -127t119 -53q74 0 134 52t71 128h152q-13 -93 -68.5 -168.5t-137 -119.5t-172.5 -44z" />
    <glyph glyph-name="uni0307" unicode="&#x307;" 
d="M588 1129q-54 0 -86 35.5t-24 89.5q8 53 49.5 89t95.5 36q52 0 83.5 -36t24.5 -89q-8 -54 -49 -89.5t-94 -35.5z" />
    <glyph glyph-name="uni0308" unicode="&#x308;" 
d="M580 1070q-54 0 -86 35.5t-24 89.5q7 53 49 89.5t96 36.5q52 0 83.5 -36.5t24.5 -89.5q-8 -54 -49.5 -89.5t-93.5 -35.5zM976 1070q-54 0 -86 35.5t-25 89.5q8 53 50 89.5t96 36.5q52 0 84 -36.5t24 -89.5q-8 -54 -49.5 -89.5t-93.5 -35.5z" />
    <glyph glyph-name="uni030A" unicode="&#x30a;" 
d="M637 1068q-76 0 -122.5 55.5t-36.5 132.5q10 75 72.5 129.5t139.5 54.5q76 0 122.5 -54.5t36.5 -129.5q-11 -78 -73 -133t-139 -55zM654 1187q27 0 49.5 19.5t27.5 48.5q3 27 -14 46.5t-45 19.5q-27 0 -49.5 -19.5t-25.5 -46.5q-5 -29 12 -48.5t45 -19.5z" />
    <glyph glyph-name="uni030B" unicode="&#x30b;" 
d="M594 1110l120 288h244l-202 -288h-162zM258 1110l120 288h244l-202 -288h-162z" />
    <glyph glyph-name="uni030C" unicode="&#x30c;" 
d="M248 1110l-154 288h163l141 -193l192 193h163l-231 -288h-274z" />
    <glyph glyph-name="dotbelowcomb" unicode="&#x323;" 
d="M588 -440q-54 0 -86 35.5t-24 89.5q8 53 49.5 89t95.5 36q52 0 83.5 -36t24.5 -89q-8 -54 -49 -89.5t-94 -35.5z" />
    <glyph glyph-name="uni0326" unicode="&#x326;" 
d="M240 -441l109 338h244l-190 -338h-163z" />
    <glyph glyph-name="uni0327" unicode="&#x327;" 
d="M469 -376q-74 -19 -133 18t-68 108l129 33q2 -19 19 -29.5t37 -4.5q21 5 33.5 23t10.5 38q-3 20 -18.5 28.5t-37.5 6.5l-129 -5l175 248l104 -66l-47 -65q72 -32 83 -115q8 -71 -37.5 -135t-120.5 -83z" />
    <glyph glyph-name="uni0328" unicode="&#x328;" 
d="M372 -451q-70 0 -118 34t-69.5 88t-12.5 114q6 44 28.5 87t62.5 79l192 168l103 -119q-85 -74 -142.5 -125t-64.5 -99q-3 -24 11 -43.5t43 -20.5q38 0 70.5 27t37.5 69h156q-10 -70 -52.5 -129t-106.5 -94.5t-138 -35.5z" />
    <glyph glyph-name="uni03BC" unicode="&#x3bc;" horiz-adv-x="1134" 
d="M-79 -432l201 1432h244l-72 -511q-16 -116 42.5 -198t169.5 -82q109 0 183.5 82t91.5 198l71 511h244l-140 -1000h-244l17 119q-59 -66 -134 -106.5t-163 -40.5q-62 0 -112.5 21t-86.5 56l-68 -481h-244z" />
    <glyph glyph-name="uni1E04" unicode="&#x1e04;" horiz-adv-x="1174" 
d="M22 0l196 1400h510q111 0 194 -45.5t124 -130t25 -199.5q-10 -77 -55 -152.5t-123 -105.5q63 -16 98.5 -58t50 -98t15 -115t-6.5 -109q-15 -111 -82.5 -198.5t-167 -138t-211.5 -50.5h-567zM387 858h238q73 0 132 46t70 123q11 80 -36 121.5t-120 41.5h-238zM295 209h298
q89 0 161 64t85 161q8 56 -14 106t-66.5 81t-103.5 31h-298zM430 -440q-54 0 -86 35.5t-24 89.5q8 53 49.5 89t95.5 36q52 0 83.5 -36t24.5 -89q-8 -54 -49 -89.5t-94 -35.5z" />
    <glyph glyph-name="uni1E05" unicode="&#x1e05;" horiz-adv-x="1241" 
d="M699 1028q146 0 256 -71t164.5 -190.5t33.5 -264.5q-15 -110 -69.5 -205.5t-137 -168t-184 -113.5t-211.5 -41q-95 0 -161.5 42.5t-104.5 110.5l-18 -127h-244l210 1500h244l-88 -625q58 68 136.5 110.5t173.5 42.5zM582 210q77 0 146.5 39.5t116.5 105.5t58 147
q11 80 -17.5 146.5t-86.5 105.5t-135 39t-142.5 -39.5t-109 -106t-54.5 -145.5q-11 -81 14 -147t79 -105.5t131 -39.5zM464 -440q-54 0 -86 35.5t-24 89.5q8 53 49.5 89t95.5 36q52 0 83.5 -36t24.5 -89q-8 -54 -49 -89.5t-94 -35.5z" />
    <glyph glyph-name="uni1E0C" unicode="&#x1e0c;" horiz-adv-x="1344" 
d="M22 0l196 1400h464q145 0 264 -54.5t202 -151t119.5 -223t16.5 -271.5q-21 -145 -93 -271.5t-181.5 -223t-244 -151t-279.5 -54.5h-464zM300 244h220q124 0 236 61.5t189 165t95 229.5q17 126 -30.5 229.5t-142.5 165t-220 61.5h-219zM500 -440q-54 0 -86 35.5t-24 89.5
q8 53 49.5 89t95.5 36q52 0 83.5 -36t24.5 -89q-8 -54 -49 -89.5t-94 -35.5z" />
    <glyph glyph-name="uni1E0D" unicode="&#x1e0d;" horiz-adv-x="1240" 
d="M988 1500h244l-210 -1500h-244l18 125q-58 -67 -137 -109t-175 -42q-145 0 -254.5 71t-163.5 190.5t-34 264.5q15 109 69.5 204.5t137 167.5t183.5 113t210 41q96 0 163 -41.5t106 -109.5zM520 209q77 0 142.5 39t109.5 105t55 147t-14 147t-79.5 105.5t-131.5 39.5
q-78 0 -147 -39.5t-115.5 -105.5t-57.5 -147t17.5 -147t86.5 -105t134 -39zM459 -440q-54 0 -86 35.5t-24 89.5q8 53 49.5 89t95.5 36q52 0 83.5 -36t24.5 -89q-8 -54 -49 -89.5t-94 -35.5z" />
    <glyph glyph-name="uni1E20" unicode="&#x1e20;" horiz-adv-x="1537" 
d="M666 -26q-146 0 -263 57t-196.5 157.5t-113.5 232t-13 281.5q22 158 97.5 290t186.5 229t243 150t268 53q151 0 283.5 -70.5t221.5 -217.5l-235 -117q-56 82 -136.5 122.5t-170.5 40.5q-118 0 -228.5 -63t-188.5 -172.5t-98 -249.5q-18 -133 27 -241.5t137.5 -173
t216.5 -64.5q125 0 244 76t193 210h-254l30 213h542q-18 -152 -89 -286.5t-180 -237.5t-243.5 -161t-280.5 -58zM575 1727h676l-26 -183h-676z" />
    <glyph glyph-name="uni1E21" unicode="&#x1e21;" horiz-adv-x="1226" 
d="M904 1000h244l-143 -1019q-15 -108 -71.5 -196.5t-141.5 -152t-188 -98t-211 -34.5q-106 0 -196.5 43t-154.5 117.5t-90 169.5l238 101q18 -83 85.5 -134t152.5 -51q77 0 149.5 28t123 80.5t60.5 126.5l20 141q-57 -66 -133.5 -107t-169.5 -41q-143 0 -251.5 71
t-161.5 190.5t-33 264.5q15 109 69 204.5t136 167.5t181.5 113t207.5 41q93 0 158 -40.5t104 -106.5zM514 209q76 0 141 39.5t108.5 106t55.5 145.5q11 80 -14 146.5t-79 106t-130 39.5t-143.5 -39.5t-113.5 -105.5t-57 -147t16.5 -147t84 -105t131.5 -39zM363 1327h676
l-26 -183h-676z" />
    <glyph glyph-name="uni1E24" unicode="&#x1e24;" horiz-adv-x="1308" 
d="M1042 1400h244l-196 -1400h-244l88 628h-580l-88 -628h-244l196 1400h244l-74 -528h579zM497 -440q-54 0 -86 35.5t-24 89.5q8 53 49.5 89t95.5 36q52 0 83.5 -36t24.5 -89q-8 -54 -49 -89.5t-94 -35.5z" />
    <glyph glyph-name="uni1E25" unicode="&#x1e25;" horiz-adv-x="1117" 
d="M1027 632l-88 -632h-244l79 568q12 88 -42 150.5t-142 62.5q-59 0 -111.5 -28.5t-87.5 -77t-44 -107.5l-79 -568h-244l209 1500h244l-82 -589q59 54 134.5 85.5t157.5 31.5q109 0 191.5 -53.5t123 -143.5t25.5 -199zM453 -440q-54 0 -86 35.5t-24 89.5q8 53 49.5 89
t95.5 36q52 0 83.5 -36t24.5 -89q-8 -54 -49 -89.5t-94 -35.5z" />
    <glyph glyph-name="uni1E2E" unicode="&#x1e2e;" horiz-adv-x="544" 
d="M52 0l196 1400h244l-196 -1400h-244zM183 1470q-54 0 -86 35.5t-24 89.5q7 53 49 89.5t96 36.5q52 0 83.5 -36.5t24.5 -89.5q-8 -54 -49.5 -89.5t-93.5 -35.5zM579 1470q-54 0 -86 35.5t-25 89.5q8 53 50 89.5t96 36.5q52 0 84 -36.5t24 -89.5q-8 -54 -49.5 -89.5
t-93.5 -35.5zM362 1793l120 288h244l-202 -288h-162z" />
    <glyph glyph-name="uni1E2F" unicode="&#x1e2f;" horiz-adv-x="484" 
d="M162 1000h244l-140 -1000h-244zM97 1070q-54 0 -86 35.5t-24 89.5q7 53 49 89.5t96 36.5q52 0 83.5 -36.5t24.5 -89.5q-8 -54 -49.5 -89.5t-93.5 -35.5zM493 1070q-54 0 -86 35.5t-25 89.5q8 53 50 89.5t96 36.5q52 0 84 -36.5t24 -89.5q-8 -54 -49.5 -89.5t-93.5 -35.5z
M276 1393l120 288h244l-202 -288h-162z" />
    <glyph glyph-name="uni1E36" unicode="&#x1e36;" horiz-adv-x="1047" 
d="M22 0l196 1400h244l-162 -1156h583l-34 -244h-827zM376 -440q-54 0 -86 35.5t-24 89.5q8 53 49.5 89t95.5 36q52 0 83.5 -36t24.5 -89q-8 -54 -49 -89.5t-94 -35.5z" />
    <glyph glyph-name="uni1E37" unicode="&#x1e37;" horiz-adv-x="485" 
d="M23 0l210 1500h244l-210 -1500h-244zM86 -440q-54 0 -86 35.5t-24 89.5q8 53 49.5 89t95.5 36q52 0 83.5 -36t24.5 -89q-8 -54 -49 -89.5t-94 -35.5z" />
    <glyph glyph-name="uni1E3E" unicode="&#x1e3e;" horiz-adv-x="1870" 
d="M22 0l468 1400h202l215 -897l467 897h202l76 -1400h-249l-46 866l-433 -834h-166l-199 834l-288 -866h-249zM986 1510l120 288h244l-202 -288h-162z" />
    <glyph glyph-name="uni1E3F" unicode="&#x1e3f;" horiz-adv-x="1777" 
d="M22 0l140 1000h244l-12 -89q59 54 134 85.5t157 31.5q104 0 184.5 -49t121.5 -131q64 82 158 131t198 49q109 0 191.5 -53.5t123.5 -143.5t25 -199l-88 -632h-244l80 567q12 87 -41.5 150.5t-140.5 63.5q-88 0 -158 -62t-83 -152l-80 -567h-244l80 567q13 90 -40.5 152
t-141.5 62q-58 0 -110 -29.5t-87 -78t-43 -106.5l-80 -567h-244zM965 1110l120 288h244l-202 -288h-162z" />
    <glyph glyph-name="uni1E40" unicode="&#x1e40;" horiz-adv-x="1870" 
d="M22 0l468 1400h202l215 -897l467 897h202l76 -1400h-249l-46 866l-433 -834h-166l-199 834l-288 -866h-249zM1053 1529q-54 0 -86 35.5t-24 89.5q8 53 49.5 89t95.5 36q52 0 83.5 -36t24.5 -89q-8 -54 -49 -89.5t-94 -35.5z" />
    <glyph glyph-name="uni1E41" unicode="&#x1e41;" horiz-adv-x="1777" 
d="M22 0l140 1000h244l-12 -89q59 54 134 85.5t157 31.5q104 0 184.5 -49t121.5 -131q64 82 158 131t198 49q109 0 191.5 -53.5t123.5 -143.5t25 -199l-88 -632h-244l80 567q12 87 -41.5 150.5t-140.5 63.5q-88 0 -158 -62t-83 -152l-80 -567h-244l80 567q13 90 -40.5 152
t-141.5 62q-58 0 -110 -29.5t-87 -78t-43 -106.5l-80 -567h-244zM1032 1129q-54 0 -86 35.5t-24 89.5q8 53 49.5 89t95.5 36q52 0 83.5 -36t24.5 -89q-8 -54 -49 -89.5t-94 -35.5z" />
    <glyph glyph-name="uni1E42" unicode="&#x1e42;" horiz-adv-x="1870" 
d="M22 0l468 1400h202l215 -897l467 897h202l76 -1400h-249l-46 866l-433 -834h-166l-199 834l-288 -866h-249zM778 -440q-54 0 -86 35.5t-24 89.5q8 53 49.5 89t95.5 36q52 0 83.5 -36t24.5 -89q-8 -54 -49 -89.5t-94 -35.5z" />
    <glyph glyph-name="uni1E43" unicode="&#x1e43;" horiz-adv-x="1777" 
d="M22 0l140 1000h244l-12 -89q59 54 134 85.5t157 31.5q104 0 184.5 -49t121.5 -131q64 82 158 131t198 49q109 0 191.5 -53.5t123.5 -143.5t25 -199l-88 -632h-244l80 567q12 87 -41.5 150.5t-140.5 63.5q-88 0 -158 -62t-83 -152l-80 -567h-244l80 567q13 90 -40.5 152
t-141.5 62q-58 0 -110 -29.5t-87 -78t-43 -106.5l-80 -567h-244zM751 -440q-54 0 -86 35.5t-24 89.5q8 53 49.5 89t95.5 36q52 0 83.5 -36t24.5 -89q-8 -54 -49 -89.5t-94 -35.5z" />
    <glyph glyph-name="uni1E44" unicode="&#x1e44;" horiz-adv-x="1339" 
d="M22 0l196 1400h264l457 -959l134 959h244l-196 -1400h-263l-458 959l-134 -959h-244zM787 1529q-54 0 -86 35.5t-24 89.5q8 53 49.5 89t95.5 36q52 0 83.5 -36t24.5 -89q-8 -54 -49 -89.5t-94 -35.5z" />
    <glyph glyph-name="uni1E45" unicode="&#x1e45;" horiz-adv-x="1116" 
d="M1026 632l-88 -632h-244l79 568q12 88 -42 150.5t-142 62.5q-59 0 -111.5 -28.5t-87.5 -77t-44 -107.5l-79 -568h-244l139 1000h244l-12 -89q59 54 134.5 85.5t157.5 31.5q109 0 191.5 -53.5t123 -143.5t25.5 -199zM655 1129q-54 0 -86 35.5t-24 89.5q8 53 49.5 89
t95.5 36q52 0 83.5 -36t24.5 -89q-8 -54 -49 -89.5t-94 -35.5z" />
    <glyph glyph-name="uni1E46" unicode="&#x1e46;" horiz-adv-x="1339" 
d="M22 0l196 1400h264l457 -959l134 959h244l-196 -1400h-263l-458 959l-134 -959h-244zM512 -440q-54 0 -86 35.5t-24 89.5q8 53 49.5 89t95.5 36q52 0 83.5 -36t24.5 -89q-8 -54 -49 -89.5t-94 -35.5z" />
    <glyph glyph-name="uni1E47" unicode="&#x1e47;" horiz-adv-x="1116" 
d="M1026 632l-88 -632h-244l79 568q12 88 -42 150.5t-142 62.5q-59 0 -111.5 -28.5t-87.5 -77t-44 -107.5l-79 -568h-244l139 1000h244l-12 -89q59 54 134.5 85.5t157.5 31.5q109 0 191.5 -53.5t123 -143.5t25.5 -199zM421 -440q-54 0 -86 35.5t-24 89.5q8 53 49.5 89
t95.5 36q52 0 83.5 -36t24.5 -89q-8 -54 -49 -89.5t-94 -35.5z" />
    <glyph glyph-name="uni1E62" unicode="&#x1e62;" horiz-adv-x="1249" 
d="M522 -26q-116 0 -217.5 36.5t-172 105t-91.5 164.5l241 84q13 -60 90.5 -103t183.5 -43q73 0 139.5 22.5t111.5 63t53 94.5q7 55 -29 90.5t-96.5 56.5t-127.5 32q-146 23 -257 71t-167.5 133t-38.5 220q18 127 104.5 222.5t213 148t264.5 52.5q115 0 216.5 -36.5
t172.5 -105t93 -165.5l-242 -83q-13 61 -90.5 103t-183.5 42q-71 0 -138 -22.5t-112.5 -63t-53.5 -92.5q-9 -67 23.5 -101t93.5 -50t136 -28q137 -22 249 -74t172 -138.5t42 -211.5q-18 -128 -103.5 -223t-212 -148t-266.5 -53zM546 -440q-54 0 -86 35.5t-24 89.5
q8 53 49.5 89t95.5 36q52 0 83.5 -36t24.5 -89q-8 -54 -49 -89.5t-94 -35.5z" />
    <glyph glyph-name="uni1E63" unicode="&#x1e63;" horiz-adv-x="869" 
d="M314 -18q-116 8 -210 63t-125 151l219 88q13 -31 59 -63t113 -32q57 0 107 24t58 76q5 37 -18 57.5t-59.5 31t-72.5 19.5q-92 19 -168 59t-116.5 103.5t-27.5 153.5q14 99 76 171t152.5 111t188.5 39q119 0 211.5 -50t137.5 -139l-209 -114q-16 36 -57 63.5t-92 30.5
q-68 4 -119 -21.5t-60 -84.5q-5 -38 22 -56.5t68 -28.5t79 -22q83 -29 154.5 -71t110.5 -103t25 -146q-14 -97 -82 -169.5t-165.5 -110.5t-199.5 -30zM336 -440q-54 0 -86 35.5t-24 89.5q8 53 49.5 89t95.5 36q52 0 83.5 -36t24.5 -89q-8 -54 -49 -89.5t-94 -35.5z" />
    <glyph glyph-name="uni1E6C" unicode="&#x1e6c;" horiz-adv-x="1260" 
d="M1278 1400l-35 -244h-428l-161 -1156h-244l161 1156h-427l34 244h1100zM473 -440q-54 0 -86 35.5t-24 89.5q8 53 49.5 89t95.5 36q52 0 83.5 -36t24.5 -89q-8 -54 -49 -89.5t-94 -35.5z" />
    <glyph glyph-name="uni1E6D" unicode="&#x1e6d;" horiz-adv-x="716" 
d="M664 756h-194l-106 -756h-244l106 756h-148l34 244h148l44 314h244l-44 -314h194zM183 -440q-54 0 -86 35.5t-24 89.5q8 53 49.5 89t95.5 36q52 0 83.5 -36t24.5 -89q-8 -54 -49 -89.5t-94 -35.5z" />
    <glyph glyph-name="Wgrave" unicode="&#x1e80;" horiz-adv-x="1865" 
d="M341 0l-162 1400h252l110 -957l378 957h223l110 -957l377 957h252l-552 -1400h-277l-98 848l-335 -848h-278zM825 1798h244l40 -288h-163z" />
    <glyph glyph-name="wgrave" unicode="&#x1e81;" horiz-adv-x="1705" 
d="M538 0h-242l-194 1000h239l127 -647l306 647h241l125 -647l308 647h239l-474 -1000h-242l-125 650zM689 1398h244l40 -288h-163z" />
    <glyph glyph-name="Wacute" unicode="&#x1e82;" horiz-adv-x="1865" 
d="M341 0l-162 1400h252l110 -957l378 957h223l110 -957l377 957h252l-552 -1400h-277l-98 848l-335 -848h-278zM983 1510l120 288h244l-202 -288h-162z" />
    <glyph glyph-name="wacute" unicode="&#x1e83;" horiz-adv-x="1705" 
d="M538 0h-242l-194 1000h239l127 -647l306 647h241l125 -647l308 647h239l-474 -1000h-242l-125 650zM847 1110l120 288h244l-202 -288h-162z" />
    <glyph glyph-name="Wdieresis" unicode="&#x1e84;" horiz-adv-x="1865" 
d="M341 0l-162 1400h252l110 -957l378 957h223l110 -957l377 957h252l-552 -1400h-277l-98 848l-335 -848h-278zM844 1470q-54 0 -86 35.5t-24 89.5q7 53 49 89.5t96 36.5q52 0 83.5 -36.5t24.5 -89.5q-8 -54 -49.5 -89.5t-93.5 -35.5zM1240 1470q-54 0 -86 35.5t-25 89.5
q8 53 50 89.5t96 36.5q52 0 84 -36.5t24 -89.5q-8 -54 -49.5 -89.5t-93.5 -35.5z" />
    <glyph glyph-name="wdieresis" unicode="&#x1e85;" horiz-adv-x="1705" 
d="M538 0h-242l-194 1000h239l127 -647l306 647h241l125 -647l308 647h239l-474 -1000h-242l-125 650zM708 1070q-54 0 -86 35.5t-24 89.5q7 53 49 89.5t96 36.5q52 0 83.5 -36.5t24.5 -89.5q-8 -54 -49.5 -89.5t-93.5 -35.5zM1104 1070q-54 0 -86 35.5t-25 89.5
q8 53 50 89.5t96 36.5q52 0 84 -36.5t24 -89.5q-8 -54 -49.5 -89.5t-93.5 -35.5z" />
    <glyph glyph-name="uni1E92" unicode="&#x1e92;" horiz-adv-x="1292" 
d="M-18 0l34 244l930 912h-802l34 244h1132l-34 -244l-930 -912h802l-34 -244h-1132zM489 -440q-54 0 -86 35.5t-24 89.5q8 53 49.5 89t95.5 36q52 0 83.5 -36t24.5 -89q-8 -54 -49 -89.5t-94 -35.5z" />
    <glyph glyph-name="uni1E93" unicode="&#x1e93;" horiz-adv-x="1014" 
d="M942 756l-575 -512h503l-34 -244h-854l34 244l575 512h-503l34 244h854zM350 -440q-54 0 -86 35.5t-24 89.5q8 53 49.5 89t95.5 36q52 0 83.5 -36t24.5 -89q-8 -54 -49 -89.5t-94 -35.5z" />
    <glyph glyph-name="uni1E97" unicode="&#x1e97;" horiz-adv-x="716" 
d="M664 756h-194l-106 -756h-244l106 756h-148l34 244h148l44 314h244l-44 -314h194zM239 1384q-54 0 -86 35.5t-24 89.5q7 53 49 89.5t96 36.5q52 0 83.5 -36.5t24.5 -89.5q-8 -54 -49.5 -89.5t-93.5 -35.5zM635 1384q-54 0 -86 35.5t-25 89.5q8 53 50 89.5t96 36.5
q52 0 84 -36.5t24 -89.5q-8 -54 -49.5 -89.5t-93.5 -35.5z" />
    <glyph glyph-name="uni1E9E" unicode="&#x1e9e;" horiz-adv-x="1205" 
d="M22 0l126 898q14 104 66 195t130.5 160t174.5 108t200 39q102 0 186.5 -41.5t131 -112t33.5 -158.5q-6 -47 -39.5 -91.5t-95 -106.5t-152.5 -159q70 12 132 -11.5t108 -71.5t68 -110.5t13 -129.5q-14 -99 -65.5 -175t-126.5 -128t-162 -78.5t-171 -26.5h-58l-22 209h84
q60 0 126.5 19t116.5 63t60 119q11 74 -27 118t-99 63t-120 19h-79l13 92q6 49 44 108t85 116t83 101.5t39 64.5q5 44 -19 64.5t-67 26.5t-93 6q-55 0 -108.5 -30.5t-91 -82.5t-46.5 -116l-134 -960h-244z" />
    <glyph glyph-name="uni1EA0" unicode="&#x1ea0;" horiz-adv-x="1458" 
d="M686 1400h281l313 -1400h-259l-56 248h-599l-125 -248h-259zM490 492h420l-130 577zM572 -440q-54 0 -86 35.5t-24 89.5q8 53 49.5 89t95.5 36q52 0 83.5 -36t24.5 -89q-8 -54 -49 -89.5t-94 -35.5z" />
    <glyph glyph-name="uni1EA1" unicode="&#x1ea1;" horiz-adv-x="1198" 
d="M916 1000h244l-140 -1000h-244l6 124q-51 -68 -124 -109t-165 -41q-148 0 -259.5 72.5t-166.5 194.5t-33 270q14 107 67 200.5t133.5 165t179.5 111.5t206 40q100 0 172 -44t118 -112zM520 209q77 0 142.5 39t109.5 105t55 147t-14 147t-79.5 105.5t-131.5 39.5
q-78 0 -147 -39.5t-115.5 -105.5t-57.5 -147t17.5 -147t86.5 -105t134 -39zM457 -440q-54 0 -86 35.5t-24 89.5q8 53 49.5 89t95.5 36q52 0 83.5 -36t24.5 -89q-8 -54 -49 -89.5t-94 -35.5z" />
    <glyph glyph-name="uni1EAC" unicode="&#x1eac;" horiz-adv-x="1458" 
d="M686 1400h281l313 -1400h-259l-56 248h-599l-125 -248h-259zM490 492h420l-130 577zM572 -440q-54 0 -86 35.5t-24 89.5q8 53 49.5 89t95.5 36q52 0 83.5 -36t24.5 -89q-8 -54 -49 -89.5t-94 -35.5zM1019 1798l154 -288h-163l-141 193l-192 -193h-163l231 288h274z" />
    <glyph glyph-name="uni1EAD" unicode="&#x1ead;" horiz-adv-x="1198" 
d="M916 1000h244l-140 -1000h-244l6 124q-51 -68 -124 -109t-165 -41q-148 0 -259.5 72.5t-166.5 194.5t-33 270q14 107 67 200.5t133.5 165t179.5 111.5t206 40q100 0 172 -44t118 -112zM520 209q77 0 142.5 39t109.5 105t55 147t-14 147t-79.5 105.5t-131.5 39.5
q-78 0 -147 -39.5t-115.5 -105.5t-57.5 -147t17.5 -147t86.5 -105t134 -39zM457 -440q-54 0 -86 35.5t-24 89.5q8 53 49.5 89t95.5 36q52 0 83.5 -36t24.5 -89q-8 -54 -49 -89.5t-94 -35.5zM848 1398l154 -288h-163l-141 193l-192 -193h-163l231 288h274z" />
    <glyph glyph-name="uni1EB6" unicode="&#x1eb6;" horiz-adv-x="1458" 
d="M686 1400h281l313 -1400h-259l-56 248h-599l-125 -248h-259zM490 492h420l-130 577zM572 -440q-54 0 -86 35.5t-24 89.5q8 53 49.5 89t95.5 36q52 0 83.5 -36t24.5 -89q-8 -54 -49 -89.5t-94 -35.5zM840 1488q-91 0 -160 45t-103.5 120.5t-22.5 166.5h152
q-10 -74 36 -127t119 -53q74 0 134 52t71 128h152q-13 -93 -68.5 -168.5t-137 -119.5t-172.5 -44z" />
    <glyph glyph-name="uni1EB7" unicode="&#x1eb7;" horiz-adv-x="1198" 
d="M916 1000h244l-140 -1000h-244l6 124q-51 -68 -124 -109t-165 -41q-148 0 -259.5 72.5t-166.5 194.5t-33 270q14 107 67 200.5t133.5 165t179.5 111.5t206 40q100 0 172 -44t118 -112zM520 209q77 0 142.5 39t109.5 105t55 147t-14 147t-79.5 105.5t-131.5 39.5
q-78 0 -147 -39.5t-115.5 -105.5t-57.5 -147t17.5 -147t86.5 -105t134 -39zM457 -440q-54 0 -86 35.5t-24 89.5q8 53 49.5 89t95.5 36q52 0 83.5 -36t24.5 -89q-8 -54 -49 -89.5t-94 -35.5zM669 1088q-91 0 -160 45t-103.5 120.5t-22.5 166.5h152q-10 -74 36 -127t119 -53
q74 0 134 52t71 128h152q-13 -93 -68.5 -168.5t-137 -119.5t-172.5 -44z" />
    <glyph glyph-name="uni1EB8" unicode="&#x1eb8;" horiz-adv-x="1098" 
d="M22 0l196 1400h878l-34 -244h-634l-40 -284h503l-34 -244h-503l-54 -384h634l-34 -244h-878zM392 -440q-54 0 -86 35.5t-24 89.5q8 53 49.5 89t95.5 36q52 0 83.5 -36t24.5 -89q-8 -54 -49 -89.5t-94 -35.5z" />
    <glyph glyph-name="uni1EB9" unicode="&#x1eb9;" horiz-adv-x="1119" 
d="M458 -26q-138 0 -241.5 71t-154 190.5t-30.5 265.5q15 109 67.5 204.5t131.5 168t175.5 113.5t199.5 41q117 0 207.5 -49.5t146.5 -135t71.5 -195.5t-18.5 -231h-730q8 -84 61.5 -141t147.5 -58q63 0 120.5 31t99.5 85l241 -58q-80 -133 -212.5 -217.5t-282.5 -84.5z
M300 600h492q-5 90 -65 152.5t-150 62.5q-91 0 -168 -62t-109 -153zM403 -440q-54 0 -86 35.5t-24 89.5q8 53 49.5 89t95.5 36q52 0 83.5 -36t24.5 -89q-8 -54 -49 -89.5t-94 -35.5z" />
    <glyph glyph-name="uni1EBC" unicode="&#x1ebc;" horiz-adv-x="1098" 
d="M22 0l196 1400h878l-34 -244h-634l-40 -284h503l-34 -244h-503l-54 -384h634l-34 -244h-878zM817 1505q-38 0 -84.5 26t-92 58t-80.5 51.5t-50 5.5q-30 -27 -22 -87l-147 -39q-17 78 5.5 142t74.5 102.5t126 38.5q37 0 81.5 -21.5t88.5 -50t78 -50t49 -21.5
q31 0 34.5 29.5t-2.5 56.5l151 47q16 -82 -8.5 -147t-77.5 -103t-124 -38z" />
    <glyph glyph-name="uni1EBD" unicode="&#x1ebd;" horiz-adv-x="1119" 
d="M458 -26q-138 0 -241.5 71t-154 190.5t-30.5 265.5q15 109 67.5 204.5t131.5 168t175.5 113.5t199.5 41q117 0 207.5 -49.5t146.5 -135t71.5 -195.5t-18.5 -231h-730q8 -84 61.5 -141t147.5 -58q63 0 120.5 31t99.5 85l241 -58q-80 -133 -212.5 -217.5t-282.5 -84.5z
M300 600h492q-5 90 -65 152.5t-150 62.5q-91 0 -168 -62t-109 -153zM772 1105q-38 0 -84.5 26t-92 58t-80.5 51.5t-50 5.5q-30 -27 -22 -87l-147 -39q-17 78 5.5 142t74.5 102.5t126 38.5q37 0 81.5 -21.5t88.5 -50t78 -50t49 -21.5q31 0 34.5 29.5t-2.5 56.5l151 47
q16 -82 -8.5 -147t-77.5 -103t-124 -38z" />
    <glyph glyph-name="uni1EC6" unicode="&#x1ec6;" horiz-adv-x="1098" 
d="M22 0l196 1400h878l-34 -244h-634l-40 -284h503l-34 -244h-503l-54 -384h634l-34 -244h-878zM392 -440q-54 0 -86 35.5t-24 89.5q8 53 49.5 89t95.5 36q52 0 83.5 -36t24.5 -89q-8 -54 -49 -89.5t-94 -35.5zM840 1798l154 -288h-163l-141 193l-192 -193h-163l231 288h274
z" />
    <glyph glyph-name="uni1EC7" unicode="&#x1ec7;" horiz-adv-x="1119" 
d="M458 -26q-138 0 -241.5 71t-154 190.5t-30.5 265.5q15 109 67.5 204.5t131.5 168t175.5 113.5t199.5 41q117 0 207.5 -49.5t146.5 -135t71.5 -195.5t-18.5 -231h-730q8 -84 61.5 -141t147.5 -58q63 0 120.5 31t99.5 85l241 -58q-80 -133 -212.5 -217.5t-282.5 -84.5z
M300 600h492q-5 90 -65 152.5t-150 62.5q-91 0 -168 -62t-109 -153zM403 -440q-54 0 -86 35.5t-24 89.5q8 53 49.5 89t95.5 36q52 0 83.5 -36t24.5 -89q-8 -54 -49 -89.5t-94 -35.5zM794 1398l154 -288h-163l-141 193l-192 -193h-163l231 288h274z" />
    <glyph glyph-name="uni1ECA" unicode="&#x1eca;" horiz-adv-x="544" 
d="M52 0l196 1400h244l-196 -1400h-244zM115 -440q-54 0 -86 35.5t-24 89.5q8 53 49.5 89t95.5 36q52 0 83.5 -36t24.5 -89q-8 -54 -49 -89.5t-94 -35.5z" />
    <glyph glyph-name="uni1ECB" unicode="&#x1ecb;" horiz-adv-x="484" 
d="M162 1000h244l-140 -1000h-244zM304 1129q-54 0 -86 35.5t-24 89.5q8 53 49.5 89t95.5 36q52 0 83.5 -36t24.5 -89q-8 -54 -49 -89.5t-94 -35.5zM86 -440q-54 0 -86 35.5t-24 89.5q8 53 49.5 89t95.5 36q52 0 83.5 -36t24.5 -89q-8 -54 -49 -89.5t-94 -35.5z" />
    <glyph glyph-name="uni1ECC" unicode="&#x1ecc;" horiz-adv-x="1540" 
d="M668 -26q-142 0 -259.5 56.5t-198 156.5t-116 231.5t-14.5 281.5t93 281.5t181.5 231.5t242.5 156.5t275 56.5q143 0 260 -56.5t197.5 -156.5t116 -231.5t14.5 -281.5t-93 -281.5t-181.5 -231.5t-242 -156.5t-275.5 -56.5zM702 218q123 0 233.5 65.5t186 175t94.5 241.5
t-26 241.5t-137 175t-215 65.5t-233.5 -65.5t-186 -175t-94.5 -241.5t26 -241.5t137 -175t215 -65.5zM613 -440q-54 0 -86 35.5t-24 89.5q8 53 49.5 89t95.5 36q52 0 83.5 -36t24.5 -89q-8 -54 -49 -89.5t-94 -35.5z" />
    <glyph glyph-name="uni1ECD" unicode="&#x1ecd;" horiz-adv-x="1120" 
d="M458 -26q-138 0 -241.5 71t-154 190.5t-30.5 264.5q15 110 67.5 205.5t131.5 168t175.5 113.5t199.5 41q138 0 241.5 -71t154.5 -191t30 -266q-15 -109 -67.5 -204t-131.5 -167.5t-175 -113.5t-200 -41zM492 218q73 0 136.5 39t106 103t53.5 140q11 78 -14.5 142.5
t-78.5 103t-123 38.5q-72 0 -135.5 -39t-106.5 -104t-54 -141q-11 -79 15 -143t79 -101.5t122 -37.5zM403 -440q-54 0 -86 35.5t-24 89.5q8 53 49.5 89t95.5 36q52 0 83.5 -36t24.5 -89q-8 -54 -49 -89.5t-94 -35.5z" />
    <glyph glyph-name="uni1ED8" unicode="&#x1ed8;" horiz-adv-x="1540" 
d="M668 -26q-142 0 -259.5 56.5t-198 156.5t-116 231.5t-14.5 281.5t93 281.5t181.5 231.5t242.5 156.5t275 56.5q143 0 260 -56.5t197.5 -156.5t116 -231.5t14.5 -281.5t-93 -281.5t-181.5 -231.5t-242 -156.5t-275.5 -56.5zM702 218q123 0 233.5 65.5t186 175t94.5 241.5
t-26 241.5t-137 175t-215 65.5t-233.5 -65.5t-186 -175t-94.5 -241.5t26 -241.5t137 -175t215 -65.5zM613 -440q-54 0 -86 35.5t-24 89.5q8 53 49.5 89t95.5 36q52 0 83.5 -36t24.5 -89q-8 -54 -49 -89.5t-94 -35.5zM1061 1798l154 -288h-163l-141 193l-192 -193h-163
l231 288h274z" />
    <glyph glyph-name="uni1ED9" unicode="&#x1ed9;" horiz-adv-x="1120" 
d="M458 -26q-138 0 -241.5 71t-154 190.5t-30.5 264.5q15 110 67.5 205.5t131.5 168t175.5 113.5t199.5 41q138 0 241.5 -71t154.5 -191t30 -266q-15 -109 -67.5 -204t-131.5 -167.5t-175 -113.5t-200 -41zM492 218q73 0 136.5 39t106 103t53.5 140q11 78 -14.5 142.5
t-78.5 103t-123 38.5q-72 0 -135.5 -39t-106.5 -104t-54 -141q-11 -79 15 -143t79 -101.5t122 -37.5zM403 -440q-54 0 -86 35.5t-24 89.5q8 53 49.5 89t95.5 36q52 0 83.5 -36t24.5 -89q-8 -54 -49 -89.5t-94 -35.5zM795 1398l154 -288h-163l-141 193l-192 -193h-163
l231 288h274z" />
    <glyph glyph-name="uni1EE4" unicode="&#x1ee4;" horiz-adv-x="1360" 
d="M579 -26q-168 0 -283 82t-165.5 220.5t-26.5 307.5l114 816h244l-114 -816q-14 -100 11.5 -183.5t89 -133t164.5 -49.5q102 0 179 49.5t125.5 132.5t62.5 184l114 816h244l-114 -816q-24 -169 -113.5 -307.5t-226.5 -220.5t-305 -82zM523 -440q-54 0 -86 35.5t-24 89.5
q8 53 49.5 89t95.5 36q52 0 83.5 -36t24.5 -89q-8 -54 -49 -89.5t-94 -35.5z" />
    <glyph glyph-name="uni1EE5" unicode="&#x1ee5;" horiz-adv-x="1076" 
d="M34 370l88 630h244l-80 -566q-12 -88 42 -150.5t142 -62.5q59 0 111.5 28.5t88 77t43.5 107.5l80 566h244l-139 -1000h-244l11 91q-59 -54 -134.5 -85.5t-156.5 -31.5q-109 0 -191.5 53.5t-123.5 143.5t-25 199zM410 -438q-54 0 -86 35.5t-24 89.5q8 53 49.5 89t95.5 36
q52 0 83.5 -36t24.5 -89q-8 -54 -49 -89.5t-94 -35.5z" />
    <glyph glyph-name="Ygrave" unicode="&#x1ef2;" horiz-adv-x="1326" 
d="M1076 1400h288l-589 -769l-88 -631h-244l88 631l-373 769h288l244 -503zM556 1798h244l40 -288h-163z" />
    <glyph glyph-name="ygrave" unicode="&#x1ef3;" horiz-adv-x="1145" 
d="M848 1000h259l-758 -1500h-259l252 500l-220 1000h267l121 -666zM409 1398h244l40 -288h-163z" />
    <glyph glyph-name="uni1EF4" unicode="&#x1ef4;" horiz-adv-x="1326" 
d="M1076 1400h288l-589 -769l-88 -631h-244l88 631l-373 769h288l244 -503zM506 -440q-54 0 -86 35.5t-24 89.5q8 53 49.5 89t95.5 36q52 0 83.5 -36t24.5 -89q-8 -54 -49 -89.5t-94 -35.5z" />
    <glyph glyph-name="uni1EF5" unicode="&#x1ef5;" horiz-adv-x="1145" 
d="M848 1000h259l-758 -1500h-259l252 500l-220 1000h267l121 -666zM653 -440q-54 0 -86 35.5t-24 89.5q8 53 49.5 89t95.5 36q52 0 83.5 -36t24.5 -89q-8 -54 -49 -89.5t-94 -35.5z" />
    <glyph glyph-name="uni1EF8" unicode="&#x1ef8;" horiz-adv-x="1326" 
d="M1076 1400h288l-589 -769l-88 -631h-244l88 631l-373 769h288l244 -503zM931 1505q-38 0 -84.5 26t-92 58t-80.5 51.5t-50 5.5q-30 -27 -22 -87l-147 -39q-17 78 5.5 142t74.5 102.5t126 38.5q37 0 81.5 -21.5t88.5 -50t78 -50t49 -21.5q31 0 34.5 29.5t-2.5 56.5l151 47
q16 -82 -8.5 -147t-77.5 -103t-124 -38z" />
    <glyph glyph-name="uni1EF9" unicode="&#x1ef9;" horiz-adv-x="1145" 
d="M848 1000h259l-758 -1500h-259l252 500l-220 1000h267l121 -666zM785 1105q-38 0 -84.5 26t-92 58t-80.5 51.5t-50 5.5q-30 -27 -22 -87l-147 -39q-17 78 5.5 142t74.5 102.5t126 38.5q37 0 81.5 -21.5t88.5 -50t78 -50t49 -21.5q31 0 34.5 29.5t-2.5 56.5l151 47
q16 -82 -8.5 -147t-77.5 -103t-124 -38z" />
    <glyph glyph-name="uni2002" unicode="&#x2002;" horiz-adv-x="1000" 
 />
    <glyph glyph-name="uni2009" unicode="&#x2009;" horiz-adv-x="400" 
 />
    <glyph glyph-name="uni200B" unicode="&#x200b;" 
 />
    <glyph glyph-name="endash" unicode="&#x2013;" horiz-adv-x="1240" 
d="M123 722h1000l-34 -244h-1000z" />
    <glyph glyph-name="emdash" unicode="&#x2014;" horiz-adv-x="2040" 
d="M123 722h1800l-34 -244h-1800z" />
    <glyph glyph-name="quoteright" unicode="&#x2019;" horiz-adv-x="406" 
d="M65 878l135 522h244l-216 -522h-163z" />
    <glyph glyph-name="quoteright" unicode="&#x2032;" horiz-adv-x="406" 
d="M65 878l135 522h244l-216 -522h-163z" />
    <glyph glyph-name="quotesinglbase" unicode="&#x201a;" horiz-adv-x="457" 
d="M-43 -112l109 338h244l-190 -338h-163z" />
    <glyph glyph-name="quotedblleft" unicode="&#x201c;" horiz-adv-x="804" 
d="M145 878l216 522h163l-135 -522h-244zM483 882l216 522h163l-135 -522h-244z" />
    <glyph glyph-name="quotedblright" unicode="&#x201d;" horiz-adv-x="804" 
d="M65 878l135 522h244l-216 -522h-163zM403 878l135 522h244l-216 -522h-163z" />
    <glyph glyph-name="quotedblright" unicode="&#x2033;" horiz-adv-x="804" 
d="M65 878l135 522h244l-216 -522h-163zM403 878l135 522h244l-216 -522h-163z" />
    <glyph glyph-name="quotedblbase" unicode="&#x201e;" horiz-adv-x="825" 
d="M-43 -112l109 338h244l-190 -338h-163zM325 -112l109 338h244l-190 -338h-163z" />
    <glyph glyph-name="dagger" unicode="&#x2020;" horiz-adv-x="859" 
d="M127 1033l34 244h227l31 223h244l-31 -223h227l-34 -244h-227l-65 -464h-244l65 464h-227z" />
    <glyph glyph-name="daggerdbl" unicode="&#x2021;" horiz-adv-x="859" 
d="M84 730l34 242h227l20 137h-228l34 244h228l20 147h244l-20 -147h227l-34 -244h-227l-20 -137h228l-34 -242h-228l-24 -170h-244l24 170h-227z" />
    <glyph glyph-name="bullet" unicode="&#x2022;" horiz-adv-x="495" 
d="M210 433q-70 0 -112 48.5t-32 118.5q9 69 64.5 118t125.5 49t112 -49t33 -118q-10 -70 -66 -118.5t-125 -48.5z" />
    <glyph glyph-name="ellipsis" unicode="&#x2026;" horiz-adv-x="1256" 
d="M103 -26q-52 0 -83.5 36.5t-23.5 89.5q7 51 48.5 88t94.5 37q51 0 83 -37t25 -88q-8 -53 -50 -89.5t-94 -36.5zM506 -26q-52 0 -83.5 36.5t-23.5 89.5q7 51 48.5 88t94.5 37q51 0 83 -37t25 -88q-8 -53 -50 -89.5t-94 -36.5zM908 -26q-52 0 -83.5 36.5t-23.5 89.5
q7 51 48.5 88t94.5 37q51 0 83 -37t25 -88q-8 -53 -50 -89.5t-94 -36.5z" />
    <glyph glyph-name="perthousand" unicode="&#x2030;" horiz-adv-x="2156" 
d="M111 0l1004 1400h282l-1004 -1400h-282zM394 793q-83 0 -145.5 40t-94 107.5t-19.5 151.5q12 86 63.5 154t125.5 107t154 39q82 0 144.5 -40.5t93.5 -108.5t19 -151q-12 -85 -63 -153t-125 -107t-153 -39zM418 960q54 0 98 38.5t52 93.5q7 56 -26 94t-87 38
q-56 0 -100.5 -38t-52.5 -94q-7 -55 26.5 -93.5t89.5 -38.5zM1016 7q-84 0 -146 42t-92.5 110t-18.5 147q11 86 62.5 154t125.5 107.5t154 39.5q86 0 148 -41.5t91.5 -110.5t18.5 -149q-12 -82 -62 -150t-124 -108.5t-157 -40.5zM1678 7q-84 0 -146 42t-92.5 110t-19.5 147
q12 86 63.5 154t125 107.5t153.5 39.5q86 0 148 -41.5t92 -110.5t19 -149q-12 -82 -62 -150t-124.5 -108.5t-156.5 -40.5zM1039 174q55 0 100 39t53 93q7 56 -27 95t-89 39q-54 0 -98.5 -39t-51.5 -95q-8 -54 25.5 -93t87.5 -39zM1701 174q55 0 100 39t53 93q7 56 -27 95
t-89 39q-54 0 -98.5 -39t-51.5 -95q-8 -54 25.5 -93t87.5 -39z" />
    <glyph glyph-name="uni2035" unicode="&#x2035;" horiz-adv-x="546" 
d="M288 878l-70 522h244l-11 -522h-163z" />
    <glyph glyph-name="guilsinglleft" unicode="&#x2039;" horiz-adv-x="769" 
d="M358 261l-252 340l348 338h249l-347 -338l251 -340h-249z" />
    <glyph glyph-name="guilsinglright" unicode="&#x203a;" horiz-adv-x="769" 
d="M38 261l346 340l-250 338h249l252 -338l-348 -340h-249z" />
    <glyph glyph-name="fraction" unicode="&#x2044;" horiz-adv-x="450" 
d="M-378 0l1004 1400h202l-1004 -1400h-202z" />
    <glyph glyph-name="fraction" unicode="&#x2215;" horiz-adv-x="450" 
d="M-378 0l1004 1400h202l-1004 -1400h-202z" />
    <glyph glyph-name="uni2070" unicode="&#x2070;" horiz-adv-x="648" 
d="M338 798q-69 0 -120.5 44t-74.5 120t-10 172q14 95 58.5 170.5t108 119.5t132.5 44q70 0 121 -44t74.5 -119.5t9.5 -170.5q-13 -96 -58 -172t-108 -120t-133 -44zM357 934q34 0 62.5 33.5t47.5 80t24 86.5q7 44 0.5 90t-26.5 77t-52 31q-36 0 -64 -32t-46.5 -78
t-23.5 -88q-7 -46 -0.5 -92t26 -77t52.5 -31z" />
    <glyph glyph-name="uni2074" unicode="&#x2074;" horiz-adv-x="691" 
d="M359 818l14 98h-246l24 175l277 358h165l-55 -387h59l-19 -146h-59l-14 -98h-146zM290 1062h116l26 185z" />
    <glyph glyph-name="uni2075" unicode="&#x2075;" horiz-adv-x="698" 
d="M332 798q-96 0 -156.5 62.5t-46.5 159.5h146q-5 -36 17 -61t59 -25t67 25t35 61t-18 60.5t-60 27.5q-31 2 -90 -1.5t-112 -12.5l83 355h342l-17 -127h-210l-13 -70q125 5 190.5 -59.5t50.5 -172.5q-14 -97 -92 -159.5t-175 -62.5z" />
    <glyph glyph-name="uni2076" unicode="&#x2076;" horiz-adv-x="706" 
d="M343 798q-99 0 -157.5 62t-44.5 159q4 28 14 53t37 66t79.5 113.5t140.5 194.5h169l-146 -201q92 -16 138 -79t34 -149q-14 -98 -92 -158.5t-172 -60.5zM362 934q39 0 69 28.5t30 68.5q0 33 -21.5 53.5t-53.5 20.5q-45 0 -72.5 -32t-27.5 -67q-1 -38 23 -55t53 -17z" />
    <glyph glyph-name="uni2077" unicode="&#x2077;" horiz-adv-x="669" 
d="M168 818l345 483h-309l21 146h477l-20 -142l-347 -487h-167z" />
    <glyph glyph-name="uni2078" unicode="&#x2078;" horiz-adv-x="626" 
d="M326 798q-90 0 -145 56t-43 146q7 44 28 82.5t52 66.5q-38 54 -28 126q12 85 79 140t151 55t136.5 -55t41.5 -140q-11 -72 -64 -126q23 -28 34 -66.5t4 -82.5q-12 -90 -83.5 -146t-162.5 -56zM384 1218q25 0 45 17t23 40q3 25 -12 41t-39 16t-43 -16t-22 -41
q-4 -23 10.5 -40t37.5 -17zM344 933q31 0 55 19.5t28 47.5q4 31 -14 51.5t-48 20.5q-29 0 -53 -20.5t-28 -51.5q-4 -28 13.5 -47.5t46.5 -19.5z" />
    <glyph glyph-name="uni2079" unicode="&#x2079;" horiz-adv-x="658" 
d="M173 818l146 204q-65 4 -107.5 42t-57 94.5t5.5 115.5q20 86 92.5 140t160.5 54q72 0 122 -35t69.5 -91.5t-0.5 -121.5q-7 -45 -38 -90l-225 -312h-168zM370 1160q39 0 69 30t31 69q1 31 -23 52t-53 21q-43 0 -71 -30t-28 -66q-3 -41 23.5 -58.5t51.5 -17.5z" />
    <glyph glyph-name="uni2080" unicode="&#x2080;" horiz-adv-x="648" 
d="M221 -31q-69 0 -120 46t-74 124t-9 174q13 95 58 173t108.5 124t133.5 46q69 0 120 -46t74 -124t10 -173q-14 -96 -59 -174t-108.5 -124t-133.5 -46zM242 115q34 0 62 33t47.5 79t24.5 86q6 45 -0.5 90.5t-26 76t-52.5 30.5q-36 0 -64 -31.5t-46 -77.5t-24 -88
q-6 -46 0 -91.5t25.5 -76t53.5 -30.5z" />
    <glyph glyph-name="uni2081" unicode="&#x2081;" horiz-adv-x="451" 
d="M63 0l68 485h-65l41 146h190l-88 -631h-146z" />
    <glyph glyph-name="uni2082" unicode="&#x2082;" horiz-adv-x="714" 
d="M-2 0l18 129q60 38 132 81.5t136 96t101 118.5q6 38 -17 63.5t-60 25.5q-38 0 -69 -25.5t-36 -63.5h-146q9 65 49 118t98.5 84.5t124.5 31.5q98 0 156.5 -68.5t45.5 -165.5q-8 -54 -47 -103t-94 -93t-108 -83h200l-19 -146h-465z" />
    <glyph glyph-name="uni2083" unicode="&#x2083;" horiz-adv-x="577" 
d="M186 -31q-89 0 -144 62.5t-42 152.5h146q-5 -30 13 -49.5t48 -19.5q29 0 52 19.5t28 49.5q5 35 -22 64.5t-88 29.5l14 98q60 0 86 25.5t30 55.5q4 22 -11 37.5t-38 15.5t-42 -15.5t-22 -37.5h-146q12 83 79.5 141t150.5 58q85 0 136 -58t39 -141q-10 -74 -62 -126
q53 -61 42 -147q-9 -60 -45.5 -108.5t-89.5 -77.5t-112 -29z" />
    <glyph glyph-name="uni2084" unicode="&#x2084;" horiz-adv-x="691" 
d="M244 0l14 98h-246l24 176l277 357h165l-55 -387h59l-19 -146h-59l-14 -98h-146zM175 244h116l26 185z" />
    <glyph glyph-name="uni2085" unicode="&#x2085;" horiz-adv-x="698" 
d="M215 -31q-96 0 -155.5 66.5t-45.5 163.5h146q-6 -36 16.5 -60t59.5 -24t66.5 24t35.5 60q5 37 -18 62.5t-60 25.5l-203 -8l83 349h343l-18 -129h-210l-12 -68l40 2q112 0 163.5 -67.5t37.5 -166.5q-10 -65 -49 -117t-97 -82.5t-123 -30.5z" />
    <glyph glyph-name="uni2086" unicode="&#x2086;" horiz-adv-x="682" 
d="M226 -31q-99 0 -156.5 66.5t-43.5 163.5q3 28 13.5 53t37.5 66t79.5 113.5t140.5 195.5h169l-146 -203q92 -15 137.5 -78.5t34.5 -148.5q-10 -65 -49.5 -117t-96.5 -81.5t-120 -29.5zM247 115q39 0 68.5 28t29.5 67q1 34 -21 54t-53 20q-45 0 -72 -32t-28 -67
q-1 -37 22.5 -53.5t53.5 -16.5z" />
    <glyph glyph-name="uni2087" unicode="&#x2087;" horiz-adv-x="669" 
d="M50 0l349 485h-309l20 146h477l-20 -142l-350 -489h-167z" />
    <glyph glyph-name="uni2088" unicode="&#x2088;" horiz-adv-x="626" 
d="M209 -31q-90 0 -144.5 60.5t-41.5 150.5q6 44 27.5 82.5t52.5 66.5q-38 55 -28 126q12 85 79.5 143t151.5 58t136.5 -58t39.5 -143q-10 -72 -63 -126q50 -62 38 -149q-13 -90 -85 -150.5t-163 -60.5zM269 397q25 0 45 17.5t23 40.5q3 24 -12 40t-40 16q-23 0 -42 -16
t-23 -40q-3 -23 11.5 -40.5t37.5 -17.5zM229 112q30 0 54.5 19.5t28.5 48.5q3 30 -15 50.5t-48 20.5q-29 0 -52.5 -20.5t-27.5 -50.5q-4 -29 13.5 -48.5t46.5 -19.5z" />
    <glyph glyph-name="uni2089" unicode="&#x2089;" horiz-adv-x="658" 
d="M58 0l146 204q-65 4 -107.5 42t-57 95t5.5 116q20 86 93 144t162 58q88 0 142 -53.5t60 -133.5t-50 -158l-226 -314h-168zM255 343q39 0 69 29.5t31 68.5q1 31 -23 52t-53 21q-43 0 -71 -30t-28 -66q-3 -41 23.5 -58t51.5 -17z" />
    <glyph glyph-name="Euro" unicode="&#x20ac;" horiz-adv-x="1121" 
d="M940 -16q-183 -30 -333.5 26.5t-248.5 179.5t-125 293h-184l24 167h153l14 97h-154l24 167h184q55 130 145 232.5t204 170.5t241.5 94.5t257.5 4.5l-36 -252q-107 31 -211 6.5t-191.5 -91.5t-145.5 -165h270l-23 -167h-321l-12 -97h319l-23 -167h-269q32 -100 102 -165.5
t166.5 -88t207.5 6.5z" />
    <glyph glyph-name="trademark" unicode="&#x2122;" horiz-adv-x="3029" 
d="M1278 1400l-35 -244h-428l-161 -1156h-244l161 1156h-427l34 244h1100zM1182 0l468 1400h202l215 -897l467 897h202l76 -1400h-249l-46 866l-433 -834h-166l-199 834l-288 -866h-249z" />
    <glyph glyph-name="oneeighth" unicode="&#x215b;" horiz-adv-x="1527" 
d="M178 818l68 485h-65l41 146h190l-88 -631h-146zM73 0l1004 1400h202l-1004 -1400h-202zM1110 -31q-90 0 -144.5 60.5t-41.5 150.5q6 44 27.5 82.5t52.5 66.5q-38 55 -28 126q12 85 79.5 143t151.5 58t136.5 -58t39.5 -143q-10 -72 -63 -126q50 -62 38 -149
q-13 -90 -85 -150.5t-163 -60.5zM1170 397q25 0 45 17.5t23 40.5q3 24 -12 40t-40 16q-23 0 -42 -16t-23 -40q-3 -23 11.5 -40.5t37.5 -17.5zM1130 112q30 0 54.5 19.5t28.5 48.5q3 30 -15 50.5t-48 20.5q-29 0 -52.5 -20.5t-27.5 -50.5q-4 -29 13.5 -48.5t46.5 -19.5z" />
    <glyph glyph-name="threeeighths" unicode="&#x215c;" horiz-adv-x="1653" 
d="M303 798q-89 0 -145 58t-43 148h146q-5 -30 13 -50t49 -20q28 0 51.5 20t27.5 50q5 36 -22 65.5t-87 29.5l13 97q60 0 86.5 25.5t30.5 55.5q3 23 -12 38.5t-38 15.5q-22 0 -41.5 -15.5t-22.5 -38.5h-146q12 83 79 137t150 54q85 0 136.5 -54t39.5 -137q-10 -74 -62 -126
q54 -60 42 -147q-13 -90 -85 -148t-160 -58zM199 0l1004 1400h202l-1004 -1400h-202zM1236 -31q-90 0 -144.5 60.5t-41.5 150.5q6 44 27.5 82.5t52.5 66.5q-38 55 -28 126q12 85 79.5 143t151.5 58t136.5 -58t39.5 -143q-10 -72 -63 -126q50 -62 38 -149q-13 -90 -85 -150.5
t-163 -60.5zM1296 397q25 0 45 17.5t23 40.5q3 24 -12 40t-40 16q-23 0 -42 -16t-23 -40q-3 -23 11.5 -40.5t37.5 -17.5zM1256 112q30 0 54.5 19.5t28.5 48.5q3 30 -15 50.5t-48 20.5q-29 0 -52.5 -20.5t-27.5 -50.5q-4 -29 13.5 -48.5t46.5 -19.5z" />
    <glyph glyph-name="fiveeighths" unicode="&#x215d;" horiz-adv-x="1773" 
d="M332 798q-96 0 -156.5 62.5t-46.5 159.5h146q-5 -36 17 -61t59 -25t67 25t35 61t-18 60.5t-60 27.5q-31 2 -90 -1.5t-112 -12.5l83 355h342l-17 -127h-210l-13 -70q125 5 190.5 -59.5t50.5 -172.5q-14 -97 -92 -159.5t-175 -62.5zM320 0l1004 1400h202l-1004 -1400h-202z
M1357 -31q-90 0 -144.5 60.5t-41.5 150.5q6 44 27.5 82.5t52.5 66.5q-38 55 -28 126q12 85 79.5 143t151.5 58t136.5 -58t39.5 -143q-10 -72 -63 -126q50 -62 38 -149q-13 -90 -85 -150.5t-163 -60.5zM1417 397q25 0 45 17.5t23 40.5q3 24 -12 40t-40 16q-23 0 -42 -16
t-23 -40q-3 -23 11.5 -40.5t37.5 -17.5zM1377 112q30 0 54.5 19.5t28.5 48.5q3 30 -15 50.5t-48 20.5q-29 0 -52.5 -20.5t-27.5 -50.5q-4 -29 13.5 -48.5t46.5 -19.5z" />
    <glyph glyph-name="seveneighths" unicode="&#x215e;" horiz-adv-x="1745" 
d="M168 818l345 483h-309l21 146h477l-20 -142l-347 -487h-167zM291 0l1004 1400h202l-1004 -1400h-202zM1328 -31q-90 0 -144.5 60.5t-41.5 150.5q6 44 27.5 82.5t52.5 66.5q-38 55 -28 126q12 85 79.5 143t151.5 58t136.5 -58t39.5 -143q-10 -72 -63 -126q50 -62 38 -149
q-13 -90 -85 -150.5t-163 -60.5zM1388 397q25 0 45 17.5t23 40.5q3 24 -12 40t-40 16q-23 0 -42 -16t-23 -40q-3 -23 11.5 -40.5t37.5 -17.5zM1348 112q30 0 54.5 19.5t28.5 48.5q3 30 -15 50.5t-48 20.5q-29 0 -52.5 -20.5t-27.5 -50.5q-4 -29 13.5 -48.5t46.5 -19.5z" />
    <glyph glyph-name="arrowleft" unicode="&#x2190;" horiz-adv-x="1406" 
d="M544 218l-457 532l607 532l148 -172l-271 -238h780l-35 -244h-779l203 -238z" />
    <glyph glyph-name="arrowup" unicode="&#x2191;" horiz-adv-x="1224" 
d="M410 126l109 780l-270 -237l-149 173l607 532l458 -532l-197 -173l-205 237l-109 -780h-244z" />
    <glyph glyph-name="arrowright" unicode="&#x2192;" horiz-adv-x="1408" 
d="M727 218l-148 172l270 238h-779l34 244h779l-202 238l197 172l457 -532z" />
    <glyph glyph-name="arrowdown" unicode="&#x2193;" horiz-adv-x="1223" 
d="M530 126l-455 532l195 173l204 -237l109 780h244l-109 -780l271 237l148 -173z" />
    <glyph glyph-name="arrowboth" unicode="&#x2194;" horiz-adv-x="1843" 
d="M544 218l-457 532l607 532l148 -172l-271 -238h747l-202 238l196 172l458 -532l-608 -532l-148 172l270 238h-747l203 -238z" />
    <glyph glyph-name="arrowupdn" unicode="&#x2195;" horiz-adv-x="1224" 
d="M501 -92l-458 533l197 173l205 -237l104 746l-270 -236l-148 173l606 532l458 -532l-197 -173l-205 236l-104 -746l270 237l149 -173z" />
    <glyph glyph-name="uni2196" unicode="&#x2196;" horiz-adv-x="1128" 
d="M815 266l-475 552l-47 -336h-244l106 752h752l-34 -244h-336l474 -552z" />
    <glyph glyph-name="uni2197" unicode="&#x2197;" horiz-adv-x="1128" 
d="M192 267l-148 172l628 550h-337l34 244h754l-106 -752h-244l47 336z" />
    <glyph glyph-name="uni2198" unicode="&#x2198;" horiz-adv-x="1128" 
d="M235 267l34 244h336l-474 550l196 172l475 -550l47 336h244l-106 -752h-752z" />
    <glyph glyph-name="uni2199" unicode="&#x2199;" horiz-adv-x="1128" 
d="M19 267l106 752h244l-47 -336l628 550l149 -172l-629 -550h335l-34 -244h-752z" />
    <glyph glyph-name="partialdiff" unicode="&#x2202;" horiz-adv-x="1166" 
d="M482 -26q-139 0 -244 68t-157 182t-32 252q15 104 66.5 195.5t130.5 160.5t176 108.5t201 39.5q93 0 151 -60q-13 61 -34.5 124.5t-60 117.5t-100 87t-152.5 33l32 244q168 0 293 -82t203 -224t105 -324t0 -382q-23 -158 -104.5 -280t-204.5 -191t-269 -69zM516 218
q71 0 135 35.5t107 94t53 128.5q10 71 -17 130t-81 94.5t-125 35.5q-72 0 -135.5 -35.5t-106.5 -94.5t-53 -130q-10 -70 16.5 -129t80.5 -94t126 -35z" />
    <glyph glyph-name="emptyset" unicode="&#x2205;" horiz-adv-x="1160" 
d="M253 -75l-158 99l65 90q-64 72 -94 172t-14 214q15 110 67.5 205.5t131.5 168t175.5 113.5t199.5 41q92 0 166 -32l60 82l158 -99l-66 -91q65 -72 94.5 -172t13.5 -216q-15 -109 -67.5 -204t-131.5 -167.5t-175 -113.5t-200 -41q-88 0 -167 33zM309 320l345 481
q-83 18 -165 -21.5t-141 -117.5t-73 -176q-6 -49 3.5 -91t30.5 -75zM450 201q86 -18 167.5 21.5t139 117t71.5 174.5q7 49 -2.5 92t-30.5 77z" />
    <glyph glyph-name="product" unicode="&#x220f;" horiz-adv-x="1280" 
d="M178 1400h1120l-34 -244h-138l-162 -1156h-244l162 1156h-356l-162 -1156h-244l162 1156h-138z" />
    <glyph glyph-name="summation" unicode="&#x2211;" horiz-adv-x="923" 
d="M-18 0l34 244l296 454l-168 454l34 244h783l-34 -244h-508l167 -454l-295 -454h508l-34 -244h-783z" />
    <glyph glyph-name="minus" unicode="&#x2212;" horiz-adv-x="1160" 
d="M49 478l34 244h1000l-34 -244h-1000z" />
    <glyph glyph-name="radical" unicode="&#x221a;" horiz-adv-x="1346" 
d="M999 1400h365l-34 -244h-195l-584 -1156h-311l-159 708h259l95 -422z" />
    <glyph glyph-name="infinity" unicode="&#x221e;" horiz-adv-x="1521" 
d="M376 254q-166 15 -247 117.5t-61 246.5q15 101 72 183t144 131t194 50q100 0 168.5 -45t128.5 -132q88 88 169 132.5t174 44.5q115 -1 189.5 -51.5t105.5 -133t17 -179.5q-15 -102 -71 -183.5t-143 -130t-193 -50.5q-101 0 -169 43.5t-131 132.5q-88 -91 -169.5 -136.5
t-177.5 -39.5zM1056 477q63 3 105 45.5t49 95.5q8 55 -22 97t-89 45q-59 0 -110 -42.5t-103 -99.5q36 -56 75.5 -99t94.5 -42zM405 477q58 0 111.5 46t97.5 95q-33 53 -73 97.5t-97 42.5q-64 -3 -106 -46t-49 -94q-8 -59 24.5 -99t91.5 -42z" />
    <glyph glyph-name="integral" unicode="&#x222b;" horiz-adv-x="1074" 
d="M253 -26q-81 0 -140 37.5t-85 102.5t-9 148l153 -12q-1 -34 4 -57t38 -24q32 -1 56.5 16.5t32.5 48.5l236 988q16 58 63 104.5t108 73.5t122 26q77 -1 133.5 -42t81 -107t7.5 -140l-139 13q1 47 -20.5 64.5t-52.5 13.5q-25 -1 -46 -19.5t-30 -49.5l-232 -982
q-40 -108 -117.5 -155.5t-163.5 -47.5z" />
    <glyph glyph-name="approxequal" unicode="&#x2248;" horiz-adv-x="1305" 
d="M879 680q-65 0 -137 26.5t-143 61t-135.5 61t-116.5 26.5q-48 0 -72.5 -36t-25.5 -80l-239 3q-2 88 46 166.5t127.5 127t171.5 48.5q65 0 129 -27.5t126.5 -63t121.5 -63t113 -27.5q48 0 74 35t28 82l238 -2q2 -89 -37 -166.5t-108.5 -124.5t-160.5 -47zM879 132
q-65 0 -137 26.5t-143 61t-135.5 61t-116.5 26.5q-48 0 -72.5 -36t-25.5 -80l-239 3q-2 88 46 166.5t127.5 127t171.5 48.5q65 0 129 -27.5t126.5 -63t121.5 -63t113 -27.5q48 0 74 35t28 82l238 -2q2 -89 -37 -166.5t-108.5 -124.5t-160.5 -47z" />
    <glyph glyph-name="notequal" unicode="&#x2260;" horiz-adv-x="1160" 
d="M945 1182l-107 -245h275l-34 -244h-347l-80 -186h401l-34 -244h-473l-107 -245h-254l107 245h-273l34 244h345l81 186h-400l34 244h471l107 245h254z" />
    <glyph glyph-name="lessequal" unicode="&#x2264;" horiz-adv-x="1160" 
d="M1029 333l-961 284l57 406l1040 286l-35 -254l-856 -234l790 -235zM-18 0l34 244h1000l-34 -244h-1000z" />
    <glyph glyph-name="greaterequal" unicode="&#x2265;" horiz-adv-x="1160" 
d="M31 351l36 254l855 225l-792 225l35 254l962 -276l-58 -407zM-18 0l34 244h1000l-34 -244h-1000z" />
    <glyph glyph-name="lozenge" unicode="&#x25ca;" horiz-adv-x="1082" 
d="M230 0l-170 702l364 698h430l168 -698l-366 -702h-426zM461 134l306 568l-146 568l-304 -568z" />
    <glyph glyph-name="uniFFFD" unicode="&#xfffd;" horiz-adv-x="1630" 
d="M714 -26q-54 0 -103 20t-86 62l-355 414q-36 42 -48.5 94t-5.5 106q8 54 36 106t74 92l472 414q48 42 102.5 62t108.5 20t102.5 -20t84.5 -62l356 -414q36 -42 49 -93t5 -105q-7 -54 -34.5 -106t-75.5 -94l-473 -414q-46 -40 -100.5 -61t-108.5 -21zM707 514h167v2
q5 34 38 52q64 33 107 92t53 130q10 69 -16 126t-78 91t-122 34q-69 0 -131 -34t-104 -91t-52 -126h167q6 35 34 59.5t63 24.5t56 -24.5t16 -59.5q-7 -54 -51 -75q-61 -28 -99.5 -82t-47.5 -117v-2zM759 258q35 0 62.5 24.5t32.5 60.5q5 34 -15.5 58t-56.5 24
q-35 0 -62.5 -24t-32.5 -58q-5 -36 16 -60.5t56 -24.5z" />
    <glyph glyph-name="uni004A0301" horiz-adv-x="888" 
d="M222 -26q-78 0 -147.5 26t-122.5 77l183 188q19 -19 49 -33t72 -14q55 0 104.5 28.5t83 75t41.5 101.5l137 977h244l-137 -977q-17 -123 -91.5 -225t-184 -163t-231.5 -61zM697 1510l120 288h244l-202 -288h-162z" />
    <glyph glyph-name="uni013B.loclMAH" horiz-adv-x="1047" 
d="M22 0l196 1400h244l-162 -1156h583l-34 -244h-827zM189 -441l109 338h244l-190 -338h-163z" />
    <glyph glyph-name="uni0145.loclMAH" horiz-adv-x="1339" 
d="M22 0l196 1400h264l457 -959l134 959h244l-196 -1400h-263l-458 959l-134 -959h-244zM325 -441l109 338h244l-190 -338h-163z" />
    <glyph glyph-name="i.loclTRK" horiz-adv-x="484" 
d="M162 1000h244l-140 -1000h-244zM304 1129q-54 0 -86 35.5t-24 89.5q8 53 49.5 89t95.5 36q52 0 83.5 -36t24.5 -89q-8 -54 -49 -89.5t-94 -35.5z" />
    <glyph glyph-name="uni006A0301" horiz-adv-x="487" 
d="M-249 -500l35 244q85 0 152 58t79 142l148 1056h244l-148 -1056q-17 -122 -91 -223t-184 -161t-235 -60zM240 1110l120 288h244l-202 -288h-162z" />
    <glyph glyph-name="uni013C.loclMAH" horiz-adv-x="485" 
d="M23 0l210 1500h244l-210 -1500h-244zM-101 -441l109 338h244l-190 -338h-163z" />
    <glyph glyph-name="uni0146.loclMAH" horiz-adv-x="1116" 
d="M1026 632l-88 -632h-244l79 568q12 88 -42 150.5t-142 62.5q-59 0 -111.5 -28.5t-87.5 -77t-44 -107.5l-79 -568h-244l139 1000h244l-12 -89q59 54 134.5 85.5t157.5 31.5q109 0 191.5 -53.5t123 -143.5t25.5 -199zM234 -441l109 338h244l-190 -338h-163z" />
    <glyph glyph-name="uni030C.alt" 
d="M473 1110l120 288h244l-202 -288h-162z" />
    <glyph glyph-name="uni0326.loclMAH" 
d="M240 -441l109 338h244l-190 -338h-163z" />
    </font>
</defs>
</svg>
