<?xml version="1.0" standalone="no"?>
<!DOCTYPE svg PUBLIC "-//W3C//DTD SVG 1.1//EN" "http://www.w3.org/Graphics/SVG/1.1/DTD/svg11.dtd" >
<svg xmlns="http://www.w3.org/2000/svg" xmlns:xlink="http://www.w3.org/1999/xlink" version="1.1">
<metadata>
Created by FontForge 20170731 at Wed Nov  8 23:35:10 2023
 By Aleksey,,,
Copyright 2021 The Urbanist Project Authors (https://github.com/coreyhu/Urbanist)
</metadata>
<defs>
<font id="Urbanist-Regular" horiz-adv-x="1097" >
  <font-face 
    font-family="Urbanist"
    font-weight="400"
    font-stretch="normal"
    units-per-em="2048"
    panose-1="0 0 0 0 0 0 0 0 0 0"
    ascent="1638"
    descent="-410"
    x-height="1024"
    cap-height="1434"
    bbox="-249 -512 2875 2059"
    underline-thickness="51"
    underline-position="-153"
    unicode-range="U+000D-FFFD"
  />
<missing-glyph horiz-adv-x="1024" 
d="M102 -512v2458h820v-2458h-820zM205 -410h614v2253h-614v-2253z" />
    <glyph glyph-name=".notdef" horiz-adv-x="1024" 
d="M102 -512v2458h820v-2458h-820zM205 -410h614v2253h-614v-2253z" />
    <glyph glyph-name=".null" horiz-adv-x="1228" 
 />
    <glyph glyph-name=".null" horiz-adv-x="1228" 
 />
    <glyph glyph-name="nonmarkingreturn" unicode="&#xd;" horiz-adv-x="1228" 
 />
    <glyph glyph-name="nonmarkingreturn" unicode="&#xfeff;" horiz-adv-x="1228" 
 />
    <glyph glyph-name="space" unicode=" " horiz-adv-x="491" 
 />
    <glyph glyph-name="exclam" unicode="!" horiz-adv-x="367" 
d="M101 430v1004h126v-1004h-126zM165 -27q-35 0 -59 24t-24 59q0 34 24 57.5t59 23.5q33 0 56.5 -23.5t23.5 -57.5q0 -35 -23.5 -59t-56.5 -24z" />
    <glyph glyph-name="quotedbl" unicode="&#x22;" horiz-adv-x="531" 
d="M75 899v535h109v-535h-109zM347 899v535h110v-535h-110z" />
    <glyph glyph-name="numbersign" unicode="#" horiz-adv-x="1547" 
d="M1428 951h-206l-126 -467h208l-37 -139h-207l-93 -345h-144l93 345h-483l-93 -345h-143l93 345h-208l38 139h206l126 467h-208l38 139h206l93 344h143l-92 -344h484l91 344h144l-91 -344h205zM952 484l126 467h-483l-126 -467h483z" />
    <glyph glyph-name="dollar" unicode="$" horiz-adv-x="1208" 
d="M603 1311q-98 1 -182.5 -31.5t-136.5 -93.5t-52 -137q0 -39 10 -70.5t26 -55t44.5 -42.5t55.5 -32t70 -25t77.5 -19t87.5 -17q86 -15 159.5 -37t140.5 -57t114 -79t74.5 -104t27.5 -131q0 -167 -133 -277.5t-327 -126.5v-205h-109v205q-163 11 -293.5 90t-174.5 204
l134 51q33 -92 144.5 -148t242.5 -56q153 0 263 73.5t110 189.5q0 196 -373 262q-95 16 -167 36t-140 53t-111.5 75t-69.5 103.5t-26 139.5q0 111 63.5 201t167.5 141t230 60v212h109v-212q158 -11 288.5 -89.5t178.5 -205.5l-136 -49q-33 93 -144 148.5t-243 55.5z" />
    <glyph glyph-name="percent" unicode="%" horiz-adv-x="1312" 
d="M159 0l827 1434h166l-827 -1434h-166zM327 873q-101 0 -173 71.5t-72 173.5q0 103 72 174.5t173 71.5t172.5 -72t71.5 -174t-72 -173.5t-172 -71.5zM327 983q57 0 96 39.5t39 95.5q0 57 -39 96.5t-96 39.5t-96.5 -39.5t-39.5 -96.5q0 -56 39.5 -95.5t96.5 -39.5zM986 69
q-101 0 -173.5 73t-72.5 172q0 102 73 174t173 72q102 0 173.5 -72.5t71.5 -173.5t-72 -173t-173 -72zM986 178q56 0 95.5 40t39.5 96t-40 96.5t-95 40.5q-57 0 -97 -40.5t-40 -96.5t40 -96t97 -40z" />
    <glyph glyph-name="ampersand" unicode="&#x26;" horiz-adv-x="1451" 
d="M497 -27q-118 0 -214.5 59t-148.5 154t-52 204q0 26 1 47t7 44t9 37.5t17.5 38.5t20.5 36t30.5 40.5t35 41.5t46 49.5t52 53l63.5 63.5l32 32q-66 66 -94.5 97t-53.5 68.5t-31.5 67t-6.5 73.5q0 120 85 204t202 84q120 0 204 -84t84 -204q0 -45 -7 -76t-33.5 -69
t-53.5 -67t-92 -94l383 -383l225 226v-203l-126 -126l288 -286l-101 -101l-286 285q-176 -175 -226 -217q-86 -72 -166 -88q-39 -7 -93 -7zM497 958q15 15 39.5 39t34 33t25.5 26t21.5 23.5t15 19t11.5 19.5t6 18t4.5 21.5t0.5 23.5q0 66 -47 111.5t-111 45.5
q-65 0 -111 -46.5t-46 -110.5q0 -17 1.5 -30t8.5 -27.5t11.5 -23t21.5 -27.5t27.5 -29t39.5 -38.5t47 -47.5zM497 117q23 0 41 1.5t37.5 8l31.5 10.5t34 20t33.5 25.5t40 37t44.5 43.5t56 57.5t66 67.5l-384 384q-28 -29 -68.5 -69t-58 -57.5t-44 -45t-36.5 -40t-25 -33.5
t-19.5 -33t-11 -31t-7.5 -36t-1 -40q0 -114 79.5 -192t191.5 -78z" />
    <glyph glyph-name="quotesingle" unicode="'" horiz-adv-x="259" 
d="M75 899v535h109v-535h-109z" />
    <glyph glyph-name="parenleft" unicode="(" horiz-adv-x="658" 
d="M413 -115q-290 272 -290 774q0 142 32 291t99.5 283.5t158.5 200.5h143q-127 -122 -205.5 -336t-84.5 -439q6 -237 81.5 -433.5t208.5 -340.5h-143z" />
    <glyph glyph-name="parenright" unicode=")" horiz-adv-x="658" 
d="M102 -115q133 144 208.5 340.5t81.5 433.5q-6 225 -84.5 439t-205.5 336h144q90 -66 158 -200.5t100 -283.5t32 -291q0 -502 -290 -774h-144z" />
    <glyph glyph-name="asterisk" unicode="*" horiz-adv-x="721" 
d="M217 873l-88 65l127 175l-205 67l33 103l207 -65v216h109v-216l206 65l34 -103l-207 -67l128 -175l-89 -65l-127 177z" />
    <glyph glyph-name="plus" unicode="+" horiz-adv-x="1187" 
d="M522 102v441h-440v143h440v440h144v-440h440v-143h-440v-441h-144z" />
    <glyph glyph-name="comma" unicode="," horiz-adv-x="411" 
d="M82 -115l63 346h144l-112 -346h-95z" />
    <glyph glyph-name="hyphen" unicode="-" horiz-adv-x="901" 
d="M123 686h655v-143h-655v143z" />
    <glyph glyph-name="period" unicode="." horiz-adv-x="368" 
d="M163 -27q-34 0 -57.5 24t-23.5 59q0 33 23.5 57t57.5 24t58.5 -24t24.5 -57q0 -35 -24 -59t-59 -24z" />
    <glyph glyph-name="slash" unicode="/" horiz-adv-x="721" 
d="M640 1434l-415 -1549h-143l415 1549h143z" />
    <glyph glyph-name="zero" unicode="0" horiz-adv-x="1219" 
d="M611 -27q-167 0 -293.5 101t-191.5 269t-65 374q0 207 65 374.5t191.5 268t293.5 100.5q166 0 292 -100.5t190.5 -268t64.5 -374.5q0 -206 -64.5 -374t-190.5 -269t-292 -101zM611 117q130 0 225 83.5t140.5 217.5t45.5 299q0 171 -47 305.5t-141 214.5t-223 80
q-101 0 -181.5 -48.5t-130 -132.5t-75.5 -190.5t-26 -228.5q0 -166 46 -300t141.5 -217t225.5 -83z" />
    <glyph glyph-name="one" unicode="1" horiz-adv-x="542" 
d="M236 0v1290h-154l41 144h256v-1434h-143z" />
    <glyph glyph-name="two" unicode="2" horiz-adv-x="1115" 
d="M82 0v127q282 258 397 376q348 353 348 518q0 122 -85 209t-206 87t-208 -87t-87 -209h-144q0 183 129 311t310 128q180 0 307.5 -128.5t127.5 -310.5q0 -287 -634 -878h655v-143h-910z" />
    <glyph glyph-name="three" unicode="3" horiz-adv-x="1006" 
d="M503 -27q-96 0 -179 33.5t-140.5 91.5t-90 136.5t-32.5 166.5h144q0 -121 81.5 -202.5t216.5 -81.5q119 0 209 84t90 200q0 142 -104.5 217t-276.5 75v119q156 0 247 66.5t91 189.5q0 101 -80 175.5t-183 74.5q-105 0 -189.5 -75t-84.5 -175h-143q0 160 125.5 276.5
t290.5 116.5q163 0 285 -116t122 -277q0 -106 -54.5 -191t-146.5 -119q117 -39 180.5 -136t63.5 -221q0 -115 -61 -214.5t-163 -156.5t-218 -57z" />
    <glyph glyph-name="four" unicode="4" horiz-adv-x="1117" 
d="M700 0v402h-618v146l582 886h180v-888h150v-144h-150v-402h-144zM252 548l448 -2l-3 683z" />
    <glyph glyph-name="five" unicode="5" horiz-adv-x="1133" 
d="M542 -27q-196 0 -333 137.5t-137 331.5h143q0 -134 95.5 -229.5t231.5 -95.5q134 0 229.5 95.5t95.5 229.5q0 138 -95.5 233t-250.5 95h-348l135 664h671v-144h-555l-75 -377l167 -1q219 -3 357 -134t138 -336q0 -127 -63 -235t-171 -171t-235 -63z" />
    <glyph glyph-name="six" unicode="6" horiz-adv-x="1102" 
d="M545 -27q-99 0 -190.5 39.5t-158 106t-106 158.5t-39.5 192q0 73 17 129t56 130l406 706h167l-298 -516q73 29 151.5 31t148.5 -19.5t133.5 -65t109 -102t72.5 -134.5t27 -159q0 -134 -66.5 -248t-181 -181t-248.5 -67zM545 117q150 0 251.5 105.5t101.5 247.5
q0 145 -102.5 247.5t-248.5 102.5q-149 0 -250.5 -104t-101.5 -246q0 -148 104 -250.5t246 -102.5z" />
    <glyph glyph-name="seven" unicode="7" horiz-adv-x="1094" 
d="M144 0l744 1290h-847v144h1013v-144l-746 -1290h-164z" />
    <glyph glyph-name="eight" unicode="8" horiz-adv-x="1078" 
d="M539 -27q-190 0 -323.5 124t-133.5 301q0 113 62.5 208t165.5 149q-87 48 -139.5 132.5t-52.5 182.5q0 161 124 275.5t297 114.5t296.5 -114.5t123.5 -275.5q0 -98 -52.5 -182.5t-139.5 -132.5q104 -53 166.5 -148.5t62.5 -208.5q0 -115 -61 -213t-166.5 -155t-229.5 -57
zM539 822q111 0 189.5 72.5t78.5 175.5q0 102 -78.5 174.5t-189.5 72.5t-190 -72.5t-79 -174.5q0 -103 79 -175.5t190 -72.5zM539 117q127 0 215.5 82t88.5 199t-88.5 199t-215.5 82q-126 0 -215.5 -82t-89.5 -199t89.5 -199t215.5 -82z" />
    <glyph glyph-name="nine" unicode="9" horiz-adv-x="1078" 
d="M360 0l317 548q-71 -27 -146 -29t-142.5 19t-128 62.5t-104.5 98t-69.5 129.5t-25.5 153q0 129 64 239.5t174.5 175t240.5 64.5q128 0 238 -64.5t174.5 -175t64.5 -239.5q0 -70 -16.5 -123t-55.5 -126l-420 -732h-165zM538 645q143 0 240.5 99.5t97.5 235.5
q0 142 -100 240t-236 98q-145 0 -241.5 -100.5t-96.5 -237.5q0 -138 98.5 -236.5t237.5 -98.5z" />
    <glyph glyph-name="colon" unicode=":" horiz-adv-x="368" 
d="M163 860q-34 0 -57.5 24t-23.5 59q0 33 23.5 57t57.5 24t58.5 -24t24.5 -57q0 -35 -24 -59t-59 -24zM163 -27q-34 0 -57.5 24t-23.5 59q0 33 23.5 57t57.5 24t58.5 -24t24.5 -57q0 -35 -24 -59t-59 -24z" />
    <glyph glyph-name="semicolon" unicode=";" horiz-adv-x="419" 
d="M216 860q-35 0 -59 23.5t-24 57.5q0 35 24 59t59 24q33 0 57 -24.5t24 -58.5t-24 -57.5t-57 -23.5zM82 -115l63 346h144l-112 -346h-95z" />
    <glyph glyph-name="less" unicode="&#x3c;" horiz-adv-x="1187" 
d="M1106 205l-1024 291v235l1024 293v-151l-915 -259l915 -261v-148z" />
    <glyph glyph-name="equal" unicode="=" horiz-adv-x="1187" 
d="M82 750v143h1024v-143h-1024zM82 336v143h1024v-143h-1024z" />
    <glyph glyph-name="greater" unicode="&#x3e;" horiz-adv-x="1187" 
d="M82 209v148l914 257l-914 255v151l1024 -289v-235z" />
    <glyph glyph-name="question" unicode="?" horiz-adv-x="1027" 
d="M435 493q0 101 50.5 185.5t140.5 134.5q63 33 99 97t36 141q0 111 -78.5 189t-189.5 78t-189.5 -78t-78.5 -189h-143q0 169 120.5 289.5t290.5 120.5t290.5 -120t120.5 -290q0 -116 -56.5 -214t-154.5 -151q-54 -29 -84 -80t-30 -113h-144zM503 -27q-34 0 -58 24.5
t-24 58.5t24 57.5t58 23.5t58 -23.5t24 -57.5t-24 -58.5t-58 -24.5z" />
    <glyph glyph-name="at" unicode="@" horiz-adv-x="1772" 
d="M887 -190q-132 0 -254 35.5t-221.5 102.5t-173.5 158.5t-115 209.5t-41 248q0 218 108 403t293.5 293t403.5 108q219 0 404.5 -108.5t292.5 -293.5t107 -402q0 -85 -21.5 -168.5t-60 -152t-99 -110.5t-132.5 -42q-92 0 -169.5 60.5t-84.5 146.5q-43 -66 -112 -103.5
t-157 -37.5q-168 0 -287 119t-119 288q0 168 119 287.5t287 119.5q87 0 160 -37t114 -100v116l116 -17v-584q0 -48 38 -81.5t88 -33.5q58 0 99.5 53t59 125.5t17.5 151.5q0 135 -52.5 257.5t-141.5 211t-211 140.5t-255 52q-178 0 -330.5 -88t-242 -240.5t-89.5 -332.5
q0 -179 89 -319.5t239.5 -216t333.5 -75.5v-143zM864 272q116 0 188.5 92t72.5 213q0 116 -69 197t-192 81q-122 0 -207 -85t-85 -206q0 -122 86 -207t206 -85z" />
    <glyph glyph-name="A" unicode="A" horiz-adv-x="1385" 
d="M603 1434h178l523 -1434h-153l-112 307h-693l-112 -307h-152zM398 451h588l-294 806z" />
    <glyph glyph-name="B" unicode="B" horiz-adv-x="1141" 
d="M123 0v1434h484q162 0 269.5 -98t107.5 -266q0 -96 -50 -178t-117 -101q81 -21 138 -86t81 -142t24 -159q0 -179 -112.5 -291.5t-276.5 -112.5h-548zM266 845h329q105 0 175.5 60.5t70.5 165.5q0 113 -69.5 174t-176.5 61h-329v-461zM266 128h393q112 0 191 85.5
t79 212.5q0 115 -80 204t-190 89h-393v-591z" />
    <glyph glyph-name="C" unicode="C" horiz-adv-x="1452" 
d="M786 -27q-143 0 -273.5 59t-225 158.5t-150 237.5t-55.5 289q0 202 94 373t256.5 270.5t353.5 99.5q170 0 317.5 -79.5t246.5 -216.5l-127 -68q-76 102 -193 161.5t-244 59.5q-153 0 -283 -82t-204 -220t-74 -298q0 -163 75 -301t204.5 -218.5t281.5 -80.5
q130 0 245.5 59.5t191.5 160.5l127 -69q-99 -137 -246.5 -216t-317.5 -79z" />
    <glyph glyph-name="D" unicode="D" horiz-adv-x="1375" 
d="M123 0v1434h474q146 0 278.5 -57t228.5 -153t153 -228.5t57 -278.5t-57 -278.5t-153 -228.5t-228.5 -153t-278.5 -57h-474zM266 143h331q155 0 287 77t209 209t77 288q0 116 -45.5 222.5t-122.5 183t-183 122t-222 45.5h-331v-1147z" />
    <glyph glyph-name="E" unicode="E" 
d="M123 0v1434h872v-144h-729v-450h603v-144h-603v-553h729v-143h-872z" />
    <glyph glyph-name="F" unicode="F" horiz-adv-x="982" 
d="M123 0v1434h839v-144h-696v-450h597v-144h-597v-696h-143z" />
    <glyph glyph-name="G" unicode="G" horiz-adv-x="1572" 
d="M787 -27q-193 0 -355.5 100t-256 271.5t-93.5 373.5q0 154 57 292t153 236t226.5 155.5t271.5 57.5q165 0 311.5 -77t249.5 -218l-128 -69q-82 106 -196.5 164t-238.5 58q-152 0 -281.5 -80.5t-205.5 -219t-76 -301.5q0 -162 76 -300t206 -218.5t283 -80.5
q190 0 339.5 126t194.5 318h-387v130h554q-3 -146 -60.5 -278.5t-151.5 -229t-223 -153.5t-269 -57z" />
    <glyph glyph-name="H" unicode="H" horiz-adv-x="1285" 
d="M1019 1434h143v-1434h-143v696h-753v-696h-143v1434h143v-594h753v594z" />
    <glyph glyph-name="I" unicode="I" horiz-adv-x="450" 
d="M154 0v1434h143v-1434h-143z" />
    <glyph glyph-name="J" unicode="J" horiz-adv-x="822" 
d="M297 -27q-145 0 -256 94l91 110q70 -60 165 -60q105 0 182 81.5t77 189.5v1046h143v-1046q0 -167 -118.5 -291t-283.5 -124z" />
    <glyph glyph-name="K" unicode="K" horiz-adv-x="1091" 
d="M1043 0h-185l-470 644l-122 -146v-498h-143v1434h143v-713l597 713h188l-569 -677z" />
    <glyph glyph-name="L" unicode="L" horiz-adv-x="1027" 
d="M123 0v1434h143v-1291h659v-143h-802z" />
    <glyph glyph-name="M" unicode="M" horiz-adv-x="1811" 
d="M123 0l277 1434h105l401 -1055l400 1055h104l279 -1434h-147l-212 1097l-379 -1003h-92l-379 1003l-212 -1097h-145z" />
    <glyph glyph-name="N" unicode="N" horiz-adv-x="1301" 
d="M123 0v1434h156l756 -1175v1175h144v-1434h-155l-758 1175v-1175h-143z" />
    <glyph glyph-name="O" unicode="O" horiz-adv-x="1576" 
d="M788 -27q-143 0 -274 59t-225.5 158.5t-150.5 237.5t-56 289t56 288.5t150.5 237t225.5 158.5t274 59q191 0 354 -99.5t258 -270.5t95 -373q0 -151 -56 -289t-151 -237.5t-226 -158.5t-274 -59zM788 117q153 0 283.5 81.5t205.5 219.5t75 299q0 162 -76 300t-206 219
t-282 81q-153 0 -283 -81.5t-205 -219.5t-75 -299q0 -162 75.5 -300.5t205.5 -219t282 -80.5z" />
    <glyph glyph-name="P" unicode="P" horiz-adv-x="1072" 
d="M123 0v1434h459q171 0 289.5 -121.5t118.5 -297.5q0 -177 -120 -298.5t-288 -121.5h-316v-595h-143zM266 738h304q115 0 196 82t81 202t-81 202t-196 82h-304v-568z" />
    <glyph glyph-name="Q" unicode="Q" horiz-adv-x="1590" 
d="M1405 -25l-171 171q-194 -170 -446 -170q-144 0 -274.5 59t-225 158.5t-150.5 237.5t-56 289t56 288.5t150.5 237t225 158.5t274.5 59q143 0 274 -59t225.5 -158.5t150.5 -237t56 -288.5q0 -264 -162 -471l174 -172zM788 120q93 0 182.5 34t158.5 96l-211 212l101 102
l208 -209q124 158 124 365q0 162 -76 300.5t-205.5 219t-281.5 80.5q-115 0 -219.5 -48.5t-179.5 -129.5t-119.5 -191.5t-44.5 -230.5q0 -163 76 -301t205.5 -218.5t281.5 -80.5z" />
    <glyph glyph-name="R" unicode="R" horiz-adv-x="1141" 
d="M123 0v1434h486q172 0 290 -121t118 -298q0 -156 -93 -269t-235 -140l350 -606h-166l-345 595h-262v-595h-143zM266 738h331q115 0 195.5 81.5t80.5 202.5t-80.5 202.5t-195.5 81.5h-331v-568z" />
    <glyph glyph-name="S" unicode="S" horiz-adv-x="1249" 
d="M624 -27q-177 0 -325.5 81t-196.5 216l135 51q33 -92 144.5 -148t242.5 -56q152 0 262 73.5t110 189.5q0 196 -372 262q-95 16 -167 36t-140 53t-111.5 75t-69.5 103.5t-26 139.5q0 120 72 214t188.5 143t253.5 49q174 0 322.5 -80.5t200.5 -218.5l-136 -49
q-33 93 -144 148.5t-243 55.5q-98 1 -182.5 -31.5t-136.5 -93.5t-52 -137q0 -39 10 -70.5t26 -55t44.5 -42.5t55.5 -32t70 -25t77.5 -19t87.5 -17q86 -15 159.5 -37t140.5 -57t114 -79t74.5 -104t27.5 -131q0 -120 -72 -214t-189 -143.5t-255 -49.5z" />
    <glyph glyph-name="T" unicode="T" horiz-adv-x="1289" 
d="M1207 1434v-144h-491v-1290h-144v1290h-490v144h1125z" />
    <glyph glyph-name="U" unicode="U" horiz-adv-x="1357" 
d="M679 -27q-126 0 -231.5 49t-176 133.5t-109.5 198.5t-39 244v836h143v-836q0 -133 47 -241t142.5 -174t223.5 -66q130 0 225.5 66.5t141.5 174t46 240.5v836h143v-836q0 -130 -39 -244t-109.5 -198.5t-176 -133.5t-231.5 -49z" />
    <glyph glyph-name="V" unicode="V" horiz-adv-x="1310" 
d="M568 0l-520 1434h152l454 -1254l457 1254h152l-522 -1434h-173z" />
    <glyph glyph-name="W" unicode="W" horiz-adv-x="1728" 
d="M415 0l-367 1434h148l303 -1187l302 1187h127l303 -1187l302 1187h147l-364 -1434h-170l-282 1101l-281 -1101h-168z" />
    <glyph glyph-name="X" unicode="X" horiz-adv-x="1350" 
d="M61 0l526 721l-519 713h177l430 -592l431 592h177l-518 -713l524 -721h-178l-436 598l-434 -598h-180z" />
    <glyph glyph-name="Y" unicode="Y" horiz-adv-x="1231" 
d="M1001 1434h169l-483 -785v-649h-143v649l-483 785h169l385 -628z" />
    <glyph glyph-name="Z" unicode="Z" horiz-adv-x="1323" 
d="M82 0v143l968 1147h-968v144h1159v-144l-968 -1147h968v-143h-1159z" />
    <glyph glyph-name="bracketleft" unicode="[" horiz-adv-x="551" 
d="M450 29v-144h-327v1549h327v-144h-184v-1261h184z" />
    <glyph glyph-name="backslash" unicode="\" horiz-adv-x="721" 
d="M497 -115l-415 1549h143l415 -1549h-143z" />
    <glyph glyph-name="bracketright" unicode="]" horiz-adv-x="551" 
d="M102 -115v144h184v1261h-184v144h327v-1549h-327z" />
    <glyph glyph-name="asciicircum" unicode="^" horiz-adv-x="803" 
d="M82 1024l242 666h156l242 -666h-153l-167 462l-169 -462h-151z" />
    <glyph glyph-name="underscore" unicode="_" horiz-adv-x="1269" 
d="M123 29h1024v-144h-1024v144z" />
    <glyph glyph-name="grave" unicode="`" horiz-adv-x="771" 
d="M246 1432h143l82 -295h-95z" />
    <glyph glyph-name="a" unicode="a" horiz-adv-x="1189" 
d="M965 1024h143v-1024h-143l-6 190q-52 -101 -143 -159t-212 -58q-148 0 -273 73t-197.5 198t-72.5 273q0 109 42.5 208.5t114 171t170 114t207.5 42.5q124 0 220.5 -59t154.5 -161zM601 113q160 0 256 114.5t96 284.5q0 172 -96.5 286t-255.5 114q-163 0 -278 -117
t-115 -283t116 -282.5t277 -116.5z" />
    <glyph glyph-name="b" unicode="b" horiz-adv-x="1231" 
d="M631 1053q147 0 271 -72.5t196 -196.5t72 -271t-72 -271t-196 -196.5t-271 -72.5q-123 0 -216.5 58.5t-148.5 159.5v-191h-143v1536h143v-701q55 101 148.5 159.5t216.5 58.5zM630 114q163 0 278.5 117t115.5 282q0 167 -116.5 283.5t-277.5 116.5q-159 0 -255.5 -115.5
t-96.5 -284.5q0 -171 97 -285t255 -114z" />
    <glyph glyph-name="c" unicode="c" horiz-adv-x="1043" 
d="M854 257l128 -70q-71 -99 -178.5 -156.5t-230.5 -57.5q-139 0 -257 72.5t-186.5 196.5t-68.5 270q0 147 68.5 271.5t186.5 197t257 72.5q123 0 230.5 -57.5t178.5 -157.5l-128 -69q-52 67 -127.5 103.5t-153.5 36.5q-154 0 -261 -117.5t-107 -279.5q0 -106 49 -197
t134 -144.5t185 -53.5q82 0 156 38t125 102z" />
    <glyph glyph-name="d" unicode="d" horiz-adv-x="1231" 
d="M966 1536h143v-1536h-143v191q-55 -102 -149 -160t-217 -58q-146 0 -270 72.5t-196.5 196.5t-72.5 270q0 147 72.5 271t196.5 196.5t270 72.5q123 0 217 -58t149 -159v701zM601 113q160 0 256 114.5t96 284.5q0 172 -96.5 286t-255.5 114q-163 0 -278 -117t-115 -283
t116 -282.5t277 -116.5z" />
    <glyph glyph-name="e" unicode="e" horiz-adv-x="1143" 
d="M573 -27q-139 0 -257 72.5t-186.5 196.5t-68.5 270q0 147 68.5 271.5t186.5 197t257 72.5q150 0 269.5 -78t183 -214.5t55.5 -302.5h-868q18 -147 119 -243.5t241 -97.5q101 0 184 52.5t134 146.5l145 -33q-63 -139 -187.5 -224.5t-275.5 -85.5zM209 573h728
q-11 143 -117 246.5t-247 103.5t-244 -101t-120 -249z" />
    <glyph glyph-name="f" unicode="f" horiz-adv-x="683" 
d="M335 1291v-267h307v-143h-307v-881h-144v881h-140v143h140v267q0 111 79.5 190.5t191.5 79.5q115 0 195 -85l-102 -102q-35 43 -93 43q-53 0 -90 -37t-37 -89z" />
    <glyph glyph-name="g" unicode="g" horiz-adv-x="1203" 
d="M937 1024h143v-1062q0 -96 -43 -184.5t-114 -151.5t-164.5 -100.5t-191.5 -37.5q-159 0 -297.5 104t-184.5 253l132 61q28 -115 131 -194.5t219 -79.5q93 0 178 44.5t138.5 121.5t53.5 164v226q-55 -100 -146.5 -157.5t-207.5 -57.5q-142 0 -262 72.5t-190 196.5t-70 270
q0 147 70 271t190 196.5t262 72.5q117 0 208 -57.5t146 -157.5v187zM584 113q154 0 249.5 116.5t95.5 282.5q0 168 -96 284t-249 116q-157 0 -266.5 -117t-109.5 -283t110.5 -282.5t265.5 -116.5z" />
    <glyph glyph-name="h" unicode="h" 
d="M1016 634v-634h-144v605q0 126 -89 214.5t-214 88.5t-214 -88.5t-89 -214.5v-605h-143v1536h143v-653q56 79 143.5 124.5t187.5 45.5q173 0 296 -123t123 -296z" />
    <glyph glyph-name="i" unicode="i" horiz-adv-x="389" 
d="M196 1203q-35 0 -59 23t-24 58q0 34 24 57.5t59 23.5q34 0 58 -23.5t24 -57.5q0 -35 -23.5 -58t-58.5 -23zM123 1024h143v-1024h-143v1024z" />
    <glyph glyph-name="j" unicode="j" horiz-adv-x="451" 
d="M258 1203q-35 0 -59 23t-24 58q0 34 24 57.5t59 23.5q34 0 58 -23.5t24 -57.5q0 -35 -23.5 -58t-58.5 -23zM-82 -512v143q114 0 190.5 74t76.5 184v1135h144v-1135q0 -168 -118.5 -284.5t-292.5 -116.5z" />
    <glyph glyph-name="k" unicode="k" horiz-adv-x="1005" 
d="M923 0h-165l-287 495l-205 -245v-250h-143v1536h143v-1063l462 551h187l-347 -413z" />
    <glyph glyph-name="l" unicode="l" horiz-adv-x="389" 
d="M123 0v1536h143v-1536h-143z" />
    <glyph glyph-name="m" unicode="m" horiz-adv-x="1819" 
d="M123 0v1024h143v-141q57 79 143.5 124.5t186.5 45.5q114 0 210 -56.5t152 -151.5q55 95 151 151.5t210 56.5q173 0 296 -123t123 -296v-634h-144v602q0 124 -87 215t-209 91q-124 0 -210 -87.5t-86 -218.5v-602h-143v602q0 131 -86.5 218.5t-210.5 87.5q-122 0 -209 -91
t-87 -215v-602h-143z" />
    <glyph glyph-name="n" unicode="n" 
d="M1016 634v-634h-144v605q0 126 -89 214.5t-214 88.5t-214 -88.5t-89 -214.5v-605h-143v1024h143v-141q56 79 143.5 124.5t187.5 45.5q173 0 296 -123t123 -296z" />
    <glyph glyph-name="o" unicode="o" horiz-adv-x="1146" 
d="M573 -27q-139 0 -257 72.5t-186.5 196.5t-68.5 270q0 147 68.5 271.5t186.5 197t257 72.5t257 -72.5t186.5 -197t68.5 -271.5q0 -146 -68.5 -270t-186.5 -196.5t-257 -72.5zM573 117q154 0 261.5 117t107.5 278q0 162 -108 279.5t-261 117.5q-155 0 -261.5 -117
t-106.5 -280q0 -165 108 -280t260 -115z" />
    <glyph glyph-name="p" unicode="p" horiz-adv-x="1230" 
d="M266 -512h-143v1536h143v-191q55 101 148.5 159.5t216.5 58.5q146 0 270 -72.5t196 -196.5t72 -270q0 -147 -72 -271.5t-195.5 -197t-270.5 -72.5q-123 0 -216.5 58.5t-148.5 159.5v-701zM630 911q-158 0 -255 -114.5t-97 -284.5t96.5 -285t255.5 -115q161 0 277.5 116.5
t116.5 283.5q0 165 -115.5 282t-278.5 117z" />
    <glyph glyph-name="q" unicode="q" horiz-adv-x="1230" 
d="M600 -29q-146 0 -270 72.5t-196.5 197t-72.5 271.5q0 146 72.5 270t196.5 196.5t270 72.5q123 0 216.5 -58.5t148.5 -159.5v191h143v-1536h-143v701q-55 -101 -148.5 -159.5t-216.5 -58.5zM601 911q-163 0 -278 -117t-115 -282q0 -167 116 -283.5t277 -116.5
q160 0 256 115t96 285q0 171 -96.5 285t-255.5 114z" />
    <glyph glyph-name="r" unicode="r" horiz-adv-x="732" 
d="M123 0v1024h143v-141q56 79 143.5 124.5t187.5 45.5q56 0 115 -16l-59 -142q-44 13 -84 13q-125 0 -214 -88.5t-89 -214.5v-605h-143z" />
    <glyph glyph-name="s" unicode="s" horiz-adv-x="879" 
d="M439 -19q-129 3 -240 65t-148 155l124 53q24 -60 107.5 -103t169.5 -43q97 0 168 47t71 123q0 37 -16.5 64.5t-55 48t-65 30t-82.5 25.5q-18 5 -27 8q-90 24 -150.5 47.5t-113 58t-78 83t-25.5 112.5q0 135 110.5 219.5t263.5 84.5q125 0 227.5 -54.5t148.5 -144.5
l-115 -68q-27 60 -99.5 98.5t-152.5 40.5q-104 2 -175.5 -44.5t-71.5 -128.5q0 -24 5.5 -43t20.5 -33.5t28 -25t41 -21t46 -16.5t56 -17t59 -18q64 -21 109.5 -38.5t96 -45t81 -57t50.5 -71.5t19 -92q0 -134 -116 -219t-271 -80z" />
    <glyph glyph-name="t" unicode="t" horiz-adv-x="706" 
d="M646 881h-245l-1 -881h-143l1 881h-185v143h185l-1 322h143l1 -322h245v-143z" />
    <glyph glyph-name="u" unicode="u" horiz-adv-x="1056" 
d="M82 392v632h143v-603q0 -126 89 -214.5t214 -88.5t213.5 88.5t88.5 214.5v603h144l1 -1024h-144l-1 143q-56 -79 -142.5 -124.5t-186.5 -45.5q-173 0 -296 123t-123 296z" />
    <glyph glyph-name="v" unicode="v" horiz-adv-x="1052" 
d="M617 0h-182l-374 1027h153l312 -859l313 859h152z" />
    <glyph glyph-name="w" unicode="w" horiz-adv-x="1664" 
d="M552 0h-148l-343 1024h141l278 -825l277 825h151l277 -825l276 825h142l-343 -1024h-149l-281 834z" />
    <glyph glyph-name="x" unicode="x" horiz-adv-x="1090" 
d="M82 0l375 514l-374 513h177l286 -390l284 390h177l-373 -513l375 -514h-178l-285 393l-287 -393h-177z" />
    <glyph glyph-name="y" unicode="y" horiz-adv-x="1057" 
d="M824 1024h152l-560 -1536h-153l187 512l-368 1024h157l282 -826z" />
    <glyph glyph-name="z" unicode="z" horiz-adv-x="1038" 
d="M956 881l-671 -738h671v-143h-874v143l672 738h-672v143h874v-143z" />
    <glyph glyph-name="braceleft" unicode="{" horiz-adv-x="822" 
d="M644 -116q-149 0 -253.5 105t-104.5 254v251q-1 30 -27 51.5t-56 32t-55 31t-25 49.5t25 50.5t55 32.5t56 32t27 50v252q0 148 104.5 253.5t253.5 105.5h76v-144h-76q-88 0 -151.5 -63t-63.5 -152v-257q-1 -23 -5.5 -40t-18.5 -33.5t-22.5 -25t-36 -29.5t-40.5 -32
q17 -15 42 -34.5t35 -28.5t22.5 -24t17.5 -31.5t6 -40.5v-256q0 -89 63 -152t152 -63h76v-144h-76z" />
    <glyph glyph-name="bar" unicode="|" horiz-adv-x="430" 
d="M143 1434h144v-1743h-144v1743z" />
    <glyph glyph-name="braceright" unicode="}" horiz-adv-x="822" 
d="M102 -116v144h76q89 0 152 63t63 152v256q1 24 6 40.5t17.5 31.5t22.5 24t35.5 29t42.5 34q-13 10 -41 32t-36 29.5t-22.5 24.5t-19 34t-5.5 40v257q0 89 -63 152t-152 63h-76v144h76q149 0 254 -105.5t105 -253.5v-252q1 -29 27 -50t55.5 -32t54.5 -32.5t25 -50.5
t-25 -49.5t-54.5 -31t-55.5 -32t-27 -51.5v-251q0 -149 -105 -254t-254 -105h-76z" />
    <glyph glyph-name="asciitilde" unicode="~" horiz-adv-x="1253" 
d="M919 433q-58 0 -141 35t-152.5 77t-145.5 77t-121 35q-67 1 -106 -52.5t-25 -122.5l-139 -7q-18 78 12.5 153t97.5 121.5t150 46.5q46 0 104.5 -23.5t115 -57t112 -67t111.5 -57t98 -23.5q68 0 108 53t25 120l140 10q30 -124 -45 -221t-199 -97z" />
    <glyph glyph-name="uni00A0" unicode="&#xa0;" horiz-adv-x="491" 
 />
    <glyph glyph-name="exclamdown" unicode="&#xa1;" horiz-adv-x="340" 
d="M163 1051q35 0 58.5 -24t23.5 -59q0 -34 -24 -57.5t-58 -23.5t-57.5 23.5t-23.5 57.5q0 35 23.5 59t57.5 24zM226 594v-1004h-127v1004h127z" />
    <glyph glyph-name="cent" unicode="&#xa2;" horiz-adv-x="1118" 
d="M539 0v208q-194 22 -325.5 167.5t-131.5 343.5q0 197 131.5 342.5t325.5 166.5v206h109v-206q121 -10 223 -75.5t165 -167.5l-124 -72q-51 80 -136.5 128.5t-179.5 48.5q-152 0 -261.5 -109t-109.5 -262q0 -155 110 -264t261 -109q94 0 179.5 48t136.5 128l124 -71
q-63 -102 -165 -167.5t-223 -75.5v-208h-109z" />
    <glyph glyph-name="sterling" unicode="&#xa3;" horiz-adv-x="1188" 
d="M106 0v143q126 0 218 63.5t76 159.5q-4 48 -22 94h-272v109h194q-14 14 -57 54t-62.5 63t-47 64t-39.5 90t-12 109q0 103 40.5 198t109 163.5t163.5 109t198 40.5q105 0 200 -40.5t164 -109t109.5 -163t40.5 -198.5h-143q0 152 -108.5 260t-262.5 108
q-151 0 -259.5 -108.5t-108.5 -259.5q0 -64 15 -114t43 -86.5t55.5 -62t66 -58.5t60.5 -59h411v-109h-347q19 -60 19 -127q0 -59 -38.5 -112.5t-87.5 -77.5h676v-143h-992z" />
    <glyph glyph-name="currency" unicode="&#xa4;" horiz-adv-x="1006" 
d="M159 295l-77 77l127 128q-71 96 -71 216.5t73 215.5l-129 131l77 76l130 -129q93 71 215 71.5t216 -69.5l129 127l76 -76l-126 -128q74 -96 74.5 -218.5t-72.5 -218.5l124 -126l-76 -77l-126 125q-98 -74 -219 -73.5t-218 75.5zM505 456q107 1 183 76.5t76 182.5
q0 109 -75.5 183t-183.5 75q-108 0 -183 -76t-75 -182q0 -108 77 -184t181 -75z" />
    <glyph glyph-name="yen" unicode="&#xa5;" horiz-adv-x="1258" 
d="M558 0v198h-301v108h301v164h-301v109h301v70l-483 785h169l386 -628l385 628h169l-483 -785v-70h301v-109h-301v-164h301v-108h-301v-198h-143z" />
    <glyph glyph-name="brokenbar" unicode="&#xa6;" horiz-adv-x="389" 
d="M123 1434h143v-768h-143v768zM123 459h143v-768h-143v768z" />
    <glyph glyph-name="section" unicode="&#xa7;" horiz-adv-x="1101" 
d="M558 -411q-125 0 -228 54t-149 145l116 68q27 -60 100 -99t152 -41q104 -2 175.5 45t71.5 129q0 33 -13.5 59t-33.5 43t-56.5 31t-68.5 22.5t-84 19.5q-190 36 -303.5 152.5t-113.5 293.5q0 129 75 235.5t195 147.5q-114 26 -168.5 84.5t-54.5 153.5q0 135 110.5 219
t263.5 84q125 0 228 -54t149 -145l-116 -68q-27 60 -100 99t-152 41q-104 2 -175.5 -45t-71.5 -129q0 -33 13 -58.5t32 -41.5t56 -30.5t67.5 -22.5t85.5 -20q198 -42 308.5 -154t110.5 -296q0 -128 -76 -234.5t-195 -147.5q114 -26 169 -84.5t55 -152.5q0 -135 -110.5 -219
t-263.5 -84zM556 210q120 0 206.5 88.5t86.5 208.5q0 137 -90.5 222t-214.5 85q-119 0 -205 -89.5t-86 -213.5q0 -126 90.5 -213.5t212.5 -87.5z" />
    <glyph glyph-name="dieresis" unicode="&#xa8;" horiz-adv-x="1308" 
d="M495 1107q-36 0 -60.5 23t-24.5 58q0 34 25 58.5t60 24.5q34 0 58 -24.5t24 -58.5q0 -35 -24 -58t-58 -23zM816 1107q-36 0 -60 23t-24 58q0 34 24.5 58.5t59.5 24.5q34 0 58.5 -24.5t24.5 -58.5q0 -35 -24.5 -58t-58.5 -23z" />
    <glyph glyph-name="copyright" unicode="&#xa9;" horiz-adv-x="1846" 
d="M923 -222q-171 0 -327 66.5t-268.5 179.5t-179 269t-66.5 327t66.5 327t179 268t268.5 178.5t327 66.5t327 -66.5t268.5 -178.5t179 -268t66.5 -327t-66.5 -327t-179 -269t-268.5 -179.5t-327 -66.5zM923 -79q144 0 274 56.5t222.5 151t147 223t54.5 268.5q0 190 -94 351
t-255 254t-349 92q-190 -1 -351 -95.5t-254 -254t-93 -347.5q0 -144 56 -274.5t150.5 -223t223 -147t268.5 -54.5zM1211 365l128 -70q-71 -99 -178 -156.5t-230 -57.5q-139 0 -257 72.5t-186.5 196.5t-68.5 270q0 147 68.5 271.5t186.5 196.5t257 72q123 0 230 -57.5
t178 -157.5l-128 -68q-53 67 -127.5 103.5t-152.5 36.5q-154 0 -261.5 -117.5t-107.5 -279.5q0 -106 49.5 -197.5t134.5 -145t185 -53.5q82 0 155.5 38.5t124.5 102.5z" />
    <glyph glyph-name="ordfeminine" unicode="&#xaa;" horiz-adv-x="1189" 
d="M965 1024h143v-1024h-143l-6 190q-52 -101 -143 -159t-212 -58q-148 0 -273 73t-197.5 198t-72.5 273q0 109 42.5 208.5t114 171t170 114t207.5 42.5q124 0 220.5 -59t154.5 -161zM601 113q160 0 256 114.5t96 284.5q0 172 -96.5 286t-255.5 114q-163 0 -278 -117
t-115 -283t116 -282.5t277 -116.5z" />
    <glyph glyph-name="guillemotleft" unicode="&#xab;" horiz-adv-x="1044" 
d="M430 267l-307 348l307 347h157l-306 -347l306 -348h-157zM785 267l-307 348l307 347h157l-306 -347l306 -348h-157z" />
    <glyph glyph-name="logicalnot" unicode="&#xac;" horiz-adv-x="996" 
d="M771 323v440h-689v143h832v-583h-143z" />
    <glyph glyph-name="uni00AD" unicode="&#xad;" horiz-adv-x="928" 
d="M151 686h655v-143h-655v143z" />
    <glyph glyph-name="registered" unicode="&#xae;" horiz-adv-x="1018" 
d="M509 474q-187 1 -317.5 133t-130.5 316t131.5 315.5t316.5 131.5q124 0 227.5 -62t162 -164.5t58.5 -220.5q0 -185 -131 -316.5t-317 -132.5zM509 587q139 0 237.5 98.5t98.5 237.5q0 138 -98.5 236t-237.5 98q-138 0 -236.5 -98t-98.5 -236q0 -139 98.5 -237.5
t236.5 -98.5zM384 726v410h154q49 0 83 -36t34 -88q0 -40 -21.5 -72t-56.5 -42l100 -172h-90l-97 164h-27v-164h-79zM463 968h75q16 0 27.5 13t11.5 31q0 19 -11 32t-28 13h-75v-89z" />
    <glyph glyph-name="macron" unicode="&#xaf;" horiz-adv-x="1228" 
d="M268 1314h693v-116h-693v116z" />
    <glyph glyph-name="degree" unicode="&#xb0;" horiz-adv-x="721" 
d="M361 827q-117 0 -198 82.5t-81 196.5q0 115 81 196.5t198 81.5t198 -82t81 -196q0 -117 -82 -198t-197 -81zM361 971q57 0 96.5 39t39.5 96t-39.5 96t-96.5 39t-96.5 -39t-39.5 -96t39.5 -96t96.5 -39z" />
    <glyph glyph-name="plusminus" unicode="&#xb1;" horiz-adv-x="1187" 
d="M522 341v440h-440v144h440v440h144v-440h440v-144h-440v-440h-144zM82 0v143h1024v-143h-1024z" />
    <glyph glyph-name="uni00B2" unicode="&#xb2;" horiz-adv-x="705" 
d="M98 838v100q51 35 77.5 53t83.5 62.5t90 77t64.5 75t38.5 78.5q0 51 -35 84t-87 33q-53 0 -89 -33t-36 -84h-107q0 94 67.5 156.5t164.5 62.5q96 0 162 -62.5t66 -156.5q0 -54 -46.5 -122t-102 -118.5t-122.5 -99.5h267v-106h-456z" />
    <glyph glyph-name="uni00B3" unicode="&#xb3;" horiz-adv-x="569" 
d="M286 817q-89 0 -150.5 57t-61.5 144h106q0 -43 30.5 -70.5t75.5 -27.5q43 0 73 27.5t30 70.5q0 52 -39 84t-109 32v85q64 0 97 26.5t33 72.5q0 35 -26.5 58.5t-63.5 23.5t-63.5 -23.5t-26.5 -58.5h-106q0 80 57 132t139 52q83 0 139.5 -51.5t56.5 -132.5
q0 -42 -17.5 -80.5t-43.5 -58.5q42 -34 61 -71t19 -90q0 -87 -61 -144t-149 -57z" />
    <glyph glyph-name="acute" unicode="&#xb4;" horiz-adv-x="771" 
d="M300 1137l82 295h143l-129 -295h-96z" />
    <glyph glyph-name="uni00B5" unicode="&#xb5;" horiz-adv-x="1082" 
d="M82 -442v1466h143v-545q0 -152 93 -259t228 -107q132 0 221.5 106.5t89.5 259.5v545h143v-1024h-143v172q-59 -95 -144 -147.5t-186 -52.5q-93 0 -171.5 46t-130.5 124v-584h-143z" />
    <glyph glyph-name="paragraph" unicode="&#xb6;" horiz-adv-x="877" 
d="M430 -309v1044q-145 0 -246.5 102t-101.5 247t101.5 247.5t246.5 102.5h143v-1743h-143zM652 -309v1743h144v-1743h-144z" />
    <glyph glyph-name="periodcentered" unicode="&#xb7;" horiz-adv-x="327" 
d="M163 532q-34 0 -57.5 24t-23.5 59q0 33 23.5 57t57.5 24t58.5 -24t24.5 -57q0 -35 -24 -59t-59 -24z" />
    <glyph glyph-name="cedilla" unicode="&#xb8;" horiz-adv-x="1248" 
d="M609 -376q-64 -18 -122.5 16t-75.5 99l89 23q7 -28 32 -42.5t54 -6.5q28 7 43 32.5t7 54.5q-7 28 -32 42t-55 8l-97 -13l126 219l79 -46l-43 -75q39 -10 69.5 -39.5t41.5 -71.5q18 -65 -16.5 -124t-99.5 -76z" />
    <glyph glyph-name="uni00B9" unicode="&#xb9;" horiz-adv-x="433" 
d="M179 838v539h-81l16 107h172v-646h-107z" />
    <glyph glyph-name="ordmasculine" unicode="&#xba;" horiz-adv-x="1146" 
d="M573 -27q-139 0 -257 72.5t-186.5 196.5t-68.5 270q0 147 68.5 271.5t186.5 197t257 72.5t257 -72.5t186.5 -197t68.5 -271.5q0 -146 -68.5 -270t-186.5 -196.5t-257 -72.5zM573 117q154 0 261.5 117t107.5 278q0 162 -108 279.5t-261 117.5q-155 0 -261.5 -117
t-106.5 -280q0 -165 108 -280t260 -115z" />
    <glyph glyph-name="guillemotright" unicode="&#xbb;" horiz-adv-x="1064" 
d="M458 267l306 348l-306 347h156l308 -347l-308 -348h-156zM102 267l307 348l-307 347h157l307 -347l-307 -348h-157z" />
    <glyph glyph-name="onequarter" unicode="&#xbc;" horiz-adv-x="1591" 
d="M179 838v539h-81l16 107h172v-646h-107zM184 0l828 1434h131l-828 -1434h-131zM1266 0v124h-274v129l250 393h130v-416h72v-106h-72v-124h-106zM1101 230h171v271z" />
    <glyph glyph-name="onehalf" unicode="&#xbd;" horiz-adv-x="1599" 
d="M179 838v539h-81l16 107h172v-646h-107zM184 0l828 1434h131l-828 -1434h-131zM992 0v100q51 35 77.5 53t83.5 62.5t90 77t64.5 75.5t38.5 79q0 51 -35 83.5t-87 32.5q-53 0 -89 -32.5t-36 -83.5h-107q0 94 67.5 158.5t164.5 64.5q95 0 161.5 -64.5t66.5 -158.5
q0 -55 -46.5 -123t-102 -118t-122.5 -100h267v-106h-456z" />
    <glyph glyph-name="threequarters" unicode="&#xbe;" horiz-adv-x="1727" 
d="M286 817q-89 0 -150.5 57t-61.5 144h106q0 -43 30.5 -70.5t75.5 -27.5q43 0 73 27.5t30 70.5q0 52 -39 84t-109 32v85q64 0 97 26.5t33 72.5q0 35 -26.5 58.5t-63.5 23.5t-63.5 -23.5t-26.5 -58.5h-106q0 80 57 132t139 52q83 0 139.5 -51.5t56.5 -132.5
q0 -42 -17.5 -80.5t-43.5 -58.5q42 -34 61 -71t19 -90q0 -87 -61 -144t-149 -57zM321 0l827 1434h131l-827 -1434h-131zM1402 0v124h-274v129l250 393h130v-416h72v-106h-72v-124h-106zM1237 230h171v271z" />
    <glyph glyph-name="questiondown" unicode="&#xbf;" horiz-adv-x="1000" 
d="M483 887q-34 0 -58 23.5t-24 57.5q0 35 23.5 59t58.5 24q34 0 57.5 -24t23.5 -59q0 -34 -23.5 -57.5t-57.5 -23.5zM494 -437q-170 0 -291 120.5t-121 289.5q0 117 56.5 215t153.5 150q54 29 85 80.5t31 113.5h143q0 -100 -51 -185t-141 -135q-62 -34 -98 -98t-36 -141
q0 -110 79.5 -188.5t189.5 -78.5t189 78.5t79 188.5h143q0 -170 -120.5 -290t-290.5 -120z" />
    <glyph glyph-name="Agrave" unicode="&#xc0;" horiz-adv-x="1385" 
d="M495 1841h143l82 -295h-95zM603 1434h178l523 -1434h-153l-112 307h-693l-112 -307h-152zM398 451h588l-294 806z" />
    <glyph glyph-name="Aacute" unicode="&#xc1;" horiz-adv-x="1385" 
d="M657 1546l82 295h144l-129 -295h-97zM603 1434h178l523 -1434h-153l-112 307h-693l-112 -307h-152zM398 451h588l-294 806z" />
    <glyph glyph-name="Acircumflex" unicode="&#xc2;" horiz-adv-x="1385" 
d="M771 1841l198 -295h-97l-180 208l-178 -208h-95l195 295h157zM603 1434h178l523 -1434h-153l-112 307h-693l-112 -307h-152zM398 451h588l-294 806z" />
    <glyph glyph-name="Atilde" unicode="&#xc3;" horiz-adv-x="1385" 
d="M851 1568q-34 0 -84.5 25t-93 54.5t-86 51t-66.5 16.5q-28 -6 -42 -34t-5 -66l-97 -27q-30 88 16.5 160t137.5 72q34 0 85 -23.5t93.5 -51t86.5 -51t66 -23.5q32 0 45.5 35.5t2.5 65.5l98 30q30 -92 -18.5 -163t-138.5 -71zM603 1434h178l523 -1434h-153l-112 307h-693
l-112 -307h-152zM398 451h588l-294 806z" />
    <glyph glyph-name="Adieresis" unicode="&#xc4;" horiz-adv-x="1385" 
d="M532 1517q-36 0 -60.5 22.5t-24.5 57.5q0 34 25 58.5t60 24.5q34 0 58 -24.5t24 -58.5q0 -35 -24 -57.5t-58 -22.5zM854 1517q-36 0 -60 22.5t-24 57.5q0 34 24.5 58.5t59.5 24.5q34 0 58.5 -24.5t24.5 -58.5q0 -35 -24.5 -57.5t-58.5 -22.5zM603 1434h178l523 -1434
h-153l-112 307h-693l-112 -307h-152zM398 451h588l-294 806z" />
    <glyph glyph-name="Aring" unicode="&#xc5;" horiz-adv-x="1385" 
d="M692 1531q-67 0 -115 48.5t-48 115.5q0 66 48 114t115 48t114.5 -48t47.5 -114q0 -68 -47.5 -116t-114.5 -48zM692 1611q34 0 58 24.5t24 59.5q0 33 -24 56.5t-58 23.5t-58 -23.5t-24 -56.5q0 -35 24 -59.5t58 -24.5zM603 1434h178l523 -1434h-153l-112 307h-693
l-112 -307h-152zM398 451h588l-294 806z" />
    <glyph glyph-name="AE" unicode="&#xc6;" horiz-adv-x="1657" 
d="M82 0l521 1434h952v-144h-585v-502h487v-143h-487v-502h585v-143h-729v307h-480l-112 -307h-152zM398 451h428v839h-120z" />
    <glyph glyph-name="Ccedilla" unicode="&#xc7;" horiz-adv-x="1452" 
d="M788 -376q-64 -18 -122.5 16t-75.5 99l89 23q7 -28 32 -42.5t54 -6.5q28 7 43 32.5t7 54.5q-7 28 -32 42t-55 8l-97 -13l81 140q-131 15 -247.5 79t-200.5 161.5t-133 228t-49 271.5q0 202 94 373t256.5 270.5t353.5 99.5q170 0 317.5 -79.5t246.5 -216.5l-127 -68
q-76 102 -193 161.5t-244 59.5q-153 0 -283 -82t-204 -220t-74 -298q0 -163 75 -301t204.5 -218.5t281.5 -80.5q130 0 245.5 59.5t191.5 160.5l127 -69q-95 -131 -234 -209t-300 -85l-22 -39q39 -10 69 -39.5t41 -71.5q18 -65 -16.5 -124t-99.5 -76z" />
    <glyph glyph-name="Egrave" unicode="&#xc8;" 
d="M351 1841h144l82 -295h-96zM123 0v1434h872v-144h-729v-450h603v-144h-603v-553h729v-143h-872z" />
    <glyph glyph-name="Eacute" unicode="&#xc9;" 
d="M514 1546l82 295h143l-129 -295h-96zM123 0v1434h872v-144h-729v-450h603v-144h-603v-553h729v-143h-872z" />
    <glyph glyph-name="Ecircumflex" unicode="&#xca;" 
d="M628 1841l197 -295h-96l-180 208l-178 -208h-96l196 295h157zM123 0v1434h872v-144h-729v-450h603v-144h-603v-553h729v-143h-872z" />
    <glyph glyph-name="Edieresis" unicode="&#xcb;" 
d="M389 1517q-36 0 -60.5 22.5t-24.5 57.5q0 34 25 58.5t60 24.5q34 0 58 -24.5t24 -58.5q0 -35 -24 -57.5t-58 -22.5zM711 1517q-36 0 -60 22.5t-24 57.5q0 34 24.5 58.5t59.5 24.5q34 0 58.5 -24.5t24.5 -58.5q0 -35 -24.5 -57.5t-58.5 -22.5zM123 0v1434h872v-144h-729
v-450h603v-144h-603v-553h729v-143h-872z" />
    <glyph glyph-name="Igrave" unicode="&#xcc;" horiz-adv-x="450" 
d="M28 1841h143l82 -295h-95zM154 0v1434h143v-1434h-143z" />
    <glyph glyph-name="Iacute" unicode="&#xcd;" horiz-adv-x="450" 
d="M190 1546l82 295h144l-129 -295h-97zM154 0v1434h143v-1434h-143z" />
    <glyph glyph-name="Icircumflex" unicode="&#xce;" horiz-adv-x="450" 
d="M304 1841l198 -295h-96l-181 208l-178 -208h-95l195 295h157zM154 0v1434h143v-1434h-143z" />
    <glyph glyph-name="Idieresis" unicode="&#xcf;" horiz-adv-x="450" 
d="M66 1517q-36 0 -60.5 22.5t-24.5 57.5q0 34 25 58.5t60 24.5q34 0 57.5 -24.5t23.5 -58.5q0 -35 -23.5 -57.5t-57.5 -22.5zM387 1517q-36 0 -60 22.5t-24 57.5q0 34 24.5 58.5t59.5 24.5q34 0 58.5 -24.5t24.5 -58.5q0 -35 -24.5 -57.5t-58.5 -22.5zM154 0v1434h143
v-1434h-143z" />
    <glyph glyph-name="Eth" unicode="&#xd0;" horiz-adv-x="1489" 
d="M238 0v696h-136v144h136v594h474q145 0 278 -57t228.5 -153t152.5 -228.5t57 -278.5t-57 -278.5t-152.5 -228.5t-228.5 -153t-278 -57h-474zM381 143h331q158 0 290 78.5t207.5 210t75.5 285.5q0 118 -46 224.5t-123.5 182.5t-183 121t-220.5 45h-331v-450h353v-144h-353
v-553z" />
    <glyph glyph-name="Ntilde" unicode="&#xd1;" horiz-adv-x="1301" 
d="M809 1568q-34 0 -84.5 25t-93 54.5t-86 51t-66.5 16.5q-28 -6 -42 -34t-5 -66l-97 -27q-30 88 16.5 160t137.5 72q34 0 85 -23.5t93.5 -51t86.5 -51t66 -23.5q32 0 45.5 35.5t2.5 65.5l98 30q30 -92 -18.5 -163t-138.5 -71zM123 0v1434h156l756 -1175v1175h144v-1434
h-155l-758 1175v-1175h-143z" />
    <glyph glyph-name="Ograve" unicode="&#xd2;" horiz-adv-x="1576" 
d="M591 1841h143l82 -295h-95zM788 -27q-143 0 -274 59t-225.5 158.5t-150.5 237.5t-56 289t56 288.5t150.5 237t225.5 158.5t274 59q191 0 354 -99.5t258 -270.5t95 -373q0 -151 -56 -289t-151 -237.5t-226 -158.5t-274 -59zM788 117q153 0 283.5 81.5t205.5 219.5t75 299
q0 162 -76 300t-206 219t-282 81q-153 0 -283 -81.5t-205 -219.5t-75 -299q0 -162 75.5 -300.5t205.5 -219t282 -80.5z" />
    <glyph glyph-name="Oacute" unicode="&#xd3;" horiz-adv-x="1576" 
d="M754 1546l82 295h143l-129 -295h-96zM788 -27q-143 0 -274 59t-225.5 158.5t-150.5 237.5t-56 289t56 288.5t150.5 237t225.5 158.5t274 59q191 0 354 -99.5t258 -270.5t95 -373q0 -151 -56 -289t-151 -237.5t-226 -158.5t-274 -59zM788 117q153 0 283.5 81.5
t205.5 219.5t75 299q0 162 -76 300t-206 219t-282 81q-153 0 -283 -81.5t-205 -219.5t-75 -299q0 -162 75.5 -300.5t205.5 -219t282 -80.5z" />
    <glyph glyph-name="Ocircumflex" unicode="&#xd4;" horiz-adv-x="1576" 
d="M867 1841l198 -295h-96l-181 208l-178 -208h-95l196 295h156zM788 -27q-143 0 -274 59t-225.5 158.5t-150.5 237.5t-56 289t56 288.5t150.5 237t225.5 158.5t274 59q191 0 354 -99.5t258 -270.5t95 -373q0 -151 -56 -289t-151 -237.5t-226 -158.5t-274 -59zM788 117
q153 0 283.5 81.5t205.5 219.5t75 299q0 162 -76 300t-206 219t-282 81q-153 0 -283 -81.5t-205 -219.5t-75 -299q0 -162 75.5 -300.5t205.5 -219t282 -80.5z" />
    <glyph glyph-name="Otilde" unicode="&#xd5;" horiz-adv-x="1576" 
d="M947 1568q-34 0 -84.5 25t-93 54.5t-86 51t-66.5 16.5q-28 -6 -42 -34t-5 -66l-97 -27q-30 88 17 160t138 72q34 0 84.5 -23.5t93 -51t86.5 -51t66 -23.5q32 0 46 36t3 65l97 30q30 -92 -18.5 -163t-138.5 -71zM788 -27q-143 0 -274 59t-225.5 158.5t-150.5 237.5
t-56 289t56 288.5t150.5 237t225.5 158.5t274 59q191 0 354 -99.5t258 -270.5t95 -373q0 -151 -56 -289t-151 -237.5t-226 -158.5t-274 -59zM788 117q153 0 283.5 81.5t205.5 219.5t75 299q0 162 -76 300t-206 219t-282 81q-153 0 -283 -81.5t-205 -219.5t-75 -299
q0 -162 75.5 -300.5t205.5 -219t282 -80.5z" />
    <glyph glyph-name="Odieresis" unicode="&#xd6;" horiz-adv-x="1576" 
d="M629 1517q-36 0 -60.5 22.5t-24.5 57.5q0 34 25 58.5t60 24.5q34 0 58 -24.5t24 -58.5q0 -35 -24 -57.5t-58 -22.5zM950 1517q-36 0 -60 22.5t-24 57.5q0 34 24.5 58.5t59.5 24.5q34 0 58.5 -24.5t24.5 -58.5q0 -35 -24.5 -57.5t-58.5 -22.5zM788 -27q-143 0 -274 59
t-225.5 158.5t-150.5 237.5t-56 289t56 288.5t150.5 237t225.5 158.5t274 59q191 0 354 -99.5t258 -270.5t95 -373q0 -151 -56 -289t-151 -237.5t-226 -158.5t-274 -59zM788 117q153 0 283.5 81.5t205.5 219.5t75 299q0 162 -76 300t-206 219t-282 81q-153 0 -283 -81.5
t-205 -219.5t-75 -299q0 -162 75.5 -300.5t205.5 -219t282 -80.5z" />
    <glyph glyph-name="multiply" unicode="&#xd7;" horiz-adv-x="989" 
d="M183 202l-101 101l310 311l-310 312l101 101l311 -311l311 311l102 -101l-312 -312l312 -311l-102 -101l-311 311z" />
    <glyph glyph-name="Oslash" unicode="&#xd8;" horiz-adv-x="1576" 
d="M411 -84l-125 72l80 138q-131 104 -207.5 259t-76.5 332q0 151 56 288.5t150.5 237t225.5 158.5t274 59q161 0 305 -75l75 133l125 -72l-80 -137q130 -103 206 -258t76 -334q0 -151 -56 -289t-151 -237.5t-226 -158.5t-274 -59q-155 0 -302 75zM440 257l580 1001
q-110 59 -232 59q-153 0 -283 -81.5t-205 -219.5t-75 -299q0 -138 58 -259t157 -201zM788 117q153 0 283.5 81.5t205.5 219.5t75 299q0 138 -57 258.5t-156 203.5l-580 -1004q108 -58 229 -58z" />
    <glyph glyph-name="Ugrave" unicode="&#xd9;" horiz-adv-x="1357" 
d="M481 1841h144l82 -295h-96zM679 -27q-126 0 -231.5 49t-176 133.5t-109.5 198.5t-39 244v836h143v-836q0 -133 47 -241t142.5 -174t223.5 -66q130 0 225.5 66.5t141.5 174t46 240.5v836h143v-836q0 -130 -39 -244t-109.5 -198.5t-176 -133.5t-231.5 -49z" />
    <glyph glyph-name="Uacute" unicode="&#xda;" horiz-adv-x="1357" 
d="M644 1546l82 295h143l-129 -295h-96zM679 -27q-126 0 -231.5 49t-176 133.5t-109.5 198.5t-39 244v836h143v-836q0 -133 47 -241t142.5 -174t223.5 -66q130 0 225.5 66.5t141.5 174t46 240.5v836h143v-836q0 -130 -39 -244t-109.5 -198.5t-176 -133.5t-231.5 -49z" />
    <glyph glyph-name="Ucircumflex" unicode="&#xdb;" horiz-adv-x="1357" 
d="M758 1841l197 -295h-96l-180 208l-178 -208h-95l195 295h157zM679 -27q-126 0 -231.5 49t-176 133.5t-109.5 198.5t-39 244v836h143v-836q0 -133 47 -241t142.5 -174t223.5 -66q130 0 225.5 66.5t141.5 174t46 240.5v836h143v-836q0 -130 -39 -244t-109.5 -198.5
t-176 -133.5t-231.5 -49z" />
    <glyph glyph-name="Udieresis" unicode="&#xdc;" horiz-adv-x="1357" 
d="M519 1517q-36 0 -60.5 22.5t-24.5 57.5q0 34 25 58.5t60 24.5q34 0 58 -24.5t24 -58.5q0 -35 -24 -57.5t-58 -22.5zM841 1517q-36 0 -60 22.5t-24 57.5q0 34 24.5 58.5t59.5 24.5q34 0 58.5 -24.5t24.5 -58.5q0 -35 -24.5 -57.5t-58.5 -22.5zM679 -27q-126 0 -231.5 49
t-176 133.5t-109.5 198.5t-39 244v836h143v-836q0 -133 47 -241t142.5 -174t223.5 -66q130 0 225.5 66.5t141.5 174t46 240.5v836h143v-836q0 -130 -39 -244t-109.5 -198.5t-176 -133.5t-231.5 -49z" />
    <glyph glyph-name="Yacute" unicode="&#xdd;" horiz-adv-x="1231" 
d="M581 1546l82 295h143l-129 -295h-96zM1001 1434h169l-483 -785v-649h-143v649l-483 785h169l385 -628z" />
    <glyph glyph-name="Thorn" unicode="&#xde;" horiz-adv-x="1051" 
d="M123 0v1434h143v-298h316q171 0 289.5 -121.5t118.5 -297.5q0 -177 -120 -298t-288 -121h-316v-298h-143zM266 441h304q115 0 196 81.5t81 201.5t-81 202t-196 82h-304v-567z" />
    <glyph glyph-name="germandbls" unicode="&#xdf;" horiz-adv-x="1094" 
d="M123 0v976q0 189 134 323.5t323 134.5q157 0 267 -114t110 -278q0 -97 -44 -181.5t-123 -126.5q117 -28 180 -127t63 -223q0 -161 -114.5 -272.5t-275.5 -111.5h-76l-27 128h92q112 0 190.5 77.5t78.5 186.5q0 108 -78.5 184.5t-190.5 77.5l-92 2v123l27 2
q102 3 174.5 78.5t72.5 182.5q0 108 -73 186t-174 78q-125 0 -213 -89t-88 -215v-1002h-143z" />
    <glyph glyph-name="agrave" unicode="&#xe0;" horiz-adv-x="1189" 
d="M413 1432h143l82 -295h-95zM965 1024h143v-1024h-143l-6 190q-52 -101 -143 -159t-212 -58q-148 0 -273 73t-197.5 198t-72.5 273q0 109 42.5 208.5t114 171t170 114t207.5 42.5q124 0 220.5 -59t154.5 -161zM601 113q160 0 256 114.5t96 284.5q0 172 -96.5 286
t-255.5 114q-163 0 -278 -117t-115 -283t116 -282.5t277 -116.5z" />
    <glyph glyph-name="aacute" unicode="&#xe1;" horiz-adv-x="1189" 
d="M575 1137l82 295h144l-129 -295h-97zM965 1024h143v-1024h-143l-6 190q-52 -101 -143 -159t-212 -58q-148 0 -273 73t-197.5 198t-72.5 273q0 109 42.5 208.5t114 171t170 114t207.5 42.5q124 0 220.5 -59t154.5 -161zM601 113q160 0 256 114.5t96 284.5q0 172 -96.5 286
t-255.5 114q-163 0 -278 -117t-115 -283t116 -282.5t277 -116.5z" />
    <glyph glyph-name="acircumflex" unicode="&#xe2;" horiz-adv-x="1189" 
d="M689 1432l198 -295h-96l-181 208l-178 -208h-95l195 295h157zM965 1024h143v-1024h-143l-6 190q-52 -101 -143 -159t-212 -58q-148 0 -273 73t-197.5 198t-72.5 273q0 109 42.5 208.5t114 171t170 114t207.5 42.5q124 0 220.5 -59t154.5 -161zM601 113q160 0 256 114.5
t96 284.5q0 172 -96.5 286t-255.5 114q-163 0 -278 -117t-115 -283t116 -282.5t277 -116.5z" />
    <glyph glyph-name="atilde" unicode="&#xe3;" horiz-adv-x="1189" 
d="M769 1158q-42 0 -111 40.5t-129.5 77t-89.5 30.5q-28 -6 -42 -34.5t-5 -66.5l-97 -26q-30 88 17 159.5t138 71.5q43 0 111.5 -37t130 -74t88.5 -37q32 0 45.5 35t2.5 65l98 31q30 -92 -18.5 -163.5t-138.5 -71.5zM965 1024h143v-1024h-143l-6 190q-52 -101 -143 -159
t-212 -58q-148 0 -273 73t-197.5 198t-72.5 273q0 109 42.5 208.5t114 171t170 114t207.5 42.5q124 0 220.5 -59t154.5 -161zM601 113q160 0 256 114.5t96 284.5q0 172 -96.5 286t-255.5 114q-163 0 -278 -117t-115 -283t116 -282.5t277 -116.5z" />
    <glyph glyph-name="adieresis" unicode="&#xe4;" horiz-adv-x="1189" 
d="M451 1107q-36 0 -60.5 23t-24.5 58q0 34 25 58.5t60 24.5q34 0 57.5 -24.5t23.5 -58.5q0 -35 -23.5 -58t-57.5 -23zM772 1107q-36 0 -60 23t-24 58q0 34 24.5 58.5t59.5 24.5q34 0 58.5 -24.5t24.5 -58.5q0 -35 -24.5 -58t-58.5 -23zM965 1024h143v-1024h-143l-6 190
q-52 -101 -143 -159t-212 -58q-148 0 -273 73t-197.5 198t-72.5 273q0 109 42.5 208.5t114 171t170 114t207.5 42.5q124 0 220.5 -59t154.5 -161zM601 113q160 0 256 114.5t96 284.5q0 172 -96.5 286t-255.5 114q-163 0 -278 -117t-115 -283t116 -282.5t277 -116.5z" />
    <glyph glyph-name="aring" unicode="&#xe5;" horiz-adv-x="1189" 
d="M610 1121q-67 0 -115 48.5t-48 115.5q0 66 48 114t115 48t114.5 -48t47.5 -114q0 -68 -47.5 -116t-114.5 -48zM610 1201q34 0 58 24.5t24 59.5q0 33 -24 56.5t-58 23.5t-58 -23.5t-24 -56.5q0 -35 24 -59.5t58 -24.5zM965 1024h143v-1024h-143l-6 190q-52 -101 -143 -159
t-212 -58q-148 0 -273 73t-197.5 198t-72.5 273q0 109 42.5 208.5t114 171t170 114t207.5 42.5q124 0 220.5 -59t154.5 -161zM601 113q160 0 256 114.5t96 284.5q0 172 -96.5 286t-255.5 114q-163 0 -278 -117t-115 -283t116 -282.5t277 -116.5z" />
    <glyph glyph-name="ae" unicode="&#xe6;" horiz-adv-x="1818" 
d="M341 -26q-134 0 -222 84.5t-88 213.5q0 125 84.5 213.5t220.5 88.5h397q-2 141 -92.5 238t-236.5 97q-80 0 -147 -32l-78 120q107 56 223 56q134 0 246 -70.5t174 -190.5q63 119 177.5 190t249.5 71q150 0 269 -78t182.5 -214.5t55.5 -302.5h-867q17 -148 118.5 -244.5
t242.5 -96.5q100 0 183 52.5t134 146.5l145 -33q-63 -139 -187.5 -224.5t-275.5 -85.5q-146 0 -266.5 81t-180.5 214q-62 -130 -187 -212t-274 -82zM885 573h727q-11 143 -116.5 246.5t-246.5 103.5q-142 0 -245.5 -101t-118.5 -249zM341 104q112 0 202.5 59t139.5 155
q35 62 49 141h-396q-78 0 -126.5 -51t-48.5 -127q0 -73 48 -125t132 -52z" />
    <glyph glyph-name="ccedilla" unicode="&#xe7;" horiz-adv-x="1043" 
d="M575 -376q-64 -18 -122.5 16t-75.5 99l89 23q7 -28 32 -42.5t54 -6.5q28 7 43 32.5t7 54.5q-7 28 -32 42t-55 8l-97 -13l82 141q-187 29 -313 181t-126 353q0 147 68.5 271.5t186.5 197t257 72.5q123 0 230.5 -57.5t178.5 -157.5l-128 -69q-52 67 -127.5 103.5
t-153.5 36.5q-154 0 -261 -117.5t-107 -279.5q0 -106 49 -197t134 -144.5t185 -53.5q82 0 156 38t125 102l128 -70q-67 -93 -166 -149.5t-213 -63.5l-22 -39q39 -10 69 -39.5t41 -71.5q18 -65 -16.5 -124t-99.5 -76z" />
    <glyph glyph-name="egrave" unicode="&#xe8;" horiz-adv-x="1143" 
d="M375 1432h143l82 -295h-95zM573 -27q-139 0 -257 72.5t-186.5 196.5t-68.5 270q0 147 68.5 271.5t186.5 197t257 72.5q150 0 269.5 -78t183 -214.5t55.5 -302.5h-868q18 -147 119 -243.5t241 -97.5q101 0 184 52.5t134 146.5l145 -33q-63 -139 -187.5 -224.5
t-275.5 -85.5zM209 573h728q-11 143 -117 246.5t-247 103.5t-244 -101t-120 -249z" />
    <glyph glyph-name="eacute" unicode="&#xe9;" horiz-adv-x="1143" 
d="M538 1137l82 295h143l-129 -295h-96zM573 -27q-139 0 -257 72.5t-186.5 196.5t-68.5 270q0 147 68.5 271.5t186.5 197t257 72.5q150 0 269.5 -78t183 -214.5t55.5 -302.5h-868q18 -147 119 -243.5t241 -97.5q101 0 184 52.5t134 146.5l145 -33q-63 -139 -187.5 -224.5
t-275.5 -85.5zM209 573h728q-11 143 -117 246.5t-247 103.5t-244 -101t-120 -249z" />
    <glyph glyph-name="ecircumflex" unicode="&#xea;" horiz-adv-x="1143" 
d="M651 1432l198 -295h-96l-181 208l-178 -208h-95l196 295h156zM573 -27q-139 0 -257 72.5t-186.5 196.5t-68.5 270q0 147 68.5 271.5t186.5 197t257 72.5q150 0 269.5 -78t183 -214.5t55.5 -302.5h-868q18 -147 119 -243.5t241 -97.5q101 0 184 52.5t134 146.5l145 -33
q-63 -139 -187.5 -224.5t-275.5 -85.5zM209 573h728q-11 143 -117 246.5t-247 103.5t-244 -101t-120 -249z" />
    <glyph glyph-name="edieresis" unicode="&#xeb;" horiz-adv-x="1143" 
d="M413 1107q-36 0 -60.5 23t-24.5 58q0 34 25 58.5t60 24.5q34 0 58 -24.5t24 -58.5q0 -35 -24 -58t-58 -23zM734 1107q-36 0 -60 23t-24 58q0 34 24.5 58.5t59.5 24.5q34 0 58.5 -24.5t24.5 -58.5q0 -35 -24.5 -58t-58.5 -23zM573 -27q-139 0 -257 72.5t-186.5 196.5
t-68.5 270q0 147 68.5 271.5t186.5 197t257 72.5q150 0 269.5 -78t183 -214.5t55.5 -302.5h-868q18 -147 119 -243.5t241 -97.5q101 0 184 52.5t134 146.5l145 -33q-63 -139 -187.5 -224.5t-275.5 -85.5zM209 573h728q-11 143 -117 246.5t-247 103.5t-244 -101t-120 -249z
" />
    <glyph glyph-name="igrave" unicode="&#xec;" horiz-adv-x="389" 
d="M-3 1432h143l82 -295h-95zM123 1024h143v-1024h-143v1024z" />
    <glyph glyph-name="iacute" unicode="&#xed;" horiz-adv-x="389" 
d="M160 1137l82 295h143l-129 -295h-96zM123 1024h143v-1024h-143v1024z" />
    <glyph glyph-name="icircumflex" unicode="&#xee;" horiz-adv-x="389" 
d="M273 1432l198 -295h-96l-180 208l-179 -208h-95l196 295h156zM123 1024h143v-1024h-143v1024z" />
    <glyph glyph-name="idieresis" unicode="&#xef;" horiz-adv-x="389" 
d="M35 1107q-36 0 -60.5 23t-24.5 58q0 34 25 58.5t60 24.5q34 0 58 -24.5t24 -58.5q0 -35 -24 -58t-58 -23zM356 1107q-36 0 -60 23t-24 58q0 34 24.5 58.5t59.5 24.5q34 0 58.5 -24.5t24.5 -58.5q0 -35 -24.5 -58t-58.5 -23zM123 1024h143v-1024h-143v1024z" />
    <glyph glyph-name="eth" unicode="&#xf0;" horiz-adv-x="1152" 
d="M597 -27q-105 0 -200 40.5t-164 109.5t-110 164t-41 200q0 140 69 258.5t187.5 187.5t258.5 69q96 0 178.5 -42.5t136.5 -115.5q-31 133 -97 250.5t-161 192.5l-212 -209l-78 78l195 192q-93 44 -198 44v143q162 0 305 -84l148 145l76 -77l-133 -131
q162 -134 257.5 -362.5t96.5 -494.5q0 -247 -143.5 -402.5t-370.5 -155.5zM597 117q155 0 263.5 109.5t108.5 260.5q0 154 -108.5 263t-263.5 109t-263.5 -110t-108.5 -262t108.5 -261t263.5 -109z" />
    <glyph glyph-name="ntilde" unicode="&#xf1;" 
d="M735 1158q-42 0 -110.5 40.5t-129 77t-89.5 30.5q-28 -6 -42.5 -34.5t-5.5 -66.5l-97 -26q-30 88 17 159.5t138 71.5q43 0 111.5 -37t130 -74t88.5 -37q32 0 46 35.5t3 64.5l97 31q30 -92 -18.5 -163.5t-138.5 -71.5zM1016 634v-634h-144v605q0 126 -89 214.5t-214 88.5
t-214 -88.5t-89 -214.5v-605h-143v1024h143v-141q56 79 143.5 124.5t187.5 45.5q173 0 296 -123t123 -296z" />
    <glyph glyph-name="ograve" unicode="&#xf2;" horiz-adv-x="1146" 
d="M376 1432h143l82 -295h-95zM573 -27q-139 0 -257 72.5t-186.5 196.5t-68.5 270q0 147 68.5 271.5t186.5 197t257 72.5t257 -72.5t186.5 -197t68.5 -271.5q0 -146 -68.5 -270t-186.5 -196.5t-257 -72.5zM573 117q154 0 261.5 117t107.5 278q0 162 -108 279.5t-261 117.5
q-155 0 -261.5 -117t-106.5 -280q0 -165 108 -280t260 -115z" />
    <glyph glyph-name="oacute" unicode="&#xf3;" horiz-adv-x="1146" 
d="M539 1137l82 295h143l-129 -295h-96zM573 -27q-139 0 -257 72.5t-186.5 196.5t-68.5 270q0 147 68.5 271.5t186.5 197t257 72.5t257 -72.5t186.5 -197t68.5 -271.5q0 -146 -68.5 -270t-186.5 -196.5t-257 -72.5zM573 117q154 0 261.5 117t107.5 278q0 162 -108 279.5
t-261 117.5q-155 0 -261.5 -117t-106.5 -280q0 -165 108 -280t260 -115z" />
    <glyph glyph-name="ocircumflex" unicode="&#xf4;" horiz-adv-x="1146" 
d="M652 1432l198 -295h-96l-181 208l-178 -208h-95l196 295h156zM573 -27q-139 0 -257 72.5t-186.5 196.5t-68.5 270q0 147 68.5 271.5t186.5 197t257 72.5t257 -72.5t186.5 -197t68.5 -271.5q0 -146 -68.5 -270t-186.5 -196.5t-257 -72.5zM573 117q154 0 261.5 117
t107.5 278q0 162 -108 279.5t-261 117.5q-155 0 -261.5 -117t-106.5 -280q0 -165 108 -280t260 -115z" />
    <glyph glyph-name="otilde" unicode="&#xf5;" horiz-adv-x="1146" 
d="M732 1158q-42 0 -111 40.5t-129.5 77t-89.5 30.5q-28 -6 -42 -34.5t-5 -66.5l-97 -26q-30 88 17 159.5t138 71.5q43 0 111.5 -37t130 -74t88.5 -37q32 0 46 35.5t3 64.5l97 31q30 -92 -18.5 -163.5t-138.5 -71.5zM573 -27q-139 0 -257 72.5t-186.5 196.5t-68.5 270
q0 147 68.5 271.5t186.5 197t257 72.5t257 -72.5t186.5 -197t68.5 -271.5q0 -146 -68.5 -270t-186.5 -196.5t-257 -72.5zM573 117q154 0 261.5 117t107.5 278q0 162 -108 279.5t-261 117.5q-155 0 -261.5 -117t-106.5 -280q0 -165 108 -280t260 -115z" />
    <glyph glyph-name="odieresis" unicode="&#xf6;" horiz-adv-x="1146" 
d="M414 1107q-36 0 -60.5 23t-24.5 58q0 34 25 58.5t60 24.5q34 0 58 -24.5t24 -58.5q0 -35 -24 -58t-58 -23zM735 1107q-36 0 -60 23t-24 58q0 34 24.5 58.5t59.5 24.5q34 0 58.5 -24.5t24.5 -58.5q0 -35 -24.5 -58t-58.5 -23zM573 -27q-139 0 -257 72.5t-186.5 196.5
t-68.5 270q0 147 68.5 271.5t186.5 197t257 72.5t257 -72.5t186.5 -197t68.5 -271.5q0 -146 -68.5 -270t-186.5 -196.5t-257 -72.5zM573 117q154 0 261.5 117t107.5 278q0 162 -108 279.5t-261 117.5q-155 0 -261.5 -117t-106.5 -280q0 -165 108 -280t260 -115z" />
    <glyph glyph-name="divide" unicode="&#xf7;" horiz-adv-x="1187" 
d="M594 1092q41 0 72.5 -33t31.5 -75q0 -43 -31 -74t-73 -31q-45 0 -75.5 31t-30.5 74t30.5 75.5t75.5 32.5zM82 543v143h1024v-143h-1024zM594 349q42 0 74.5 -32.5t32.5 -74.5q0 -43 -32 -74t-75 -31q-45 0 -75.5 30.5t-30.5 74.5q0 43 30.5 75t75.5 32z" />
    <glyph glyph-name="oslash" unicode="&#xf8;" horiz-adv-x="1146" 
d="M315 -56l-106 61l50 85q-92 75 -145 185.5t-53 236.5q0 147 68.5 271.5t186.5 197t257 72.5q116 0 211 -49l49 80l106 -61l-49 -86q91 -75 143 -186t52 -239q0 -146 -68.5 -270t-186.5 -196.5t-257 -72.5q-105 0 -212 51zM330 213l388 674q-60 27 -123.5 30t-120.5 -15.5
t-108 -56t-88.5 -88t-59 -116t-21.5 -135.5q0 -88 35.5 -164t97.5 -129zM429 140q77 -31 151.5 -31t141.5 34t117.5 87.5t80.5 129t30 158.5q0 88 -35.5 165t-96.5 131z" />
    <glyph glyph-name="ugrave" unicode="&#xf9;" horiz-adv-x="1056" 
d="M344 1433h143l82 -295h-95zM82 392v632h143v-603q0 -126 89 -214.5t214 -88.5t213.5 88.5t88.5 214.5v603h144l1 -1024h-144l-1 143q-56 -79 -142.5 -124.5t-186.5 -45.5q-173 0 -296 123t-123 296z" />
    <glyph glyph-name="uacute" unicode="&#xfa;" horiz-adv-x="1056" 
d="M507 1138l82 295h143l-129 -295h-96zM82 392v632h143v-603q0 -126 89 -214.5t214 -88.5t213.5 88.5t88.5 214.5v603h144l1 -1024h-144l-1 143q-56 -79 -142.5 -124.5t-186.5 -45.5q-173 0 -296 123t-123 296z" />
    <glyph glyph-name="ucircumflex" unicode="&#xfb;" horiz-adv-x="1056" 
d="M621 1433l197 -295h-96l-180 208l-178 -208h-96l196 295h157zM82 392v632h143v-603q0 -126 89 -214.5t214 -88.5t213.5 88.5t88.5 214.5v603h144l1 -1024h-144l-1 143q-56 -79 -142.5 -124.5t-186.5 -45.5q-173 0 -296 123t-123 296z" />
    <glyph glyph-name="udieresis" unicode="&#xfc;" horiz-adv-x="1056" 
d="M382 1108q-36 0 -60.5 23t-24.5 58q0 34 25 58.5t60 24.5q34 0 58 -24.5t24 -58.5q0 -35 -24 -58t-58 -23zM703 1108q-35 0 -59 23t-24 58q0 34 24 58.5t59 24.5q34 0 58.5 -24.5t24.5 -58.5q0 -35 -24.5 -58t-58.5 -23zM82 392v632h143v-603q0 -126 89 -214.5t214 -88.5
t213.5 88.5t88.5 214.5v603h144l1 -1024h-144l-1 143q-56 -79 -142.5 -124.5t-186.5 -45.5q-173 0 -296 123t-123 296z" />
    <glyph glyph-name="yacute" unicode="&#xfd;" horiz-adv-x="1057" 
d="M494 1137l81 295h144l-129 -295h-96zM824 1024h152l-560 -1536h-153l187 512l-368 1024h157l282 -826z" />
    <glyph glyph-name="thorn" unicode="&#xfe;" horiz-adv-x="1230" 
d="M123 -512v1946h143v-601q55 101 148.5 159.5t216.5 58.5q146 0 270 -72.5t196 -196.5t72 -270q0 -147 -72 -271.5t-195.5 -197t-270.5 -72.5q-123 0 -216.5 58.5t-148.5 159.5v-701h-143zM630 112q161 0 277.5 116.5t116.5 283.5q0 165 -115.5 282t-278.5 117
q-158 0 -255 -114.5t-97 -284.5t96.5 -285t255.5 -115z" />
    <glyph glyph-name="ydieresis" unicode="&#xff;" horiz-adv-x="1057" 
d="M369 1107q-36 0 -60.5 23t-24.5 58q0 34 25 58.5t60 24.5q34 0 58 -24.5t24 -58.5q0 -35 -24 -58t-58 -23zM690 1107q-36 0 -60 23t-24 58q0 34 24.5 58.5t59.5 24.5q34 0 58.5 -24.5t24.5 -58.5q0 -35 -24.5 -58t-58.5 -23zM824 1024h152l-560 -1536h-153l187 512
l-368 1024h157l282 -826z" />
    <glyph glyph-name="Amacron" unicode="&#x100;" horiz-adv-x="1385" 
d="M346 1723h692v-115h-692v115zM603 1434h178l523 -1434h-153l-112 307h-693l-112 -307h-152zM398 451h588l-294 806z" />
    <glyph glyph-name="amacron" unicode="&#x101;" horiz-adv-x="1189" 
d="M264 1314h692v-116h-692v116zM965 1024h143v-1024h-143l-6 190q-52 -101 -143 -159t-212 -58q-148 0 -273 73t-197.5 198t-72.5 273q0 109 42.5 208.5t114 171t170 114t207.5 42.5q124 0 220.5 -59t154.5 -161zM601 113q160 0 256 114.5t96 284.5q0 172 -96.5 286
t-255.5 114q-163 0 -278 -117t-115 -283t116 -282.5t277 -116.5z" />
    <glyph glyph-name="Abreve" unicode="&#x102;" horiz-adv-x="1385" 
d="M692 1524q-140 0 -240 100t-100 240h103q0 -99 70.5 -168.5t166.5 -69.5q98 0 168 69.5t70 168.5h102q0 -142 -100.5 -241t-239.5 -99zM603 1434h178l523 -1434h-153l-112 307h-693l-112 -307h-152zM398 451h588l-294 806z" />
    <glyph glyph-name="abreve" unicode="&#x103;" horiz-adv-x="1189" 
d="M610 1114q-140 0 -240 100t-100 240h103q0 -99 70.5 -168t166.5 -69q98 0 168 69t70 168h102q0 -142 -100.5 -241t-239.5 -99zM965 1024h143v-1024h-143l-6 190q-52 -101 -143 -159t-212 -58q-148 0 -273 73t-197.5 198t-72.5 273q0 109 42.5 208.5t114 171t170 114
t207.5 42.5q124 0 220.5 -59t154.5 -161zM601 113q160 0 256 114.5t96 284.5q0 172 -96.5 286t-255.5 114q-163 0 -278 -117t-115 -283t116 -282.5t277 -116.5z" />
    <glyph glyph-name="Aogonek" unicode="&#x104;" horiz-adv-x="1385" 
d="M1185 -416q-81 1 -133.5 58t-52.5 131q0 76 56 132l96 96l-112 306h-693l-112 -307h-152l521 1434h178l523 -1434q-21 -21 -46.5 -46t-39 -38.5l-31 -31t-25.5 -26.5t-18 -21t-14 -19t-8.5 -16t-5.5 -16.5t-1 -16.5q0 -30 20.5 -53t54.5 -24q41 0 73 29.5t32 74.5h104
q0 -89 -62.5 -150.5t-151.5 -61.5zM398 451h588l-294 806z" />
    <glyph glyph-name="aogonek" unicode="&#x105;" horiz-adv-x="1189" 
d="M989 -416q-81 1 -133 57.5t-52 131.5q0 77 55 132l106 105l-6 180q-52 -101 -143 -159t-212 -58q-148 0 -273 73t-197.5 198t-72.5 273q0 109 42.5 208.5t114 171t170 114t207.5 42.5q124 0 220.5 -59t154.5 -161l-5 191h143v-1024l-42 -42t-36 -35.5t-29.5 -29
t-24.5 -25.5t-18.5 -20.5t-15 -18.5t-10 -15.5t-7.5 -15t-3.5 -14t-1.5 -15.5q0 -30 20 -53t54 -24q41 0 73.5 29.5t32.5 74.5h103q0 -89 -62.5 -150.5t-151.5 -61.5zM601 113q160 0 256 114.5t96 284.5q0 172 -96.5 286t-255.5 114q-163 0 -278 -117t-115 -283t116 -282.5
t277 -116.5z" />
    <glyph glyph-name="Cacute" unicode="&#x106;" horiz-adv-x="1452" 
d="M752 1546l82 295h143l-129 -295h-96zM786 -27q-143 0 -273.5 59t-225 158.5t-150 237.5t-55.5 289q0 202 94 373t256.5 270.5t353.5 99.5q170 0 317.5 -79.5t246.5 -216.5l-127 -68q-76 102 -193 161.5t-244 59.5q-153 0 -283 -82t-204 -220t-74 -298q0 -163 75 -301
t204.5 -218.5t281.5 -80.5q130 0 245.5 59.5t191.5 160.5l127 -69q-99 -137 -246.5 -216t-317.5 -79z" />
    <glyph glyph-name="cacute" unicode="&#x107;" horiz-adv-x="1043" 
d="M539 1137l82 295h143l-129 -295h-96zM854 257l128 -70q-71 -99 -178.5 -156.5t-230.5 -57.5q-139 0 -257 72.5t-186.5 196.5t-68.5 270q0 147 68.5 271.5t186.5 197t257 72.5q123 0 230.5 -57.5t178.5 -157.5l-128 -69q-52 67 -127.5 103.5t-153.5 36.5
q-154 0 -261 -117.5t-107 -279.5q0 -106 49 -197t134 -144.5t185 -53.5q82 0 156 38t125 102z" />
    <glyph glyph-name="Ccircumflex" unicode="&#x108;" horiz-adv-x="1452" 
d="M865 1841l198 -295h-96l-181 208l-178 -208h-95l196 295h156zM786 -27q-143 0 -273.5 59t-225 158.5t-150 237.5t-55.5 289q0 202 94 373t256.5 270.5t353.5 99.5q170 0 317.5 -79.5t246.5 -216.5l-127 -68q-76 102 -193 161.5t-244 59.5q-153 0 -283 -82t-204 -220
t-74 -298q0 -163 75 -301t204.5 -218.5t281.5 -80.5q130 0 245.5 59.5t191.5 160.5l127 -69q-99 -137 -246.5 -216t-317.5 -79z" />
    <glyph glyph-name="ccircumflex" unicode="&#x109;" horiz-adv-x="1043" 
d="M652 1432l198 -295h-96l-181 208l-178 -208h-95l196 295h156zM854 257l128 -70q-71 -99 -178.5 -156.5t-230.5 -57.5q-139 0 -257 72.5t-186.5 196.5t-68.5 270q0 147 68.5 271.5t186.5 197t257 72.5q123 0 230.5 -57.5t178.5 -157.5l-128 -69q-52 67 -127.5 103.5
t-153.5 36.5q-154 0 -261 -117.5t-107 -279.5q0 -106 49 -197t134 -144.5t185 -53.5q82 0 156 38t125 102z" />
    <glyph glyph-name="Cdotaccent" unicode="&#x10a;" horiz-adv-x="1452" 
d="M787 1613q-35 0 -58.5 23t-23.5 58t23.5 58t58.5 23q34 0 58 -23.5t24 -57.5q0 -35 -23.5 -58t-58.5 -23zM786 -27q-143 0 -273.5 59t-225 158.5t-150 237.5t-55.5 289q0 202 94 373t256.5 270.5t353.5 99.5q170 0 317.5 -79.5t246.5 -216.5l-127 -68q-76 102 -193 161.5
t-244 59.5q-153 0 -283 -82t-204 -220t-74 -298q0 -163 75 -301t204.5 -218.5t281.5 -80.5q130 0 245.5 59.5t191.5 160.5l127 -69q-99 -137 -246.5 -216t-317.5 -79z" />
    <glyph glyph-name="cdotaccent" unicode="&#x10b;" horiz-adv-x="1043" 
d="M574 1203q-35 0 -58.5 23t-23.5 58t23.5 58t58.5 23q34 0 58 -23.5t24 -57.5q0 -35 -23.5 -58t-58.5 -23zM854 257l128 -70q-71 -99 -178.5 -156.5t-230.5 -57.5q-139 0 -257 72.5t-186.5 196.5t-68.5 270q0 147 68.5 271.5t186.5 197t257 72.5q123 0 230.5 -57.5
t178.5 -157.5l-128 -69q-52 67 -127.5 103.5t-153.5 36.5q-154 0 -261 -117.5t-107 -279.5q0 -106 49 -197t134 -144.5t185 -53.5q82 0 156 38t125 102z" />
    <glyph glyph-name="Ccaron" unicode="&#x10c;" horiz-adv-x="1452" 
d="M708 1546l-198 295h95l181 -208l178 208h96l-196 -295h-156zM786 -27q-143 0 -273.5 59t-225 158.5t-150 237.5t-55.5 289q0 202 94 373t256.5 270.5t353.5 99.5q170 0 317.5 -79.5t246.5 -216.5l-127 -68q-76 102 -193 161.5t-244 59.5q-153 0 -283 -82t-204 -220
t-74 -298q0 -163 75 -301t204.5 -218.5t281.5 -80.5q130 0 245.5 59.5t191.5 160.5l127 -69q-99 -137 -246.5 -216t-317.5 -79z" />
    <glyph glyph-name="ccaron" unicode="&#x10d;" horiz-adv-x="1043" 
d="M495 1137l-198 295h95l181 -208l178 208h96l-196 -295h-156zM854 257l128 -70q-71 -99 -178.5 -156.5t-230.5 -57.5q-139 0 -257 72.5t-186.5 196.5t-68.5 270q0 147 68.5 271.5t186.5 197t257 72.5q123 0 230.5 -57.5t178.5 -157.5l-128 -69q-52 67 -127.5 103.5
t-153.5 36.5q-154 0 -261 -117.5t-107 -279.5q0 -106 49 -197t134 -144.5t185 -53.5q82 0 156 38t125 102z" />
    <glyph glyph-name="Dcaron" unicode="&#x10e;" horiz-adv-x="1375" 
d="M589 1546l-198 295h95l182 -208l177 208h96l-196 -295h-156zM123 0v1434h474q146 0 278.5 -57t228.5 -153t153 -228.5t57 -278.5t-57 -278.5t-153 -228.5t-228.5 -153t-278.5 -57h-474zM266 143h331q155 0 287 77t209 209t77 288q0 116 -45.5 222.5t-122.5 183t-183 122
t-222 45.5h-331v-1147z" />
    <glyph glyph-name="dcaron" unicode="&#x10f;" horiz-adv-x="1231" 
d="M966 1536h143v-1536h-143v191q-55 -102 -149 -160t-217 -58q-146 0 -270 72.5t-196.5 196.5t-72.5 270q0 147 72.5 271t196.5 196.5t270 72.5q123 0 217 -58t149 -159v701zM1197 1241l82 295h143l-129 -295h-96zM601 113q160 0 256 114.5t96 284.5q0 172 -96.5 286
t-255.5 114q-163 0 -278 -117t-115 -283t116 -282.5t277 -116.5z" />
    <glyph glyph-name="Emacron" unicode="&#x112;" 
d="M203 1723h692v-115h-692v115zM123 0v1434h872v-144h-729v-450h603v-144h-603v-553h729v-143h-872z" />
    <glyph glyph-name="emacron" unicode="&#x113;" horiz-adv-x="1143" 
d="M226 1314h693v-116h-693v116zM573 -27q-139 0 -257 72.5t-186.5 196.5t-68.5 270q0 147 68.5 271.5t186.5 197t257 72.5q150 0 269.5 -78t183 -214.5t55.5 -302.5h-868q18 -147 119 -243.5t241 -97.5q101 0 184 52.5t134 146.5l145 -33q-63 -139 -187.5 -224.5
t-275.5 -85.5zM209 573h728q-11 143 -117 246.5t-247 103.5t-244 -101t-120 -249z" />
    <glyph glyph-name="Edotaccent" unicode="&#x116;" 
d="M550 1613q-35 0 -59 23t-24 58q0 34 24 57.5t59 23.5q34 0 58 -23.5t24 -57.5q0 -35 -23.5 -58t-58.5 -23zM123 0v1434h872v-144h-729v-450h603v-144h-603v-553h729v-143h-872z" />
    <glyph glyph-name="edotaccent" unicode="&#x117;" horiz-adv-x="1143" 
d="M573 1203q-35 0 -59 23t-24 58q0 34 24 57.5t59 23.5q34 0 58 -23.5t24 -57.5q0 -35 -23.5 -58t-58.5 -23zM573 -27q-139 0 -257 72.5t-186.5 196.5t-68.5 270q0 147 68.5 271.5t186.5 197t257 72.5q150 0 269.5 -78t183 -214.5t55.5 -302.5h-868q18 -147 119 -243.5
t241 -97.5q101 0 184 52.5t134 146.5l145 -33q-63 -139 -187.5 -224.5t-275.5 -85.5zM209 573h728q-11 143 -117 246.5t-247 103.5t-244 -101t-120 -249z" />
    <glyph glyph-name="Eogonek" unicode="&#x118;" 
d="M123 0v1434h872v-144h-729v-450h603v-144h-603v-553h729v-143h-123l-42 -42t-36 -35.5t-29.5 -29t-24.5 -25.5t-18.5 -20.5t-15 -18.5t-10 -15.5t-7.5 -15t-3.5 -14t-1.5 -15.5q0 -30 20.5 -53t54.5 -24q41 0 73 29.5t32 74.5h104q0 -89 -62.5 -150.5t-151.5 -61.5
q-81 1 -133.5 58t-52.5 131q0 76 56 132l95 95h-596z" />
    <glyph glyph-name="eogonek" unicode="&#x119;" horiz-adv-x="1143" 
d="M614 -416q-81 1 -133 57.5t-52 131.5q0 77 55 132l69 68q-134 5 -247.5 78.5t-179 195.5t-65.5 265q0 147 68.5 271.5t186.5 197t257 72.5q150 0 269.5 -78t183 -214.5t55.5 -302.5h-868q18 -147 119 -243.5t241 -97.5q101 0 184 52.5t134 146.5l145 -33
q-44 -100 -123.5 -174t-179.5 -109l-42 -42t-36 -35.5t-29.5 -29t-24.5 -25.5t-18.5 -20.5t-15 -18.5t-10 -15.5t-7.5 -15t-3.5 -14t-1.5 -15.5q0 -30 20.5 -53t54.5 -24q41 0 73 29.5t32 74.5h103q0 -89 -62.5 -150.5t-151.5 -61.5zM209 573h728q-11 143 -117 246.5
t-247 103.5t-244 -101t-120 -249z" />
    <glyph glyph-name="Ecaron" unicode="&#x11a;" 
d="M470 1546l-198 295h96l181 -208l177 208h96l-195 -295h-157zM123 0v1434h872v-144h-729v-450h603v-144h-603v-553h729v-143h-872z" />
    <glyph glyph-name="ecaron" unicode="&#x11b;" horiz-adv-x="1143" 
d="M494 1137l-198 295h95l181 -208l178 208h96l-196 -295h-156zM573 -27q-139 0 -257 72.5t-186.5 196.5t-68.5 270q0 147 68.5 271.5t186.5 197t257 72.5q150 0 269.5 -78t183 -214.5t55.5 -302.5h-868q18 -147 119 -243.5t241 -97.5q101 0 184 52.5t134 146.5l145 -33
q-63 -139 -187.5 -224.5t-275.5 -85.5zM209 573h728q-11 143 -117 246.5t-247 103.5t-244 -101t-120 -249z" />
    <glyph glyph-name="Gcircumflex" unicode="&#x11c;" horiz-adv-x="1572" 
d="M867 1841l198 -295h-96l-181 208l-178 -208h-95l196 295h156zM787 -27q-193 0 -355.5 100t-256 271.5t-93.5 373.5q0 154 57 292t153 236t226.5 155.5t271.5 57.5q165 0 311.5 -77t249.5 -218l-128 -69q-82 106 -196.5 164t-238.5 58q-152 0 -281.5 -80.5t-205.5 -219
t-76 -301.5q0 -162 76 -300t206 -218.5t283 -80.5q190 0 339.5 126t194.5 318h-387v130h554q-3 -146 -60.5 -278.5t-151.5 -229t-223 -153.5t-269 -57z" />
    <glyph glyph-name="gcircumflex" unicode="&#x11d;" horiz-adv-x="1203" 
d="M681 1432l198 -295h-97l-180 208l-178 -208h-95l195 295h157zM937 1024h143v-1062q0 -96 -43 -184.5t-114 -151.5t-164.5 -100.5t-191.5 -37.5q-159 0 -297.5 104t-184.5 253l132 61q28 -115 131 -194.5t219 -79.5q93 0 178 44.5t138.5 121.5t53.5 164v226
q-55 -100 -146.5 -157.5t-207.5 -57.5q-142 0 -262 72.5t-190 196.5t-70 270q0 147 70 271t190 196.5t262 72.5q117 0 208 -57.5t146 -157.5v187zM584 113q154 0 249.5 116.5t95.5 282.5q0 168 -96 284t-249 116q-157 0 -266.5 -117t-109.5 -283t110.5 -282.5t265.5 -116.5z
" />
    <glyph glyph-name="Gbreve" unicode="&#x11e;" horiz-adv-x="1572" 
d="M788 1524q-139 0 -239 100t-100 240h102q0 -99 70.5 -168.5t166.5 -69.5q98 0 168 69.5t70 168.5h102q0 -142 -100.5 -241t-239.5 -99zM787 -27q-193 0 -355.5 100t-256 271.5t-93.5 373.5q0 154 57 292t153 236t226.5 155.5t271.5 57.5q165 0 311.5 -77t249.5 -218
l-128 -69q-82 106 -196.5 164t-238.5 58q-152 0 -281.5 -80.5t-205.5 -219t-76 -301.5q0 -162 76 -300t206 -218.5t283 -80.5q190 0 339.5 126t194.5 318h-387v130h554q-3 -146 -60.5 -278.5t-151.5 -229t-223 -153.5t-269 -57z" />
    <glyph glyph-name="gbreve" unicode="&#x11f;" horiz-adv-x="1203" 
d="M602 1114q-140 0 -240 100t-100 240h103q0 -99 70.5 -168t166.5 -69q98 0 168 69t70 168h102q0 -142 -100.5 -241t-239.5 -99zM937 1024h143v-1062q0 -96 -43 -184.5t-114 -151.5t-164.5 -100.5t-191.5 -37.5q-159 0 -297.5 104t-184.5 253l132 61q28 -115 131 -194.5
t219 -79.5q93 0 178 44.5t138.5 121.5t53.5 164v226q-55 -100 -146.5 -157.5t-207.5 -57.5q-142 0 -262 72.5t-190 196.5t-70 270q0 147 70 271t190 196.5t262 72.5q117 0 208 -57.5t146 -157.5v187zM584 113q154 0 249.5 116.5t95.5 282.5q0 168 -96 284t-249 116
q-157 0 -266.5 -117t-109.5 -283t110.5 -282.5t265.5 -116.5z" />
    <glyph glyph-name="Gdotaccent" unicode="&#x120;" horiz-adv-x="1572" 
d="M790 1613q-35 0 -59 23t-24 58q0 34 24 57.5t59 23.5q34 0 57.5 -23.5t23.5 -57.5q0 -35 -23 -58t-58 -23zM787 -27q-193 0 -355.5 100t-256 271.5t-93.5 373.5q0 154 57 292t153 236t226.5 155.5t271.5 57.5q165 0 311.5 -77t249.5 -218l-128 -69q-82 106 -196.5 164
t-238.5 58q-152 0 -281.5 -80.5t-205.5 -219t-76 -301.5q0 -162 76 -300t206 -218.5t283 -80.5q190 0 339.5 126t194.5 318h-387v130h554q-3 -146 -60.5 -278.5t-151.5 -229t-223 -153.5t-269 -57z" />
    <glyph glyph-name="gdotaccent" unicode="&#x121;" horiz-adv-x="1203" 
d="M603 1203q-35 0 -59 23t-24 58q0 34 24 57.5t59 23.5q34 0 58 -23.5t24 -57.5q0 -35 -23.5 -58t-58.5 -23zM937 1024h143v-1062q0 -96 -43 -184.5t-114 -151.5t-164.5 -100.5t-191.5 -37.5q-159 0 -297.5 104t-184.5 253l132 61q28 -115 131 -194.5t219 -79.5
q93 0 178 44.5t138.5 121.5t53.5 164v226q-55 -100 -146.5 -157.5t-207.5 -57.5q-142 0 -262 72.5t-190 196.5t-70 270q0 147 70 271t190 196.5t262 72.5q117 0 208 -57.5t146 -157.5v187zM584 113q154 0 249.5 116.5t95.5 282.5q0 168 -96 284t-249 116q-157 0 -266.5 -117
t-109.5 -283t110.5 -282.5t265.5 -116.5z" />
    <glyph glyph-name="uni0122" unicode="&#x122;" horiz-adv-x="1572" 
d="M787 -27q-193 0 -355.5 100t-256 271.5t-93.5 373.5q0 154 57 292t153 236t226.5 155.5t271.5 57.5q165 0 311.5 -77t249.5 -218l-128 -69q-82 106 -196.5 164t-238.5 58q-152 0 -281.5 -80.5t-205.5 -219t-76 -301.5q0 -162 76 -300t206 -218.5t283 -80.5
q190 0 339.5 126t194.5 318h-387v130h554q-3 -146 -60.5 -278.5t-151.5 -229t-223 -153.5t-269 -57zM651 -452l64 347h143l-112 -347h-95z" />
    <glyph glyph-name="Hcircumflex" unicode="&#x124;" horiz-adv-x="1285" 
d="M721 1841l198 -295h-97l-180 208l-178 -208h-95l195 295h157zM1019 1434h143v-1434h-143v696h-753v-696h-143v1434h143v-594h753v594z" />
    <glyph glyph-name="hcircumflex" unicode="&#x125;" 
d="M662 1867l197 -295h-96l-180 208l-179 -208h-95l196 295h157zM1016 634v-634h-144v605q0 126 -89 214.5t-214 88.5t-214 -88.5t-89 -214.5v-605h-143v1536h143v-653q56 79 143.5 124.5t187.5 45.5q173 0 296 -123t123 -296z" />
    <glyph glyph-name="Itilde" unicode="&#x128;" horiz-adv-x="450" 
d="M384 1568q-34 0 -84.5 25t-93 54.5t-86 51t-66.5 16.5q-28 -6 -42 -34t-5 -66l-97 -27q-30 88 17 160t138 72q34 0 84.5 -23.5t93 -51t86.5 -51t66 -23.5q32 0 45.5 35.5t2.5 65.5l98 30q30 -92 -18.5 -163t-138.5 -71zM154 0v1434h143v-1434h-143z" />
    <glyph glyph-name="itilde" unicode="&#x129;" horiz-adv-x="389" 
d="M311 1132q-31 0 -81.5 32t-95 61t-65.5 24q-20 -5 -30.5 -27.5t-3.5 -52.5l-72 -21q-23 70 12.5 127.5t101.5 57.5q32 0 82 -30t95 -59.5t65 -29.5q24 0 33.5 28t1.5 52l72 25q22 -73 -13.5 -130t-101.5 -57zM123 1024h143v-1024h-143v1024z" />
    <glyph glyph-name="Imacron" unicode="&#x12a;" horiz-adv-x="450" 
d="M-121 1723h692v-115h-692v115zM154 0v1434h143v-1434h-143z" />
    <glyph glyph-name="imacron" unicode="&#x12b;" horiz-adv-x="389" 
d="M0 1314h389v-116h-389v116zM123 1024h143v-1024h-143v1024z" />
    <glyph glyph-name="Iogonek" unicode="&#x12e;" horiz-adv-x="450" 
d="M178 -416q-81 1 -133 57.5t-52 131.5q0 77 55 132l106 105v1424h143v-1434l-42 -42t-36 -35.5t-29.5 -29t-24.5 -25.5t-18.5 -20.5t-15 -18.5t-10 -15.5t-7.5 -15t-3.5 -14t-1.5 -15.5q0 -30 20 -53t54 -24q41 0 73.5 29.5t32.5 74.5h103q0 -89 -62.5 -150.5
t-151.5 -61.5z" />
    <glyph glyph-name="iogonek" unicode="&#x12f;" horiz-adv-x="389" 
d="M196 1203q-35 0 -59 23t-24 58q0 34 24 57.5t59 23.5q34 0 58 -23.5t24 -57.5q0 -35 -23.5 -58t-58.5 -23zM147 -416q-81 1 -133 57.5t-52 131.5q0 77 55 132l106 105v1014h143v-1024l-42 -42t-36 -35.5t-29.5 -29t-24.5 -25.5t-18.5 -20.5t-15 -18.5t-10 -15.5t-7.5 -15
t-3.5 -14t-1.5 -15.5q0 -30 20.5 -53t54.5 -24q41 0 73 29.5t32 74.5h103q0 -89 -62.5 -150.5t-151.5 -61.5z" />
    <glyph glyph-name="Idotaccent" unicode="&#x130;" horiz-adv-x="450" 
d="M226 1613q-35 0 -59 23t-24 58q0 34 24 57.5t59 23.5q34 0 58 -23.5t24 -57.5q0 -35 -23.5 -58t-58.5 -23zM154 0v1434h143v-1434h-143z" />
    <glyph glyph-name="dotlessi" unicode="&#x131;" horiz-adv-x="389" 
d="M123 1024h143v-1024h-143v1024z" />
    <glyph glyph-name="IJ" unicode="&#x132;" horiz-adv-x="1272" 
d="M154 0v1434h143v-1434h-143zM748 -27q-145 0 -256 94l91 110q70 -60 165 -60q105 0 182 81.5t77 189.5v1046h143v-1046q0 -167 -118.5 -291t-283.5 -124z" />
    <glyph glyph-name="ij" unicode="&#x133;" horiz-adv-x="792" 
d="M196 1203q-35 0 -59 23t-24 58q0 34 24 57.5t59 23.5q34 0 58 -23.5t24 -57.5q0 -35 -23.5 -58t-58.5 -23zM599 1203q-35 0 -59 23t-24 58q0 34 24 57.5t59 23.5q34 0 58 -23.5t24 -57.5q0 -35 -23.5 -58t-58.5 -23zM123 1024h143v-1024h-143v1024zM259 -512v143
q114 0 190.5 74t76.5 184v1135h144v-1135q0 -168 -118.5 -284.5t-292.5 -116.5z" />
    <glyph glyph-name="Jcircumflex" unicode="&#x134;" horiz-adv-x="822" 
d="M707 1841l197 -295h-96l-180 208l-178 -208h-96l196 295h157zM297 -27q-145 0 -256 94l91 110q70 -60 165 -60q105 0 182 81.5t77 189.5v1046h143v-1046q0 -167 -118.5 -291t-283.5 -124z" />
    <glyph glyph-name="jcircumflex" unicode="&#x135;" horiz-adv-x="451" 
d="M336 1432l198 -295h-97l-180 208l-178 -208h-95l195 295h157zM-82 -512v143q114 0 190.5 74t76.5 184v1135h144v-1135q0 -168 -118.5 -284.5t-292.5 -116.5z" />
    <glyph glyph-name="uni0136" unicode="&#x136;" horiz-adv-x="1091" 
d="M1043 0h-185l-470 644l-122 -146v-498h-143v1434h143v-713l597 713h188l-569 -677zM411 -452l63 347h143l-111 -347h-95z" />
    <glyph glyph-name="uni0137" unicode="&#x137;" horiz-adv-x="1005" 
d="M923 0h-165l-287 495l-205 -245v-250h-143v1536h143v-1063l462 551h187l-347 -413zM357 -452l64 347h143l-111 -347h-96z" />
    <glyph glyph-name="Lacute" unicode="&#x139;" horiz-adv-x="1027" 
d="M160 1546l82 295h143l-129 -295h-96zM123 0v1434h143v-1291h659v-143h-802z" />
    <glyph glyph-name="lacute" unicode="&#x13a;" horiz-adv-x="389" 
d="M160 1649l82 295h143l-129 -295h-96zM123 0v1536h143v-1536h-143z" />
    <glyph glyph-name="uni013B" unicode="&#x13b;" horiz-adv-x="1027" 
d="M123 0v1434h143v-1291h659v-143h-802zM389 -452l64 347h143l-112 -347h-95z" />
    <glyph glyph-name="uni013C" unicode="&#x13c;" horiz-adv-x="389" 
d="M123 0v1536h143v-1536h-143zM59 -452l64 347h143l-111 -347h-96z" />
    <glyph glyph-name="Lcaron" unicode="&#x13d;" horiz-adv-x="1027" 
d="M573 1241l82 295h144l-129 -295h-97zM123 0v1434h143v-1291h659v-143h-802z" />
    <glyph glyph-name="lcaron" unicode="&#x13e;" horiz-adv-x="389" 
d="M123 0v1536h143v-1536h-143zM348 1241l82 295h143l-129 -295h-96z" />
    <glyph glyph-name="Nacute" unicode="&#x143;" horiz-adv-x="1301" 
d="M615 1546l82 295h144l-129 -295h-97zM123 0v1434h156l756 -1175v1175h144v-1434h-155l-758 1175v-1175h-143z" />
    <glyph glyph-name="nacute" unicode="&#x144;" 
d="M542 1137l82 295h143l-129 -295h-96zM1016 634v-634h-144v605q0 126 -89 214.5t-214 88.5t-214 -88.5t-89 -214.5v-605h-143v1024h143v-141q56 79 143.5 124.5t187.5 45.5q173 0 296 -123t123 -296z" />
    <glyph glyph-name="uni0145" unicode="&#x145;" horiz-adv-x="1301" 
d="M123 0v1434h156l756 -1175v1175h144v-1434h-155l-758 1175v-1175h-143zM515 -452l64 347h143l-112 -347h-95z" />
    <glyph glyph-name="uni0146" unicode="&#x146;" 
d="M1016 634v-634h-144v605q0 126 -89 214.5t-214 88.5t-214 -88.5t-89 -214.5v-605h-143v1024h143v-141q56 79 143.5 124.5t187.5 45.5q173 0 296 -123t123 -296zM434 -452l64 347h143l-112 -347h-95z" />
    <glyph glyph-name="Ncaron" unicode="&#x147;" horiz-adv-x="1301" 
d="M571 1546l-197 295h95l181 -208l177 208h97l-196 -295h-157zM123 0v1434h156l756 -1175v1175h144v-1434h-155l-758 1175v-1175h-143z" />
    <glyph glyph-name="ncaron" unicode="&#x148;" 
d="M498 1137l-198 295h95l182 -208l177 208h96l-196 -295h-156zM1016 634v-634h-144v605q0 126 -89 214.5t-214 88.5t-214 -88.5t-89 -214.5v-605h-143v1024h143v-141q56 79 143.5 124.5t187.5 45.5q173 0 296 -123t123 -296z" />
    <glyph glyph-name="Omacron" unicode="&#x14c;" horiz-adv-x="1576" 
d="M442 1723h693v-115h-693v115zM788 -27q-143 0 -274 59t-225.5 158.5t-150.5 237.5t-56 289t56 288.5t150.5 237t225.5 158.5t274 59q191 0 354 -99.5t258 -270.5t95 -373q0 -151 -56 -289t-151 -237.5t-226 -158.5t-274 -59zM788 117q153 0 283.5 81.5t205.5 219.5
t75 299q0 162 -76 300t-206 219t-282 81q-153 0 -283 -81.5t-205 -219.5t-75 -299q0 -162 75.5 -300.5t205.5 -219t282 -80.5z" />
    <glyph glyph-name="omacron" unicode="&#x14d;" horiz-adv-x="1146" 
d="M227 1314h693v-116h-693v116zM573 -27q-139 0 -257 72.5t-186.5 196.5t-68.5 270q0 147 68.5 271.5t186.5 197t257 72.5t257 -72.5t186.5 -197t68.5 -271.5q0 -146 -68.5 -270t-186.5 -196.5t-257 -72.5zM573 117q154 0 261.5 117t107.5 278q0 162 -108 279.5t-261 117.5
q-155 0 -261.5 -117t-106.5 -280q0 -165 108 -280t260 -115z" />
    <glyph glyph-name="Ohungarumlaut" unicode="&#x150;" horiz-adv-x="1576" 
d="M903 1546l82 295h143l-129 -295h-96zM623 1546l82 295h143l-129 -295h-96zM788 -27q-143 0 -274 59t-225.5 158.5t-150.5 237.5t-56 289t56 288.5t150.5 237t225.5 158.5t274 59q191 0 354 -99.5t258 -270.5t95 -373q0 -151 -56 -289t-151 -237.5t-226 -158.5t-274 -59z
M788 117q153 0 283.5 81.5t205.5 219.5t75 299q0 162 -76 300t-206 219t-282 81q-153 0 -283 -81.5t-205 -219.5t-75 -299q0 -162 75.5 -300.5t205.5 -219t282 -80.5z" />
    <glyph glyph-name="ohungarumlaut" unicode="&#x151;" horiz-adv-x="1146" 
d="M688 1137l82 295h143l-129 -295h-96zM408 1137l81 295h144l-129 -295h-96zM573 -27q-139 0 -257 72.5t-186.5 196.5t-68.5 270q0 147 68.5 271.5t186.5 197t257 72.5t257 -72.5t186.5 -197t68.5 -271.5q0 -146 -68.5 -270t-186.5 -196.5t-257 -72.5zM573 117
q154 0 261.5 117t107.5 278q0 162 -108 279.5t-261 117.5q-155 0 -261.5 -117t-106.5 -280q0 -165 108 -280t260 -115z" />
    <glyph glyph-name="OE" unicode="&#x152;" horiz-adv-x="2221" 
d="M788 -27q-143 0 -274 59t-225.5 158.5t-150.5 237.5t-56 289t56 288.5t150.5 237t225.5 158.5t274 59q177 0 328 -92.5t237 -245.5v312h766v-144h-623v-502h524v-143h-524v-502h623v-143h-766v311q-86 -153 -237 -245.5t-328 -92.5zM788 117q153 0 283.5 81.5
t205.5 219.5t75 299q0 162 -76 300t-206 219t-282 81q-153 0 -283 -81.5t-205 -219.5t-75 -299q0 -162 75.5 -300.5t205.5 -219t282 -80.5z" />
    <glyph glyph-name="oe" unicode="&#x153;" horiz-adv-x="2023" 
d="M573 -27q-139 0 -257 72.5t-186.5 196.5t-68.5 270q0 147 68.5 271.5t186.5 197t257 72.5q143 0 262 -79.5t179 -209.5q60 130 178.5 209.5t261.5 79.5q112 0 209.5 -46t164.5 -124.5t103 -189t30 -235.5h-867q18 -147 118.5 -243.5t241.5 -97.5q101 0 184 52.5
t134 146.5l145 -33q-63 -139 -187.5 -224.5t-275.5 -85.5q-143 0 -261.5 79t-178.5 209q-60 -130 -179 -209t-262 -79zM1090 574h727q-11 143 -116.5 246t-246.5 103q-142 0 -245.5 -100.5t-118.5 -248.5zM573 117q154 0 261.5 117t107.5 278q0 162 -108 279.5t-261 117.5
q-155 0 -261.5 -117t-106.5 -280q0 -165 108 -280t260 -115z" />
    <glyph glyph-name="Racute" unicode="&#x154;" horiz-adv-x="1141" 
d="M413 1546l82 295h143l-129 -295h-96zM123 0v1434h486q172 0 290 -121t118 -298q0 -156 -93 -269t-235 -140l350 -606h-166l-345 595h-262v-595h-143zM266 738h331q115 0 195.5 81.5t80.5 202.5t-80.5 202.5t-195.5 81.5h-331v-568z" />
    <glyph glyph-name="racute" unicode="&#x155;" horiz-adv-x="732" 
d="M370 1137l82 295h143l-129 -295h-96zM123 0v1024h143v-141q56 79 143.5 124.5t187.5 45.5q56 0 115 -16l-59 -142q-44 13 -84 13q-125 0 -214 -88.5t-89 -214.5v-605h-143z" />
    <glyph glyph-name="uni0156" unicode="&#x156;" horiz-adv-x="1141" 
d="M123 0v1434h486q172 0 290 -121t118 -298q0 -156 -93 -269t-235 -140l350 -606h-166l-345 595h-262v-595h-143zM266 738h331q115 0 195.5 81.5t80.5 202.5t-80.5 202.5t-195.5 81.5h-331v-568zM426 -452l63 347h144l-112 -347h-95z" />
    <glyph glyph-name="uni0157" unicode="&#x157;" horiz-adv-x="732" 
d="M123 0v1024h143v-141q56 79 143.5 124.5t187.5 45.5q56 0 115 -16l-59 -142q-44 13 -84 13q-125 0 -214 -88.5t-89 -214.5v-605h-143zM59 -452l64 347h143l-111 -347h-96z" />
    <glyph glyph-name="Rcaron" unicode="&#x158;" horiz-adv-x="1141" 
d="M369 1546l-198 295h95l181 -208l178 208h96l-196 -295h-156zM123 0v1434h486q172 0 290 -121t118 -298q0 -156 -93 -269t-235 -140l350 -606h-166l-345 595h-262v-595h-143zM266 738h331q115 0 195.5 81.5t80.5 202.5t-80.5 202.5t-195.5 81.5h-331v-568z" />
    <glyph glyph-name="rcaron" unicode="&#x159;" horiz-adv-x="732" 
d="M326 1137l-198 295h95l181 -208l178 208h96l-196 -295h-156zM123 0v1024h143v-141q56 79 143.5 124.5t187.5 45.5q56 0 115 -16l-59 -142q-44 13 -84 13q-125 0 -214 -88.5t-89 -214.5v-605h-143z" />
    <glyph glyph-name="Sacute" unicode="&#x15a;" horiz-adv-x="1249" 
d="M590 1546l82 295h143l-129 -295h-96zM624 -27q-177 0 -325.5 81t-196.5 216l135 51q33 -92 144.5 -148t242.5 -56q152 0 262 73.5t110 189.5q0 196 -372 262q-95 16 -167 36t-140 53t-111.5 75t-69.5 103.5t-26 139.5q0 120 72 214t188.5 143t253.5 49q174 0 322.5 -80.5
t200.5 -218.5l-136 -49q-33 93 -144 148.5t-243 55.5q-98 1 -182.5 -31.5t-136.5 -93.5t-52 -137q0 -39 10 -70.5t26 -55t44.5 -42.5t55.5 -32t70 -25t77.5 -19t87.5 -17q86 -15 159.5 -37t140.5 -57t114 -79t74.5 -104t27.5 -131q0 -120 -72 -214t-189 -143.5t-255 -49.5z
" />
    <glyph glyph-name="sacute" unicode="&#x15b;" horiz-adv-x="879" 
d="M406 1137l81 295h144l-129 -295h-96zM439 -19q-129 3 -240 65t-148 155l124 53q24 -60 107.5 -103t169.5 -43q97 0 168 47t71 123q0 37 -16.5 64.5t-55 48t-65 30t-82.5 25.5q-18 5 -27 8q-90 24 -150.5 47.5t-113 58t-78 83t-25.5 112.5q0 135 110.5 219.5t263.5 84.5
q125 0 227.5 -54.5t148.5 -144.5l-115 -68q-27 60 -99.5 98.5t-152.5 40.5q-104 2 -175.5 -44.5t-71.5 -128.5q0 -24 5.5 -43t20.5 -33.5t28 -25t41 -21t46 -16.5t56 -17t59 -18q64 -21 109.5 -38.5t96 -45t81 -57t50.5 -71.5t19 -92q0 -134 -116 -219t-271 -80z" />
    <glyph glyph-name="Scircumflex" unicode="&#x15c;" horiz-adv-x="1249" 
d="M703 1841l198 -295h-96l-180 208l-179 -208h-95l196 295h156zM624 -27q-177 0 -325.5 81t-196.5 216l135 51q33 -92 144.5 -148t242.5 -56q152 0 262 73.5t110 189.5q0 196 -372 262q-95 16 -167 36t-140 53t-111.5 75t-69.5 103.5t-26 139.5q0 120 72 214t188.5 143
t253.5 49q174 0 322.5 -80.5t200.5 -218.5l-136 -49q-33 93 -144 148.5t-243 55.5q-98 1 -182.5 -31.5t-136.5 -93.5t-52 -137q0 -39 10 -70.5t26 -55t44.5 -42.5t55.5 -32t70 -25t77.5 -19t87.5 -17q86 -15 159.5 -37t140.5 -57t114 -79t74.5 -104t27.5 -131
q0 -120 -72 -214t-189 -143.5t-255 -49.5z" />
    <glyph glyph-name="scircumflex" unicode="&#x15d;" horiz-adv-x="879" 
d="M519 1432l198 -295h-96l-181 208l-178 -208h-95l195 295h157zM439 -19q-129 3 -240 65t-148 155l124 53q24 -60 107.5 -103t169.5 -43q97 0 168 47t71 123q0 37 -16.5 64.5t-55 48t-65 30t-82.5 25.5q-18 5 -27 8q-90 24 -150.5 47.5t-113 58t-78 83t-25.5 112.5
q0 135 110.5 219.5t263.5 84.5q125 0 227.5 -54.5t148.5 -144.5l-115 -68q-27 60 -99.5 98.5t-152.5 40.5q-104 2 -175.5 -44.5t-71.5 -128.5q0 -24 5.5 -43t20.5 -33.5t28 -25t41 -21t46 -16.5t56 -17t59 -18q64 -21 109.5 -38.5t96 -45t81 -57t50.5 -71.5t19 -92
q0 -134 -116 -219t-271 -80z" />
    <glyph glyph-name="Scedilla" unicode="&#x15e;" horiz-adv-x="1249" 
d="M698 -376q-64 -18 -122.5 16t-75.5 99l89 23q7 -28 32 -42.5t54 -6.5q28 7 43 32.5t7 54.5q-7 28 -32 42t-55 8l-97 -13l77 136q-175 1 -321.5 82t-194.5 215l135 51q33 -92 144.5 -148t242.5 -56q152 0 262 73.5t110 189.5q0 196 -372 262q-95 16 -167 36t-140 53
t-111.5 75t-69.5 103.5t-26 139.5q0 120 72 214t188.5 143t253.5 49q174 0 322.5 -80.5t200.5 -218.5l-136 -49q-33 93 -144 148.5t-243 55.5q-98 1 -182.5 -31.5t-136.5 -93.5t-52 -137q0 -39 10 -70.5t26 -55t44.5 -42.5t55.5 -32t70 -25t77.5 -19t87.5 -17
q86 -15 159.5 -37t140.5 -57t114 -79t74.5 -104t27.5 -131q0 -156 -116.5 -263.5t-293.5 -134.5l-27 -47q39 -10 69.5 -39.5t41.5 -71.5q18 -65 -16.5 -124t-99.5 -76z" />
    <glyph glyph-name="scedilla" unicode="&#x15f;" horiz-adv-x="879" 
d="M504 -376q-64 -18 -123 16t-76 99l89 23q7 -28 32 -42.5t54 -6.5q28 7 43 32.5t7 54.5q-7 28 -32 42t-55 8l-97 -13l83 144q-126 6 -234 67.5t-144 152.5l124 53q24 -60 107.5 -103t169.5 -43q97 0 168 47t71 123q0 37 -16.5 64.5t-55 48t-65 30t-82.5 25.5q-18 5 -27 8
q-90 24 -150.5 47.5t-113 58t-78 83t-25.5 112.5q0 135 110.5 219.5t263.5 84.5q125 0 227.5 -54.5t148.5 -144.5l-115 -68q-27 60 -99.5 98.5t-152.5 40.5q-104 2 -175.5 -44.5t-71.5 -128.5q0 -24 5.5 -43t20.5 -33.5t28 -25t41 -21t46 -16.5t56 -17t59 -18
q64 -21 109.5 -38.5t96 -45t81 -57t50.5 -71.5t19 -92q0 -111 -81.5 -190t-205.5 -102l-30 -53q39 -10 69.5 -39.5t41.5 -71.5q18 -65 -16.5 -124t-99.5 -76z" />
    <glyph glyph-name="Scaron" unicode="&#x160;" horiz-adv-x="1249" 
d="M546 1546l-198 295h95l182 -208l177 208h96l-196 -295h-156zM624 -27q-177 0 -325.5 81t-196.5 216l135 51q33 -92 144.5 -148t242.5 -56q152 0 262 73.5t110 189.5q0 196 -372 262q-95 16 -167 36t-140 53t-111.5 75t-69.5 103.5t-26 139.5q0 120 72 214t188.5 143
t253.5 49q174 0 322.5 -80.5t200.5 -218.5l-136 -49q-33 93 -144 148.5t-243 55.5q-98 1 -182.5 -31.5t-136.5 -93.5t-52 -137q0 -39 10 -70.5t26 -55t44.5 -42.5t55.5 -32t70 -25t77.5 -19t87.5 -17q86 -15 159.5 -37t140.5 -57t114 -79t74.5 -104t27.5 -131
q0 -120 -72 -214t-189 -143.5t-255 -49.5z" />
    <glyph glyph-name="scaron" unicode="&#x161;" horiz-adv-x="879" 
d="M361 1137l-197 295h95l181 -208l177 208h97l-196 -295h-157zM439 -19q-129 3 -240 65t-148 155l124 53q24 -60 107.5 -103t169.5 -43q97 0 168 47t71 123q0 37 -16.5 64.5t-55 48t-65 30t-82.5 25.5q-18 5 -27 8q-90 24 -150.5 47.5t-113 58t-78 83t-25.5 112.5
q0 135 110.5 219.5t263.5 84.5q125 0 227.5 -54.5t148.5 -144.5l-115 -68q-27 60 -99.5 98.5t-152.5 40.5q-104 2 -175.5 -44.5t-71.5 -128.5q0 -24 5.5 -43t20.5 -33.5t28 -25t41 -21t46 -16.5t56 -17t59 -18q64 -21 109.5 -38.5t96 -45t81 -57t50.5 -71.5t19 -92
q0 -134 -116 -219t-271 -80z" />
    <glyph glyph-name="uni0162" unicode="&#x162;" horiz-adv-x="1289" 
d="M646 -376q-64 -18 -123 16t-76 99l90 23q7 -28 32 -42.5t54 -6.5q28 7 43 32.5t7 54.5q-7 28 -32 42t-55 8l-98 -13l94 163h-10v1290h-490v144h1125v-144h-491v-1290h-28l-37 -65q39 -10 69.5 -39.5t41.5 -71.5q18 -65 -16.5 -124t-99.5 -76z" />
    <glyph glyph-name="uni0163" unicode="&#x163;" horiz-adv-x="706" 
d="M331 -376q-64 -18 -123 16t-76 99l89 23q7 -28 32 -42.5t54 -6.5q28 7 43 32.5t7 54.5q-7 28 -32 42t-55 8l-97 -13l93 163h-9l1 881h-185v143h185l-1 322h143l1 -322h245v-143h-245l-1 -881h-27l-37 -65q39 -10 69 -39.5t41 -71.5q18 -65 -16 -124t-99 -76z" />
    <glyph glyph-name="Tcaron" unicode="&#x164;" horiz-adv-x="1289" 
d="M565 1546l-197 295h95l181 -208l177 208h97l-196 -295h-157zM1207 1434v-144h-491v-1290h-144v1290h-490v144h1125z" />
    <glyph glyph-name="tcaron" unicode="&#x165;" horiz-adv-x="706" 
d="M529 1241l82 295h144l-129 -295h-97zM646 881h-245l-1 -881h-143l1 881h-185v143h185l-1 322h143l1 -322h245v-143z" />
    <glyph glyph-name="Utilde" unicode="&#x168;" horiz-adv-x="1357" 
d="M838 1568q-34 0 -84.5 25t-93 54.5t-86 51t-66.5 16.5q-28 -6 -42 -34t-5 -66l-97 -27q-30 88 16.5 160t137.5 72q34 0 85 -23.5t93.5 -51t86.5 -51t66 -23.5q32 0 45.5 35.5t2.5 65.5l97 30q30 -92 -18 -163t-138 -71zM679 -27q-126 0 -231.5 49t-176 133.5
t-109.5 198.5t-39 244v836h143v-836q0 -133 47 -241t142.5 -174t223.5 -66q130 0 225.5 66.5t141.5 174t46 240.5v836h143v-836q0 -130 -39 -244t-109.5 -198.5t-176 -133.5t-231.5 -49z" />
    <glyph glyph-name="utilde" unicode="&#x169;" horiz-adv-x="1056" 
d="M700 1159q-42 0 -110.5 40.5t-129 77t-89.5 30.5q-28 -6 -42 -34.5t-5 -66.5l-98 -26q-30 88 17 159.5t138 71.5q43 0 111.5 -37t130.5 -74t89 -37q32 0 45.5 35t2.5 65l97 31q30 -92 -18.5 -163.5t-138.5 -71.5zM82 392v632h143v-603q0 -126 89 -214.5t214 -88.5
t213.5 88.5t88.5 214.5v603h144l1 -1024h-144l-1 143q-56 -79 -142.5 -124.5t-186.5 -45.5q-173 0 -296 123t-123 296z" />
    <glyph glyph-name="Umacron" unicode="&#x16a;" horiz-adv-x="1357" 
d="M333 1723h692v-115h-692v115zM679 -27q-126 0 -231.5 49t-176 133.5t-109.5 198.5t-39 244v836h143v-836q0 -133 47 -241t142.5 -174t223.5 -66q130 0 225.5 66.5t141.5 174t46 240.5v836h143v-836q0 -130 -39 -244t-109.5 -198.5t-176 -133.5t-231.5 -49z" />
    <glyph glyph-name="umacron" unicode="&#x16b;" horiz-adv-x="1056" 
d="M196 1315h692v-116h-692v116zM82 392v632h143v-603q0 -126 89 -214.5t214 -88.5t213.5 88.5t88.5 214.5v603h144l1 -1024h-144l-1 143q-56 -79 -142.5 -124.5t-186.5 -45.5q-173 0 -296 123t-123 296z" />
    <glyph glyph-name="Ubreve" unicode="&#x16c;" horiz-adv-x="1357" 
d="M679 1524q-139 0 -239.5 100t-100.5 240h102q0 -99 71 -168.5t167 -69.5q98 0 167.5 69.5t69.5 168.5h103q0 -142 -100.5 -241t-239.5 -99zM679 -27q-126 0 -231.5 49t-176 133.5t-109.5 198.5t-39 244v836h143v-836q0 -133 47 -241t142.5 -174t223.5 -66
q130 0 225.5 66.5t141.5 174t46 240.5v836h143v-836q0 -130 -39 -244t-109.5 -198.5t-176 -133.5t-231.5 -49z" />
    <glyph glyph-name="ubreve" unicode="&#x16d;" horiz-adv-x="1056" 
d="M542 1115q-140 0 -240 100.5t-100 239.5h102q0 -98 71 -167.5t167 -69.5q98 0 167.5 69t69.5 168h103q0 -142 -100.5 -241t-239.5 -99zM82 392v632h143v-603q0 -126 89 -214.5t214 -88.5t213.5 88.5t88.5 214.5v603h144l1 -1024h-144l-1 143q-56 -79 -142.5 -124.5
t-186.5 -45.5q-173 0 -296 123t-123 296z" />
    <glyph glyph-name="Uring" unicode="&#x16e;" horiz-adv-x="1357" 
d="M679 1531q-67 0 -115 48.5t-48 115.5q0 66 48 114t115 48t114.5 -48t47.5 -114q0 -68 -47.5 -116t-114.5 -48zM679 1611q34 0 58 24.5t24 59.5q0 33 -24 56.5t-58 23.5t-58 -23.5t-24 -56.5q0 -35 24 -59.5t58 -24.5zM679 -27q-126 0 -231.5 49t-176 133.5t-109.5 198.5
t-39 244v836h143v-836q0 -133 47 -241t142.5 -174t223.5 -66q130 0 225.5 66.5t141.5 174t46 240.5v836h143v-836q0 -130 -39 -244t-109.5 -198.5t-176 -133.5t-231.5 -49z" />
    <glyph glyph-name="uring" unicode="&#x16f;" horiz-adv-x="1056" 
d="M542 1122q-67 0 -115 48.5t-48 115.5q0 66 48 114t115 48q66 0 113.5 -48t47.5 -114q0 -68 -47 -116t-114 -48zM542 1202q34 0 58 24.5t24 59.5q0 33 -24 56.5t-58 23.5t-58 -23.5t-24 -56.5q0 -35 24 -59.5t58 -24.5zM82 392v632h143v-603q0 -126 89 -214.5t214 -88.5
t213.5 88.5t88.5 214.5v603h144l1 -1024h-144l-1 143q-56 -79 -142.5 -124.5t-186.5 -45.5q-173 0 -296 123t-123 296z" />
    <glyph glyph-name="Uhungarumlaut" unicode="&#x170;" horiz-adv-x="1357" 
d="M794 1546l82 295h143l-129 -295h-96zM513 1546l82 295h143l-129 -295h-96zM679 -27q-126 0 -231.5 49t-176 133.5t-109.5 198.5t-39 244v836h143v-836q0 -133 47 -241t142.5 -174t223.5 -66q130 0 225.5 66.5t141.5 174t46 240.5v836h143v-836q0 -130 -39 -244
t-109.5 -198.5t-176 -133.5t-231.5 -49z" />
    <glyph glyph-name="uhungarumlaut" unicode="&#x171;" horiz-adv-x="1056" 
d="M656 1138l82 295h144l-129 -295h-97zM376 1138l82 295h143l-129 -295h-96zM82 392v632h143v-603q0 -126 89 -214.5t214 -88.5t213.5 88.5t88.5 214.5v603h144l1 -1024h-144l-1 143q-56 -79 -142.5 -124.5t-186.5 -45.5q-173 0 -296 123t-123 296z" />
    <glyph glyph-name="Uogonek" unicode="&#x172;" horiz-adv-x="1357" 
d="M680 -427q-81 1 -133 57.5t-52 130.5q0 78 55 133l82 81q-154 12 -271 98.5t-177.5 223t-60.5 301.5v836h143v-836q0 -133 47 -241t142.5 -174t223.5 -66q130 0 225.5 66.5t141.5 174t46 240.5v836h143v-836q0 -233 -118.5 -402.5t-321.5 -210.5q-18 -18 -41 -40.5
t-35.5 -35t-28.5 -29t-24 -25t-18.5 -20t-15 -18.5t-10 -15.5t-7.5 -15t-3.5 -14t-1.5 -15.5q0 -30 20.5 -52.5t54.5 -23.5q41 0 73.5 29.5t32.5 74.5h103q0 -89 -62.5 -150.5t-151.5 -61.5z" />
    <glyph glyph-name="uogonek" unicode="&#x173;" horiz-adv-x="1056" 
d="M82 392v632h143v-603q0 -126 89 -214.5t214 -88.5t213.5 88.5t88.5 214.5v603h144l1 -1023v-1h-1l-45.5 -45.5l-39 -39t-31 -30.5t-25.5 -26t-18 -21t-14 -19t-8.5 -16t-5.5 -16.5t-1 -16.5q0 -30 20.5 -53t54.5 -24q41 0 73.5 29.5t32.5 74.5h103q0 -89 -62.5 -150.5
t-151.5 -61.5q-81 1 -133 57.5t-52 131.5q0 77 55 132l105 105l-1 132q-56 -79 -142.5 -124.5t-186.5 -45.5q-173 0 -296 123t-123 296z" />
    <glyph glyph-name="Wcircumflex" unicode="&#x174;" horiz-adv-x="1728" 
d="M943 1841l198 -295h-97l-180 208l-178 -208h-95l195 295h157zM415 0l-367 1434h148l303 -1187l302 1187h127l303 -1187l302 1187h147l-364 -1434h-170l-282 1101l-281 -1101h-168z" />
    <glyph glyph-name="wcircumflex" unicode="&#x175;" horiz-adv-x="1664" 
d="M911 1432l198 -295h-96l-180 208l-179 -208h-95l196 295h156zM552 0h-148l-343 1024h141l278 -825l277 825h151l277 -825l276 825h142l-343 -1024h-149l-281 834z" />
    <glyph glyph-name="Ycircumflex" unicode="&#x176;" horiz-adv-x="1231" 
d="M694 1841l198 -295h-96l-181 208l-178 -208h-95l196 295h156zM1001 1434h169l-483 -785v-649h-143v649l-483 785h169l385 -628z" />
    <glyph glyph-name="ycircumflex" unicode="&#x177;" horiz-adv-x="1057" 
d="M607 1432l198 -295h-96l-181 208l-178 -208h-95l196 295h156zM824 1024h152l-560 -1536h-153l187 512l-368 1024h157l282 -826z" />
    <glyph glyph-name="Ydieresis" unicode="&#x178;" horiz-adv-x="1231" 
d="M456 1517q-36 0 -60.5 22.5t-24.5 57.5q0 34 25 58.5t60 24.5q34 0 58 -24.5t24 -58.5q0 -35 -24 -57.5t-58 -22.5zM777 1517q-36 0 -60 22.5t-24 57.5q0 34 24.5 58.5t59.5 24.5q34 0 58.5 -24.5t24.5 -58.5q0 -35 -24.5 -57.5t-58.5 -22.5zM1001 1434h169l-483 -785
v-649h-143v649l-483 785h169l385 -628z" />
    <glyph glyph-name="Zacute" unicode="&#x179;" horiz-adv-x="1323" 
d="M627 1546l82 295h143l-129 -295h-96zM82 0v143l968 1147h-968v144h1159v-144l-968 -1147h968v-143h-1159z" />
    <glyph glyph-name="zacute" unicode="&#x17a;" horiz-adv-x="1038" 
d="M484 1137l82 295h144l-129 -295h-97zM956 881l-671 -738h671v-143h-874v143l672 738h-672v143h874v-143z" />
    <glyph glyph-name="Zdotaccent" unicode="&#x17b;" horiz-adv-x="1323" 
d="M663 1613q-35 0 -59 23t-24 58q0 34 24 57.5t59 23.5q34 0 57.5 -23.5t23.5 -57.5q0 -35 -23 -58t-58 -23zM82 0v143l968 1147h-968v144h1159v-144l-968 -1147h968v-143h-1159z" />
    <glyph glyph-name="zdotaccent" unicode="&#x17c;" horiz-adv-x="1038" 
d="M520 1203q-35 0 -59 23t-24 58q0 34 24 57.5t59 23.5q34 0 58 -23.5t24 -57.5q0 -35 -23.5 -58t-58.5 -23zM956 881l-671 -738h671v-143h-874v143l672 738h-672v143h874v-143z" />
    <glyph glyph-name="Zcaron" unicode="&#x17d;" horiz-adv-x="1323" 
d="M583 1546l-198 295h95l182 -208l177 208h96l-196 -295h-156zM82 0v143l968 1147h-968v144h1159v-144l-968 -1147h968v-143h-1159z" />
    <glyph glyph-name="zcaron" unicode="&#x17e;" horiz-adv-x="1038" 
d="M440 1137l-197 295h95l181 -208l177 208h97l-196 -295h-157zM956 881l-671 -738h671v-143h-874v143l672 738h-672v143h874v-143z" />
    <glyph glyph-name="uni01CD" unicode="&#x1cd;" horiz-adv-x="1385" 
d="M613 1546l-197 295h95l181 -208l177 208h97l-196 -295h-157zM603 1434h178l523 -1434h-153l-112 307h-693l-112 -307h-152zM398 451h588l-294 806z" />
    <glyph glyph-name="uni01CE" unicode="&#x1ce;" horiz-adv-x="1189" 
d="M531 1137l-197 295h95l181 -208l177 208h97l-196 -295h-157zM965 1024h143v-1024h-143l-6 190q-52 -101 -143 -159t-212 -58q-148 0 -273 73t-197.5 198t-72.5 273q0 109 42.5 208.5t114 171t170 114t207.5 42.5q124 0 220.5 -59t154.5 -161zM601 113q160 0 256 114.5
t96 284.5q0 172 -96.5 286t-255.5 114q-163 0 -278 -117t-115 -283t116 -282.5t277 -116.5z" />
    <glyph glyph-name="uni01CF" unicode="&#x1cf;" horiz-adv-x="450" 
d="M146 1546l-197 295h95l181 -208l177 208h97l-196 -295h-157zM154 0v1434h143v-1434h-143z" />
    <glyph glyph-name="uni01D0" unicode="&#x1d0;" horiz-adv-x="389" 
d="M116 1137l-198 295h95l182 -208l177 208h96l-196 -295h-156zM123 1024h143v-1024h-143v1024z" />
    <glyph glyph-name="uni01D1" unicode="&#x1d1;" horiz-adv-x="1576" 
d="M710 1546l-198 295h95l181 -208l178 208h96l-196 -295h-156zM788 -27q-143 0 -274 59t-225.5 158.5t-150.5 237.5t-56 289t56 288.5t150.5 237t225.5 158.5t274 59q191 0 354 -99.5t258 -270.5t95 -373q0 -151 -56 -289t-151 -237.5t-226 -158.5t-274 -59zM788 117
q153 0 283.5 81.5t205.5 219.5t75 299q0 162 -76 300t-206 219t-282 81q-153 0 -283 -81.5t-205 -219.5t-75 -299q0 -162 75.5 -300.5t205.5 -219t282 -80.5z" />
    <glyph glyph-name="uni01D2" unicode="&#x1d2;" horiz-adv-x="1146" 
d="M495 1137l-198 295h95l181 -208l178 208h96l-196 -295h-156zM573 -27q-139 0 -257 72.5t-186.5 196.5t-68.5 270q0 147 68.5 271.5t186.5 197t257 72.5t257 -72.5t186.5 -197t68.5 -271.5q0 -146 -68.5 -270t-186.5 -196.5t-257 -72.5zM573 117q154 0 261.5 117
t107.5 278q0 162 -108 279.5t-261 117.5q-155 0 -261.5 -117t-106.5 -280q0 -165 108 -280t260 -115z" />
    <glyph glyph-name="uni01D3" unicode="&#x1d3;" horiz-adv-x="1357" 
d="M600 1546l-198 295h96l181 -208l177 208h96l-195 -295h-157zM679 -27q-126 0 -231.5 49t-176 133.5t-109.5 198.5t-39 244v836h143v-836q0 -133 47 -241t142.5 -174t223.5 -66q130 0 225.5 66.5t141.5 174t46 240.5v836h143v-836q0 -130 -39 -244t-109.5 -198.5
t-176 -133.5t-231.5 -49z" />
    <glyph glyph-name="uni01D4" unicode="&#x1d4;" horiz-adv-x="1056" 
d="M463 1138l-198 295h95l182 -208l177 208h96l-195 -295h-157zM82 392v632h143v-603q0 -126 89 -214.5t214 -88.5t213.5 88.5t88.5 214.5v603h144l1 -1024h-144l-1 143q-56 -79 -142.5 -124.5t-186.5 -45.5q-173 0 -296 123t-123 296z" />
    <glyph glyph-name="uni01D5" unicode="&#x1d5;" horiz-adv-x="1357" 
d="M333 1942h692v-116h-692v116zM519 1517q-36 0 -60.5 22.5t-24.5 57.5q0 34 25 58.5t60 24.5q34 0 58 -24.5t24 -58.5q0 -35 -24 -57.5t-58 -22.5zM841 1517q-36 0 -60 22.5t-24 57.5q0 34 24.5 58.5t59.5 24.5q34 0 58.5 -24.5t24.5 -58.5q0 -35 -24.5 -57.5t-58.5 -22.5
zM679 -27q-126 0 -231.5 49t-176 133.5t-109.5 198.5t-39 244v836h143v-836q0 -133 47 -241t142.5 -174t223.5 -66q130 0 225.5 66.5t141.5 174t46 240.5v836h143v-836q0 -130 -39 -244t-109.5 -198.5t-176 -133.5t-231.5 -49z" />
    <glyph glyph-name="uni01D6" unicode="&#x1d6;" horiz-adv-x="1056" 
d="M196 1533h692v-116h-692v116zM382 1108q-36 0 -60.5 23t-24.5 58q0 34 25 58.5t60 24.5q34 0 58 -24.5t24 -58.5q0 -35 -24 -58t-58 -23zM703 1108q-35 0 -59 23t-24 58q0 34 24 58.5t59 24.5q34 0 58.5 -24.5t24.5 -58.5q0 -35 -24.5 -58t-58.5 -23zM82 392v632h143
v-603q0 -126 89 -214.5t214 -88.5t213.5 88.5t88.5 214.5v603h144l1 -1024h-144l-1 143q-56 -79 -142.5 -124.5t-186.5 -45.5q-173 0 -296 123t-123 296z" />
    <glyph glyph-name="uni01D7" unicode="&#x1d7;" horiz-adv-x="1357" 
d="M644 1764l82 295h143l-129 -295h-96zM519 1517q-36 0 -60.5 22.5t-24.5 57.5q0 34 25 58.5t60 24.5q34 0 58 -24.5t24 -58.5q0 -35 -24 -57.5t-58 -22.5zM841 1517q-36 0 -60 22.5t-24 57.5q0 34 24.5 58.5t59.5 24.5q34 0 58.5 -24.5t24.5 -58.5q0 -35 -24.5 -57.5
t-58.5 -22.5zM679 -27q-126 0 -231.5 49t-176 133.5t-109.5 198.5t-39 244v836h143v-836q0 -133 47 -241t142.5 -174t223.5 -66q130 0 225.5 66.5t141.5 174t46 240.5v836h143v-836q0 -130 -39 -244t-109.5 -198.5t-176 -133.5t-231.5 -49z" />
    <glyph glyph-name="uni01D8" unicode="&#x1d8;" horiz-adv-x="1056" 
d="M507 1356l82 295h143l-129 -295h-96zM382 1108q-36 0 -60.5 23t-24.5 58q0 34 25 58.5t60 24.5q34 0 58 -24.5t24 -58.5q0 -35 -24 -58t-58 -23zM703 1108q-35 0 -59 23t-24 58q0 34 24 58.5t59 24.5q34 0 58.5 -24.5t24.5 -58.5q0 -35 -24.5 -58t-58.5 -23zM82 392v632
h143v-603q0 -126 89 -214.5t214 -88.5t213.5 88.5t88.5 214.5v603h144l1 -1024h-144l-1 143q-56 -79 -142.5 -124.5t-186.5 -45.5q-173 0 -296 123t-123 296z" />
    <glyph glyph-name="uni01D9" unicode="&#x1d9;" horiz-adv-x="1357" 
d="M600 1764l-198 295h96l181 -208l177 208h96l-195 -295h-157zM519 1517q-36 0 -60.5 22.5t-24.5 57.5q0 34 25 58.5t60 24.5q34 0 58 -24.5t24 -58.5q0 -35 -24 -57.5t-58 -22.5zM841 1517q-36 0 -60 22.5t-24 57.5q0 34 24.5 58.5t59.5 24.5q34 0 58.5 -24.5t24.5 -58.5
q0 -35 -24.5 -57.5t-58.5 -22.5zM679 -27q-126 0 -231.5 49t-176 133.5t-109.5 198.5t-39 244v836h143v-836q0 -133 47 -241t142.5 -174t223.5 -66q130 0 225.5 66.5t141.5 174t46 240.5v836h143v-836q0 -130 -39 -244t-109.5 -198.5t-176 -133.5t-231.5 -49z" />
    <glyph glyph-name="uni01DA" unicode="&#x1da;" horiz-adv-x="1056" 
d="M463 1356l-198 295h95l182 -208l177 208h96l-195 -295h-157zM382 1108q-36 0 -60.5 23t-24.5 58q0 34 25 58.5t60 24.5q34 0 58 -24.5t24 -58.5q0 -35 -24 -58t-58 -23zM703 1108q-35 0 -59 23t-24 58q0 34 24 58.5t59 24.5q34 0 58.5 -24.5t24.5 -58.5q0 -35 -24.5 -58
t-58.5 -23zM82 392v632h143v-603q0 -126 89 -214.5t214 -88.5t213.5 88.5t88.5 214.5v603h144l1 -1024h-144l-1 143q-56 -79 -142.5 -124.5t-186.5 -45.5q-173 0 -296 123t-123 296z" />
    <glyph glyph-name="uni01DB" unicode="&#x1db;" horiz-adv-x="1357" 
d="M481 2059h144l82 -295h-96zM519 1517q-36 0 -60.5 22.5t-24.5 57.5q0 34 25 58.5t60 24.5q34 0 58 -24.5t24 -58.5q0 -35 -24 -57.5t-58 -22.5zM841 1517q-36 0 -60 22.5t-24 57.5q0 34 24.5 58.5t59.5 24.5q34 0 58.5 -24.5t24.5 -58.5q0 -35 -24.5 -57.5t-58.5 -22.5z
M679 -27q-126 0 -231.5 49t-176 133.5t-109.5 198.5t-39 244v836h143v-836q0 -133 47 -241t142.5 -174t223.5 -66q130 0 225.5 66.5t141.5 174t46 240.5v836h143v-836q0 -130 -39 -244t-109.5 -198.5t-176 -133.5t-231.5 -49z" />
    <glyph glyph-name="uni01DC" unicode="&#x1dc;" horiz-adv-x="1056" 
d="M344 1651h143l82 -295h-95zM382 1108q-36 0 -60.5 23t-24.5 58q0 34 25 58.5t60 24.5q34 0 58 -24.5t24 -58.5q0 -35 -24 -58t-58 -23zM703 1108q-35 0 -59 23t-24 58q0 34 24 58.5t59 24.5q34 0 58.5 -24.5t24.5 -58.5q0 -35 -24.5 -58t-58.5 -23zM82 392v632h143v-603
q0 -126 89 -214.5t214 -88.5t213.5 88.5t88.5 214.5v603h144l1 -1024h-144l-1 143q-56 -79 -142.5 -124.5t-186.5 -45.5q-173 0 -296 123t-123 296z" />
    <glyph glyph-name="uni01DE" unicode="&#x1de;" horiz-adv-x="1385" 
d="M346 1942h692v-116h-692v116zM532 1517q-36 0 -60.5 22.5t-24.5 57.5q0 34 25 58.5t60 24.5q34 0 58 -24.5t24 -58.5q0 -35 -24 -57.5t-58 -22.5zM854 1517q-36 0 -60 22.5t-24 57.5q0 34 24.5 58.5t59.5 24.5q34 0 58.5 -24.5t24.5 -58.5q0 -35 -24.5 -57.5t-58.5 -22.5
zM603 1434h178l523 -1434h-153l-112 307h-693l-112 -307h-152zM398 451h588l-294 806z" />
    <glyph glyph-name="uni01DF" unicode="&#x1df;" horiz-adv-x="1189" 
d="M264 1532h692v-116h-692v116zM451 1107q-36 0 -60.5 23t-24.5 58q0 34 25 58.5t60 24.5q34 0 57.5 -24.5t23.5 -58.5q0 -35 -23.5 -58t-57.5 -23zM772 1107q-36 0 -60 23t-24 58q0 34 24.5 58.5t59.5 24.5q34 0 58.5 -24.5t24.5 -58.5q0 -35 -24.5 -58t-58.5 -23z
M965 1024h143v-1024h-143l-6 190q-52 -101 -143 -159t-212 -58q-148 0 -273 73t-197.5 198t-72.5 273q0 109 42.5 208.5t114 171t170 114t207.5 42.5q124 0 220.5 -59t154.5 -161zM601 113q160 0 256 114.5t96 284.5q0 172 -96.5 286t-255.5 114q-163 0 -278 -117t-115 -283
t116 -282.5t277 -116.5z" />
    <glyph glyph-name="uni01E2" unicode="&#x1e2;" horiz-adv-x="1657" 
d="M733 1723h692v-115h-692v115zM82 0l521 1434h952v-144h-585v-502h487v-143h-487v-502h585v-143h-729v307h-480l-112 -307h-152zM398 451h428v839h-120z" />
    <glyph glyph-name="uni01E3" unicode="&#x1e3;" horiz-adv-x="1818" 
d="M476 1315h692v-116h-692v116zM341 -26q-134 0 -222 84.5t-88 213.5q0 125 84.5 213.5t220.5 88.5h397q-2 141 -92.5 238t-236.5 97q-80 0 -147 -32l-78 120q107 56 223 56q134 0 246 -70.5t174 -190.5q63 119 177.5 190t249.5 71q150 0 269 -78t182.5 -214.5t55.5 -302.5
h-867q17 -148 118.5 -244.5t242.5 -96.5q100 0 183 52.5t134 146.5l145 -33q-63 -139 -187.5 -224.5t-275.5 -85.5q-146 0 -266.5 81t-180.5 214q-62 -130 -187 -212t-274 -82zM885 573h727q-11 143 -116.5 246.5t-246.5 103.5q-142 0 -245.5 -101t-118.5 -249zM341 104
q112 0 202.5 59t139.5 155q35 62 49 141h-396q-78 0 -126.5 -51t-48.5 -127q0 -73 48 -125t132 -52z" />
    <glyph glyph-name="Gcaron" unicode="&#x1e6;" horiz-adv-x="1572" 
d="M710 1546l-198 295h95l181 -208l178 208h96l-196 -295h-156zM787 -27q-193 0 -355.5 100t-256 271.5t-93.5 373.5q0 154 57 292t153 236t226.5 155.5t271.5 57.5q165 0 311.5 -77t249.5 -218l-128 -69q-82 106 -196.5 164t-238.5 58q-152 0 -281.5 -80.5t-205.5 -219
t-76 -301.5q0 -162 76 -300t206 -218.5t283 -80.5q190 0 339.5 126t194.5 318h-387v130h554q-3 -146 -60.5 -278.5t-151.5 -229t-223 -153.5t-269 -57z" />
    <glyph glyph-name="gcaron" unicode="&#x1e7;" horiz-adv-x="1203" 
d="M523 1137l-197 295h95l181 -208l177 208h97l-196 -295h-157zM937 1024h143v-1062q0 -96 -43 -184.5t-114 -151.5t-164.5 -100.5t-191.5 -37.5q-159 0 -297.5 104t-184.5 253l132 61q28 -115 131 -194.5t219 -79.5q93 0 178 44.5t138.5 121.5t53.5 164v226
q-55 -100 -146.5 -157.5t-207.5 -57.5q-142 0 -262 72.5t-190 196.5t-70 270q0 147 70 271t190 196.5t262 72.5q117 0 208 -57.5t146 -157.5v187zM584 113q154 0 249.5 116.5t95.5 282.5q0 168 -96 284t-249 116q-157 0 -266.5 -117t-109.5 -283t110.5 -282.5t265.5 -116.5z
" />
    <glyph glyph-name="uni01E8" unicode="&#x1e8;" horiz-adv-x="1091" 
d="M467 1546l-198 295h96l181 -208l177 208h96l-195 -295h-157zM1043 0h-185l-470 644l-122 -146v-498h-143v1434h143v-713l597 713h188l-569 -677z" />
    <glyph glyph-name="uni01E9" unicode="&#x1e9;" horiz-adv-x="1005" 
d="M475 1546l-197 295h95l181 -208l177 208h96l-195 -295h-157zM923 0h-165l-287 495l-205 -245v-250h-143v1536h143v-1063l462 551h187l-347 -413z" />
    <glyph glyph-name="uni0218" unicode="&#x218;" horiz-adv-x="1249" 
d="M624 -27q-177 0 -325.5 81t-196.5 216l135 51q33 -92 144.5 -148t242.5 -56q152 0 262 73.5t110 189.5q0 196 -372 262q-95 16 -167 36t-140 53t-111.5 75t-69.5 103.5t-26 139.5q0 120 72 214t188.5 143t253.5 49q174 0 322.5 -80.5t200.5 -218.5l-136 -49
q-33 93 -144 148.5t-243 55.5q-98 1 -182.5 -31.5t-136.5 -93.5t-52 -137q0 -39 10 -70.5t26 -55t44.5 -42.5t55.5 -32t70 -25t77.5 -19t87.5 -17q86 -15 159.5 -37t140.5 -57t114 -79t74.5 -104t27.5 -131q0 -120 -72 -214t-189 -143.5t-255 -49.5zM561 -452l64 347h143
l-112 -347h-95z" />
    <glyph glyph-name="uni0219" unicode="&#x219;" horiz-adv-x="879" 
d="M439 -19q-129 3 -240 65t-148 155l124 53q24 -60 107.5 -103t169.5 -43q97 0 168 47t71 123q0 37 -16.5 64.5t-55 48t-65 30t-82.5 25.5q-18 5 -27 8q-90 24 -150.5 47.5t-113 58t-78 83t-25.5 112.5q0 135 110.5 219.5t263.5 84.5q125 0 227.5 -54.5t148.5 -144.5
l-115 -68q-27 60 -99.5 98.5t-152.5 40.5q-104 2 -175.5 -44.5t-71.5 -128.5q0 -24 5.5 -43t20.5 -33.5t28 -25t41 -21t46 -16.5t56 -17t59 -18q64 -21 109.5 -38.5t96 -45t81 -57t50.5 -71.5t19 -92q0 -134 -116 -219t-271 -80zM367 -452l63 347h143l-111 -347h-95z" />
    <glyph glyph-name="uni021A" unicode="&#x21a;" horiz-adv-x="1289" 
d="M1207 1434v-144h-491v-1290h-144v1290h-490v144h1125zM509 -452l63 347h144l-112 -347h-95z" />
    <glyph glyph-name="uni021B" unicode="&#x21b;" horiz-adv-x="706" 
d="M646 881h-245l-1 -881h-143l1 881h-185v143h185l-1 322h143l1 -322h245v-143zM194 -452l63 347h143l-111 -347h-95z" />
    <glyph glyph-name="uni022A" unicode="&#x22a;" horiz-adv-x="1576" 
d="M442 1942h693v-116h-693v116zM629 1517q-36 0 -60.5 22.5t-24.5 57.5q0 34 25 58.5t60 24.5q34 0 58 -24.5t24 -58.5q0 -35 -24 -57.5t-58 -22.5zM950 1517q-36 0 -60 22.5t-24 57.5q0 34 24.5 58.5t59.5 24.5q34 0 58.5 -24.5t24.5 -58.5q0 -35 -24.5 -57.5t-58.5 -22.5
zM788 -27q-143 0 -274 59t-225.5 158.5t-150.5 237.5t-56 289t56 288.5t150.5 237t225.5 158.5t274 59q191 0 354 -99.5t258 -270.5t95 -373q0 -151 -56 -289t-151 -237.5t-226 -158.5t-274 -59zM788 117q153 0 283.5 81.5t205.5 219.5t75 299q0 162 -76 300t-206 219
t-282 81q-153 0 -283 -81.5t-205 -219.5t-75 -299q0 -162 75.5 -300.5t205.5 -219t282 -80.5z" />
    <glyph glyph-name="uni022B" unicode="&#x22b;" horiz-adv-x="1146" 
d="M227 1532h693v-116h-693v116zM414 1107q-36 0 -60.5 23t-24.5 58q0 34 25 58.5t60 24.5q34 0 58 -24.5t24 -58.5q0 -35 -24 -58t-58 -23zM735 1107q-36 0 -60 23t-24 58q0 34 24.5 58.5t59.5 24.5q34 0 58.5 -24.5t24.5 -58.5q0 -35 -24.5 -58t-58.5 -23zM573 -27
q-139 0 -257 72.5t-186.5 196.5t-68.5 270q0 147 68.5 271.5t186.5 197t257 72.5t257 -72.5t186.5 -197t68.5 -271.5q0 -146 -68.5 -270t-186.5 -196.5t-257 -72.5zM573 117q154 0 261.5 117t107.5 278q0 162 -108 279.5t-261 117.5q-155 0 -261.5 -117t-106.5 -280
q0 -165 108 -280t260 -115z" />
    <glyph glyph-name="uni0232" unicode="&#x232;" horiz-adv-x="1231" 
d="M269 1723h693v-115h-693v115zM1001 1434h169l-483 -785v-649h-143v649l-483 785h169l385 -628z" />
    <glyph glyph-name="uni0233" unicode="&#x233;" horiz-adv-x="1057" 
d="M182 1314h692v-116h-692v116zM824 1024h152l-560 -1536h-153l187 512l-368 1024h157l282 -826z" />
    <glyph glyph-name="uni0237" unicode="&#x237;" horiz-adv-x="451" 
d="M-82 -512v143q114 0 190.5 74t76.5 184v1135h144v-1135q0 -168 -118.5 -284.5t-292.5 -116.5z" />
    <glyph glyph-name="quoteleft" unicode="&#x2bb;" horiz-adv-x="309" 
d="M61 899l112 535h95l-63 -535h-144z" />
    <glyph glyph-name="quoteleft" unicode="&#x2018;" horiz-adv-x="309" 
d="M61 899l112 535h95l-63 -535h-144z" />
    <glyph glyph-name="uni02BC" unicode="&#x2bc;" horiz-adv-x="411" 
d="M41 899l63 535h144l-112 -535h-95z" />
    <glyph glyph-name="circumflex" unicode="&#x2c6;" horiz-adv-x="578" 
d="M367 1432l197 -295h-96l-180 208l-178 -208h-96l196 295h157z" />
    <glyph glyph-name="caron" unicode="&#x2c7;" horiz-adv-x="541" 
d="M194 1137l-198 295h95l181 -208l178 208h96l-196 -295h-156z" />
    <glyph glyph-name="breve" unicode="&#x2d8;" horiz-adv-x="1171" 
d="M586 1114q-140 0 -240 100t-100 240h102q0 -98 71 -167.5t167 -69.5q98 0 167.5 69t69.5 168h103q0 -142 -100.5 -241t-239.5 -99z" />
    <glyph glyph-name="dotaccent" unicode="&#x2d9;" horiz-adv-x="984" 
d="M493 1203q-35 0 -59 23t-24 58q0 34 24 57.5t59 23.5q34 0 57.5 -23.5t23.5 -57.5q0 -35 -23 -58t-58 -23z" />
    <glyph glyph-name="ring" unicode="&#x2da;" horiz-adv-x="1143" 
d="M572 1121q-67 0 -114.5 48.5t-47.5 115.5q0 66 47.5 114t114.5 48t114.5 -48t47.5 -114q0 -68 -47.5 -116t-114.5 -48zM572 1201q34 0 58 24.5t24 59.5q0 33 -24 56.5t-58 23.5t-58 -23.5t-24 -56.5q0 -35 24 -59.5t58 -24.5z" />
    <glyph glyph-name="ogonek" unicode="&#x2db;" horiz-adv-x="1013" 
d="M493 -416q-81 1 -133.5 58t-52.5 131q0 77 55 132l173 172l76 -77l-42 -42t-36 -35.5t-29.5 -29t-24.5 -25.5t-18.5 -20.5t-15 -18.5t-10 -15.5t-7.5 -15t-3.5 -14t-1.5 -15.5q0 -30 20.5 -53t54.5 -24q41 0 73 29.5t32 74.5h104q0 -89 -62.5 -150.5t-151.5 -61.5z" />
    <glyph glyph-name="tilde" unicode="&#x2dc;" horiz-adv-x="1224" 
d="M779 1170q-42 0 -110.5 40.5t-129 77t-89.5 30.5q-28 -6 -42.5 -34t-5.5 -66l-97 -27q-30 88 17 159.5t138 71.5q43 0 111.5 -37t130.5 -74t89 -37q32 0 45.5 35t2.5 65l97 31q30 -92 -18.5 -163.5t-138.5 -71.5z" />
    <glyph glyph-name="hungarumlaut" unicode="&#x2dd;" horiz-adv-x="915" 
d="M485 1137l82 295h144l-129 -295h-97zM205 1137l82 295h143l-129 -295h-96z" />
    <glyph glyph-name="gravecomb" unicode="&#x300;" horiz-adv-x="0" 
d="M246 1432h143l82 -295h-95z" />
    <glyph glyph-name="acutecomb" unicode="&#x301;" horiz-adv-x="0" 
d="M300 1137l82 295h143l-129 -295h-96z" />
    <glyph glyph-name="uni0302" unicode="&#x302;" horiz-adv-x="0" 
d="M367 1432l197 -295h-96l-180 208l-178 -208h-96l196 295h157z" />
    <glyph glyph-name="tildecomb" unicode="&#x303;" horiz-adv-x="0" 
d="M793 1158q-42 0 -111 40.5t-129.5 77t-89.5 30.5q-28 -6 -42 -34.5t-5 -66.5l-98 -26q-30 88 17 159.5t138 71.5q43 0 111.5 -37t130.5 -74t89 -37q32 0 45.5 35t2.5 65l97 31q30 -92 -18 -163.5t-138 -71.5z" />
    <glyph glyph-name="uni0304" unicode="&#x304;" horiz-adv-x="0" 
d="M268 1314h693v-116h-693v116z" />
    <glyph glyph-name="uni0306" unicode="&#x306;" horiz-adv-x="0" 
d="M586 1114q-140 0 -240 100t-100 240h102q0 -98 71 -167.5t167 -69.5q98 0 167.5 69t69.5 168h103q0 -142 -100.5 -241t-239.5 -99z" />
    <glyph glyph-name="uni0307" unicode="&#x307;" horiz-adv-x="0" 
d="M493 1203q-35 0 -59 23t-24 58q0 34 24 57.5t59 23.5q34 0 57.5 -23.5t23.5 -57.5q0 -35 -23 -58t-58 -23z" />
    <glyph glyph-name="uni0308" unicode="&#x308;" horiz-adv-x="0" 
d="M495 1107q-36 0 -60.5 23t-24.5 58q0 34 25 58.5t60 24.5q34 0 58 -24.5t24 -58.5q0 -35 -24 -58t-58 -23zM816 1107q-36 0 -60 23t-24 58q0 34 24.5 58.5t59.5 24.5q34 0 58.5 -24.5t24.5 -58.5q0 -35 -24.5 -58t-58.5 -23z" />
    <glyph glyph-name="uni030A" unicode="&#x30a;" horiz-adv-x="0" 
d="M572 1121q-67 0 -114.5 48.5t-47.5 115.5q0 66 47.5 114t114.5 48t114.5 -48t47.5 -114q0 -68 -47.5 -116t-114.5 -48zM572 1201q34 0 58 24.5t24 59.5q0 33 -24 56.5t-58 23.5t-58 -23.5t-24 -56.5q0 -35 24 -59.5t58 -24.5z" />
    <glyph glyph-name="uni030B" unicode="&#x30b;" horiz-adv-x="0" 
d="M485 1137l82 295h144l-129 -295h-97zM205 1137l82 295h143l-129 -295h-96z" />
    <glyph glyph-name="uni030C" unicode="&#x30c;" horiz-adv-x="0" 
d="M194 1137l-198 295h95l181 -208l178 208h96l-196 -295h-156z" />
    <glyph glyph-name="dotbelowcomb" unicode="&#x323;" horiz-adv-x="0" 
d="M493 -403q-36 0 -59.5 22.5t-23.5 57.5q0 34 24 57.5t59 23.5q34 0 57.5 -23.5t23.5 -57.5q0 -35 -23 -57.5t-58 -22.5z" />
    <glyph glyph-name="uni0326" unicode="&#x326;" horiz-adv-x="0" 
d="M410 -452l63 347h143l-111 -347h-95z" />
    <glyph glyph-name="uni0327" unicode="&#x327;" horiz-adv-x="0" 
d="M609 -376q-64 -18 -122.5 16t-75.5 99l89 23q7 -28 32 -42.5t54 -6.5q28 7 43 32.5t7 54.5q-7 28 -32 42t-55 8l-97 -13l126 219l79 -46l-43 -75q39 -10 69.5 -39.5t41.5 -71.5q18 -65 -16.5 -124t-99.5 -76z" />
    <glyph glyph-name="uni0328" unicode="&#x328;" horiz-adv-x="0" 
d="M493 -416q-81 1 -133.5 58t-52.5 131q0 77 55 132l173 172l76 -77l-42 -42t-36 -35.5t-29.5 -29t-24.5 -25.5t-18.5 -20.5t-15 -18.5t-10 -15.5t-7.5 -15t-3.5 -14t-1.5 -15.5q0 -30 20.5 -53t54.5 -24q41 0 73 29.5t32 74.5h104q0 -89 -62.5 -150.5t-151.5 -61.5z" />
    <glyph glyph-name="uni03BC" unicode="&#x3bc;" horiz-adv-x="1082" 
d="M82 -442v1466h143v-545q0 -152 93 -259t228 -107q132 0 221.5 106.5t89.5 259.5v545h143v-1024h-143v172q-59 -95 -144 -147.5t-186 -52.5q-93 0 -171.5 46t-130.5 124v-584h-143z" />
    <glyph glyph-name="uni1E04" unicode="&#x1e04;" horiz-adv-x="1141" 
d="M123 0v1434h484q162 0 269.5 -98t107.5 -266q0 -96 -50 -178t-117 -101q81 -21 138 -86t81 -142t24 -159q0 -179 -112.5 -291.5t-276.5 -112.5h-548zM266 845h329q105 0 175.5 60.5t70.5 165.5q0 113 -69.5 174t-176.5 61h-329v-461zM266 128h393q112 0 191 85.5
t79 212.5q0 115 -80 204t-190 89h-393v-591zM572 -403q-36 0 -59.5 22.5t-23.5 57.5q0 34 24 57.5t59 23.5q34 0 58 -23.5t24 -57.5q0 -35 -23.5 -57.5t-58.5 -22.5z" />
    <glyph glyph-name="uni1E05" unicode="&#x1e05;" horiz-adv-x="1231" 
d="M631 1053q147 0 271 -72.5t196 -196.5t72 -271t-72 -271t-196 -196.5t-271 -72.5q-123 0 -216.5 58.5t-148.5 159.5v-191h-143v1536h143v-701q55 101 148.5 159.5t216.5 58.5zM630 114q163 0 278.5 117t115.5 282q0 167 -116.5 283.5t-277.5 116.5q-159 0 -255.5 -115.5
t-96.5 -284.5q0 -171 97 -285t255 -114zM616 -403q-35 0 -58.5 22.5t-23.5 57.5t23.5 58t58.5 23q34 0 58 -23.5t24 -57.5q0 -35 -23.5 -57.5t-58.5 -22.5z" />
    <glyph glyph-name="uni1E0C" unicode="&#x1e0c;" horiz-adv-x="1375" 
d="M123 0v1434h474q146 0 278.5 -57t228.5 -153t153 -228.5t57 -278.5t-57 -278.5t-153 -228.5t-228.5 -153t-278.5 -57h-474zM266 143h331q155 0 287 77t209 209t77 288q0 116 -45.5 222.5t-122.5 183t-183 122t-222 45.5h-331v-1147zM682 -403q-36 0 -59.5 22.5
t-23.5 57.5q0 34 24 57.5t59 23.5q34 0 58 -23.5t24 -57.5q0 -35 -23.5 -57.5t-58.5 -22.5z" />
    <glyph glyph-name="uni1E0D" unicode="&#x1e0d;" horiz-adv-x="1231" 
d="M966 1536h143v-1536h-143v191q-55 -102 -149 -160t-217 -58q-146 0 -270 72.5t-196.5 196.5t-72.5 270q0 147 72.5 271t196.5 196.5t270 72.5q123 0 217 -58t149 -159v701zM601 113q160 0 256 114.5t96 284.5q0 172 -96.5 286t-255.5 114q-163 0 -278 -117t-115 -283
t116 -282.5t277 -116.5zM624 -403q-36 0 -59.5 22.5t-23.5 57.5q0 34 24 57.5t59 23.5q34 0 58 -23.5t24 -57.5q0 -35 -23.5 -57.5t-58.5 -22.5z" />
    <glyph glyph-name="uni1E20" unicode="&#x1e20;" horiz-adv-x="1572" 
d="M442 1723h693v-115h-693v115zM787 -27q-193 0 -355.5 100t-256 271.5t-93.5 373.5q0 154 57 292t153 236t226.5 155.5t271.5 57.5q165 0 311.5 -77t249.5 -218l-128 -69q-82 106 -196.5 164t-238.5 58q-152 0 -281.5 -80.5t-205.5 -219t-76 -301.5q0 -162 76 -300
t206 -218.5t283 -80.5q190 0 339.5 126t194.5 318h-387v130h554q-3 -146 -60.5 -278.5t-151.5 -229t-223 -153.5t-269 -57z" />
    <glyph glyph-name="uni1E21" unicode="&#x1e21;" horiz-adv-x="1203" 
d="M256 1314h692v-116h-692v116zM937 1024h143v-1062q0 -96 -43 -184.5t-114 -151.5t-164.5 -100.5t-191.5 -37.5q-159 0 -297.5 104t-184.5 253l132 61q28 -115 131 -194.5t219 -79.5q93 0 178 44.5t138.5 121.5t53.5 164v226q-55 -100 -146.5 -157.5t-207.5 -57.5
q-142 0 -262 72.5t-190 196.5t-70 270q0 147 70 271t190 196.5t262 72.5q117 0 208 -57.5t146 -157.5v187zM584 113q154 0 249.5 116.5t95.5 282.5q0 168 -96 284t-249 116q-157 0 -266.5 -117t-109.5 -283t110.5 -282.5t265.5 -116.5z" />
    <glyph glyph-name="uni1E24" unicode="&#x1e24;" horiz-adv-x="1285" 
d="M1019 1434h143v-1434h-143v696h-753v-696h-143v1434h143v-594h753v594zM643 -403q-36 0 -59.5 22.5t-23.5 57.5q0 34 24 57.5t59 23.5q34 0 58 -23.5t24 -57.5q0 -35 -23.5 -57.5t-58.5 -22.5z" />
    <glyph glyph-name="uni1E25" unicode="&#x1e25;" 
d="M1016 634v-634h-144v605q0 126 -89 214.5t-214 88.5t-214 -88.5t-89 -214.5v-605h-143v1536h143v-653q56 79 143.5 124.5t187.5 45.5q173 0 296 -123t123 -296zM584 -403q-36 0 -59.5 22.5t-23.5 57.5q0 34 24 57.5t59 23.5q34 0 58 -23.5t24 -57.5q0 -35 -23.5 -57.5
t-58.5 -22.5z" />
    <glyph glyph-name="uni1E2E" unicode="&#x1e2e;" horiz-adv-x="450" 
d="M190 1764l82 295h144l-129 -295h-97zM66 1517q-36 0 -60.5 22.5t-24.5 57.5q0 34 25 58.5t60 24.5q34 0 57.5 -24.5t23.5 -58.5q0 -35 -23.5 -57.5t-57.5 -22.5zM387 1517q-36 0 -60 22.5t-24 57.5q0 34 24.5 58.5t59.5 24.5q34 0 58.5 -24.5t24.5 -58.5
q0 -35 -24.5 -57.5t-58.5 -22.5zM154 0v1434h143v-1434h-143z" />
    <glyph glyph-name="uni1E2F" unicode="&#x1e2f;" horiz-adv-x="389" 
d="M160 1355l82 295h143l-129 -295h-96zM35 1107q-36 0 -60.5 23t-24.5 58q0 34 25 58.5t60 24.5q34 0 58 -24.5t24 -58.5q0 -35 -24 -58t-58 -23zM356 1107q-36 0 -60 23t-24 58q0 34 24.5 58.5t59.5 24.5q34 0 58.5 -24.5t24.5 -58.5q0 -35 -24.5 -58t-58.5 -23zM123 1024
h143v-1024h-143v1024z" />
    <glyph glyph-name="uni1E36" unicode="&#x1e36;" horiz-adv-x="1027" 
d="M123 0v1434h143v-1291h659v-143h-802zM525 -403q-36 0 -59.5 22.5t-23.5 57.5q0 34 24 57.5t59 23.5q34 0 58 -23.5t24 -57.5q0 -35 -23.5 -57.5t-58.5 -22.5z" />
    <glyph glyph-name="uni1E37" unicode="&#x1e37;" horiz-adv-x="389" 
d="M123 0v1536h143v-1536h-143zM196 -403q-36 0 -59.5 22.5t-23.5 57.5q0 34 24 57.5t59 23.5q34 0 58 -23.5t24 -57.5q0 -35 -23.5 -57.5t-58.5 -22.5z" />
    <glyph glyph-name="uni1E3E" unicode="&#x1e3e;" horiz-adv-x="1811" 
d="M871 1546l82 295h144l-129 -295h-97zM123 0l277 1434h105l401 -1055l400 1055h104l279 -1434h-147l-212 1097l-379 -1003h-92l-379 1003l-212 -1097h-145z" />
    <glyph glyph-name="uni1E3F" unicode="&#x1e3f;" horiz-adv-x="1819" 
d="M924 1137l82 295h143l-129 -295h-96zM123 0v1024h143v-141q57 79 143.5 124.5t186.5 45.5q114 0 210 -56.5t152 -151.5q55 95 151 151.5t210 56.5q173 0 296 -123t123 -296v-634h-144v602q0 124 -87 215t-209 91q-124 0 -210 -87.5t-86 -218.5v-602h-143v602
q0 131 -86.5 218.5t-210.5 87.5q-122 0 -209 -91t-87 -215v-602h-143z" />
    <glyph glyph-name="uni1E40" unicode="&#x1e40;" horiz-adv-x="1811" 
d="M907 1613q-35 0 -59 23t-24 58q0 34 24 57.5t59 23.5q34 0 58 -23.5t24 -57.5q0 -35 -23.5 -58t-58.5 -23zM123 0l277 1434h105l401 -1055l400 1055h104l279 -1434h-147l-212 1097l-379 -1003h-92l-379 1003l-212 -1097h-145z" />
    <glyph glyph-name="uni1E41" unicode="&#x1e41;" horiz-adv-x="1819" 
d="M959 1203q-35 0 -58.5 23t-23.5 58t23.5 58t58.5 23q34 0 58 -23.5t24 -57.5q0 -35 -23.5 -58t-58.5 -23zM123 0v1024h143v-141q57 79 143.5 124.5t186.5 45.5q114 0 210 -56.5t152 -151.5q55 95 151 151.5t210 56.5q173 0 296 -123t123 -296v-634h-144v602
q0 124 -87 215t-209 91q-124 0 -210 -87.5t-86 -218.5v-602h-143v602q0 131 -86.5 218.5t-210.5 87.5q-122 0 -209 -91t-87 -215v-602h-143z" />
    <glyph glyph-name="uni1E42" unicode="&#x1e42;" horiz-adv-x="1811" 
d="M123 0l277 1434h105l401 -1055l400 1055h104l279 -1434h-147l-212 1097l-379 -1003h-92l-379 1003l-212 -1097h-145zM907 -403q-36 0 -59.5 22.5t-23.5 57.5q0 34 24 57.5t59 23.5q34 0 58 -23.5t24 -57.5q0 -35 -23.5 -57.5t-58.5 -22.5z" />
    <glyph glyph-name="uni1E43" unicode="&#x1e43;" horiz-adv-x="1819" 
d="M123 0v1024h143v-141q57 79 143.5 124.5t186.5 45.5q114 0 210 -56.5t152 -151.5q55 95 151 151.5t210 56.5q173 0 296 -123t123 -296v-634h-144v602q0 124 -87 215t-209 91q-124 0 -210 -87.5t-86 -218.5v-602h-143v602q0 131 -86.5 218.5t-210.5 87.5q-122 0 -209 -91
t-87 -215v-602h-143zM932 -403q-36 0 -59.5 22.5t-23.5 57.5q0 34 24 57.5t59 23.5q34 0 58 -23.5t24 -57.5q0 -35 -23.5 -57.5t-58.5 -22.5z" />
    <glyph glyph-name="uni1E44" unicode="&#x1e44;" horiz-adv-x="1301" 
d="M651 1613q-35 0 -59 23t-24 58q0 34 24 57.5t59 23.5q34 0 58 -23.5t24 -57.5q0 -35 -23.5 -58t-58.5 -23zM123 0v1434h156l756 -1175v1175h144v-1434h-155l-758 1175v-1175h-143z" />
    <glyph glyph-name="uni1E45" unicode="&#x1e45;" 
d="M578 1203q-35 0 -59 23t-24 58q0 34 24 57.5t59 23.5q34 0 57.5 -23.5t23.5 -57.5q0 -35 -23 -58t-58 -23zM1016 634v-634h-144v605q0 126 -89 214.5t-214 88.5t-214 -88.5t-89 -214.5v-605h-143v1024h143v-141q56 79 143.5 124.5t187.5 45.5q173 0 296 -123t123 -296z
" />
    <glyph glyph-name="uni1E46" unicode="&#x1e46;" horiz-adv-x="1301" 
d="M123 0v1434h156l756 -1175v1175h144v-1434h-155l-758 1175v-1175h-143zM651 -403q-36 0 -59.5 22.5t-23.5 57.5q0 34 24 57.5t59 23.5q34 0 58 -23.5t24 -57.5q0 -35 -23.5 -57.5t-58.5 -22.5z" />
    <glyph glyph-name="uni1E47" unicode="&#x1e47;" 
d="M1016 634v-634h-144v605q0 126 -89 214.5t-214 88.5t-214 -88.5t-89 -214.5v-605h-143v1024h143v-141q56 79 143.5 124.5t187.5 45.5q173 0 296 -123t123 -296zM570 -403q-36 0 -59.5 22.5t-23.5 57.5q0 34 24 57.5t59 23.5q34 0 58 -23.5t24 -57.5q0 -35 -23.5 -57.5
t-58.5 -22.5z" />
    <glyph glyph-name="uni1E62" unicode="&#x1e62;" horiz-adv-x="1249" 
d="M624 -27q-177 0 -325.5 81t-196.5 216l135 51q33 -92 144.5 -148t242.5 -56q152 0 262 73.5t110 189.5q0 196 -372 262q-95 16 -167 36t-140 53t-111.5 75t-69.5 103.5t-26 139.5q0 120 72 214t188.5 143t253.5 49q174 0 322.5 -80.5t200.5 -218.5l-136 -49
q-33 93 -144 148.5t-243 55.5q-98 1 -182.5 -31.5t-136.5 -93.5t-52 -137q0 -39 10 -70.5t26 -55t44.5 -42.5t55.5 -32t70 -25t77.5 -19t87.5 -17q86 -15 159.5 -37t140.5 -57t114 -79t74.5 -104t27.5 -131q0 -120 -72 -214t-189 -143.5t-255 -49.5zM697 -403
q-36 0 -59.5 22.5t-23.5 57.5q0 34 24 57.5t59 23.5q34 0 58 -23.5t24 -57.5q0 -35 -23.5 -57.5t-58.5 -22.5z" />
    <glyph glyph-name="uni1E63" unicode="&#x1e63;" horiz-adv-x="879" 
d="M439 -19q-129 3 -240 65t-148 155l124 53q24 -60 107.5 -103t169.5 -43q97 0 168 47t71 123q0 37 -16.5 64.5t-55 48t-65 30t-82.5 25.5q-18 5 -27 8q-90 24 -150.5 47.5t-113 58t-78 83t-25.5 112.5q0 135 110.5 219.5t263.5 84.5q125 0 227.5 -54.5t148.5 -144.5
l-115 -68q-27 60 -99.5 98.5t-152.5 40.5q-104 2 -175.5 -44.5t-71.5 -128.5q0 -24 5.5 -43t20.5 -33.5t28 -25t41 -21t46 -16.5t56 -17t59 -18q64 -21 109.5 -38.5t96 -45t81 -57t50.5 -71.5t19 -92q0 -134 -116 -219t-271 -80zM503 -403q-36 0 -59.5 22.5t-23.5 57.5
q0 34 24 57.5t59 23.5q34 0 58 -23.5t24 -57.5q0 -35 -23.5 -57.5t-58.5 -22.5z" />
    <glyph glyph-name="uni1E6C" unicode="&#x1e6c;" horiz-adv-x="1289" 
d="M1207 1434v-144h-491v-1290h-144v1290h-490v144h1125zM645 -403q-36 0 -59.5 22.5t-23.5 57.5q0 34 24 57.5t59 23.5q34 0 58 -23.5t24 -57.5q0 -35 -23.5 -57.5t-58.5 -22.5z" />
    <glyph glyph-name="uni1E6D" unicode="&#x1e6d;" horiz-adv-x="706" 
d="M646 881h-245l-1 -881h-143l1 881h-185v143h185l-1 322h143l1 -322h245v-143zM330 -403q-36 0 -59.5 22.5t-23.5 57.5q0 34 24 57.5t59 23.5q34 0 58 -23.5t24 -57.5q0 -35 -23.5 -57.5t-58.5 -22.5z" />
    <glyph glyph-name="Wgrave" unicode="&#x1e80;" horiz-adv-x="1728" 
d="M667 1841h143l82 -295h-95zM415 0l-367 1434h148l303 -1187l302 1187h127l303 -1187l302 1187h147l-364 -1434h-170l-282 1101l-281 -1101h-168z" />
    <glyph glyph-name="wgrave" unicode="&#x1e81;" horiz-adv-x="1664" 
d="M635 1432h143l82 -295h-95zM552 0h-148l-343 1024h141l278 -825l277 825h151l277 -825l276 825h142l-343 -1024h-149l-281 834z" />
    <glyph glyph-name="Wacute" unicode="&#x1e82;" horiz-adv-x="1728" 
d="M829 1546l82 295h144l-129 -295h-97zM415 0l-367 1434h148l303 -1187l302 1187h127l303 -1187l302 1187h147l-364 -1434h-170l-282 1101l-281 -1101h-168z" />
    <glyph glyph-name="wacute" unicode="&#x1e83;" horiz-adv-x="1664" 
d="M798 1137l82 295h143l-129 -295h-96zM552 0h-148l-343 1024h141l278 -825l277 825h151l277 -825l276 825h142l-343 -1024h-149l-281 834z" />
    <glyph glyph-name="Wdieresis" unicode="&#x1e84;" horiz-adv-x="1728" 
d="M705 1517q-36 0 -60.5 22.5t-24.5 57.5q0 34 25 58.5t60 24.5q34 0 57.5 -24.5t23.5 -58.5q0 -35 -23.5 -57.5t-57.5 -22.5zM1026 1517q-36 0 -60 22.5t-24 57.5q0 34 24.5 58.5t59.5 24.5q34 0 58.5 -24.5t24.5 -58.5q0 -35 -24.5 -57.5t-58.5 -22.5zM415 0l-367 1434
h148l303 -1187l302 1187h127l303 -1187l302 1187h147l-364 -1434h-170l-282 1101l-281 -1101h-168z" />
    <glyph glyph-name="wdieresis" unicode="&#x1e85;" horiz-adv-x="1664" 
d="M673 1107q-36 0 -60.5 23t-24.5 58q0 34 25 58.5t60 24.5q34 0 58 -24.5t24 -58.5q0 -35 -24 -58t-58 -23zM994 1107q-36 0 -60 23t-24 58q0 34 24.5 58.5t59.5 24.5q34 0 58.5 -24.5t24.5 -58.5q0 -35 -24.5 -58t-58.5 -23zM552 0h-148l-343 1024h141l278 -825l277 825
h151l277 -825l276 825h142l-343 -1024h-149l-281 834z" />
    <glyph glyph-name="uni1E92" unicode="&#x1e92;" horiz-adv-x="1323" 
d="M82 0v143l968 1147h-968v144h1159v-144l-968 -1147h968v-143h-1159zM663 -403q-36 0 -59.5 22.5t-23.5 57.5q0 34 24 57.5t59 23.5q34 0 57.5 -23.5t23.5 -57.5q0 -35 -23 -57.5t-58 -22.5z" />
    <glyph glyph-name="uni1E93" unicode="&#x1e93;" horiz-adv-x="1038" 
d="M956 881l-671 -738h671v-143h-874v143l672 738h-672v143h874v-143zM520 -403q-36 0 -59.5 22.5t-23.5 57.5q0 34 24 57.5t59 23.5q34 0 58 -23.5t24 -57.5q0 -35 -23.5 -57.5t-58.5 -22.5z" />
    <glyph glyph-name="uni1E97" unicode="&#x1e97;" horiz-adv-x="706" 
d="M169 1428q-36 0 -60.5 23t-24.5 58q0 34 25 58.5t60 24.5q34 0 58 -24.5t24 -58.5q0 -35 -24 -58t-58 -23zM490 1428q-35 0 -59 23t-24 58q0 34 24 58.5t59 24.5q34 0 58.5 -24.5t24.5 -58.5q0 -35 -24.5 -58t-58.5 -23zM646 881h-245l-1 -881h-143l1 881h-185v143h185
l-1 322h143l1 -322h245v-143z" />
    <glyph glyph-name="uni1E9E" unicode="&#x1e9e;" horiz-adv-x="1156" 
d="M123 0v974q0 124 61.5 230t167 167.5t229.5 61.5q102 0 187 -33t138 -98.5t53 -150.5q0 -26 -8 -51t-33.5 -63.5t-49 -69t-77.5 -100t-96 -125.5q97 13 190 -31.5t151.5 -131t58.5 -188.5q0 -93 -40 -169t-106 -123.5t-145 -73t-161 -25.5h-69l-34 128h92q46 0 92 9.5
t89.5 30.5t76.5 51t53 75t20 99q0 66 -30.5 118t-80.5 82t-106.5 45.5t-114.5 15.5h-73l-3 60q-2 31 37.5 95t88 125t88.5 124.5t40 94.5q-1 80 -70.5 115.5t-179.5 35.5q-120 0 -206.5 -88.5t-86.5 -213.5v-1002h-143z" />
    <glyph glyph-name="uni1EA0" unicode="&#x1ea0;" horiz-adv-x="1385" 
d="M603 1434h178l523 -1434h-153l-112 307h-693l-112 -307h-152zM398 451h588l-294 806zM693 -403q-36 0 -59.5 22.5t-23.5 57.5q0 34 24 57.5t59 23.5q34 0 58 -23.5t24 -57.5q0 -35 -23.5 -57.5t-58.5 -22.5z" />
    <glyph glyph-name="uni1EA1" unicode="&#x1ea1;" horiz-adv-x="1189" 
d="M965 1024h143v-1024h-143l-6 190q-52 -101 -143 -159t-212 -58q-148 0 -273 73t-197.5 198t-72.5 273q0 109 42.5 208.5t114 171t170 114t207.5 42.5q124 0 220.5 -59t154.5 -161zM601 113q160 0 256 114.5t96 284.5q0 172 -96.5 286t-255.5 114q-163 0 -278 -117
t-115 -283t116 -282.5t277 -116.5zM611 -403q-36 0 -59.5 22.5t-23.5 57.5q0 34 24 57.5t59 23.5q34 0 58 -23.5t24 -57.5q0 -35 -23.5 -57.5t-58.5 -22.5z" />
    <glyph glyph-name="uni1EAC" unicode="&#x1eac;" horiz-adv-x="1385" 
d="M771 1841l198 -295h-97l-180 208l-178 -208h-95l195 295h157zM603 1434h178l523 -1434h-153l-112 307h-693l-112 -307h-152zM398 451h588l-294 806zM693 -403q-36 0 -59.5 22.5t-23.5 57.5q0 34 24 57.5t59 23.5q34 0 58 -23.5t24 -57.5q0 -35 -23.5 -57.5t-58.5 -22.5z
" />
    <glyph glyph-name="uni1EAD" unicode="&#x1ead;" horiz-adv-x="1189" 
d="M689 1432l198 -295h-96l-181 208l-178 -208h-95l195 295h157zM965 1024h143v-1024h-143l-6 190q-52 -101 -143 -159t-212 -58q-148 0 -273 73t-197.5 198t-72.5 273q0 109 42.5 208.5t114 171t170 114t207.5 42.5q124 0 220.5 -59t154.5 -161zM601 113q160 0 256 114.5
t96 284.5q0 172 -96.5 286t-255.5 114q-163 0 -278 -117t-115 -283t116 -282.5t277 -116.5zM611 -403q-36 0 -59.5 22.5t-23.5 57.5q0 34 24 57.5t59 23.5q34 0 58 -23.5t24 -57.5q0 -35 -23.5 -57.5t-58.5 -22.5z" />
    <glyph glyph-name="uni1EB6" unicode="&#x1eb6;" horiz-adv-x="1385" 
d="M692 1524q-140 0 -240 100t-100 240h103q0 -99 70.5 -168.5t166.5 -69.5q98 0 168 69.5t70 168.5h102q0 -142 -100.5 -241t-239.5 -99zM603 1434h178l523 -1434h-153l-112 307h-693l-112 -307h-152zM398 451h588l-294 806zM693 -403q-36 0 -59.5 22.5t-23.5 57.5
q0 34 24 57.5t59 23.5q34 0 58 -23.5t24 -57.5q0 -35 -23.5 -57.5t-58.5 -22.5z" />
    <glyph glyph-name="uni1EB7" unicode="&#x1eb7;" horiz-adv-x="1189" 
d="M610 1114q-140 0 -240 100t-100 240h103q0 -99 70.5 -168t166.5 -69q98 0 168 69t70 168h102q0 -142 -100.5 -241t-239.5 -99zM965 1024h143v-1024h-143l-6 190q-52 -101 -143 -159t-212 -58q-148 0 -273 73t-197.5 198t-72.5 273q0 109 42.5 208.5t114 171t170 114
t207.5 42.5q124 0 220.5 -59t154.5 -161zM601 113q160 0 256 114.5t96 284.5q0 172 -96.5 286t-255.5 114q-163 0 -278 -117t-115 -283t116 -282.5t277 -116.5zM611 -403q-36 0 -59.5 22.5t-23.5 57.5q0 34 24 57.5t59 23.5q34 0 58 -23.5t24 -57.5q0 -35 -23.5 -57.5
t-58.5 -22.5z" />
    <glyph glyph-name="uni1EB8" unicode="&#x1eb8;" 
d="M123 0v1434h872v-144h-729v-450h603v-144h-603v-553h729v-143h-872zM550 -403q-36 0 -59.5 22.5t-23.5 57.5q0 34 24 57.5t59 23.5q34 0 58 -23.5t24 -57.5q0 -35 -23.5 -57.5t-58.5 -22.5z" />
    <glyph glyph-name="uni1EB9" unicode="&#x1eb9;" horiz-adv-x="1143" 
d="M573 -27q-139 0 -257 72.5t-186.5 196.5t-68.5 270q0 147 68.5 271.5t186.5 197t257 72.5q150 0 269.5 -78t183 -214.5t55.5 -302.5h-868q18 -147 119 -243.5t241 -97.5q101 0 184 52.5t134 146.5l145 -33q-63 -139 -187.5 -224.5t-275.5 -85.5zM209 573h728
q-11 143 -117 246.5t-247 103.5t-244 -101t-120 -249zM573 -403q-36 0 -59.5 22.5t-23.5 57.5q0 34 24 57.5t59 23.5q34 0 58 -23.5t24 -57.5q0 -35 -23.5 -57.5t-58.5 -22.5z" />
    <glyph glyph-name="uni1EBC" unicode="&#x1ebc;" 
d="M708 1568q-34 0 -84.5 25t-93 54.5t-86 51t-66.5 16.5q-28 -6 -42 -34t-5 -66l-98 -27q-30 88 17 160t138 72q34 0 85 -23.5t93.5 -51t86.5 -51t66 -23.5q32 0 45.5 35.5t2.5 65.5l97 30q30 -92 -18 -163t-138 -71zM123 0v1434h872v-144h-729v-450h603v-144h-603v-553
h729v-143h-872z" />
    <glyph glyph-name="uni1EBD" unicode="&#x1ebd;" horiz-adv-x="1143" 
d="M731 1158q-42 0 -111 40.5t-129.5 77t-89.5 30.5q-28 -6 -42 -34.5t-5 -66.5l-97 -26q-30 88 17 159.5t138 71.5q43 0 111.5 -37t130 -74t88.5 -37q32 0 46 35.5t3 64.5l97 31q30 -92 -18.5 -163.5t-138.5 -71.5zM573 -27q-139 0 -257 72.5t-186.5 196.5t-68.5 270
q0 147 68.5 271.5t186.5 197t257 72.5q150 0 269.5 -78t183 -214.5t55.5 -302.5h-868q18 -147 119 -243.5t241 -97.5q101 0 184 52.5t134 146.5l145 -33q-63 -139 -187.5 -224.5t-275.5 -85.5zM209 573h728q-11 143 -117 246.5t-247 103.5t-244 -101t-120 -249z" />
    <glyph glyph-name="uni1EC6" unicode="&#x1ec6;" 
d="M628 1841l197 -295h-96l-180 208l-178 -208h-96l196 295h157zM123 0v1434h872v-144h-729v-450h603v-144h-603v-553h729v-143h-872zM550 -403q-36 0 -59.5 22.5t-23.5 57.5q0 34 24 57.5t59 23.5q34 0 58 -23.5t24 -57.5q0 -35 -23.5 -57.5t-58.5 -22.5z" />
    <glyph glyph-name="uni1EC7" unicode="&#x1ec7;" horiz-adv-x="1143" 
d="M651 1432l198 -295h-96l-181 208l-178 -208h-95l196 295h156zM573 -27q-139 0 -257 72.5t-186.5 196.5t-68.5 270q0 147 68.5 271.5t186.5 197t257 72.5q150 0 269.5 -78t183 -214.5t55.5 -302.5h-868q18 -147 119 -243.5t241 -97.5q101 0 184 52.5t134 146.5l145 -33
q-63 -139 -187.5 -224.5t-275.5 -85.5zM209 573h728q-11 143 -117 246.5t-247 103.5t-244 -101t-120 -249zM573 -403q-36 0 -59.5 22.5t-23.5 57.5q0 34 24 57.5t59 23.5q34 0 58 -23.5t24 -57.5q0 -35 -23.5 -57.5t-58.5 -22.5z" />
    <glyph glyph-name="uni1ECA" unicode="&#x1eca;" horiz-adv-x="450" 
d="M154 0v1434h143v-1434h-143zM226 -403q-36 0 -59.5 22.5t-23.5 57.5q0 34 24 57.5t59 23.5q34 0 58 -23.5t24 -57.5q0 -35 -23.5 -57.5t-58.5 -22.5z" />
    <glyph glyph-name="uni1ECB" unicode="&#x1ecb;" horiz-adv-x="389" 
d="M196 1203q-35 0 -59 23t-24 58q0 34 24 57.5t59 23.5q34 0 58 -23.5t24 -57.5q0 -35 -23.5 -58t-58.5 -23zM123 1024h143v-1024h-143v1024zM196 -403q-36 0 -59.5 22.5t-23.5 57.5q0 34 24 57.5t59 23.5q34 0 58 -23.5t24 -57.5q0 -35 -23.5 -57.5t-58.5 -22.5z" />
    <glyph glyph-name="uni1ECC" unicode="&#x1ecc;" horiz-adv-x="1576" 
d="M788 -27q-143 0 -274 59t-225.5 158.5t-150.5 237.5t-56 289t56 288.5t150.5 237t225.5 158.5t274 59q191 0 354 -99.5t258 -270.5t95 -373q0 -151 -56 -289t-151 -237.5t-226 -158.5t-274 -59zM788 117q153 0 283.5 81.5t205.5 219.5t75 299q0 162 -76 300t-206 219
t-282 81q-153 0 -283 -81.5t-205 -219.5t-75 -299q0 -162 75.5 -300.5t205.5 -219t282 -80.5zM790 -403q-36 0 -59.5 22.5t-23.5 57.5q0 34 24 57.5t59 23.5q34 0 57.5 -23.5t23.5 -57.5q0 -35 -23 -57.5t-58 -22.5z" />
    <glyph glyph-name="uni1ECD" unicode="&#x1ecd;" horiz-adv-x="1146" 
d="M573 -27q-139 0 -257 72.5t-186.5 196.5t-68.5 270q0 147 68.5 271.5t186.5 197t257 72.5t257 -72.5t186.5 -197t68.5 -271.5q0 -146 -68.5 -270t-186.5 -196.5t-257 -72.5zM573 117q154 0 261.5 117t107.5 278q0 162 -108 279.5t-261 117.5q-155 0 -261.5 -117
t-106.5 -280q0 -165 108 -280t260 -115zM574 -403q-35 0 -58.5 22.5t-23.5 57.5t23.5 58t58.5 23q34 0 58 -23.5t24 -57.5q0 -35 -23.5 -57.5t-58.5 -22.5z" />
    <glyph glyph-name="uni1ED8" unicode="&#x1ed8;" horiz-adv-x="1576" 
d="M867 1841l198 -295h-96l-181 208l-178 -208h-95l196 295h156zM788 -27q-143 0 -274 59t-225.5 158.5t-150.5 237.5t-56 289t56 288.5t150.5 237t225.5 158.5t274 59q191 0 354 -99.5t258 -270.5t95 -373q0 -151 -56 -289t-151 -237.5t-226 -158.5t-274 -59zM788 117
q153 0 283.5 81.5t205.5 219.5t75 299q0 162 -76 300t-206 219t-282 81q-153 0 -283 -81.5t-205 -219.5t-75 -299q0 -162 75.5 -300.5t205.5 -219t282 -80.5zM790 -403q-36 0 -59.5 22.5t-23.5 57.5q0 34 24 57.5t59 23.5q34 0 57.5 -23.5t23.5 -57.5q0 -35 -23 -57.5
t-58 -22.5z" />
    <glyph glyph-name="uni1ED9" unicode="&#x1ed9;" horiz-adv-x="1146" 
d="M652 1432l198 -295h-96l-181 208l-178 -208h-95l196 295h156zM573 -27q-139 0 -257 72.5t-186.5 196.5t-68.5 270q0 147 68.5 271.5t186.5 197t257 72.5t257 -72.5t186.5 -197t68.5 -271.5q0 -146 -68.5 -270t-186.5 -196.5t-257 -72.5zM573 117q154 0 261.5 117
t107.5 278q0 162 -108 279.5t-261 117.5q-155 0 -261.5 -117t-106.5 -280q0 -165 108 -280t260 -115zM574 -403q-35 0 -58.5 22.5t-23.5 57.5t23.5 58t58.5 23q34 0 58 -23.5t24 -57.5q0 -35 -23.5 -57.5t-58.5 -22.5z" />
    <glyph glyph-name="uni1EE4" unicode="&#x1ee4;" horiz-adv-x="1357" 
d="M679 -27q-126 0 -231.5 49t-176 133.5t-109.5 198.5t-39 244v836h143v-836q0 -133 47 -241t142.5 -174t223.5 -66q130 0 225.5 66.5t141.5 174t46 240.5v836h143v-836q0 -130 -39 -244t-109.5 -198.5t-176 -133.5t-231.5 -49zM680 -403q-36 0 -59.5 22.5t-23.5 57.5
q0 34 24 57.5t59 23.5q34 0 58 -23.5t24 -57.5q0 -35 -23.5 -57.5t-58.5 -22.5z" />
    <glyph glyph-name="uni1EE5" unicode="&#x1ee5;" horiz-adv-x="1056" 
d="M82 392v632h143v-603q0 -126 89 -214.5t214 -88.5t213.5 88.5t88.5 214.5v603h144l1 -1024h-144l-1 143q-56 -79 -142.5 -124.5t-186.5 -45.5q-173 0 -296 123t-123 296zM543 -402q-36 0 -59.5 22.5t-23.5 57.5q0 34 24 57.5t59 23.5q34 0 58 -23.5t24 -57.5
q0 -35 -23.5 -57.5t-58.5 -22.5z" />
    <glyph glyph-name="Ygrave" unicode="&#x1ef2;" horiz-adv-x="1231" 
d="M418 1841h143l82 -295h-95zM1001 1434h169l-483 -785v-649h-143v649l-483 785h169l385 -628z" />
    <glyph glyph-name="ygrave" unicode="&#x1ef3;" horiz-adv-x="1057" 
d="M331 1432h143l82 -295h-95zM824 1024h152l-560 -1536h-153l187 512l-368 1024h157l282 -826z" />
    <glyph glyph-name="uni1EF4" unicode="&#x1ef4;" horiz-adv-x="1231" 
d="M1001 1434h169l-483 -785v-649h-143v649l-483 785h169l385 -628zM616 -403q-35 0 -58.5 22.5t-23.5 57.5t23.5 58t58.5 23q34 0 58 -23.5t24 -57.5q0 -35 -23.5 -57.5t-58.5 -22.5z" />
    <glyph glyph-name="uni1EF5" unicode="&#x1ef5;" horiz-adv-x="1057" 
d="M824 1024h152l-560 -1536h-153l187 512l-368 1024h157l282 -826zM726 -403q-36 0 -59.5 22.5t-23.5 57.5q0 34 24 57.5t59 23.5q34 0 58 -23.5t24 -57.5q0 -35 -23.5 -57.5t-58.5 -22.5z" />
    <glyph glyph-name="uni1EF8" unicode="&#x1ef8;" horiz-adv-x="1231" 
d="M774 1568q-34 0 -84.5 25t-93 54.5t-86 51t-66.5 16.5q-28 -6 -42 -34t-5 -66l-97 -27q-30 88 17 160t138 72q34 0 84.5 -23.5t93 -51t86.5 -51t66 -23.5q32 0 46 36t3 65l97 30q30 -92 -18.5 -163t-138.5 -71zM1001 1434h169l-483 -785v-649h-143v649l-483 785h169
l385 -628z" />
    <glyph glyph-name="uni1EF9" unicode="&#x1ef9;" horiz-adv-x="1057" 
d="M687 1158q-42 0 -111 40.5t-129.5 77t-89.5 30.5q-28 -6 -42 -34.5t-5 -66.5l-97 -26q-30 88 17 159.5t138 71.5q43 0 111.5 -37t130 -74t88.5 -37q32 0 45.5 35t2.5 65l98 31q30 -92 -18.5 -163.5t-138.5 -71.5zM824 1024h152l-560 -1536h-153l187 512l-368 1024h157
l282 -826z" />
    <glyph glyph-name="uni2002" unicode="&#x2002;" horiz-adv-x="1024" 
 />
    <glyph glyph-name="uni2009" unicode="&#x2009;" horiz-adv-x="409" 
 />
    <glyph glyph-name="uni200B" unicode="&#x200b;" horiz-adv-x="0" 
 />
    <glyph glyph-name="endash" unicode="&#x2013;" horiz-adv-x="1269" 
d="M123 686h1024v-143h-1024v143z" />
    <glyph glyph-name="emdash" unicode="&#x2014;" horiz-adv-x="2088" 
d="M123 686h1843v-143h-1843v143z" />
    <glyph glyph-name="quoteright" unicode="&#x2019;" horiz-adv-x="309" 
d="M41 899l63 535h144l-112 -535h-95z" />
    <glyph glyph-name="quoteright" unicode="&#x2032;" horiz-adv-x="309" 
d="M41 899l63 535h144l-112 -535h-95z" />
    <glyph glyph-name="quotesinglbase" unicode="&#x201a;" horiz-adv-x="343" 
d="M54 -115l64 346h143l-111 -346h-96z" />
    <glyph glyph-name="quotedblleft" unicode="&#x201c;" horiz-adv-x="663" 
d="M416 903l111 535h96l-64 -535h-143zM123 899l111 535h96l-64 -535h-143z" />
    <glyph glyph-name="quotedblright" unicode="&#x201d;" horiz-adv-x="663" 
d="M41 899l63 535h144l-112 -535h-95zM334 899l63 535h144l-112 -535h-95z" />
    <glyph glyph-name="quotedblright" unicode="&#x2033;" horiz-adv-x="663" 
d="M41 899l63 535h144l-112 -535h-95zM334 899l63 535h144l-112 -535h-95z" />
    <glyph glyph-name="quotedblbase" unicode="&#x201e;" horiz-adv-x="623" 
d="M54 -115l64 346h143l-111 -346h-96zM335 -115l63 346h144l-112 -346h-95z" />
    <glyph glyph-name="dagger" unicode="&#x2020;" horiz-adv-x="807" 
d="M82 1119v144h251v273h143v-273h250v-144h-250v-518h-143v518h-251z" />
    <glyph glyph-name="daggerdbl" unicode="&#x2021;" horiz-adv-x="807" 
d="M82 801v141h251v212h-251v143h251v239h143v-239h250v-143h-250v-212h250v-141h-250v-228h-143v228h-251z" />
    <glyph glyph-name="bullet" unicode="&#x2022;" horiz-adv-x="381" 
d="M189 505q-44 0 -75.5 32t-31.5 78q0 44 31.5 76.5t75.5 32.5q46 0 78.5 -32t32.5 -77q0 -46 -32 -78t-79 -32z" />
    <glyph glyph-name="ellipsis" unicode="&#x2026;" horiz-adv-x="1051" 
d="M163 -27q-34 0 -57.5 24t-23.5 59q0 33 23.5 57t57.5 24t58.5 -24t24.5 -57q0 -35 -24 -59t-59 -24zM504 -27q-34 0 -57.5 24t-23.5 59q0 33 23.5 57t57.5 24t58.5 -24t24.5 -57q0 -35 -24 -59t-59 -24zM846 -27q-34 0 -57.5 24t-23.5 59q0 33 23.5 57t57.5 24t58.5 -24
t24.5 -57q0 -35 -24 -59t-59 -24z" />
    <glyph glyph-name="perthousand" unicode="&#x2030;" horiz-adv-x="1838" 
d="M159 0l827 1434h166l-827 -1434h-166zM327 873q-101 0 -173 71.5t-72 173.5q0 103 72 174.5t173 71.5t172.5 -72.5t71.5 -173.5q0 -102 -72 -173.5t-172 -71.5zM327 983q57 0 96 39.5t39 95.5q0 57 -39 96.5t-96 39.5t-96.5 -39.5t-39.5 -96.5q0 -56 39.5 -95.5
t96.5 -39.5zM945 69q-101 0 -173.5 73t-72.5 172q0 102 73 174t173 72q102 0 173.5 -72.5t71.5 -173.5t-72 -173t-173 -72zM1511 69q-101 0 -173 73t-72 172q0 102 72.5 174t172.5 72q103 0 174 -72.5t71 -173.5t-72 -173t-173 -72zM945 178q56 0 95.5 40t39.5 96t-40 96.5
t-95 40.5q-57 0 -97 -40.5t-40 -96.5t40 -96t97 -40zM1511 178q56 0 96.5 40t40.5 96t-40.5 96.5t-96.5 40.5t-96 -40.5t-40 -96.5t40 -96t96 -40z" />
    <glyph glyph-name="uni2035" unicode="&#x2035;" horiz-adv-x="452" 
d="M234 899l-111 535h143l64 -535h-96z" />
    <glyph glyph-name="guilsinglleft" unicode="&#x2039;" horiz-adv-x="689" 
d="M430 267l-307 348l307 347h157l-306 -347l306 -348h-157z" />
    <glyph glyph-name="guilsinglright" unicode="&#x203a;" horiz-adv-x="689" 
d="M102 267l307 348l-307 347h157l307 -347l-307 -348h-157z" />
    <glyph glyph-name="fraction" unicode="&#x2044;" horiz-adv-x="460" 
d="M-249 0l828 1434h131l-828 -1434h-131z" />
    <glyph glyph-name="fraction" unicode="&#x2215;" horiz-adv-x="460" 
d="M-249 0l828 1434h131l-828 -1434h-131z" />
    <glyph glyph-name="uni2070" unicode="&#x2070;" horiz-adv-x="663" 
d="M332 817q-108 0 -183 98.5t-75 244.5t75.5 244.5t182.5 98.5t182.5 -98.5t75.5 -244.5t-75 -244.5t-183 -98.5zM332 920q66 0 108.5 75.5t42.5 164.5q0 94 -43 167.5t-108 73.5q-67 0 -109.5 -74.5t-42.5 -166.5q0 -94 43 -167t109 -73z" />
    <glyph glyph-name="uni2074" unicode="&#x2074;" horiz-adv-x="697" 
d="M372 838v124h-274v128l250 394h130v-416h72v-106h-72v-124h-106zM207 1068h171v270z" />
    <glyph glyph-name="uni2075" unicode="&#x2075;" horiz-adv-x="698" 
d="M318 817q-98 0 -165 62t-67 158h107q0 -51 36 -84t89 -33t89.5 33t36.5 84t-37 86.5t-89 37.5q-89 1 -192 -25l32 348h353v-99h-257l-8 -122q135 14 220 -47.5t85 -178.5q0 -95 -67.5 -157.5t-165.5 -62.5z" />
    <glyph glyph-name="uni2076" unicode="&#x2076;" horiz-adv-x="722" 
d="M337 817q-103 0 -171 65t-68 161q0 52 28 110t141 250q30 50 46 78h124l-119 -206q106 9 181.5 -61.5t75.5 -171.5q0 -100 -70 -162.5t-168 -62.5zM337 920q57 0 95 36.5t36 92.5q-1 56 -40.5 91t-90.5 35q-58 0 -95.5 -41.5t-35.5 -97.5q1 -53 39 -84.5t92 -31.5z" />
    <glyph glyph-name="uni2077" unicode="&#x2077;" horiz-adv-x="652" 
d="M146 838l309 538h-332v107h456v-105l-310 -540h-123z" />
    <glyph glyph-name="uni2078" unicode="&#x2078;" horiz-adv-x="621" 
d="M309 817q-89 0 -150 56t-61 143q0 99 78 162q-62 57 -62 139t56.5 134.5t138.5 52.5q84 0 141.5 -52.5t57.5 -134.5q0 -81 -63 -139q78 -63 78 -162q0 -87 -61.5 -143t-152.5 -56zM309 1228q38 0 65 26.5t27 62.5q0 37 -26.5 60.5t-65.5 23.5q-37 0 -63 -23.5t-26 -60.5
q0 -36 26.5 -62.5t62.5 -26.5zM309 919q46 0 77 27.5t31 69.5q0 44 -31.5 74.5t-76.5 30.5q-42 0 -73 -31t-31 -74q0 -42 30.5 -69.5t73.5 -27.5z" />
    <glyph glyph-name="uni2079" unicode="&#x2079;" horiz-adv-x="674" 
d="M210 838l121 209q-50 -8 -97.5 7t-80.5 46t-55 73t-22 89t19 94q22 69 82 108t136 39q61 0 113 -27t81 -70.5t38 -98t-16 -109.5q-1 -21 -13 -46l-183 -314h-123zM313 1145q62 0 101 49t27 112q-10 45 -47 70t-81 25q-64 0 -102.5 -46t-26.5 -107q10 -49 48 -76t81 -27z
" />
    <glyph glyph-name="uni2080" unicode="&#x2080;" horiz-adv-x="663" 
d="M332 -32q-107 0 -182.5 99t-75.5 246q0 146 75.5 246.5t182.5 100.5t182.5 -100.5t75.5 -246.5q0 -147 -75.5 -246t-182.5 -99zM332 75q66 0 108.5 74.5t42.5 163.5q0 94 -43 167.5t-108 73.5q-67 0 -109.5 -74.5t-42.5 -166.5q0 -93 43 -165.5t109 -72.5z" />
    <glyph glyph-name="uni2081" unicode="&#x2081;" horiz-adv-x="433" 
d="M179 0v540h-81l16 106h172v-646h-107z" />
    <glyph glyph-name="uni2082" unicode="&#x2082;" horiz-adv-x="705" 
d="M98 0v100q51 35 77.5 53t83.5 62.5t90 77t64.5 75.5t38.5 79q0 51 -35 83.5t-87 32.5q-53 0 -89 -32.5t-36 -83.5h-107q0 94 67.5 158.5t164.5 64.5q95 0 161.5 -64.5t66.5 -158.5q0 -55 -46.5 -123t-102 -118t-122.5 -100h267v-106h-456z" />
    <glyph glyph-name="uni2083" unicode="&#x2083;" horiz-adv-x="569" 
d="M286 -32q-89 0 -150.5 58.5t-61.5 145.5h106q0 -43 30.5 -70t75.5 -27q44 0 73.5 27t29.5 70q0 52 -39 84t-109 32v85q64 0 97 27t33 73q0 35 -26.5 58t-63.5 23t-63.5 -23t-26.5 -58h-106q0 80 57 133.5t139 53.5t139 -53.5t57 -133.5q0 -42 -17.5 -80.5t-43.5 -58.5
q42 -35 61 -72t19 -90q0 -87 -61.5 -145.5t-148.5 -58.5z" />
    <glyph glyph-name="uni2084" unicode="&#x2084;" horiz-adv-x="697" 
d="M372 0v124h-274v129l250 393h130v-416h72v-106h-72v-124h-106zM207 230h171v271z" />
    <glyph glyph-name="uni2085" unicode="&#x2085;" horiz-adv-x="698" 
d="M318 -32q-98 0 -165 63.5t-67 159.5h107q0 -51 36 -83.5t89 -32.5t89.5 32.5t36.5 83.5q0 52 -37 88t-89 36l-193 -23l33 345h353v-99h-257l-8 -121l73 5q101 0 166.5 -67t65.5 -164q0 -96 -68 -159.5t-165 -63.5z" />
    <glyph glyph-name="uni2086" unicode="&#x2086;" horiz-adv-x="698" 
d="M337 -32q-103 0 -171 66.5t-68 164.5q0 51 26.5 106t135.5 240q34 59 54 92h124l-120 -208q106 10 181.5 -60t75.5 -171q0 -100 -70 -165t-168 -65zM337 75q57 0 95 36.5t36 92.5q-1 56 -40.5 90.5t-90.5 34.5q-58 0 -95.5 -41.5t-35.5 -97.5q1 -52 39 -83.5t92 -31.5z
" />
    <glyph glyph-name="uni2087" unicode="&#x2087;" horiz-adv-x="652" 
d="M143 0l312 540h-332v106h456v-104l-313 -542h-123z" />
    <glyph glyph-name="uni2088" unicode="&#x2088;" horiz-adv-x="621" 
d="M309 -32q-88 0 -149.5 57.5t-61.5 144.5q0 100 78 163q-62 55 -62 139q0 82 56.5 136t138.5 54q84 0 141.5 -54t57.5 -136q0 -83 -63 -139q78 -63 78 -163q0 -87 -62 -144.5t-152 -57.5zM309 382q38 0 65 27t27 63q0 37 -26.5 60t-65.5 23q-37 0 -63 -23t-26 -60
q0 -36 26.5 -63t62.5 -27zM309 74q46 0 77 27t31 69q0 44 -31.5 74.5t-76.5 30.5q-42 0 -73 -31t-31 -74q0 -42 30.5 -69t73.5 -27z" />
    <glyph glyph-name="uni2089" unicode="&#x2089;" horiz-adv-x="674" 
d="M210 0l121 209q-63 -9 -120 16t-89.5 71t-43.5 105.5t17 117.5q22 70 82.5 110.5t135.5 40.5q66 0 121.5 -32t84 -82.5t33 -112t-32.5 -121.5l-186 -322h-123zM313 308q62 0 101 48.5t27 111.5q-10 45 -47 70t-81 25q-64 0 -102.5 -45t-26.5 -106q10 -49 48 -76.5
t81 -27.5z" />
    <glyph glyph-name="Euro" unicode="&#x20ac;" horiz-adv-x="1195" 
d="M1113 -15q-137 -26 -270 3.5t-239 103t-184.5 186t-112.5 248.5h-225v110h206v161h-206v109h225q46 183 167 320t290 197.5t349 26.5v-146q-145 32 -280 -11.5t-232 -145.5t-140 -241h339v-109h-367v-161h367v-110h-338q67 -216 251 -329.5t400 -64.5v-147z" />
    <glyph glyph-name="trademark" unicode="&#x2122;" horiz-adv-x="2998" 
d="M1207 1434v-144h-491v-1290h-144v1290h-490v144h1125zM1310 0l277 1434h105l401 -1055l399 1055h105l278 -1434h-146l-212 1097l-379 -1003h-92l-379 1003l-212 -1097h-145z" />
    <glyph glyph-name="oneeighth" unicode="&#x215b;" horiz-adv-x="1515" 
d="M179 838v539h-81l16 107h172v-646h-107zM184 0l828 1434h131l-828 -1434h-131zM1203 -32q-88 0 -149.5 57.5t-61.5 144.5q0 100 78 163q-62 55 -62 139q0 82 56.5 136t138.5 54q84 0 141.5 -54t57.5 -136q0 -83 -63 -139q78 -63 78 -163q0 -87 -62 -144.5t-152 -57.5z
M1203 382q38 0 65 27t27 63q0 37 -26.5 60t-65.5 23q-37 0 -63 -23t-26 -60q0 -36 26.5 -63t62.5 -27zM1203 74q46 0 77 27t31 69q0 44 -31.5 74.5t-76.5 30.5q-42 0 -73 -31t-31 -74q0 -42 30.5 -69t73.5 -27z" />
    <glyph glyph-name="threeeighths" unicode="&#x215c;" horiz-adv-x="1651" 
d="M286 817q-89 0 -150.5 57t-61.5 144h106q0 -43 30.5 -70.5t75.5 -27.5q43 0 73 27.5t30 70.5q0 52 -39 84t-109 32v85q64 0 97 26.5t33 72.5q0 35 -26.5 58.5t-63.5 23.5t-63.5 -23.5t-26.5 -58.5h-106q0 80 57 132t139 52q83 0 139.5 -51.5t56.5 -132.5
q0 -42 -17.5 -80.5t-43.5 -58.5q42 -34 61 -71t19 -90q0 -87 -61 -144t-149 -57zM321 0l827 1434h131l-827 -1434h-131zM1339 -32q-88 0 -149.5 57.5t-61.5 144.5q0 100 78 163q-62 55 -62 139q0 82 56.5 136t138.5 54q84 0 141.5 -54t57.5 -136q0 -84 -62 -139
q77 -62 77 -163q0 -87 -62 -144.5t-152 -57.5zM1339 382q38 0 65.5 27t27.5 63q0 37 -27 60t-66 23q-37 0 -63 -23t-26 -60q0 -36 26.5 -63t62.5 -27zM1339 74q46 0 77 27t31 69q0 44 -31.5 74.5t-76.5 30.5q-42 0 -73 -31t-31 -74q0 -42 30.5 -69t73.5 -27z" />
    <glyph glyph-name="fiveeighths" unicode="&#x215d;" horiz-adv-x="1780" 
d="M318 817q-98 0 -165 62t-67 158h107q0 -51 36 -84t89 -33t89.5 33t36.5 84t-37 86.5t-89 37.5q-89 1 -192 -25l32 348h353v-99h-257l-8 -122q135 14 220 -47.5t85 -178.5q0 -95 -67.5 -157.5t-165.5 -62.5zM450 0l827 1434h131l-827 -1434h-131zM1468 -32
q-88 0 -149.5 57.5t-61.5 144.5q0 100 78 163q-62 55 -62 139q0 82 56.5 136t138.5 54q84 0 141.5 -54t57.5 -136q0 -84 -62 -139q77 -62 77 -163q0 -87 -62 -144.5t-152 -57.5zM1468 382q38 0 65.5 27t27.5 63q0 37 -27 60t-66 23q-37 0 -63 -23t-26 -60q0 -36 26.5 -63
t62.5 -27zM1468 74q46 0 77 27t31 69q0 44 -31.5 74.5t-76.5 30.5q-42 0 -73 -31t-31 -74q0 -42 30.5 -69t73.5 -27z" />
    <glyph glyph-name="seveneighths" unicode="&#x215e;" horiz-adv-x="1734" 
d="M146 838l309 538h-332v107h456v-105l-310 -540h-123zM403 0l828 1434h131l-827 -1434h-132zM1422 -32q-88 0 -149.5 57.5t-61.5 144.5q0 100 78 163q-62 55 -62 139q0 82 56.5 136t138.5 54q84 0 141.5 -54t57.5 -136q0 -84 -62 -139q77 -62 77 -163q0 -87 -62 -144.5
t-152 -57.5zM1422 382q38 0 65 27t27 63q0 37 -26.5 60t-65.5 23q-37 0 -63 -23t-26 -60q0 -36 26.5 -63t62.5 -27zM1422 74q46 0 77 27t31 69q0 44 -31.5 74.5t-76.5 30.5q-42 0 -73 -31t-31 -74q0 -42 30.5 -69t73.5 -27z" />
    <glyph glyph-name="arrowleft" unicode="&#x2190;" horiz-adv-x="1402" 
d="M589 261l-507 507l507 507l100 -101l-334 -334h966v-144h-966l334 -334z" />
    <glyph glyph-name="arrowup" unicode="&#x2191;" horiz-adv-x="1178" 
d="M518 147v967l-334 -335l-102 103l508 507l507 -507l-102 -103l-333 335v-967h-144z" />
    <glyph glyph-name="arrowright" unicode="&#x2192;" horiz-adv-x="1403" 
d="M814 261l-101 101l333 334h-964v144h964l-333 334l101 101l508 -507z" />
    <glyph glyph-name="arrowdown" unicode="&#x2193;" horiz-adv-x="1177" 
d="M588 148l-506 507l101 102l333 -334v965h143v-965l335 334l102 -102z" />
    <glyph glyph-name="arrowboth" unicode="&#x2194;" horiz-adv-x="1724" 
d="M589 261l-507 507l507 507l100 -101l-334 -334h1012l-334 334l102 101l507 -507l-507 -507l-102 101l334 334h-1012l334 -334z" />
    <glyph glyph-name="arrowupdn" unicode="&#x2195;" horiz-adv-x="1178" 
d="M589 -13l-507 508l101 102l334 -336v1014l-334 -335l-101 102l507 507l508 -507l-103 -102l-334 335v-1014l334 336l103 -102z" />
    <glyph glyph-name="uni2196" unicode="&#x2196;" horiz-adv-x="1091" 
d="M908 305l-683 682v-473h-143v717h717v-144h-471l682 -681z" />
    <glyph glyph-name="uni2197" unicode="&#x2197;" horiz-adv-x="1090" 
d="M183 305l-101 102l682 680h-473v144h718v-717h-144v472z" />
    <glyph glyph-name="uni2198" unicode="&#x2198;" horiz-adv-x="1090" 
d="M292 305v144h472l-682 680l101 102l682 -681v472h144v-717h-717z" />
    <glyph glyph-name="uni2199" unicode="&#x2199;" horiz-adv-x="1090" 
d="M82 305v717h143v-472l682 681l102 -102l-682 -680h472v-144h-717z" />
    <glyph glyph-name="partialdiff" unicode="&#x2202;" horiz-adv-x="1192" 
d="M597 -27q-105 0 -200 40.5t-164 109.5t-110 164t-41 200q0 140 69 258.5t187.5 187.5t258.5 69q96 0 178.5 -42.5t136.5 -115.5q-24 105 -70.5 200.5t-114.5 174.5t-162.5 126t-203.5 47v143q158 0 297.5 -80.5t238 -217t156 -320.5t58.5 -386q0 -247 -143.5 -402.5
t-370.5 -155.5zM597 117q155 0 263.5 109.5t108.5 260.5q0 154 -108.5 263t-263.5 109t-263.5 -110t-108.5 -262t108.5 -261t263.5 -109z" />
    <glyph glyph-name="emptyset" unicode="&#x2205;" horiz-adv-x="1187" 
d="M336 -56l-107 61l51 85q-92 75 -145 185.5t-53 236.5q0 147 68.5 271.5t186.5 197t257 72.5q116 0 211 -49l48 80l106 -61l-49 -86q91 -75 143.5 -186t52.5 -239q0 -146 -68.5 -270t-186.5 -196.5t-257 -72.5q-105 0 -212 51zM350 213l388 674q-60 27 -123.5 30
t-120.5 -15.5t-108 -56t-88.5 -88t-59 -116t-21.5 -135.5q0 -88 35.5 -164t97.5 -129zM450 140q77 -31 151.5 -31t141.5 34t117.5 87.5t80.5 129t30 158.5q0 88 -35.5 165t-96.5 131z" />
    <glyph glyph-name="product" unicode="&#x220f;" horiz-adv-x="1310" 
d="M82 1434h1147v-144h-195v-1290h-143v1290h-471v-1290h-144v1290h-194v144z" />
    <glyph glyph-name="summation" unicode="&#x2211;" horiz-adv-x="977" 
d="M82 0v143l292 572l-292 571v144h834v-144h-672l292 -571l-292 -572h672v-143h-834z" />
    <glyph glyph-name="minus" unicode="&#x2212;" horiz-adv-x="1187" 
d="M82 543v143h1024v-143h-1024z" />
    <glyph glyph-name="radical" unicode="&#x221a;" horiz-adv-x="1316" 
d="M890 1434h345v-144h-245l-472 -1290h-172l-264 725h152l199 -542z" />
    <glyph glyph-name="infinity" unicode="&#x221e;" horiz-adv-x="1507" 
d="M395 310q-140 15 -226.5 108.5t-86.5 222.5q0 134 89 229t224 102q77 0 137.5 -26t107 -69t115.5 -126q96 118 170.5 169.5t169.5 51.5q154 -7 242 -100.5t88 -230.5q0 -133 -88 -227.5t-223 -103.5q-76 0 -134 23.5t-106 67t-119 129.5q-105 -127 -178 -175t-182 -45z
M1111 443q79 7 130.5 64t51.5 134q0 80 -52 135.5t-140 62.5q-48 0 -90 -23.5t-69 -52.5t-89 -103q-10 -12 -16 -19q56 -68 82 -97t60 -57t62.5 -36t69.5 -8zM396 443q78 0 126 37t134 143q3 4 5 6t5 5.5t5 6.5q-92 112 -125 141q-62 55 -142 56h-8q-78 -7 -129.5 -64.5
t-51.5 -132.5q0 -80 52 -135t129 -63z" />
    <glyph glyph-name="integral" unicode="&#x222b;" horiz-adv-x="899" 
d="M273 -27q-85 1 -141 62t-49 148l103 -8q-1 -33 14.5 -54.5t46.5 -25.5q31 -2 53 16.5t27 49.5l103 1141q10 70 69 115t131 43q83 -3 138.5 -65.5t47.5 -145.5l-96 9q-1 37 -22.5 58.5t-53.5 20.5q-29 2 -50.5 -18t-23.5 -49l-102 -1137q-14 -80 -65.5 -119.5
t-129.5 -40.5z" />
    <glyph glyph-name="approxequal" unicode="&#x2248;" horiz-adv-x="1253" 
d="M878 738q-58 0 -141 35.5t-152.5 77.5t-145.5 77t-121 35q-67 1 -106 -53t-25 -123l-139 -7q-18 78 12.5 153t97.5 121.5t150 46.5q46 0 104.5 -23.5t115 -57t112 -67t111.5 -57t98 -23.5q68 0 108 53.5t25 120.5l140 9q30 -124 -45 -221t-199 -97zM878 177
q-58 0 -141 35t-152.5 77t-145.5 77t-121 35q-67 1 -106 -52.5t-25 -122.5l-139 -7q-18 78 12.5 153t97.5 121.5t150 46.5q46 0 104.5 -23.5t115 -57t112 -67t111.5 -57t98 -23.5q68 0 108 53t25 120l140 10q30 -124 -45 -221t-199 -97z" />
    <glyph glyph-name="notequal" unicode="&#x2260;" horiz-adv-x="1187" 
d="M842 1210l-92 -317h356v-143h-398l-79 -271h477v-143h-519l-94 -318h-149l93 318h-355v143h396l80 271h-476v143h519l92 317h149z" />
    <glyph glyph-name="lessequal" unicode="&#x2264;" horiz-adv-x="1187" 
d="M1106 349l-1024 291v236l1024 292v-149l-915 -260l915 -260v-150zM82 0v143h1024v-143h-1024z" />
    <glyph glyph-name="greaterequal" unicode="&#x2265;" horiz-adv-x="1187" 
d="M82 357v150l914 256l-914 256v149l1024 -288v-236zM82 0v143h1024v-143h-1024z" />
    <glyph glyph-name="lozenge" unicode="&#x25ca;" horiz-adv-x="884" 
d="M336 0l-275 719l273 715h217l272 -715l-274 -719h-213zM442 137l232 582l-232 581l-229 -581z" />
    <glyph glyph-name="uniFFFD" unicode="&#xfffd;" horiz-adv-x="1669" 
d="M836 -27q-121 0 -205 84l-424 424q-84 84 -84 205q0 119 84 203l424 424q84 84 205 84q118 0 202 -84l424 -424q84 -84 84 -203q0 -121 -84 -205l-424 -424q-84 -84 -202 -84zM784 529h110v2q0 54 48 80q54 30 85.5 83.5t31.5 117.5q0 93 -66.5 159t-159.5 66
q-95 0 -161.5 -65.5t-66.5 -159.5h110q0 49 34 83t84 34q49 0 82.5 -34t33.5 -83q0 -34 -15.5 -62.5t-42.5 -41.5q-50 -26 -78.5 -73.5t-28.5 -103.5v-2zM843 317q23 0 38.5 16.5t15.5 39.5t-15.5 38.5t-38.5 15.5t-39.5 -16t-16.5 -38q0 -23 16.5 -39.5t39.5 -16.5z" />
    <glyph glyph-name="uni004A0301" horiz-adv-x="822" 
d="M593 1546l82 295h143l-129 -295h-96zM297 -27q-145 0 -256 94l91 110q70 -60 165 -60q105 0 182 81.5t77 189.5v1046h143v-1046q0 -167 -118.5 -291t-283.5 -124z" />
    <glyph glyph-name="uni013B.loclMAH" horiz-adv-x="1027" 
d="M123 0v1434h143v-1291h659v-143h-802zM389 -452l64 347h143l-112 -347h-95z" />
    <glyph glyph-name="uni0145.loclMAH" horiz-adv-x="1301" 
d="M123 0v1434h156l756 -1175v1175h144v-1434h-155l-758 1175v-1175h-143zM515 -452l64 347h143l-112 -347h-95z" />
    <glyph glyph-name="i.loclTRK" horiz-adv-x="389" 
d="M196 1203q-35 0 -59 23t-24 58q0 34 24 57.5t59 23.5q34 0 58 -23.5t24 -57.5q0 -35 -23.5 -58t-58.5 -23zM123 1024h143v-1024h-143v1024z" />
    <glyph glyph-name="uni006A0301" horiz-adv-x="451" 
d="M222 1137l82 295h143l-129 -295h-96zM-82 -512v143q114 0 190.5 74t76.5 184v1135h144v-1135q0 -168 -118.5 -284.5t-292.5 -116.5z" />
    <glyph glyph-name="uni013C.loclMAH" horiz-adv-x="389" 
d="M123 0v1536h143v-1536h-143zM59 -452l64 347h143l-111 -347h-96z" />
    <glyph glyph-name="uni0146.loclMAH" 
d="M1016 634v-634h-144v605q0 126 -89 214.5t-214 88.5t-214 -88.5t-89 -214.5v-605h-143v1024h143v-141q56 79 143.5 124.5t187.5 45.5q173 0 296 -123t123 -296zM434 -452l64 347h143l-112 -347h-95z" />
    <glyph glyph-name="uni030C.alt" horiz-adv-x="0" 
d="M300 1137l82 295h143l-129 -295h-96z" />
    <glyph glyph-name="uni0326.loclMAH" horiz-adv-x="0" 
d="M410 -452l63 347h143l-111 -347h-95z" />
    </font>
</defs>
</svg>
