<?xml version="1.0" standalone="no"?>
<!DOCTYPE svg PUBLIC "-//W3C//DTD SVG 1.1//EN" "http://www.w3.org/Graphics/SVG/1.1/DTD/svg11.dtd" >
<svg xmlns="http://www.w3.org/2000/svg" xmlns:xlink="http://www.w3.org/1999/xlink" version="1.1">
<metadata>
Created by FontForge 20170731 at Wed Nov  8 23:35:08 2023
 By Aleksey,,,
Copyright 2021 The Urbanist Project Authors (https://github.com/coreyhu/Urbanist)
</metadata>
<defs>
<font id="Urbanist-Bold" horiz-adv-x="495" >
  <font-face 
    font-family="Urbanist"
    font-weight="700"
    font-stretch="normal"
    units-per-em="2048"
    panose-1="0 0 0 0 0 0 0 0 0 0"
    ascent="1638"
    descent="-410"
    x-height="1024"
    cap-height="1434"
    bbox="-287 -512 2979 2131"
    underline-thickness="51"
    underline-position="-153"
    unicode-range="U+000D-FFFD"
  />
<missing-glyph horiz-adv-x="1024" 
d="M102 -512v2458h820v-2458h-820zM205 -410h614v2253h-614v-2253z" />
    <glyph glyph-name=".notdef" horiz-adv-x="1024" 
d="M102 -512v2458h820v-2458h-820zM205 -410h614v2253h-614v-2253z" />
    <glyph glyph-name=".null" horiz-adv-x="1228" 
 />
    <glyph glyph-name=".null" horiz-adv-x="1228" 
 />
    <glyph glyph-name="nonmarkingreturn" unicode="&#xd;" horiz-adv-x="1228" 
 />
    <glyph glyph-name="nonmarkingreturn" unicode="&#xfeff;" horiz-adv-x="1228" 
 />
    <glyph glyph-name="space" unicode=" " horiz-adv-x="491" 
 />
    <glyph glyph-name="exclam" unicode="!" horiz-adv-x="459" 
d="M104 430v1004h211v-1004h-211zM211 -27q-55 0 -92 37.5t-37 92.5q0 53 37 90t92 37q53 0 89.5 -37t36.5 -90q0 -55 -36.5 -92.5t-89.5 -37.5z" />
    <glyph glyph-name="quotedbl" unicode="&#x22;" horiz-adv-x="603" 
d="M67 899v535h171v-535h-171zM366 899v535h171v-535h-171z" />
    <glyph glyph-name="numbersign" unicode="#" horiz-adv-x="1610" 
d="M1463 899h-170l-99 -363h173l-65 -242h-170l-80 -294h-250l80 294h-379l-78 -294h-250l78 294h-171l65 242h170l100 363h-173l65 241h171l79 294h250l-79 -294h378l78 294h250l-78 -294h171zM944 536l99 363h-376l-100 -363h377z" />
    <glyph glyph-name="dollar" unicode="$" horiz-adv-x="1238" 
d="M618 1207q-112 1 -198 -52t-86 -130q0 -29 8.5 -52t19.5 -39.5t35 -30t42 -21.5t54.5 -16.5t58 -12.5t66.5 -11q112 -17 205.5 -51t169 -86t118 -128t42.5 -169q0 -170 -128 -286.5t-320 -141.5v-209h-171v209q-159 19 -283 100t-169 207l234 86q23 -63 109 -106.5
t193 -43.5q115 0 200 52t85 133q0 136 -285 183q-121 19 -213 50t-167 81t-114.5 126.5t-39.5 176.5q0 170 129 287t321 141v210h171v-210q157 -19 281 -100.5t170 -208.5l-235 -85q-23 63 -109 105.5t-194 42.5z" />
    <glyph glyph-name="percent" unicode="%" horiz-adv-x="1544" 
d="M214 0l827 1434h289l-827 -1434h-289zM390 812q-127 0 -217.5 89t-90.5 217q0 130 91 218.5t217 88.5t216 -89.5t90 -217.5q0 -129 -90.5 -217.5t-215.5 -88.5zM390 983q56 0 95.5 39t39.5 96t-39.5 96t-95.5 39q-57 0 -97 -39t-40 -96t40 -96t97 -39zM1154 7
q-127 0 -216.5 91.5t-89.5 214.5q0 129 91 219t215 90q130 0 219 -92t89 -217q0 -126 -90.5 -216t-217.5 -90zM1154 178q57 0 97 39.5t40 95.5q0 57 -40 97.5t-97 40.5q-56 0 -95.5 -40.5t-39.5 -97.5q0 -55 39.5 -95t95.5 -40z" />
    <glyph glyph-name="ampersand" unicode="&#x26;" horiz-adv-x="1465" 
d="M522 -27q-122 0 -224 61.5t-159 163t-57 217.5q0 53 9 94.5t23 76t51 80.5t73 84t108 111q-88 88 -119 145t-31 141q0 139 96.5 234t229.5 95q136 0 232.5 -96t96.5 -233q0 -84 -32 -141t-120 -145l271 -270l258 259v-353l-83 -83l238 -238l-177 -176l-236 237
q-90 -89 -137 -132t-100.5 -77.5t-99 -44.5t-111.5 -10zM522 1001q15 15 38.5 37.5t30.5 29.5t19 20t14.5 20.5t5 18.5t2.5 25q0 48 -34 78.5t-76 30.5q-43 0 -75 -32t-32 -77q0 -12 1 -21t6 -19t8.5 -16.5t15.5 -19t18.5 -19.5t26 -25.5t31.5 -30.5zM522 223q18 0 33.5 3
t27.5 5.5t28.5 13.5t26 17t31 27t32.5 32t42.5 43t49.5 50l-271 270l-52 -52t-43.5 -43t-32 -33t-26 -30.5t-16.5 -25t-12.5 -27t-5 -26.5t-2.5 -33q0 -81 57 -136t133 -55z" />
    <glyph glyph-name="quotesingle" unicode="'" horiz-adv-x="304" 
d="M67 899v535h171v-535h-171z" />
    <glyph glyph-name="parenleft" unicode="(" horiz-adv-x="776" 
d="M424 -115q-157 154 -229 343.5t-72 430.5q0 128 37.5 289t109 302.5t154.5 183.5h250q-68 -48 -138.5 -183.5t-116 -299.5t-46.5 -292q2 -224 89 -428.5t212 -345.5h-250z" />
    <glyph glyph-name="parenright" unicode=")" horiz-adv-x="776" 
d="M102 -115q125 141 212 345.5t89 428.5q-1 128 -46.5 292t-116 299.5t-138.5 183.5h250q83 -42 154.5 -183.5t109 -302.5t37.5 -289q0 -241 -72 -430.5t-229 -343.5h-250z" />
    <glyph glyph-name="asterisk" unicode="*" horiz-adv-x="741" 
d="M252 855l-139 101l103 142l-165 52l51 165l167 -54v173h172v-173l165 54l53 -165l-166 -52l103 -142l-139 -101l-102 142z" />
    <glyph glyph-name="plus" unicode="+" horiz-adv-x="1187" 
d="M469 102v387h-387v250h387v387h250v-387h387v-250h-387v-387h-250z" />
    <glyph glyph-name="comma" unicode="," horiz-adv-x="518" 
d="M82 -115l63 346h250l-146 -346h-167z" />
    <glyph glyph-name="hyphen" unicode="-" horiz-adv-x="901" 
d="M123 739h655v-250h-655v250z" />
    <glyph glyph-name="period" unicode="." horiz-adv-x="461" 
d="M210 -27q-54 0 -91 37t-37 92q0 53 37 90.5t91 37.5q53 0 91 -37.5t38 -90.5q0 -54 -37.5 -91.5t-91.5 -37.5z" />
    <glyph glyph-name="slash" unicode="/" horiz-adv-x="829" 
d="M748 1434l-416 -1549h-250l416 1549h250z" />
    <glyph glyph-name="zero" unicode="0" horiz-adv-x="1238" 
d="M620 -27q-163 0 -291.5 100.5t-198 270t-69.5 373.5t69.5 373.5t198 269.5t291.5 100t291 -100t197 -269t69 -374t-69 -374t-197 -269.5t-291 -100.5zM620 223q79 0 142 40.5t101.5 110t58.5 157t20 186.5q0 138 -35.5 248t-110 177.5t-176.5 67.5q-80 0 -143.5 -40.5
t-102 -110t-58.5 -156.5t-20 -186q0 -98 20.5 -186t59.5 -157.5t102 -110t142 -40.5z" />
    <glyph glyph-name="one" unicode="1" horiz-adv-x="675" 
d="M262 0v1184h-180l68 250h362v-1434h-250z" />
    <glyph glyph-name="two" unicode="2" horiz-adv-x="1170" 
d="M82 0v223q100 75 207 165t227.5 203.5t197.5 219t77 172.5q0 94 -66 160.5t-160 66.5q-93 0 -159.5 -66.5t-66.5 -160.5h-250q0 132 65 242t174 172.5t237 62.5t237.5 -63.5t173.5 -173.5t64 -240q0 -68 -27 -141.5t-68 -139.5t-112 -148t-134.5 -147t-159.5 -157h509
v-250h-966z" />
    <glyph glyph-name="three" unicode="3" horiz-adv-x="1047" 
d="M523 -27q-194 0 -328 133.5t-134 324.5h250q0 -87 60.5 -147.5t151.5 -60.5q86 0 149.5 61.5t63.5 146.5q0 108 -85.5 165.5t-230.5 57.5v193q129 0 202 48.5t73 140.5q0 72 -53 124t-125 52q-75 0 -137.5 -53t-62.5 -123h-249q0 114 62.5 213t165 156t218.5 57
q174 0 302.5 -125t128.5 -301q0 -88 -40 -165.5t-109 -109.5q89 -33 139.5 -127t50.5 -203q0 -124 -63 -229.5t-169.5 -167t-230.5 -61.5z" />
    <glyph glyph-name="four" unicode="4" horiz-adv-x="1185" 
d="M692 0v347h-610v251l552 836h308v-837h121v-250h-121v-347h-250zM372 598l320 -1l-1 496z" />
    <glyph glyph-name="five" unicode="5" horiz-adv-x="1176" 
d="M563 -27q-135 0 -248.5 67t-178 180t-64.5 244h250q0 -100 70.5 -170.5t170.5 -70.5q99 0 170 70.5t71 170.5q0 108 -70 176.5t-216 68.5h-368l151 725h705v-250h-502l-46 -226l101 -1q143 -5 256.5 -70.5t176 -176.5t62.5 -246q0 -99 -39 -190t-104.5 -157t-156.5 -105
t-191 -39z" />
    <glyph glyph-name="six" unicode="6" horiz-adv-x="1124" 
d="M555 -27q-101 0 -194.5 40t-161 108t-108 161.5t-40.5 196.5q0 136 70 257l401 698h290l-269 -466q135 11 255 -51t192.5 -179t72.5 -259q0 -103 -40 -196.5t-108 -161t-162 -108t-198 -40.5zM555 223q110 0 184 77t74 178q0 106 -74.5 181.5t-181.5 75.5
q-110 0 -183 -76.5t-73 -180.5q0 -107 76 -181t178 -74z" />
    <glyph glyph-name="seven" unicode="7" horiz-adv-x="1126" 
d="M113 0l683 1184h-755v250h1044v-250l-685 -1184h-287z" />
    <glyph glyph-name="eight" unicode="8" horiz-adv-x="1116" 
d="M557 -27q-130 0 -239.5 60t-172.5 163.5t-63 226.5q0 97 44 183.5t121 147.5q-134 119 -134 287q0 173 130 296t314 123t314 -123t130 -296q0 -168 -134 -287q79 -61 123 -147.5t44 -183.5q0 -122 -63.5 -226t-173.5 -164t-240 -60zM557 872q75 0 127.5 49.5t52.5 119.5
t-52.5 119.5t-127.5 49.5q-74 0 -127 -49.5t-53 -119.5t53 -119.5t127 -49.5zM557 223q89 0 151 58.5t62 141.5t-62 141.5t-151 58.5q-88 0 -150.5 -58.5t-62.5 -141.5t62.5 -141.5t150.5 -58.5z" />
    <glyph glyph-name="nine" unicode="9" horiz-adv-x="1123" 
d="M297 0l275 476q-133 -9 -251 52.5t-189 176.5t-71 254q0 135 67 250.5t183 183t252 67.5q134 0 249 -67t182.5 -183t67.5 -251q0 -130 -70 -252l-406 -707h-289zM561 709q107 0 179 75.5t72 176.5q0 105 -74.5 177t-174.5 72q-107 0 -180 -75t-73 -174q0 -104 73 -178
t178 -74z" />
    <glyph glyph-name="colon" unicode=":" horiz-adv-x="461" 
d="M210 767q-54 0 -91 37t-37 92q0 53 37 90.5t91 37.5q53 0 91 -37.5t38 -90.5q0 -54 -37.5 -91.5t-91.5 -37.5zM210 -27q-54 0 -91 37t-37 92q0 53 37 90.5t91 37.5q53 0 91 -37.5t38 -90.5q0 -54 -37.5 -91.5t-91.5 -37.5z" />
    <glyph glyph-name="semicolon" unicode=";" horiz-adv-x="521" 
d="M270 767q-55 0 -92 37t-37 91t37.5 91.5t91.5 37.5q53 0 90.5 -38t37.5 -91q0 -54 -37.5 -91t-90.5 -37zM82 -115l63 346h250l-146 -346h-167z" />
    <glyph glyph-name="less" unicode="&#x3c;" horiz-adv-x="1187" 
d="M1106 115l-1024 291v415l1024 293v-260l-843 -240l843 -240v-259z" />
    <glyph glyph-name="equal" unicode="=" horiz-adv-x="1187" 
d="M82 710v249h1024v-249h-1024zM82 269v250h1024v-250h-1024z" />
    <glyph glyph-name="greater" unicode="&#x3e;" horiz-adv-x="1187" 
d="M82 124v259l843 231l-843 231v260l1024 -284v-415z" />
    <glyph glyph-name="question" unicode="?" horiz-adv-x="1134" 
d="M436 438q0 116 58 213.5t160 153.5q50 27 79 78t29 114q0 89 -63 151t-152 62t-152 -62t-63 -151h-250q0 125 62 232t169.5 169t233.5 62q192 0 328.5 -136t136.5 -327q0 -131 -64.5 -241.5t-175.5 -170.5q-40 -22 -63 -61t-23 -86h-250zM570 -27q-54 0 -91.5 37.5
t-37.5 92.5q0 53 37.5 90t91.5 37q53 0 90 -37t37 -90q0 -55 -37 -92.5t-90 -37.5z" />
    <glyph glyph-name="at" unicode="@" horiz-adv-x="1878" 
d="M939 -257q-176 0 -333.5 62t-273 169.5t-183 261t-67.5 327.5q0 233 115 430.5t312 312.5t430 115q176 0 335 -68.5t273 -183.5t181.5 -273.5t67.5 -332.5q0 -99 -24.5 -192.5t-69.5 -168t-115.5 -120t-154.5 -45.5q-97 0 -189.5 61t-107.5 143q-88 -85 -219 -85
q-168 0 -287 119.5t-119 287.5q0 169 119 288.5t287 119.5q63 0 128.5 -20.5t102.5 -53.5v52l186 -39v-539q0 -38 23 -61t60 -23q33 0 59.5 28.5t41 72t22 89t7.5 86.5q0 166 -82 306t-221.5 221t-303.5 81t-303.5 -81t-221.5 -221t-82 -306q0 -164 81.5 -295.5t219.5 -203
t306 -71.5v-250zM937 342q90 0 150 67.5t60 158.5q0 90 -59 153t-151 63t-156.5 -64t-64.5 -157q0 -91 65 -156t156 -65z" />
    <glyph glyph-name="A" unicode="A" horiz-adv-x="1492" 
d="M602 1434h288l521 -1434h-265l-92 254h-615l-92 -254h-265zM530 504h432l-217 591z" />
    <glyph glyph-name="B" unicode="B" horiz-adv-x="1202" 
d="M123 0v1434h522q174 0 289.5 -105t115.5 -279q0 -85 -37.5 -160.5t-107.5 -104.5q63 -16 108 -59.5t67 -102.5t31 -114t9 -113q0 -168 -122 -282t-295 -114h-580zM373 879h243q78 0 131 48t53 125q0 79 -52 123t-132 44h-243v-340zM373 214h305q92 0 155.5 65.5
t63.5 164.5q0 88 -64.5 156t-154.5 68h-305v-454z" />
    <glyph glyph-name="C" unicode="C" horiz-adv-x="1452" 
d="M786 -27q-191 0 -353.5 100t-256.5 271t-94 373q0 152 55.5 289.5t150 237t225 158t273.5 58.5q170 0 317.5 -79t246.5 -216l-224 -119q-63 76 -152 120t-188 44q-188 0 -321 -145t-133 -348q0 -133 60.5 -247t165.5 -180.5t228 -66.5q100 0 189 44.5t151 121.5l224 -121
q-99 -137 -246.5 -216t-317.5 -79z" />
    <glyph glyph-name="D" unicode="D" horiz-adv-x="1376" 
d="M123 0v1434h475q145 0 278 -57t229 -153t153 -229t57 -278t-57 -278t-153 -229t-229 -153t-278 -57h-475zM373 250h225q191 0 329 137t138 330q0 126 -63 234t-171 170.5t-233 62.5h-225v-934z" />
    <glyph glyph-name="E" unicode="E" horiz-adv-x="1124" 
d="M123 0v1434h899v-250h-649v-291h515v-250h-515v-393h649v-250h-899z" />
    <glyph glyph-name="F" unicode="F" horiz-adv-x="990" 
d="M123 0v1434h847v-250h-597v-291h498v-250h-498v-643h-250z" />
    <glyph glyph-name="G" unicode="G" horiz-adv-x="1573" 
d="M786 -27q-146 0 -277.5 59.5t-224.5 160t-147.5 238t-54.5 288.5q0 157 59 296.5t157 235.5t227 151.5t267 55.5q159 0 304.5 -74t253.5 -221l-224 -120q-67 82 -155.5 124.5t-182.5 42.5q-90 0 -173 -37.5t-145.5 -102.5t-100 -158t-37.5 -198q0 -134 61.5 -247
t167 -178.5t230.5 -65.5q129 0 239.5 78.5t166.5 214.5h-261v218h555q4 -154 -50.5 -294.5t-149 -243t-227 -163t-278.5 -60.5z" />
    <glyph glyph-name="H" unicode="H" horiz-adv-x="1339" 
d="M967 1434h250v-1434h-250v643h-594v-643h-250v1434h250v-541h594v541z" />
    <glyph glyph-name="I" unicode="I" horiz-adv-x="557" 
d="M154 0v1434h249v-1434h-249z" />
    <glyph glyph-name="J" unicode="J" horiz-adv-x="909" 
d="M332 -27q-168 0 -291 106l160 192q55 -48 131 -48q84 0 144.5 62.5t60.5 147.5v1001h249v-1001q0 -93 -36 -177.5t-96.5 -146.5t-145 -99t-176.5 -37z" />
    <glyph glyph-name="K" unicode="K" horiz-adv-x="1201" 
d="M1170 0h-325l-403 562l-69 -83v-479h-250v1434h250v-567l474 567h327l-569 -676z" />
    <glyph glyph-name="L" unicode="L" horiz-adv-x="1072" 
d="M123 0v1434h250v-1184h597v-250h-847z" />
    <glyph glyph-name="M" unicode="M" horiz-adv-x="1914" 
d="M123 0l278 1434h207l349 -919l350 919h206l279 -1434h-255l-172 887l-323 -854h-171l-322 854l-171 -887h-255z" />
    <glyph glyph-name="N" unicode="N" horiz-adv-x="1371" 
d="M123 0v1434h270l605 -982v982h250v-1434h-269l-606 982v-982h-250z" />
    <glyph glyph-name="O" unicode="O" horiz-adv-x="1576" 
d="M788 -27q-143 0 -274 59t-225.5 158.5t-150.5 237.5t-56 289t56 288.5t150.5 237t225.5 158.5t274 59q191 0 354 -99.5t258 -270.5t95 -373q0 -151 -56 -289t-151 -237.5t-226 -158.5t-274 -59zM788 223q188 0 322.5 146t134.5 348q0 133 -61.5 246.5t-167 180
t-228.5 66.5q-188 0 -322 -145.5t-134 -347.5q0 -203 134 -348.5t322 -145.5z" />
    <glyph glyph-name="P" unicode="P" horiz-adv-x="1133" 
d="M123 0v1434h512q174 0 295.5 -126.5t121.5 -305.5t-123.5 -305.5t-293.5 -126.5h-262v-570h-250zM373 820h235q80 0 137 58t57 141q0 84 -57 142t-137 58h-235v-399z" />
    <glyph glyph-name="Q" unicode="Q" horiz-adv-x="1610" 
d="M1352 -43l-160 158q-179 -135 -404 -135q-191 0 -354 99.5t-257.5 270.5t-94.5 373q0 151 56 288.5t150.5 237t225.5 158.5t274 59q191 0 354 -99.5t258 -270.5t95 -373q0 -230 -130 -427l163 -163zM788 229q121 0 223 69l-130 130l176 177l122 -123q66 109 66 241
q0 133 -61.5 247t-167 180.5t-228.5 66.5q-188 0 -322 -146t-134 -348q0 -204 134 -349t322 -145z" />
    <glyph glyph-name="R" unicode="R" horiz-adv-x="1242" 
d="M123 0v1434h550q174 0 295 -126.5t121 -305.5q0 -143 -76.5 -253t-202.5 -156l343 -593h-288l-331 570h-161v-570h-250zM373 820h271q80 0 137.5 58t57.5 141t-57.5 141.5t-137.5 58.5h-271v-399z" />
    <glyph glyph-name="S" unicode="S" horiz-adv-x="1278" 
d="M639 -27q-183 0 -334 85t-203 229l235 86q23 -63 109 -106.5t193 -43.5q115 0 200 52t85 133q0 136 -285 183q-96 15 -173.5 37t-146.5 57t-115 81.5t-73 112t-27 146.5q0 126 75 226.5t196.5 153.5t263.5 53q119 0 227.5 -36.5t192 -108.5t118.5 -169l-236 -85
q-23 63 -108.5 105.5t-193.5 42.5q-112 1 -198.5 -52t-86.5 -130q0 -25 5 -46t18 -37t24.5 -28t36.5 -22t41 -16.5t49.5 -13.5t52 -10t58.5 -10q112 -17 205.5 -51t169 -86t118 -128t42.5 -169q0 -127 -74 -227.5t-195.5 -154t-265.5 -53.5z" />
    <glyph glyph-name="T" unicode="T" horiz-adv-x="1290" 
d="M1208 1434v-250h-438v-1184h-250v1184h-438v250h1126z" />
    <glyph glyph-name="U" unicode="U" horiz-adv-x="1392" 
d="M697 -27q-168 0 -300 84t-203 226t-71 315v836h250v-836q0 -160 87 -267.5t237 -107.5q151 0 237 107t86 268v836h250v-836q0 -129 -41.5 -243.5t-115.5 -199t-182 -133.5t-234 -49z" />
    <glyph glyph-name="V" unicode="V" horiz-adv-x="1526" 
d="M603 0l-520 1434h265l415 -1142l416 1142h264l-520 -1434h-320z" />
    <glyph glyph-name="W" unicode="W" horiz-adv-x="1909" 
d="M450 0l-367 1434h258l250 -980l250 980h228l250 -980l249 980h258l-365 -1434h-283l-224 868l-220 -868h-284z" />
    <glyph glyph-name="X" unicode="X" horiz-adv-x="1481" 
d="M61 0l525 721l-518 713h308l364 -502l366 502h308l-518 -713l524 -721h-310l-370 508l-368 -508h-311z" />
    <glyph glyph-name="Y" unicode="Y" horiz-adv-x="1357" 
d="M1001 1434h295l-492 -788v-646h-250v646l-493 788h295l323 -515z" />
    <glyph glyph-name="Z" unicode="Z" horiz-adv-x="1323" 
d="M82 0v250l822 934h-822v250h1159v-250l-822 -934h822v-250h-1159z" />
    <glyph glyph-name="bracketleft" unicode="[" horiz-adv-x="656" 
d="M554 135v-250h-431v1549h431v-250h-181v-1049h181z" />
    <glyph glyph-name="backslash" unicode="\" horiz-adv-x="827" 
d="M496 -115l-414 1549h250l413 -1549h-249z" />
    <glyph glyph-name="bracketright" unicode="]" horiz-adv-x="657" 
d="M102 -115v250h183v1049h-183v250h433v-1549h-433z" />
    <glyph glyph-name="asciicircum" unicode="^" horiz-adv-x="982" 
d="M82 1024l242 666h334l242 -666h-267l-143 393l-142 -393h-266z" />
    <glyph glyph-name="underscore" unicode="_" horiz-adv-x="1269" 
d="M123 135h1024v-250h-1024v250z" />
    <glyph glyph-name="grave" unicode="`" horiz-adv-x="1055" 
d="M299 1432h250l82 -295h-167z" />
    <glyph glyph-name="a" unicode="a" horiz-adv-x="1226" 
d="M895 1024h250v-1024h-250l-11 127q-44 -72 -114 -113t-161 -41q-149 0 -275.5 74t-199.5 200.5t-73 275.5q0 144 70 266t191.5 193t265.5 71q188 0 318 -160zM603 214q118 0 195.5 86.5t77.5 211.5q0 126 -78 212.5t-195 86.5q-120 0 -203 -87.5t-83 -211.5t84 -211
t202 -87z" />
    <glyph glyph-name="b" unicode="b" horiz-adv-x="1269" 
d="M668 1053q147 0 271.5 -72.5t196.5 -196.5t72 -270q0 -147 -72 -271.5t-196.5 -197t-271.5 -72.5q-182 0 -295 157v-130h-250v1536h250v-640q113 157 295 157zM665 215q120 0 203.5 87.5t83.5 211.5t-84 211t-203 87q-116 0 -193.5 -87t-77.5 -211q0 -126 77.5 -212.5
t193.5 -86.5z" />
    <glyph glyph-name="c" unicode="c" horiz-adv-x="1044" 
d="M758 308l225 -122q-72 -99 -179 -156t-231 -57q-139 0 -257 72.5t-186.5 196.5t-68.5 270q0 147 68.5 271.5t186.5 197t257 72.5q124 0 231 -57.5t179 -157.5l-225 -121q-75 86 -185 86t-186 -86.5t-76 -204.5q0 -117 76.5 -203t185.5 -86q108 0 185 85z" />
    <glyph glyph-name="d" unicode="d" horiz-adv-x="1269" 
d="M897 1536h250v-1536h-250v128q-111 -155 -297 -155q-146 0 -270 72.5t-196.5 196.5t-72.5 270t72.5 270t196.5 196.5t270 72.5q186 0 297 -155v640zM603 214q118 0 195.5 86.5t77.5 211.5q0 126 -78 212.5t-195 86.5q-119 0 -202.5 -87.5t-83.5 -211.5t84 -211t202 -87z
" />
    <glyph glyph-name="e" unicode="e" horiz-adv-x="1145" 
d="M573 -27q-139 0 -257 72.5t-186.5 196.5t-68.5 271t68.5 271t186.5 196.5t257 72.5q117 0 219 -52t170 -137t100.5 -200.5t15.5 -236.5h-748q22 -90 86 -146.5t157 -57.5q63 -1 117.5 31t91.5 88l255 -59q-64 -139 -188.5 -224.5t-275.5 -85.5zM322 614h503
q-19 94 -90 157.5t-162 63.5t-160.5 -62.5t-90.5 -158.5z" />
    <glyph glyph-name="f" unicode="f" horiz-adv-x="746" 
d="M413 1239v-215h279v-250h-279v-774h-250v774h-112v250h112v215q0 133 94.5 227.5t228.5 94.5q142 0 241 -109l-180 -176q-18 35 -61 35q-30 0 -51.5 -21t-21.5 -51z" />
    <glyph glyph-name="g" unicode="g" horiz-adv-x="1255" 
d="M883 1024h250v-1043q0 -108 -46 -201t-122.5 -156.5t-178 -99.5t-211.5 -36q-161 0 -299.5 95t-198.5 243l228 103q30 -85 105.5 -137t164.5 -52q125 0 216.5 66t91.5 175v144q-110 -152 -289 -152q-145 0 -267.5 72.5t-194 196.5t-71.5 270t71.5 270t194 196.5
t267.5 72.5q180 0 289 -151v124zM597 214q116 0 193 87t77 211q0 125 -77 212t-193 87t-198 -87.5t-82 -211.5t82 -211t198 -87z" />
    <glyph glyph-name="h" unicode="h" horiz-adv-x="1141" 
d="M1061 647v-647h-250v582q0 91 -64 154.5t-155 63.5t-154.5 -63.5t-63.5 -154.5v-582h-250l-1 1536h250l1 -603q114 120 281 120t286.5 -119t119.5 -287z" />
    <glyph glyph-name="i" unicode="i" 
d="M249 1156q-56 0 -93 36.5t-37 91.5q0 54 37.5 91t92.5 37q54 0 91.5 -37t37.5 -91q0 -55 -36.5 -91.5t-92.5 -36.5zM123 1024h250v-1024h-250v1024z" />
    <glyph glyph-name="j" unicode="j" horiz-adv-x="498" 
d="M252 1156q-56 0 -93 36.5t-37 91.5q0 54 37.5 91t92.5 37q54 0 91.5 -37t37.5 -91q0 -55 -36.5 -91.5t-92.5 -36.5zM-82 -512v250q87 0 147.5 59.5t60.5 145.5v1081h250v-1081q0 -189 -133.5 -322t-324.5 -133z" />
    <glyph glyph-name="k" unicode="k" horiz-adv-x="1095" 
d="M1037 0h-287l-234 402l-143 -171v-231h-250v1536h250v-916l339 404h326l-351 -419z" />
    <glyph glyph-name="l" unicode="l" 
d="M123 0v1536h250v-1536h-250z" />
    <glyph glyph-name="m" unicode="m" horiz-adv-x="1819" 
d="M123 0v1024h250v-91q115 120 281 120q105 0 194.5 -50t144.5 -135q55 85 144.5 135t194.5 50q168 0 287 -119t119 -287v-647h-250v581q0 90 -63.5 154.5t-152.5 64.5q-90 0 -153.5 -63t-63.5 -156v-581h-250v581q0 93 -63 156t-153 63q-89 0 -152.5 -64.5t-63.5 -154.5
v-581h-250z" />
    <glyph glyph-name="n" unicode="n" horiz-adv-x="1141" 
d="M1061 647v-647h-250v582q0 91 -64 154.5t-155 63.5t-154.5 -63.5t-63.5 -154.5v-582h-250l-1 1024h250l1 -91q114 120 281 120t286.5 -119t119.5 -287z" />
    <glyph glyph-name="o" unicode="o" horiz-adv-x="1146" 
d="M573 -27q-139 0 -257 72.5t-186.5 196.5t-68.5 270q0 147 68.5 271.5t186.5 197t257 72.5t257 -72.5t186.5 -197t68.5 -271.5q0 -146 -68.5 -270t-186.5 -196.5t-257 -72.5zM573 223q110 0 186.5 85.5t76.5 203.5q0 119 -77.5 205t-185.5 86q-109 0 -185.5 -86.5
t-76.5 -204.5q0 -121 77 -205t185 -84z" />
    <glyph glyph-name="p" unicode="p" horiz-adv-x="1267" 
d="M373 -512h-250v1536h250v-130q113 157 295 157q147 0 271 -72.5t195.5 -196.5t71.5 -270q0 -147 -71.5 -271.5t-195.5 -197t-271 -72.5q-182 0 -295 157v-640zM665 810q-116 0 -193.5 -87t-77.5 -211q0 -125 77.5 -212t193.5 -87q119 0 203 87t84 212q0 123 -84 210.5
t-203 87.5z" />
    <glyph glyph-name="q" unicode="q" horiz-adv-x="1267" 
d="M600 -29q-146 0 -270 72.5t-196.5 197t-72.5 271.5q0 146 72.5 270t196.5 196.5t270 72.5q182 0 295 -157v130h250v-1536h-250v640q-113 -157 -295 -157zM603 810q-119 0 -202.5 -87.5t-83.5 -210.5q0 -125 84 -212t202 -87t194.5 86.5t76.5 212.5q0 125 -77 211.5
t-194 86.5z" />
    <glyph glyph-name="r" unicode="r" horiz-adv-x="788" 
d="M124 0l-1 1024h250l1 -91q114 120 281 120q52 0 113 -17l-98 -252q-44 16 -78 16q-91 0 -154.5 -63.5t-63.5 -154.5v-582h-250z" />
    <glyph glyph-name="s" unicode="s" horiz-adv-x="889" 
d="M425 -18q-124 8 -227 66t-147 153l211 90q21 -37 74 -67t117 -30t108.5 26t44.5 76q0 18 -6 33t-22 26t-26.5 18t-37.5 15t-36 10t-40 9q-161 32 -263 113t-102 210q0 147 112 238t269 91q122 0 224 -51.5t161 -142.5l-198 -116q-22 38 -68.5 65.5t-98.5 30.5
q-74 4 -121 -23.5t-47 -85.5q0 -22 11 -38.5t33.5 -27t42.5 -16.5t52.5 -14t49.5 -13q73 -24 131 -52t109 -67.5t78 -92.5t25 -116q0 -96 -59 -172.5t-154 -114.5t-200 -30z" />
    <glyph glyph-name="t" unicode="t" horiz-adv-x="733" 
d="M672 774h-199v-774h-250v774h-151v250h151v322h250v-322h199v-250z" />
    <glyph glyph-name="u" unicode="u" horiz-adv-x="1100" 
d="M82 379v645h250v-580q0 -91 64 -154.5t154 -63.5q91 0 155 63.5t64 154.5v580h250l1 -1024h-250l-1 93q-115 -120 -282 -120q-168 0 -286.5 119t-118.5 287z" />
    <glyph glyph-name="v" unicode="v" horiz-adv-x="1190" 
d="M757 0h-323l-373 1025h267l268 -737l267 737h266z" />
    <glyph glyph-name="w" unicode="w" horiz-adv-x="1745" 
d="M651 0h-248l-342 1024h245l222 -663l222 663h246l222 -663l222 663h244l-342 -1024h-247l-223 666z" />
    <glyph glyph-name="x" unicode="x" horiz-adv-x="1221" 
d="M82 0l375 514l-372 511h308l217 -298l218 298h309l-372 -511l375 -514h-309l-221 303l-220 -303h-308z" />
    <glyph glyph-name="y" unicode="y" horiz-adv-x="1172" 
d="M825 1024h266l-561 -1536h-265l186 512l-369 1024h273l220 -682z" />
    <glyph glyph-name="z" unicode="z" horiz-adv-x="1038" 
d="M956 774l-515 -524h515v-250h-874v250l515 524h-515v250h874v-250z" />
    <glyph glyph-name="braceleft" unicode="{" horiz-adv-x="840" 
d="M628 -115q-149 0 -254 105t-105 254v250q-1 25 -24 45t-50 33t-49.5 35.5t-22.5 51.5q0 27 22.5 50.5t49.5 37t50 34t24 42.5v252q0 148 105 253.5t254 105.5h110v-250h-110q-44 0 -76.5 -32t-32.5 -77v-260q-2 -31 -20 -56.5t-43 -51.5t-35 -48q10 -23 53 -69t45 -86
v-260q0 -45 32 -77t77 -32h110v-250h-110z" />
    <glyph glyph-name="bar" unicode="|" horiz-adv-x="536" 
d="M143 1434h250v-1743h-250v1743z" />
    <glyph glyph-name="braceright" unicode="}" horiz-adv-x="840" 
d="M102 -115v250h111q45 0 77 32t32 77v260q2 40 44.5 86t52.5 69q-8 18 -51.5 67t-45.5 89v260q0 45 -32.5 77t-76.5 32h-111v250h111q149 0 253.5 -105.5t104.5 -253.5v-252q0 -22 23 -42.5t50.5 -34t50.5 -37t23 -50.5q0 -29 -23 -51.5t-50.5 -35.5t-50.5 -33t-23 -45
v-250q0 -149 -104.5 -254t-253.5 -105h-111z" />
    <glyph glyph-name="asciitilde" unicode="~" horiz-adv-x="1336" 
d="M984 408q-60 0 -144 28t-154.5 61.5t-147 61.5t-123.5 28t-68.5 -35.5t-16.5 -83.5l-244 3q-14 89 23.5 170t113 130.5t167.5 49.5q59 0 136 -29t139 -63.5t133.5 -63.5t119.5 -29q47 0 70 34.5t17 85.5l245 -2q23 -140 -53 -243t-213 -103z" />
    <glyph glyph-name="uni00A0" unicode="&#xa0;" horiz-adv-x="491" 
 />
    <glyph glyph-name="exclamdown" unicode="&#xa1;" horiz-adv-x="450" 
d="M209 1051q54 0 91 -37.5t37 -92.5q0 -53 -37 -90t-91 -37q-53 0 -90 37t-37 90q0 55 37 92.5t90 37.5zM314 594v-1004h-210v1004h210z" />
    <glyph glyph-name="cent" unicode="&#xa2;" horiz-adv-x="1118" 
d="M509 0v211q-183 32 -305 175t-122 333q0 189 122 332t305 174v209h172v-209q112 -18 204 -81t151 -159l-216 -125q-37 56 -97.5 89.5t-126.5 33.5q-108 0 -186 -78t-78 -186q0 -110 78 -188t186 -78q67 0 127 33t97 89l216 -124q-59 -96 -151 -159t-204 -81v-211h-172z
" />
    <glyph glyph-name="sterling" unicode="&#xa3;" horiz-adv-x="1223" 
d="M106 0v250q53 0 107 13.5t96 38t60 60t0 80.5q0 1 -1.5 6.5t-2.5 8.5h-259v171h132q-49 54 -77 89.5t-53.5 94.5t-25.5 119q0 143 71 265t193 193t265 71q144 0 266 -71t193.5 -192.5t71.5 -265.5h-250q0 115 -82.5 197t-198.5 82q-115 0 -197 -82t-82 -197
q0 -35 8.5 -67.5t18.5 -55t32.5 -51.5t35.5 -43t43 -44t41 -42h384v-171h-277q12 -46 12 -90q0 -34 -16 -68t-35 -49h542v-250h-1015z" />
    <glyph glyph-name="currency" unicode="&#xa4;" horiz-adv-x="1051" 
d="M204 273l-122 121l132 133q-54 86 -53.5 189t55.5 190l-134 135l122 119l133 -132q85 53 189.5 53.5t190.5 -51.5l133 130l120 -119l-131 -132q57 -88 57.5 -193t-55.5 -193l129 -129l-120 -121l-130 128q-89 -55 -193 -55t-193 57zM528 518q82 2 139 58.5t57 139.5
q0 84 -58 138.5t-138 56.5q-83 1 -139.5 -57.5t-56.5 -137.5q0 -82 58 -141t138 -57z" />
    <glyph glyph-name="yen" unicode="&#xa5;" horiz-adv-x="1367" 
d="M559 0v152h-248v171h248v101h-248v171h248v51l-492 788h293l324 -515l323 515h293l-491 -788v-51h248v-171h-248v-101h248v-171h-248v-152h-250z" />
    <glyph glyph-name="brokenbar" unicode="&#xa6;" 
d="M123 1434h250v-768h-250v768zM123 459h250v-768h-250v768z" />
    <glyph glyph-name="section" unicode="&#xa7;" horiz-adv-x="1128" 
d="M556 -381q-122 0 -224 51.5t-161 142.5l198 116q23 -38 69.5 -65.5t97.5 -30.5q74 -4 120.5 23.5t46.5 85.5q0 23 -12.5 40.5t-29 28.5t-46 19.5t-48.5 12.5t-52 9q-167 23 -279.5 156.5t-112.5 303.5q0 112 51.5 208.5t138.5 153.5q-122 67 -122 202q0 147 112 238
t269 91q122 0 224 -51.5t161 -142.5l-197 -116q-23 38 -69.5 65.5t-97.5 30.5q-74 4 -121 -23.5t-47 -85.5q0 -26 14 -45t43 -30.5t52 -17t63 -13.5q7 -1 11 -2q180 -35 289 -158.5t109 -303.5q0 -112 -52 -208t-141 -153q124 -70 124 -203q0 -147 -112 -238t-269 -91z
M575 274q84 0 147 72t63 164q0 107 -67 173.5t-171 66.5q-78 0 -141 -74t-63 -164q0 -101 66 -169.5t166 -68.5z" />
    <glyph glyph-name="dieresis" unicode="&#xa8;" horiz-adv-x="1484" 
d="M541 1096q-56 0 -93.5 36.5t-37.5 91.5q0 54 38 91.5t93 37.5q54 0 91 -37.5t37 -91.5q0 -55 -37 -91.5t-91 -36.5zM946 1096q-56 0 -93.5 36.5t-37.5 91.5q0 54 38 91.5t93 37.5q54 0 91.5 -37.5t37.5 -91.5q0 -55 -37.5 -91.5t-91.5 -36.5z" />
    <glyph glyph-name="copyright" unicode="&#xa9;" horiz-adv-x="1951" 
d="M975 -327q-146 0 -282 45t-246 127.5t-192.5 192.5t-127.5 246.5t-45 282.5q0 182 70.5 347.5t190 285t285 190t347.5 70.5t348 -70.5t285.5 -189.5t190.5 -284.5t71 -348.5q0 -182 -71 -348t-190.5 -285.5t-285.5 -190t-348 -70.5zM975 -77q178 0 327 88t233.5 236
t84.5 320q0 174 -86 322t-234.5 234.5t-324.5 86.5q-133 0 -252.5 -52t-205 -139t-135.5 -205t-50 -247q0 -178 88 -327t235.5 -233t319.5 -84zM1163 364l225 -122q-72 -99 -179 -156t-231 -57q-139 0 -257 72t-186.5 196t-68.5 270q0 147 68.5 271.5t186.5 197t257 72.5
q124 0 231 -57.5t179 -157.5l-225 -122q-76 87 -185 87q-110 0 -186 -86.5t-76 -204.5q0 -117 76.5 -202.5t185.5 -85.5q108 0 185 85z" />
    <glyph glyph-name="ordfeminine" unicode="&#xaa;" horiz-adv-x="1226" 
d="M895 1024h250v-1024h-250l-11 127q-44 -72 -114 -113t-161 -41q-149 0 -275.5 74t-199.5 200.5t-73 275.5q0 144 70 266t191.5 193t265.5 71q188 0 318 -160zM603 214q118 0 195.5 86.5t77.5 211.5q0 126 -78 212.5t-195 86.5q-120 0 -203 -87.5t-83 -211.5t84 -211
t202 -87z" />
    <glyph glyph-name="guillemotleft" unicode="&#xab;" horiz-adv-x="1204" 
d="M430 267l-307 348l307 347h255l-306 -347l306 -348h-255zM847 267l-307 348l307 347h255l-305 -347l305 -348h-255z" />
    <glyph glyph-name="logicalnot" unicode="&#xac;" horiz-adv-x="1047" 
d="M716 296v387h-634v250h884v-637h-250z" />
    <glyph glyph-name="uni00AD" unicode="&#xad;" horiz-adv-x="910" 
d="M132 739h655v-250h-655v250z" />
    <glyph glyph-name="registered" unicode="&#xae;" horiz-adv-x="1150" 
d="M574 409q-140 0 -258 69t-186.5 187.5t-68.5 258.5q0 139 68.5 257t186.5 187t258 69q142 0 261 -70.5t187 -188.5t68 -254q0 -141 -70 -260t-188.5 -187t-257.5 -68zM574 588q140 0 238 98t98 238q0 138 -98.5 235.5t-237.5 97.5q-138 0 -235.5 -97.5t-97.5 -235.5
q0 -139 97.5 -237.5t235.5 -98.5zM434 719v436h169q55 0 93.5 -40.5t38.5 -97.5q0 -39 -19 -71.5t-52 -49.5l103 -177h-116l-95 161h-21v-161h-101zM535 980h68q13 0 22.5 11t9.5 26q0 16 -9.5 26.5t-22.5 10.5h-68v-74z" />
    <glyph glyph-name="macron" unicode="&#xaf;" horiz-adv-x="1228" 
d="M268 1359h693v-188h-693v188z" />
    <glyph glyph-name="degree" unicode="&#xb0;" horiz-adv-x="935" 
d="M469 721q-162 0 -274.5 114.5t-112.5 270.5q0 158 113 271.5t274 113.5q162 0 273.5 -114.5t111.5 -270.5q0 -163 -113.5 -274t-271.5 -111zM469 971q56 0 95.5 39t39.5 96t-39.5 96t-95.5 39q-57 0 -97 -39t-40 -96t40 -96t97 -39z" />
    <glyph glyph-name="plusminus" unicode="&#xb1;" horiz-adv-x="1187" 
d="M469 386v387h-387v250h387v387h250v-387h387v-250h-387v-387h-250zM82 0v250h1024v-250h-1024z" />
    <glyph glyph-name="uni00B2" unicode="&#xb2;" horiz-adv-x="731" 
d="M98 838v132q16 11 71 46.5t83 56.5t70 55.5t69 70t43 73.5q0 39 -27 65.5t-65 26.5q-39 0 -66.5 -26.5t-27.5 -65.5h-150q0 99 71 165t173 66t172 -66t70 -165q0 -32 -14.5 -65.5t-32 -59t-52 -59t-55.5 -51.5t-61 -50h205v-149h-476z" />
    <glyph glyph-name="uni00B3" unicode="&#xb3;" horiz-adv-x="590" 
d="M296 817q-93 0 -157.5 60t-64.5 151h149q0 -31 21 -51.5t52 -20.5q30 0 51 20.5t21 51.5q0 40 -33 68.5t-92 28.5v100q56 0 81.5 24t25.5 59q0 23 -17.5 39t-41.5 16t-41 -16t-17 -39h-149q0 84 60 139.5t147 55.5q88 0 148 -55t60 -140q0 -76 -45 -129q63 -60 63 -151
t-64.5 -151t-156.5 -60z" />
    <glyph glyph-name="acute" unicode="&#xb4;" horiz-adv-x="1055" 
d="M425 1137l82 295h250l-166 -295h-166z" />
    <glyph glyph-name="uni00B5" unicode="&#xb5;" horiz-adv-x="1161" 
d="M82 -442v1466h250v-523q0 -121 72.5 -204t184.5 -83q110 0 175 82t65 205v523h250v-1024h-250v122q-114 -151 -282 -151q-121 0 -215 79v-492h-250z" />
    <glyph glyph-name="paragraph" unicode="&#xb6;" horiz-adv-x="1083" 
d="M430 -309v1044q-145 0 -246.5 102t-101.5 248q0 145 101.5 247t246.5 102h250v-1743h-250zM752 -309v1743h249v-1743h-249z" />
    <glyph glyph-name="periodcentered" unicode="&#xb7;" horiz-adv-x="420" 
d="M210 486q-54 0 -91 37t-37 91t37 91.5t91 37.5q53 0 91 -38t38 -91q0 -54 -37.5 -91t-91.5 -37z" />
    <glyph glyph-name="cedilla" unicode="&#xb8;" horiz-adv-x="1308" 
d="M635 -385q-73 -20 -138 18t-85 111l127 34q5 -20 23 -30.5t39 -4.5q21 4 31 22.5t5 39.5q-11 41 -63 36l-131 -5l145 254l114 -67l-38 -67q37 -14 64 -45.5t37 -72.5q20 -72 -18 -137.5t-112 -85.5z" />
    <glyph glyph-name="uni00B9" unicode="&#xb9;" horiz-adv-x="461" 
d="M165 838v496h-67l22 150h194v-646h-149z" />
    <glyph glyph-name="ordmasculine" unicode="&#xba;" horiz-adv-x="1146" 
d="M573 -27q-139 0 -257 72.5t-186.5 196.5t-68.5 270q0 147 68.5 271.5t186.5 197t257 72.5t257 -72.5t186.5 -197t68.5 -271.5q0 -146 -68.5 -270t-186.5 -196.5t-257 -72.5zM573 223q110 0 186.5 85.5t76.5 203.5q0 119 -77.5 205t-185.5 86q-109 0 -185.5 -86.5
t-76.5 -204.5q0 -121 77 -205t185 -84z" />
    <glyph glyph-name="guillemotright" unicode="&#xbb;" horiz-adv-x="1224" 
d="M519 267l306 348l-306 347h255l307 -347l-307 -348h-255zM102 267l306 348l-306 347h255l308 -347l-308 -348h-255z" />
    <glyph glyph-name="onequarter" unicode="&#xbc;" horiz-adv-x="1630" 
d="M165 838v496h-67l22 150h194v-646h-149zM175 0l827 1434h207l-827 -1434h-207zM1273 0v100h-252v181l232 365h169v-396h61v-150h-61v-100h-149zM1167 250h119v189z" />
    <glyph glyph-name="onehalf" unicode="&#xbd;" horiz-adv-x="1653" 
d="M165 838v496h-67l22 150h194v-646h-149zM175 0l827 1434h207l-827 -1434h-207zM1021 0v132q18 12 71 47t82.5 56.5t70.5 55.5t68.5 70t43.5 74q0 39 -26.5 65t-65.5 26t-67 -26t-28 -65h-149q0 100 71.5 170t172.5 70q100 0 170.5 -70t70.5 -170q0 -27 -8 -53
t-27.5 -53.5t-34 -46.5t-47.5 -48.5t-47 -41t-51 -42.5h205v-150h-475z" />
    <glyph glyph-name="threequarters" unicode="&#xbe;" horiz-adv-x="1759" 
d="M296 817q-93 0 -157.5 60t-64.5 151h149q0 -31 21 -51.5t52 -20.5q30 0 51 20.5t21 51.5q0 40 -33 68.5t-92 28.5v100q56 0 81.5 24t25.5 59q0 23 -17.5 39t-41.5 16t-41 -16t-17 -39h-149q0 84 60 139.5t147 55.5q88 0 148 -55t60 -140q0 -76 -45 -129q63 -60 63 -151
t-64.5 -151t-156.5 -60zM304 0l828 1434h206l-827 -1434h-207zM1402 0v100h-252v181l232 365h169v-396h61v-150h-61v-100h-149zM1296 250h119v189z" />
    <glyph glyph-name="questiondown" unicode="&#xbf;" horiz-adv-x="1125" 
d="M523 794q-53 0 -90 37t-37 90q0 55 37 92.5t90 37.5q54 0 91 -37.5t37 -92.5q0 -53 -37 -90t-91 -37zM547 -436q-126 0 -233.5 62t-169.5 169t-62 232q0 131 64 242t175 170q40 22 63.5 61t23.5 86h249q0 -116 -58 -213.5t-161 -153.5q-50 -27 -78 -78t-28 -114
q0 -88 63 -150.5t152 -62.5t152 62.5t63 150.5h250q0 -125 -62 -232t-169.5 -169t-233.5 -62z" />
    <glyph glyph-name="Agrave" unicode="&#xc0;" horiz-adv-x="1492" 
d="M478 1841h250l82 -295h-166zM602 1434h288l521 -1434h-265l-92 254h-615l-92 -254h-265zM530 504h432l-217 591z" />
    <glyph glyph-name="Aacute" unicode="&#xc1;" horiz-adv-x="1492" 
d="M681 1546l82 295h250l-165 -295h-167zM602 1434h288l521 -1434h-265l-92 254h-615l-92 -254h-265zM530 504h432l-217 591z" />
    <glyph glyph-name="Acircumflex" unicode="&#xc2;" horiz-adv-x="1492" 
d="M886 1841l198 -295h-166l-172 198l-169 -198h-166l194 295h281zM602 1434h288l521 -1434h-265l-92 254h-615l-92 -254h-265zM530 504h432l-217 591z" />
    <glyph glyph-name="Atilde" unicode="&#xc3;" horiz-adv-x="1492" 
d="M905 1541q-34 0 -90.5 27.5t-103 59t-88 51t-53.5 7.5q-27 -28 -9 -90l-146 -40q-41 120 8.5 205t162.5 85q43 0 115 -36.5t132.5 -73t76.5 -36.5q28 0 31 30t-10 58l148 48q41 -124 -11.5 -209.5t-162.5 -85.5zM602 1434h288l521 -1434h-265l-92 254h-615l-92 -254h-265
zM530 504h432l-217 591z" />
    <glyph glyph-name="Adieresis" unicode="&#xc4;" horiz-adv-x="1492" 
d="M545 1505q-56 0 -93.5 36.5t-37.5 91.5q0 54 38 91.5t93 37.5q54 0 91 -37.5t37 -91.5q0 -55 -37 -91.5t-91 -36.5zM950 1505q-56 0 -93.5 36.5t-37.5 91.5q0 54 38 91.5t93 37.5q54 0 91 -37.5t37 -91.5q0 -55 -37 -91.5t-91 -36.5zM602 1434h288l521 -1434h-265
l-92 254h-615l-92 -254h-265zM530 504h432l-217 591z" />
    <glyph glyph-name="Aring" unicode="&#xc5;" horiz-adv-x="1492" 
d="M746 1503q-78 0 -134 57.5t-56 135.5q0 77 56 132.5t134 55.5t134 -55.5t56 -132.5q0 -79 -56 -136t-134 -57zM746 1625q29 0 49 20.5t20 49.5q0 28 -20 47.5t-49 19.5t-48.5 -19.5t-19.5 -47.5q0 -29 19.5 -49.5t48.5 -20.5zM602 1434h288l521 -1434h-265l-92 254h-615
l-92 -254h-265zM530 504h432l-217 591z" />
    <glyph glyph-name="AE" unicode="&#xc6;" horiz-adv-x="1718" 
d="M82 0l520 1434h1014v-250h-506v-342h408v-250h-408v-342h506v-250h-756v254h-421l-92 -254h-265zM530 504h330v680h-82z" />
    <glyph glyph-name="Ccedilla" unicode="&#xc7;" horiz-adv-x="1452" 
d="M795 -385q-73 -20 -139 18t-86 111l128 34q4 -20 23 -30.5t39 -4.5q21 4 31.5 22.5t5.5 39.5q-12 41 -63 36l-131 -5l82 145q-169 26 -306.5 129t-217 263t-79.5 344q0 152 55.5 289.5t150 237t225 158t273.5 58.5q170 0 317.5 -79t246.5 -216l-224 -119q-63 76 -152 120
t-188 44q-188 0 -321 -145t-133 -348q0 -133 60.5 -247t165.5 -180.5t228 -66.5q100 0 189 44.5t151 121.5l224 -121q-92 -127 -226 -205t-290 -88l-11 -19q37 -14 64 -45.5t38 -72.5q19 -72 -19 -137.5t-111 -85.5z" />
    <glyph glyph-name="Egrave" unicode="&#xc8;" horiz-adv-x="1124" 
d="M295 1841h250l82 -295h-167zM123 0v1434h899v-250h-649v-291h515v-250h-515v-393h649v-250h-899z" />
    <glyph glyph-name="Eacute" unicode="&#xc9;" horiz-adv-x="1124" 
d="M497 1546l82 295h249l-164 -295h-167zM123 0v1434h899v-250h-649v-291h515v-250h-515v-393h649v-250h-899z" />
    <glyph glyph-name="Ecircumflex" unicode="&#xca;" horiz-adv-x="1124" 
d="M702 1841l198 -295h-166l-172 198l-170 -198h-166l195 295h281zM123 0v1434h899v-250h-649v-291h515v-250h-515v-393h649v-250h-899z" />
    <glyph glyph-name="Edieresis" unicode="&#xcb;" horiz-adv-x="1124" 
d="M360 1505q-56 0 -93.5 36.5t-37.5 91.5q0 54 38 91.5t93 37.5q54 0 91.5 -37.5t37.5 -91.5q0 -55 -37.5 -91.5t-91.5 -36.5zM766 1505q-56 0 -93.5 36.5t-37.5 91.5q0 54 38 91.5t93 37.5q54 0 91.5 -37.5t37.5 -91.5q0 -55 -37.5 -91.5t-91.5 -36.5zM123 0v1434h899
v-250h-649v-291h515v-250h-515v-393h649v-250h-899z" />
    <glyph glyph-name="Igrave" unicode="&#xcc;" horiz-adv-x="557" 
d="M11 1841h250l82 -295h-167zM154 0v1434h249v-1434h-249z" />
    <glyph glyph-name="Iacute" unicode="&#xcd;" horiz-adv-x="557" 
d="M213 1546l82 295h250l-165 -295h-167zM154 0v1434h249v-1434h-249z" />
    <glyph glyph-name="Icircumflex" unicode="&#xce;" horiz-adv-x="557" 
d="M419 1841l197 -295h-165l-172 198l-170 -198h-166l194 295h282zM154 0v1434h249v-1434h-249z" />
    <glyph glyph-name="Idieresis" unicode="&#xcf;" horiz-adv-x="557" 
d="M77 1505q-56 0 -93.5 36.5t-37.5 91.5q0 54 38 91.5t93 37.5q54 0 91.5 -37.5t37.5 -91.5q0 -55 -37.5 -91.5t-91.5 -36.5zM482 1505q-56 0 -93.5 36.5t-37.5 91.5q0 54 38 91.5t93 37.5q54 0 91.5 -37.5t37.5 -91.5q0 -55 -37.5 -91.5t-91.5 -36.5zM154 0v1434h249
v-1434h-249z" />
    <glyph glyph-name="Eth" unicode="&#xd0;" horiz-adv-x="1495" 
d="M243 0v643h-141v250h141v541h474q145 0 278 -57t229 -153t153 -229t57 -278t-57 -278t-153 -229t-229 -153t-278 -57h-474zM493 250h224q127 0 234.5 63t170 170.5t62.5 233.5q0 95 -37.5 182t-100 149t-149 99t-180.5 37h-224v-291h282v-250h-282v-393z" />
    <glyph glyph-name="Ntilde" unicode="&#xd1;" horiz-adv-x="1371" 
d="M845 1541q-34 0 -90.5 27.5t-103 59t-88 51t-53.5 7.5q-27 -27 -10 -90l-146 -40q-41 120 8.5 205t162.5 85q43 0 115 -36.5t133 -73t77 -36.5q28 0 30.5 30t-11.5 58l149 48q41 -124 -11 -209.5t-162 -85.5zM123 0v1434h270l605 -982v982h250v-1434h-269l-606 982v-982
h-250z" />
    <glyph glyph-name="Ograve" unicode="&#xd2;" horiz-adv-x="1576" 
d="M521 1841h250l82 -295h-167zM788 -27q-143 0 -274 59t-225.5 158.5t-150.5 237.5t-56 289t56 288.5t150.5 237t225.5 158.5t274 59q191 0 354 -99.5t258 -270.5t95 -373q0 -151 -56 -289t-151 -237.5t-226 -158.5t-274 -59zM788 223q188 0 322.5 146t134.5 348
q0 133 -61.5 246.5t-167 180t-228.5 66.5q-188 0 -322 -145.5t-134 -347.5q0 -203 134 -348.5t322 -145.5z" />
    <glyph glyph-name="Oacute" unicode="&#xd3;" horiz-adv-x="1576" 
d="M723 1546l82 295h250l-165 -295h-167zM788 -27q-143 0 -274 59t-225.5 158.5t-150.5 237.5t-56 289t56 288.5t150.5 237t225.5 158.5t274 59q191 0 354 -99.5t258 -270.5t95 -373q0 -151 -56 -289t-151 -237.5t-226 -158.5t-274 -59zM788 223q188 0 322.5 146t134.5 348
q0 133 -61.5 246.5t-167 180t-228.5 66.5q-188 0 -322 -145.5t-134 -347.5q0 -203 134 -348.5t322 -145.5z" />
    <glyph glyph-name="Ocircumflex" unicode="&#xd4;" horiz-adv-x="1576" 
d="M929 1841l197 -295h-165l-173 198l-170 -198h-165l194 295h282zM788 -27q-143 0 -274 59t-225.5 158.5t-150.5 237.5t-56 289t56 288.5t150.5 237t225.5 158.5t274 59q191 0 354 -99.5t258 -270.5t95 -373q0 -151 -56 -289t-151 -237.5t-226 -158.5t-274 -59zM788 223
q188 0 322.5 146t134.5 348q0 133 -61.5 246.5t-167 180t-228.5 66.5q-188 0 -322 -145.5t-134 -347.5q0 -203 134 -348.5t322 -145.5z" />
    <glyph glyph-name="Otilde" unicode="&#xd5;" horiz-adv-x="1576" 
d="M948 1541q-34 0 -90.5 27.5t-103.5 59t-88.5 51t-53.5 7.5q-26 -27 -9 -90l-146 -40q-41 120 8.5 205t163.5 85q43 0 115 -36.5t132.5 -73t76.5 -36.5q28 0 30.5 30t-10.5 58l148 48q41 -124 -11 -209.5t-162 -85.5zM788 -27q-143 0 -274 59t-225.5 158.5t-150.5 237.5
t-56 289t56 288.5t150.5 237t225.5 158.5t274 59q191 0 354 -99.5t258 -270.5t95 -373q0 -151 -56 -289t-151 -237.5t-226 -158.5t-274 -59zM788 223q188 0 322.5 146t134.5 348q0 133 -61.5 246.5t-167 180t-228.5 66.5q-188 0 -322 -145.5t-134 -347.5q0 -203 134 -348.5
t322 -145.5z" />
    <glyph glyph-name="Odieresis" unicode="&#xd6;" horiz-adv-x="1576" 
d="M587 1505q-56 0 -93.5 36.5t-37.5 91.5q0 54 38 91.5t93 37.5q54 0 91.5 -37.5t37.5 -91.5q0 -55 -37.5 -91.5t-91.5 -36.5zM992 1505q-56 0 -93.5 36.5t-37.5 91.5q0 54 38 91.5t93 37.5q54 0 91.5 -37.5t37.5 -91.5q0 -55 -37.5 -91.5t-91.5 -36.5zM788 -27
q-143 0 -274 59t-225.5 158.5t-150.5 237.5t-56 289t56 288.5t150.5 237t225.5 158.5t274 59q191 0 354 -99.5t258 -270.5t95 -373q0 -151 -56 -289t-151 -237.5t-226 -158.5t-274 -59zM788 223q188 0 322.5 146t134.5 348q0 133 -61.5 246.5t-167 180t-228.5 66.5
q-188 0 -322 -145.5t-134 -347.5q0 -203 134 -348.5t322 -145.5z" />
    <glyph glyph-name="multiply" unicode="&#xd7;" horiz-adv-x="1063" 
d="M258 164l-176 176l272 274l-272 275l176 176l272 -274l275 274l177 -176l-274 -275l274 -274l-177 -176l-275 274z" />
    <glyph glyph-name="Oslash" unicode="&#xd8;" horiz-adv-x="1576" 
d="M457 -111l-217 125l84 147q-112 104 -177 249t-65 307q0 151 56 288.5t150.5 237t225.5 158.5t274 59q134 0 256 -51l78 135l217 -125l-85 -145q113 -104 177 -249t64 -308q0 -151 -56 -289t-151 -237.5t-226 -158.5t-274 -59q-128 0 -253 54zM457 391l459 795
q-62 24 -128 24q-188 0 -322 -145.5t-134 -347.5q0 -191 125 -326zM788 223q188 0 322.5 146t134.5 348q0 190 -123 326l-459 -794q63 -26 125 -26z" />
    <glyph glyph-name="Ugrave" unicode="&#xd9;" horiz-adv-x="1392" 
d="M429 1841h250l82 -295h-167zM697 -27q-168 0 -300 84t-203 226t-71 315v836h250v-836q0 -160 87 -267.5t237 -107.5q151 0 237 107t86 268v836h250v-836q0 -129 -41.5 -243.5t-115.5 -199t-182 -133.5t-234 -49z" />
    <glyph glyph-name="Uacute" unicode="&#xda;" horiz-adv-x="1392" 
d="M631 1546l82 295h250l-165 -295h-167zM697 -27q-168 0 -300 84t-203 226t-71 315v836h250v-836q0 -160 87 -267.5t237 -107.5q151 0 237 107t86 268v836h250v-836q0 -129 -41.5 -243.5t-115.5 -199t-182 -133.5t-234 -49z" />
    <glyph glyph-name="Ucircumflex" unicode="&#xdb;" horiz-adv-x="1392" 
d="M837 1841l197 -295h-167l-171 198l-170 -198h-166l195 295h282zM697 -27q-168 0 -300 84t-203 226t-71 315v836h250v-836q0 -160 87 -267.5t237 -107.5q151 0 237 107t86 268v836h250v-836q0 -129 -41.5 -243.5t-115.5 -199t-182 -133.5t-234 -49z" />
    <glyph glyph-name="Udieresis" unicode="&#xdc;" horiz-adv-x="1392" 
d="M495 1505q-56 0 -93.5 36.5t-37.5 91.5q0 54 38 91.5t93 37.5q54 0 91 -37.5t37 -91.5q0 -55 -37 -91.5t-91 -36.5zM900 1505q-56 0 -93.5 36.5t-37.5 91.5q0 54 38 91.5t93 37.5q54 0 91.5 -37.5t37.5 -91.5q0 -55 -37.5 -91.5t-91.5 -36.5zM697 -27q-168 0 -300 84
t-203 226t-71 315v836h250v-836q0 -160 87 -267.5t237 -107.5q151 0 237 107t86 268v836h250v-836q0 -129 -41.5 -243.5t-115.5 -199t-182 -133.5t-234 -49z" />
    <glyph glyph-name="Yacute" unicode="&#xdd;" horiz-adv-x="1357" 
d="M613 1546l82 295h250l-165 -295h-167zM1001 1434h295l-492 -788v-646h-250v646l-493 788h295l323 -515z" />
    <glyph glyph-name="Thorn" unicode="&#xde;" horiz-adv-x="1113" 
d="M123 0v1434h250v-286h262q174 0 295.5 -126.5t121.5 -304.5q0 -179 -123.5 -305t-293.5 -126h-262v-286h-250zM373 536h235q80 0 137 57.5t57 140.5t-57 141t-137 58h-235v-397z" />
    <glyph glyph-name="germandbls" unicode="&#xdf;" horiz-adv-x="1172" 
d="M123 0v921q0 139 68.5 257t186.5 187t258 69q170 0 287 -117.5t117 -290.5q0 -87 -35 -166t-110 -115q63 -11 107.5 -46t67 -86.5t32 -102.5t9.5 -108q0 -171 -122 -286.5t-296 -115.5h-76l-35 214h87q91 0 155 60.5t64 145.5q0 84 -64 143t-155 62l-87 3v203l25 5
q77 8 130.5 61t53.5 129q0 79 -54.5 136t-129.5 57q-97 0 -165.5 -69t-68.5 -167v-983h-250z" />
    <glyph glyph-name="agrave" unicode="&#xe0;" horiz-adv-x="1226" 
d="M360 1432h250l82 -295h-166zM895 1024h250v-1024h-250l-11 127q-44 -72 -114 -113t-161 -41q-149 0 -275.5 74t-199.5 200.5t-73 275.5q0 144 70 266t191.5 193t265.5 71q188 0 318 -160zM603 214q118 0 195.5 86.5t77.5 211.5q0 126 -78 212.5t-195 86.5
q-120 0 -203 -87.5t-83 -211.5t84 -211t202 -87z" />
    <glyph glyph-name="aacute" unicode="&#xe1;" horiz-adv-x="1226" 
d="M563 1137l82 295h250l-165 -295h-167zM895 1024h250v-1024h-250l-11 127q-44 -72 -114 -113t-161 -41q-149 0 -275.5 74t-199.5 200.5t-73 275.5q0 144 70 266t191.5 193t265.5 71q188 0 318 -160zM603 214q118 0 195.5 86.5t77.5 211.5q0 126 -78 212.5t-195 86.5
q-120 0 -203 -87.5t-83 -211.5t84 -211t202 -87z" />
    <glyph glyph-name="acircumflex" unicode="&#xe2;" horiz-adv-x="1226" 
d="M768 1432l199 -295h-167l-171 197l-170 -197h-167l195 295h281zM895 1024h250v-1024h-250l-11 127q-44 -72 -114 -113t-161 -41q-149 0 -275.5 74t-199.5 200.5t-73 275.5q0 144 70 266t191.5 193t265.5 71q188 0 318 -160zM603 214q118 0 195.5 86.5t77.5 211.5
q0 126 -78 212.5t-195 86.5q-120 0 -203 -87.5t-83 -211.5t84 -211t202 -87z" />
    <glyph glyph-name="atilde" unicode="&#xe3;" horiz-adv-x="1226" 
d="M787 1132q-43 0 -120.5 44.5t-138 79.5t-75.5 20q-27 -29 -11 -89l-145 -40q-41 120 8.5 205t162.5 85q43 0 115 -36.5t133 -73.5t77 -37q28 0 30.5 30t-11.5 58l149 48q41 -124 -11.5 -209t-162.5 -85zM895 1024h250v-1024h-250l-11 127q-44 -72 -114 -113t-161 -41
q-149 0 -275.5 74t-199.5 200.5t-73 275.5q0 144 70 266t191.5 193t265.5 71q188 0 318 -160zM603 214q118 0 195.5 86.5t77.5 211.5q0 126 -78 212.5t-195 86.5q-120 0 -203 -87.5t-83 -211.5t84 -211t202 -87z" />
    <glyph glyph-name="adieresis" unicode="&#xe4;" horiz-adv-x="1226" 
d="M427 1096q-56 0 -93.5 36.5t-37.5 91.5q0 54 38 91.5t93 37.5q54 0 91 -37.5t37 -91.5q0 -55 -37 -91.5t-91 -36.5zM833 1096q-56 0 -94 36.5t-38 91.5q0 54 38.5 91.5t93.5 37.5q54 0 91 -37.5t37 -91.5q0 -55 -37 -91.5t-91 -36.5zM895 1024h250v-1024h-250l-11 127
q-44 -72 -114 -113t-161 -41q-149 0 -275.5 74t-199.5 200.5t-73 275.5q0 144 70 266t191.5 193t265.5 71q188 0 318 -160zM603 214q118 0 195.5 86.5t77.5 211.5q0 126 -78 212.5t-195 86.5q-120 0 -203 -87.5t-83 -211.5t84 -211t202 -87z" />
    <glyph glyph-name="aring" unicode="&#xe5;" horiz-adv-x="1226" 
d="M629 1094q-78 0 -134.5 57t-56.5 135q0 77 56.5 133t134.5 56t133.5 -56t55.5 -133q0 -79 -55.5 -135.5t-133.5 -56.5zM629 1215q28 0 48 20.5t20 49.5q0 28 -20 48t-48 20q-29 0 -49 -20t-20 -48q0 -29 20 -49.5t49 -20.5zM895 1024h250v-1024h-250l-11 127
q-44 -72 -114 -113t-161 -41q-149 0 -275.5 74t-199.5 200.5t-73 275.5q0 144 70 266t191.5 193t265.5 71q188 0 318 -160zM603 214q118 0 195.5 86.5t77.5 211.5q0 126 -78 212.5t-195 86.5q-120 0 -203 -87.5t-83 -211.5t84 -211t202 -87z" />
    <glyph glyph-name="ae" unicode="&#xe6;" horiz-adv-x="1770" 
d="M366 -27q-143 0 -239 94t-96 227q0 131 95 225.5t238 94.5h313q-12 81 -70.5 135t-145.5 54q-81 0 -147 -39l-138 208q127 81 282 81q109 0 205.5 -48.5t161.5 -134.5q68 85 165 134t208 49q157 0 282 -87.5t184.5 -232t37.5 -306.5h-748q21 -91 86.5 -147.5t159.5 -56.5
q63 0 117 31.5t90 87.5l255 -59q-64 -139 -188.5 -224.5t-275.5 -85.5q-122 0 -228 58.5t-174 158.5q-60 -91 -178.5 -154t-251.5 -63zM946 614h504q-19 94 -90 157.5t-162 63.5q-92 0 -161.5 -63t-90.5 -158zM366 193q75 0 138.5 32.5t105.5 88.5q42 49 66 113h-312
q-50 0 -82.5 -33.5t-32.5 -81.5t33 -83.5t84 -35.5z" />
    <glyph glyph-name="ccedilla" unicode="&#xe7;" horiz-adv-x="1044" 
d="M582 -385q-73 -20 -139 18t-86 111l128 34q4 -20 23 -30.5t39 -4.5q21 4 31.5 22.5t5.5 39.5q-12 41 -63 36l-131 -5l83 148q-177 37 -294.5 185.5t-117.5 342.5q0 147 68.5 271.5t186.5 197t257 72.5q124 0 231 -57.5t179 -157.5l-225 -121q-75 86 -185 86t-186 -86.5
t-76 -204.5q0 -117 76.5 -203t185.5 -86q108 0 185 85l225 -122q-65 -89 -158.5 -145t-202.5 -66l-12 -19q37 -14 64 -45.5t38 -72.5q19 -72 -19 -137.5t-111 -85.5z" />
    <glyph glyph-name="egrave" unicode="&#xe8;" horiz-adv-x="1145" 
d="M305 1432h250l82 -295h-166zM573 -27q-139 0 -257 72.5t-186.5 196.5t-68.5 271t68.5 271t186.5 196.5t257 72.5q117 0 219 -52t170 -137t100.5 -200.5t15.5 -236.5h-748q22 -90 86 -146.5t157 -57.5q63 -1 117.5 31t91.5 88l255 -59q-64 -139 -188.5 -224.5
t-275.5 -85.5zM322 614h503q-19 94 -90 157.5t-162 63.5t-160.5 -62.5t-90.5 -158.5z" />
    <glyph glyph-name="eacute" unicode="&#xe9;" horiz-adv-x="1145" 
d="M508 1137l82 295h250l-165 -295h-167zM573 -27q-139 0 -257 72.5t-186.5 196.5t-68.5 271t68.5 271t186.5 196.5t257 72.5q117 0 219 -52t170 -137t100.5 -200.5t15.5 -236.5h-748q22 -90 86 -146.5t157 -57.5q63 -1 117.5 31t91.5 88l255 -59q-64 -139 -188.5 -224.5
t-275.5 -85.5zM322 614h503q-19 94 -90 157.5t-162 63.5t-160.5 -62.5t-90.5 -158.5z" />
    <glyph glyph-name="ecircumflex" unicode="&#xea;" horiz-adv-x="1145" 
d="M713 1432l198 -295h-167l-171 197l-170 -197h-165l194 295h281zM573 -27q-139 0 -257 72.5t-186.5 196.5t-68.5 271t68.5 271t186.5 196.5t257 72.5q117 0 219 -52t170 -137t100.5 -200.5t15.5 -236.5h-748q22 -90 86 -146.5t157 -57.5q63 -1 117.5 31t91.5 88l255 -59
q-64 -139 -188.5 -224.5t-275.5 -85.5zM322 614h503q-19 94 -90 157.5t-162 63.5t-160.5 -62.5t-90.5 -158.5z" />
    <glyph glyph-name="edieresis" unicode="&#xeb;" horiz-adv-x="1145" 
d="M372 1096q-56 0 -93.5 36.5t-37.5 91.5q0 54 38 91.5t93 37.5q54 0 91 -37.5t37 -91.5q0 -55 -37 -91.5t-91 -36.5zM777 1096q-56 0 -93.5 36.5t-37.5 91.5q0 54 38 91.5t93 37.5q54 0 91 -37.5t37 -91.5q0 -55 -37 -91.5t-91 -36.5zM573 -27q-139 0 -257 72.5
t-186.5 196.5t-68.5 271t68.5 271t186.5 196.5t257 72.5q117 0 219 -52t170 -137t100.5 -200.5t15.5 -236.5h-748q22 -90 86 -146.5t157 -57.5q63 -1 117.5 31t91.5 88l255 -59q-64 -139 -188.5 -224.5t-275.5 -85.5zM322 614h503q-19 94 -90 157.5t-162 63.5t-160.5 -62.5
t-90.5 -158.5z" />
    <glyph glyph-name="igrave" unicode="&#xec;" 
d="M-19 1432h249l82 -295h-167zM123 1024h250v-1024h-250v1024z" />
    <glyph glyph-name="iacute" unicode="&#xed;" 
d="M182 1137l82 295h250l-165 -295h-167zM123 1024h250v-1024h-250v1024z" />
    <glyph glyph-name="icircumflex" unicode="&#xee;" 
d="M388 1432l198 -295h-166l-172 197l-170 -197h-166l194 295h282zM123 1024h250v-1024h-250v1024z" />
    <glyph glyph-name="idieresis" unicode="&#xef;" 
d="M46 1096q-56 0 -93.5 36.5t-37.5 91.5q0 54 38 91.5t93 37.5q54 0 91.5 -37.5t37.5 -91.5q0 -55 -37.5 -91.5t-91.5 -36.5zM452 1096q-56 0 -93.5 36.5t-37.5 91.5q0 54 38 91.5t93 37.5q54 0 91.5 -37.5t37.5 -91.5q0 -55 -37.5 -91.5t-91.5 -36.5zM123 1024h250v-1024
h-250v1024z" />
    <glyph glyph-name="eth" unicode="&#xf0;" horiz-adv-x="1153" 
d="M598 -27q-140 0 -259 69t-188 187.5t-69 257.5q0 140 69 259t188 188.5t259 69.5q94 0 163 -62q-63 182 -154 270l-160 -157l-121 122l126 123q-49 13 -99 13l-2 250q153 0 292 -74l132 129l120 -121l-112 -109q154 -142 241 -371.5t88 -490.5q0 -243 -144.5 -398
t-369.5 -155zM598 223q109 0 186.5 78.5t77.5 185.5q0 109 -78 188t-186 79q-110 0 -188 -79t-78 -188q0 -108 78 -186t188 -78z" />
    <glyph glyph-name="ntilde" unicode="&#xf1;" horiz-adv-x="1142" 
d="M767 1132q-34 0 -90.5 27.5t-103 58.5t-88 50.5t-53.5 7.5q-26 -28 -10 -89l-146 -40q-41 120 8.5 205t162.5 85q43 0 115 -36.5t133 -73.5t77 -37q28 0 31 30t-11 58l148 48q41 -124 -11 -209t-162 -85zM1061 647v-647h-250v582q0 91 -64 154.5t-155 63.5t-154.5 -63.5
t-63.5 -154.5v-582h-250l-1 1024h250l1 -91q114 120 281 120t286.5 -119t119.5 -287z" />
    <glyph glyph-name="ograve" unicode="&#xf2;" horiz-adv-x="1146" 
d="M306 1432h250l82 -295h-167zM573 -27q-139 0 -257 72.5t-186.5 196.5t-68.5 270q0 147 68.5 271.5t186.5 197t257 72.5t257 -72.5t186.5 -197t68.5 -271.5q0 -146 -68.5 -270t-186.5 -196.5t-257 -72.5zM573 223q110 0 186.5 85.5t76.5 203.5q0 119 -77.5 205t-185.5 86
q-109 0 -185.5 -86.5t-76.5 -204.5q0 -121 77 -205t185 -84z" />
    <glyph glyph-name="oacute" unicode="&#xf3;" horiz-adv-x="1146" 
d="M508 1137l82 295h250l-165 -295h-167zM573 -27q-139 0 -257 72.5t-186.5 196.5t-68.5 270q0 147 68.5 271.5t186.5 197t257 72.5t257 -72.5t186.5 -197t68.5 -271.5q0 -146 -68.5 -270t-186.5 -196.5t-257 -72.5zM573 223q110 0 186.5 85.5t76.5 203.5q0 119 -77.5 205
t-185.5 86q-109 0 -185.5 -86.5t-76.5 -204.5q0 -121 77 -205t185 -84z" />
    <glyph glyph-name="ocircumflex" unicode="&#xf4;" horiz-adv-x="1146" 
d="M714 1432l197 -295h-166l-172 197l-170 -197h-165l194 295h282zM573 -27q-139 0 -257 72.5t-186.5 196.5t-68.5 270q0 147 68.5 271.5t186.5 197t257 72.5t257 -72.5t186.5 -197t68.5 -271.5q0 -146 -68.5 -270t-186.5 -196.5t-257 -72.5zM573 223q110 0 186.5 85.5
t76.5 203.5q0 119 -77.5 205t-185.5 86q-109 0 -185.5 -86.5t-76.5 -204.5q0 -121 77 -205t185 -84z" />
    <glyph glyph-name="otilde" unicode="&#xf5;" horiz-adv-x="1146" 
d="M733 1132q-43 0 -121 44.5t-139 79.5t-76 20q-26 -27 -9 -89l-146 -40q-41 120 8.5 205t163.5 85q34 0 86.5 -23t97 -50.5t86 -50.5t54.5 -23q28 0 30.5 30t-10.5 58l148 48q41 -124 -11 -209t-162 -85zM573 -27q-139 0 -257 72.5t-186.5 196.5t-68.5 270
q0 147 68.5 271.5t186.5 197t257 72.5t257 -72.5t186.5 -197t68.5 -271.5q0 -146 -68.5 -270t-186.5 -196.5t-257 -72.5zM573 223q110 0 186.5 85.5t76.5 203.5q0 119 -77.5 205t-185.5 86q-109 0 -185.5 -86.5t-76.5 -204.5q0 -121 77 -205t185 -84z" />
    <glyph glyph-name="odieresis" unicode="&#xf6;" horiz-adv-x="1146" 
d="M372 1096q-56 0 -93.5 36.5t-37.5 91.5q0 54 38 91.5t93 37.5q54 0 91.5 -37.5t37.5 -91.5q0 -55 -37.5 -91.5t-91.5 -36.5zM777 1096q-56 0 -93.5 36.5t-37.5 91.5q0 54 38 91.5t93 37.5q54 0 91.5 -37.5t37.5 -91.5q0 -55 -37.5 -91.5t-91.5 -36.5zM573 -27
q-139 0 -257 72.5t-186.5 196.5t-68.5 270q0 147 68.5 271.5t186.5 197t257 72.5t257 -72.5t186.5 -197t68.5 -271.5q0 -146 -68.5 -270t-186.5 -196.5t-257 -72.5zM573 223q110 0 186.5 85.5t76.5 203.5q0 119 -77.5 205t-185.5 86q-109 0 -185.5 -86.5t-76.5 -204.5
q0 -121 77 -205t185 -84z" />
    <glyph glyph-name="divide" unicode="&#xf7;" horiz-adv-x="1187" 
d="M594 1121q56 0 96 -41t40 -97t-40 -96t-96 -40q-58 0 -97.5 39.5t-39.5 96.5t39.5 97.5t97.5 40.5zM82 489v250h1024v-250h-1024zM594 382q56 0 96.5 -40.5t40.5 -96.5q0 -57 -40.5 -97t-96.5 -40q-58 0 -97.5 40t-39.5 97q0 56 39.5 96.5t97.5 40.5z" />
    <glyph glyph-name="oslash" unicode="&#xf8;" horiz-adv-x="1146" 
d="M350 -77l-176 102l53 92q-78 75 -122 177.5t-44 217.5q0 147 68.5 271.5t186.5 197t257 72.5q95 0 175 -33l50 84l175 -102l-53 -93q77 -75 121 -178t44 -219q0 -146 -68.5 -270t-186.5 -196.5t-257 -72.5q-92 0 -175 34zM351 328l284 492q-86 18 -165.5 -21.5t-128 -121
t-48.5 -179.5q0 -99 58 -170zM512 206q88 -18 168 21.5t127 120t47 178.5q0 96 -57 173z" />
    <glyph glyph-name="ugrave" unicode="&#xf9;" horiz-adv-x="1101" 
d="M313 1434h250l82 -295h-166zM82 379v645h250v-580q0 -91 64 -154.5t154 -63.5q91 0 155 63.5t64 154.5v580h250l1 -1024h-250l-1 93q-115 -120 -282 -120q-168 0 -286.5 119t-118.5 287z" />
    <glyph glyph-name="uacute" unicode="&#xfa;" horiz-adv-x="1101" 
d="M515 1139l82 295h250l-165 -295h-167zM82 379v645h250v-580q0 -91 64 -154.5t154 -63.5q91 0 155 63.5t64 154.5v580h250l1 -1024h-250l-1 93q-115 -120 -282 -120q-168 0 -286.5 119t-118.5 287z" />
    <glyph glyph-name="ucircumflex" unicode="&#xfb;" horiz-adv-x="1101" 
d="M721 1434l199 -295h-167l-172 197l-169 -197h-167l195 295h281zM82 379v645h250v-580q0 -91 64 -154.5t154 -63.5q91 0 155 63.5t64 154.5v580h250l1 -1024h-250l-1 93q-115 -120 -282 -120q-168 0 -286.5 119t-118.5 287z" />
    <glyph glyph-name="udieresis" unicode="&#xfc;" horiz-adv-x="1101" 
d="M379 1098q-56 0 -93 36.5t-37 91.5q0 54 37.5 91.5t92.5 37.5q54 0 91.5 -37.5t37.5 -91.5q0 -55 -37.5 -91.5t-91.5 -36.5zM784 1098q-56 0 -93 36.5t-37 91.5q0 54 37.5 91.5t92.5 37.5q54 0 91.5 -37.5t37.5 -91.5q0 -55 -37.5 -91.5t-91.5 -36.5zM82 379v645h250
v-580q0 -91 64 -154.5t154 -63.5q91 0 155 63.5t64 154.5v580h250l1 -1024h-250l-1 93q-115 -120 -282 -120q-168 0 -286.5 119t-118.5 287z" />
    <glyph glyph-name="yacute" unicode="&#xfd;" horiz-adv-x="1172" 
d="M521 1137l82 295h250l-165 -295h-167zM825 1024h266l-561 -1536h-265l186 512l-369 1024h273l220 -682z" />
    <glyph glyph-name="thorn" unicode="&#xfe;" horiz-adv-x="1267" 
d="M123 -512v1946h250v-540q113 157 295 157q147 0 271 -72.5t195.5 -196.5t71.5 -270q0 -147 -71.5 -271.5t-195.5 -197t-271 -72.5q-182 0 -295 157v-640h-250zM665 213q119 0 203 87t84 212q0 123 -84 210.5t-203 87.5q-116 0 -193.5 -87t-77.5 -211q0 -125 77.5 -212
t193.5 -87z" />
    <glyph glyph-name="ydieresis" unicode="&#xff;" horiz-adv-x="1172" 
d="M385 1096q-56 0 -93.5 36.5t-37.5 91.5q0 54 38 91.5t93 37.5q54 0 91 -37.5t37 -91.5q0 -55 -37 -91.5t-91 -36.5zM791 1096q-56 0 -94 36.5t-38 91.5q0 54 38.5 91.5t93.5 37.5q54 0 91 -37.5t37 -91.5q0 -55 -37 -91.5t-91 -36.5zM825 1024h266l-561 -1536h-265
l186 512l-369 1024h273l220 -682z" />
    <glyph glyph-name="Amacron" unicode="&#x100;" horiz-adv-x="1492" 
d="M400 1768h693v-187h-693v187zM602 1434h288l521 -1434h-265l-92 254h-615l-92 -254h-265zM530 504h432l-217 591z" />
    <glyph glyph-name="amacron" unicode="&#x101;" horiz-adv-x="1226" 
d="M283 1359h692v-188h-692v188zM895 1024h250v-1024h-250l-11 127q-44 -72 -114 -113t-161 -41q-149 0 -275.5 74t-199.5 200.5t-73 275.5q0 144 70 266t191.5 193t265.5 71q188 0 318 -160zM603 214q118 0 195.5 86.5t77.5 211.5q0 126 -78 212.5t-195 86.5
q-120 0 -203 -87.5t-83 -211.5t84 -211t202 -87z" />
    <glyph glyph-name="Abreve" unicode="&#x102;" horiz-adv-x="1492" 
d="M746 1524q-139 0 -239 100t-100 240h155q0 -76 54.5 -130.5t129.5 -54.5q76 0 130.5 54t54.5 131h155q0 -142 -100 -241t-240 -99zM602 1434h288l521 -1434h-265l-92 254h-615l-92 -254h-265zM530 504h432l-217 591z" />
    <glyph glyph-name="abreve" unicode="&#x103;" horiz-adv-x="1226" 
d="M629 1114q-139 0 -239.5 100t-100.5 240h155q0 -75 55 -129.5t130 -54.5q76 0 130 53.5t54 130.5h156q0 -142 -100 -241t-240 -99zM895 1024h250v-1024h-250l-11 127q-44 -72 -114 -113t-161 -41q-149 0 -275.5 74t-199.5 200.5t-73 275.5q0 144 70 266t191.5 193
t265.5 71q188 0 318 -160zM603 214q118 0 195.5 86.5t77.5 211.5q0 126 -78 212.5t-195 86.5q-120 0 -203 -87.5t-83 -211.5t84 -211t202 -87z" />
    <glyph glyph-name="Aogonek" unicode="&#x104;" horiz-adv-x="1492" 
d="M1286 -462q-105 0 -172 72.5t-67 169.5q0 100 69 170l51 50h-21l-92 254h-615l-92 -254h-265l520 1434h288l521 -1434h-1q-16 -16 -55.5 -54.5t-52.5 -52.5t-34.5 -39.5t-28.5 -44.5t-7 -38q0 -26 17.5 -45.5t45.5 -20.5q40 0 69.5 28.5t29.5 69.5h158q0 -109 -77 -187
t-189 -78zM530 504h432l-217 591z" />
    <glyph glyph-name="aogonek" unicode="&#x105;" horiz-adv-x="1226" 
d="M1021 -462q-106 0 -173.5 73t-67.5 169q0 98 71 170l51 50h-7l-11 127q-44 -72 -114 -113t-161 -41q-149 0 -275.5 74t-199.5 200.5t-73 275.5q0 144 70 266t191.5 193t265.5 71q188 0 318 -160l-11 131h250v-1024q-16 -16 -55.5 -54.5t-52.5 -52.5t-34.5 -39.5
t-28.5 -44.5t-7 -38q0 -26 17 -45.5t46 -20.5q39 0 68 28.5t29 69.5h159q0 -109 -76.5 -187t-188.5 -78zM603 214q118 0 195.5 86.5t77.5 211.5q0 126 -78 212.5t-195 86.5q-120 0 -203 -87.5t-83 -211.5t84 -211t202 -87z" />
    <glyph glyph-name="Cacute" unicode="&#x106;" horiz-adv-x="1452" 
d="M721 1546l82 295h250l-165 -295h-167zM786 -27q-191 0 -353.5 100t-256.5 271t-94 373q0 152 55.5 289.5t150 237t225 158t273.5 58.5q170 0 317.5 -79t246.5 -216l-224 -119q-63 76 -152 120t-188 44q-188 0 -321 -145t-133 -348q0 -133 60.5 -247t165.5 -180.5
t228 -66.5q100 0 189 44.5t151 121.5l224 -121q-99 -137 -246.5 -216t-317.5 -79z" />
    <glyph glyph-name="cacute" unicode="&#x107;" horiz-adv-x="1044" 
d="M508 1137l82 295h250l-165 -295h-167zM758 308l225 -122q-72 -99 -179 -156t-231 -57q-139 0 -257 72.5t-186.5 196.5t-68.5 270q0 147 68.5 271.5t186.5 197t257 72.5q124 0 231 -57.5t179 -157.5l-225 -121q-75 86 -185 86t-186 -86.5t-76 -204.5q0 -117 76.5 -203
t185.5 -86q108 0 185 85z" />
    <glyph glyph-name="Ccircumflex" unicode="&#x108;" horiz-adv-x="1452" 
d="M927 1841l197 -295h-166l-172 198l-170 -198h-165l194 295h282zM786 -27q-191 0 -353.5 100t-256.5 271t-94 373q0 152 55.5 289.5t150 237t225 158t273.5 58.5q170 0 317.5 -79t246.5 -216l-224 -119q-63 76 -152 120t-188 44q-188 0 -321 -145t-133 -348
q0 -133 60.5 -247t165.5 -180.5t228 -66.5q100 0 189 44.5t151 121.5l224 -121q-99 -137 -246.5 -216t-317.5 -79z" />
    <glyph glyph-name="ccircumflex" unicode="&#x109;" horiz-adv-x="1044" 
d="M714 1432l197 -295h-166l-172 197l-170 -197h-165l194 295h282zM758 308l225 -122q-72 -99 -179 -156t-231 -57q-139 0 -257 72.5t-186.5 196.5t-68.5 270q0 147 68.5 271.5t186.5 197t257 72.5q124 0 231 -57.5t179 -157.5l-225 -121q-75 86 -185 86t-186 -86.5
t-76 -204.5q0 -117 76.5 -203t185.5 -86q108 0 185 85z" />
    <glyph glyph-name="Cdotaccent" unicode="&#x10a;" horiz-adv-x="1452" 
d="M787 1566q-56 0 -93 36.5t-37 91.5q0 54 37.5 91t92.5 37q54 0 91.5 -37t37.5 -91q0 -55 -36.5 -91.5t-92.5 -36.5zM786 -27q-191 0 -353.5 100t-256.5 271t-94 373q0 152 55.5 289.5t150 237t225 158t273.5 58.5q170 0 317.5 -79t246.5 -216l-224 -119q-63 76 -152 120
t-188 44q-188 0 -321 -145t-133 -348q0 -133 60.5 -247t165.5 -180.5t228 -66.5q100 0 189 44.5t151 121.5l224 -121q-99 -137 -246.5 -216t-317.5 -79z" />
    <glyph glyph-name="cdotaccent" unicode="&#x10b;" horiz-adv-x="1044" 
d="M574 1156q-56 0 -93 36.5t-37 91.5q0 54 37.5 91t92.5 37q54 0 91.5 -37t37.5 -91q0 -55 -36.5 -91.5t-92.5 -36.5zM758 308l225 -122q-72 -99 -179 -156t-231 -57q-139 0 -257 72.5t-186.5 196.5t-68.5 270q0 147 68.5 271.5t186.5 197t257 72.5q124 0 231 -57.5
t179 -157.5l-225 -121q-75 86 -185 86t-186 -86.5t-76 -204.5q0 -117 76.5 -203t185.5 -86q108 0 185 85z" />
    <glyph glyph-name="Ccaron" unicode="&#x10c;" horiz-adv-x="1452" 
d="M646 1546l-197 295h165l172 -197l169 197h167l-194 -295h-282zM786 -27q-191 0 -353.5 100t-256.5 271t-94 373q0 152 55.5 289.5t150 237t225 158t273.5 58.5q170 0 317.5 -79t246.5 -216l-224 -119q-63 76 -152 120t-188 44q-188 0 -321 -145t-133 -348
q0 -133 60.5 -247t165.5 -180.5t228 -66.5q100 0 189 44.5t151 121.5l224 -121q-99 -137 -246.5 -216t-317.5 -79z" />
    <glyph glyph-name="ccaron" unicode="&#x10d;" horiz-adv-x="1044" 
d="M433 1137l-197 295h165l172 -198l169 198h167l-194 -295h-282zM758 308l225 -122q-72 -99 -179 -156t-231 -57q-139 0 -257 72.5t-186.5 196.5t-68.5 270q0 147 68.5 271.5t186.5 197t257 72.5q124 0 231 -57.5t179 -157.5l-225 -121q-75 86 -185 86t-186 -86.5
t-76 -204.5q0 -117 76.5 -203t185.5 -86q108 0 185 85z" />
    <glyph glyph-name="Dcaron" unicode="&#x10e;" horiz-adv-x="1376" 
d="M527 1546l-197 295h166l172 -197l169 197h167l-195 -295h-282zM123 0v1434h475q145 0 278 -57t229 -153t153 -229t57 -278t-57 -278t-153 -229t-229 -153t-278 -57h-475zM373 250h225q191 0 329 137t138 330q0 126 -63 234t-171 170.5t-233 62.5h-225v-934z" />
    <glyph glyph-name="dcaron" unicode="&#x10f;" horiz-adv-x="1269" 
d="M897 1536h250v-1536h-250v128q-111 -155 -297 -155q-146 0 -270 72.5t-196.5 196.5t-72.5 270t72.5 270t196.5 196.5t270 72.5q186 0 297 -155v640zM1204 1241l82 295h250l-165 -295h-167zM603 214q118 0 195.5 86.5t77.5 211.5q0 126 -78 212.5t-195 86.5
q-119 0 -202.5 -87.5t-83.5 -211.5t84 -211t202 -87z" />
    <glyph glyph-name="Emacron" unicode="&#x112;" horiz-adv-x="1124" 
d="M216 1768h692v-187h-692v187zM123 0v1434h899v-250h-649v-291h515v-250h-515v-393h649v-250h-899z" />
    <glyph glyph-name="emacron" unicode="&#x113;" horiz-adv-x="1145" 
d="M227 1359h693v-188h-693v188zM573 -27q-139 0 -257 72.5t-186.5 196.5t-68.5 271t68.5 271t186.5 196.5t257 72.5q117 0 219 -52t170 -137t100.5 -200.5t15.5 -236.5h-748q22 -90 86 -146.5t157 -57.5q63 -1 117.5 31t91.5 88l255 -59q-64 -139 -188.5 -224.5
t-275.5 -85.5zM322 614h503q-19 94 -90 157.5t-162 63.5t-160.5 -62.5t-90.5 -158.5z" />
    <glyph glyph-name="Edotaccent" unicode="&#x116;" horiz-adv-x="1124" 
d="M563 1566q-56 0 -93 36.5t-37 91.5q0 54 37.5 91t92.5 37q54 0 91.5 -37t37.5 -91q0 -55 -36.5 -91.5t-92.5 -36.5zM123 0v1434h899v-250h-649v-291h515v-250h-515v-393h649v-250h-899z" />
    <glyph glyph-name="edotaccent" unicode="&#x117;" horiz-adv-x="1145" 
d="M574 1156q-56 0 -93 36.5t-37 91.5q0 54 37.5 91t92.5 37q54 0 91 -37t37 -91q0 -55 -36.5 -91.5t-91.5 -36.5zM573 -27q-139 0 -257 72.5t-186.5 196.5t-68.5 271t68.5 271t186.5 196.5t257 72.5q117 0 219 -52t170 -137t100.5 -200.5t15.5 -236.5h-748
q22 -90 86 -146.5t157 -57.5q63 -1 117.5 31t91.5 88l255 -59q-64 -139 -188.5 -224.5t-275.5 -85.5zM322 614h503q-19 94 -90 157.5t-162 63.5t-160.5 -62.5t-90.5 -158.5z" />
    <glyph glyph-name="Eogonek" unicode="&#x118;" horiz-adv-x="1124" 
d="M123 0v1434h899v-250h-649v-291h515v-250h-515v-393h649v-250h-112q-16 -16 -55.5 -54.5t-52.5 -52.5t-34.5 -39.5t-28.5 -44.5t-7 -38q0 -26 18 -45.5t46 -20.5q40 0 69 28.5t29 69.5h159q0 -108 -77.5 -186.5t-189.5 -78.5q-105 0 -172 72.5t-67 169.5q0 100 70 170
l51 50h-545z" />
    <glyph glyph-name="eogonek" unicode="&#x119;" horiz-adv-x="1145" 
d="M608 -462q-105 0 -172.5 72.5t-67.5 169.5q0 99 70 170l35 34q-177 37 -294.5 185.5t-117.5 343.5q0 147 68.5 271t186.5 196.5t257 72.5q117 0 219 -52t170 -137t100.5 -200.5t15.5 -236.5h-748q22 -90 86 -146.5t157 -57.5q63 -1 117.5 31t91.5 88l255 -59
q-45 -100 -125 -174.5t-181 -108.5q-18 -18 -55.5 -54.5t-52 -52t-35 -40.5t-28 -44t-7.5 -38q0 -26 17.5 -45.5t46.5 -20.5q39 0 68.5 28.5t29.5 69.5h158q0 -109 -76.5 -187t-188.5 -78zM322 614h503q-19 94 -90 157.5t-162 63.5t-160.5 -62.5t-90.5 -158.5z" />
    <glyph glyph-name="Ecaron" unicode="&#x11a;" horiz-adv-x="1124" 
d="M422 1546l-198 295h166l172 -197l169 197h167l-195 -295h-281zM123 0v1434h899v-250h-649v-291h515v-250h-515v-393h649v-250h-899z" />
    <glyph glyph-name="ecaron" unicode="&#x11b;" horiz-adv-x="1145" 
d="M433 1137l-199 295h167l172 -198l169 198h167l-195 -295h-281zM573 -27q-139 0 -257 72.5t-186.5 196.5t-68.5 271t68.5 271t186.5 196.5t257 72.5q117 0 219 -52t170 -137t100.5 -200.5t15.5 -236.5h-748q22 -90 86 -146.5t157 -57.5q63 -1 117.5 31t91.5 88l255 -59
q-64 -139 -188.5 -224.5t-275.5 -85.5zM322 614h503q-19 94 -90 157.5t-162 63.5t-160.5 -62.5t-90.5 -158.5z" />
    <glyph glyph-name="Gcircumflex" unicode="&#x11c;" horiz-adv-x="1573" 
d="M928 1841l198 -295h-167l-172 198l-169 -198h-166l195 295h281zM786 -27q-146 0 -277.5 59.5t-224.5 160t-147.5 238t-54.5 288.5q0 157 59 296.5t157 235.5t227 151.5t267 55.5q159 0 304.5 -74t253.5 -221l-224 -120q-67 82 -155.5 124.5t-182.5 42.5q-90 0 -173 -37.5
t-145.5 -102.5t-100 -158t-37.5 -198q0 -134 61.5 -247t167 -178.5t230.5 -65.5q129 0 239.5 78.5t166.5 214.5h-261v218h555q4 -154 -50.5 -294.5t-149 -243t-227 -163t-278.5 -60.5z" />
    <glyph glyph-name="gcircumflex" unicode="&#x11d;" horiz-adv-x="1255" 
d="M768 1432l199 -295h-167l-172 197l-169 -197h-167l195 295h281zM883 1024h250v-1043q0 -108 -46 -201t-122.5 -156.5t-178 -99.5t-211.5 -36q-161 0 -299.5 95t-198.5 243l228 103q30 -85 105.5 -137t164.5 -52q125 0 216.5 66t91.5 175v144q-110 -152 -289 -152
q-145 0 -267.5 72.5t-194 196.5t-71.5 270t71.5 270t194 196.5t267.5 72.5q180 0 289 -151v124zM597 214q116 0 193 87t77 211q0 125 -77 212t-193 87t-198 -87.5t-82 -211.5t82 -211t198 -87z" />
    <glyph glyph-name="Gbreve" unicode="&#x11e;" horiz-adv-x="1573" 
d="M787 1524q-139 0 -239.5 100t-100.5 240h156q0 -76 54.5 -130.5t129.5 -54.5q76 0 130.5 54t54.5 131h155q0 -142 -99.5 -241t-240.5 -99zM786 -27q-146 0 -277.5 59.5t-224.5 160t-147.5 238t-54.5 288.5q0 157 59 296.5t157 235.5t227 151.5t267 55.5q159 0 304.5 -74
t253.5 -221l-224 -120q-67 82 -155.5 124.5t-182.5 42.5q-90 0 -173 -37.5t-145.5 -102.5t-100 -158t-37.5 -198q0 -134 61.5 -247t167 -178.5t230.5 -65.5q129 0 239.5 78.5t166.5 214.5h-261v218h555q4 -154 -50.5 -294.5t-149 -243t-227 -163t-278.5 -60.5z" />
    <glyph glyph-name="gbreve" unicode="&#x11f;" horiz-adv-x="1255" 
d="M628 1114q-140 0 -240 100t-100 240h155q0 -75 55 -129.5t130 -54.5q76 0 130 53.5t54 130.5h156q0 -142 -99.5 -241t-240.5 -99zM883 1024h250v-1043q0 -108 -46 -201t-122.5 -156.5t-178 -99.5t-211.5 -36q-161 0 -299.5 95t-198.5 243l228 103q30 -85 105.5 -137
t164.5 -52q125 0 216.5 66t91.5 175v144q-110 -152 -289 -152q-145 0 -267.5 72.5t-194 196.5t-71.5 270t71.5 270t194 196.5t267.5 72.5q180 0 289 -151v124zM597 214q116 0 193 87t77 211q0 125 -77 212t-193 87t-198 -87.5t-82 -211.5t82 -211t198 -87z" />
    <glyph glyph-name="Gdotaccent" unicode="&#x120;" horiz-adv-x="1573" 
d="M788 1566q-56 0 -93 36.5t-37 91.5q0 54 37.5 91t92.5 37q54 0 92 -37t38 -91q0 -55 -37 -91.5t-93 -36.5zM786 -27q-146 0 -277.5 59.5t-224.5 160t-147.5 238t-54.5 288.5q0 157 59 296.5t157 235.5t227 151.5t267 55.5q159 0 304.5 -74t253.5 -221l-224 -120
q-67 82 -155.5 124.5t-182.5 42.5q-90 0 -173 -37.5t-145.5 -102.5t-100 -158t-37.5 -198q0 -134 61.5 -247t167 -178.5t230.5 -65.5q129 0 239.5 78.5t166.5 214.5h-261v218h555q4 -154 -50.5 -294.5t-149 -243t-227 -163t-278.5 -60.5z" />
    <glyph glyph-name="gdotaccent" unicode="&#x121;" horiz-adv-x="1255" 
d="M629 1156q-56 0 -93 36.5t-37 91.5q0 54 37.5 91t92.5 37q54 0 91.5 -37t37.5 -91q0 -55 -36.5 -91.5t-92.5 -36.5zM883 1024h250v-1043q0 -108 -46 -201t-122.5 -156.5t-178 -99.5t-211.5 -36q-161 0 -299.5 95t-198.5 243l228 103q30 -85 105.5 -137t164.5 -52
q125 0 216.5 66t91.5 175v144q-110 -152 -289 -152q-145 0 -267.5 72.5t-194 196.5t-71.5 270t71.5 270t194 196.5t267.5 72.5q180 0 289 -151v124zM597 214q116 0 193 87t77 211q0 125 -77 212t-193 87t-198 -87.5t-82 -211.5t82 -211t198 -87z" />
    <glyph glyph-name="uni0122" unicode="&#x122;" horiz-adv-x="1573" 
d="M786 -27q-146 0 -277.5 59.5t-224.5 160t-147.5 238t-54.5 288.5q0 157 59 296.5t157 235.5t227 151.5t267 55.5q159 0 304.5 -74t253.5 -221l-224 -120q-67 82 -155.5 124.5t-182.5 42.5q-90 0 -173 -37.5t-145.5 -102.5t-100 -158t-37.5 -198q0 -134 61.5 -247
t167 -178.5t230.5 -65.5q129 0 239.5 78.5t166.5 214.5h-261v218h555q4 -154 -50.5 -294.5t-149 -243t-227 -163t-278.5 -60.5zM599 -452l64 347h249l-147 -347h-166z" />
    <glyph glyph-name="Hcircumflex" unicode="&#x124;" horiz-adv-x="1339" 
d="M809 1841l199 -295h-167l-171 198l-170 -198h-166l194 295h281zM967 1434h250v-1434h-250v643h-594v-643h-250v1434h250v-541h594v541z" />
    <glyph glyph-name="hcircumflex" unicode="&#x125;" horiz-adv-x="1142" 
d="M763 1867l199 -295h-167l-171 197l-170 -197h-166l194 295h281zM1061 647v-647h-250v582q0 91 -64 154.5t-155 63.5t-154.5 -63.5t-63.5 -154.5v-582h-250l-1 1536h250l1 -603q114 120 281 120t286.5 -119t119.5 -287z" />
    <glyph glyph-name="Itilde" unicode="&#x128;" horiz-adv-x="557" 
d="M438 1541q-34 0 -90.5 27.5t-103.5 59t-88.5 51t-53.5 7.5q-26 -27 -9 -90l-146 -40q-41 120 8.5 205t163.5 85q43 0 115 -36.5t132.5 -73t76.5 -36.5q28 0 30.5 30t-10.5 58l148 48q41 -124 -11 -209.5t-162 -85.5zM154 0v1434h249v-1434h-249z" />
    <glyph glyph-name="itilde" unicode="&#x129;" 
d="M371 1110q-33 0 -93.5 35.5t-107.5 64t-59 16.5q-21 -24 -8 -72l-113 -32q-32 96 6.5 164t126.5 68q34 0 89.5 -29t102.5 -58.5t60 -29.5q41 0 15 71l116 39q32 -100 -8.5 -168.5t-126.5 -68.5zM123 1024h250v-1024h-250v1024z" />
    <glyph glyph-name="Imacron" unicode="&#x12a;" horiz-adv-x="557" 
d="M-68 1768h693v-187h-693v187zM154 0v1434h249v-1434h-249z" />
    <glyph glyph-name="imacron" unicode="&#x12b;" 
d="M0 1359h496v-188h-496v188zM123 1024h250v-1024h-250v1024z" />
    <glyph glyph-name="Iogonek" unicode="&#x12e;" horiz-adv-x="557" 
d="M154 0v1434h249v-1434h-1q-18 -18 -55.5 -54.5t-52 -52t-35 -40.5t-28 -44t-7.5 -38q0 -26 18 -45.5t47 -20.5q39 0 68 28.5t29 69.5h159q0 -109 -77 -187t-189 -78q-105 0 -172.5 73t-67.5 169q0 99 71 170l50 50h-6z" />
    <glyph glyph-name="iogonek" unicode="&#x12f;" 
d="M249 1156q-56 0 -93 36.5t-37 91.5q0 54 37.5 91t92.5 37q54 0 91.5 -37t37.5 -91q0 -55 -36.5 -91.5t-92.5 -36.5zM248 -462q-105 0 -172.5 73t-67.5 169q0 99 71 170l50 50h-6v1024h250v-1024h-1q-18 -18 -55.5 -54.5t-52 -52t-35 -40.5t-28 -44t-7.5 -38
q0 -26 17.5 -45.5t46.5 -20.5q39 0 68 28.5t29 69.5h159q0 -109 -77 -187t-189 -78z" />
    <glyph glyph-name="Idotaccent" unicode="&#x130;" horiz-adv-x="557" 
d="M280 1566q-56 0 -93 36.5t-37 91.5q0 54 37.5 91t92.5 37q54 0 91.5 -37t37.5 -91q0 -55 -36.5 -91.5t-92.5 -36.5zM154 0v1434h249v-1434h-249z" />
    <glyph glyph-name="dotlessi" unicode="&#x131;" 
d="M123 1024h250v-1024h-250v1024z" />
    <glyph glyph-name="IJ" unicode="&#x132;" horiz-adv-x="1466" 
d="M154 0v1434h249v-1434h-249zM889 -27q-168 0 -291 106l160 192q55 -48 131 -48q84 0 144.5 62.5t60.5 147.5v1001h249v-1001q0 -93 -36 -177.5t-96.5 -146.5t-145 -99t-176.5 -37z" />
    <glyph glyph-name="ij" unicode="&#x133;" horiz-adv-x="991" 
d="M249 1156q-56 0 -93 36.5t-37 91.5q0 54 37.5 91t92.5 37q54 0 91.5 -37t37.5 -91q0 -55 -36.5 -91.5t-92.5 -36.5zM744 1156q-56 0 -93 36.5t-37 91.5q0 54 37.5 91t92.5 37q54 0 91 -37t37 -91q0 -55 -36.5 -91.5t-91.5 -36.5zM123 1024h250v-1024h-250v1024zM411 -512
v250q87 0 147 59.5t60 145.5v1081h250v-1081q0 -189 -133 -322t-324 -133z" />
    <glyph glyph-name="Jcircumflex" unicode="&#x134;" horiz-adv-x="909" 
d="M802 1841l198 -295h-166l-172 198l-169 -198h-167l194 295h282zM332 -27q-168 0 -291 106l160 192q55 -48 131 -48q84 0 144.5 62.5t60.5 147.5v1001h249v-1001q0 -93 -36 -177.5t-96.5 -146.5t-145 -99t-176.5 -37z" />
    <glyph glyph-name="jcircumflex" unicode="&#x135;" horiz-adv-x="498" 
d="M391 1432l199 -295h-167l-172 197l-169 -197h-167l195 295h281zM-82 -512v250q87 0 147.5 59.5t60.5 145.5v1081h250v-1081q0 -189 -133.5 -322t-324.5 -133z" />
    <glyph glyph-name="uni0136" unicode="&#x136;" horiz-adv-x="1201" 
d="M1170 0h-325l-403 562l-69 -83v-479h-250v1434h250v-567l474 567h327l-569 -676zM412 -452l63 347h250l-146 -347h-167z" />
    <glyph glyph-name="uni0137" unicode="&#x137;" horiz-adv-x="1095" 
d="M1037 0h-287l-234 402l-143 -171v-231h-250v1536h250v-916l339 404h326l-351 -419zM356 -452l64 347h250l-148 -347h-166z" />
    <glyph glyph-name="Lacute" unicode="&#x139;" horiz-adv-x="1072" 
d="M182 1546l82 295h250l-165 -295h-167zM123 0v1434h250v-1184h597v-250h-847z" />
    <glyph glyph-name="lacute" unicode="&#x13a;" 
d="M182 1649l82 295h250l-165 -295h-167zM123 0v1536h250v-1536h-250z" />
    <glyph glyph-name="uni013B" unicode="&#x13b;" horiz-adv-x="1072" 
d="M123 0v1434h250v-1184h597v-250h-847zM357 -452l64 347h250l-147 -347h-167z" />
    <glyph glyph-name="uni013C" unicode="&#x13c;" 
d="M123 0v1536h250v-1536h-250zM59 -452l64 347h250l-147 -347h-167z" />
    <glyph glyph-name="Lcaron" unicode="&#x13d;" horiz-adv-x="1072" 
d="M596 1241l82 295h250l-165 -295h-167zM123 0v1434h250v-1184h597v-250h-847z" />
    <glyph glyph-name="lcaron" unicode="&#x13e;" 
d="M123 0v1536h250v-1536h-250zM428 1241l82 295h250l-165 -295h-167z" />
    <glyph glyph-name="Nacute" unicode="&#x143;" horiz-adv-x="1371" 
d="M621 1546l81 295h250l-166 -295h-165zM123 0v1434h270l605 -982v982h250v-1434h-269l-606 982v-982h-250z" />
    <glyph glyph-name="nacute" unicode="&#x144;" horiz-adv-x="1142" 
d="M543 1137l82 295h249l-164 -295h-167zM1061 647v-647h-250v582q0 91 -64 154.5t-155 63.5t-154.5 -63.5t-63.5 -154.5v-582h-250l-1 1024h250l1 -91q114 120 281 120t286.5 -119t119.5 -287z" />
    <glyph glyph-name="uni0145" unicode="&#x145;" horiz-adv-x="1371" 
d="M123 0v1434h270l605 -982v982h250v-1434h-269l-606 982v-982h-250zM497 -452l63 347h250l-146 -347h-167z" />
    <glyph glyph-name="uni0146" unicode="&#x146;" horiz-adv-x="1142" 
d="M1061 647v-647h-250v582q0 91 -64 154.5t-155 63.5t-154.5 -63.5t-63.5 -154.5v-582h-250l-1 1024h250l1 -91q114 120 281 120t286.5 -119t119.5 -287zM403 -452l64 347h250l-147 -347h-167z" />
    <glyph glyph-name="Ncaron" unicode="&#x147;" horiz-adv-x="1371" 
d="M546 1546l-199 295h167l171 -197l170 197h167l-196 -295h-280zM123 0v1434h270l605 -982v982h250v-1434h-269l-606 982v-982h-250z" />
    <glyph glyph-name="ncaron" unicode="&#x148;" horiz-adv-x="1142" 
d="M468 1137l-199 295h167l172 -198l169 198h167l-195 -295h-281zM1061 647v-647h-250v582q0 91 -64 154.5t-155 63.5t-154.5 -63.5t-63.5 -154.5v-582h-250l-1 1024h250l1 -91q114 120 281 120t286.5 -119t119.5 -287z" />
    <glyph glyph-name="Omacron" unicode="&#x14c;" horiz-adv-x="1576" 
d="M442 1768h693v-187h-693v187zM788 -27q-143 0 -274 59t-225.5 158.5t-150.5 237.5t-56 289t56 288.5t150.5 237t225.5 158.5t274 59q191 0 354 -99.5t258 -270.5t95 -373q0 -151 -56 -289t-151 -237.5t-226 -158.5t-274 -59zM788 223q188 0 322.5 146t134.5 348
q0 133 -61.5 246.5t-167 180t-228.5 66.5q-188 0 -322 -145.5t-134 -347.5q0 -203 134 -348.5t322 -145.5z" />
    <glyph glyph-name="omacron" unicode="&#x14d;" horiz-adv-x="1146" 
d="M227 1359h693v-188h-693v188zM573 -27q-139 0 -257 72.5t-186.5 196.5t-68.5 270q0 147 68.5 271.5t186.5 197t257 72.5t257 -72.5t186.5 -197t68.5 -271.5q0 -146 -68.5 -270t-186.5 -196.5t-257 -72.5zM573 223q110 0 186.5 85.5t76.5 203.5q0 119 -77.5 205t-185.5 86
q-109 0 -185.5 -86.5t-76.5 -204.5q0 -121 77 -205t185 -84z" />
    <glyph glyph-name="Ohungarumlaut" unicode="&#x150;" horiz-adv-x="1576" 
d="M905 1546l82 295h250l-165 -295h-167zM562 1546l82 295h250l-165 -295h-167zM788 -27q-143 0 -274 59t-225.5 158.5t-150.5 237.5t-56 289t56 288.5t150.5 237t225.5 158.5t274 59q191 0 354 -99.5t258 -270.5t95 -373q0 -151 -56 -289t-151 -237.5t-226 -158.5t-274 -59
zM788 223q188 0 322.5 146t134.5 348q0 133 -61.5 246.5t-167 180t-228.5 66.5q-188 0 -322 -145.5t-134 -347.5q0 -203 134 -348.5t322 -145.5z" />
    <glyph glyph-name="ohungarumlaut" unicode="&#x151;" horiz-adv-x="1146" 
d="M690 1137l82 295h250l-165 -295h-167zM347 1137l82 295h250l-165 -295h-167zM573 -27q-139 0 -257 72.5t-186.5 196.5t-68.5 270q0 147 68.5 271.5t186.5 197t257 72.5t257 -72.5t186.5 -197t68.5 -271.5q0 -146 -68.5 -270t-186.5 -196.5t-257 -72.5zM573 223
q110 0 186.5 85.5t76.5 203.5q0 119 -77.5 205t-185.5 86q-109 0 -185.5 -86.5t-76.5 -204.5q0 -121 77 -205t185 -84z" />
    <glyph glyph-name="OE" unicode="&#x152;" horiz-adv-x="2172" 
d="M788 -27q-143 0 -274 59t-225.5 158.5t-150.5 237.5t-56 289t56 288.5t150.5 237t225.5 158.5t274 59q133 0 253 -54.5t207 -150.5v179h823v-250h-573v-342h474v-250h-474v-342h573v-250h-823v178q-87 -96 -207 -150.5t-253 -54.5zM788 223q188 0 322.5 146t134.5 348
q0 133 -61.5 246.5t-167 180t-228.5 66.5q-188 0 -322 -145.5t-134 -347.5q0 -203 134 -348.5t322 -145.5z" />
    <glyph glyph-name="oe" unicode="&#x153;" horiz-adv-x="1918" 
d="M573 -27q-139 0 -257 72.5t-186.5 196.5t-68.5 270q0 147 68.5 271.5t186.5 197t257 72.5q117 0 219 -54t169 -147q67 93 168.5 147t218.5 54t219 -51.5t169.5 -136.5t99.5 -200t15 -237h-747q22 -91 86 -147.5t158 -57.5q64 0 117.5 31.5t89.5 87.5l255 -59
q-63 -139 -187 -224.5t-275 -85.5q-117 0 -218.5 54t-168.5 147q-67 -93 -169 -147t-219 -54zM1095 615h503q-19 94 -89 157t-161 63q-92 0 -162.5 -62.5t-90.5 -157.5zM573 223q110 0 186.5 85.5t76.5 203.5q0 119 -77.5 205t-185.5 86q-109 0 -185.5 -86.5t-76.5 -204.5
q0 -121 77 -205t185 -84z" />
    <glyph glyph-name="Racute" unicode="&#x154;" horiz-adv-x="1242" 
d="M440 1546l82 295h250l-165 -295h-167zM123 0v1434h550q174 0 295 -126.5t121 -305.5q0 -143 -76.5 -253t-202.5 -156l343 -593h-288l-331 570h-161v-570h-250zM373 820h271q80 0 137.5 58t57.5 141t-57.5 141.5t-137.5 58.5h-271v-399z" />
    <glyph glyph-name="racute" unicode="&#x155;" horiz-adv-x="788" 
d="M386 1137l82 295h250l-165 -295h-167zM124 0l-1 1024h250l1 -91q114 120 281 120q52 0 113 -17l-98 -252q-44 16 -78 16q-91 0 -154.5 -63.5t-63.5 -154.5v-582h-250z" />
    <glyph glyph-name="uni0156" unicode="&#x156;" horiz-adv-x="1242" 
d="M123 0v1434h550q174 0 295 -126.5t121 -305.5q0 -143 -76.5 -253t-202.5 -156l343 -593h-288l-331 570h-161v-570h-250zM373 820h271q80 0 137.5 58t57.5 141t-57.5 141.5t-137.5 58.5h-271v-399zM429 -452l64 347h249l-146 -347h-167z" />
    <glyph glyph-name="uni0157" unicode="&#x157;" horiz-adv-x="788" 
d="M124 0l-1 1024h250l1 -91q114 120 281 120q52 0 113 -17l-98 -252q-44 16 -78 16q-91 0 -154.5 -63.5t-63.5 -154.5v-582h-250zM60 -452l64 347h250l-148 -347h-166z" />
    <glyph glyph-name="Rcaron" unicode="&#x158;" horiz-adv-x="1242" 
d="M366 1546l-199 295h167l172 -197l169 197h167l-196 -295h-280zM123 0v1434h550q174 0 295 -126.5t121 -305.5q0 -143 -76.5 -253t-202.5 -156l343 -593h-288l-331 570h-161v-570h-250zM373 820h271q80 0 137.5 58t57.5 141t-57.5 141.5t-137.5 58.5h-271v-399z" />
    <glyph glyph-name="rcaron" unicode="&#x159;" horiz-adv-x="788" 
d="M311 1137l-198 295h167l172 -198l169 198h166l-195 -295h-281zM124 0l-1 1024h250l1 -91q114 120 281 120q52 0 113 -17l-98 -252q-44 16 -78 16q-91 0 -154.5 -63.5t-63.5 -154.5v-582h-250z" />
    <glyph glyph-name="Sacute" unicode="&#x15a;" horiz-adv-x="1278" 
d="M573 1546l82 295h250l-165 -295h-167zM639 -27q-183 0 -334 85t-203 229l235 86q23 -63 109 -106.5t193 -43.5q115 0 200 52t85 133q0 136 -285 183q-96 15 -173.5 37t-146.5 57t-115 81.5t-73 112t-27 146.5q0 126 75 226.5t196.5 153.5t263.5 53q119 0 227.5 -36.5
t192 -108.5t118.5 -169l-236 -85q-23 63 -108.5 105.5t-193.5 42.5q-112 1 -198.5 -52t-86.5 -130q0 -25 5 -46t18 -37t24.5 -28t36.5 -22t41 -16.5t49.5 -13.5t52 -10t58.5 -10q112 -17 205.5 -51t169 -86t118 -128t42.5 -169q0 -127 -74 -227.5t-195.5 -154t-265.5 -53.5z
" />
    <glyph glyph-name="sacute" unicode="&#x15b;" horiz-adv-x="889" 
d="M380 1137l82 295h250l-165 -295h-167zM425 -18q-124 8 -227 66t-147 153l211 90q21 -37 74 -67t117 -30t108.5 26t44.5 76q0 18 -6 33t-22 26t-26.5 18t-37.5 15t-36 10t-40 9q-161 32 -263 113t-102 210q0 147 112 238t269 91q122 0 224 -51.5t161 -142.5l-198 -116
q-22 38 -68.5 65.5t-98.5 30.5q-74 4 -121 -23.5t-47 -85.5q0 -22 11 -38.5t33.5 -27t42.5 -16.5t52.5 -14t49.5 -13q73 -24 131 -52t109 -67.5t78 -92.5t25 -116q0 -96 -59 -172.5t-154 -114.5t-200 -30z" />
    <glyph glyph-name="Scircumflex" unicode="&#x15c;" horiz-adv-x="1278" 
d="M779 1841l199 -295h-167l-172 198l-169 -198h-167l196 295h280zM639 -27q-183 0 -334 85t-203 229l235 86q23 -63 109 -106.5t193 -43.5q115 0 200 52t85 133q0 136 -285 183q-96 15 -173.5 37t-146.5 57t-115 81.5t-73 112t-27 146.5q0 126 75 226.5t196.5 153.5
t263.5 53q119 0 227.5 -36.5t192 -108.5t118.5 -169l-236 -85q-23 63 -108.5 105.5t-193.5 42.5q-112 1 -198.5 -52t-86.5 -130q0 -25 5 -46t18 -37t24.5 -28t36.5 -22t41 -16.5t49.5 -13.5t52 -10t58.5 -10q112 -17 205.5 -51t169 -86t118 -128t42.5 -169
q0 -127 -74 -227.5t-195.5 -154t-265.5 -53.5z" />
    <glyph glyph-name="scircumflex" unicode="&#x15d;" horiz-adv-x="889" 
d="M585 1432l198 -295h-167l-171 197l-170 -197h-166l195 295h281zM425 -18q-124 8 -227 66t-147 153l211 90q21 -37 74 -67t117 -30t108.5 26t44.5 76q0 18 -6 33t-22 26t-26.5 18t-37.5 15t-36 10t-40 9q-161 32 -263 113t-102 210q0 147 112 238t269 91q122 0 224 -51.5
t161 -142.5l-198 -116q-22 38 -68.5 65.5t-98.5 30.5q-74 4 -121 -23.5t-47 -85.5q0 -22 11 -38.5t33.5 -27t42.5 -16.5t52.5 -14t49.5 -13q73 -24 131 -52t109 -67.5t78 -92.5t25 -116q0 -96 -59 -172.5t-154 -114.5t-200 -30z" />
    <glyph glyph-name="Scedilla" unicode="&#x15e;" horiz-adv-x="1278" 
d="M728 -385q-73 -20 -138.5 18t-85.5 111l128 34q4 -20 22.5 -30.5t38.5 -4.5q21 4 31.5 22.5t5.5 39.5q-12 41 -62 36l-132 -5l78 137q-175 6 -318 91t-194 223l235 86q23 -63 109 -106.5t193 -43.5q115 0 200 52t85 133q0 136 -285 183q-96 15 -173.5 37t-146.5 57
t-115 81.5t-73 112t-27 146.5q0 126 75 226.5t196.5 153.5t263.5 53q119 0 227.5 -36.5t192 -108.5t118.5 -169l-236 -85q-23 63 -108.5 105.5t-193.5 42.5q-112 1 -198.5 -52t-86.5 -130q0 -25 5 -46t18 -37t24.5 -28t36.5 -22t41 -16.5t49.5 -13.5t52 -10t58.5 -10
q112 -17 205.5 -51t169 -86t118 -128t42.5 -169q0 -160 -112.5 -273t-287.5 -148l-18 -31q37 -14 64 -45.5t37 -72.5q20 -72 -18 -137.5t-111 -85.5z" />
    <glyph glyph-name="scedilla" unicode="&#x15f;" horiz-adv-x="889" 
d="M512 -385q-73 -20 -138 18t-85 111l127 34q5 -20 23 -30.5t39 -4.5q21 4 31 22.5t5 39.5q-11 41 -62 36l-131 -5l83 147q-119 12 -215.5 69.5t-137.5 148.5l211 90q21 -37 74 -67t117 -30t108.5 26t44.5 76q0 18 -6 33t-22 26t-26.5 18t-37.5 15t-36 10t-40 9
q-161 32 -263 113t-102 210q0 147 112 238t269 91q122 0 224 -51.5t161 -142.5l-198 -116q-22 38 -68.5 65.5t-98.5 30.5q-74 4 -121 -23.5t-47 -85.5q0 -22 11 -38.5t33.5 -27t42.5 -16.5t52.5 -14t49.5 -13q73 -24 131 -52t109 -67.5t78 -92.5t25 -116q0 -112 -78 -195
t-198 -112l-21 -36q37 -14 64 -45.5t37 -72.5q20 -72 -18 -137.5t-112 -85.5z" />
    <glyph glyph-name="Scaron" unicode="&#x160;" horiz-adv-x="1278" 
d="M500 1546l-199 295h166l172 -197l170 197h166l-195 -295h-280zM639 -27q-183 0 -334 85t-203 229l235 86q23 -63 109 -106.5t193 -43.5q115 0 200 52t85 133q0 136 -285 183q-96 15 -173.5 37t-146.5 57t-115 81.5t-73 112t-27 146.5q0 126 75 226.5t196.5 153.5
t263.5 53q119 0 227.5 -36.5t192 -108.5t118.5 -169l-236 -85q-23 63 -108.5 105.5t-193.5 42.5q-112 1 -198.5 -52t-86.5 -130q0 -25 5 -46t18 -37t24.5 -28t36.5 -22t41 -16.5t49.5 -13.5t52 -10t58.5 -10q112 -17 205.5 -51t169 -86t118 -128t42.5 -169
q0 -127 -74 -227.5t-195.5 -154t-265.5 -53.5z" />
    <glyph glyph-name="scaron" unicode="&#x161;" horiz-adv-x="889" 
d="M305 1137l-199 295h167l172 -198l169 198h167l-195 -295h-281zM425 -18q-124 8 -227 66t-147 153l211 90q21 -37 74 -67t117 -30t108.5 26t44.5 76q0 18 -6 33t-22 26t-26.5 18t-37.5 15t-36 10t-40 9q-161 32 -263 113t-102 210q0 147 112 238t269 91q122 0 224 -51.5
t161 -142.5l-198 -116q-22 38 -68.5 65.5t-98.5 30.5q-74 4 -121 -23.5t-47 -85.5q0 -22 11 -38.5t33.5 -27t42.5 -16.5t52.5 -14t49.5 -13q73 -24 131 -52t109 -67.5t78 -92.5t25 -116q0 -96 -59 -172.5t-154 -114.5t-200 -30z" />
    <glyph glyph-name="uni0162" unicode="&#x162;" horiz-adv-x="1290" 
d="M653 -385q-73 -20 -138.5 18t-85.5 111l128 34q4 -20 22.5 -30.5t38.5 -4.5q21 4 31 22.5t5 39.5q-11 41 -61 36l-132 -5l93 164h-34v1184h-438v250h1126v-250h-438v-1184h-63l-26 -44q37 -14 64 -45.5t37 -72.5q20 -72 -18 -137.5t-111 -85.5z" />
    <glyph glyph-name="uni0163" unicode="&#x163;" horiz-adv-x="733" 
d="M356 -385q-73 -20 -138.5 18t-85.5 111l128 34q4 -20 23 -30.5t39 -4.5q21 4 31 22t5 40q-12 41 -62 36l-131 -5l92 164h-34v774h-151v250h151v322h250v-322h199v-250h-199v-774h-63l-26 -44q79 -31 101 -118q20 -72 -18 -137.5t-111 -85.5z" />
    <glyph glyph-name="Tcaron" unicode="&#x164;" horiz-adv-x="1290" 
d="M505 1546l-199 295h167l172 -197l169 197h167l-196 -295h-280zM1208 1434v-250h-438v-1184h-250v1184h-438v250h1126z" />
    <glyph glyph-name="tcaron" unicode="&#x165;" horiz-adv-x="733" 
d="M544 1241l82 295h250l-165 -295h-167zM672 774h-199v-774h-250v774h-151v250h151v322h250v-322h199v-250z" />
    <glyph glyph-name="Utilde" unicode="&#x168;" horiz-adv-x="1392" 
d="M856 1541q-34 0 -90.5 27.5t-103.5 59t-88.5 51t-53.5 7.5q-27 -28 -9 -90l-146 -40q-41 120 8.5 205t163.5 85q43 0 114.5 -36.5t132.5 -73t77 -36.5q19 0 26 15t4.5 33.5t-10.5 39.5l148 48q41 -124 -11 -209.5t-162 -85.5zM697 -27q-168 0 -300 84t-203 226t-71 315
v836h250v-836q0 -160 87 -267.5t237 -107.5q151 0 237 107t86 268v836h250v-836q0 -129 -41.5 -243.5t-115.5 -199t-182 -133.5t-234 -49z" />
    <glyph glyph-name="utilde" unicode="&#x169;" horiz-adv-x="1101" 
d="M740 1134q-34 0 -90 27.5t-103 58.5t-88 50.5t-53 7.5q-28 -28 -11 -90l-145 -40q-41 121 8.5 206t162.5 85q34 0 86.5 -23t97 -50.5t86 -50.5t54.5 -23q52 0 20 88l148 48q41 -124 -11 -209t-162 -85zM82 379v645h250v-580q0 -91 64 -154.5t154 -63.5q91 0 155 63.5
t64 154.5v580h250l1 -1024h-250l-1 93q-115 -120 -282 -120q-168 0 -286.5 119t-118.5 287z" />
    <glyph glyph-name="Umacron" unicode="&#x16a;" horiz-adv-x="1392" 
d="M350 1768h692v-187h-692v187zM697 -27q-168 0 -300 84t-203 226t-71 315v836h250v-836q0 -160 87 -267.5t237 -107.5q151 0 237 107t86 268v836h250v-836q0 -129 -41.5 -243.5t-115.5 -199t-182 -133.5t-234 -49z" />
    <glyph glyph-name="umacron" unicode="&#x16b;" horiz-adv-x="1101" 
d="M234 1360h693v-186h-693v186zM82 379v645h250v-580q0 -91 64 -154.5t154 -63.5q91 0 155 63.5t64 154.5v580h250l1 -1024h-250l-1 93q-115 -120 -282 -120q-168 0 -286.5 119t-118.5 287z" />
    <glyph glyph-name="Ubreve" unicode="&#x16c;" horiz-adv-x="1392" 
d="M696 1524q-140 0 -240 100t-100 240h156q0 -76 54.5 -130.5t129.5 -54.5q76 0 130.5 54t54.5 131h155q0 -142 -100 -241t-240 -99zM697 -27q-168 0 -300 84t-203 226t-71 315v836h250v-836q0 -160 87 -267.5t237 -107.5q151 0 237 107t86 268v836h250v-836
q0 -129 -41.5 -243.5t-115.5 -199t-182 -133.5t-234 -49z" />
    <glyph glyph-name="ubreve" unicode="&#x16d;" horiz-adv-x="1101" 
d="M581 1116q-139 0 -239.5 100t-100.5 240h155q0 -75 55 -129.5t130 -54.5q76 0 130 53.5t54 130.5h156q0 -143 -99.5 -241.5t-240.5 -98.5zM82 379v645h250v-580q0 -91 64 -154.5t154 -63.5q91 0 155 63.5t64 154.5v580h250l1 -1024h-250l-1 93q-115 -120 -282 -120
q-168 0 -286.5 119t-118.5 287z" />
    <glyph glyph-name="Uring" unicode="&#x16e;" horiz-adv-x="1392" 
d="M696 1503q-78 0 -134 57.5t-56 135.5q0 77 56 132.5t134 55.5t134 -55.5t56 -132.5q0 -79 -56 -136t-134 -57zM696 1625q29 0 49 20.5t20 49.5q0 28 -20 47.5t-49 19.5q-28 0 -48 -19.5t-20 -47.5q0 -29 20 -49.5t48 -20.5zM697 -27q-168 0 -300 84t-203 226t-71 315v836
h250v-836q0 -160 87 -267.5t237 -107.5q151 0 237 107t86 268v836h250v-836q0 -129 -41.5 -243.5t-115.5 -199t-182 -133.5t-234 -49z" />
    <glyph glyph-name="uring" unicode="&#x16f;" horiz-adv-x="1101" 
d="M581 1096q-78 0 -134 56.5t-56 134.5q0 77 56 133t134 56t134 -56t56 -133q0 -79 -56 -135t-134 -56zM581 1217q29 0 48.5 20t19.5 50q0 28 -20 47.5t-48 19.5q-29 0 -49 -19.5t-20 -47.5q0 -30 20 -50t49 -20zM82 379v645h250v-580q0 -91 64 -154.5t154 -63.5
q91 0 155 63.5t64 154.5v580h250l1 -1024h-250l-1 93q-115 -120 -282 -120q-168 0 -286.5 119t-118.5 287z" />
    <glyph glyph-name="Uhungarumlaut" unicode="&#x170;" horiz-adv-x="1392" 
d="M813 1546l82 295h250l-165 -295h-167zM470 1546l82 295h250l-165 -295h-167zM697 -27q-168 0 -300 84t-203 226t-71 315v836h250v-836q0 -160 87 -267.5t237 -107.5q151 0 237 107t86 268v836h250v-836q0 -129 -41.5 -243.5t-115.5 -199t-182 -133.5t-234 -49z" />
    <glyph glyph-name="uhungarumlaut" unicode="&#x171;" horiz-adv-x="1101" 
d="M697 1139l82 295h250l-165 -295h-167zM354 1139l82 295h250l-165 -295h-167zM82 379v645h250v-580q0 -91 64 -154.5t154 -63.5q91 0 155 63.5t64 154.5v580h250l1 -1024h-250l-1 93q-115 -120 -282 -120q-168 0 -286.5 119t-118.5 287z" />
    <glyph glyph-name="Uogonek" unicode="&#x172;" horiz-adv-x="1392" 
d="M728 -466q-105 0 -172.5 73t-67.5 169q0 98 71 170l37 36q-142 24 -250 111.5t-165.5 218.5t-57.5 286v836h250v-836q0 -160 87 -267.5t237 -107.5q151 0 237 107t86 268v836h250v-836q0 -220 -114 -386.5t-306 -218.5q-16 -16 -54.5 -53.5t-52 -51.5t-34.5 -39.5
t-28 -44t-7 -37.5q0 -26 17.5 -45.5t46.5 -20.5q39 0 68.5 28.5t29.5 69.5h158q0 -109 -76.5 -187t-189.5 -78z" />
    <glyph glyph-name="uogonek" unicode="&#x173;" horiz-adv-x="1101" 
d="M82 379v645h250v-580q0 -91 64 -154.5t154 -63.5q91 0 155 63.5t64 154.5v580h250l1 -1024h-3q-16 -16 -46.5 -46t-44.5 -43.5t-34 -36t-28.5 -36.5t-15.5 -31.5t-7 -33.5q0 -26 17 -46t46 -20q40 0 68.5 28t28.5 69h159q0 -108 -76.5 -186.5t-188.5 -78.5
q-105 1 -173 74t-68 169q0 98 71 169l49 49h-4l-1 93q-115 -120 -282 -120q-168 0 -286.5 119t-118.5 287z" />
    <glyph glyph-name="Wcircumflex" unicode="&#x174;" horiz-adv-x="1909" 
d="M1095 1841l198 -295h-167l-172 198l-169 -198h-167l196 295h281zM450 0l-367 1434h258l250 -980l250 980h228l250 -980l249 980h258l-365 -1434h-283l-224 868l-220 -868h-284z" />
    <glyph glyph-name="wcircumflex" unicode="&#x175;" horiz-adv-x="1745" 
d="M1013 1432l198 -295h-167l-171 197l-170 -197h-165l194 295h281zM651 0h-248l-342 1024h245l222 -663l222 663h246l222 -663l222 663h244l-342 -1024h-247l-223 666z" />
    <glyph glyph-name="Ycircumflex" unicode="&#x176;" horiz-adv-x="1357" 
d="M819 1841l198 -295h-167l-171 198l-170 -198h-166l195 295h281zM1001 1434h295l-492 -788v-646h-250v646l-493 788h295l323 -515z" />
    <glyph glyph-name="ycircumflex" unicode="&#x177;" horiz-adv-x="1172" 
d="M726 1432l199 -295h-167l-171 197l-170 -197h-167l195 295h281zM825 1024h266l-561 -1536h-265l186 512l-369 1024h273l220 -682z" />
    <glyph glyph-name="Ydieresis" unicode="&#x178;" horiz-adv-x="1357" 
d="M477 1505q-56 0 -93.5 36.5t-37.5 91.5q0 54 38 91.5t93 37.5q54 0 91 -37.5t37 -91.5q0 -55 -37 -91.5t-91 -36.5zM883 1505q-56 0 -93.5 36.5t-37.5 91.5q0 54 38 91.5t93 37.5q54 0 91.5 -37.5t37.5 -91.5q0 -55 -37.5 -91.5t-91.5 -36.5zM1001 1434h295l-492 -788
v-646h-250v646l-493 788h295l323 -515z" />
    <glyph glyph-name="Zacute" unicode="&#x179;" horiz-adv-x="1323" 
d="M596 1546l82 295h250l-165 -295h-167zM82 0v250l822 934h-822v250h1159v-250l-822 -934h822v-250h-1159z" />
    <glyph glyph-name="zacute" unicode="&#x17a;" horiz-adv-x="1038" 
d="M454 1137l82 295h249l-164 -295h-167zM956 774l-515 -524h515v-250h-874v250l515 524h-515v250h874v-250z" />
    <glyph glyph-name="Zdotaccent" unicode="&#x17b;" horiz-adv-x="1323" 
d="M663 1566q-56 0 -93.5 36.5t-37.5 91.5q0 54 38 91t93 37q54 0 91.5 -37t37.5 -91q0 -55 -36.5 -91.5t-92.5 -36.5zM82 0v250l822 934h-822v250h1159v-250l-822 -934h822v-250h-1159z" />
    <glyph glyph-name="zdotaccent" unicode="&#x17c;" horiz-adv-x="1038" 
d="M520 1156q-56 0 -93 36.5t-37 91.5q0 54 37.5 91t92.5 37q54 0 91.5 -37t37.5 -91q0 -55 -36.5 -91.5t-92.5 -36.5zM956 774l-515 -524h515v-250h-874v250l515 524h-515v250h874v-250z" />
    <glyph glyph-name="Zcaron" unicode="&#x17d;" horiz-adv-x="1323" 
d="M521 1546l-197 295h165l173 -197l168 197h167l-194 -295h-282zM82 0v250l822 934h-822v250h1159v-250l-822 -934h822v-250h-1159z" />
    <glyph glyph-name="zcaron" unicode="&#x17e;" horiz-adv-x="1038" 
d="M379 1137l-198 295h166l172 -198l169 198h167l-195 -295h-281zM956 774l-515 -524h515v-250h-874v250l515 524h-515v250h874v-250z" />
    <glyph glyph-name="uni01CD" unicode="&#x1cd;" horiz-adv-x="1492" 
d="M606 1546l-198 295h166l172 -197l169 197h167l-195 -295h-281zM602 1434h288l521 -1434h-265l-92 254h-615l-92 -254h-265zM530 504h432l-217 591z" />
    <glyph glyph-name="uni01CE" unicode="&#x1ce;" horiz-adv-x="1226" 
d="M488 1137l-198 295h167l172 -198l169 198h167l-196 -295h-281zM895 1024h250v-1024h-250l-11 127q-44 -72 -114 -113t-161 -41q-149 0 -275.5 74t-199.5 200.5t-73 275.5q0 144 70 266t191.5 193t265.5 71q188 0 318 -160zM603 214q118 0 195.5 86.5t77.5 211.5
q0 126 -78 212.5t-195 86.5q-120 0 -203 -87.5t-83 -211.5t84 -211t202 -87z" />
    <glyph glyph-name="uni01CF" unicode="&#x1cf;" horiz-adv-x="557" 
d="M138 1546l-197 295h165l173 -197l168 197h167l-194 -295h-282zM154 0v1434h249v-1434h-249z" />
    <glyph glyph-name="uni01D0" unicode="&#x1d0;" 
d="M108 1137l-198 295h166l172 -198l169 198h167l-195 -295h-281zM123 1024h250v-1024h-250v1024z" />
    <glyph glyph-name="uni01D1" unicode="&#x1d1;" horiz-adv-x="1576" 
d="M648 1546l-197 295h165l172 -197l169 197h167l-194 -295h-282zM788 -27q-143 0 -274 59t-225.5 158.5t-150.5 237.5t-56 289t56 288.5t150.5 237t225.5 158.5t274 59q191 0 354 -99.5t258 -270.5t95 -373q0 -151 -56 -289t-151 -237.5t-226 -158.5t-274 -59zM788 223
q188 0 322.5 146t134.5 348q0 133 -61.5 246.5t-167 180t-228.5 66.5q-188 0 -322 -145.5t-134 -347.5q0 -203 134 -348.5t322 -145.5z" />
    <glyph glyph-name="uni01D2" unicode="&#x1d2;" horiz-adv-x="1146" 
d="M433 1137l-197 295h165l172 -198l169 198h167l-194 -295h-282zM573 -27q-139 0 -257 72.5t-186.5 196.5t-68.5 270q0 147 68.5 271.5t186.5 197t257 72.5t257 -72.5t186.5 -197t68.5 -271.5q0 -146 -68.5 -270t-186.5 -196.5t-257 -72.5zM573 223q110 0 186.5 85.5
t76.5 203.5q0 119 -77.5 205t-185.5 86q-109 0 -185.5 -86.5t-76.5 -204.5q0 -121 77 -205t185 -84z" />
    <glyph glyph-name="uni01D3" unicode="&#x1d3;" horiz-adv-x="1392" 
d="M556 1546l-199 295h167l172 -197l169 197h167l-194 -295h-282zM697 -27q-168 0 -300 84t-203 226t-71 315v836h250v-836q0 -160 87 -267.5t237 -107.5q151 0 237 107t86 268v836h250v-836q0 -129 -41.5 -243.5t-115.5 -199t-182 -133.5t-234 -49z" />
    <glyph glyph-name="uni01D4" unicode="&#x1d4;" horiz-adv-x="1101" 
d="M441 1139l-198 295h166l172 -199l170 199h165l-194 -295h-281zM82 379v645h250v-580q0 -91 64 -154.5t154 -63.5q91 0 155 63.5t64 154.5v580h250l1 -1024h-250l-1 93q-115 -120 -282 -120q-168 0 -286.5 119t-118.5 287z" />
    <glyph glyph-name="uni01D5" unicode="&#x1d5;" horiz-adv-x="1392" 
d="M350 2057h692v-186h-692v186zM495 1505q-56 0 -93.5 36.5t-37.5 91.5q0 54 38 91.5t93 37.5q54 0 91 -37.5t37 -91.5q0 -55 -37 -91.5t-91 -36.5zM900 1505q-56 0 -93.5 36.5t-37.5 91.5q0 54 38 91.5t93 37.5q54 0 91.5 -37.5t37.5 -91.5q0 -55 -37.5 -91.5t-91.5 -36.5
zM697 -27q-168 0 -300 84t-203 226t-71 315v836h250v-836q0 -160 87 -267.5t237 -107.5q151 0 237 107t86 268v836h250v-836q0 -129 -41.5 -243.5t-115.5 -199t-182 -133.5t-234 -49z" />
    <glyph glyph-name="uni01D6" unicode="&#x1d6;" horiz-adv-x="1101" 
d="M234 1650h693v-188h-693v188zM379 1098q-56 0 -93 36.5t-37 91.5q0 54 37.5 91.5t92.5 37.5q54 0 91.5 -37.5t37.5 -91.5q0 -55 -37.5 -91.5t-91.5 -36.5zM784 1098q-56 0 -93 36.5t-37 91.5q0 54 37.5 91.5t92.5 37.5q54 0 91.5 -37.5t37.5 -91.5q0 -55 -37.5 -91.5
t-91.5 -36.5zM82 379v645h250v-580q0 -91 64 -154.5t154 -63.5q91 0 155 63.5t64 154.5v580h250l1 -1024h-250l-1 93q-115 -120 -282 -120q-168 0 -286.5 119t-118.5 287z" />
    <glyph glyph-name="uni01D7" unicode="&#x1d7;" horiz-adv-x="1392" 
d="M631 1836l82 295h250l-165 -295h-167zM495 1505q-56 0 -93.5 36.5t-37.5 91.5q0 54 38 91.5t93 37.5q54 0 91 -37.5t37 -91.5q0 -55 -37 -91.5t-91 -36.5zM900 1505q-56 0 -93.5 36.5t-37.5 91.5q0 54 38 91.5t93 37.5q54 0 91.5 -37.5t37.5 -91.5q0 -55 -37.5 -91.5
t-91.5 -36.5zM697 -27q-168 0 -300 84t-203 226t-71 315v836h250v-836q0 -160 87 -267.5t237 -107.5q151 0 237 107t86 268v836h250v-836q0 -129 -41.5 -243.5t-115.5 -199t-182 -133.5t-234 -49z" />
    <glyph glyph-name="uni01D8" unicode="&#x1d8;" horiz-adv-x="1101" 
d="M515 1427l82 295h250l-165 -295h-167zM379 1098q-56 0 -93 36.5t-37 91.5q0 54 37.5 91.5t92.5 37.5q54 0 91.5 -37.5t37.5 -91.5q0 -55 -37.5 -91.5t-91.5 -36.5zM784 1098q-56 0 -93 36.5t-37 91.5q0 54 37.5 91.5t92.5 37.5q54 0 91.5 -37.5t37.5 -91.5
q0 -55 -37.5 -91.5t-91.5 -36.5zM82 379v645h250v-580q0 -91 64 -154.5t154 -63.5q91 0 155 63.5t64 154.5v580h250l1 -1024h-250l-1 93q-115 -120 -282 -120q-168 0 -286.5 119t-118.5 287z" />
    <glyph glyph-name="uni01D9" unicode="&#x1d9;" horiz-adv-x="1392" 
d="M556 1836l-199 295h167l172 -199l169 199h167l-194 -295h-282zM495 1505q-56 0 -93.5 36.5t-37.5 91.5q0 54 38 91.5t93 37.5q54 0 91 -37.5t37 -91.5q0 -55 -37 -91.5t-91 -36.5zM900 1505q-56 0 -93.5 36.5t-37.5 91.5q0 54 38 91.5t93 37.5q54 0 91.5 -37.5
t37.5 -91.5q0 -55 -37.5 -91.5t-91.5 -36.5zM697 -27q-168 0 -300 84t-203 226t-71 315v836h250v-836q0 -160 87 -267.5t237 -107.5q151 0 237 107t86 268v836h250v-836q0 -129 -41.5 -243.5t-115.5 -199t-182 -133.5t-234 -49z" />
    <glyph glyph-name="uni01DA" unicode="&#x1da;" horiz-adv-x="1101" 
d="M441 1427l-198 295h166l172 -197l170 197h165l-194 -295h-281zM379 1098q-56 0 -93 36.5t-37 91.5q0 54 37.5 91.5t92.5 37.5q54 0 91.5 -37.5t37.5 -91.5q0 -55 -37.5 -91.5t-91.5 -36.5zM784 1098q-56 0 -93 36.5t-37 91.5q0 54 37.5 91.5t92.5 37.5q54 0 91.5 -37.5
t37.5 -91.5q0 -55 -37.5 -91.5t-91.5 -36.5zM82 379v645h250v-580q0 -91 64 -154.5t154 -63.5q91 0 155 63.5t64 154.5v580h250l1 -1024h-250l-1 93q-115 -120 -282 -120q-168 0 -286.5 119t-118.5 287z" />
    <glyph glyph-name="uni01DB" unicode="&#x1db;" horiz-adv-x="1392" 
d="M429 2131h250l82 -295h-167zM495 1505q-56 0 -93.5 36.5t-37.5 91.5q0 54 38 91.5t93 37.5q54 0 91 -37.5t37 -91.5q0 -55 -37 -91.5t-91 -36.5zM900 1505q-56 0 -93.5 36.5t-37.5 91.5q0 54 38 91.5t93 37.5q54 0 91.5 -37.5t37.5 -91.5q0 -55 -37.5 -91.5t-91.5 -36.5z
M697 -27q-168 0 -300 84t-203 226t-71 315v836h250v-836q0 -160 87 -267.5t237 -107.5q151 0 237 107t86 268v836h250v-836q0 -129 -41.5 -243.5t-115.5 -199t-182 -133.5t-234 -49z" />
    <glyph glyph-name="uni01DC" unicode="&#x1dc;" horiz-adv-x="1101" 
d="M313 1722h250l82 -295h-166zM379 1098q-56 0 -93 36.5t-37 91.5q0 54 37.5 91.5t92.5 37.5q54 0 91.5 -37.5t37.5 -91.5q0 -55 -37.5 -91.5t-91.5 -36.5zM784 1098q-56 0 -93 36.5t-37 91.5q0 54 37.5 91.5t92.5 37.5q54 0 91.5 -37.5t37.5 -91.5q0 -55 -37.5 -91.5
t-91.5 -36.5zM82 379v645h250v-580q0 -91 64 -154.5t154 -63.5q91 0 155 63.5t64 154.5v580h250l1 -1024h-250l-1 93q-115 -120 -282 -120q-168 0 -286.5 119t-118.5 287z" />
    <glyph glyph-name="uni01DE" unicode="&#x1de;" horiz-adv-x="1492" 
d="M400 2057h693v-186h-693v186zM545 1505q-56 0 -93.5 36.5t-37.5 91.5q0 54 38 91.5t93 37.5q54 0 91 -37.5t37 -91.5q0 -55 -37 -91.5t-91 -36.5zM950 1505q-56 0 -93.5 36.5t-37.5 91.5q0 54 38 91.5t93 37.5q54 0 91 -37.5t37 -91.5q0 -55 -37 -91.5t-91 -36.5z
M602 1434h288l521 -1434h-265l-92 254h-615l-92 -254h-265zM530 504h432l-217 591z" />
    <glyph glyph-name="uni01DF" unicode="&#x1df;" horiz-adv-x="1226" 
d="M283 1648h692v-187h-692v187zM427 1096q-56 0 -93.5 36.5t-37.5 91.5q0 54 38 91.5t93 37.5q54 0 91 -37.5t37 -91.5q0 -55 -37 -91.5t-91 -36.5zM833 1096q-56 0 -94 36.5t-38 91.5q0 54 38.5 91.5t93.5 37.5q54 0 91 -37.5t37 -91.5q0 -55 -37 -91.5t-91 -36.5z
M895 1024h250v-1024h-250l-11 127q-44 -72 -114 -113t-161 -41q-149 0 -275.5 74t-199.5 200.5t-73 275.5q0 144 70 266t191.5 193t265.5 71q188 0 318 -160zM603 214q118 0 195.5 86.5t77.5 211.5q0 126 -78 212.5t-195 86.5q-120 0 -203 -87.5t-83 -211.5t84 -211t202 -87
z" />
    <glyph glyph-name="uni01E2" unicode="&#x1e2;" horiz-adv-x="1718" 
d="M763 1768h692v-187h-692v187zM82 0l520 1434h1014v-250h-506v-342h408v-250h-408v-342h506v-250h-756v254h-421l-92 -254h-265zM530 504h330v680h-82z" />
    <glyph glyph-name="uni01E3" unicode="&#x1e3;" horiz-adv-x="1770" 
d="M479 1360h692v-186h-692v186zM366 -27q-143 0 -239 94t-96 227q0 131 95 225.5t238 94.5h313q-12 81 -70.5 135t-145.5 54q-81 0 -147 -39l-138 208q127 81 282 81q109 0 205.5 -48.5t161.5 -134.5q68 85 165 134t208 49q157 0 282 -87.5t184.5 -232t37.5 -306.5h-748
q21 -91 86.5 -147.5t159.5 -56.5q63 0 117 31.5t90 87.5l255 -59q-64 -139 -188.5 -224.5t-275.5 -85.5q-122 0 -228 58.5t-174 158.5q-60 -91 -178.5 -154t-251.5 -63zM946 614h504q-19 94 -90 157.5t-162 63.5q-92 0 -161.5 -63t-90.5 -158zM366 193q75 0 138.5 32.5
t105.5 88.5q42 49 66 113h-312q-50 0 -82.5 -33.5t-32.5 -81.5t33 -83.5t84 -35.5z" />
    <glyph glyph-name="Gcaron" unicode="&#x1e6;" horiz-adv-x="1573" 
d="M648 1546l-198 295h165l172 -197l170 197h166l-194 -295h-281zM786 -27q-146 0 -277.5 59.5t-224.5 160t-147.5 238t-54.5 288.5q0 157 59 296.5t157 235.5t227 151.5t267 55.5q159 0 304.5 -74t253.5 -221l-224 -120q-67 82 -155.5 124.5t-182.5 42.5q-90 0 -173 -37.5
t-145.5 -102.5t-100 -158t-37.5 -198q0 -134 61.5 -247t167 -178.5t230.5 -65.5q129 0 239.5 78.5t166.5 214.5h-261v218h555q4 -154 -50.5 -294.5t-149 -243t-227 -163t-278.5 -60.5z" />
    <glyph glyph-name="gcaron" unicode="&#x1e7;" horiz-adv-x="1255" 
d="M488 1137l-198 295h166l172 -198l170 198h166l-195 -295h-281zM883 1024h250v-1043q0 -108 -46 -201t-122.5 -156.5t-178 -99.5t-211.5 -36q-161 0 -299.5 95t-198.5 243l228 103q30 -85 105.5 -137t164.5 -52q125 0 216.5 66t91.5 175v144q-110 -152 -289 -152
q-145 0 -267.5 72.5t-194 196.5t-71.5 270t71.5 270t194 196.5t267.5 72.5q180 0 289 -151v124zM597 214q116 0 193 87t77 211q0 125 -77 212t-193 87t-198 -87.5t-82 -211.5t82 -211t198 -87z" />
    <glyph glyph-name="uni01E8" unicode="&#x1e8;" horiz-adv-x="1201" 
d="M461 1546l-199 295h166l172 -197l170 197h166l-195 -295h-280zM1170 0h-325l-403 562l-69 -83v-479h-250v1434h250v-567l474 567h327l-569 -676z" />
    <glyph glyph-name="uni01E9" unicode="&#x1e9;" horiz-adv-x="1095" 
d="M513 1546l-199 295h167l172 -197l169 197h167l-194 -295h-282zM1037 0h-287l-234 402l-143 -171v-231h-250v1536h250v-916l339 404h326l-351 -419z" />
    <glyph glyph-name="uni0218" unicode="&#x218;" horiz-adv-x="1278" 
d="M639 -27q-183 0 -334 85t-203 229l235 86q23 -63 109 -106.5t193 -43.5q115 0 200 52t85 133q0 136 -285 183q-96 15 -173.5 37t-146.5 57t-115 81.5t-73 112t-27 146.5q0 126 75 226.5t196.5 153.5t263.5 53q119 0 227.5 -36.5t192 -108.5t118.5 -169l-236 -85
q-23 63 -108.5 105.5t-193.5 42.5q-112 1 -198.5 -52t-86.5 -130q0 -25 5 -46t18 -37t24.5 -28t36.5 -22t41 -16.5t49.5 -13.5t52 -10t58.5 -10q112 -17 205.5 -51t169 -86t118 -128t42.5 -169q0 -127 -74 -227.5t-195.5 -154t-265.5 -53.5zM531 -452l64 347h250l-148 -347
h-166z" />
    <glyph glyph-name="uni0219" unicode="&#x219;" horiz-adv-x="889" 
d="M425 -18q-124 8 -227 66t-147 153l211 90q21 -37 74 -67t117 -30t108.5 26t44.5 76q0 18 -6 33t-22 26t-26.5 18t-37.5 15t-36 10t-40 9q-161 32 -263 113t-102 210q0 147 112 238t269 91q122 0 224 -51.5t161 -142.5l-198 -116q-22 38 -68.5 65.5t-98.5 30.5
q-74 4 -121 -23.5t-47 -85.5q0 -22 11 -38.5t33.5 -27t42.5 -16.5t52.5 -14t49.5 -13q73 -24 131 -52t109 -67.5t78 -92.5t25 -116q0 -96 -59 -172.5t-154 -114.5t-200 -30zM316 -452l64 347h250l-148 -347h-166z" />
    <glyph glyph-name="uni021A" unicode="&#x21a;" horiz-adv-x="1290" 
d="M1208 1434v-250h-438v-1184h-250v1184h-438v250h1126zM457 -452l63 347h250l-147 -347h-166z" />
    <glyph glyph-name="uni021B" unicode="&#x21b;" horiz-adv-x="733" 
d="M672 774h-199v-774h-250v774h-151v250h151v322h250v-322h199v-250zM160 -452l63 347h250l-147 -347h-166z" />
    <glyph glyph-name="uni022A" unicode="&#x22a;" horiz-adv-x="1576" 
d="M442 2057h693v-186h-693v186zM587 1505q-56 0 -93.5 36.5t-37.5 91.5q0 54 38 91.5t93 37.5q54 0 91.5 -37.5t37.5 -91.5q0 -55 -37.5 -91.5t-91.5 -36.5zM992 1505q-56 0 -93.5 36.5t-37.5 91.5q0 54 38 91.5t93 37.5q54 0 91.5 -37.5t37.5 -91.5q0 -55 -37.5 -91.5
t-91.5 -36.5zM788 -27q-143 0 -274 59t-225.5 158.5t-150.5 237.5t-56 289t56 288.5t150.5 237t225.5 158.5t274 59q191 0 354 -99.5t258 -270.5t95 -373q0 -151 -56 -289t-151 -237.5t-226 -158.5t-274 -59zM788 223q188 0 322.5 146t134.5 348q0 133 -61.5 246.5t-167 180
t-228.5 66.5q-188 0 -322 -145.5t-134 -347.5q0 -203 134 -348.5t322 -145.5z" />
    <glyph glyph-name="uni022B" unicode="&#x22b;" horiz-adv-x="1146" 
d="M227 1648h693v-187h-693v187zM372 1096q-56 0 -93.5 36.5t-37.5 91.5q0 54 38 91.5t93 37.5q54 0 91.5 -37.5t37.5 -91.5q0 -55 -37.5 -91.5t-91.5 -36.5zM777 1096q-56 0 -93.5 36.5t-37.5 91.5q0 54 38 91.5t93 37.5q54 0 91.5 -37.5t37.5 -91.5q0 -55 -37.5 -91.5
t-91.5 -36.5zM573 -27q-139 0 -257 72.5t-186.5 196.5t-68.5 270q0 147 68.5 271.5t186.5 197t257 72.5t257 -72.5t186.5 -197t68.5 -271.5q0 -146 -68.5 -270t-186.5 -196.5t-257 -72.5zM573 223q110 0 186.5 85.5t76.5 203.5q0 119 -77.5 205t-185.5 86
q-109 0 -185.5 -86.5t-76.5 -204.5q0 -121 77 -205t185 -84z" />
    <glyph glyph-name="uni0232" unicode="&#x232;" horiz-adv-x="1357" 
d="M333 1768h692v-187h-692v187zM1001 1434h295l-492 -788v-646h-250v646l-493 788h295l323 -515z" />
    <glyph glyph-name="uni0233" unicode="&#x233;" horiz-adv-x="1172" 
d="M241 1359h692v-188h-692v188zM825 1024h266l-561 -1536h-265l186 512l-369 1024h273l220 -682z" />
    <glyph glyph-name="uni0237" unicode="&#x237;" horiz-adv-x="498" 
d="M-82 -512v250q87 0 147.5 59.5t60.5 145.5v1081h250v-1081q0 -189 -133.5 -322t-324.5 -133z" />
    <glyph glyph-name="quoteleft" unicode="&#x2bb;" horiz-adv-x="415" 
d="M61 899l147 535h167l-64 -535h-250z" />
    <glyph glyph-name="quoteleft" unicode="&#x2018;" horiz-adv-x="415" 
d="M61 899l147 535h167l-64 -535h-250z" />
    <glyph glyph-name="uni02BC" unicode="&#x2bc;" horiz-adv-x="544" 
d="M41 899l63 535h250l-146 -535h-167z" />
    <glyph glyph-name="circumflex" unicode="&#x2c6;" horiz-adv-x="705" 
d="M492 1432l198 -295h-167l-172 197l-169 -197h-167l196 295h281z" />
    <glyph glyph-name="caron" unicode="&#x2c7;" horiz-adv-x="665" 
d="M195 1137l-199 295h167l171 -198l170 198h167l-196 -295h-280z" />
    <glyph glyph-name="breve" unicode="&#x2d8;" horiz-adv-x="1171" 
d="M586 1114q-140 0 -240 100t-100 240h155q0 -75 55 -129.5t130 -54.5q76 0 130 53.5t54 130.5h156q0 -142 -100 -241t-240 -99z" />
    <glyph glyph-name="dotaccent" unicode="&#x2d9;" horiz-adv-x="1078" 
d="M540 1156q-56 0 -93 36.5t-37 91.5q0 54 37.5 91t92.5 37q54 0 91.5 -37t37.5 -91q0 -55 -36.5 -91.5t-92.5 -36.5z" />
    <glyph glyph-name="ring" unicode="&#x2da;" horiz-adv-x="1199" 
d="M600 1094q-78 0 -134 57t-56 135q0 77 56 133t134 56t134 -56t56 -133q0 -79 -56 -135.5t-134 -56.5zM600 1215q29 0 49 20.5t20 49.5q0 28 -20.5 48t-48.5 20q-29 0 -49 -20t-20 -48q0 -29 20 -49.5t49 -20.5z" />
    <glyph glyph-name="ogonek" unicode="&#x2db;" horiz-adv-x="1120" 
d="M547 -462q-105 0 -172.5 73t-67.5 169q0 98 71 170l172 172l122 -122q-17 -17 -55.5 -54.5t-52.5 -52.5t-35 -40t-28.5 -44t-7.5 -38q0 -26 17.5 -45.5t46.5 -20.5q39 0 68 28.5t29 69.5h159q0 -109 -76.5 -187t-189.5 -78z" />
    <glyph glyph-name="tilde" unicode="&#x2dc;" horiz-adv-x="1281" 
d="M812 1136q-43 0 -121 44.5t-138.5 80t-75.5 20.5q-27 -28 -10 -90l-145 -40q-41 120 8 205t163 85q34 0 86.5 -23t97 -50.5t86 -50.5t54.5 -23q28 0 30.5 30t-10.5 58l148 49q41 -124 -11 -209.5t-162 -85.5z" />
    <glyph glyph-name="hungarumlaut" unicode="&#x2dd;" horiz-adv-x="1083" 
d="M548 1137l82 295h250l-165 -295h-167zM205 1137l82 295h250l-165 -295h-167z" />
    <glyph glyph-name="gravecomb" unicode="&#x300;" horiz-adv-x="0" 
d="M299 1432h250l82 -295h-167z" />
    <glyph glyph-name="acutecomb" unicode="&#x301;" horiz-adv-x="0" 
d="M425 1137l82 295h250l-166 -295h-166z" />
    <glyph glyph-name="uni0302" unicode="&#x302;" horiz-adv-x="0" 
d="M492 1432l198 -295h-167l-172 197l-169 -197h-167l196 295h281z" />
    <glyph glyph-name="tildecomb" unicode="&#x303;" horiz-adv-x="0" 
d="M816 1132q-34 0 -90.5 27.5t-103 58.5t-88 50.5t-53.5 7.5q-27 -28 -9 -89l-146 -40q-41 120 8.5 205t162.5 85q43 0 115 -36.5t133 -73.5t77 -37q19 0 26 15t4.5 33.5t-10.5 39.5l148 48q41 -124 -11.5 -209t-162.5 -85z" />
    <glyph glyph-name="uni0304" unicode="&#x304;" horiz-adv-x="0" 
d="M268 1359h693v-188h-693v188z" />
    <glyph glyph-name="uni0306" unicode="&#x306;" horiz-adv-x="0" 
d="M586 1114q-140 0 -240 100t-100 240h155q0 -75 55 -129.5t130 -54.5q76 0 130 53.5t54 130.5h156q0 -142 -100 -241t-240 -99z" />
    <glyph glyph-name="uni0307" unicode="&#x307;" horiz-adv-x="0" 
d="M540 1156q-56 0 -93 36.5t-37 91.5q0 54 37.5 91t92.5 37q54 0 91.5 -37t37.5 -91q0 -55 -36.5 -91.5t-92.5 -36.5z" />
    <glyph glyph-name="uni0308" unicode="&#x308;" horiz-adv-x="0" 
d="M541 1096q-56 0 -93.5 36.5t-37.5 91.5q0 54 38 91.5t93 37.5q54 0 91 -37.5t37 -91.5q0 -55 -37 -91.5t-91 -36.5zM946 1096q-56 0 -93.5 36.5t-37.5 91.5q0 54 38 91.5t93 37.5q54 0 91.5 -37.5t37.5 -91.5q0 -55 -37.5 -91.5t-91.5 -36.5z" />
    <glyph glyph-name="uni030A" unicode="&#x30a;" horiz-adv-x="0" 
d="M600 1094q-78 0 -134 57t-56 135q0 77 56 133t134 56t134 -56t56 -133q0 -79 -56 -135.5t-134 -56.5zM600 1215q29 0 49 20.5t20 49.5q0 28 -20.5 48t-48.5 20q-29 0 -49 -20t-20 -48q0 -29 20 -49.5t49 -20.5z" />
    <glyph glyph-name="uni030B" unicode="&#x30b;" horiz-adv-x="0" 
d="M548 1137l82 295h250l-165 -295h-167zM205 1137l82 295h250l-165 -295h-167z" />
    <glyph glyph-name="uni030C" unicode="&#x30c;" horiz-adv-x="0" 
d="M195 1137l-199 295h167l171 -198l170 198h167l-196 -295h-280z" />
    <glyph glyph-name="dotbelowcomb" unicode="&#x323;" horiz-adv-x="0" 
d="M540 -451q-56 0 -93 36.5t-37 91.5q0 54 37.5 91t92.5 37q54 0 91.5 -37t37.5 -91q0 -55 -36.5 -91.5t-92.5 -36.5z" />
    <glyph glyph-name="uni0326" unicode="&#x326;" horiz-adv-x="0" 
d="M410 -452l63 347h250l-146 -347h-167z" />
    <glyph glyph-name="uni0327" unicode="&#x327;" horiz-adv-x="0" 
d="M635 -385q-73 -20 -138 18t-85 111l127 34q5 -20 23 -30.5t39 -4.5q21 4 31 22.5t5 39.5q-11 41 -63 36l-131 -5l145 254l114 -67l-38 -67q37 -14 64 -45.5t37 -72.5q20 -72 -18 -137.5t-112 -85.5z" />
    <glyph glyph-name="uni0328" unicode="&#x328;" horiz-adv-x="0" 
d="M547 -462q-105 0 -172.5 73t-67.5 169q0 98 71 170l172 172l122 -122q-17 -17 -55.5 -54.5t-52.5 -52.5t-35 -40t-28.5 -44t-7.5 -38q0 -26 17.5 -45.5t46.5 -20.5q39 0 68 28.5t29 69.5h159q0 -109 -76.5 -187t-189.5 -78z" />
    <glyph glyph-name="uni03BC" unicode="&#x3bc;" horiz-adv-x="1161" 
d="M82 -442v1466h250v-523q0 -121 72.5 -204t184.5 -83q110 0 175 82t65 205v523h250v-1024h-250v122q-114 -151 -282 -151q-121 0 -215 79v-492h-250z" />
    <glyph glyph-name="uni1E04" unicode="&#x1e04;" horiz-adv-x="1202" 
d="M123 0v1434h522q174 0 289.5 -105t115.5 -279q0 -85 -37.5 -160.5t-107.5 -104.5q63 -16 108 -59.5t67 -102.5t31 -114t9 -113q0 -168 -122 -282t-295 -114h-580zM373 879h243q78 0 131 48t53 125q0 79 -52 123t-132 44h-243v-340zM373 214h305q92 0 155.5 65.5
t63.5 164.5q0 88 -64.5 156t-154.5 68h-305v-454zM602 -451q-56 0 -93 36.5t-37 91.5q0 54 37.5 91t92.5 37q54 0 91.5 -37t37.5 -91q0 -55 -36.5 -91.5t-92.5 -36.5z" />
    <glyph glyph-name="uni1E05" unicode="&#x1e05;" horiz-adv-x="1269" 
d="M668 1053q147 0 271.5 -72.5t196.5 -196.5t72 -270q0 -147 -72 -271.5t-196.5 -197t-271.5 -72.5q-182 0 -295 157v-130h-250v1536h250v-640q113 157 295 157zM665 215q120 0 203.5 87.5t83.5 211.5t-84 211t-203 87q-116 0 -193.5 -87t-77.5 -211q0 -126 77.5 -212.5
t193.5 -86.5zM636 -451q-56 0 -93 36.5t-37 91.5q0 54 37.5 91t92.5 37q54 0 91 -37t37 -91q0 -55 -36 -91.5t-92 -36.5z" />
    <glyph glyph-name="uni1E0C" unicode="&#x1e0c;" horiz-adv-x="1376" 
d="M123 0v1434h475q145 0 278 -57t229 -153t153 -229t57 -278t-57 -278t-153 -229t-229 -153t-278 -57h-475zM373 250h225q191 0 329 137t138 330q0 126 -63 234t-171 170.5t-233 62.5h-225v-934zM674 -451q-56 0 -93.5 36.5t-37.5 91.5q0 54 38 91t93 37q54 0 91 -37
t37 -91q0 -55 -36.5 -91.5t-91.5 -36.5z" />
    <glyph glyph-name="uni1E0D" unicode="&#x1e0d;" horiz-adv-x="1269" 
d="M897 1536h250v-1536h-250v128q-111 -155 -297 -155q-146 0 -270 72.5t-196.5 196.5t-72.5 270t72.5 270t196.5 196.5t270 72.5q186 0 297 -155v640zM603 214q118 0 195.5 86.5t77.5 211.5q0 126 -78 212.5t-195 86.5q-119 0 -202.5 -87.5t-83.5 -211.5t84 -211t202 -87z
M632 -451q-56 0 -93 36.5t-37 91.5q0 54 37.5 91t92.5 37q54 0 91 -37t37 -91q0 -55 -36.5 -91.5t-91.5 -36.5z" />
    <glyph glyph-name="uni1E20" unicode="&#x1e20;" horiz-adv-x="1573" 
d="M441 1768h693v-187h-693v187zM786 -27q-146 0 -277.5 59.5t-224.5 160t-147.5 238t-54.5 288.5q0 157 59 296.5t157 235.5t227 151.5t267 55.5q159 0 304.5 -74t253.5 -221l-224 -120q-67 82 -155.5 124.5t-182.5 42.5q-90 0 -173 -37.5t-145.5 -102.5t-100 -158
t-37.5 -198q0 -134 61.5 -247t167 -178.5t230.5 -65.5q129 0 239.5 78.5t166.5 214.5h-261v218h555q4 -154 -50.5 -294.5t-149 -243t-227 -163t-278.5 -60.5z" />
    <glyph glyph-name="uni1E21" unicode="&#x1e21;" horiz-adv-x="1255" 
d="M282 1359h692v-188h-692v188zM883 1024h250v-1043q0 -108 -46 -201t-122.5 -156.5t-178 -99.5t-211.5 -36q-161 0 -299.5 95t-198.5 243l228 103q30 -85 105.5 -137t164.5 -52q125 0 216.5 66t91.5 175v144q-110 -152 -289 -152q-145 0 -267.5 72.5t-194 196.5t-71.5 270
t71.5 270t194 196.5t267.5 72.5q180 0 289 -151v124zM597 214q116 0 193 87t77 211q0 125 -77 212t-193 87t-198 -87.5t-82 -211.5t82 -211t198 -87z" />
    <glyph glyph-name="uni1E24" unicode="&#x1e24;" horiz-adv-x="1339" 
d="M967 1434h250v-1434h-250v643h-594v-643h-250v1434h250v-541h594v541zM671 -451q-56 0 -93 36.5t-37 91.5q0 54 37.5 91t92.5 37q54 0 91 -37t37 -91q0 -55 -36.5 -91.5t-91.5 -36.5z" />
    <glyph glyph-name="uni1E25" unicode="&#x1e25;" horiz-adv-x="1142" 
d="M1061 647v-647h-250v582q0 91 -64 154.5t-155 63.5t-154.5 -63.5t-63.5 -154.5v-582h-250l-1 1536h250l1 -603q114 120 281 120t286.5 -119t119.5 -287zM625 -451q-56 0 -93 36.5t-37 91.5q0 54 37.5 91t92.5 37q54 0 91 -37t37 -91q0 -55 -36.5 -91.5t-91.5 -36.5z" />
    <glyph glyph-name="uni1E2E" unicode="&#x1e2e;" horiz-adv-x="557" 
d="M213 1836l82 295h250l-165 -295h-167zM77 1505q-56 0 -93.5 36.5t-37.5 91.5q0 54 38 91.5t93 37.5q54 0 91.5 -37.5t37.5 -91.5q0 -55 -37.5 -91.5t-91.5 -36.5zM482 1505q-56 0 -93.5 36.5t-37.5 91.5q0 54 38 91.5t93 37.5q54 0 91.5 -37.5t37.5 -91.5
q0 -55 -37.5 -91.5t-91.5 -36.5zM154 0v1434h249v-1434h-249z" />
    <glyph glyph-name="uni1E2F" unicode="&#x1e2f;" 
d="M182 1426l82 295h250l-165 -295h-167zM46 1096q-56 0 -93.5 36.5t-37.5 91.5q0 54 38 91.5t93 37.5q54 0 91.5 -37.5t37.5 -91.5q0 -55 -37.5 -91.5t-91.5 -36.5zM452 1096q-56 0 -93.5 36.5t-37.5 91.5q0 54 38 91.5t93 37.5q54 0 91.5 -37.5t37.5 -91.5
q0 -55 -37.5 -91.5t-91.5 -36.5zM123 1024h250v-1024h-250v1024z" />
    <glyph glyph-name="uni1E36" unicode="&#x1e36;" horiz-adv-x="1072" 
d="M123 0v1434h250v-1184h597v-250h-847zM547 -451q-56 0 -93 36.5t-37 91.5q0 54 37.5 91t92.5 37q54 0 91.5 -37t37.5 -91q0 -55 -36.5 -91.5t-92.5 -36.5z" />
    <glyph glyph-name="uni1E37" unicode="&#x1e37;" 
d="M123 0v1536h250v-1536h-250zM249 -451q-56 0 -93 36.5t-37 91.5q0 54 37.5 91t92.5 37q54 0 91.5 -37t37.5 -91q0 -55 -36.5 -91.5t-92.5 -36.5z" />
    <glyph glyph-name="uni1E3E" unicode="&#x1e3e;" horiz-adv-x="1914" 
d="M892 1546l82 295h250l-165 -295h-167zM123 0l278 1434h207l349 -919l350 919h206l279 -1434h-255l-172 887l-323 -854h-171l-322 854l-171 -887h-255z" />
    <glyph glyph-name="uni1E3F" unicode="&#x1e3f;" horiz-adv-x="1819" 
d="M929 1137l82 295h250l-166 -295h-166zM123 0v1024h250v-91q115 120 281 120q105 0 194.5 -50t144.5 -135q55 85 144.5 135t194.5 50q168 0 287 -119t119 -287v-647h-250v581q0 90 -63.5 154.5t-152.5 64.5q-90 0 -153.5 -63t-63.5 -156v-581h-250v581q0 93 -63 156
t-153 63q-89 0 -152.5 -64.5t-63.5 -154.5v-581h-250z" />
    <glyph glyph-name="uni1E40" unicode="&#x1e40;" horiz-adv-x="1914" 
d="M958 1566q-56 0 -93 36.5t-37 91.5q0 54 37.5 91t92.5 37q54 0 91.5 -37t37.5 -91q0 -55 -36.5 -91.5t-92.5 -36.5zM123 0l278 1434h207l349 -919l350 919h206l279 -1434h-255l-172 887l-323 -854h-171l-322 854l-171 -887h-255z" />
    <glyph glyph-name="uni1E41" unicode="&#x1e41;" horiz-adv-x="1819" 
d="M994 1156q-56 0 -93 36.5t-37 91.5q0 54 37.5 91t92.5 37q54 0 91.5 -37t37.5 -91q0 -55 -36.5 -91.5t-92.5 -36.5zM123 0v1024h250v-91q115 120 281 120q105 0 194.5 -50t144.5 -135q55 85 144.5 135t194.5 50q168 0 287 -119t119 -287v-647h-250v581q0 90 -63.5 154.5
t-152.5 64.5q-90 0 -153.5 -63t-63.5 -156v-581h-250v581q0 93 -63 156t-153 63q-89 0 -152.5 -64.5t-63.5 -154.5v-581h-250z" />
    <glyph glyph-name="uni1E42" unicode="&#x1e42;" horiz-adv-x="1914" 
d="M123 0l278 1434h207l349 -919l350 919h206l279 -1434h-255l-172 887l-323 -854h-171l-322 854l-171 -887h-255zM958 -451q-56 0 -93 36.5t-37 91.5q0 54 37.5 91t92.5 37q54 0 91.5 -37t37.5 -91q0 -55 -36.5 -91.5t-92.5 -36.5z" />
    <glyph glyph-name="uni1E43" unicode="&#x1e43;" horiz-adv-x="1819" 
d="M123 0v1024h250v-91q115 120 281 120q105 0 194.5 -50t144.5 -135q55 85 144.5 135t194.5 50q168 0 287 -119t119 -287v-647h-250v581q0 90 -63.5 154.5t-152.5 64.5q-90 0 -153.5 -63t-63.5 -156v-581h-250v581q0 93 -63 156t-153 63q-89 0 -152.5 -64.5t-63.5 -154.5
v-581h-250zM931 -451q-56 0 -93 36.5t-37 91.5q0 54 37.5 91t92.5 37q54 0 91.5 -37t37.5 -91q0 -55 -36.5 -91.5t-92.5 -36.5z" />
    <glyph glyph-name="uni1E44" unicode="&#x1e44;" horiz-adv-x="1371" 
d="M686 1566q-56 0 -93 36.5t-37 91.5q0 54 37.5 91t92.5 37q54 0 91.5 -37t37.5 -91q0 -55 -36.5 -91.5t-92.5 -36.5zM123 0v1434h270l605 -982v982h250v-1434h-269l-606 982v-982h-250z" />
    <glyph glyph-name="uni1E45" unicode="&#x1e45;" horiz-adv-x="1142" 
d="M609 1156q-56 0 -93.5 36.5t-37.5 91.5q0 54 38 91t93 37q54 0 91 -37t37 -91q0 -55 -36.5 -91.5t-91.5 -36.5zM1061 647v-647h-250v582q0 91 -64 154.5t-155 63.5t-154.5 -63.5t-63.5 -154.5v-582h-250l-1 1024h250l1 -91q114 120 281 120t286.5 -119t119.5 -287z" />
    <glyph glyph-name="uni1E46" unicode="&#x1e46;" horiz-adv-x="1371" 
d="M123 0v1434h270l605 -982v982h250v-1434h-269l-606 982v-982h-250zM686 -451q-56 0 -93 36.5t-37 91.5q0 54 37.5 91t92.5 37q54 0 91.5 -37t37.5 -91q0 -55 -36.5 -91.5t-92.5 -36.5z" />
    <glyph glyph-name="uni1E47" unicode="&#x1e47;" horiz-adv-x="1142" 
d="M1061 647v-647h-250v582q0 91 -64 154.5t-155 63.5t-154.5 -63.5t-63.5 -154.5v-582h-250l-1 1024h250l1 -91q114 120 281 120t286.5 -119t119.5 -287zM593 -451q-56 0 -93 36.5t-37 91.5q0 54 37.5 91t92.5 37q54 0 91.5 -37t37.5 -91q0 -55 -36.5 -91.5t-92.5 -36.5z
" />
    <glyph glyph-name="uni1E62" unicode="&#x1e62;" horiz-adv-x="1278" 
d="M639 -27q-183 0 -334 85t-203 229l235 86q23 -63 109 -106.5t193 -43.5q115 0 200 52t85 133q0 136 -285 183q-96 15 -173.5 37t-146.5 57t-115 81.5t-73 112t-27 146.5q0 126 75 226.5t196.5 153.5t263.5 53q119 0 227.5 -36.5t192 -108.5t118.5 -169l-236 -85
q-23 63 -108.5 105.5t-193.5 42.5q-112 1 -198.5 -52t-86.5 -130q0 -25 5 -46t18 -37t24.5 -28t36.5 -22t41 -16.5t49.5 -13.5t52 -10t58.5 -10q112 -17 205.5 -51t169 -86t118 -128t42.5 -169q0 -127 -74 -227.5t-195.5 -154t-265.5 -53.5zM721 -451q-56 0 -93 36.5
t-37 91.5q0 54 37.5 91t92.5 37q54 0 91 -37t37 -91q0 -55 -36.5 -91.5t-91.5 -36.5z" />
    <glyph glyph-name="uni1E63" unicode="&#x1e63;" horiz-adv-x="889" 
d="M425 -18q-124 8 -227 66t-147 153l211 90q21 -37 74 -67t117 -30t108.5 26t44.5 76q0 18 -6 33t-22 26t-26.5 18t-37.5 15t-36 10t-40 9q-161 32 -263 113t-102 210q0 147 112 238t269 91q122 0 224 -51.5t161 -142.5l-198 -116q-22 38 -68.5 65.5t-98.5 30.5
q-74 4 -121 -23.5t-47 -85.5q0 -22 11 -38.5t33.5 -27t42.5 -16.5t52.5 -14t49.5 -13q73 -24 131 -52t109 -67.5t78 -92.5t25 -116q0 -96 -59 -172.5t-154 -114.5t-200 -30zM506 -451q-56 0 -93.5 36.5t-37.5 91.5q0 54 38 91t93 37q54 0 91 -37t37 -91q0 -55 -36.5 -91.5
t-91.5 -36.5z" />
    <glyph glyph-name="uni1E6C" unicode="&#x1e6c;" horiz-adv-x="1290" 
d="M1208 1434v-250h-438v-1184h-250v1184h-438v250h1126zM646 -451q-56 0 -93 36.5t-37 91.5q0 54 37.5 91t92.5 37q54 0 91 -37t37 -91q0 -55 -36.5 -91.5t-91.5 -36.5z" />
    <glyph glyph-name="uni1E6D" unicode="&#x1e6d;" horiz-adv-x="733" 
d="M672 774h-199v-774h-250v774h-151v250h151v322h250v-322h199v-250zM349 -451q-56 0 -93 36.5t-37 91.5q0 54 37.5 91t92.5 37q54 0 91 -37t37 -91q0 -55 -36.5 -91.5t-91.5 -36.5z" />
    <glyph glyph-name="Wgrave" unicode="&#x1e80;" horiz-adv-x="1909" 
d="M687 1841h250l82 -295h-166zM450 0l-367 1434h258l250 -980l250 980h228l250 -980l249 980h258l-365 -1434h-283l-224 868l-220 -868h-284z" />
    <glyph glyph-name="wgrave" unicode="&#x1e81;" horiz-adv-x="1745" 
d="M605 1432h250l82 -295h-166zM651 0h-248l-342 1024h245l222 -663l222 663h246l222 -663l222 663h244l-342 -1024h-247l-223 666z" />
    <glyph glyph-name="Wacute" unicode="&#x1e82;" horiz-adv-x="1909" 
d="M890 1546l82 295h250l-166 -295h-166zM450 0l-367 1434h258l250 -980l250 980h228l250 -980l249 980h258l-365 -1434h-283l-224 868l-220 -868h-284z" />
    <glyph glyph-name="wacute" unicode="&#x1e83;" horiz-adv-x="1745" 
d="M808 1137l82 295h250l-165 -295h-167zM651 0h-248l-342 1024h245l222 -663l222 663h246l222 -663l222 663h244l-342 -1024h-247l-223 666z" />
    <glyph glyph-name="Wdieresis" unicode="&#x1e84;" horiz-adv-x="1909" 
d="M753 1505q-56 0 -93 36.5t-37 91.5q0 54 37.5 91.5t92.5 37.5q54 0 91.5 -37.5t37.5 -91.5q0 -55 -37.5 -91.5t-91.5 -36.5zM1158 1505q-56 0 -93 36.5t-37 91.5q0 54 37.5 91.5t92.5 37.5q54 0 91.5 -37.5t37.5 -91.5q0 -55 -37.5 -91.5t-91.5 -36.5zM450 0l-367 1434
h258l250 -980l250 980h228l250 -980l249 980h258l-365 -1434h-283l-224 868l-220 -868h-284z" />
    <glyph glyph-name="wdieresis" unicode="&#x1e85;" horiz-adv-x="1745" 
d="M672 1096q-56 0 -93.5 36.5t-37.5 91.5q0 54 38 91.5t93 37.5q54 0 91 -37.5t37 -91.5q0 -55 -37 -91.5t-91 -36.5zM1077 1096q-56 0 -93.5 36.5t-37.5 91.5q0 54 38 91.5t93 37.5q54 0 91 -37.5t37 -91.5q0 -55 -37 -91.5t-91 -36.5zM651 0h-248l-342 1024h245l222 -663
l222 663h246l222 -663l222 663h244l-342 -1024h-247l-223 666z" />
    <glyph glyph-name="uni1E92" unicode="&#x1e92;" horiz-adv-x="1323" 
d="M82 0v250l822 934h-822v250h1159v-250l-822 -934h822v-250h-1159zM663 -451q-56 0 -93.5 36.5t-37.5 91.5q0 54 38 91t93 37q54 0 91.5 -37t37.5 -91q0 -55 -36.5 -91.5t-92.5 -36.5z" />
    <glyph glyph-name="uni1E93" unicode="&#x1e93;" horiz-adv-x="1038" 
d="M956 774l-515 -524h515v-250h-874v250l515 524h-515v250h874v-250zM520 -451q-56 0 -93 36.5t-37 91.5q0 54 37.5 91t92.5 37q54 0 91.5 -37t37.5 -91q0 -55 -36.5 -91.5t-92.5 -36.5z" />
    <glyph glyph-name="uni1E97" unicode="&#x1e97;" horiz-adv-x="733" 
d="M146 1417q-56 0 -93.5 36.5t-37.5 91.5q0 54 38 91.5t93 37.5q54 0 91 -37.5t37 -91.5q0 -55 -37 -91.5t-91 -36.5zM552 1417q-56 0 -93.5 36.5t-37.5 91.5q0 54 38 91.5t93 37.5q54 0 91.5 -37.5t37.5 -91.5q0 -55 -37.5 -91.5t-91.5 -36.5zM672 774h-199v-774h-250v774
h-151v250h151v322h250v-322h199v-250z" />
    <glyph glyph-name="uni1E9E" unicode="&#x1e9e;" horiz-adv-x="1233" 
d="M123 0v920q0 105 40.5 200t109.5 164t164 109.5t199 40.5q160 0 282 -93.5t122 -226.5q0 -28 -8.5 -53.5t-32.5 -60t-46.5 -62t-71 -85.5t-84.5 -104q68 12 137 -12.5t121 -72t84.5 -113.5t32.5 -133q0 -98 -42.5 -179t-111.5 -132t-153.5 -79t-171.5 -28h-59l-52 214h87
q49 0 95.5 11t89.5 34t69 64.5t26 96.5q0 44 -17.5 80t-46 58.5t-66 38t-75.5 22t-76 6.5h-80l-1 94q-1 46 30.5 111.5t69 118.5t69 102t31.5 67q0 32 -15 53t-45 30.5t-61 13t-75 3.5q-86 0 -152 -69.5t-66 -165.5v-983h-250z" />
    <glyph glyph-name="uni1EA0" unicode="&#x1ea0;" horiz-adv-x="1492" 
d="M602 1434h288l521 -1434h-265l-92 254h-615l-92 -254h-265zM530 504h432l-217 591zM748 -451q-56 0 -93.5 36.5t-37.5 91.5q0 54 38 91t93 37q54 0 91 -37t37 -91q0 -55 -36.5 -91.5t-91.5 -36.5z" />
    <glyph glyph-name="uni1EA1" unicode="&#x1ea1;" horiz-adv-x="1226" 
d="M895 1024h250v-1024h-250l-11 127q-44 -72 -114 -113t-161 -41q-149 0 -275.5 74t-199.5 200.5t-73 275.5q0 144 70 266t191.5 193t265.5 71q188 0 318 -160zM603 214q118 0 195.5 86.5t77.5 211.5q0 126 -78 212.5t-195 86.5q-120 0 -203 -87.5t-83 -211.5t84 -211
t202 -87zM630 -451q-56 0 -93.5 36.5t-37.5 91.5q0 54 38 91t93 37q54 0 91 -37t37 -91q0 -55 -36.5 -91.5t-91.5 -36.5z" />
    <glyph glyph-name="uni1EAC" unicode="&#x1eac;" horiz-adv-x="1492" 
d="M886 1841l198 -295h-166l-172 198l-169 -198h-166l194 295h281zM602 1434h288l521 -1434h-265l-92 254h-615l-92 -254h-265zM530 504h432l-217 591zM748 -451q-56 0 -93.5 36.5t-37.5 91.5q0 54 38 91t93 37q54 0 91 -37t37 -91q0 -55 -36.5 -91.5t-91.5 -36.5z" />
    <glyph glyph-name="uni1EAD" unicode="&#x1ead;" horiz-adv-x="1226" 
d="M768 1432l199 -295h-167l-171 197l-170 -197h-167l195 295h281zM895 1024h250v-1024h-250l-11 127q-44 -72 -114 -113t-161 -41q-149 0 -275.5 74t-199.5 200.5t-73 275.5q0 144 70 266t191.5 193t265.5 71q188 0 318 -160zM603 214q118 0 195.5 86.5t77.5 211.5
q0 126 -78 212.5t-195 86.5q-120 0 -203 -87.5t-83 -211.5t84 -211t202 -87zM630 -451q-56 0 -93.5 36.5t-37.5 91.5q0 54 38 91t93 37q54 0 91 -37t37 -91q0 -55 -36.5 -91.5t-91.5 -36.5z" />
    <glyph glyph-name="uni1EB6" unicode="&#x1eb6;" horiz-adv-x="1492" 
d="M746 1524q-139 0 -239 100t-100 240h155q0 -76 54.5 -130.5t129.5 -54.5q76 0 130.5 54t54.5 131h155q0 -142 -100 -241t-240 -99zM602 1434h288l521 -1434h-265l-92 254h-615l-92 -254h-265zM530 504h432l-217 591zM748 -451q-56 0 -93.5 36.5t-37.5 91.5q0 54 38 91
t93 37q54 0 91 -37t37 -91q0 -55 -36.5 -91.5t-91.5 -36.5z" />
    <glyph glyph-name="uni1EB7" unicode="&#x1eb7;" horiz-adv-x="1226" 
d="M629 1114q-139 0 -239.5 100t-100.5 240h155q0 -75 55 -129.5t130 -54.5q76 0 130 53.5t54 130.5h156q0 -142 -100 -241t-240 -99zM895 1024h250v-1024h-250l-11 127q-44 -72 -114 -113t-161 -41q-149 0 -275.5 74t-199.5 200.5t-73 275.5q0 144 70 266t191.5 193
t265.5 71q188 0 318 -160zM603 214q118 0 195.5 86.5t77.5 211.5q0 126 -78 212.5t-195 86.5q-120 0 -203 -87.5t-83 -211.5t84 -211t202 -87zM630 -451q-56 0 -93.5 36.5t-37.5 91.5q0 54 38 91t93 37q54 0 91 -37t37 -91q0 -55 -36.5 -91.5t-91.5 -36.5z" />
    <glyph glyph-name="uni1EB8" unicode="&#x1eb8;" horiz-adv-x="1124" 
d="M123 0v1434h899v-250h-649v-291h515v-250h-515v-393h649v-250h-899zM563 -451q-56 0 -93 36.5t-37 91.5q0 54 37.5 91t92.5 37q54 0 91.5 -37t37.5 -91q0 -55 -36.5 -91.5t-92.5 -36.5z" />
    <glyph glyph-name="uni1EB9" unicode="&#x1eb9;" horiz-adv-x="1145" 
d="M573 -27q-139 0 -257 72.5t-186.5 196.5t-68.5 271t68.5 271t186.5 196.5t257 72.5q117 0 219 -52t170 -137t100.5 -200.5t15.5 -236.5h-748q22 -90 86 -146.5t157 -57.5q63 -1 117.5 31t91.5 88l255 -59q-64 -139 -188.5 -224.5t-275.5 -85.5zM322 614h503
q-19 94 -90 157.5t-162 63.5t-160.5 -62.5t-90.5 -158.5zM574 -451q-56 0 -93 36.5t-37 91.5q0 54 37.5 91t92.5 37q54 0 91 -37t37 -91q0 -55 -36.5 -91.5t-91.5 -36.5z" />
    <glyph glyph-name="uni1EBC" unicode="&#x1ebc;" horiz-adv-x="1124" 
d="M722 1541q-34 0 -90.5 27.5t-103.5 59t-88.5 51t-53.5 7.5q-26 -27 -9 -90l-147 -40q-41 120 8.5 205t163.5 85q43 0 115 -36.5t133 -73t77 -36.5q28 0 30.5 30t-11.5 58l149 48q41 -124 -11 -209.5t-162 -85.5zM123 0v1434h899v-250h-649v-291h515v-250h-515v-393h649
v-250h-899z" />
    <glyph glyph-name="uni1EBD" unicode="&#x1ebd;" horiz-adv-x="1145" 
d="M732 1132q-34 0 -90.5 27.5t-103 58.5t-88 50.5t-53.5 7.5q-27 -28 -9 -89l-146 -40q-41 120 8.5 205t162.5 85q43 0 115 -36.5t132.5 -73.5t76.5 -37q28 0 31 30t-10 58l148 48q41 -124 -11.5 -209t-162.5 -85zM573 -27q-139 0 -257 72.5t-186.5 196.5t-68.5 271
t68.5 271t186.5 196.5t257 72.5q117 0 219 -52t170 -137t100.5 -200.5t15.5 -236.5h-748q22 -90 86 -146.5t157 -57.5q63 -1 117.5 31t91.5 88l255 -59q-64 -139 -188.5 -224.5t-275.5 -85.5zM322 614h503q-19 94 -90 157.5t-162 63.5t-160.5 -62.5t-90.5 -158.5z" />
    <glyph glyph-name="uni1EC6" unicode="&#x1ec6;" horiz-adv-x="1124" 
d="M702 1841l198 -295h-166l-172 198l-170 -198h-166l195 295h281zM123 0v1434h899v-250h-649v-291h515v-250h-515v-393h649v-250h-899zM563 -451q-56 0 -93 36.5t-37 91.5q0 54 37.5 91t92.5 37q54 0 91.5 -37t37.5 -91q0 -55 -36.5 -91.5t-92.5 -36.5z" />
    <glyph glyph-name="uni1EC7" unicode="&#x1ec7;" horiz-adv-x="1145" 
d="M713 1432l198 -295h-167l-171 197l-170 -197h-165l194 295h281zM573 -27q-139 0 -257 72.5t-186.5 196.5t-68.5 271t68.5 271t186.5 196.5t257 72.5q117 0 219 -52t170 -137t100.5 -200.5t15.5 -236.5h-748q22 -90 86 -146.5t157 -57.5q63 -1 117.5 31t91.5 88l255 -59
q-64 -139 -188.5 -224.5t-275.5 -85.5zM322 614h503q-19 94 -90 157.5t-162 63.5t-160.5 -62.5t-90.5 -158.5zM574 -451q-56 0 -93 36.5t-37 91.5q0 54 37.5 91t92.5 37q54 0 91 -37t37 -91q0 -55 -36.5 -91.5t-91.5 -36.5z" />
    <glyph glyph-name="uni1ECA" unicode="&#x1eca;" horiz-adv-x="557" 
d="M154 0v1434h249v-1434h-249zM280 -451q-56 0 -93 36.5t-37 91.5q0 54 37.5 91t92.5 37q54 0 91.5 -37t37.5 -91q0 -55 -36.5 -91.5t-92.5 -36.5z" />
    <glyph glyph-name="uni1ECB" unicode="&#x1ecb;" 
d="M249 1156q-56 0 -93 36.5t-37 91.5q0 54 37.5 91t92.5 37q54 0 91.5 -37t37.5 -91q0 -55 -36.5 -91.5t-92.5 -36.5zM123 1024h250v-1024h-250v1024zM250 -451q-56 0 -93 36.5t-37 91.5q0 54 37.5 91t92.5 37q54 0 91 -37t37 -91q0 -55 -36.5 -91.5t-91.5 -36.5z" />
    <glyph glyph-name="uni1ECC" unicode="&#x1ecc;" horiz-adv-x="1576" 
d="M788 -27q-143 0 -274 59t-225.5 158.5t-150.5 237.5t-56 289t56 288.5t150.5 237t225.5 158.5t274 59q191 0 354 -99.5t258 -270.5t95 -373q0 -151 -56 -289t-151 -237.5t-226 -158.5t-274 -59zM788 223q188 0 322.5 146t134.5 348q0 133 -61.5 246.5t-167 180
t-228.5 66.5q-188 0 -322 -145.5t-134 -347.5q0 -203 134 -348.5t322 -145.5zM790 -451q-56 0 -93.5 36.5t-37.5 91.5q0 54 38 91t93 37q54 0 91.5 -37t37.5 -91q0 -55 -36.5 -91.5t-92.5 -36.5z" />
    <glyph glyph-name="uni1ECD" unicode="&#x1ecd;" horiz-adv-x="1146" 
d="M573 -27q-139 0 -257 72.5t-186.5 196.5t-68.5 270q0 147 68.5 271.5t186.5 197t257 72.5t257 -72.5t186.5 -197t68.5 -271.5q0 -146 -68.5 -270t-186.5 -196.5t-257 -72.5zM573 223q110 0 186.5 85.5t76.5 203.5q0 119 -77.5 205t-185.5 86q-109 0 -185.5 -86.5
t-76.5 -204.5q0 -121 77 -205t185 -84zM574 -451q-56 0 -93 36.5t-37 91.5q0 54 37.5 91t92.5 37q54 0 91.5 -37t37.5 -91q0 -55 -36.5 -91.5t-92.5 -36.5z" />
    <glyph glyph-name="uni1ED8" unicode="&#x1ed8;" horiz-adv-x="1576" 
d="M929 1841l197 -295h-165l-173 198l-170 -198h-165l194 295h282zM788 -27q-143 0 -274 59t-225.5 158.5t-150.5 237.5t-56 289t56 288.5t150.5 237t225.5 158.5t274 59q191 0 354 -99.5t258 -270.5t95 -373q0 -151 -56 -289t-151 -237.5t-226 -158.5t-274 -59zM788 223
q188 0 322.5 146t134.5 348q0 133 -61.5 246.5t-167 180t-228.5 66.5q-188 0 -322 -145.5t-134 -347.5q0 -203 134 -348.5t322 -145.5zM790 -451q-56 0 -93.5 36.5t-37.5 91.5q0 54 38 91t93 37q54 0 91.5 -37t37.5 -91q0 -55 -36.5 -91.5t-92.5 -36.5z" />
    <glyph glyph-name="uni1ED9" unicode="&#x1ed9;" horiz-adv-x="1146" 
d="M714 1432l197 -295h-166l-172 197l-170 -197h-165l194 295h282zM573 -27q-139 0 -257 72.5t-186.5 196.5t-68.5 270q0 147 68.5 271.5t186.5 197t257 72.5t257 -72.5t186.5 -197t68.5 -271.5q0 -146 -68.5 -270t-186.5 -196.5t-257 -72.5zM573 223q110 0 186.5 85.5
t76.5 203.5q0 119 -77.5 205t-185.5 86q-109 0 -185.5 -86.5t-76.5 -204.5q0 -121 77 -205t185 -84zM574 -451q-56 0 -93 36.5t-37 91.5q0 54 37.5 91t92.5 37q54 0 91.5 -37t37.5 -91q0 -55 -36.5 -91.5t-92.5 -36.5z" />
    <glyph glyph-name="uni1EE4" unicode="&#x1ee4;" horiz-adv-x="1392" 
d="M697 -27q-168 0 -300 84t-203 226t-71 315v836h250v-836q0 -160 87 -267.5t237 -107.5q151 0 237 107t86 268v836h250v-836q0 -129 -41.5 -243.5t-115.5 -199t-182 -133.5t-234 -49zM697 -451q-56 0 -93 36.5t-37 91.5q0 54 37.5 91t92.5 37q54 0 91 -37t37 -91
q0 -55 -36.5 -91.5t-91.5 -36.5z" />
    <glyph glyph-name="uni1EE5" unicode="&#x1ee5;" horiz-adv-x="1101" 
d="M82 379v645h250v-580q0 -91 64 -154.5t154 -63.5q91 0 155 63.5t64 154.5v580h250l1 -1024h-250l-1 93q-115 -120 -282 -120q-168 0 -286.5 119t-118.5 287zM582 -449q-56 0 -93 36.5t-37 91.5q0 54 37.5 91t92.5 37q54 0 91.5 -37t37.5 -91q0 -55 -36.5 -91.5
t-92.5 -36.5z" />
    <glyph glyph-name="Ygrave" unicode="&#x1ef2;" horiz-adv-x="1357" 
d="M412 1841h250l81 -295h-166zM1001 1434h295l-492 -788v-646h-250v646l-493 788h295l323 -515z" />
    <glyph glyph-name="ygrave" unicode="&#x1ef3;" horiz-adv-x="1172" 
d="M318 1432h250l82 -295h-166zM825 1024h266l-561 -1536h-265l186 512l-369 1024h273l220 -682z" />
    <glyph glyph-name="uni1EF4" unicode="&#x1ef4;" horiz-adv-x="1357" 
d="M1001 1434h295l-492 -788v-646h-250v646l-493 788h295l323 -515zM680 -451q-56 0 -93 36.5t-37 91.5q0 54 37.5 91t92.5 37q54 0 91 -37t37 -91q0 -55 -36.5 -91.5t-91.5 -36.5z" />
    <glyph glyph-name="uni1EF5" unicode="&#x1ef5;" horiz-adv-x="1172" 
d="M825 1024h266l-561 -1536h-265l186 512l-369 1024h273l220 -682zM830 -451q-56 0 -93 36.5t-37 91.5q0 54 37.5 91t92.5 37q54 0 91.5 -37t37.5 -91q0 -55 -36.5 -91.5t-92.5 -36.5z" />
    <glyph glyph-name="uni1EF8" unicode="&#x1ef8;" horiz-adv-x="1357" 
d="M838 1541q-34 0 -90.5 27.5t-103 59t-88 51t-53.5 7.5q-27 -28 -9 -90l-147 -40q-41 120 8.5 205t162.5 85q43 0 115.5 -36.5t133.5 -73t77 -36.5q50 0 19 88l149 48q41 -124 -11.5 -209.5t-162.5 -85.5zM1001 1434h295l-492 -788v-646h-250v646l-493 788h295l323 -515z
" />
    <glyph glyph-name="uni1EF9" unicode="&#x1ef9;" horiz-adv-x="1172" 
d="M745 1132q-43 0 -120.5 44.5t-138 79.5t-75.5 20q-27 -29 -11 -89l-145 -40q-41 120 8.5 205t162.5 85q43 0 115 -36.5t133 -73.5t77 -37q28 0 30.5 30t-11.5 58l149 48q41 -124 -11.5 -209t-162.5 -85zM825 1024h266l-561 -1536h-265l186 512l-369 1024h273l220 -682z
" />
    <glyph glyph-name="uni2002" unicode="&#x2002;" horiz-adv-x="1024" 
 />
    <glyph glyph-name="uni2009" unicode="&#x2009;" horiz-adv-x="409" 
 />
    <glyph glyph-name="uni200B" unicode="&#x200b;" horiz-adv-x="0" 
 />
    <glyph glyph-name="endash" unicode="&#x2013;" horiz-adv-x="1269" 
d="M123 739h1024v-250h-1024v250z" />
    <glyph glyph-name="emdash" unicode="&#x2014;" horiz-adv-x="2088" 
d="M123 739h1843v-250h-1843v250z" />
    <glyph glyph-name="quoteright" unicode="&#x2019;" horiz-adv-x="415" 
d="M41 899l63 535h250l-146 -535h-167z" />
    <glyph glyph-name="quoteright" unicode="&#x2032;" horiz-adv-x="415" 
d="M41 899l63 535h250l-146 -535h-167z" />
    <glyph glyph-name="quotesinglbase" unicode="&#x201a;" horiz-adv-x="467" 
d="M73 -115l63 346h250l-147 -346h-166z" />
    <glyph glyph-name="quotedblleft" unicode="&#x201c;" horiz-adv-x="823" 
d="M469 903l146 535h167l-63 -535h-250zM123 899l146 535h167l-63 -535h-250z" />
    <glyph glyph-name="quotedblright" unicode="&#x201d;" horiz-adv-x="823" 
d="M41 899l63 535h250l-146 -535h-167zM387 899l64 535h249l-146 -535h-167z" />
    <glyph glyph-name="quotedblright" unicode="&#x2033;" horiz-adv-x="823" 
d="M41 899l63 535h250l-146 -535h-167zM387 899l64 535h249l-146 -535h-167z" />
    <glyph glyph-name="quotedblbase" unicode="&#x201e;" horiz-adv-x="844" 
d="M73 -115l63 346h250l-147 -346h-166zM450 -115l63 346h250l-147 -346h-166z" />
    <glyph glyph-name="dagger" unicode="&#x2020;" horiz-adv-x="879" 
d="M82 1058v250h232v228h250v-228h234v-250h-234v-475h-250v475h-232z" />
    <glyph glyph-name="daggerdbl" unicode="&#x2021;" horiz-adv-x="879" 
d="M82 748v247h232v141h-232v249h232v151h250v-151h234v-249h-234v-141h234v-247h-234v-175h-250v175h-232z" />
    <glyph glyph-name="bullet" unicode="&#x2022;" horiz-adv-x="506" 
d="M253 443q-71 0 -121 49.5t-50 121.5q0 71 50 121t121 50t121.5 -50t50.5 -121q0 -72 -50 -121.5t-122 -49.5z" />
    <glyph glyph-name="ellipsis" unicode="&#x2026;" horiz-adv-x="1286" 
d="M210 -27q-54 0 -91 37t-37 92q0 53 37 90.5t91 37.5q53 0 91 -37.5t38 -90.5q0 -54 -37.5 -91.5t-91.5 -37.5zM623 -27q-54 0 -91 37t-37 92q0 53 37 90.5t91 37.5q53 0 91 -37.5t38 -90.5q0 -54 -37.5 -91.5t-91.5 -37.5zM1035 -27q-54 0 -91.5 37t-37.5 92
q0 53 37.5 90.5t91.5 37.5q53 0 90.5 -37.5t37.5 -90.5q0 -54 -37.5 -91.5t-90.5 -37.5z" />
    <glyph glyph-name="perthousand" unicode="&#x2030;" horiz-adv-x="2207" 
d="M214 0l827 1434h289l-827 -1434h-289zM390 812q-127 0 -217.5 89t-90.5 217q0 130 91 218.5t217 88.5t216 -90t90 -217q0 -129 -90.5 -217.5t-215.5 -88.5zM390 983q56 0 95.5 39t39.5 96t-39.5 96t-95.5 39q-57 0 -97 -39t-40 -96t40 -96t97 -39zM1140 7
q-127 0 -216.5 91.5t-89.5 214.5q0 129 91 219t215 90q130 0 219 -92t89 -217q0 -126 -90.5 -216t-217.5 -90zM1818 7q-127 0 -217.5 91.5t-90.5 214.5q0 129 91.5 219t216.5 90q130 0 219 -92t89 -217q0 -126 -90.5 -216t-217.5 -90zM1140 178q57 0 97 39.5t40 95.5
q0 57 -40 97.5t-97 40.5q-56 0 -95.5 -40.5t-39.5 -97.5q0 -55 39.5 -95t95.5 -40zM1818 178q57 0 97 39.5t40 95.5q0 57 -40 97.5t-97 40.5q-56 0 -96 -40.5t-40 -97.5q0 -55 40 -95t96 -40z" />
    <glyph glyph-name="uni2035" unicode="&#x2035;" horiz-adv-x="559" 
d="M269 899l-146 535h250l63 -535h-167z" />
    <glyph glyph-name="guilsinglleft" unicode="&#x2039;" horiz-adv-x="787" 
d="M430 267l-307 348l307 347h255l-306 -347l306 -348h-255z" />
    <glyph glyph-name="guilsinglright" unicode="&#x203a;" horiz-adv-x="787" 
d="M102 267l306 348l-306 347h255l308 -347l-308 -348h-255z" />
    <glyph glyph-name="fraction" unicode="&#x2044;" horiz-adv-x="460" 
d="M-287 0l828 1434h207l-828 -1434h-207z" />
    <glyph glyph-name="fraction" unicode="&#x2215;" horiz-adv-x="460" 
d="M-287 0l828 1434h207l-828 -1434h-207z" />
    <glyph glyph-name="uni2070" unicode="&#x2070;" horiz-adv-x="663" 
d="M332 817q-108 0 -183 99t-75 245q0 145 75.5 243.5t182.5 98.5t182.5 -98.5t75.5 -243.5q0 -146 -75 -245t-183 -99zM332 956q48 0 78 67.5t30 137.5q0 75 -30.5 139t-77.5 64q-51 0 -80 -64.5t-29 -138.5q0 -77 30 -141t79 -64z" />
    <glyph glyph-name="uni2074" unicode="&#x2074;" horiz-adv-x="707" 
d="M350 838v100h-252v179l233 367h169v-397h60v-149h-60v-100h-150zM245 1087h119v190z" />
    <glyph glyph-name="uni2075" unicode="&#x2075;" horiz-adv-x="714" 
d="M326 817q-100 0 -170 64.5t-70 162.5h150q0 -37 26 -62.5t64 -25.5t65 25.5t27 62.5q0 36 -26.5 62t-65.5 29q-83 6 -205 -15l34 364h350v-130h-215l-3 -72q127 4 203.5 -61.5t76.5 -176.5q0 -98 -70 -162.5t-171 -64.5z" />
    <glyph glyph-name="uni2076" unicode="&#x2076;" horiz-adv-x="722" 
d="M337 817q-102 0 -170.5 63.5t-68.5 162.5q0 49 25 102t131 234q12 20 19 32t19 32t22 38h173l-120 -206q96 -16 152 -80.5t56 -153.5q0 -98 -69.5 -161t-168.5 -63zM337 956q40 0 66.5 30t20.5 70q-4 33 -29 54.5t-58 21.5q-44 0 -69 -32t-19 -70q4 -36 29.5 -55
t58.5 -19z" />
    <glyph glyph-name="uni2077" unicode="&#x2077;" horiz-adv-x="685" 
d="M155 838l283 494h-315v150h488v-146l-285 -498h-171z" />
    <glyph glyph-name="uni2078" unicode="&#x2078;" horiz-adv-x="641" 
d="M319 817q-94 0 -157.5 58t-63.5 149q0 89 61 153q-47 57 -47 129q0 87 60 143t147 56q88 0 149 -56.5t61 -142.5q0 -72 -47 -129q61 -64 61 -153q0 -91 -64.5 -149t-159.5 -58zM319 1247q25 0 43 17.5t18 41.5q0 25 -17.5 41.5t-43.5 16.5q-24 0 -41 -16.5t-17 -41.5
q0 -24 17 -41.5t41 -17.5zM319 955q31 0 52.5 20t21.5 49q0 32 -21.5 53t-52.5 21q-29 0 -50 -21.5t-21 -52.5q0 -29 21 -49t50 -20z" />
    <glyph glyph-name="uni2079" unicode="&#x2079;" horiz-adv-x="673" 
d="M160 838l121 209q-99 6 -158.5 85.5t-41.5 172.5q8 88 73.5 143t157.5 55q110 0 179.5 -77t52.5 -177q-1 -45 -27 -92l-185 -319h-172zM312 1188q40 0 66.5 30.5t21.5 70.5q-4 31 -30.5 53t-57.5 22q-42 0 -67.5 -30t-20.5 -68q3 -38 30.5 -58t57.5 -20z" />
    <glyph glyph-name="uni2080" unicode="&#x2080;" horiz-adv-x="663" 
d="M332 -32q-107 0 -182.5 103t-75.5 250q0 146 75.5 248.5t182.5 102.5t182.5 -102.5t75.5 -248.5q0 -147 -75.5 -250t-182.5 -103zM332 118q48 0 78 66.5t30 136.5q0 74 -30.5 137.5t-77.5 63.5q-51 0 -80 -63.5t-29 -137.5q0 -76 30 -139.5t79 -63.5z" />
    <glyph glyph-name="uni2081" unicode="&#x2081;" horiz-adv-x="461" 
d="M165 0v497h-67l22 149h194v-646h-149z" />
    <glyph glyph-name="uni2082" unicode="&#x2082;" horiz-adv-x="731" 
d="M98 0v132q18 12 71 47t82.5 56.5t70.5 55.5t68.5 70t43.5 74q0 39 -26.5 65t-65.5 26t-66.5 -26t-27.5 -65h-150q0 100 71.5 170t172.5 70t171.5 -70t70.5 -170q0 -27 -8 -53t-27.5 -53.5t-34 -46.5t-47.5 -48.5t-47 -41t-51 -42.5h205v-150h-476z" />
    <glyph glyph-name="uni2083" unicode="&#x2083;" horiz-adv-x="590" 
d="M296 -32q-92 0 -157 64t-65 156h149q0 -30 21 -50t52 -20q30 0 51 20t21 50q0 39 -33 68t-92 29v100q56 0 81.5 24t25.5 59q0 23 -17.5 38.5t-41.5 15.5t-41 -15.5t-17 -38.5h-149q0 85 60.5 144.5t146.5 59.5q87 0 147.5 -59.5t60.5 -144.5q0 -76 -45 -129
q63 -62 63 -151q0 -92 -65 -156t-156 -64z" />
    <glyph glyph-name="uni2084" unicode="&#x2084;" horiz-adv-x="707" 
d="M350 0v100h-252v181l233 365h169v-396h60v-150h-60v-100h-150zM245 250h119v189z" />
    <glyph glyph-name="uni2085" unicode="&#x2085;" horiz-adv-x="714" 
d="M326 -32q-99 0 -169.5 68.5t-70.5 167.5h150q0 -37 26 -61.5t64 -24.5t65 24.5t27 61.5t-27 63.5t-65 26.5l-207 -8l36 357h350v-132h-215l-3 -70l42 2q111 0 174.5 -67.5t63.5 -171.5q0 -99 -70.5 -167.5t-170.5 -68.5z" />
    <glyph glyph-name="uni2086" unicode="&#x2086;" horiz-adv-x="698" 
d="M337 -32q-101 0 -170 68t-69 168q0 49 25 102t131 234q12 20 19 32t19 32t22 38h173l-120 -208q95 -15 151.5 -79t56.5 -153q0 -99 -70 -166.5t-168 -67.5zM337 118q40 0 66.5 29t20.5 68q-4 34 -29 55t-58 21q-43 0 -67.5 -31.5t-20.5 -70.5q4 -35 29.5 -53t58.5 -18z
" />
    <glyph glyph-name="uni2087" unicode="&#x2087;" horiz-adv-x="685" 
d="M152 0l286 497h-315v149h488v-145l-288 -501h-171z" />
    <glyph glyph-name="uni2088" unicode="&#x2088;" horiz-adv-x="641" 
d="M319 -32q-93 0 -157 62t-64 154q0 89 61 153q-47 57 -47 129q0 87 60 146.5t147 59.5t148.5 -59.5t61.5 -146.5q0 -72 -47 -129q61 -64 61 -153q0 -92 -65 -154t-159 -62zM319 407q25 0 43 17.5t18 41.5q0 25 -17.5 41t-43.5 16q-24 0 -41 -16.5t-17 -40.5t17 -41.5
t41 -17.5zM319 115q32 0 53 19.5t21 49.5q0 31 -21.5 52t-52.5 21q-29 0 -50 -21t-21 -52q0 -30 20.5 -49.5t50.5 -19.5z" />
    <glyph glyph-name="uni2089" unicode="&#x2089;" horiz-adv-x="673" 
d="M160 0l121 209q-99 6 -158.5 86t-41.5 173q8 89 74 148t157 59q66 0 121.5 -32.5t84 -83.5t32.5 -114t-32 -123l-186 -322h-172zM312 351q40 0 66.5 30.5t21.5 70.5q-4 31 -30.5 52.5t-57.5 21.5q-42 0 -67.5 -30t-20.5 -68q3 -38 30.5 -57.5t57.5 -19.5z" />
    <glyph glyph-name="Euro" unicode="&#x20ac;" horiz-adv-x="1147" 
d="M1066 -16q-273 -45 -495.5 101t-300.5 410h-188v171h158v99h-158v171h188q50 175 168.5 303t283.5 184.5t344 26.5v-258q-167 45 -311.5 -28.5t-213.5 -227.5h277v-171h-329l3 -99h326v-171h-275q71 -155 215.5 -226.5t307.5 -26.5v-258z" />
    <glyph glyph-name="trademark" unicode="&#x2122;" horiz-adv-x="3101" 
d="M1208 1434v-250h-438v-1184h-250v1184h-438v250h1126zM1311 0l277 1434h207l350 -919l348 919h207l279 -1434h-255l-171 887l-323 -854h-171l-322 854l-172 -887h-254z" />
    <glyph glyph-name="oneeighth" unicode="&#x215b;" horiz-adv-x="1563" 
d="M165 838v496h-67l22 150h194v-646h-149zM175 0l827 1434h207l-827 -1434h-207zM1242 -32q-93 0 -157 62t-64 154q0 90 60 153q-47 57 -47 129q0 87 60.5 146.5t147.5 59.5t148.5 -59.5t61.5 -146.5q0 -72 -47 -129q60 -63 60 -153q0 -92 -64.5 -154t-158.5 -62zM1242 407
q25 0 43 17.5t18 41.5q0 25 -17.5 41t-43.5 16q-24 0 -41 -16.5t-17 -40.5t17 -41.5t41 -17.5zM1242 115q32 0 53 19.5t21 49.5q0 31 -21.5 52t-52.5 21q-30 0 -51 -21.5t-21 -51.5t21 -49.5t51 -19.5z" />
    <glyph glyph-name="threeeighths" unicode="&#x215c;" horiz-adv-x="1692" 
d="M296 817q-93 0 -157.5 60t-64.5 151h149q0 -31 21 -51.5t52 -20.5q30 0 51 20.5t21 51.5q0 40 -33 68.5t-92 28.5v100q56 0 81.5 24t25.5 59q0 23 -17.5 39t-41.5 16t-41 -16t-17 -39h-149q0 84 60 139.5t147 55.5q88 0 148 -55t60 -140q0 -76 -45 -129q63 -60 63 -151
t-64.5 -151t-156.5 -60zM304 0l828 1434h206l-827 -1434h-207zM1371 -32q-93 0 -157 62t-64 154q0 90 60 153q-47 55 -47 129q0 87 60.5 146.5t147.5 59.5t148.5 -59.5t61.5 -146.5q0 -72 -47 -129q60 -63 60 -153q0 -92 -64.5 -154t-158.5 -62zM1371 407q25 0 43 17.5
t18 41.5q0 25 -17.5 41t-43.5 16q-24 0 -41.5 -16.5t-17.5 -40.5t17.5 -41.5t41.5 -17.5zM1371 115q31 0 52.5 19.5t21.5 49.5q0 31 -21.5 52t-52.5 21q-30 0 -51.5 -21t-21.5 -52q0 -30 21.5 -49.5t51.5 -19.5z" />
    <glyph glyph-name="fiveeighths" unicode="&#x215d;" horiz-adv-x="1815" 
d="M326 817q-100 0 -170 64.5t-70 162.5h150q0 -37 26 -62.5t64 -25.5t65 25.5t27 62.5q0 36 -26.5 62t-65.5 29q-83 6 -205 -15l34 364h350v-130h-215l-3 -72q127 4 203.5 -61.5t76.5 -176.5q0 -98 -70 -162.5t-171 -64.5zM428 0l827 1434h207l-827 -1434h-207zM1494 -32
q-92 0 -156 62t-64 154q0 91 60 153q-47 55 -47 129q0 87 60.5 146.5t146.5 59.5q88 0 149 -59.5t61 -146.5q0 -74 -47 -129q60 -62 60 -153q0 -92 -64.5 -154t-158.5 -62zM1494 407q25 0 43 17.5t18 41.5q0 25 -17.5 41t-43.5 16q-24 0 -41 -16.5t-17 -40.5t17.5 -41.5
t40.5 -17.5zM1494 115q32 0 53.5 19.5t21.5 49.5q0 31 -21.5 52t-53.5 21q-30 0 -51 -21.5t-21 -51.5t21 -49.5t51 -19.5z" />
    <glyph glyph-name="seveneighths" unicode="&#x215e;" horiz-adv-x="1786" 
d="M155 838l283 494h-315v150h488v-146l-285 -498h-171zM398 0l828 1434h207l-828 -1434h-207zM1465 -32q-93 0 -157 62t-64 154q0 89 61 153q-48 56 -48 129q0 87 60.5 146.5t147.5 59.5t148.5 -59.5t61.5 -146.5q0 -72 -47 -129q61 -64 61 -153q0 -92 -65 -154t-159 -62z
M1465 407q25 0 43 17.5t18 41.5q0 25 -17.5 41t-43.5 16q-24 0 -41 -16.5t-17 -40.5t17 -41.5t41 -17.5zM1465 115q31 0 52.5 19.5t21.5 49.5q0 31 -21.5 52t-52.5 21q-29 0 -50.5 -21.5t-21.5 -51.5t21 -49.5t51 -19.5z" />
    <glyph glyph-name="arrowleft" unicode="&#x2190;" horiz-adv-x="1439" 
d="M627 223l-545 545l545 545l176 -176l-243 -244h798v-250h-798l243 -244z" />
    <glyph glyph-name="arrowup" unicode="&#x2191;" horiz-adv-x="1253" 
d="M502 129v799l-243 -243l-177 177l545 545l544 -545l-176 -177l-243 243v-799h-250z" />
    <glyph glyph-name="arrowright" unicode="&#x2192;" horiz-adv-x="1441" 
d="M815 223l-177 176l242 244h-798v250h798l-242 244l177 176l545 -545z" />
    <glyph glyph-name="arrowdown" unicode="&#x2193;" horiz-adv-x="1252" 
d="M625 129l-543 545l176 177l242 -243v799h250v-799l243 243l177 -177z" />
    <glyph glyph-name="arrowboth" unicode="&#x2194;" horiz-adv-x="1887" 
d="M627 223l-545 545l545 545l176 -176l-243 -244h765l-242 244l177 176l545 -545l-545 -545l-177 176l242 244h-765l243 -244z" />
    <glyph glyph-name="arrowupdn" unicode="&#x2195;" horiz-adv-x="1253" 
d="M627 -94l-545 546l176 177l244 -243v764l-244 -242l-176 177l545 545l544 -545l-176 -177l-243 242v-764l243 243l176 -177z" />
    <glyph glyph-name="uni2196" unicode="&#x2196;" horiz-adv-x="1155" 
d="M897 272l-565 566v-344h-250v770h770v-250h-343l564 -565z" />
    <glyph glyph-name="uni2197" unicode="&#x2197;" horiz-adv-x="1155" 
d="M258 273l-176 177l565 563h-346v250h772v-770h-250v344z" />
    <glyph glyph-name="uni2198" unicode="&#x2198;" horiz-adv-x="1155" 
d="M303 273v250h344l-565 563l176 177l565 -564v344h250v-770h-770z" />
    <glyph glyph-name="uni2199" unicode="&#x2199;" horiz-adv-x="1155" 
d="M82 273v770h250v-344l565 564l176 -177l-565 -563h344v-250h-770z" />
    <glyph glyph-name="partialdiff" unicode="&#x2202;" horiz-adv-x="1193" 
d="M598 -27q-140 0 -259 69t-188 187.5t-69 257.5q0 140 69 259t188 188.5t259 69.5q94 0 163 -62q-20 57 -40.5 103.5t-56 98.5t-76.5 87t-102 58.5t-133 23.5l-2 250q167 0 311.5 -85.5t241.5 -228.5t152.5 -331t55.5 -392q0 -243 -144.5 -398t-369.5 -155zM598 223
q109 0 186.5 78.5t77.5 185.5q0 109 -78 188t-186 79q-110 0 -188 -79t-78 -188q0 -108 78 -186t188 -78z" />
    <glyph glyph-name="emptyset" unicode="&#x2205;" horiz-adv-x="1187" 
d="M371 -77l-176 102l53 92q-78 75 -122 177.5t-44 217.5q0 147 68.5 271.5t186.5 197t257 72.5q95 0 174 -33l50 84l175 -102l-53 -93q78 -75 122 -178t44 -219q0 -146 -68.5 -270t-186.5 -196.5t-257 -72.5q-92 0 -175 34zM372 328l283 492q-86 18 -165.5 -21.5t-128 -121
t-48.5 -179.5t59 -170zM532 206q88 -18 168 21.5t127 120t47 178.5q0 96 -57 173z" />
    <glyph glyph-name="product" unicode="&#x220f;" horiz-adv-x="1310" 
d="M82 1434h1147v-250h-142v-1184h-249v1184h-365v-1184h-250v1184h-141v250z" />
    <glyph glyph-name="summation" unicode="&#x2211;" horiz-adv-x="945" 
d="M82 0v250l237 465l-237 465v250h802v-250h-520l236 -465l-236 -465h520v-250h-802z" />
    <glyph glyph-name="minus" unicode="&#x2212;" horiz-adv-x="1187" 
d="M82 489v250h1024v-250h-1024z" />
    <glyph glyph-name="radical" unicode="&#x221a;" horiz-adv-x="1378" 
d="M923 1434h373v-250h-198l-433 -1184h-319l-264 725h265l159 -432z" />
    <glyph glyph-name="infinity" unicode="&#x221e;" horiz-adv-x="1557" 
d="M449 260q-167 15 -267 119t-100 254q0 157 103 264t264 109q99 0 176 -44t154 -138q78 93 155.5 137.5t170.5 44.5q171 -2 271 -109.5t100 -263.5q0 -158 -102 -264t-263 -109q-100 0 -176 43t-156 137q-81 -98 -157.5 -142t-172.5 -38zM1113 488q62 3 100 45.5t38 99.5
q0 58 -37.5 100t-96.5 45q-55 0 -98.5 -36t-99.5 -109q56 -72 99.5 -109t94.5 -36zM446 488q54 0 99.5 39.5t95.5 105.5q-52 69 -97 107t-98 36q-63 -4 -100.5 -46t-37.5 -97q0 -60 39 -101.5t99 -43.5z" />
    <glyph glyph-name="integral" unicode="&#x222b;" horiz-adv-x="1099" 
d="M364 -27q-126 0 -207.5 84.5t-74.5 210.5l159 -12q3 -29 6.5 -43t15 -26.5t32.5 -13.5q33 -1 56 17.5t27 49.5l99 1011q12 87 94 148.5t177 60.5q118 -1 199 -90.5t70 -205.5l-145 14q-5 45 -29 64.5t-58 14.5q-26 -2 -44 -20t-22 -50l-97 -1006q-24 -105 -94 -156.5
t-164 -51.5z" />
    <glyph glyph-name="approxequal" unicode="&#x2248;" horiz-adv-x="1336" 
d="M943 696q-60 0 -144 28.5t-154.5 62t-147 62t-123.5 28.5t-68.5 -35.5t-16.5 -83.5l-244 3q-22 135 71 242.5t233 107.5q59 0 136 -29t139 -64t133.5 -64t119.5 -29q47 0 70 34.5t17 86.5l245 -3q23 -140 -53 -243.5t-213 -103.5zM943 135q-60 0 -144 28t-154.5 62
t-147 62t-123.5 28t-68.5 -35t-16.5 -83l-244 3q-22 135 71 242.5t233 107.5q59 0 136 -29t139 -64t133.5 -64t119.5 -29q47 0 70 34.5t17 85.5l245 -2q23 -140 -53 -243.5t-213 -103.5z" />
    <glyph glyph-name="notequal" unicode="&#x2260;" horiz-adv-x="1187" 
d="M898 1210l-74 -251h282v-249h-355l-56 -191h411v-250h-484l-74 -251h-260l74 251h-280v250h353l55 191h-408v249h482l74 251h260z" />
    <glyph glyph-name="lessequal" unicode="&#x2264;" horiz-adv-x="1187" 
d="M1106 341l-1024 291v416l1024 292v-260l-843 -239l843 -241v-259zM82 0v250h1024v-250h-1024z" />
    <glyph glyph-name="greaterequal" unicode="&#x2265;" horiz-adv-x="1187" 
d="M82 359v261l843 230l-843 230v260l1024 -282v-417zM82 0v250h1024v-250h-1024z" />
    <glyph glyph-name="lozenge" unicode="&#x25ca;" horiz-adv-x="1107" 
d="M336 0l-275 719l273 715h440l273 -715l-275 -719h-436zM554 137l231 582l-231 581l-229 -581z" />
    <glyph glyph-name="uniFFFD" unicode="&#xfffd;" horiz-adv-x="1669" 
d="M836 -27q-121 0 -205 84l-424 424q-84 84 -84 205q0 119 84 203l424 424q84 84 205 84q118 0 202 -84l424 -424q84 -84 84 -203q0 -121 -84 -205l-424 -424q-84 -84 -202 -84zM750 526h172v2q0 37 30 54q62 35 97.5 95t35.5 132q0 106 -75.5 181.5t-182.5 75.5t-182 -75
t-75 -182h171q0 36 25 61t61 25t61.5 -25t25.5 -61q0 -56 -42 -77q-58 -29 -90 -84t-32 -120v-2zM841 264q36 0 61 25t25 62q0 35 -25 59.5t-61 24.5t-61 -24.5t-25 -59.5q0 -37 25 -62t61 -25z" />
    <glyph glyph-name="uni004A0301" horiz-adv-x="909" 
d="M596 1546l82 295h250l-165 -295h-167zM332 -27q-168 0 -291 106l160 192q55 -48 131 -48q84 0 144.5 62.5t60.5 147.5v1001h249v-1001q0 -93 -36 -177.5t-96.5 -146.5t-145 -99t-176.5 -37z" />
    <glyph glyph-name="uni013B.loclMAH" horiz-adv-x="1072" 
d="M123 0v1434h250v-1184h597v-250h-847zM357 -452l64 347h250l-147 -347h-167z" />
    <glyph glyph-name="uni0145.loclMAH" horiz-adv-x="1371" 
d="M123 0v1434h270l605 -982v982h250v-1434h-269l-606 982v-982h-250zM497 -452l63 347h250l-146 -347h-167z" />
    <glyph glyph-name="i.loclTRK" 
d="M249 1156q-56 0 -93 36.5t-37 91.5q0 54 37.5 91t92.5 37q54 0 91.5 -37t37.5 -91q0 -55 -36.5 -91.5t-92.5 -36.5zM123 1024h250v-1024h-250v1024z" />
    <glyph glyph-name="uni006A0301" horiz-adv-x="498" 
d="M185 1137l82 295h250l-165 -295h-167zM-82 -512v250q87 0 147.5 59.5t60.5 145.5v1081h250v-1081q0 -189 -133.5 -322t-324.5 -133z" />
    <glyph glyph-name="uni013C.loclMAH" 
d="M123 0v1536h250v-1536h-250zM59 -452l64 347h250l-147 -347h-167z" />
    <glyph glyph-name="uni0146.loclMAH" horiz-adv-x="1142" 
d="M1061 647v-647h-250v582q0 91 -64 154.5t-155 63.5t-154.5 -63.5t-63.5 -154.5v-582h-250l-1 1024h250l1 -91q114 120 281 120t286.5 -119t119.5 -287zM403 -452l64 347h250l-147 -347h-167z" />
    <glyph glyph-name="uni030C.alt" horiz-adv-x="0" 
d="M425 1137l82 295h250l-166 -295h-166z" />
    <glyph glyph-name="uni0326.loclMAH" horiz-adv-x="0" 
d="M410 -452l63 347h250l-146 -347h-167z" />
    </font>
</defs>
</svg>
